<?xml version="1.0" encoding="UTF-8"?>
<svg id="_圖層_2" data-name="圖層 2" xmlns="http://www.w3.org/2000/svg" viewBox="0 0 130.17 34.93">
  <defs>
    <style>
      .cls-1 {
        font-family: DotGothic16-Regular, DotGothic16;
        font-size: 18px;
        letter-spacing: .1em;
      }

      .cls-1, .cls-2 {
        fill: #faf9db;
      }
    </style>
  </defs>
  <g id="mobile">
    <g>
      <text class="cls-1" transform="translate(0 23.29)"><tspan x="0" y="0">Back</tspan></text>
      <g>
        <rect class="cls-2" x="126.29" y="15.53" width="3.88" height="3.88"/>
        <rect class="cls-2" x="122.4" y="19.41" width="3.88" height="3.88"/>
        <rect class="cls-2" x="122.4" y="15.53" width="3.88" height="3.88"/>
        <rect class="cls-2" x="122.4" y="11.65" width="3.88" height="3.88"/>
        <rect class="cls-2" x="118.52" y="23.29" width="3.88" height="3.88"/>
        <rect class="cls-2" x="118.52" y="15.53" width="3.88" height="3.88"/>
        <rect class="cls-2" x="118.52" y="7.76" width="3.88" height="3.88"/>
        <rect class="cls-2" x="114.64" y="27.17" width="3.88" height="3.88"/>
        <rect class="cls-2" x="114.64" y="15.53" width="3.88" height="3.88"/>
        <rect class="cls-2" x="114.64" y="3.88" width="3.88" height="3.88"/>
        <rect class="cls-2" x="110.76" y="31.05" width="3.88" height="3.88"/>
        <rect class="cls-2" x="110.76" y="15.53" width="3.88" height="3.88"/>
        <rect class="cls-2" x="110.76" width="3.88" height="3.88"/>
        <rect class="cls-2" x="106.88" y="15.53" width="3.88" height="3.88"/>
        <rect class="cls-2" x="102.99" y="15.53" width="3.88" height="3.88"/>
        <rect class="cls-2" x="99.11" y="15.53" width="3.88" height="3.88"/>
        <rect class="cls-2" x="95.23" y="15.53" width="3.88" height="3.88"/>
        <rect class="cls-2" x="91.35" y="15.53" width="3.88" height="3.88"/>
        <rect class="cls-2" x="53.21" y="15.53" width="38.14" height="3.88"/>
      </g>
    </g>
  </g>
</svg>