<?xml version="1.0" encoding="UTF-8"?>
<svg id="_圖層_2" data-name="圖層 2" xmlns="http://www.w3.org/2000/svg" viewBox="0 0 129.66 34.93">
  <defs>
    <style>
      .cls-1 {
        fill: #045e9e;
      }
    </style>
  </defs>
  <g id="sec1">
    <g>
      <g>
        <path class="cls-1" d="M0,9.13H5.78v1.1h1.1v1.12h1.12v3.53h-1.12v1.12h-1.1v.92h1.1v1.12h1.12v3.53h-1.12v1.12h-1.1v1.13H0V9.13Zm5.58,6.66v-1.1h1.12v-3.15h-1.12v-1.12H1.33v5.36H5.58Zm0,6.68v-1.1h1.12v-3.15h-1.12v-1.12H1.33v5.36H5.58Z"/>
        <path class="cls-1" d="M10.8,19.13h1.13v-1.12h4.45v-3.15h-4.25v2.23h-1.33v-2.41h1.13v-1.12h4.64v1.12h1.1v7.78h1.12v1.33h-1.3v-1.13h-2.03v1.13h-3.53v-1.13h-1.13v-3.53Zm4.46,3.33v-1.1h1.12v-2.03h-4.25v3.13h3.13Z"/>
        <path class="cls-1" d="M22.73,21.54h-1.13v-5.76h1.13v-1.1h1.12v-1.12h3.53v1.12h1.1v1.1h1.12v1.31h-1.3v-1.12h-1.12v-1.12h-3.15v1.12h-1.1v5.38h1.1v1.1h3.15v-1.1h1.12v-1.12h1.3v1.3h-1.12v1.12h-1.1v1.13h-3.53v-1.13h-1.12v-1.12Z"/>
        <path class="cls-1" d="M32.4,10.22h1.33v7.79h.92v-1.12h1.1v-1.12h2.23v-1.1h1.12v-1.12h1.3v1.3h-1.12v1.12h-1.1v1.12h-2.23v1.12h-1.12v.92h1.12v1.12h2.23v1.12h1.1v1.1h1.12v1.33h-1.3v-1.13h-1.12v-1.12h-2.23v-1.12h-1.1v-1.1h-.92v4.46h-1.33V10.22Z"/>
      </g>
      <g>
        <rect class="cls-1" x="125.78" y="15.53" width="3.88" height="3.88"/>
        <rect class="cls-1" x="121.9" y="19.41" width="3.88" height="3.88"/>
        <rect class="cls-1" x="121.9" y="15.53" width="3.88" height="3.88"/>
        <rect class="cls-1" x="121.9" y="11.65" width="3.88" height="3.88"/>
        <rect class="cls-1" x="118.02" y="23.29" width="3.88" height="3.88"/>
        <rect class="cls-1" x="118.02" y="15.53" width="3.88" height="3.88"/>
        <rect class="cls-1" x="118.02" y="7.76" width="3.88" height="3.88"/>
        <rect class="cls-1" x="114.14" y="27.17" width="3.88" height="3.88"/>
        <rect class="cls-1" x="114.14" y="15.53" width="3.88" height="3.88"/>
        <rect class="cls-1" x="114.14" y="3.88" width="3.88" height="3.88"/>
        <rect class="cls-1" x="110.25" y="31.05" width="3.88" height="3.88"/>
        <rect class="cls-1" x="110.25" y="15.53" width="3.88" height="3.88"/>
        <rect class="cls-1" x="110.25" width="3.88" height="3.88"/>
        <rect class="cls-1" x="106.37" y="15.53" width="3.88" height="3.88"/>
        <rect class="cls-1" x="102.49" y="15.53" width="3.88" height="3.88"/>
        <rect class="cls-1" x="98.61" y="15.53" width="3.88" height="3.88"/>
        <rect class="cls-1" x="94.73" y="15.53" width="3.88" height="3.88"/>
        <rect class="cls-1" x="90.85" y="15.53" width="3.88" height="3.88"/>
        <rect class="cls-1" x="52.7" y="15.53" width="38.14" height="3.88"/>
      </g>
    </g>
  </g>
</svg>