<svg xmlns="http://www.w3.org/2000/svg" xmlns:xlink="http://www.w3.org/1999/xlink" viewBox="0 0 1920 4840.28"><defs><style>.cls-1{fill:url(#未命名漸層_21);}.cls-2{opacity:0.42;}.cls-3{fill:#f7ac25;}.cls-4{fill:#ffc65e;}.cls-5{fill:#cc8e1f;}.cls-6{fill:#e1e8eb;}.cls-7{fill:#ccc;}.cls-8{fill:#88d46e;}.cls-9{fill:#abfa91;}.cls-10{fill:#e1e9e4;}.cls-11{fill:#3586e9;}.cls-12{fill:#9ecdfe;}.cls-13{fill:#ef5c98;}.cls-14{fill:#564fb0;}.cls-15{fill:#fff;}.cls-16{fill:#eae4e9;}.cls-17{fill:#da5c96;}.cls-18{fill:#f693c8;}.cls-19{fill:#ffc4e4;}.cls-20{fill:#f47d6a;}.cls-21{fill:#bd7099;}.cls-22{fill:#d95547;}.cls-23{fill:#db5447;}.cls-24{fill:#eae5e2;}.cls-25{fill:#e2e8ec;}.cls-26{fill:#eae3ed;}.cls-27{fill:#f36524;}.cls-28{fill:#eae6e5;}.cls-29{fill:#fdce4d;}.cls-30{fill:#e7e6e4;}</style><linearGradient id="未命名漸層_21" x1="86.07" y1="39.68" x2="1859.72" y2="4870.83" gradientUnits="userSpaceOnUse"><stop offset="0" stop-color="#80f1ec"/><stop offset="0.25" stop-color="#c0afe8"/><stop offset="0.53" stop-color="#faa9e0"/><stop offset="0.62" stop-color="#f6cbd4"/><stop offset="0.74" stop-color="#f2f1c8"/><stop offset="0.8" stop-color="#f1ffc3"/><stop offset="1" stop-color="#afe8fc"/></linearGradient></defs><g id="圖層_2" data-name="圖層 2"><g id="素材"><rect class="cls-1" width="1920" height="4840.28"/><g id="岩點" class="cls-2"><path class="cls-3" d="M1593,1292a42.15,42.15,0,0,1-17.29,23.65c-1.8,1.25-3.4,2.84-5.57,3.5a10.15,10.15,0,0,0-2.14.08,117.26,117.26,0,0,1-22.9,3c-7.66.33-15.37.35-22.68-2.64-3.21-1.31-6.17-2.84-8.3-5.8a45.19,45.19,0,0,1-6.24-13.63c-3-10-3.94-20.27-4.06-30.59-.08-7.49,1.81-21.27,1.05-21.47a11.52,11.52,0,0,1,7.1-4.65,24.83,24.83,0,0,1,5.23-.4c2.5,0,3.61.82,4.07,3.31a31.71,31.71,0,0,1,.55,10.14c-.72,5-1.49,10.07-2.67,15a71.35,71.35,0,0,0-2.31,15.26c-.11,6.72,3.77,10.6,9.6,12.46a44.23,44.23,0,0,0,16.89,1.62,20.56,20.56,0,0,0,12.72-5.88c6.11-5.79,8.39-13.39,10.21-21.19.87-3.75,1.89-7.46,2.58-11.25.77-4.22-.3-8.2-1.5-12.13a58.59,58.59,0,0,0-2.3-5.82c-1.21-2.85-1.08-3,1.86-3.49,3.85-.16,7.71-.48,11.46.8,6.61,2.25,10.74,7.1,13.66,13.18a35.5,35.5,0,0,1,3.11,13.66C1595.56,1276.53,1595.21,1284.32,1593,1292Z"/><path class="cls-4" d="M1568.86,1262.49c-.69,3.79-1.71,7.5-2.58,11.25-1.82,7.8-4.1,15.4-10.21,21.19a20.56,20.56,0,0,1-12.72,5.88,44.23,44.23,0,0,1-16.89-1.62c-5.83-1.86-9.71-5.74-9.6-12.46a71.35,71.35,0,0,1,2.31-15.26c1.18-5,1.95-10,2.67-15a31.71,31.71,0,0,0-.55-10.14c-.46-2.49-1.57-3.29-4.07-3.31a24.83,24.83,0,0,0-5.23.4,14.59,14.59,0,0,1,9-.29c8.26,2,16.54,1.51,24.84.45,6.31-.8,12.62-1.67,18.94-2.47a15.42,15.42,0,0,1,2.15,0c-2.94.47-3.07.64-1.86,3.49a58.59,58.59,0,0,1,2.3,5.82C1568.56,1254.29,1569.63,1258.27,1568.86,1262.49Z"/><path class="cls-5" d="M1570.16,1319.11c-3.12,2.52-6.82,4-10.43,5.62a81.7,81.7,0,0,1-21.13,6.31c-7,1-13.89,1.08-20.73-1.13-7.24-2.33-11.51-7.33-13.74-14.36-2.05-6.46-2.85-13.15-3.44-19.83-.76-8.53-1.74-17-1.54-25.62.13-5.62.56-11.21,2.61-16.55a17,17,0,0,1,3.13-5.53c.76.2-1.13,14-1.05,21.47.12,10.32,1,20.6,4.06,30.59a45.19,45.19,0,0,0,6.24,13.63c2.13,3,5.09,4.49,8.3,5.8,7.31,3,15,3,22.68,2.64a117.26,117.26,0,0,0,22.9-3A10.15,10.15,0,0,1,1570.16,1319.11Z"/><path class="cls-6" d="M1542.65,1279.15a7.09,7.09,0,0,1-7.15,7.38,7.21,7.21,0,0,1-7.46-7.34,7.57,7.57,0,0,1,7.42-7.52A7.32,7.32,0,0,1,1542.65,1279.15Z"/><path class="cls-7" d="M1540.28,1279.19a4.91,4.91,0,1,1-9.81,0,4.83,4.83,0,0,1,5-4.84A4.74,4.74,0,0,1,1540.28,1279.19Z"/><path class="cls-8" d="M465.55,1422.61c-3.21,7.5-6.62,14.92-9.19,22.69-2,6-4,12-5.91,18.09-3.24,10.47-9.78,17.64-20.53,20.43-8.26,2.14-16.34,4.92-24.72,6.63-6.82,1.38-12-.92-15.05-7.1-5.2-10.51-6.77-21.74-6-33.32,1.26-17.82,7.46-34,17-49,8.6-13.54,19.17-25.22,32.87-33.82a26.51,26.51,0,0,1,9.79-4c3.08-.51,4.53.37,5.6,3.44a29.58,29.58,0,0,1,.45,9.2,11.43,11.43,0,0,1-1.49,4,52.16,52.16,0,0,1-14,16.47c-6.51,5.15-13.69,9.49-19.66,15.32-5.05,4.93-9.84,10.12-11.22,17.39a30.36,30.36,0,0,0,.85,14.14,54.48,54.48,0,0,0,4.82,11.95c2.73,4.82,5.9,9.21,11.21,11.44a11.25,11.25,0,0,0,13.72-3.69,33.54,33.54,0,0,0,4.36-8.89c2.81-7.81,5.45-15.67,8.81-23.28a158.24,158.24,0,0,1,8.1-16,15.63,15.63,0,0,1,4.46-4.77c1-.69,2-1.1,3.09-.1C466.81,1413.5,467.67,1417.65,465.55,1422.61Z"/><path class="cls-9" d="M463,1409.86c-1.06-1-2.12-.59-3.09.1a15.63,15.63,0,0,0-4.46,4.77,158.24,158.24,0,0,0-8.1,16c-3.36,7.61-6,15.47-8.81,23.28a33.54,33.54,0,0,1-4.36,8.89,11.25,11.25,0,0,1-13.72,3.69c-5.31-2.23-8.48-6.62-11.21-11.44a54.48,54.48,0,0,1-4.82-11.95,30.36,30.36,0,0,1-.85-14.14c1.38-7.27,6.17-12.46,11.22-17.39,6-5.83,13.15-10.17,19.66-15.32a52.16,52.16,0,0,0,14-16.47,11.43,11.43,0,0,0,1.49-4,29.58,29.58,0,0,0-.45-9.2c.94,1.81.86,3.79.87,5.74,0,5.59-.31,11.19.49,16.76.84,5.8,2.73,11.11,7.05,15.33C459.6,1406.2,461.24,1408.06,463,1409.86Z"/><path class="cls-10" d="M414.43,1436.32a8.61,8.61,0,0,1,17.22-.2,8.61,8.61,0,1,1-17.22.2Z"/><path class="cls-7" d="M417.4,1436.3a5.64,5.64,0,1,1,11.28-.09,5.64,5.64,0,1,1-11.28.09Z"/><path class="cls-11" d="M567.33,1621.59a8.06,8.06,0,0,1-4.22,7.23c-6.26,3.68-13,3.61-19.79,2.28-10.29-2-19.4-6.78-28-12.76-8.22-5.75-17.58-8.77-27.32-10.63-2.33-.45-4.76-.51-6.44,2.07-.86,1.32-2.74,1.29-4.21,1-2.24-.47-4.3-1.41-5.49-3.59,1.51.92,3.52.62,4.77,2.41.61.87,2.3.49,3.44.16s1.2-1.35,1.28-2.4a8.37,8.37,0,0,1,1.63-4.82c3.28-4.13,7.69-6.16,12.7-7.09,1.81-.34,6.73,2.14,7.45,3.72a1.27,1.27,0,0,0,1.45.76c.84,0,1.34.52,2,.89,2.2,1.29,3.83,3.27,5.93,4.71s4.67,1.37,6.25,3.66c.68,1,2.57,1.09,3.89,1.65,5.08,2.12,10.55,2,15.6,1a18.08,18.08,0,0,0,11.21-7.13c2.08-2.91,5.15-5.24,5-9.46-.05-1.28-.37-2.5-.4-3.78a10.26,10.26,0,0,0-5.88-9.23c-4.51-2.39-9.1-4.67-14.47-4.13a1.64,1.64,0,0,1-.89-.1c-1.67-1-3.66-.81-5.53-.65-2.06.18-4.12.14-6.19.17q-6.68.09-13.34.56c-3.23.23-6.29,1.29-9.5,1.63-4.06.47-7.71,2-11.52,3.09a14.23,14.23,0,0,1-4.54.73c5.25-2.26,10.94-3.27,16.18-5.49,12.83-5.43,26.65-6.24,40-9,4.73-1,9.33-2,13.42-5a11.72,11.72,0,0,1,9.55-2.29c4.67,2.37,6.33,6.1,5.69,11.49-.69,5.78-3,11-5.78,15.84-4.72,8.21-3.45,16.46,2.93,23.23a8.79,8.79,0,0,0,.87.92c.67-.84-.38-2.5,1.26-2.83C566,1614.16,567.45,1617.79,567.33,1621.59Z"/><path class="cls-12" d="M554,1591.45a10.26,10.26,0,0,0-5.88-9.23c-1.44-.76-2.9-1.55-4.35-2.25-7.19-3.43-15.54-2.9-23.28-2.48-4.34.23-8.68.44-13,.74a43.76,43.76,0,0,0-6.27.71c-2.13.45-4.23,1-6.37,1.41-2.77.5-5.44,1.68-8.15,2.44a14.23,14.23,0,0,1-4.54.73,25.34,25.34,0,0,0-7.13,3.27c-7.33,4.58-8.75,13.7-3.15,20.37,1.51.92,3.52.62,4.77,2.41.61.87,2.3.49,3.44.16s1.2-1.35,1.28-2.4a8.37,8.37,0,0,1,1.63-4.82c3.28-4.13,7.69-6.16,12.7-7.09,1.81-.34,6.73,2.14,7.45,3.72a1.27,1.27,0,0,0,1.45.76c.84,0,1.34.52,2,.89,2.2,1.29,3.83,3.27,5.93,4.71s4.67,1.37,6.25,3.66c.68,1,2.57,1.09,3.89,1.65,5.08,2.12,10.55,2,15.6,1a18.08,18.08,0,0,0,11.21-7.13c2.08-2.91,5.15-5.24,5-9.46C554.39,1594,554.07,1592.73,554,1591.45Zm-13.33,13.3a8.71,8.71,0,0,1-10.06-3.15,8.53,8.53,0,0,1,.78-10.66c.29-.33.54-.71.81-1.07,2.84-2.72,5.78-3,10-.81h0a6.69,6.69,0,0,1,3.66,4.53C546.82,1599.32,545,1603.17,540.71,1604.75Z"/><path class="cls-13" d="M542.22,1589h0Z"/><path class="cls-13" d="M543.36,1596.61a5.64,5.64,0,0,1-5.66,5.8,5.75,5.75,0,0,1-5.67-5.62,5.49,5.49,0,0,1,5.49-5.7A5.4,5.4,0,0,1,543.36,1596.61Z"/><path class="cls-14" d="M578.4,1584.19c-.75,5.84-3.57,10.85-6.45,15.83-2,3.4-4.16,6.67-5.61,10.34-1.64.33-.59,2-1.26,2.83a8.79,8.79,0,0,1-.87-.92c-6.38-6.77-7.65-15-2.93-23.23,2.8-4.87,5.09-10.06,5.78-15.84.64-5.39-1-9.12-5.69-11.49,4.19.15,7.16,2,8.72,6a17.34,17.34,0,0,0,5.29,7.77C578.39,1577.79,578.83,1580.84,578.4,1584.19Z"/><path class="cls-15" d="M545.88,1593.58a6.69,6.69,0,0,0-3.66-4.53h0c-4.2-2.15-7.14-1.91-10,.81-.27.36-.52.74-.81,1.07a8.53,8.53,0,0,0-.78,10.66,8.71,8.71,0,0,0,10.06,3.15C545,1603.17,546.82,1599.32,545.88,1593.58Zm-8.18,8.83a5.75,5.75,0,0,1-5.67-5.62,5.49,5.49,0,0,1,5.49-5.7,5.4,5.4,0,0,1,5.84,5.52A5.64,5.64,0,0,1,537.7,1602.41Z"/><path class="cls-16" d="M542.22,1589.05Z"/><path class="cls-16" d="M543.36,1596.61a5.64,5.64,0,0,1-5.66,5.8,5.75,5.75,0,0,1-5.67-5.62,5.49,5.49,0,0,1,5.49-5.7A5.4,5.4,0,0,1,543.36,1596.61Z"/><path class="cls-17" d="M542.22,1589h0Z"/><path class="cls-17" d="M542.22,1589h0Z"/><path class="cls-7" d="M543.36,1596.61a5.64,5.64,0,0,1-5.66,5.8,5.75,5.75,0,0,1-5.67-5.62,5.49,5.49,0,0,1,5.49-5.7A5.4,5.4,0,0,1,543.36,1596.61Z"/><path class="cls-18" d="M1405.53,1239.45a25.93,25.93,0,0,1-7.21,8.51c-8.56,7.17-17.35,13.88-28.16,17.49a56.44,56.44,0,0,1-16.76,3.07c-3.49.07-6.92-.47-10.38-.49a35.27,35.27,0,0,1-9-3.26c-4.21-2.31-8.58-5-10.66-9.93-.21-.5-.59-.27-.88,0-2.89-5.75-2.57-11.61-.53-17.5a28.19,28.19,0,0,1,3.3-6.64c1.66-1.78,3.15-1.14,4.59.32a29.29,29.29,0,0,1,2.09,2.08c2.69,3.34,5.26,6.77,8,10.07,3.77,4.53,8.2,8.4,13.9,10.1,10,3,18.92-.06,27-5.8,3.47-2.45,5.43-6,4-10.64a22.45,22.45,0,0,0-5.77-8.94,73.21,73.21,0,0,0-12.14-9.77c-7.17-4.81-14.25-9.81-23.26-10.74-4.93-.51-9.85-1.12-14.82-1.15-2.6-.25-4-1.91-4.1-5.19-.26-6.22,2-11.68,5.27-16.8,9-14.15,23.76-12.58,33.8-6,7.08,4.6,12.19,11,16.17,18.3a61.39,61.39,0,0,0,10.12,14.36,8.28,8.28,0,0,1,.88,1.28.82.82,0,0,0,0,1.19c.1.12.21.23.32.34.64.67,1.39,1.25,2.07,1.88l.09.1a1.73,1.73,0,0,1,.24.23,5.56,5.56,0,0,1,1,1.33,4,4,0,0,1,.36.79c.1.34.13.69.2,1v0a.89.89,0,0,0,.14.33,1.08,1.08,0,0,0,.34.21.59.59,0,0,1,.24.17.72.72,0,0,1,.13.28s0,0,0,0a.88.88,0,0,0,.1.27.9.9,0,0,0,.33.28,4.59,4.59,0,0,1,1.06,1l.07.08c1.69,2.19,3.73,4.12,5.46,6.29l.48.63c.22.3.44.61.65.92C1406.83,1233.23,1407.44,1235.47,1405.53,1239.45Z"/><path class="cls-19" d="M1384.88,1236.87a22.45,22.45,0,0,0-5.77-8.94,73.21,73.21,0,0,0-12.14-9.77c-7.17-4.81-14.25-9.81-23.26-10.74-4.93-.51-9.85-1.12-14.82-1.15,1.3.71,2.8.32,4.17.79,5.07,1.73,6.33,6.72,2.57,10.4-.53.52-1.09,1-1.59,1.6-3.26,3.64-6.49,7.3-8.77,11.68,1.66-1.78,3.15-1.14,4.59.32a29.29,29.29,0,0,1,2.09,2.08c2.69,3.34,5.26,6.77,8,10.07,3.77,4.53,8.2,8.4,13.9,10.1,10,3,18.92-.06,27-5.8C1384.34,1245.06,1386.3,1241.49,1384.88,1236.87Zm-17.67,8a8.37,8.37,0,0,1-8.31-8.37,8.15,8.15,0,0,1,8.47-8.64,8.57,8.57,0,0,1,8.73,8.3C1376.25,1240.69,1372.05,1244.81,1367.21,1244.83Z"/><path class="cls-20" d="M1376.1,1236.12c.15,4.57-4,8.69-8.89,8.71a8.37,8.37,0,0,1-8.31-8.37,8.15,8.15,0,0,1,8.47-8.64A8.57,8.57,0,0,1,1376.1,1236.12Z"/><path class="cls-21" d="M1412.05,1242.85c-3.15,5.33-7.88,9.09-12.57,12.85-3.27,2.62-6.59,5.26-10.54,6.9a.61.61,0,0,0-.07-.1v0l.07.07a49.87,49.87,0,0,1-9.64,5.67c-6.28,3.14-12.62,6.35-19.62,7.43-10.59,1.62-20-1.46-28-8.44-3.94-3.42-7.44-7.26-9.14-12.38.29-.31.67-.54.88,0,2.08,4.88,6.45,7.62,10.66,9.93a35.27,35.27,0,0,0,9,3.26c3.46,0,6.89.56,10.38.49a56.44,56.44,0,0,0,16.76-3.07c10.81-3.61,19.6-10.32,28.16-17.49a25.93,25.93,0,0,0,7.21-8.51c1.91-4,1.3-6.22-1.15-9.82a16.37,16.37,0,0,0-1.86-2.36c-.72-.75-1.45-1.5-2.15-2.27a30.87,30.87,0,0,1-2.36-2.88,5.64,5.64,0,0,0-1.1-1.28,3,3,0,0,1-.51-.43c-.14-.18-.2-.41-.35-.59s-.36-.27-.51-.43a2.08,2.08,0,0,1-.33-1.09,3.83,3.83,0,0,0-.48-1.12,8.91,8.91,0,0,0-1.8-2.07l-.87-.75a10.5,10.5,0,0,1-1-1,.82.82,0,0,1,0-1.19c1.56,1.8,3.75,2.93,5.19,4.86,4,2.59,8.12,5.11,12.09,7.8C1414.84,1229.25,1416.12,1235.93,1412.05,1242.85Z"/><path class="cls-22" d="M1388.94,1262.6l-.07-.07v0h0Z"/><path class="cls-22" d="M1388.94,1262.6l-.07-.07v0h0Z"/><path class="cls-23" d="M1388.88,1262.51s0,0,0,0v0Z"/><path class="cls-24" d="M1376.1,1236.12c.15,4.57-4,8.69-8.89,8.71a8.37,8.37,0,0,1-8.31-8.37,8.15,8.15,0,0,1,8.47-8.64A8.57,8.57,0,0,1,1376.1,1236.12Z"/><path class="cls-7" d="M1373.06,1236.24a5.72,5.72,0,0,1-5.75,5.79,5.82,5.82,0,0,1-5.61-5.71,5.65,5.65,0,0,1,5.53-5.72A5.58,5.58,0,0,1,1373.06,1236.24Z"/><path class="cls-5" d="M1184.58,4754.7c-5.07-8.7-3.84-20-6.59-30.55a102.68,102.68,0,0,0-5.8,18.45c-1.45,7.69-.92,14.9,4.15,21.28a38.44,38.44,0,0,0,24.93,14.4c11.46,1.8,20.91-.73,26.54-14.46C1211.11,4769.62,1194.67,4771.32,1184.58,4754.7Z"/><path class="cls-3" d="M1269.87,4673.94l-.38-.14c-18.62,7.14-29.79,30.11-39.91,48.9-5,10-22,18-29,7-8-13,2-28,4-43,.76-11.36.36-23.85-4.21-34.47-.27.09-.54.17-.81.27-12.43,4.48-20.77,14.41-16.21,29.32a48.9,48.9,0,0,1,1.9,10.7c.7,9.63-2,18.55-5.54,27.31l-1.72,4.32c2.75,10.52,1.52,21.85,6.59,30.55,10.09,16.62,26.53,14.92,43.23,9.12,0-.07.07-.14.1-.22a229,229,0,0,1,15.95-33.06c5.12-8.47,11.2-16,20.46-20.27a56.44,56.44,0,0,0,10.37-6c3-2.3,5.75-4.95,6.86-8.79C1283.62,4688.27,1277.49,4677.09,1269.87,4673.94Z"/><path class="cls-4" d="M1200.58,4729.7c7,11,24,3,29-7,10.12-18.79,21.29-41.76,39.91-48.9-4.35-1.68-8.89-1.6-13.44-1.81-11.61-.53-20.78-5.83-27.75-15a15.18,15.18,0,0,0-5.66-4.7c-3.37-1.6-7-1.91-10.62-1.94-2,.14-4,.11-5.89.44a42.44,42.44,0,0,0-5.76,1.41c4.57,10.62,5,23.11,4.21,34.47C1202.58,4701.7,1192.58,4716.7,1200.58,4729.7Z"/><path class="cls-25" d="M1218.75,4720.69a8.5,8.5,0,1,0,.26-17c-5.15,0-8.78,3.54-8.79,8.6A8.32,8.32,0,0,0,1218.75,4720.69Z"/><path class="cls-7" d="M1218.89,4717.88a5.68,5.68,0,1,0-.15-11.36,5.68,5.68,0,0,0,.15,11.36Z"/><path class="cls-5" d="M1233.32,1986.63c-5.08-8.7-3.85-20-6.6-30.55a101.85,101.85,0,0,0-5.79,18.45c-1.46,7.7-.93,14.9,4.15,21.29a38.4,38.4,0,0,0,24.92,14.39c11.46,1.8,20.91-.73,26.55-14.46C1259.84,2001.55,1243.41,2003.25,1233.32,1986.63Z"/><path class="cls-3" d="M1318.61,1905.87l-.39-.13c-18.62,7.14-29.78,30.1-39.9,48.89-5,10-22,18-29,7-8-13,2-28,4-43,.75-11.35.36-23.85-4.22-34.46l-.81.26c-12.43,4.48-20.76,14.41-16.21,29.33a48.79,48.79,0,0,1,1.9,10.7c.7,9.63-2,18.54-5.53,27.31q-.87,2.14-1.73,4.31c2.75,10.53,1.52,21.85,6.6,30.55,10.09,16.62,26.52,14.92,43.23,9.12l.09-.21c4.58-11.34,9.59-22.55,15.95-33.06,5.12-8.47,11.21-16,20.46-20.28a56.52,56.52,0,0,0,10.38-6c3-2.3,5.74-5,6.85-8.78C1332.36,1920.21,1326.23,1909,1318.61,1905.87Z"/><path class="cls-4" d="M1249.32,1961.63c7,11,24,3,29-7,10.12-18.79,21.28-41.75,39.9-48.89-4.35-1.69-8.88-1.6-13.44-1.81-11.61-.53-20.78-5.84-27.75-15a15,15,0,0,0-5.65-4.69c-3.38-1.61-7-1.92-10.63-1.94a54.6,54.6,0,0,0-5.88.44,39.48,39.48,0,0,0-5.77,1.41c4.58,10.61,5,23.11,4.22,34.46C1251.32,1933.63,1241.32,1948.63,1249.32,1961.63Z"/><path class="cls-25" d="M1267.48,1952.62a8.5,8.5,0,1,0-8.53-8.39A8.37,8.37,0,0,0,1267.48,1952.62Z"/><path class="cls-7" d="M1267.62,1949.81a5.68,5.68,0,1,0-.15-11.36,5.68,5.68,0,0,0,.15,11.36Z"/><path class="cls-3" d="M1301.45,3561.39c-3.34,11.63-10.18,20.61-20,27.4-2.09,1.44-3.94,3.28-6.45,4.05a12.75,12.75,0,0,0-2.48.09,135.88,135.88,0,0,1-26.53,3.44c-8.88.37-17.8.4-26.27-3.07-3.72-1.52-7.15-3.28-9.62-6.71-3.47-4.82-5.51-10.18-7.23-15.8-3.52-11.57-4.55-23.47-4.69-35.42-.1-8.68,2.09-24.64,1.22-24.87a13.25,13.25,0,0,1,8.21-5.39,28.69,28.69,0,0,1,6.06-.46c2.9,0,4.19.94,4.71,3.83a36.79,36.79,0,0,1,.65,11.74c-.84,5.84-1.73,11.67-3.1,17.43a82.41,82.41,0,0,0-2.67,17.68c-.13,7.79,4.37,12.29,11.11,14.44a51.37,51.37,0,0,0,19.57,1.87,23.74,23.74,0,0,0,14.74-6.8c7.07-6.71,9.71-15.52,11.82-24.55,1-4.34,2.19-8.65,3-13,.89-4.89-.35-9.5-1.73-14.05a71.66,71.66,0,0,0-2.67-6.75c-1.4-3.29-1.25-3.49,2.15-4,4.46-.19,8.94-.55,13.27.92,7.67,2.61,12.45,8.24,15.84,15.28a41.2,41.2,0,0,1,3.59,15.81C1304.39,3543.52,1304,3552.54,1301.45,3561.39Z"/><path class="cls-4" d="M1273.46,3527.26c-.8,4.38-2,8.69-3,13-2.11,9-4.75,17.84-11.82,24.55a23.74,23.74,0,0,1-14.74,6.8,51.37,51.37,0,0,1-19.57-1.87c-6.74-2.15-11.24-6.65-11.11-14.44a82.41,82.41,0,0,1,2.67-17.68c1.37-5.76,2.26-11.59,3.1-17.43a36.79,36.79,0,0,0-.65-11.74c-.52-2.89-1.81-3.81-4.71-3.83a28.69,28.69,0,0,0-6.06.46,16.85,16.85,0,0,1,10.43-.33c9.57,2.33,19.15,1.74,28.77.52,7.32-.93,14.62-1.94,21.94-2.87a18.8,18.8,0,0,1,2.49,0c-3.4.55-3.55.75-2.15,4a71.66,71.66,0,0,1,2.67,6.75C1273.11,3517.76,1274.35,3522.37,1273.46,3527.26Z"/><path class="cls-5" d="M1275,3592.84c-3.62,2.93-7.91,4.66-12.09,6.51a94.69,94.69,0,0,1-24.47,7.31c-8.08,1.19-16.09,1.25-24-1.3-8.39-2.71-13.34-8.5-15.92-16.64-2.37-7.48-3.3-15.23-4-23-.87-9.87-2-19.73-1.78-29.66.15-6.52.65-13,3-19.18a19.4,19.4,0,0,1,3.64-6.4c.87.23-1.32,16.19-1.22,24.87.14,12,1.17,23.85,4.69,35.42,1.72,5.62,3.76,11,7.23,15.8,2.47,3.43,5.9,5.19,9.62,6.71,8.47,3.47,17.39,3.44,26.27,3.07a135.88,135.88,0,0,0,26.53-3.44A12.75,12.75,0,0,1,1275,3592.84Z"/><path class="cls-6" d="M1243.1,3546.55a8.21,8.21,0,0,1-8.29,8.55,8.36,8.36,0,0,1-8.64-8.5,8.77,8.77,0,0,1,8.6-8.71A8.48,8.48,0,0,1,1243.1,3546.55Z"/><path class="cls-7" d="M1240.36,3546.6a5.69,5.69,0,1,1-11.37-.06,5.61,5.61,0,0,1,5.85-5.61A5.51,5.51,0,0,1,1240.36,3546.6Z"/><path class="cls-3" d="M1203.53,2395.4c-3.33,11.62-10.17,20.61-20,27.4-2.08,1.44-3.93,3.28-6.44,4a12.75,12.75,0,0,0-2.48.09,135.87,135.87,0,0,1-26.53,3.43c-8.88.38-17.8.41-26.28-3.06-3.71-1.52-7.14-3.29-9.61-6.71-3.47-4.82-5.51-10.18-7.23-15.8-3.52-11.57-4.56-23.47-4.69-35.42-.1-8.68,2.09-24.64,1.21-24.88a13.38,13.38,0,0,1,8.22-5.39,29.31,29.31,0,0,1,6.06-.45c2.89,0,4.19.94,4.71,3.82a36.86,36.86,0,0,1,.65,11.75c-.84,5.84-1.73,11.67-3.1,17.43a82.41,82.41,0,0,0-2.67,17.68c-.14,7.79,4.37,12.29,11.11,14.43a51.17,51.17,0,0,0,19.57,1.88,23.75,23.75,0,0,0,14.74-6.81c7.07-6.7,9.71-15.51,11.82-24.55,1-4.33,2.19-8.64,3-13,.89-4.88-.35-9.49-1.74-14a69,69,0,0,0-2.66-6.75c-1.4-3.29-1.25-3.49,2.15-4,4.46-.18,8.94-.54,13.27.93,7.67,2.61,12.44,8.23,15.83,15.28a41,41,0,0,1,3.6,15.81C1206.48,2377.53,1206.07,2386.55,1203.53,2395.4Z"/><path class="cls-4" d="M1175.55,2361.26c-.8,4.39-2,8.7-3,13-2.11,9-4.75,17.85-11.82,24.55a23.75,23.75,0,0,1-14.74,6.81,51.17,51.17,0,0,1-19.57-1.88c-6.74-2.14-11.25-6.64-11.11-14.43a82.41,82.41,0,0,1,2.67-17.68c1.37-5.76,2.26-11.59,3.1-17.43a36.86,36.86,0,0,0-.65-11.75c-.52-2.88-1.82-3.8-4.71-3.82a29.31,29.31,0,0,0-6.06.45,16.92,16.92,0,0,1,10.43-.32c9.57,2.32,19.15,1.74,28.77.51,7.31-.92,14.62-1.93,21.94-2.86a18.8,18.8,0,0,1,2.49,0c-3.4.56-3.55.76-2.15,4a69,69,0,0,1,2.66,6.75C1175.2,2351.77,1176.44,2356.38,1175.55,2361.26Z"/><path class="cls-5" d="M1177.06,2426.85c-3.62,2.92-7.91,4.66-12.09,6.51a95.2,95.2,0,0,1-24.47,7.31c-8.08,1.19-16.09,1.25-24-1.31-8.38-2.7-13.33-8.49-15.91-16.64-2.37-7.48-3.3-15.22-4-23-.87-9.87-2-19.73-1.78-29.67.15-6.51.65-13,3-19.17a19.7,19.7,0,0,1,3.63-6.41c.88.24-1.31,16.2-1.21,24.88.13,11.95,1.17,23.85,4.69,35.42,1.72,5.62,3.76,11,7.23,15.8,2.47,3.42,5.9,5.19,9.61,6.71,8.48,3.47,17.4,3.44,26.28,3.06a135.87,135.87,0,0,0,26.53-3.43A12.75,12.75,0,0,1,1177.06,2426.85Z"/><path class="cls-6" d="M1145.19,2380.56a8.22,8.22,0,0,1-8.29,8.55,8.37,8.37,0,0,1-8.64-8.5,8.76,8.76,0,0,1,8.6-8.71A8.48,8.48,0,0,1,1145.19,2380.56Z"/><path class="cls-7" d="M1142.45,2380.61a5.69,5.69,0,1,1-11.37-.06,5.6,5.6,0,0,1,5.85-5.61A5.51,5.51,0,0,1,1142.45,2380.61Z"/><path class="cls-18" d="M1357,3450.66a5.64,5.64,0,0,1-.38,1c-.22-.38-1.24.76-1.9,1.53a27.55,27.55,0,0,1-7.59,6.64,8.84,8.84,0,0,1-10.1-1.64c-2.42-2.55-3.15-5.95-4.63-9-3.19-6.56-8.13-11.27-15.08-13.44-6.77-2.12-13.88-2.31-20.92-2.9-5.22-.44-10.41-1.33-15.16-3.84-1-.53-2.16-1-2.47.83-1.27-4.65-.23-9,2.09-13,4.21-7.36,10.94-11.4,18.91-13.34,14-3.4,28.2-4.29,42.47-1.48a47.47,47.47,0,0,1,5.86,1.73c6.49,2.17,8.48,7.38,9.33,13.49A102.45,102.45,0,0,1,1357,3450.66Z"/><path class="cls-21" d="M1356.62,3451.7a44.45,44.45,0,0,1-3.13,9.76c-6,12.7-20.35,14-28.58,2.57a63.9,63.9,0,0,1-7.3-12.78c-2.84-6.84-8.28-8.91-14.95-9.66-5.93-.67-11.9-1.49-17.34-4.19-3.15-1.56-5.88-3.67-6.55-7.49.31-1.8,1.47-1.36,2.47-.83,4.75,2.51,9.94,3.4,15.16,3.84,7,.59,14.15.78,20.92,2.9,7,2.17,11.89,6.88,15.08,13.44,1.48,3,2.21,6.42,4.63,9a8.84,8.84,0,0,0,10.1,1.64,27.55,27.55,0,0,0,7.59-6.64C1355.38,3452.46,1356.4,3451.32,1356.62,3451.7Z"/><path class="cls-26" d="M1343,3427.53a8.38,8.38,0,0,1-8.32,8.63,8.65,8.65,0,0,1-8.85-8.68,9,9,0,0,1,8.44-8.49A8.61,8.61,0,0,1,1343,3427.53Z"/><path class="cls-7" d="M1340.13,3427.71a5.76,5.76,0,0,1-5.83,5.66,5.68,5.68,0,0,1-5.52-5.93,5.68,5.68,0,0,1,11.35.27Z"/><path class="cls-18" d="M1038.48,1755.47a5,5,0,0,1-.39,1c-.22-.38-1.23.75-1.9,1.53a27.41,27.41,0,0,1-7.59,6.64,8.82,8.82,0,0,1-10.1-1.65c-2.42-2.54-3.15-5.94-4.62-9-3.19-6.56-8.14-11.26-15.08-13.43-6.77-2.12-13.89-2.32-20.93-2.9-5.21-.44-10.41-1.33-15.15-3.84-1-.53-2.16-1-2.47.83-1.28-4.66-.24-9,2.08-13,4.22-7.36,10.94-11.4,18.92-13.34,14-3.4,28.19-4.29,42.46-1.48a47.43,47.43,0,0,1,5.86,1.72c6.49,2.18,8.49,7.39,9.34,13.49A103.06,103.06,0,0,1,1038.48,1755.47Z"/><path class="cls-21" d="M1038.09,1756.51a45.13,45.13,0,0,1-3.12,9.76c-6,12.7-20.36,14-28.59,2.56a64,64,0,0,1-7.29-12.77c-2.84-6.84-8.29-8.92-15-9.67-5.94-.67-11.9-1.48-17.35-4.18-3.15-1.56-5.88-3.67-6.54-7.49.31-1.8,1.46-1.36,2.47-.83,4.74,2.51,9.94,3.4,15.15,3.84,7,.58,14.16.78,20.93,2.9,6.94,2.17,11.89,6.87,15.08,13.43,1.47,3,2.2,6.43,4.62,9a8.82,8.82,0,0,0,10.1,1.65,27.41,27.41,0,0,0,7.59-6.64C1036.86,1757.26,1037.87,1756.13,1038.09,1756.51Z"/><path class="cls-26" d="M1024.43,1732.34a8.39,8.39,0,0,1-8.33,8.63,8.65,8.65,0,0,1-8.84-8.68,9,9,0,0,1,8.44-8.49A8.62,8.62,0,0,1,1024.43,1732.34Z"/><path class="cls-7" d="M1021.61,1732.51a5.76,5.76,0,0,1-5.83,5.67,5.69,5.69,0,0,1-5.53-5.93,5.68,5.68,0,0,1,11.36.26Z"/><path class="cls-8" d="M789.72,4032.73c-3.21,7.5-6.62,14.93-9.18,22.69-2,6-4,12-5.92,18.09-3.24,10.47-9.78,17.64-20.53,20.43-8.26,2.15-16.34,4.92-24.72,6.63-6.82,1.39-12-.92-15-7.1-5.2-10.51-6.77-21.74-6-33.31,1.26-17.83,7.46-34,17-49,8.6-13.54,19.17-25.22,32.87-33.82a26.51,26.51,0,0,1,9.79-4c3.08-.5,4.53.37,5.6,3.44a29.58,29.58,0,0,1,.45,9.2,11.41,11.41,0,0,1-1.49,4,52.12,52.12,0,0,1-14,16.46c-6.51,5.16-13.69,9.49-19.66,15.33-5,4.93-9.84,10.11-11.22,17.38a30.4,30.4,0,0,0,.85,14.15,54.88,54.88,0,0,0,4.82,11.95c2.73,4.81,5.9,9.2,11.21,11.44a11.24,11.24,0,0,0,13.72-3.7,33.4,33.4,0,0,0,4.36-8.89c2.81-7.8,5.45-15.67,8.81-23.28a159.3,159.3,0,0,1,8.1-16,15.63,15.63,0,0,1,4.46-4.77c1-.68,2-1.1,3.09-.1C791,4023.63,791.84,4027.77,789.72,4032.73Z"/><path class="cls-9" d="M787.12,4020c-1.06-1-2.12-.58-3.09.1a15.63,15.63,0,0,0-4.46,4.77,159.3,159.3,0,0,0-8.1,16c-3.36,7.61-6,15.48-8.81,23.28a33.4,33.4,0,0,1-4.36,8.89,11.24,11.24,0,0,1-13.72,3.7c-5.31-2.24-8.48-6.63-11.21-11.44a54.88,54.88,0,0,1-4.82-11.95,30.4,30.4,0,0,1-.85-14.15c1.38-7.27,6.17-12.45,11.22-17.38,6-5.84,13.15-10.17,19.66-15.33a52.12,52.12,0,0,0,14-16.46,11.41,11.41,0,0,0,1.49-4,29.58,29.58,0,0,0-.45-9.2c.94,1.81.86,3.79.87,5.74,0,5.59-.31,11.19.49,16.76.84,5.8,2.73,11.11,7,15.33C783.77,4016.32,785.41,4018.18,787.12,4020Z"/><path class="cls-10" d="M738.6,4046.45a8.61,8.61,0,0,1,17.22-.2,8.61,8.61,0,1,1-17.22.2Z"/><path class="cls-7" d="M741.58,4046.43a5.49,5.49,0,0,1,5.46-5.71,5.55,5.55,0,0,1,5.81,5.61,5.64,5.64,0,1,1-11.27.1Z"/><path class="cls-8" d="M931.24,3022.13c-3.21,7.5-6.62,14.92-9.18,22.68-2,6-4,12-5.92,18.1-3.24,10.46-9.78,17.63-20.53,20.42-8.26,2.15-16.34,4.93-24.72,6.63-6.81,1.39-12-.91-15-7.09-5.2-10.51-6.77-21.74-6-33.32,1.26-17.83,7.46-34,17-49,8.6-13.54,19.17-25.23,32.87-33.83a26.68,26.68,0,0,1,9.79-4c3.08-.5,4.53.38,5.6,3.44a29.6,29.6,0,0,1,.45,9.2,11.41,11.41,0,0,1-1.49,4,52.12,52.12,0,0,1-14,16.46c-6.51,5.16-13.69,9.5-19.66,15.33-5.05,4.93-9.84,10.11-11.22,17.38a30.4,30.4,0,0,0,.85,14.15,54.48,54.48,0,0,0,4.82,12c2.73,4.82,5.9,9.2,11.21,11.44a11.25,11.25,0,0,0,13.72-3.69,33.46,33.46,0,0,0,4.36-8.9c2.81-7.8,5.45-15.67,8.81-23.27a160.51,160.51,0,0,1,8.1-16,15.48,15.48,0,0,1,4.46-4.76c1-.69,2-1.11,3.09-.1C932.5,3013,933.36,3017.17,931.24,3022.13Z"/><path class="cls-9" d="M928.64,3009.38c-1.06-1-2.12-.59-3.09.1a15.48,15.48,0,0,0-4.46,4.76,160.51,160.51,0,0,0-8.1,16c-3.36,7.6-6,15.47-8.81,23.27a33.46,33.46,0,0,1-4.36,8.9,11.25,11.25,0,0,1-13.72,3.69c-5.31-2.24-8.48-6.62-11.21-11.44a54.48,54.48,0,0,1-4.82-12,30.4,30.4,0,0,1-.85-14.15c1.38-7.27,6.17-12.45,11.22-17.38,6-5.83,13.15-10.17,19.66-15.33a52.12,52.12,0,0,0,14-16.46,11.41,11.41,0,0,0,1.49-4,29.6,29.6,0,0,0-.45-9.2c.94,1.82.86,3.79.87,5.74,0,5.59-.31,11.19.5,16.76.83,5.8,2.72,11.11,7,15.33C925.29,3005.71,926.94,3007.58,928.64,3009.38Z"/><path class="cls-10" d="M880.12,3035.84a8.61,8.61,0,0,1,17.22-.2,8.61,8.61,0,1,1-17.22.2Z"/><path class="cls-7" d="M883.1,3035.82a5.49,5.49,0,0,1,5.46-5.71,5.55,5.55,0,0,1,5.81,5.61,5.64,5.64,0,1,1-11.27.1Z"/><path class="cls-12" d="M1162.55,4568.53a13.27,13.27,0,0,1-7.15,7.76,38.72,38.72,0,0,1-9.44,2.82c-5.57.77-9.88-.73-13.47-4.93a62.78,62.78,0,0,1-6.63-10.15c-1.91-3.35-3.67-6.77-5.74-10a38.6,38.6,0,0,0-6.21-8.07,26.33,26.33,0,0,0-9.44-5.61,28,28,0,0,0-10.52-1.06c2.55-1.62,5.57-1.74,8.37-2.49a161.42,161.42,0,0,0,23.27-7.91c4.6-2,9.13-4.18,13.77-6.08a12.7,12.7,0,0,1,10.5.19,40.28,40.28,0,0,1,13.27,9.87,11.16,11.16,0,0,0-2,5.67,87.08,87.08,0,0,0,1.64,18.42C1163.55,4560.73,1164,4564.68,1162.55,4568.53Z"/><path class="cls-11" d="M1176.5,4567c-.8,1.5.33,3.47-1.35,4.83-1.86,1.5-3.41,3.4-5.29,4.87-4,3.15-7.84,6.51-12.08,9.39-4.53,3.06-9.11,4.33-14.43,2a100.1,100.1,0,0,1-10.41-5.74,96,96,0,0,0-19.15-8.83,47,47,0,0,0-15.48-2.29c-2.56.06-5,.75-7.56.72,0,0-.93.13-1.34.24-3.52-3-3.69-7.2-4-11.31a42.58,42.58,0,0,1,1-12.34c.92-4.26,3.21-7.74,7.59-9.35a28,28,0,0,1,10.52,1.06,26.33,26.33,0,0,1,9.44,5.61,38.6,38.6,0,0,1,6.21,8.07c2.07,3.27,3.83,6.69,5.74,10a62.78,62.78,0,0,0,6.63,10.15c3.59,4.2,7.9,5.7,13.47,4.93a38.72,38.72,0,0,0,9.44-2.82,13.27,13.27,0,0,0,7.15-7.76c1.43-3.85,1-7.8.27-11.61a87.08,87.08,0,0,1-1.64-18.42,11.16,11.16,0,0,1,2-5.67c2.62,2.25,3.63,5.28,3.91,8.55a42.59,42.59,0,0,0,7.42,20.52A11.07,11.07,0,0,1,1176.5,4567Z"/><path class="cls-27" d="M1176.67,4568.6c0-.51-.09-1-.17-1.56A7.29,7.29,0,0,1,1176.67,4568.6Z"/><path class="cls-14" d="M1172.52,4579.77a64.23,64.23,0,0,1-15,12.62,10.26,10.26,0,0,1-1.22.54,13.93,13.93,0,0,1-17.55-.44c-10.79-9.48-23.51-14.22-37.66-15.5-3.79-.34-7.52-.76-10.6-3.37-.43-.36-1-.75-1-1.37.19-.05,1.31-.2,1.35-.22a.15.15,0,0,1,.09,0,40.93,40.93,0,0,0,4.69-.47,25.68,25.68,0,0,1,2.77-.25,47,47,0,0,1,15.48,2.29,96,96,0,0,1,19.15,8.83,100.1,100.1,0,0,0,10.41,5.74c5.32,2.31,9.9,1,14.43-2,4.24-2.88,8.07-6.24,12.08-9.39,1.88-1.47,3.43-3.37,5.29-4.87,1.68-1.36.55-3.33,1.35-4.83.08.53.14,1.05.17,1.56v0C1176.94,4572.82,1175.45,4576.37,1172.52,4579.77Z"/><path class="cls-28" d="M1156.27,4559.86c.65,4.44-4,8.58-8.22,8.6-4.69,0-8.73-4-8.69-8.2a8.64,8.64,0,0,1,8.44-9C1151.47,4551.18,1156.74,4554.2,1156.27,4559.86Z"/><path class="cls-7" d="M1153.53,4560a5.59,5.59,0,0,1-5.63,5.59,5.81,5.81,0,0,1-5.73-5.82,5.71,5.71,0,0,1,6-5.54A5.46,5.46,0,0,1,1153.53,4560Z"/><path class="cls-12" d="M663.87,3329a13.27,13.27,0,0,1-7.15,7.76,38.27,38.27,0,0,1-9.44,2.81c-5.57.77-9.88-.72-13.47-4.92a62.86,62.86,0,0,1-6.63-10.16c-1.91-3.34-3.67-6.76-5.74-10a38.6,38.6,0,0,0-6.21-8.07,26.33,26.33,0,0,0-9.44-5.61,28,28,0,0,0-10.52-1.06c2.55-1.63,5.57-1.75,8.37-2.49a162.7,162.7,0,0,0,23.27-7.92c4.6-2,9.13-4.17,13.77-6.07a12.66,12.66,0,0,1,10.5.19,40.28,40.28,0,0,1,13.27,9.87,11.16,11.16,0,0,0-2,5.67,87.08,87.08,0,0,0,1.64,18.42C664.87,3321.19,665.3,3325.13,663.87,3329Z"/><path class="cls-11" d="M677.82,3327.5c-.8,1.5.33,3.47-1.35,4.82-1.86,1.51-3.41,3.41-5.29,4.88-4,3.15-7.84,6.51-12.08,9.38-4.53,3.07-9.11,4.34-14.43,2a100.1,100.1,0,0,1-10.41-5.74,95.42,95.42,0,0,0-19.15-8.83,47,47,0,0,0-15.48-2.29c-2.56.06-5,.74-7.56.72,0,0-.93.13-1.34.24-3.52-3-3.69-7.2-4-11.31a42.24,42.24,0,0,1,1-12.34c.92-4.26,3.21-7.74,7.59-9.35a28,28,0,0,1,10.52,1.06,26.33,26.33,0,0,1,9.44,5.61,38.6,38.6,0,0,1,6.21,8.07c2.07,3.27,3.83,6.69,5.74,10a62.86,62.86,0,0,0,6.63,10.16c3.59,4.2,7.9,5.69,13.47,4.92a38.27,38.27,0,0,0,9.44-2.81,13.27,13.27,0,0,0,7.15-7.76c1.43-3.86,1-7.8.27-11.61A87.08,87.08,0,0,1,662.5,3299a11.16,11.16,0,0,1,2-5.67c2.62,2.25,3.63,5.28,3.91,8.54a42.62,42.62,0,0,0,7.42,20.53A11,11,0,0,1,677.82,3327.5Z"/><path class="cls-27" d="M678,3329.05c0-.5-.09-1-.17-1.55A7.27,7.27,0,0,1,678,3329.05Z"/><path class="cls-14" d="M673.84,3340.23a64.23,64.23,0,0,1-15.05,12.62,10.26,10.26,0,0,1-1.22.54A13.93,13.93,0,0,1,640,3353c-10.79-9.48-23.51-14.23-37.66-15.5-3.79-.34-7.52-.76-10.6-3.37-.43-.37-1-.75-1-1.37.19-.05,1.31-.21,1.35-.22a.15.15,0,0,1,.09,0,40.93,40.93,0,0,0,4.69-.47,25.68,25.68,0,0,1,2.77-.25,47,47,0,0,1,15.48,2.29,95.42,95.42,0,0,1,19.15,8.83,100.1,100.1,0,0,0,10.41,5.74c5.32,2.31,9.9,1,14.43-2,4.24-2.87,8.07-6.23,12.08-9.38,1.88-1.47,3.43-3.37,5.29-4.88,1.68-1.35.55-3.32,1.35-4.82.08.53.14,1.05.17,1.55v0C678.26,3333.28,676.77,3336.83,673.84,3340.23Z"/><path class="cls-28" d="M657.59,3320.32c.65,4.44-4,8.58-8.22,8.6-4.69,0-8.73-4-8.69-8.2a8.64,8.64,0,0,1,8.44-9C652.79,3311.64,658.06,3314.66,657.59,3320.32Z"/><path class="cls-7" d="M654.85,3320.45a5.59,5.59,0,0,1-5.63,5.59,5.81,5.81,0,0,1-5.73-5.82,5.71,5.71,0,0,1,6-5.54A5.46,5.46,0,0,1,654.85,3320.45Z"/><path class="cls-12" d="M515.5,2304.83a13.26,13.26,0,0,1-7.15,7.75,38.16,38.16,0,0,1-9.44,2.82c-5.56.77-9.87-.73-13.47-4.92a64.69,64.69,0,0,1-6.63-10.16c-1.91-3.35-3.67-6.76-5.74-10a38.52,38.52,0,0,0-6.21-8.07,26.33,26.33,0,0,0-9.44-5.61,27.93,27.93,0,0,0-10.52-1c2.55-1.63,5.57-1.75,8.38-2.49a162.57,162.57,0,0,0,23.26-7.92c4.61-2,9.13-4.18,13.77-6.08a12.72,12.72,0,0,1,10.51.2,40.1,40.1,0,0,1,13.27,9.87,11.23,11.23,0,0,0-2,5.66,86.38,86.38,0,0,0,1.65,18.42C516.5,2297,516.93,2301,515.5,2304.83Z"/><path class="cls-11" d="M529.45,2303.34c-.8,1.5.33,3.46-1.35,4.82-1.86,1.51-3.41,3.4-5.29,4.88-4,3.15-7.84,6.51-12.08,9.38-4.52,3.06-9.11,4.34-14.43,2a102,102,0,0,1-10.41-5.74,94.91,94.91,0,0,0-19.15-8.83,47,47,0,0,0-15.48-2.3c-2.55.07-5,.75-7.55.72,0,0-.94.14-1.35.24-3.52-3-3.69-7.2-4-11.3a42.68,42.68,0,0,1,1-12.35c.92-4.26,3.21-7.73,7.59-9.34a27.93,27.93,0,0,1,10.52,1,26.33,26.33,0,0,1,9.44,5.61,38.52,38.52,0,0,1,6.21,8.07c2.07,3.28,3.83,6.69,5.74,10a64.69,64.69,0,0,0,6.63,10.16c3.6,4.19,7.91,5.69,13.47,4.92a38.16,38.16,0,0,0,9.44-2.82,13.26,13.26,0,0,0,7.15-7.75c1.43-3.86,1-7.81.28-11.62a86.38,86.38,0,0,1-1.65-18.42,11.23,11.23,0,0,1,2-5.66c2.62,2.25,3.62,5.28,3.9,8.54a42.55,42.55,0,0,0,7.42,20.52A11,11,0,0,1,529.45,2303.34Z"/><path class="cls-27" d="M529.63,2304.89c0-.51-.1-1-.18-1.55A7.24,7.24,0,0,1,529.63,2304.89Z"/><path class="cls-14" d="M525.47,2316.06a63.79,63.79,0,0,1-15.05,12.62,8.87,8.87,0,0,1-1.22.54,13.93,13.93,0,0,1-17.55-.43c-10.79-9.49-23.51-14.23-37.65-15.5-3.8-.35-7.52-.77-10.6-3.38-.43-.36-1-.75-1-1.37.19,0,1.31-.2,1.35-.22l.1,0a40.74,40.74,0,0,0,4.68-.46,25.69,25.69,0,0,1,2.77-.26,47,47,0,0,1,15.48,2.3,94.91,94.91,0,0,1,19.15,8.83,102,102,0,0,0,10.41,5.74c5.32,2.31,9.91,1,14.43-2,4.24-2.87,8.08-6.23,12.08-9.38,1.88-1.48,3.43-3.37,5.29-4.88,1.68-1.36.55-3.32,1.35-4.82.08.53.14,1,.18,1.55v0C529.89,2309.12,528.4,2312.67,525.47,2316.06Z"/><path class="cls-28" d="M509.22,2296.15c.66,4.45-4,8.58-8.22,8.6-4.69,0-8.73-4-8.69-8.2a8.64,8.64,0,0,1,8.45-9C504.42,2287.48,509.7,2290.5,509.22,2296.15Z"/><path class="cls-7" d="M506.48,2296.29a5.58,5.58,0,0,1-5.63,5.58,5.78,5.78,0,0,1-5.72-5.81,5.71,5.71,0,0,1,6-5.55A5.47,5.47,0,0,1,506.48,2296.29Z"/><path class="cls-11" d="M654.57,4220.69a8.05,8.05,0,0,1-4.22,7.22c-6.25,3.68-13,3.61-19.79,2.29-10.29-2-19.4-6.79-28-12.77-8.22-5.74-17.58-8.77-27.32-10.63-2.33-.45-4.76-.51-6.44,2.07-.86,1.32-2.74,1.29-4.21,1-2.24-.47-4.3-1.41-5.49-3.58,1.51.91,3.52.61,4.77,2.4.61.88,2.3.49,3.44.17s1.2-1.35,1.28-2.4a8.39,8.39,0,0,1,1.63-4.82c3.28-4.14,7.69-6.16,12.7-7.1,1.81-.33,6.73,2.15,7.45,3.73a1.26,1.26,0,0,0,1.45.75c.84,0,1.34.52,2,.9,2.2,1.29,3.83,3.26,5.93,4.7s4.67,1.37,6.25,3.66c.68,1,2.57,1.1,3.89,1.65,5.08,2.13,10.55,2,15.6,1a18.14,18.14,0,0,0,11.21-7.14c2.08-2.91,5.15-5.24,4.95-9.46,0-1.28-.37-2.5-.4-3.77a10.25,10.25,0,0,0-5.88-9.24c-4.51-2.38-9.1-4.66-14.47-4.13a1.47,1.47,0,0,1-.89-.1c-1.67-1.05-3.66-.81-5.53-.65-2.06.18-4.12.15-6.19.18q-6.68.09-13.34.56c-3.23.22-6.29,1.28-9.5,1.63-4.06.47-7.71,2-11.52,3.09a14.23,14.23,0,0,1-4.54.73c5.25-2.27,10.94-3.27,16.18-5.49,12.83-5.44,26.65-6.25,40-9,4.73-1,9.33-2,13.42-5a11.73,11.73,0,0,1,9.56-2.28c4.66,2.37,6.32,6.09,5.68,11.49-.69,5.77-3,11-5.78,15.84-4.71,8.2-3.45,16.45,2.93,23.23a8.79,8.79,0,0,0,.87.92c.67-.84-.38-2.5,1.26-2.84C653.26,4213.25,654.69,4216.89,654.57,4220.69Z"/><path class="cls-12" d="M641.28,4190.55a10.25,10.25,0,0,0-5.88-9.24c-1.44-.76-2.9-1.55-4.35-2.24-7.19-3.44-15.54-2.91-23.28-2.49-4.34.24-8.68.45-13,.74a43.77,43.77,0,0,0-6.27.72c-2.13.44-4.23,1-6.37,1.4-2.77.51-5.44,1.69-8.15,2.45a14.23,14.23,0,0,1-4.54.73,25,25,0,0,0-7.13,3.26c-7.33,4.58-8.75,13.7-3.15,20.38,1.51.91,3.52.61,4.77,2.4.61.88,2.3.49,3.44.17s1.2-1.35,1.28-2.4a8.39,8.39,0,0,1,1.63-4.82c3.28-4.14,7.69-6.16,12.7-7.1,1.81-.33,6.73,2.15,7.45,3.73a1.26,1.26,0,0,0,1.45.75c.84,0,1.34.52,2,.9,2.2,1.29,3.83,3.26,5.93,4.7s4.67,1.37,6.25,3.66c.68,1,2.57,1.1,3.89,1.65,5.08,2.13,10.55,2,15.6,1a18.14,18.14,0,0,0,11.21-7.14c2.08-2.91,5.15-5.24,4.95-9.46C641.63,4193,641.31,4191.82,641.28,4190.55ZM628,4203.84a8.7,8.7,0,0,1-10.06-3.14,8.53,8.53,0,0,1,.78-10.66c.3-.34.54-.72.81-1.07,2.84-2.73,5.78-3,10-.82h0a6.69,6.69,0,0,1,3.66,4.53C634.06,4198.41,632.27,4202.26,628,4203.84Z"/><path class="cls-13" d="M629.46,4188.14h0Z"/><path class="cls-13" d="M630.6,4195.7a5.65,5.65,0,0,1-5.66,5.81,5.75,5.75,0,0,1-5.67-5.62,5.5,5.5,0,0,1,5.49-5.71A5.4,5.4,0,0,1,630.6,4195.7Z"/><path class="cls-14" d="M665.64,4183.29c-.75,5.83-3.57,10.85-6.45,15.83-2,3.4-4.15,6.67-5.61,10.33-1.64.34-.59,2-1.26,2.84a8.79,8.79,0,0,1-.87-.92c-6.38-6.78-7.64-15-2.93-23.23,2.8-4.87,5.09-10.07,5.78-15.84.64-5.4-1-9.12-5.68-11.49,4.18.14,7.15,2,8.71,6a17.37,17.37,0,0,0,5.29,7.78C665.63,4176.88,666.08,4179.94,665.64,4183.29Z"/><path class="cls-15" d="M633.12,4192.67a6.69,6.69,0,0,0-3.66-4.53h0c-4.2-2.14-7.14-1.91-10,.82-.27.35-.51.73-.81,1.07a8.53,8.53,0,0,0-.78,10.66,8.7,8.7,0,0,0,10.06,3.14C632.27,4202.26,634.06,4198.41,633.12,4192.67Zm-8.18,8.84a5.75,5.75,0,0,1-5.67-5.62,5.5,5.5,0,0,1,5.49-5.71,5.4,5.4,0,0,1,5.84,5.52A5.65,5.65,0,0,1,624.94,4201.51Z"/><path class="cls-16" d="M629.46,4188.14h0Z"/><path class="cls-16" d="M630.6,4195.7a5.65,5.65,0,0,1-5.66,5.81,5.75,5.75,0,0,1-5.67-5.62,5.5,5.5,0,0,1,5.49-5.71A5.4,5.4,0,0,1,630.6,4195.7Z"/><path class="cls-17" d="M629.46,4188.14h0Z"/><path class="cls-17" d="M629.46,4188.14h0Z"/><path class="cls-7" d="M630.6,4195.7a5.65,5.65,0,0,1-5.66,5.81,5.75,5.75,0,0,1-5.67-5.62,5.5,5.5,0,0,1,5.49-5.71A5.4,5.4,0,0,1,630.6,4195.7Z"/><path class="cls-11" d="M1542.84,2789.44a8.08,8.08,0,0,1-4.23,7.22c-6.25,3.68-13,3.61-19.78,2.29-10.3-2-19.41-6.79-28-12.77-8.23-5.74-17.58-8.77-27.33-10.63-2.33-.45-4.76-.51-6.44,2.07-.86,1.32-2.74,1.29-4.21,1-2.23-.47-4.3-1.41-5.48-3.58,1.5.91,3.51.61,4.76,2.4.61.87,2.31.49,3.45.17s1.2-1.35,1.27-2.4a8.33,8.33,0,0,1,1.64-4.82c3.27-4.14,7.69-6.17,12.7-7.1,1.8-.33,6.72,2.15,7.45,3.73a1.24,1.24,0,0,0,1.44.75c.84,0,1.35.52,2,.9,2.2,1.29,3.83,3.26,5.94,4.7s4.67,1.37,6.24,3.66c.68,1,2.57,1.1,3.89,1.65,5.08,2.13,10.55,2,15.61,1a18.12,18.12,0,0,0,11.2-7.14c2.09-2.91,5.15-5.24,5-9.46-.06-1.28-.37-2.5-.41-3.77a10.25,10.25,0,0,0-5.88-9.24c-4.51-2.38-9.1-4.66-14.46-4.13a1.46,1.46,0,0,1-.89-.1c-1.68-1-3.67-.81-5.54-.65-2,.18-4.12.15-6.19.18q-6.67.09-13.34.55c-3.23.23-6.28,1.29-9.49,1.64-4.06.47-7.72,2-11.53,3.09a14.47,14.47,0,0,1-4.54.73c5.25-2.27,11-3.27,16.19-5.49,12.82-5.44,26.64-6.25,40-9,4.73-1,9.33-2,13.41-5a11.73,11.73,0,0,1,9.56-2.28c4.66,2.37,6.32,6.09,5.68,11.49-.68,5.77-3,11-5.78,15.83-4.71,8.21-3.45,16.46,2.93,23.24a8.79,8.79,0,0,0,.87.92c.67-.84-.37-2.5,1.26-2.84C1541.52,2782,1543,2785.64,1542.84,2789.44Z"/><path class="cls-12" d="M1529.54,2759.3a10.25,10.25,0,0,0-5.88-9.24c-1.44-.76-2.89-1.55-4.35-2.24-7.19-3.44-15.54-2.91-23.27-2.49-4.34.24-8.69.45-13,.74a45.37,45.37,0,0,0-6.28.71c-2.12.45-4.23,1-6.36,1.41-2.78.51-5.45,1.69-8.16,2.45a14.47,14.47,0,0,1-4.54.73,25.1,25.1,0,0,0-7.12,3.26c-7.34,4.58-8.76,13.7-3.15,20.38,1.5.91,3.51.61,4.76,2.4.61.87,2.31.49,3.45.17s1.2-1.35,1.27-2.4a8.33,8.33,0,0,1,1.64-4.82c3.27-4.14,7.69-6.17,12.7-7.1,1.8-.33,6.72,2.15,7.45,3.73a1.24,1.24,0,0,0,1.44.75c.84,0,1.35.52,2,.9,2.2,1.29,3.83,3.26,5.94,4.7s4.67,1.37,6.24,3.66c.68,1,2.57,1.1,3.89,1.65,5.08,2.13,10.55,2,15.61,1a18.12,18.12,0,0,0,11.2-7.14c2.09-2.91,5.15-5.24,5-9.46C1529.89,2761.79,1529.58,2760.57,1529.54,2759.3Zm-13.33,13.29a8.69,8.69,0,0,1-10-3.14,8.52,8.52,0,0,1,.77-10.66c.3-.34.55-.72.82-1.07,2.84-2.73,5.77-3,10-.82h0l0,0h0a6.74,6.74,0,0,1,3.66,4.53C1522.32,2767.16,1520.54,2771,1516.21,2772.59Z"/><path class="cls-13" d="M1517.73,2756.88v0l0,0Z"/><path class="cls-13" d="M1518.86,2764.45a5.64,5.64,0,0,1-5.65,5.81,5.76,5.76,0,0,1-5.68-5.62,5.5,5.5,0,0,1,5.49-5.71A5.39,5.39,0,0,1,1518.86,2764.45Z"/><path class="cls-14" d="M1553.9,2752c-.75,5.83-3.57,10.85-6.45,15.83-2,3.39-4.15,6.66-5.61,10.33-1.63.34-.59,2-1.26,2.84a8.79,8.79,0,0,1-.87-.92c-6.38-6.78-7.64-15-2.93-23.24,2.8-4.86,5.1-10.06,5.78-15.83.64-5.4-1-9.12-5.68-11.49,4.18.14,7.15,2,8.71,6a17.31,17.31,0,0,0,5.3,7.78C1553.89,2745.63,1554.34,2748.69,1553.9,2752Z"/><path class="cls-15" d="M1521.39,2761.42a6.74,6.74,0,0,0-3.66-4.53h0c-4.21-2.14-7.14-1.91-10,.82-.27.35-.52.73-.82,1.07a8.52,8.52,0,0,0-.77,10.66,8.69,8.69,0,0,0,10,3.14C1520.54,2771,1522.32,2767.16,1521.39,2761.42Zm-8.18,8.84a5.76,5.76,0,0,1-5.68-5.62,5.5,5.5,0,0,1,5.49-5.71,5.39,5.39,0,0,1,5.84,5.52A5.64,5.64,0,0,1,1513.21,2770.26Z"/><path class="cls-16" d="M1517.73,2756.89h0l0,0Z"/><path class="cls-16" d="M1518.86,2764.45a5.64,5.64,0,0,1-5.65,5.81,5.76,5.76,0,0,1-5.68-5.62,5.5,5.5,0,0,1,5.49-5.71A5.39,5.39,0,0,1,1518.86,2764.45Z"/><path class="cls-17" d="M1517.73,2756.88v0l0,0Z"/><path class="cls-17" d="M1517.73,2756.88v0l0,0Z"/><path class="cls-7" d="M1518.86,2764.45a5.64,5.64,0,0,1-5.65,5.81,5.76,5.76,0,0,1-5.68-5.62,5.5,5.5,0,0,1,5.49-5.71A5.39,5.39,0,0,1,1518.86,2764.45Z"/><path class="cls-18" d="M1452.53,4261.83a26,26,0,0,1-7.22,8.51c-8.55,7.17-17.34,13.88-28.15,17.49a56.45,56.45,0,0,1-16.77,3.07c-3.48.07-6.91-.47-10.37-.5a35.86,35.86,0,0,1-9-3.25c-4.21-2.31-8.57-5-10.65-9.93-.22-.5-.59-.27-.88,0-2.9-5.74-2.57-11.6-.53-17.49a28.19,28.19,0,0,1,3.3-6.64c1.66-1.78,3.15-1.15,4.59.32.68.7,1.47,1.31,2.09,2.07,2.68,3.34,5.26,6.78,8,10.08,3.77,4.53,8.2,8.4,13.9,10.1,10,3,18.92-.06,27-5.8,3.47-2.45,5.43-6,4-10.64a22.36,22.36,0,0,0-5.76-8.94,73.21,73.21,0,0,0-12.14-9.77c-7.17-4.81-14.25-9.81-23.26-10.74-4.94-.51-9.85-1.13-14.82-1.15-2.6-.25-4-1.91-4.1-5.2-.26-6.21,2-11.67,5.27-16.79,9-14.15,23.76-12.58,33.8-6.05,7.08,4.61,12.19,11,16.17,18.3a61,61,0,0,0,10.12,14.37,8.28,8.28,0,0,1,.88,1.28.81.81,0,0,0,0,1.18l.31.35c.65.67,1.39,1.24,2.07,1.88a.94.94,0,0,1,.1.1l.24.22a5.88,5.88,0,0,1,1,1.34,3.46,3.46,0,0,1,.35.79,9.12,9.12,0,0,1,.21,1v0a.89.89,0,0,0,.14.33,1.08,1.08,0,0,0,.34.21.59.59,0,0,1,.24.17.72.72,0,0,1,.13.28v0a1.28,1.28,0,0,0,.11.27.91.91,0,0,0,.33.28,4.8,4.8,0,0,1,1.06,1.05l.06.08c1.7,2.19,3.74,4.12,5.46,6.29.17.2.33.41.49.63l.65.91C1453.82,4255.61,1454.44,4257.85,1452.53,4261.83Z"/><path class="cls-19" d="M1431.87,4259.25a22.36,22.36,0,0,0-5.76-8.94,73.21,73.21,0,0,0-12.14-9.77c-7.17-4.81-14.25-9.81-23.26-10.74-4.94-.51-9.85-1.13-14.82-1.15,1.3.71,2.8.31,4.17.79,5.06,1.73,6.33,6.72,2.57,10.39-.54.53-1.09,1.05-1.6,1.61-3.25,3.64-6.49,7.3-8.76,11.68,1.66-1.78,3.15-1.15,4.59.32.68.7,1.47,1.31,2.09,2.07,2.68,3.34,5.26,6.78,8,10.08,3.77,4.53,8.2,8.4,13.9,10.1,10,3,18.92-.06,27-5.8C1431.34,4267.44,1433.3,4263.87,1431.87,4259.25Zm-17.66,8a8.37,8.37,0,0,1-8.31-8.37,8.15,8.15,0,0,1,8.46-8.64,8.56,8.56,0,0,1,8.73,8.3C1423.25,4263.06,1419.05,4267.19,1414.21,4267.21Z"/><path class="cls-20" d="M1423.09,4258.5c.16,4.56-4,8.69-8.88,8.71a8.37,8.37,0,0,1-8.31-8.37,8.15,8.15,0,0,1,8.46-8.64A8.56,8.56,0,0,1,1423.09,4258.5Z"/><path class="cls-21" d="M1459,4265.22c-3.14,5.34-7.87,9.1-12.56,12.86-3.27,2.62-6.59,5.26-10.54,6.9a.25.25,0,0,0-.08-.1,0,0,0,0,1,0,0l.07.07a50.39,50.39,0,0,1-9.64,5.67c-6.29,3.14-12.62,6.34-19.62,7.42-10.6,1.63-20-1.45-28-8.44-3.94-3.41-7.44-7.26-9.14-12.38.29-.3.66-.53.88,0,2.08,4.88,6.44,7.62,10.65,9.93a35.86,35.86,0,0,0,9,3.25c3.46,0,6.89.57,10.37.5a56.45,56.45,0,0,0,16.77-3.07c10.81-3.61,19.6-10.32,28.15-17.49a26,26,0,0,0,7.22-8.51c1.91-4,1.29-6.22-1.15-9.83a16.85,16.85,0,0,0-1.86-2.35c-.73-.75-1.45-1.5-2.15-2.27a32.23,32.23,0,0,1-2.36-2.88,5.92,5.92,0,0,0-1.1-1.29,2.33,2.33,0,0,1-.51-.42c-.14-.18-.21-.41-.35-.59s-.36-.27-.51-.43a2.19,2.19,0,0,1-.34-1.09,3.58,3.58,0,0,0-.48-1.12,8.68,8.68,0,0,0-1.8-2.07l-.86-.76a8.58,8.58,0,0,1-1-1,.81.81,0,0,1,0-1.18c1.56,1.8,3.75,2.93,5.19,4.86,4,2.59,8.12,5.1,12.09,7.79C1461.84,4251.63,1463.12,4258.3,1459,4265.22Z"/><path class="cls-22" d="M1435.94,4285l-.07-.07a0,0,0,0,0,0,0h0A.35.35,0,0,1,1435.94,4285Z"/><path class="cls-22" d="M1435.94,4285l-.07-.07a0,0,0,0,0,0,0h0A.35.35,0,0,1,1435.94,4285Z"/><path class="cls-23" d="M1435.88,4284.89s0,0,0,0a0,0,0,0,0,0,0Z"/><path class="cls-24" d="M1423.09,4258.5c.16,4.56-4,8.69-8.88,8.71a8.37,8.37,0,0,1-8.31-8.37,8.15,8.15,0,0,1,8.46-8.64A8.56,8.56,0,0,1,1423.09,4258.5Z"/><path class="cls-7" d="M1420.06,4258.61a5.72,5.72,0,0,1-5.75,5.79,5.81,5.81,0,0,1-5.61-5.7,5.65,5.65,0,0,1,5.53-5.73A5.59,5.59,0,0,1,1420.06,4258.61Z"/><path class="cls-18" d="M422.14,2824.38a26,26,0,0,1-7.21,8.52c-8.56,7.16-17.35,13.87-28.16,17.48a55.81,55.81,0,0,1-16.76,3.07c-3.49.08-6.92-.46-10.38-.49a35.64,35.64,0,0,1-9-3.25c-4.21-2.32-8.58-5.05-10.66-9.94-.21-.5-.59-.27-.88,0-2.89-5.74-2.57-11.6-.53-17.49a28.19,28.19,0,0,1,3.3-6.64c1.66-1.78,3.15-1.15,4.59.31.68.7,1.47,1.32,2.09,2.08,2.69,3.34,5.26,6.77,8,10.08,3.77,4.53,8.2,8.4,13.9,10.1,10,3,18.92-.07,27-5.81,3.47-2.44,5.43-6,4-10.64a22.56,22.56,0,0,0-5.77-8.94,73.66,73.66,0,0,0-12.14-9.76c-7.17-4.81-14.25-9.82-23.26-10.75-4.93-.5-9.85-1.12-14.82-1.15-2.6-.24-4-1.9-4.1-5.19-.26-6.22,2-11.67,5.27-16.79,9-14.15,23.76-12.58,33.8-6,7.08,4.6,12.19,11,16.17,18.3a61.18,61.18,0,0,0,10.12,14.36,8.28,8.28,0,0,1,.88,1.28.82.82,0,0,0,0,1.19c.1.12.21.23.32.35.64.67,1.38,1.24,2.07,1.88l.09.09a2.61,2.61,0,0,1,.24.23,5.76,5.76,0,0,1,1,1.33,4.09,4.09,0,0,1,.36.8c.1.33.13.69.2,1v0a.89.89,0,0,0,.14.33.9.9,0,0,0,.34.2.62.62,0,0,1,.37.46v0a.82.82,0,0,0,.1.26.92.92,0,0,0,.33.29,4.4,4.4,0,0,1,1.06,1.05l.07.08c1.69,2.19,3.73,4.12,5.46,6.28l.48.64c.22.29.44.6.65.91C423.44,2818.17,424.05,2820.41,422.14,2824.38Z"/><path class="cls-19" d="M401.49,2821.8a22.56,22.56,0,0,0-5.77-8.94,73.66,73.66,0,0,0-12.14-9.76c-7.17-4.81-14.25-9.82-23.26-10.75-4.93-.5-9.85-1.12-14.82-1.15,1.3.72,2.8.32,4.17.79,5.07,1.73,6.33,6.73,2.57,10.4-.53.52-1.09,1-1.59,1.6-3.26,3.65-6.49,7.31-8.77,11.69,1.66-1.78,3.15-1.15,4.59.31.68.7,1.47,1.32,2.09,2.08,2.69,3.34,5.26,6.77,8,10.08,3.77,4.53,8.2,8.4,13.9,10.1,10,3,18.92-.07,27-5.81C401,2830,402.91,2826.42,401.49,2821.8Zm-17.67,8a8.37,8.37,0,0,1-8.31-8.37,8.15,8.15,0,0,1,8.47-8.64,8.57,8.57,0,0,1,8.73,8.3C392.86,2825.62,388.66,2829.74,383.82,2829.77Z"/><path class="cls-20" d="M392.71,2821.06c.15,4.56-4,8.68-8.89,8.71a8.37,8.37,0,0,1-8.31-8.37,8.15,8.15,0,0,1,8.47-8.64A8.57,8.57,0,0,1,392.71,2821.06Z"/><path class="cls-21" d="M428.66,2827.78c-3.15,5.33-7.88,9.1-12.57,12.85-3.27,2.62-6.59,5.27-10.54,6.9l-.07-.09v0l.07.07a49.92,49.92,0,0,1-9.64,5.68c-6.28,3.13-12.62,6.34-19.62,7.42-10.6,1.63-20-1.45-28-8.44-3.94-3.41-7.44-7.26-9.14-12.38.29-.31.67-.54.88,0,2.08,4.89,6.45,7.62,10.66,9.94a35.64,35.64,0,0,0,9,3.25c3.46,0,6.89.57,10.38.49a55.81,55.81,0,0,0,16.76-3.07c10.81-3.61,19.6-10.32,28.16-17.48a26,26,0,0,0,7.21-8.52c1.91-4,1.3-6.21-1.15-9.82a17.55,17.55,0,0,0-1.86-2.36c-.72-.74-1.45-1.5-2.15-2.27a30.87,30.87,0,0,1-2.36-2.88,5.64,5.64,0,0,0-1.1-1.28,2.33,2.33,0,0,1-.51-.43c-.14-.18-.2-.41-.35-.58s-.36-.27-.51-.44a2,2,0,0,1-.33-1.08,3.72,3.72,0,0,0-.48-1.12,8.72,8.72,0,0,0-1.81-2.07c-.28-.26-.57-.51-.86-.76a9.44,9.44,0,0,1-1-1,.82.82,0,0,1,0-1.19c1.56,1.8,3.75,2.93,5.19,4.86,4,2.59,8.12,5.11,12.09,7.8C431.45,2814.19,432.73,2820.86,428.66,2827.78Z"/><path class="cls-22" d="M405.55,2847.53l-.07-.07v0h0Z"/><path class="cls-22" d="M405.55,2847.53l-.07-.07v0h0Z"/><path class="cls-23" d="M405.49,2847.44a0,0,0,0,0,0,0v0Z"/><path class="cls-24" d="M392.71,2821.06c.15,4.56-4,8.68-8.89,8.71a8.37,8.37,0,0,1-8.31-8.37,8.15,8.15,0,0,1,8.47-8.64A8.57,8.57,0,0,1,392.71,2821.06Z"/><path class="cls-7" d="M389.67,2821.17a5.72,5.72,0,0,1-5.75,5.79,5.82,5.82,0,0,1-5.61-5.71,5.65,5.65,0,0,1,5.53-5.72A5.58,5.58,0,0,1,389.67,2821.17Z"/><path class="cls-8" d="M749.23,2545.09c-.79,8.62-3.18,16.76-8.17,24.06-3.79,5.56-7.84,10.86-13.53,14.48A19.15,19.15,0,0,1,712,2586c-2-.55-3.23-2.34-4.07-4.26-1.22-2.8-1.47-5.83-2.14-8.76a14.12,14.12,0,0,0-2.48-6.12c-2-2.43-5.89-1.94-9.23-.32a10.47,10.47,0,0,0-5.46,5.13c-2.81,6.52-9.75,6.61-14.53,3.56a39.56,39.56,0,0,1-13.27-14.06,64.58,64.58,0,0,1-8.67-30.8c-.08-3.86,1.12-4.91,5.09-4.61a52.43,52.43,0,0,1,9.77,1.76c.79.22,1.61.36,2.42.53a1.42,1.42,0,0,0,.62.27c7.34,0,11.76,5,16.44,9.61,3.62,3.53,6.37,7.84,10.31,11.13,4.58,3.8,13,4.53,17.88,1,3.33-2.42,4.37-6,4-9.85-.5-4.59-.68-9.19-1-13.79-.32-4.42,1.92-7.58,6.32-9.37,4.43-1.13,8.8-2.5,13.38-3a6.53,6.53,0,0,1,6.49,2.73A27.24,27.24,0,0,1,748.4,2528,58.76,58.76,0,0,1,749.23,2545.09Z"/><path class="cls-29" d="M711,2534.38a5.65,5.65,0,0,1-5.61,5.64,5.66,5.66,0,1,1-.21-11.32A5.75,5.75,0,0,1,711,2534.38Z"/><path class="cls-9" d="M723.89,2517.12a8,8,0,0,1-6.08-2.77,23.47,23.47,0,0,0-8.88-6.59c-8.38-3.23-15.36-1.33-21.59,4.63a66.85,66.85,0,0,0-9.47,11.4c-2.17,3.27-4.64,4.88-8.49,4.3a1.42,1.42,0,0,0,.62.27c7.34,0,11.76,5,16.44,9.61,3.62,3.53,6.37,7.84,10.31,11.13,4.58,3.8,13,4.53,17.88,1,3.33-2.42,4.37-6,4-9.85-.5-4.59-.68-9.19-1-13.79C717.25,2522.07,719.49,2518.91,723.89,2517.12Zm-10,19.07c-.67,1.57-1.31,3.88-5.52,6.31a9.54,9.54,0,0,1-3.11.61,10.11,10.11,0,0,1-3.18-.54c-2.89-1.44-6.18-5.4-5.38-9.44a9.13,9.13,0,0,1,5.13-6.68c3-1.35,6.58-1.23,8.94,1.06A10.21,10.21,0,0,1,713.89,2536.19Z"/><path class="cls-15" d="M710.77,2527.51c-2.36-2.29-6-2.41-8.94-1.06a9.13,9.13,0,0,0-5.13,6.68c-.8,4,2.49,8,5.38,9.44a10.11,10.11,0,0,0,3.18.54,9.21,9.21,0,0,0,2.29-.29,5.72,5.72,0,0,0,1.08-.45,16,16,0,0,0,2.7-1.94c.26-.5,1.67-1.78,1.8-2.15a9.58,9.58,0,0,0,.83-2.9,11.74,11.74,0,0,0-.24-2.71,10.43,10.43,0,0,0-2.38-4.56C711.15,2527.9,711,2527.7,710.77,2527.51ZM705.43,2540a5.66,5.66,0,1,1-.21-11.32,5.75,5.75,0,0,1,5.82,5.68A5.65,5.65,0,0,1,705.43,2540Z"/><path class="cls-30" d="M711,2534.38a5.65,5.65,0,0,1-5.61,5.64,5.66,5.66,0,1,1-.21-11.32A5.75,5.75,0,0,1,711,2534.38Z"/><path class="cls-7" d="M711,2534.38a5.65,5.65,0,0,1-5.61,5.64,5.66,5.66,0,1,1-.21-11.32A5.75,5.75,0,0,1,711,2534.38Z"/></g></g></g></svg>