<svg xmlns="http://www.w3.org/2000/svg" xmlns:xlink="http://www.w3.org/1999/xlink" viewBox="0 0 169.33 82.52"><defs><style>.cls-1,.cls-2{stroke:#faf9db;stroke-miterlimit:10;stroke-width:2px;}.cls-1{fill:url(#未命名漸層_31);}.cls-2{fill:url(#未命名漸層_31-2);}.cls-3{font-size:14.44px;fill:#fff;font-family:DelaGothicOne-Regular, Dela Gothic One;letter-spacing:0.08em;}</style><linearGradient id="未命名漸層_31" x1="40.19" y1="81.52" x2="40.19" y2="23.56" gradientUnits="userSpaceOnUse"><stop offset="0" stop-color="#6fa0d3"/><stop offset="1" stop-color="#eb8ebb"/></linearGradient><linearGradient id="未命名漸層_31-2" x1="129.42" y1="81.52" x2="129.42" y2="23.78" xlink:href="#未命名漸層_31"/></defs><g id="圖層_2" data-name="圖層 2"><g id="素材"><path class="cls-1" d="M77.23,36.67H51.18L51,38H76.19l-5.7,32.34A17.12,17.12,0,0,1,68.16,77,7.84,7.84,0,0,1,63.62,80a35.32,35.32,0,0,1-8.79.83c-2.33,0-4.16,0-5.48-.08.36-2.36.63-4.7.79-7H43.31L42,81.21H28.34l1.31-7.46H20.52l1.82-10.32h9.13l.23-1.28H22.57l1.54-8.75h3.12c-.18-.65-.41-1.63-.67-2.94l11.67-1.35c.08,1,.29,2.38.65,4.29h2.38c1-1.91,1.75-3.34,2.16-4.29l11.19,1.35c-.72,1.31-1.29,2.29-1.7,2.94H56l-1.55,8.75H45.35l-.22,1.28h9.13l-1.1,6.25a1.4,1.4,0,0,0,1.25-.79,11.82,11.82,0,0,0,.69-2.67l3.09-17.49H23.67L17.89,81.52H1.19L8.87,38H34.63l.22-1.28H8.8l2-11.08H36.81l.36-2H53.49l-.35,2H79.19Z"/><path class="cls-2" d="M95.19,55.21h35.33l-4.64,26.31H111.93l.13-.76h-7.34l-.14.76h-14Zm39.17-16.73h-3.12l-.92,3.17h4.37l-2,11.53H94.44l2-11.53h4.23l0-3.17H97.92l2.13-12.06h10.09l.46-2.64h15.52l-.47,2.64h10.84ZM114,69.61l.74-4.22h-7.34l-.75,4.22Zm4.38-31.13h-4.53l-.26,3.17h3.86Zm49.88-2.56q-5.29,9.8-8.17,14.32Q164,57.77,162.9,64q-1.22,6.87-5.53,10.52A15.35,15.35,0,0,1,146.7,78a33.74,33.74,0,0,0-1-11.3l-2.57,14.54H128.76l9.92-56.29h27.69ZM146.13,64a4.34,4.34,0,0,0,3.07-3.54c.28-1.61-.18-3.59-1.4-5.95Zm4.63-26.3-1.6,9.12q3.63-5.51,4.35-9.12Z"/><text class="cls-3" transform="matrix(0.97, 0, -0.17, 0.98, 19.11, 12.51)">South</text></g></g></svg>