<svg xmlns="http://www.w3.org/2000/svg" xmlns:xlink="http://www.w3.org/1999/xlink" viewBox="0 0 170.31 86.71"><defs><style>.cls-1,.cls-2{stroke:#faf9db;stroke-miterlimit:10;stroke-width:2px;}.cls-1{fill:url(#未命名漸層_31);}.cls-2{fill:url(#未命名漸層_31-2);}.cls-3{font-size:14.44px;fill:#fff;font-family:DelaGothicOne-Regular, Dela Gothic One;letter-spacing:0.07em;}.cls-4{letter-spacing:0.05em;}.cls-5{letter-spacing:0.08em;}</style><linearGradient id="未命名漸層_31" x1="41.09" y1="85.65" x2="41.09" y2="27.17" gradientUnits="userSpaceOnUse"><stop offset="0" stop-color="#6fa0d3"/><stop offset="1" stop-color="#eb8ebb"/></linearGradient><linearGradient id="未命名漸層_31-2" x1="130.4" y1="84.97" x2="130.4" y2="27.24" xlink:href="#未命名漸層_31"/></defs><g id="圖層_2" data-name="圖層 2"><g id="素材"><path class="cls-1" d="M70.16,77.59a67.86,67.86,0,0,0-4.25,7.91A75.4,75.4,0,0,1,55.17,82a51.14,51.14,0,0,1-9.91-5.24l-1.57,8.89H28.26l1.56-8.89A84.92,84.92,0,0,1,17.91,82,90.52,90.52,0,0,1,6.09,85.5a48.68,48.68,0,0,0-1.46-7.91,31.45,31.45,0,0,0-2.91-6.86A139.63,139.63,0,0,0,16.58,70a113.55,113.55,0,0,0,12.63-2h-22l4.62-26.22H36l.28-1.58H9.33L11.13,30H38.08l.49-2.79H54L53.51,30H80.46L78.65,40.21H51.71l-.28,1.58H75.62L71,68H49a96.65,96.65,0,0,0,11.93,2,132.46,132.46,0,0,0,14.6.76A49.92,49.92,0,0,0,70.16,77.59Zm-37-19.67H24l-.3,1.65h9.13Zm1.1-6.26L34.54,50H25.41l-.29,1.66Zm14.33,6.26-.29,1.65h9.13l.29-1.65Zm10.24-6.26L59.11,50H50l-.29,1.66Z"/><path class="cls-2" d="M96.17,58.67H131.5L126.87,85h-14l.14-.75H105.7l-.13.75h-14Zm39.17-16.73h-3.11l-.93,3.16h4.38l-2,11.54H95.42l2-11.54h4.23l0-3.16H98.9L101,29.88h10.09l.47-2.64H127.1l-.47,2.64h10.84ZM115,73.06l.75-4.22h-7.35l-.75,4.22Zm4.38-31.12h-4.53l-.26,3.16h3.86Zm49.88-2.56Q164,49.18,161.1,53.7q3.87,7.53,2.78,13.71-1.22,6.86-5.53,10.52a15.38,15.38,0,0,1-10.67,3.5,33.23,33.23,0,0,0-1.05-11.3l-2.57,14.54H129.74l9.93-56.3h27.68Zm-22.16,28a4.32,4.32,0,0,0,3.07-3.54q.44-2.41-1.4-5.95Zm4.64-26.3-1.61,9.12q3.65-5.5,4.35-9.12Z"/><text class="cls-3" transform="matrix(0.97, 0, -0.17, 0.98, 13, 12.51)">Ea<tspan class="cls-4" x="25.38" y="0">s</tspan><tspan class="cls-5" x="36.41" y="0">t</tspan></text></g></g></svg>