<svg xmlns="http://www.w3.org/2000/svg" xmlns:xlink="http://www.w3.org/1999/xlink" viewBox="0 0 166.99 86.02"><defs><style>.cls-1,.cls-2{stroke:#faf9db;stroke-miterlimit:10;stroke-width:2px;}.cls-1{fill:url(#未命名漸層_254);}.cls-2{fill:url(#未命名漸層_254-2);}.cls-3{font-size:14.44px;fill:#6fa0d3;font-family:DelaGothicOne-Regular, Dela Gothic One;letter-spacing:0.07em;}</style><linearGradient id="未命名漸層_254" x1="38.18" y1="84.35" x2="38.18" y2="26.84" gradientUnits="userSpaceOnUse"><stop offset="0" stop-color="#045e9e"/><stop offset="1" stop-color="#a1d6f6"/></linearGradient><linearGradient id="未命名漸層_254-2" x1="127.08" y1="85.02" x2="127.08" y2="27.29" xlink:href="#未命名漸層_254"/></defs><g id="圖層_2" data-name="圖層 2"><g id="素材"><path class="cls-1" d="M51.79,26.84,50.17,36h25L68.73,72.59H52.26l.26-1.51H44L41.65,84.35H24.13l2.34-13.27H18l-.27,1.51H1.19L7.64,36h25l1.62-9.19ZM21.61,50.66l-1,5.72h8.46l1-5.72Zm26,0-1,5.72h8.53l1-5.72Z"/><path class="cls-2" d="M92.85,58.72h35.33L123.54,85h-14l.13-.75h-7.35l-.13.75h-14ZM132,42H128.9L128,45.16h4.38l-2,11.53H92.1l2-11.53h4.23l0-3.17H95.58L97.7,29.93h10.1l.46-2.64h15.52l-.47,2.64h10.84ZM111.69,73.12l.74-4.22h-7.35l-.74,4.22ZM116.06,42h-4.52l-.26,3.17h3.85ZM166,39.43q-5.3,9.8-8.17,14.32,3.87,7.53,2.78,13.71Q159.35,74.33,155,78a15.39,15.39,0,0,1-10.67,3.5,33.74,33.74,0,0,0-1.05-11.3l-2.57,14.54H126.42l9.92-56.3H164Zm-22.17,28a4.33,4.33,0,0,0,3.08-3.54q.42-2.41-1.4-6Zm4.64-26.3-1.61,9.12q3.65-5.51,4.36-9.12Z"/><text class="cls-3" transform="matrix(0.97, 0, -0.17, 0.98, 16.77, 12.51)">Middle</text></g></g></svg>