<svg xmlns="http://www.w3.org/2000/svg" xmlns:xlink="http://www.w3.org/1999/xlink" viewBox="0 0 168.81 87.74"><defs><style>.cls-1,.cls-2{stroke:#faf9db;stroke-miterlimit:10;stroke-width:2px;}.cls-1{fill:url(#未命名漸層_254);}.cls-2{fill:url(#未命名漸層_254-2);}.cls-3{font-size:14.44px;fill:#6fa0d3;font-family:DelaGothicOne-Regular, Dela Gothic One;letter-spacing:0.07em;}</style><linearGradient id="未命名漸層_254" x1="39.01" y1="86.56" x2="39.01" y2="28.07" gradientUnits="userSpaceOnUse"><stop offset="0" stop-color="#045e9e"/><stop offset="1" stop-color="#a1d6f6"/></linearGradient><linearGradient id="未命名漸層_254-2" x1="128.9" y1="85.8" x2="128.9" y2="28.07" xlink:href="#未命名漸層_254"/></defs><g id="圖層_2" data-name="圖層 2"><g id="素材"><path class="cls-1" d="M73.16,59.43a52.57,52.57,0,0,1-.26,6.93q-.32,2.64-1,6.63a14.23,14.23,0,0,1-4.67,8.59,15.49,15.49,0,0,1-8.79,3.77c-1.56.15-3.62.23-6.2.23s-5.15-.08-8-.23q-3.68-.15-5.09-1.24c-.93-.73-1.33-2-1.19-4q-8.68,2.11-28.47,5.28L2.77,86.56c0-3.92-.15-7.11-.28-9.57a39.16,39.16,0,0,0-1.22-7.62q12-.83,17.38-1.35l2.44-13.79h-16L7.84,38.4h16l1.8-10.25H42.46l-6.58,37.3q1.08-.23,4.71-1L47,28.07H62.59l-1.68,9.5q6.2-1.05,15.85-3.17a52.34,52.34,0,0,0-.49,15L67.9,51l-9.67,1.8L55.42,68.7a.88.88,0,0,0,.15.83,2.75,2.75,0,0,0,1.45.22,8.84,8.84,0,0,0,2.26-.19c.41-.12.65-.31.69-.56a39.15,39.15,0,0,0,.22-11.76Q63.69,58.44,73.16,59.43Z"/><path class="cls-2" d="M94.67,59.5H130l-4.64,26.3h-14l.13-.75H104.2l-.14.75H90Zm39.17-16.73h-3.11l-.93,3.17h4.38l-2,11.53H93.92l2-11.53h4.23l0-3.17H97.4l2.13-12.06h10.09l.47-2.64H125.6l-.47,2.64H136ZM113.51,73.9l.75-4.22h-7.35l-.75,4.22Zm4.38-31.13h-4.53l-.26,3.17H117Zm49.88-2.56q-5.29,9.8-8.17,14.32,3.87,7.53,2.78,13.71-1.22,6.87-5.53,10.52a15.39,15.39,0,0,1-10.67,3.5A33.23,33.23,0,0,0,145.13,71L142.56,85.5H128.24l9.93-56.3h27.68Zm-22.16,28a4.32,4.32,0,0,0,3.07-3.54c.28-1.61-.18-3.59-1.4-6Zm4.63-26.3-1.6,9.12c2.42-3.67,3.88-6.71,4.35-9.12Z"/><text class="cls-3" transform="matrix(0.97, 0, -0.17, 0.98, 15.12, 12.51)">North</text></g></g></svg>