<svg xmlns="http://www.w3.org/2000/svg" viewBox="0 0 203.59 25.23"><defs><style>.cls-1{fill:#faf9db;}</style></defs><g id="圖層_2" data-name="圖層 2"><g id="素材"><rect class="cls-1" x="199.7" y="11.21" width="3.88" height="2.8"/><rect class="cls-1" x="195.82" y="14.02" width="3.88" height="2.8"/><rect class="cls-1" x="195.82" y="11.21" width="3.88" height="2.8"/><rect class="cls-1" x="195.82" y="8.41" width="3.88" height="2.8"/><rect class="cls-1" x="191.94" y="16.82" width="3.88" height="2.8"/><rect class="cls-1" x="191.94" y="11.21" width="3.88" height="2.8"/><rect class="cls-1" x="191.94" y="5.61" width="3.88" height="2.8"/><rect class="cls-1" x="188.06" y="19.62" width="3.88" height="2.8"/><rect class="cls-1" x="188.06" y="11.21" width="3.88" height="2.8"/><rect class="cls-1" x="188.06" y="2.8" width="3.88" height="2.8"/><rect class="cls-1" x="184.18" y="22.43" width="3.88" height="2.8"/><rect class="cls-1" x="184.18" y="11.21" width="3.88" height="2.8"/><rect class="cls-1" x="184.18" width="3.88" height="2.8"/><rect class="cls-1" x="180.3" y="11.21" width="3.88" height="2.8"/><rect class="cls-1" x="176.41" y="11.21" width="3.88" height="2.8"/><rect class="cls-1" x="172.53" y="11.21" width="3.88" height="2.8"/><rect class="cls-1" x="168.65" y="11.21" width="3.88" height="2.8"/><rect class="cls-1" x="164.77" y="11.21" width="3.88" height="2.8"/><rect class="cls-1" y="11.21" width="164.77" height="2.8"/></g></g></svg>