<svg xmlns="http://www.w3.org/2000/svg" viewBox="0 0 76.96 34.93"><defs><style>.cls-1{fill:#045e9e;}</style></defs><g id="圖層_2" data-name="圖層 2"><g id="素材"><rect class="cls-1" x="73.08" y="15.53" width="3.88" height="3.88"/><rect class="cls-1" x="69.2" y="19.41" width="3.88" height="3.88"/><rect class="cls-1" x="69.2" y="15.53" width="3.88" height="3.88"/><rect class="cls-1" x="69.2" y="11.65" width="3.88" height="3.88"/><rect class="cls-1" x="65.32" y="23.29" width="3.88" height="3.88"/><rect class="cls-1" x="65.32" y="15.53" width="3.88" height="3.88"/><rect class="cls-1" x="65.32" y="7.76" width="3.88" height="3.88"/><rect class="cls-1" x="61.43" y="27.17" width="3.88" height="3.88"/><rect class="cls-1" x="61.43" y="15.53" width="3.88" height="3.88"/><rect class="cls-1" x="61.43" y="3.88" width="3.88" height="3.88"/><rect class="cls-1" x="57.55" y="31.05" width="3.88" height="3.88"/><rect class="cls-1" x="57.55" y="15.53" width="3.88" height="3.88"/><rect class="cls-1" x="57.55" width="3.88" height="3.88"/><rect class="cls-1" x="53.67" y="15.53" width="3.88" height="3.88"/><rect class="cls-1" x="49.79" y="15.53" width="3.88" height="3.88"/><rect class="cls-1" x="45.91" y="15.53" width="3.88" height="3.88"/><rect class="cls-1" x="42.03" y="15.53" width="3.88" height="3.88"/><rect class="cls-1" x="38.14" y="15.53" width="3.88" height="3.88"/><rect class="cls-1" y="15.53" width="38.14" height="3.88"/></g></g></svg>