<svg xmlns="http://www.w3.org/2000/svg" viewBox="0 0 47.48 20.31"><defs><style>.cls-1{fill:#ea7494;}</style></defs><g id="圖層_2" data-name="圖層 2"><g id="素材"><rect class="cls-1" x="44.51" width="2.97" height="2.54"/><rect class="cls-1" x="41.54" y="2.54" width="2.97" height="2.54"/><rect class="cls-1" x="41.54" width="2.97" height="2.54"/><rect class="cls-1" x="38.58" y="5.08" width="2.97" height="2.54"/><rect class="cls-1" x="38.58" y="2.54" width="2.97" height="2.54"/><rect class="cls-1" x="38.58" width="2.97" height="2.54"/><rect class="cls-1" x="35.61" y="7.62" width="2.97" height="2.54"/><rect class="cls-1" x="35.61" y="5.08" width="2.97" height="2.54"/><rect class="cls-1" x="35.61" y="2.54" width="2.97" height="2.54"/><rect class="cls-1" x="35.61" width="2.97" height="2.54"/><rect class="cls-1" x="32.64" y="10.16" width="2.97" height="2.54"/><rect class="cls-1" x="32.64" y="7.62" width="2.97" height="2.54"/><rect class="cls-1" x="32.64" y="5.08" width="2.97" height="2.54"/><rect class="cls-1" x="32.64" y="2.54" width="2.97" height="2.54"/><rect class="cls-1" x="32.64" width="2.97" height="2.54"/><rect class="cls-1" x="29.67" y="12.7" width="2.97" height="2.54"/><rect class="cls-1" x="29.67" y="10.16" width="2.97" height="2.54"/><rect class="cls-1" x="29.67" y="7.62" width="2.97" height="2.54"/><rect class="cls-1" x="29.67" y="5.08" width="2.97" height="2.54"/><rect class="cls-1" x="29.67" y="2.54" width="2.97" height="2.54"/><rect class="cls-1" x="29.67" width="2.97" height="2.54"/><rect class="cls-1" x="26.71" y="15.24" width="2.97" height="2.54"/><rect class="cls-1" x="26.71" y="12.7" width="2.97" height="2.54"/><rect class="cls-1" x="26.71" y="10.16" width="2.97" height="2.54"/><rect class="cls-1" x="26.71" y="7.62" width="2.97" height="2.54"/><rect class="cls-1" x="26.71" y="5.08" width="2.97" height="2.54"/><rect class="cls-1" x="26.71" y="2.54" width="2.97" height="2.54"/><rect class="cls-1" x="26.71" width="2.97" height="2.54"/><rect class="cls-1" x="23.74" y="17.77" width="2.97" height="2.54"/><rect class="cls-1" x="23.74" y="15.24" width="2.97" height="2.54"/><rect class="cls-1" x="23.74" y="12.7" width="2.97" height="2.54"/><rect class="cls-1" x="23.74" y="10.16" width="2.97" height="2.54"/><rect class="cls-1" x="23.74" y="7.62" width="2.97" height="2.54"/><rect class="cls-1" x="23.74" y="5.08" width="2.97" height="2.54"/><rect class="cls-1" x="23.74" y="2.54" width="2.97" height="2.54"/><rect class="cls-1" x="23.74" width="2.97" height="2.54"/><rect class="cls-1" x="20.77" y="17.77" width="2.97" height="2.54"/><rect class="cls-1" x="20.77" y="15.24" width="2.97" height="2.54"/><rect class="cls-1" x="20.77" y="12.7" width="2.97" height="2.54"/><rect class="cls-1" x="20.77" y="10.16" width="2.97" height="2.54"/><rect class="cls-1" x="20.77" y="7.62" width="2.97" height="2.54"/><rect class="cls-1" x="20.77" y="5.08" width="2.97" height="2.54"/><rect class="cls-1" x="20.77" y="2.54" width="2.97" height="2.54"/><rect class="cls-1" x="20.77" width="2.97" height="2.54"/><rect class="cls-1" x="17.8" y="15.24" width="2.97" height="2.54"/><rect class="cls-1" x="17.8" y="12.7" width="2.97" height="2.54"/><rect class="cls-1" x="17.8" y="10.16" width="2.97" height="2.54"/><rect class="cls-1" x="17.8" y="7.62" width="2.97" height="2.54"/><rect class="cls-1" x="17.8" y="5.08" width="2.97" height="2.54"/><rect class="cls-1" x="17.8" y="2.54" width="2.97" height="2.54"/><rect class="cls-1" x="17.8" width="2.97" height="2.54"/><rect class="cls-1" x="14.84" y="12.7" width="2.97" height="2.54"/><rect class="cls-1" x="14.84" y="10.16" width="2.97" height="2.54"/><rect class="cls-1" x="14.84" y="7.62" width="2.97" height="2.54"/><rect class="cls-1" x="14.84" y="5.08" width="2.97" height="2.54"/><rect class="cls-1" x="14.84" y="2.54" width="2.97" height="2.54"/><rect class="cls-1" x="14.84" width="2.97" height="2.54"/><rect class="cls-1" x="11.87" y="10.16" width="2.97" height="2.54"/><rect class="cls-1" x="11.87" y="7.62" width="2.97" height="2.54"/><rect class="cls-1" x="11.87" y="5.08" width="2.97" height="2.54"/><rect class="cls-1" x="11.87" y="2.54" width="2.97" height="2.54"/><rect class="cls-1" x="11.87" width="2.97" height="2.54"/><rect class="cls-1" x="8.9" y="7.62" width="2.97" height="2.54"/><rect class="cls-1" x="8.9" y="5.08" width="2.97" height="2.54"/><rect class="cls-1" x="8.9" y="2.54" width="2.97" height="2.54"/><rect class="cls-1" x="8.9" width="2.97" height="2.54"/><rect class="cls-1" x="5.93" y="5.08" width="2.97" height="2.54"/><rect class="cls-1" x="5.93" y="2.54" width="2.97" height="2.54"/><rect class="cls-1" x="5.93" width="2.97" height="2.54"/><rect class="cls-1" x="2.97" y="2.54" width="2.97" height="2.54"/><rect class="cls-1" x="2.97" width="2.97" height="2.54"/><rect class="cls-1" width="2.97" height="2.54"/></g></g></svg>