<svg xmlns="http://www.w3.org/2000/svg" viewBox="0 0 1777.88 826.4"><defs><style>.cls-1{fill:none;stroke:#fff;stroke-miterlimit:10;}</style></defs><g id="圖層_2" data-name="圖層 2"><g id="素材"><g id="_logo白" data-name="  logo白"><path class="cls-1" d="M84.56,672.41A184.35,184.35,0,0,0,123.9,656a111.52,111.52,0,0,0,29.39-24.43,148.46,148.46,0,0,0,23.92-37.12q10-21.66,18.19-52.3l-74.17,8.66Q105.39,627.45,84.56,672.41Zm87.8-110.88a252.69,252.69,0,0,1-10.17,26,133.1,133.1,0,0,1-21.49,33.32,95.74,95.74,0,0,1-25.06,20.85l-1.5.84c7.53-22.11,14.48-47.72,20.81-76.62Z"/><path class="cls-1" d="M255,402.42l-97,11.33c.52-5,.93-9.26,1.24-12.84L161,380.69,62,392.24l-.56,14.15c-3.3,83.95-21.33,149.05-53.61,193.49l-7.25,10,7.49,9.8c8.49,11.11,18.06,26.76,28.54,46.69l-23,4.17,8.64,19.29A469.27,469.27,0,0,1,56.84,806.66l3.09,19.09,18.38-6c25.54-8.33,48.56-18.46,68.43-30.11,20.5-12,35.8-23.52,46.81-35.23,23.81-25.59,43.23-57.26,57.7-94.14,14-35.77,26.65-80.15,37.48-131.91l.84-4ZM235.84,654.23q-20.67,52.65-54.41,88.9-14.64,15.57-43.06,32.23T73.18,804A483.65,483.65,0,0,0,37.4,683q15.89-2.87,23.83-4.83-22.35-45.56-40-68.6Q72.86,538.56,78,407l64.69-7.56q-1,11.37-3.44,33.12l103.61-12.1L272.53,525Q256.5,601.59,235.84,654.23Z"/><path class="cls-1" d="M555,452.88l4.55-.53-.32-113.57L334.57,365l.18,98.16-9.18,1.07L325.83,610l20-4.26c27.43-5.84,62.94-11.61,105.87-17.19-23.46,24.87-60.54,41.67-110.71,50.1L321,642l7.19,18.87a503,503,0,0,1,17.27,56c5.3,21.13,9.64,41.28,12.91,59.9L362,797l19-7.79c38.77-15.88,71.38-34.62,96.92-55.71,26-21.42,47.58-48.35,64.26-80,16.33-31,30-70.08,40.52-116.17l1.08-4.74Zm-12.27-95.51.22,80.25L351.3,460l-.14-80.26Zm-15.2,288.41q-23.59,44.81-60.15,75t-92.67,53.16q-5-28.67-13.15-61.06A515.83,515.83,0,0,0,343.7,655q109.7-18.45,142-87.3-90.3,10.54-143.39,21.87L342.15,479,538.54,456l28,77.59Q551.12,601,527.53,645.78Z"/><path class="cls-1" d="M797.72,297l-7.29,21.87c-13.55,40.67-32.71,72.37-56.86,94.11-11,9.75-25.5,17.41-43.1,22.77-18.89,5.76-41.11,10-66.05,12.56l-18.3,1.89,3.81,18a512.1,512.1,0,0,1,9,57.95c1.77,18.92,3.37,41.77,4.77,67.93l1.08,20.24,19.62-5.1a582.46,582.46,0,0,0,67.38-21.51l.59,153.21L814.23,729l-.9-213.19a324.4,324.4,0,0,0,37.23-57c11.19-21.79,22.6-49.36,33.91-81.95l3.95-11.37Zm38.11,154.29a305.31,305.31,0,0,1-39.08,58.57l.86,204.43-68.79,8-.61-159.9q-34.44,16.83-88,30.78-2.12-39.72-4.82-68.59a525.45,525.45,0,0,0-9.25-59.83q39.18-4.07,69.16-13.2t49.27-26.21q39.78-35.85,61.58-101.27l62.69,47.38Q852.18,419.41,835.83,451.25Z"/><path class="cls-1" d="M1165.25,547.89l-1.39-229-12.93-2.84c-34.17-7.49-72.14-11.29-112.85-11.29a796.16,796.16,0,0,0-91.78,5.65l-14.71,1.71,1.15,229.14L919.35,543l.71,143.87,18.38-2.15c40.08-4.68,76.89-7.06,109.41-7.06h.53A538.41,538.41,0,0,1,1149.78,688l18.29,3.55,1.37-18.58c1.8-24.39,3.42-44.87,4.82-60.87,1.37-15.55,3.15-30.78,5.31-45.27l2.34-15.69ZM1148.68,545a440.24,440.24,0,0,0-96.39-10.51,923.57,923.57,0,0,0-103,6.65l-.45-91.09a730.87,730.87,0,0,1,199.28,2.83Zm-1.3-212.77.63,103.26a505.72,505.72,0,0,0-97.44-8.58,970.37,970.37,0,0,0-101.82,6.77l-.53-106.82Q1062.21,313.58,1147.38,332.26Zm10.39,278.36q-2.08,23.83-4.84,61.09-54.48-10.58-104.54-10.62t-111.87,7.17L936,557.58A773.61,773.61,0,0,1,1048,551.41q54,1.13,115.16,12.94Q1159.86,586.79,1157.77,610.62Z"/><path class="cls-1" d="M1467.83,282c-13.85-5.08-25.58-9.67-34.89-13.66a227,227,0,0,1-27.48-14.17l-23.73-14.27-1.34,27.65c-1.23,25.54-3.08,49-5.52,70.19a523.29,523.29,0,0,0-50-32.5c-16.72-9.49-36-19.21-57.32-28.9l-17.86-8.11-5,19c-3.54,13.45-9.27,30.92-17,51.9s-15.47,39.66-22.89,55.38L1196.51,412l18.61,5.43c21.53,6.28,38.43,12.32,50.22,17.95s28.06,15.11,48,28l16.11,10.39L1366,393.39c-6.51,30.06-15.61,53.69-27.07,70.25-12.83,18.52-28.33,32.69-46.08,42.11-18.28,9.71-42.12,16.33-70.87,19.69l-21,2.45,7.37,19.78a351,351,0,0,1,15.42,53.74c3.61,18.17,7.34,41,11.1,67.78l2.7,19.25,18.58-5.73c35.42-10.93,65.68-25.25,89.93-42.57,24.58-17.55,46.22-41.16,64.29-70.13,19.78-31.5,35.43-68.94,46.5-111.26,10.93-41.72,18.25-95.65,21.76-160.3l.67-12.22Zm-145.5,167.45q-30.93-19.93-49.84-29t-52.74-18.92q11.51-24.36,23.45-56.7t17.5-53.42q31.35,14.24,56,28.22a504.59,504.59,0,0,1,49.84,32.53Zm118.56,5.1q-16,61.29-44.51,106.65-25.53,40.93-59.89,65.45t-85.19,40.23Q1245.56,626,1240,598.18a365.18,365.18,0,0,0-16.15-56.29q46.41-5.43,76.71-21.52t51.93-47.3q19.65-28.41,30.2-78.78t14.2-125.93a241,241,0,0,0,29.5,15.22q14.55,6.23,35.7,14Q1456.93,393.28,1440.89,454.56Z"/><path class="cls-1" d="M1573.46,498.5a183.52,183.52,0,0,0,39.22-16.37,110.6,110.6,0,0,0,29.21-24.42,146.36,146.36,0,0,0,23.63-37.07q9.87-21.63,17.78-52.24l-74.13,8.66Q1593.93,453.58,1573.46,498.5Zm87-110.76a249.72,249.72,0,0,1-10,26,130.92,130.92,0,0,1-20.93,32.93l-.27.31a94.49,94.49,0,0,1-24.86,20.78c-.55.32-1.11.63-1.67.94,7.37-22.1,14.14-47.71,20.24-76.62Z"/><path class="cls-1" d="M1744.68,238.69l25.67-17.28L1768.68,211a449.76,449.76,0,0,0-15.83-67.1l-6.67-20.64-48.38,31.64,0,.12-26.4,17.26,3.44,11.78c5.25,18,9.42,35.16,12.44,51.14l-42.52,5c.48-5.08.86-9.37,1.14-12.95l1.58-20.07-98.83,11.54-.45,14.27c-2.63,83.82-20.14,148.82-52,193.19l-7.22,10,7.57,9.77c8.56,11.07,18.25,26.67,28.89,46.55l-23,4.17,8.86,19.37a471.18,471.18,0,0,1,35.5,116.72l3.23,18.92,18.23-6c25.49-8.33,48.44-18.45,68.24-30.09,20.43-12,35.65-23.52,46.59-35.23,23.63-25.57,42.81-57.22,57-94.09,13.77-35.76,26-80.1,36.44-131.79l.81-4ZM1737.1,149a433,433,0,0,1,15.23,64.62l-20.21,13.6a527,527,0,0,0-15-65.17Zm-26.37,17.38a434.26,434.26,0,0,1,15.47,64.6l-20.45,13.63a529.34,529.34,0,0,0-15-65.18Zm13.93,314q-20.27,52.6-53.72,88.81-14.52,15.54-42.82,32.18t-65,28.63a485.22,485.22,0,0,0-36.77-120.82q15.87-2.87,23.8-4.83-22.73-45.51-40.53-68.52,51-71,55.15-202.33l64.66-7.55q-.9,11.34-3.18,33.07l103.56-12.09,30.51,104.34Q1744.91,427.76,1724.66,480.32Z"/><path class="cls-1" d="M830,177.33c0-4.08-.2-11.85-.58-24.46L829,138.34l-14.47-1.45-3.93-.42a39,39,0,0,0,10.51-13,54,54,0,0,0,5.7-16.79c.43-2.83,1-8.31.92-23.14L827.61,66l-3.51.21L823.82.56l-82.24,9.6,0-7.08L656.67,13l0,7.08-82.49,9.62.24,76.68-4.17,1.19,0-15.38-8.2,1-.18-65.4-77.33,9V32.52L398,42.62v4.24l-77.33,9,.11,65.41-4.92.57.12,73.42-3.35,2.18a352.77,352.77,0,0,1-13.33-36.35,391.26,391.26,0,0,1-14.73-66.88l-2.44-20L228.89,91.63l0-29.84L138.34,72.36l0,30.58L84.81,98,82.92,114c-2.53,21.62-7.47,45.4-14.69,70.7a418,418,0,0,1-26.81,70.34L31.2,275.74l22.88,3.05a90.53,90.53,0,0,1,22.19,5.92c7.9,3.23,17.22,7.64,27.71,13.12l15.92,8.3,3-7.19a90.88,90.88,0,0,1,.55,9.85l0,18.58L142,325.22c23-2.69,39.54-5.36,50.63-8.19,13.86-3.54,22.4-7.63,27.68-13.25,4-4.29,8.83-12,8.81-24.2l0-35.51a311.4,311.4,0,0,0,12.17,29.34L250,291.72l16.18-12.24c10.55-8,20-14.65,28-19.83a117.78,117.78,0,0,1,23-11.52l1.63-.6c.83,5.05,1.7,10.65,2.59,16.75.35,2.67.7,5,1,7,.25,1.48.45,2.82.57,4l3.11,29.1,23.81-18,0,12.24,86.37-10.08v-2.27l37.54-4.38v2.27l86.36-10.08L560,218.7l11.15,8.22a102.46,102.46,0,0,1,16.31,14.66c4.82,5.52,10.71,12.89,17.49,21.89l7.67,10.19,11.81-4.82c21.51-8.76,40.24-19.41,55.68-31.65a133,133,0,0,0,16.38-15.35c.47,6.83,1.88,12.38,4.26,16.87a27.48,27.48,0,0,0,18.6,14.2,44.78,44.78,0,0,0,9.78,1,84.72,84.72,0,0,0,9.9-.64l51.38-6c10.13-1.18,18-4.09,23.95-8.91C821,233,825.28,225,827.55,213.83,829.25,205.46,830,193.52,830,177.33ZM208.2,292.44q-4.33,4.63-19.7,8.55T140,308.77a110.46,110.46,0,0,0-4.12-29.59,87,87,0,0,0-12.57-26.9q-5.14,15.36-11.71,30.87-16.42-8.58-29.1-13.77a106.52,106.52,0,0,0-26.28-7,432,432,0,0,0,27.89-73.13q11.25-39.42,15.22-73.31l51.34,4.77q-5.61,40-11.8,71.21a515,515,0,0,1-15.09,58.61l8.21-.68q10.32-1.2,15.24-3.2t6.34-4.7a16,16,0,0,0,1.4-7.26l-.11-147.6,57.42-6.7.21,199.2Q212.53,287.83,208.2,292.44Zm77-46.72q-12.66,8.15-29.06,20.56-14.12-29.56-23-66.37T216.81,113l51.32-16.75A405.91,405.91,0,0,0,283.46,166a340.28,340.28,0,0,0,28,66.61A133.41,133.41,0,0,0,285.22,245.72ZM388.33,64.66l0,12.17,26.25-3.06,0-16.42L468,51.11l0,16.42,26.25-3.07,0-12.16,51.08-6,.17,57.75-208.17,24.3-.1-57.76Zm155,98.33.12,42.84v.63l.15,52.93-53.25,6.21v-2.26l-70.62,8.24v2.27l-53.26,6.22-.06-34.89q-14.52,19-26.93,28.39c-.16-1.49-.4-3.17-.72-5s-.63-4-.95-6.42q-1.67-11.46-3.19-20.4c-.15-.84-.29-1.67-.43-2.48q-1.06-6.09-2.06-10.91-2.61-12.6-6.61-19.51a86.68,86.68,0,0,0,13.12-10.17,58.83,58.83,0,0,0,9.83-13.2,70.65,70.65,0,0,0,3.27-6.62l-19.22,2.25-.08-44.49,221.3-25.83v1.52l0,5.87.11,37.09L407.54,172.33a60.49,60.49,0,0,1-2.56,6.81ZM560,201.75l-.09-30.54L570.46,170l-.12-41.38,8.38,5.27q6.09,3.84,11.19,7.59l-12.53,1.46.17,54.49Zm251.33,8.79q-2.19,10.76-7.33,14.9t-15.47,5.35l-51.38,6q-9.15,1.07-14.2,0a10.84,10.84,0,0,1-7.53-5.79q-2.48-4.68-2.52-14.32l-.13-34.3L702,183.6a108.49,108.49,0,0,1-32.12,40.62q-21.42,17-51.65,29.29Q607.62,239.43,600,230.68A118.61,118.61,0,0,0,581,213.6q41.25-10.2,59.28-22.8l-46.2,5.39L594,157.65,625.17,154a92.15,92.15,0,0,0-15.78-18.14,169.26,169.26,0,0,0-21.86-16q31.86-9.09,46.38-17.6l-42.9,5-.19-62.85,82.48-9.63,0-7.07,51.79-6,0,7.07,82.25-9.6.25,57.18-51.81,6,0-14.44L654,79.81,703.51,89l0-9.06,49.46-5.77.07,19a2.55,2.55,0,0,0,1,2.3c.62.4,2.11.46,4.46.18a4.84,4.84,0,0,0,3.27-1.37,5.65,5.65,0,0,0,.93-3.65,22.58,22.58,0,0,0-.49-5q12.42,0,44.08-1.75l4.93-.29q.06,15.28-.74,20.62a38.13,38.13,0,0,1-4,11.67,21,21,0,0,1-11.45,10.69,76.58,76.58,0,0,1-18.28,4.12l-47.36,5.53q-14.78,1.73-20.42-2.43l0,10.48,52-6.08-.06,42.25v4a3.52,3.52,0,0,0,.6,2.34q.59.65,2.46.42a9,9,0,0,0,3.64-1c.7-.46,1.16-1.46,1.39-3a63.12,63.12,0,0,0,.32-8.26l-.36-32.28q13.86,7.74,43.91,10.75.54,18.09.57,24Q813.52,199.8,811.33,210.54Z"/><polygon class="cls-1" points="490.2 208.32 490.23 220.23 419.63 228.47 419.6 216.57 490.2 208.32"/><path class="cls-1" d="M642.8,95.84l0-14.72L654,79.81A40.36,40.36,0,0,1,642.8,95.84Z"/><path class="cls-1" d="M656.08,139.63l0,10.77L631,153.32q19.9-10.53,31.37-17.83a115.57,115.57,0,0,0,21.75-18.13q10.27-10.81,19.37-27.47l.11,29.73q0,10.2,5,13.88Z"/></g></g></g></svg>