<svg xmlns="http://www.w3.org/2000/svg" xmlns:xlink="http://www.w3.org/1999/xlink" viewBox="0 0 824.98 383.15"><defs><style>.cls-1{fill:#f2f2f2;}.cls-11,.cls-2,.cls-3,.cls-4,.cls-5,.cls-6,.cls-7{stroke:#f74a96;stroke-miterlimit:10;}.cls-2{fill:url(#未命名漸層_4);}.cls-3{fill:url(#未命名漸層_4-2);}.cls-4{fill:url(#未命名漸層_4-3);}.cls-5{fill:url(#未命名漸層_4-4);}.cls-6{fill:url(#未命名漸層_4-5);}.cls-7{fill:url(#未命名漸層_4-6);}.cls-8{fill:url(#未命名漸層_4-7);}.cls-9{fill:url(#未命名漸層_4-8);}.cls-10{fill:url(#未命名漸層_4-9);}.cls-11{fill:#fff;}</style><linearGradient id="未命名漸層_4" x1="67.92" y1="373.06" x2="67.92" y2="185.23" gradientUnits="userSpaceOnUse"><stop offset="0" stop-color="#fed4c2"/><stop offset="1" stop-color="#f74794"/></linearGradient><linearGradient id="未命名漸層_4-2" x1="210.68" y1="359.09" x2="210.68" y2="165.68" xlink:href="#未命名漸層_4"/><linearGradient id="未命名漸層_4-3" x1="346.78" y1="335.11" x2="346.78" y2="150.21" xlink:href="#未命名漸層_4"/><linearGradient id="未命名漸層_4-4" x1="487.06" y1="311.63" x2="487.06" y2="148.95" xlink:href="#未命名漸層_4"/><linearGradient id="未命名漸層_4-5" x1="622.34" y1="309.39" x2="622.34" y2="124.35" xlink:href="#未命名漸層_4"/><linearGradient id="未命名漸層_4-6" x1="758.87" y1="292.24" x2="758.87" y2="68.9" xlink:href="#未命名漸層_4"/><linearGradient id="未命名漸層_4-7" x1="84.82" y1="151.75" x2="84.82" y2="28.43" xlink:href="#未命名漸層_4"/><linearGradient id="未命名漸層_4-8" x1="202.57" y1="141.09" x2="202.57" y2="12.62" xlink:href="#未命名漸層_4"/><linearGradient id="未命名漸層_4-9" x1="318.42" y1="126.8" x2="318.42" y2="0" xlink:href="#未命名漸層_4"/></defs><g id="圖層_2" data-name="圖層 2"><g id="素材"><path class="cls-1" d="M26.1,374.29a218,218,0,0,0-16-54.26l-4-8.95,10.68-1.94A158.72,158.72,0,0,0,3.48,287.46L0,282.91l3.36-4.63c15-20.64,23.37-50.87,24.9-89.85l.26-6.57,45.93-5.36-.82,9.39c-.14,1.66-.33,3.64-.57,6l45-5.26,16.07,56.63-.39,1.85c-5,24-10.88,44.64-17.4,61.25-6.72,17.12-15.73,31.83-26.79,43.71-5.11,5.44-12.21,10.78-21.74,16.36a163.22,163.22,0,0,1-31.77,14l-8.53,2.78ZM62.37,262.5a333.2,333.2,0,0,1-9.66,35.58l.69-.4A44.32,44.32,0,0,0,65,288a61.79,61.79,0,0,0,10-15.48,117.54,117.54,0,0,0,4.72-12.06Z"/><path class="cls-1" d="M166.13,360.41c-1.52-8.64-3.54-18-6-27.81a234.46,234.46,0,0,0-8-26l-3.35-8.77,9.25-1.55c23.3-3.92,40.52-11.72,51.41-23.27-19.93,2.59-36.42,5.27-49.16,8L151,283l-.12-67.66,4.26-.5-.08-45.58L259.37,157l.15,52.74-2.11.24,13.36,37-.51,2.2c-4.9,21.4-11.23,39.55-18.81,53.94a120.41,120.41,0,0,1-29.83,37.16c-11.87,9.79-27,18.5-45,25.87l-8.83,3.62Z"/><path class="cls-1" d="M330.19,272.61a270.07,270.07,0,0,1-31.28,10L289.8,285l-.51-9.41c-.64-12.14-1.39-22.75-2.21-31.54a236.73,236.73,0,0,0-4.17-26.9l-1.76-8.36,8.49-.88a164.79,164.79,0,0,0,30.67-5.83c8.17-2.49,14.91-6.05,20-10.57,11.21-10.1,20.11-24.81,26.4-43.7l3.39-10.16,42.11,31.82-1.83,5.29a301.12,301.12,0,0,1-15.75,38.05,150.67,150.67,0,0,1-17.28,26.45l.41,99-47.3,5.52Z"/><path class="cls-1" d="M533.58,319.18a249.51,249.51,0,0,0-47.09-4.8h-.24a444.49,444.49,0,0,0-50.8,3.28l-8.54,1-.33-66.8,6.22-.78-.53-106.4,6.83-.79a369.89,369.89,0,0,1,42.61-2.63,245.77,245.77,0,0,1,52.4,5.25l6,1.31.65,106.32,7.74,1.49-1.09,7.28c-1,6.73-1.83,13.8-2.46,21-.65,7.43-1.41,16.94-2.24,28.27l-.64,8.62Z"/><path class="cls-1" d="M573.1,310.46c-1.74-12.45-3.48-23-5.15-31.47a164.07,164.07,0,0,0-7.16-25l-3.42-9.18,9.73-1.14c13.35-1.56,24.42-4.63,32.9-9.14A60.91,60.91,0,0,0,621.4,215c5.32-7.69,9.55-18.66,12.57-32.62l-17,37.32-7.48-4.83a218.41,218.41,0,0,0-22.29-13c-5.48-2.62-13.33-5.42-23.32-8.34l-8.65-2.52,3.85-8.14c3.44-7.3,7-15.95,10.63-25.71s6.25-17.86,7.9-24.1l2.32-8.81,8.29,3.77c9.9,4.49,18.85,9,26.62,13.42a240.76,240.76,0,0,1,23.21,15.09c1.13-9.85,2-20.74,2.57-32.59l.62-12.84,11,6.62a105.66,105.66,0,0,0,12.77,6.58c4.32,1.85,9.77,4,16.2,6.34l5.34,2-.31,5.68c-1.64,30-5,55.06-10.11,74.43-5.14,19.65-12.41,37-21.59,51.66-8.39,13.45-18.44,24.41-29.85,32.56S599.43,311.66,583,316.74l-8.62,2.66Z"/><path class="cls-1" d="M717.93,293.53a219.12,219.12,0,0,0-16.49-54.2l-4.11-9L708,228.4a159,159,0,0,0-13.42-21.62l-3.51-4.53,3.35-4.66c14.82-20.6,23-50.78,24.17-89.7l.21-6.63,45.89-5.36-.73,9.32c-.13,1.67-.31,3.66-.54,6l19.75-2.31c-1.4-7.42-3.34-15.38-5.78-23.74l-1.59-5.47,12.25-8v0L810.5,57l3.1,9.58A210.35,210.35,0,0,1,821,97.7l.77,4.85-11.92,8L825,162.48l-.38,1.85c-4.83,24-10.53,44.59-16.92,61.19-6.59,17.12-15.5,31.82-26.47,43.69-5.08,5.44-12.15,10.78-21.63,16.36a161,161,0,0,1-31.69,14l-8.46,2.77Zm35.36-111.72a326.59,326.59,0,0,1-9.4,35.57l.78-.43a44,44,0,0,0,11.54-9.65l.13-.15a60.67,60.67,0,0,0,9.71-15.29,113.47,113.47,0,0,0,4.64-12.09Z"/><path class="cls-2" d="M112.49,195l13.76,48.5q-7.44,35.58-17,60T84,344.79q-6.8,7.23-20,15a154.25,154.25,0,0,1-30.27,13.31,224.49,224.49,0,0,0-16.61-56.17q7.37-1.33,11.06-2.24Q17.76,293.49,9.59,282.79q24-33,26.35-94.05l30-3.51q-.47,5.28-1.61,15.38ZM82,275.76a149.91,149.91,0,0,0,8.45-24.28L56,255.5Q48.65,291.08,39,312a85.81,85.81,0,0,0,18.27-7.6A52.18,52.18,0,0,0,70.89,293,69,69,0,0,0,82,275.76Z"/><path class="cls-3" d="M249.77,211.49l13,36q-7.17,31.28-18.12,52.07a112.29,112.29,0,0,1-27.93,34.81q-17,14-43,24.69-2.34-13.32-6.11-28.36a240.9,240.9,0,0,0-8.29-26.88q50.92-8.57,65.95-40.54-41.92,4.9-66.58,10.16l-.09-51.33Zm-87-35.43,89-10.38.11,37.26-89,10.39Z"/><path class="cls-4" d="M403.13,172.21a293.42,293.42,0,0,1-15.32,37,142,142,0,0,1-18.15,27.2l.4,94.92-31.94,3.73-.28-74.24q-16,7.81-40.87,14.29-1-18.45-2.24-31.85a244.66,244.66,0,0,0-4.29-27.78,171.52,171.52,0,0,0,32.11-6.13q13.92-4.23,22.87-12.17,18.48-16.65,28.6-47Z"/><path class="cls-5" d="M434.3,258.64a358.62,358.62,0,0,1,52-2.87,318.51,318.51,0,0,1,53.47,6q-1.56,10.41-2.52,21.48T535,311.63a256.71,256.71,0,0,0-48.54-4.93A447.72,447.72,0,0,0,434.56,310ZM440,151.52q52.92-6.18,92.47,2.5l.3,47.94a235,235,0,0,0-45.25-4,448.81,448.81,0,0,0-47.27,3.14Zm.29,57.2A339.76,339.76,0,0,1,532.81,210l.26,42.77a204.55,204.55,0,0,0-44.76-4.88A429,429,0,0,0,440.49,251Z"/><path class="cls-6" d="M613.69,208.43A223.92,223.92,0,0,0,590.55,195a169.34,169.34,0,0,0-24.48-8.78q5.34-11.31,10.89-26.33t8.12-24.8q14.55,6.6,26,13.1a234.61,234.61,0,0,1,23.14,15.1Zm-38.2,69.06a170.09,170.09,0,0,0-7.5-26.14q21.54-2.52,35.62-10a68.28,68.28,0,0,0,24.11-22q9.12-13.2,14-36.58t6.59-58.47a113.82,113.82,0,0,0,13.7,7.06q6.76,2.9,16.58,6.49-2.42,44.44-9.86,72.9t-20.67,49.52q-11.85,19-27.81,30.39t-39.56,18.68Q578.06,290.4,575.49,277.49Z"/><path class="cls-7" d="M802.9,114.37l14.17,48.45q-7.17,35.53-16.56,59.94T775.57,264q-6.75,7.22-19.89,14.94a153,153,0,0,1-30.17,13.3,225.36,225.36,0,0,0-17.08-56.1q7.37-1.33,11.05-2.25-10.54-21.12-18.82-31.81,23.7-33,25.61-94l30-3.51c-.27,3.52-.77,8.63-1.47,15.36Zm-29.85,80.68a149,149,0,0,0,8.25-24.25l-34.42,4q-7.07,35.52-16.58,56.38a84.81,84.81,0,0,0,18.21-7.6,51.43,51.43,0,0,0,13.57-11.33A68.29,68.29,0,0,0,773.05,195.05Zm18.67-81.75a242.42,242.42,0,0,0-7-30.26L794,77a202.37,202.37,0,0,1,7.18,30ZM804,105.22A244.64,244.64,0,0,0,797,75l9.27-6.07a202.07,202.07,0,0,1,7.08,30Z"/><path class="cls-8" d="M57.05,143.12a41.64,41.64,0,0,0-.26-4.58l-1.41,3.34L48,138c-4.87-2.54-9.2-4.59-12.87-6.09a41.39,41.39,0,0,0-10.3-2.75L14.2,127.77l4.74-9.6A193.82,193.82,0,0,0,31.39,85.5a209.29,209.29,0,0,0,6.82-32.82l.88-7.45L64,47.54V33.34l42-4.91,0,13.86,24.72-8.07,1.13,9.28a180.61,180.61,0,0,0,6.84,31.05A150.86,150.86,0,0,0,151,104l4.41,7.87L147,115a54.7,54.7,0,0,0-10.68,5.35c-3.73,2.4-8.11,5.5-13,9.21l-7.52,5.68-4.06-8.5a147.19,147.19,0,0,1-5.65-13.62l0,16.48A15.86,15.86,0,0,1,102,140.79c-2.45,2.61-6.42,4.51-12.86,6.15-5.14,1.32-12.83,2.56-23.5,3.81l-8.57,1Z"/><path class="cls-9" d="M149.69,127.58q-.09-.83-.27-1.86c-.16-.93-.32-2-.48-3.27-.91-6.27-1.78-11.4-2.55-15.13a23.58,23.58,0,0,0-2.19-6.77l-3.65-6.31,5.88-3.82-.06-34.09,2.28-.27-.05-30.37,35.91-4.19v-2l40.18-4.69v2l35.91-4.19L260.68,43l3.8-.45.11,36.12-4.9.58.14,47.78-40.1,4.68v-1l-17.42,2v1.06l-40.1,4.68v-5.69l-11.06,8.36Z"/><path class="cls-10" d="M280.62,122.08c-3.15-4.19-5.88-7.61-8.12-10.17a47.14,47.14,0,0,0-7.57-6.8l-13.17-9.72,16.12-4-.08-25.3,5.82-.68q-2.37-1.74-5.2-3.52l-14.57-9.17,12.59-3.6-.11-35.6,38.3-4.47V5.77L344,1.17V4.46L382.23,0l.13,30.48,1.63-.1,0,8.12a72.49,72.49,0,0,1-.43,10.75,25.21,25.21,0,0,1-2.65,7.8,18,18,0,0,1-4.88,6.05l1.83.2,6.71.67.21,6.75c.17,5.86.26,9.47.26,11.36,0,7.52-.33,13.06-1.12,17-1,5.18-3,8.9-6.11,11.37-2.77,2.24-6.41,3.59-11.12,4.14l-23.85,2.78a39.41,39.41,0,0,1-4.6.3,20.9,20.9,0,0,1-4.54-.45,12.72,12.72,0,0,1-8.63-6.59,19.34,19.34,0,0,1-2-7.84,60.71,60.71,0,0,1-7.6,7.13,105.72,105.72,0,0,1-25.85,14.7l-5.49,2.23Z"/><path class="cls-11" d="M71.64,40.18,98.3,37.07l.09,92.49a8.35,8.35,0,0,1-2,6q-2,2.15-9.15,4t-22.49,3.62a51.76,51.76,0,0,0-1.92-13.74A40.42,40.42,0,0,0,57,116.88q-2.4,7.13-5.44,14.33-7.63-4-13.51-6.39a49.54,49.54,0,0,0-12.2-3.25,201,201,0,0,0,13-34,217,217,0,0,0,7.06-34l23.84,2.22q-2.61,18.59-5.48,33.06a237.62,237.62,0,0,1-7,27.21l3.82-.31a29,29,0,0,0,7.07-1.48A5.41,5.41,0,0,0,71,112.08a7.29,7.29,0,0,0,.66-3.37Zm52.57,4.25a188.77,188.77,0,0,0,7.12,32.38,158.21,158.21,0,0,0,13,30.93,62,62,0,0,0-12.19,6.09q-5.88,3.8-13.5,9.55A156,156,0,0,1,108,92.56q-4.09-17.09-7.61-40.36Z"/><path class="cls-11" d="M256.88,71.82l-67.94,7.94a29.24,29.24,0,0,1-1.19,3.16L252,75.42l.13,44.76-24.73,2.89V122l-32.79,3.83v1l-24.73,2.89,0-16.2q-6.74,8.82-12.51,13.19-.11-1-.33-2.34c-.15-.86-.29-1.85-.44-3q-1.42-9.84-2.64-15.69a31.26,31.26,0,0,0-3.06-9.05A41.17,41.17,0,0,0,157,92a27.43,27.43,0,0,0,4.56-6.13c.43-.75.94-1.77,1.52-3.07l-8.93,1,0-20.65,102.75-12ZM229.21,24l23.72-2.77L253,48.07,156.35,59.35l0-26.82L180,29.76v5.65L192.22,34V26.37l24.8-2.9,0,7.63,12.19-1.43Zm-1.87,78,0-5.53-32.78,3.83v5.53Z"/><path class="cls-11" d="M377.4,82.11a83.32,83.32,0,0,1-1,15.39c-.68,3.33-1.81,5.63-3.4,6.92s-4,2.11-7.19,2.48L342,109.69a21.23,21.23,0,0,1-6.6,0A5,5,0,0,1,331.9,107a14.81,14.81,0,0,1-1.17-6.65l-.06-15.93-5,.59a50.47,50.47,0,0,1-14.91,18.86,97.82,97.82,0,0,1-24,13.6q-4.92-6.54-8.48-10.6a54.77,54.77,0,0,0-8.79-7.93Q288.65,94.18,297,88.33l-21.45,2.51-.06-17.9L290,71.25a43.31,43.31,0,0,0-7.32-8.42,79.49,79.49,0,0,0-10.15-7.44q14.79-4.22,21.53-8.17l-19.92,2.33L274,20.37l38.3-4.47V12.61L336.38,9.8v3.29l38.19-4.46.11,26.55L350.64,38l0-6.71-52.46,6.13,0,6.83a18.76,18.76,0,0,0,5.2-7.44l23,4.28,0-4.2,23-2.68,0,8.8a1.17,1.17,0,0,0,.44,1.07,3.79,3.79,0,0,0,2.07.09,2.29,2.29,0,0,0,1.52-.64,2.62,2.62,0,0,0,.43-1.69,9.79,9.79,0,0,0-.23-2.34q5.78,0,20.47-.82l2.29-.13a76.23,76.23,0,0,1-.34,9.58,18,18,0,0,1-1.88,5.41,9.8,9.8,0,0,1-5.32,5,35.88,35.88,0,0,1-8.49,1.91l-22,2.57q-6.85.8-9.48-1.13l0,4.86L353,63.89l0,19.62v1.84a1.65,1.65,0,0,0,.27,1.09c.18.2.57.26,1.15.19a3.92,3.92,0,0,0,1.68-.46,1.88,1.88,0,0,0,.65-1.39,28.43,28.43,0,0,0,.15-3.83l-.17-15q6.43,3.58,20.39,5Q377.39,79.35,377.4,82.11Zm-51-40.63a60.59,60.59,0,0,1-9,12.75,53.76,53.76,0,0,1-10.1,8.42Q302,66,292.71,70.93l11.65-1.36v-5l24.38-2.84q-2.3-1.71-2.31-6.45Z"/></g></g></svg>