<?xml version="1.0" encoding="UTF-8"?>
<svg id="_圖層_2" data-name="圖層 2" xmlns="http://www.w3.org/2000/svg" viewBox="0 0 547.73 294.94">
  <defs>
    <style>
      .cls-1 {
        fill: #045e9e;
      }

      .cls-2 {
        fill: #faf9db;
      }

      .cls-3 {
        fill: #e6e6e6;
        stroke: #ea7494;
        stroke-miterlimit: 10;
        stroke-width: 11px;
      }

      .cls-4 {
        fill: #ea7494;
      }
    </style>
  </defs>
  <g id="sec2">
    <g>
      <rect class="cls-3" x="5.5" y="5.5" width="536.73" height="283.94" rx="40" ry="40"/>
      <rect class="cls-4" x="11.05" y="72.1" width="525.63" height="56.77"/>
      <g>
        <path class="cls-2" d="M189.28,83.81h3.03v5.04h2.5v7.62h2.54v10.12h2.09v-10.12h2.54v-7.62h2.54v-5.04h2.95v33.39h-2.95v-20.32h-2.09v10.16h-2.54v7.58h-2.99v-7.58h-2.5v-10.16h-2.09v20.32h-3.03v-33.39Z"/>
        <path class="cls-2" d="M221.44,86.31h2.99v5.53h-2.99v-5.53Zm0,7.62h2.99v23.27h-2.99v-23.27Z"/>
        <path class="cls-2" d="M238.44,109.13h3.03v5.04h12.21v-7.13h-12.66v-2.54h-2.58v-8.03h2.58v-2.54h13.07v2.54h2.54v5.49h-2.95v-5.08h-12.21v7.17h12.62v2.54h2.54v8.03h-2.54v2.58h-13.07v-2.58h-2.58v-5.49Z"/>
        <path class="cls-2" d="M263.02,109.13h3.03v5.04h12.21v-7.13h-12.66v-2.54h-2.58v-8.03h2.58v-2.54h13.07v2.54h2.54v5.49h-2.95v-5.08h-12.21v7.17h12.62v2.54h2.54v8.03h-2.54v2.58h-13.07v-2.58h-2.58v-5.49Z"/>
        <path class="cls-2" d="M295.17,86.31h2.99v5.53h-2.99v-5.53Zm0,7.62h2.99v23.27h-2.99v-23.27Z"/>
        <path class="cls-2" d="M314.75,112.08h-2.58v-13.11h2.58v-2.5h2.54v-2.54h8.03v2.54h2.5v2.5h2.54v13.11h-2.54v2.54h-2.5v2.58h-8.03v-2.58h-2.54v-2.54Zm2.95-.41v2.5h7.17v-2.5h2.54v-12.25h-2.54v-2.54h-7.17v2.54h-2.5v12.25h2.5Z"/>
        <path class="cls-2" d="M336.75,93.93h3.03v2.54h2.09v-2.54h8.03v2.54h2.5v2.5h2.54v18.23h-2.95v-17.78h-2.54v-2.54h-7.17v2.54h-2.5v17.78h-3.03v-23.27Z"/>
      </g>
      <g>
        <path class="cls-1" d="M53.14,196.71h2.54v-2.54h2.5v-2.54h2.54v-2.54h2.54v-2.54h2.54v-5.04h2.5v-2.09h-10.12v-2.99h7.62v-2.09h-2.54v-2.54h-2.54v-2.95h2.99v2.54h2.5v2.5h2.54v2.54h2.09v-2.54h2.54v-5.04h2.95v5.49h-2.5v2.09h7.58v5.53h-2.54v2.09h7.58v5.49h-2.5v2.09h5.04v13.15h-2.54v2.54h-5.49v-7.66h-2.54v-2.95h2.99v2.54h2.54v5.04h2.05v-9.67h-27.36v2.5h-2.54v2.54h-2.95v-2.95Zm5.04,5.04h2.54v-5.04h2.99v5.49h-2.54v5.12h-2.99v-5.57Zm22.78-10.12v-2.54h2.54v-2.09h-17.29v2.54h-2.5v2.09h17.25Zm-15.16,10.12h2.5v-5.04h2.99v5.49h-2.54v5.12h-2.95v-5.57Zm10.12-17.7v-2.54h2.5v-2.09h-7.13v2.54h-2.54v2.09h7.17Zm-2.54,12.66h2.95v10.61h-2.95v-10.61Z"/>
        <path class="cls-1" d="M102.06,204.29v-2.54h2.5v-12.21h-7.62v-2.99h10.61v12.7h2.54v2.5h9.67v-4.63h-10.12v-2.95h10.12v-2.09h-7.58v-13.11h7.58v-2.09h-5.08v-2.99h5.08v-2.09h-7.17v5.08h-2.95v-8.03h25.73v8.03h-2.99v-5.08h-9.67v2.09h7.62v2.99h-7.62v2.09h10.12v13.11h-10.12v2.09h12.66v2.95h-12.66v4.63h12.66v3.03h-25.73v-2.58h-4.63v2.58h-2.54v2.54h-5.53v-3.03h5.12Zm2.5-27.41h-2.5v-2.54h-2.54v-2.95h2.95v2.5h2.54v2.54h2.54v2.99h-2.99v-2.54Zm15.2,7.17v-2.09h-4.63v2.09h4.63Zm0,5.04v-2.09h-4.63v2.09h4.63Zm10.12-5.04v-2.09h-7.17v2.09h7.17Zm0,5.04v-2.09h-7.17v2.09h7.17Z"/>
        <path class="cls-1" d="M152.16,204.29v-4.63h-7.58v-2.95h7.58v-2.09h-7.58v-13.11h7.58v-2.09h-10.16v-2.99h10.16v-2.09h-7.58v-2.95h12.66v-2.54h5.49v2.95h-5.08v2.54h-2.5v2.09h7.58v2.54h4.63v-10.12h2.95v10.12h10.12v25.81h-2.54v2.54h-8.03v-3.03h7.58v-22.33h-7.13v15.16h-2.54v7.66h-2.5v2.54h-2.99v-2.54h-7.13v2.54h-13.15v-3.03h10.16Zm0-17.74v-2.09h-4.63v2.09h4.63Zm0,5.08v-2.09h-4.63v2.09h4.63Zm10.12-10.12v-2.09h-7.13v2.09h7.13Zm.45,20.24v2.54h2.09v-7.58h2.54v-14.75h-4.63v12.66h-7.58v2.09h7.58v2.95h-7.58v2.09h7.58Zm-2.99-15.2v-2.09h-4.59v2.09h4.59Zm0,5.08v-2.09h-4.59v2.09h4.59Z"/>
        <path class="cls-1" d="M197.18,204.29v-2.09h-5.04v-18.15h28.26v18.15h-5.08v2.09h7.58v3.03h-8.03v-2.54h-2.5v-2.58h-12.21v2.58h-2.54v2.54h-8.03v-3.03h7.58Zm-2.54-32.89h23.23v10.57h-23.23v-10.57Zm22.78,17.7v-2.09h-22.33v2.09h22.33Zm0,5.08v-2.09h-22.33v2.09h22.33Zm0,5.08v-2.13h-22.33v2.13h22.33Zm-2.54-20.28v-4.63h-17.25v4.63h17.25Z"/>
        <path class="cls-1" d="M237.24,181.52h5.04v-2.54h2.54v-2.09h-9.67v5.08h-3.03v-8.07h17.74v-5.04h2.99v5.04h17.7v8.07h-2.99v-5.08h-12.17v4.63h7.13v-2.54h2.99v2.99h-2.54v2.5h-8.03v-2.5h-2.54v-5.08h-4.63v2.54h-2.5v2.54h-2.54v2.5h-5.49v-2.95Zm-5.12,20.24h7.62v-2.5h7.62v-2.13h-12.66v-2.95h2.54v-2.54h2.5v-2.09h-5.04v-2.99h33.3v2.99h-10.12v4.63h12.66v2.95h-12.66v7.66h-2.5v2.54h-8.03v-3.03h7.58v-7.17h-2.09v2.54h-5.08v2.54h-7.58v2.58h-8.07v-3.03Zm22.82-7.58v-4.63h-12.21v2.54h-2.54v2.09h14.75Z"/>
        <path class="cls-1" d="M277.18,201.75h15.24v-32.89h2.95v15.2h15.2v2.95h-15.2v14.75h20.24v3.03h-38.43v-3.03Z"/>
        <path class="cls-1" d="M322.24,201.75h7.62v-20.24h2.99v20.24h7.13v-24.87h-15.16v-2.99h33.3v2.99h-15.16v9.67h12.66v2.99h-12.66v12.21h17.7v3.03h-38.43v-3.03Z"/>
        <path class="cls-1" d="M369.89,192.08h-2.58v-5.53h2.58v-7.58h2.54v-4.63h-5.12v-2.95h13.15v2.95h-5.08v5.08h-2.54v4.63h7.62v5.04h2.09v-2.54h2.5v-4.59h-2.5v-8.07h10.12v-5.04h2.95v5.04h10.12v5.53h-2.99v-2.54h-9.67v2.54h-2.5v2.54h-2.54v2.09h4.63v-2.54h2.5v-2.54h2.99v2.99h-2.54v2.09h10.12v2.95h-10.12v2.09h7.58v2.99h-7.58v2.09h7.58v2.95h-7.58v4.63h10.12v3.03h-17.7v2.54h-2.99v-17.78h-2.09v2.54h-2.5v10.12h-7.62v5.12h-2.95v-15.24Zm7.58,7.17v-12.25h-4.63v12.25h4.63Zm10.12-17.74v-2.54h2.54v-2.09h-4.63v4.63h2.09Zm5.08,7.58v-2.09h-4.63v2.09h4.63Zm0,5.08v-2.09h-4.63v2.09h4.63Zm0,7.58v-4.63h-4.63v4.63h4.63Z"/>
        <path class="cls-1" d="M412.37,196.71h10.16v-2.54h7.58v-2.09h-15.16v-5.53h2.54v-2.09h-5.12v-2.95h12.7v-2.09h-10.12v-8.03h2.95v5.04h7.17v-7.58h2.95v20.24h4.63v-5.04h5.08v-4.63h-7.62v-2.99h7.62v-7.58h2.95v7.58h10.12v2.99h-10.12v4.63h7.58v2.95h-12.62v2.09h15.16v2.99h-15.16v2.09h2.5v5.08h2.09v-2.54h2.54v-2.54h2.99v2.95h-2.54v2.54h-2.54v2.09h5.08v2.54h5.04v3.03h-5.49v-2.54h-5.08v-2.58h-2.5v-2.54h-2.54v-5.04h-4.63v2.5h-2.54v4.63h7.62v3.03h-10.12v2.54h-8.03v-3.03h7.58v-7.17h-2.09v2.54h-10.61v-2.95Zm12.7-7.62v-4.63h-4.63v2.54h-2.54v2.09h7.17Z"/>
        <path class="cls-1" d="M462.55,189.54h-2.09v2.54h-3.03v-2.99h2.58v-5.04h2.54v-7.62h2.5v-7.58h2.99v8.03h-2.54v30.44h-2.95v-17.78Zm7.58,14.75v-7.58h2.54v-12.25h-2.54v-2.95h7.58v-4.63h-5.04v-2.99h5.04v-5.04h2.99v5.04h7.13v-5.04h2.99v5.04h5.04v2.99h-5.04v4.63h5.04v2.95h-20.24v12.66h-2.54v7.66h-2.5v2.54h-2.99v-3.03h2.54Zm7.58-17.74h18.15v18.23h-2.54v2.54h-5.49v-2.54h-2.54v-5.12h-4.59v7.66h-2.99v-20.77Zm10.12-5.04v-4.63h-7.13v4.63h7.13Zm-2.54,10.12v-2.09h-4.59v2.09h4.59Zm0,5.08v-2.09h-4.59v2.09h4.59Zm7.58-5.08v-2.09h-4.59v2.09h4.59Zm0,5.08v-2.09h-4.59v2.09h4.59Zm0,7.58v-4.63h-4.59v4.63h4.59Z"/>
      </g>
      <path class="cls-2" d="M149.04,79.45c-11.62,0-21.04,9.42-21.04,21.04s9.42,21.04,21.04,21.04,21.04-9.42,21.04-21.04-9.42-21.04-21.04-21.04Zm4.82,36.49h-8.59v-6.59h8.59v6.59Zm.15-20.12c-.05,.74-.07,1.28-.07,1.63-.49,3.48-.8,6.52-.93,9.11h-6.85c-.12-2.59-.43-5.63-.93-9.11l-.04-1.63c-.15-3.8-.22-6.98-.22-9.52h9.22c0,1.65-.06,4.83-.19,9.52Z"/>
      <path class="cls-2" d="M392.1,79.45c-11.62,0-21.04,9.42-21.04,21.04s9.42,21.04,21.04,21.04,21.04-9.42,21.04-21.04-9.42-21.04-21.04-21.04Zm4.82,36.49h-8.59v-6.59h8.59v6.59Zm.15-20.12c-.05,.74-.07,1.28-.07,1.63-.49,3.48-.8,6.52-.93,9.11h-6.85c-.12-2.59-.43-5.63-.93-9.11l-.04-1.63c-.15-3.8-.22-6.98-.22-9.52h9.22c0,1.65-.06,4.83-.19,9.52Z"/>
    </g>
  </g>
</svg>