<?xml version="1.0" encoding="UTF-8"?>
<svg id="_圖層_2" data-name="圖層 2" xmlns="http://www.w3.org/2000/svg" viewBox="0 0 547.73 294.94">
  <defs>
    <style>
      .cls-1 {
        fill: #045e9e;
      }

      .cls-2 {
        fill: #e6e6e6;
        stroke: #045e9e;
        stroke-miterlimit: 10;
        stroke-width: 11px;
      }

      .cls-3 {
        fill: #faf9db;
      }

      .cls-4 {
        fill: #ea7494;
      }
    </style>
  </defs>
  <g id="sec2">
    <g>
      <rect class="cls-2" x="5.5" y="5.5" width="536.73" height="283.94" rx="40" ry="40"/>
      <rect class="cls-1" x="11.05" y="72.1" width="525.63" height="56.77"/>
      <g>
        <path class="cls-3" d="M78.67,83.81h3.03v5.04h2.5v7.62h2.54v10.12h2.09v-10.12h2.54v-7.62h2.54v-5.04h2.95v33.39h-2.95v-20.32h-2.09v10.16h-2.54v7.58h-2.99v-7.58h-2.5v-10.16h-2.09v20.32h-3.03v-33.39Z"/>
        <path class="cls-3" d="M110.83,86.31h2.99v5.53h-2.99v-5.53Zm0,7.62h2.99v23.27h-2.99v-23.27Z"/>
        <path class="cls-3" d="M127.83,109.13h3.03v5.04h12.21v-7.13h-12.66v-2.54h-2.58v-8.03h2.58v-2.54h13.07v2.54h2.54v5.49h-2.95v-5.08h-12.21v7.17h12.62v2.54h2.54v8.03h-2.54v2.58h-13.07v-2.58h-2.58v-5.49Z"/>
        <path class="cls-3" d="M152.41,109.13h3.03v5.04h12.21v-7.13h-12.66v-2.54h-2.58v-8.03h2.58v-2.54h13.07v2.54h2.54v5.49h-2.95v-5.08h-12.21v7.17h12.62v2.54h2.54v8.03h-2.54v2.58h-13.07v-2.58h-2.58v-5.49Z"/>
        <path class="cls-3" d="M184.57,86.31h2.99v5.53h-2.99v-5.53Zm0,7.62h2.99v23.27h-2.99v-23.27Z"/>
        <path class="cls-3" d="M204.15,112.08h-2.58v-13.11h2.58v-2.5h2.54v-2.54h8.03v2.54h2.5v2.5h2.54v13.11h-2.54v2.54h-2.5v2.58h-8.03v-2.58h-2.54v-2.54Zm2.95-.41v2.5h7.17v-2.5h2.54v-12.25h-2.54v-2.54h-7.17v2.54h-2.5v12.25h2.5Z"/>
        <path class="cls-3" d="M226.15,93.93h3.03v2.54h2.09v-2.54h8.03v2.54h2.5v2.5h2.54v18.23h-2.95v-17.78h-2.54v-2.54h-7.17v2.54h-2.5v17.78h-3.03v-23.27Z"/>
        <path class="cls-3" d="M277.88,112.08h-2.58v-23.23h2.58v-2.54h2.54v-2.5h8.03v2.5h2.5v2.54h2.54v5.53h-2.95v-5.08h-2.54v-2.54h-7.17v2.54h-2.5v22.37h2.5v2.5h7.17v-2.5h2.54v-7.62h2.95v8.03h-2.54v2.54h-2.5v2.58h-8.03v-2.58h-2.54v-2.54Z"/>
        <path class="cls-3" d="M302.46,112.08h-2.58v-13.11h2.58v-2.5h2.54v-2.54h8.03v2.54h2.5v2.5h2.54v13.11h-2.54v2.54h-2.5v2.58h-8.03v-2.58h-2.54v-2.54Zm2.95-.41v2.5h7.17v-2.5h2.54v-12.25h-2.54v-2.54h-7.17v2.54h-2.5v12.25h2.5Z"/>
        <path class="cls-3" d="M324.46,93.93h3.03v2.54h2.09v-2.54h2.95v2.54h4.63v-2.54h2.95v2.54h2.54v20.73h-2.95v-20.32h-2.09v2.54h-2.54v17.78h-2.99v-20.32h-2.09v2.54h-2.5v17.78h-3.03v-23.27Z"/>
        <path class="cls-3" d="M349.04,93.93h3.03v2.54h2.09v-2.54h8.03v2.54h2.5v2.5h2.54v10.57h-2.54v2.54h-2.5v2.54h-8.03v-2.54h-2.09v7.66h-3.03v-25.81Zm12.7,17.74v-2.54h2.54v-9.71h-2.54v-2.54h-7.17v2.54h-2.5v9.71h2.5v2.54h7.17Z"/>
        <path class="cls-3" d="M381.2,86.31h2.99v30.89h-2.99v-30.89Z"/>
        <path class="cls-3" d="M400.78,112.08h-2.58v-13.11h2.58v-2.5h2.54v-2.54h8.03v2.54h2.5v2.5h2.54v8.07h-15.16v4.63h2.5v2.5h7.17v-2.5h2.54v-2.54h2.95v2.95h-2.54v2.54h-2.5v2.58h-8.03v-2.58h-2.54v-2.54Zm12.66-8.03v-4.63h-2.54v-2.54h-7.17v2.54h-2.5v4.63h12.21Z"/>
        <path class="cls-3" d="M429.17,96.88h-5.12v-2.95h5.12v-7.62h2.95v7.62h7.58v2.95h-7.58v17.29h7.58v3.03h-8.03v-2.58h-2.5v-17.74Z"/>
        <path class="cls-3" d="M449.94,112.08h-2.58v-13.11h2.58v-2.5h2.54v-2.54h8.03v2.54h2.5v2.5h2.54v8.07h-15.16v4.63h2.5v2.5h7.17v-2.5h2.54v-2.54h2.95v2.95h-2.54v2.54h-2.5v2.58h-8.03v-2.58h-2.54v-2.54Zm12.66-8.03v-4.63h-2.54v-2.54h-7.17v2.54h-2.5v4.63h12.21Z"/>
      </g>
      <g>
        <path class="cls-4" d="M167.6,187h-2.09v5.08h-3.03v-5.53h2.58v-2.5h2.54v-5.08h2.5v-5.08h2.54v-5.04h2.99v5.04h12.21v-2.5h8.03v2.95h-7.62v12.21h12.66v2.99h-12.66v12.21h10.12v3.03h-23.19v-3.03h10.12v-12.21h-12.66v-2.99h12.66v-9.67h-10.12v-2.54h-2.09v5.08h-2.54v27.9h-2.95v-20.32Z"/>
        <path class="cls-4" d="M215.16,204.29v-14.75h-2.09v5.08h-2.5v2.5h-3.03v-2.95h2.58v-5.08h2.54v-4.63h-5.12v-2.95h7.62v-2.09h-2.5v-2.99h2.95v2.54h2.09v-2.54h2.54v-2.09h-12.7v-2.95h15.65v5.49h-2.5v2.54h-2.54v2.09h4.63v-2.54h2.5v-2.54h2.54v-7.58h2.99v5.04h12.62v2.99h-2.5v2.54h-2.54v2.54h-2.54v2.09h2.54v2.5h7.58v2.99h-8.03v-2.54h-2.54v-2.54h-4.59v2.09h2.5v5.08h7.62v13.15h-2.54v2.54h-5.49v-3.03h5.04v-9.67h-4.63v2.5h-2.5v5.08h-2.54v2.58h-2.54v2.54h-2.95v-3.03h2.5v-2.54h2.54v-5.04h2.54v-2.09h-7.58v-2.99h7.58v-4.63h-2.09v2.54h-8.03v-5.08h-2.09v20.32h-2.54v2.54h-5.49v-3.03h5.04Zm12.66-17.74v-2.5h2.54v-2.09h-2.54v-2.54h-2.09v2.54h-2.54v4.59h4.63Zm7.58-5.04v-2.54h2.54v-2.09h-9.67v2.09h2.54v2.54h4.59Z"/>
        <path class="cls-4" d="M257.73,204.29v-2.54h5.04v-5.04h2.54v-4.63h-10.12v-2.99h33.3v2.99h-10.12v12.21h9.67v-5.04h2.99v5.53h-2.54v2.54h-10.53v-2.54h-2.54v-12.7h-7.17v5.04h-2.5v5.08h-2.54v2.58h-5.08v2.54h-5.53v-3.03h5.12Zm-2.54-30.4h15.16v-5.04h2.99v5.04h15.16v8.07h-2.95v-5.08h-27.41v5.08h-2.95v-8.07Zm5.04,7.62h23.23v2.95h-23.23v-2.95Z"/>
        <path class="cls-4" d="M300.25,204.29v-7.58h2.54v-20.28h15.16v-7.58h2.99v7.58h7.13v-2.09h-2.54v-2.95h2.99v2.5h2.54v2.54h5.04v2.99h-15.16v9.67h2.5v5.08h2.09v-5.08h2.54v-5.04h2.99v5.49h-2.54v5.08h-2.54v4.63h2.54v2.5h2.54v2.54h2.05v-7.58h2.99v8.07h-2.54v2.54h-2.95v-2.54h-2.54v-2.58h-2.54v-2.54h-4.59v2.54h-2.54v2.58h-2.99v-3.03h2.54v-2.5h2.54v-2.54h2.54v-2.09h-2.54v-5.08h-2.54v-10.12h-12.21v7.13h10.12v13.11h-2.54v2.54h-5.49v-2.95h5.08v-9.71h-7.17v7.58h-2.54v7.66h-2.5v2.54h-3.03v-3.03h2.58Z"/>
        <path class="cls-4" d="M350.18,171.44h2.99v25.73h-2.99v-25.73Zm0,27.86h2.99v5.53h-2.99v-5.53Z"/>
        <path class="cls-4" d="M374.76,171.44h2.99v25.73h-2.99v-25.73Zm0,27.86h2.99v5.53h-2.99v-5.53Z"/>
      </g>
    </g>
  </g>
</svg>