<svg xmlns="http://www.w3.org/2000/svg" viewBox="0 0 1001.99 1790.27"><defs><style>.cls-1{fill:#f7d6eb;}.cls-2{fill:none;stroke:#f5aed0;stroke-linecap:round;stroke-linejoin:round;}.cls-3{fill:#f5aed0;}</style></defs><g id="圖層_2" data-name="圖層 2"><g id="素材"><path class="cls-1" d="M43.25,90.27a40,40,0,0,1-4.82-13.94,50.08,50.08,0,0,1,.3-13.25c.17-1.57.35-3.06.45-4.52,0-.19,0-.36,0-.54.14.26.27.52.42.79,3.92,2.19,7.31,5,10.56,10.89l0,0a.27.27,0,0,0,0,.09,25.2,25.2,0,0,0,3.54,14.62c0,.23,0,.44,0,.67-.1,1.41-.26,2.85-.44,4.36a51.94,51.94,0,0,0-.36,12.68A39.25,39.25,0,0,1,43.25,90.27Z"/><path class="cls-1" d="M21.53,17.65h0c-.15-.27-.31-.53-.46-.79a4.67,4.67,0,0,0,.49.27c1.28.69,2.64,1.35,4.05,2A50.18,50.18,0,0,1,37,26a39.73,39.73,0,0,1,9.2,11.52A39.31,39.31,0,0,1,51.06,52a51.71,51.71,0,0,0-10.91-6.47c-1.37-.65-2.67-1.28-3.92-2l-.59-.32c-3.23-5.85-6.58-8.63-10.45-10.81l-.1-.05v0C21.83,26.48,21.28,22.13,21.53,17.65Z"/><path class="cls-1" d="M.26,12.18,10.5,6.55s0,0,0,.07C10.38,8,10.22,9.48,10,11a51.91,51.91,0,0,0-.37,12.68A39,39,0,0,1,.26,12.18Z"/><path class="cls-1" d="M53.76,84.48v0a25.2,25.2,0,0,1-3.54-14.62.27.27,0,0,1,0-.09l.08.14c1.42.8,2.93,1.52,4.51,2.29a51.71,51.71,0,0,1,10.82,6.39,38.92,38.92,0,0,1,9.74,12,39.7,39.7,0,0,1,4.81,13.82s0,.09,0,.13l-.1-.08a50.43,50.43,0,0,0-11.26-6.76c-1.41-.68-2.76-1.32-4-2l-.49-.28a24.81,24.81,0,0,0-10-9.89Z"/><path class="cls-1" d="M64.75,96.14h0c-.15-.28-.3-.54-.46-.8l.49.28c1.29.7,2.64,1.34,4,2a50.43,50.43,0,0,1,11.26,6.76l-11.67,6.42a.62.62,0,0,1,0,.13l-.11-.06h0C65.05,105,64.5,100.62,64.75,96.14Z"/><path class="cls-1" d="M29.23,64.79a39.22,39.22,0,0,1-4.92-14.64A51.81,51.81,0,0,1,24.7,37.6c.2-1.74.4-3.39.49-5l-.1-.17.1.05c3.87,2.18,7.22,5,10.45,10.81l0,0c.18.34.36.68.52,1a24.92,24.92,0,0,0,3,13.72c0,.18,0,.35,0,.54-.1,1.46-.28,2.95-.45,4.52a50.08,50.08,0,0,0-.3,13.25A39.73,39.73,0,0,1,29.23,64.79Z"/><path class="cls-1" d="M10.48,6.62s0,0,0-.07L22.34,0l.06,0a39.39,39.39,0,0,1,9.74,12A39.72,39.72,0,0,1,37,26a50.18,50.18,0,0,0-11.36-6.84c-1.41-.68-2.77-1.34-4.05-2a4.67,4.67,0,0,1-.49-.27A24.81,24.81,0,0,0,11.1,7C10.9,6.84,10.69,6.73,10.48,6.62Z"/><path class="cls-1" d="M10.42,6.59l.08,0s0,0,0,.07Z"/><path class="cls-1" d="M57.79,116.67a39.31,39.31,0,0,1-4.89-14.51,51.94,51.94,0,0,1,.36-12.68c.18-1.51.34-3,.44-4.36,0-.23,0-.44,0-.67v0l.56,1a24.81,24.81,0,0,1,10,9.89c.16.26.31.52.46.8h0c-.25,4.48.3,8.84,3.56,14.75Z"/><path class="cls-1" d="M39.63,58.81c-.15-.27-.28-.53-.42-.79a24.92,24.92,0,0,1-3-13.72c-.16-.32-.34-.66-.52-1l0,0,.59.32c1.25.68,2.55,1.31,3.92,2A51.71,51.71,0,0,1,51.06,52a39.39,39.39,0,0,1,9.65,11.89,39.46,39.46,0,0,1,4.91,14.65A51.71,51.71,0,0,0,54.8,72.17c-1.58-.77-3.09-1.49-4.51-2.29l-.1-.18C46.94,63.79,43.55,61,39.63,58.81Z"/><path class="cls-1" d="M14.57,38.17a39.17,39.17,0,0,1-4.9-14.51A51.91,51.91,0,0,1,10,11c.18-1.5.34-2.94.44-4.36.21.11.42.22.62.34a24.81,24.81,0,0,1,10,9.89c.15.26.31.52.46.79h0c-.25,4.48.3,8.83,3.55,14.73l.11.2c-.09,1.63-.29,3.28-.49,5a51.81,51.81,0,0,0-.39,12.55A39,39,0,0,1,14.57,38.17Z"/><path class="cls-1" d="M22.34,0l0,0s0,0,0,.06Z"/><path class="cls-1" d="M100.85,194.86A39.71,39.71,0,0,1,96,180.92a50.12,50.12,0,0,1,.29-13.25c.18-1.56.36-3.06.46-4.52l0-.54c.14.26.27.53.42.8,3.92,2.19,7.31,5,10.56,10.89l0,0a.17.17,0,0,0,0,.1c-.24,4.43.31,8.76,3.54,14.62,0,.22,0,.44,0,.66-.1,1.42-.26,2.86-.44,4.36a52,52,0,0,0-.37,12.69A39.41,39.41,0,0,1,100.85,194.86Z"/><path class="cls-1" d="M79.13,122.25h0c-.15-.28-.3-.53-.46-.79a4.59,4.59,0,0,0,.49.26c1.29.7,2.64,1.35,4.06,2a50.22,50.22,0,0,1,11.35,6.83,39.93,39.93,0,0,1,9.21,11.53,39.4,39.4,0,0,1,4.89,14.5,51.47,51.47,0,0,0-10.91-6.46c-1.37-.66-2.68-1.29-3.93-2l-.59-.33c-3.22-5.84-6.57-8.63-10.44-10.8l-.1-.05v0C79.43,131.08,78.88,126.73,79.13,122.25Z"/><path class="cls-1" d="M57.85,116.78l10.24-5.64a.22.22,0,0,1,0,.08c-.1,1.42-.27,2.86-.44,4.36a51.39,51.39,0,0,0-.37,12.68A39.28,39.28,0,0,1,57.85,116.78Z"/><path class="cls-1" d="M111.36,189.07v0c-3.23-5.86-3.78-10.19-3.54-14.62a.17.17,0,0,1,0-.1l.08.15c1.42.79,2.92,1.51,4.51,2.28a52.1,52.1,0,0,1,10.81,6.39,39.26,39.26,0,0,1,9.75,12,39.66,39.66,0,0,1,4.8,13.82l0,.13-.11-.09a50.54,50.54,0,0,0-11.25-6.75c-1.42-.69-2.76-1.33-4.05-2l-.49-.27a24.74,24.74,0,0,0-10-9.89C111.73,189.73,111.54,189.4,111.36,189.07Z"/><path class="cls-1" d="M122.35,200.74h0l-.46-.79.49.27c1.29.7,2.63,1.34,4.05,2A50.54,50.54,0,0,1,137.68,209L126,215.42s0,.08,0,.13a1.33,1.33,0,0,0-.12-.06h0C122.65,209.57,122.1,205.22,122.35,200.74Z"/><path class="cls-1" d="M86.82,169.39a39.36,39.36,0,0,1-4.91-14.64,52.44,52.44,0,0,1,.38-12.56c.21-1.74.41-3.38.49-5l-.09-.17.1.05c3.87,2.17,7.22,5,10.44,10.8l0,0c.19.34.36.67.53,1a24.78,24.78,0,0,0,3,13.71l0,.54c-.1,1.46-.28,3-.46,4.52A50.12,50.12,0,0,0,96,180.92,39.69,39.69,0,0,1,86.82,169.39Z"/><path class="cls-1" d="M68.08,111.22a.22.22,0,0,0,0-.08l11.85-6.52,0,0a39.26,39.26,0,0,1,9.75,12,39.64,39.64,0,0,1,4.82,13.94,50.22,50.22,0,0,0-11.35-6.83c-1.42-.69-2.77-1.34-4.06-2a4.59,4.59,0,0,1-.49-.26,24.76,24.76,0,0,0-10-9.9Z"/><path class="cls-1" d="M68,111.19l.08,0a.22.22,0,0,1,0,.08Z"/><path class="cls-1" d="M115.39,221.27a39.54,39.54,0,0,1-4.9-14.51,52,52,0,0,1,.37-12.69c.18-1.5.34-2.94.44-4.36,0-.22,0-.44,0-.66v0c.18.33.37.66.56,1a24.74,24.74,0,0,1,10,9.89l.46.79h0c-.25,4.48.3,8.83,3.55,14.74Z"/><path class="cls-1" d="M97.23,163.41c-.15-.27-.28-.54-.42-.8a24.78,24.78,0,0,1-3-13.71c-.17-.33-.34-.66-.53-1l0,0,.59.33c1.25.67,2.56,1.3,3.93,2a51.47,51.47,0,0,1,10.91,6.46,39.41,39.41,0,0,1,9.64,11.9,39,39,0,0,1,4.91,14.64,52.1,52.1,0,0,0-10.81-6.39c-1.59-.77-3.09-1.49-4.51-2.28l-.1-.18C104.54,168.39,101.15,165.6,97.23,163.41Z"/><path class="cls-1" d="M72.16,142.77a39.37,39.37,0,0,1-4.89-14.51,51.39,51.39,0,0,1,.37-12.68c.17-1.5.34-2.94.44-4.36l.62.33a24.76,24.76,0,0,1,10,9.9c.16.26.31.51.46.79h0c-.25,4.48.3,8.83,3.55,14.73l.1.2c-.08,1.63-.28,3.27-.49,5a52.44,52.44,0,0,0-.38,12.56A39.26,39.26,0,0,1,72.16,142.77Z"/><path class="cls-1" d="M79.94,104.62l0,0s0,0,0,.06Z"/><path class="cls-1" d="M158.45,299.46a39.51,39.51,0,0,1-4.82-13.94,49.68,49.68,0,0,1,.29-13.25c.18-1.56.36-3.06.46-4.52,0-.18,0-.36,0-.54l.41.79c3.93,2.19,7.31,5,10.57,10.89l0,0a.28.28,0,0,0,0,.09,25.25,25.25,0,0,0,3.54,14.62c0,.23,0,.44,0,.67-.1,1.41-.27,2.85-.44,4.36a51.91,51.91,0,0,0-.37,12.68A39.23,39.23,0,0,1,158.45,299.46Z"/><path class="cls-1" d="M136.73,226.85h0c-.15-.28-.3-.53-.46-.8a4.67,4.67,0,0,0,.49.27c1.29.7,2.64,1.35,4.06,2a50.07,50.07,0,0,1,11.35,6.83,39.62,39.62,0,0,1,9.2,11.53,39.21,39.21,0,0,1,4.89,14.5,51.71,51.71,0,0,0-10.91-6.47c-1.36-.65-2.67-1.28-3.92-2l-.59-.32c-3.23-5.84-6.58-8.63-10.45-10.81l-.09-.05,0,0C137,235.68,136.48,231.32,136.73,226.85Z"/><path class="cls-1" d="M115.45,221.38l10.24-5.64a.22.22,0,0,0,0,.08c-.1,1.41-.27,2.85-.45,4.36a51.81,51.81,0,0,0-.37,12.67A39.06,39.06,0,0,1,115.45,221.38Z"/><path class="cls-1" d="M169,293.67l0,0A25.25,25.25,0,0,1,165.4,279a.28.28,0,0,1,0-.09l.08.14c1.42.8,2.92,1.52,4.51,2.29a51.66,51.66,0,0,1,10.81,6.39,39,39,0,0,1,9.75,12,39.73,39.73,0,0,1,4.8,13.82s0,.08,0,.12l-.1-.08A50.54,50.54,0,0,0,184,306.84c-1.42-.69-2.77-1.33-4.05-2l-.5-.28a24.85,24.85,0,0,0-10-9.89C169.33,294.33,169.14,294,169,293.67Z"/><path class="cls-1" d="M180,305.34h0c-.15-.28-.3-.53-.46-.8l.5.28c1.28.7,2.63,1.34,4.05,2a50.54,50.54,0,0,1,11.25,6.75L183.61,320v.14l-.12-.07h0C180.24,314.17,179.7,309.81,180,305.34Z"/><path class="cls-1" d="M144.42,274a39.09,39.09,0,0,1-4.91-14.65,51.86,51.86,0,0,1,.38-12.55c.2-1.74.41-3.39.49-5l-.09-.17.09.05c3.87,2.18,7.22,5,10.45,10.81l0,0c.19.34.36.68.53,1a24.83,24.83,0,0,0,3,13.72c0,.18,0,.36,0,.54-.1,1.46-.28,3-.46,4.52a49.68,49.68,0,0,0-.29,13.25A39.53,39.53,0,0,1,144.42,274Z"/><path class="cls-1" d="M125.68,215.82a.22.22,0,0,1,0-.08l11.84-6.52.06,0a39,39,0,0,1,9.75,12,39.57,39.57,0,0,1,4.82,13.94,50.07,50.07,0,0,0-11.35-6.83c-1.42-.69-2.77-1.34-4.06-2a4.67,4.67,0,0,1-.49-.27,24.81,24.81,0,0,0-10-9.89C126.09,216,125.88,215.92,125.68,215.82Z"/><path class="cls-1" d="M125.61,215.78l.08,0a.22.22,0,0,0,0,.08Z"/><path class="cls-1" d="M173,325.87a39.21,39.21,0,0,1-4.9-14.52,51.91,51.91,0,0,1,.37-12.68c.17-1.51.34-2.95.44-4.36,0-.23,0-.44,0-.67l0,0c.18.33.37.66.56,1a24.85,24.85,0,0,1,10,9.89c.16.27.31.52.46.8h0c-.25,4.47.29,8.83,3.55,14.74Z"/><path class="cls-1" d="M154.82,268l-.41-.79a24.83,24.83,0,0,1-3-13.72c-.17-.32-.34-.66-.53-1l0,0,.59.32c1.25.68,2.56,1.31,3.92,2a51.71,51.71,0,0,1,10.91,6.47,43.15,43.15,0,0,1,14.56,26.54A51.66,51.66,0,0,0,170,281.36c-1.59-.77-3.09-1.49-4.51-2.29l-.1-.18C162.13,273,158.75,270.19,154.82,268Z"/><path class="cls-1" d="M129.76,247.37a39.64,39.64,0,0,1-4.9-14.52,51.81,51.81,0,0,1,.37-12.67c.18-1.51.35-3,.45-4.36.2.1.41.21.61.33a24.81,24.81,0,0,1,10,9.89c.16.27.31.52.46.8h0c-.25,4.47.29,8.83,3.54,14.73l.11.19c-.08,1.63-.29,3.28-.49,5a51.86,51.86,0,0,0-.38,12.55A39.08,39.08,0,0,1,129.76,247.37Z"/><path class="cls-1" d="M137.53,209.22l.05,0a.15.15,0,0,1,0,.07Z"/><path class="cls-1" d="M216,404.05a39.87,39.87,0,0,1-4.82-13.93,50.06,50.06,0,0,1,.3-13.25c.17-1.57.36-3.06.45-4.53,0-.18,0-.35,0-.54.13.27.26.53.41.8,3.92,2.19,7.31,5,10.56,10.89l0,0a.34.34,0,0,0,0,.1,25.2,25.2,0,0,0,3.54,14.62c0,.23,0,.44,0,.66-.1,1.42-.26,2.86-.44,4.36a52,52,0,0,0-.36,12.69A39.3,39.3,0,0,1,216,404.05Z"/><path class="cls-1" d="M194.32,331.44h0c-.15-.27-.31-.53-.46-.79a4.59,4.59,0,0,0,.49.26c1.28.7,2.64,1.36,4.05,2a50,50,0,0,1,11.36,6.84A39.73,39.73,0,0,1,219,351.3a39.27,39.27,0,0,1,4.89,14.5,51.64,51.64,0,0,0-10.91-6.46c-1.37-.66-2.67-1.29-3.92-2l-.59-.33c-3.23-5.84-6.58-8.62-10.45-10.8l-.1-.05v0C194.62,340.27,194.07,335.92,194.32,331.44Z"/><path class="cls-1" d="M173.05,326l10.24-5.64,0,.08c-.1,1.42-.26,2.86-.44,4.36a51.9,51.9,0,0,0-.37,12.68A39,39,0,0,1,173.05,326Z"/><path class="cls-1" d="M226.55,398.27v0A25.2,25.2,0,0,1,223,383.62a.34.34,0,0,1,0-.1l.08.15c1.42.8,2.93,1.52,4.51,2.28a52.15,52.15,0,0,1,10.82,6.39,39.1,39.1,0,0,1,9.74,12A39.7,39.7,0,0,1,253,418.14s0,.09,0,.13l-.1-.08a50.06,50.06,0,0,0-11.26-6.76c-1.41-.68-2.76-1.33-4.05-2l-.49-.27a24.81,24.81,0,0,0-10-9.89Z"/><path class="cls-1" d="M237.54,409.93h0c-.15-.27-.3-.53-.46-.79l.49.27c1.29.7,2.64,1.35,4.05,2a50.06,50.06,0,0,1,11.26,6.76l-11.67,6.42a.62.62,0,0,1,0,.13l-.11-.06h0C237.84,418.76,237.29,414.41,237.54,409.93Z"/><path class="cls-1" d="M202,378.58a39.22,39.22,0,0,1-4.92-14.64,51.8,51.8,0,0,1,.39-12.55c.2-1.75.4-3.39.49-5l-.1-.17.1.05c3.87,2.18,7.22,5,10.45,10.8l0,0c.18.34.36.67.52,1a24.8,24.8,0,0,0,3,13.71c0,.19,0,.36,0,.54-.09,1.47-.28,3-.45,4.53a50.06,50.06,0,0,0-.3,13.25A39.87,39.87,0,0,1,202,378.58Z"/><path class="cls-1" d="M183.27,320.41l0-.08,11.84-6.52.06,0a39.24,39.24,0,0,1,9.74,12,39.72,39.72,0,0,1,4.83,13.95,50,50,0,0,0-11.36-6.84c-1.41-.68-2.77-1.34-4.05-2a4.59,4.59,0,0,1-.49-.26,24.74,24.74,0,0,0-10-9.89C183.69,320.63,183.48,320.52,183.27,320.41Z"/><path class="cls-1" d="M183.21,320.38l.08-.05,0,.08Z"/><path class="cls-1" d="M230.58,430.46A39.31,39.31,0,0,1,225.69,416a52,52,0,0,1,.36-12.69c.18-1.5.34-2.94.44-4.36,0-.22,0-.43,0-.66v0l.56,1a24.81,24.81,0,0,1,10,9.89c.16.26.31.52.46.79h0c-.25,4.48.3,8.83,3.56,14.74Z"/><path class="cls-1" d="M212.42,372.6c-.15-.27-.28-.53-.41-.8a24.8,24.8,0,0,1-3-13.71c-.16-.33-.34-.66-.52-1l0,0,.59.33c1.25.67,2.55,1.3,3.92,2a51.64,51.64,0,0,1,10.91,6.46,43.22,43.22,0,0,1,14.56,26.54A52.15,52.15,0,0,0,227.59,386c-1.58-.76-3.09-1.48-4.51-2.28l-.1-.18C219.73,377.58,216.34,374.79,212.42,372.6Z"/><path class="cls-1" d="M187.36,352a39.17,39.17,0,0,1-4.9-14.51,51.9,51.9,0,0,1,.37-12.68c.18-1.5.34-2.94.44-4.36.21.11.42.22.62.34a24.74,24.74,0,0,1,10,9.89c.15.26.31.52.46.79h0c-.25,4.48.3,8.83,3.55,14.73l.11.2c-.09,1.63-.29,3.27-.49,5a51.8,51.8,0,0,0-.39,12.55A39.24,39.24,0,0,1,187.36,352Z"/><path class="cls-1" d="M195.13,313.81l0,0s0,0,0,.06Z"/><path class="cls-1" d="M273.64,508.65a39.71,39.71,0,0,1-4.82-13.94,50.12,50.12,0,0,1,.29-13.25c.18-1.56.36-3.06.46-4.52l0-.54c.14.26.27.53.42.79a25.39,25.39,0,0,1,10.56,10.89l0,0a.17.17,0,0,0,0,.1c-.24,4.43.31,8.76,3.54,14.61,0,.23,0,.45-.05.67-.1,1.42-.26,2.86-.44,4.36a52,52,0,0,0-.37,12.69A39.41,39.41,0,0,1,273.64,508.65Z"/><path class="cls-1" d="M251.92,436h0c-.15-.28-.3-.53-.46-.8a4.67,4.67,0,0,0,.49.27c1.29.7,2.64,1.35,4.06,2a49.85,49.85,0,0,1,11.35,6.83,39.93,39.93,0,0,1,9.21,11.53,39.4,39.4,0,0,1,4.89,14.5,51.47,51.47,0,0,0-10.91-6.46c-1.37-.66-2.68-1.29-3.93-2-.19-.12-.39-.22-.59-.33-3.22-5.84-6.57-8.63-10.44-10.8l-.1-.05v0C252.22,444.87,251.67,440.52,251.92,436Z"/><path class="cls-1" d="M230.64,430.57l10.24-5.64a.22.22,0,0,1,0,.08c-.1,1.41-.27,2.85-.44,4.36a51.39,51.39,0,0,0-.37,12.68A39.28,39.28,0,0,1,230.64,430.57Z"/><path class="cls-1" d="M284.15,502.86v0c-3.23-5.85-3.78-10.18-3.54-14.61a.17.17,0,0,1,0-.1l.08.14c1.42.8,2.92,1.52,4.51,2.29A51.66,51.66,0,0,1,296,496.94a43.33,43.33,0,0,1,14.55,25.8l0,.12-.11-.08A50.54,50.54,0,0,0,299.22,516c-1.42-.69-2.76-1.33-4.05-2l-.49-.27a24.84,24.84,0,0,0-10-9.9C284.52,503.52,284.33,503.19,284.15,502.86Z"/><path class="cls-1" d="M295.14,514.53h0l-.46-.79.49.27c1.29.7,2.63,1.34,4.05,2a50.54,50.54,0,0,1,11.25,6.75l-11.66,6.43s0,.08,0,.13l-.12-.07h0C295.44,523.36,294.89,519,295.14,514.53Z"/><path class="cls-1" d="M259.61,483.18a39.36,39.36,0,0,1-4.91-14.64,52.44,52.44,0,0,1,.38-12.56c.21-1.74.41-3.39.49-5l-.09-.17.1.05c3.87,2.17,7.22,5,10.44,10.8l0,0c.19.34.36.67.53,1a24.78,24.78,0,0,0,3,13.71l0,.54c-.1,1.46-.28,3-.46,4.52a50.12,50.12,0,0,0-.29,13.25A39.69,39.69,0,0,1,259.61,483.18Z"/><path class="cls-1" d="M240.87,425a.22.22,0,0,0,0-.08l11.85-6.52.05,0a39.13,39.13,0,0,1,9.75,12,39.64,39.64,0,0,1,4.82,13.94A49.85,49.85,0,0,0,256,437.54c-1.42-.69-2.77-1.34-4.06-2a4.67,4.67,0,0,1-.49-.27,24.8,24.8,0,0,0-10-9.89C241.28,425.22,241.08,425.11,240.87,425Z"/><path class="cls-1" d="M240.8,425l.08,0a.22.22,0,0,1,0,.08Z"/><path class="cls-1" d="M288.18,535.06a39.6,39.6,0,0,1-4.9-14.51,52,52,0,0,1,.37-12.69c.18-1.5.34-2.94.44-4.36,0-.22,0-.44.05-.67v0c.18.33.37.66.56,1a24.84,24.84,0,0,1,10,9.9l.46.79h0c-.25,4.48.3,8.83,3.55,14.74Z"/><path class="cls-1" d="M270,477.19c-.15-.26-.28-.53-.42-.79a24.78,24.78,0,0,1-3-13.71c-.17-.33-.34-.66-.53-1l0,0c.2.11.4.21.59.33,1.25.67,2.56,1.3,3.93,2a51.47,51.47,0,0,1,10.91,6.46A43.27,43.27,0,0,1,296,496.94a51.66,51.66,0,0,0-10.81-6.39c-1.59-.77-3.09-1.49-4.51-2.29l-.1-.18A25.39,25.39,0,0,0,270,477.19Z"/><path class="cls-1" d="M245,456.56a39.37,39.37,0,0,1-4.89-14.51,51.39,51.39,0,0,1,.37-12.68c.17-1.51.34-2.95.44-4.36.21.1.41.21.62.33a24.8,24.8,0,0,1,10,9.89c.16.27.31.52.46.8h0c-.25,4.48.3,8.83,3.55,14.73l.1.2c-.08,1.62-.28,3.27-.49,5a52.44,52.44,0,0,0-.38,12.56A39.26,39.26,0,0,1,245,456.56Z"/><path class="cls-1" d="M252.73,418.41l0,0a.15.15,0,0,1,0,.07Z"/><path class="cls-1" d="M331.24,613.25a39.51,39.51,0,0,1-4.82-13.94,49.68,49.68,0,0,1,.29-13.25c.18-1.57.36-3.06.46-4.52,0-.19,0-.36,0-.54l.41.79c3.93,2.19,7.31,5,10.57,10.89l0,0a.25.25,0,0,0,0,.09,25.28,25.28,0,0,0,3.54,14.62c0,.23,0,.44,0,.67-.1,1.41-.27,2.85-.44,4.36a51.91,51.91,0,0,0-.37,12.68A39.23,39.23,0,0,1,331.24,613.25Z"/><path class="cls-1" d="M309.52,540.63h0c-.15-.27-.3-.53-.46-.79a4.67,4.67,0,0,0,.49.27c1.29.7,2.64,1.35,4.06,2A50.13,50.13,0,0,1,325,549,43.3,43.3,0,0,1,339,575a51.71,51.71,0,0,0-10.91-6.47c-1.36-.65-2.67-1.28-3.92-2l-.59-.32c-3.23-5.85-6.58-8.63-10.45-10.81l-.09-.05,0,0C309.81,549.46,309.27,545.11,309.52,540.63Z"/><path class="cls-1" d="M288.24,535.17l10.24-5.64a.17.17,0,0,0,0,.07c-.1,1.42-.27,2.86-.45,4.37a51.81,51.81,0,0,0-.37,12.67A39.21,39.21,0,0,1,288.24,535.17Z"/><path class="cls-1" d="M341.75,607.46l0,0a25.28,25.28,0,0,1-3.54-14.62.25.25,0,0,1,0-.09l.08.14c1.42.8,2.92,1.52,4.51,2.29a51.66,51.66,0,0,1,10.81,6.39,39,39,0,0,1,9.75,12,39.76,39.76,0,0,1,4.8,13.81s0,.09,0,.13a.39.39,0,0,0-.1-.08,50.61,50.61,0,0,0-11.25-6.76c-1.42-.68-2.77-1.32-4.05-2l-.5-.28a24.85,24.85,0,0,0-10-9.89C342.12,608.11,341.93,607.79,341.75,607.46Z"/><path class="cls-1" d="M352.74,619.12h0c-.15-.28-.3-.54-.46-.8l.5.28c1.28.7,2.63,1.34,4.05,2a50.61,50.61,0,0,1,11.25,6.76L356.4,633.8v.13l-.12-.06h0C353,628,352.49,623.6,352.74,619.12Z"/><path class="cls-1" d="M317.21,587.78a39.09,39.09,0,0,1-4.91-14.65,51.86,51.86,0,0,1,.38-12.55c.2-1.74.41-3.39.49-5l-.09-.17.09.05c3.87,2.18,7.22,5,10.45,10.81l0,0c.19.34.36.68.53,1a24.83,24.83,0,0,0,3,13.72c0,.18,0,.35,0,.54-.1,1.46-.28,3-.46,4.52a49.68,49.68,0,0,0-.29,13.25A39.66,39.66,0,0,1,317.21,587.78Z"/><path class="cls-1" d="M298.47,529.6a.17.17,0,0,1,0-.07L310.32,523l.06,0a39.26,39.26,0,0,1,9.75,12A39.68,39.68,0,0,1,325,549a50.13,50.13,0,0,0-11.35-6.84c-1.42-.68-2.77-1.33-4.06-2a4.67,4.67,0,0,1-.49-.27,24.81,24.81,0,0,0-10-9.89Z"/><path class="cls-1" d="M298.4,529.57l.08,0a.17.17,0,0,0,0,.07Z"/><path class="cls-1" d="M345.78,639.65a39.17,39.17,0,0,1-4.9-14.51,51.91,51.91,0,0,1,.37-12.68c.17-1.51.34-3,.44-4.36,0-.23,0-.44,0-.67l0,0c.18.33.37.65.56,1a24.85,24.85,0,0,1,10,9.89c.16.26.31.52.46.8h0c-.25,4.48.29,8.84,3.55,14.75Z"/><path class="cls-1" d="M327.61,581.79l-.41-.79a24.83,24.83,0,0,1-3-13.72c-.17-.32-.34-.66-.53-1l0,0,.59.32c1.25.68,2.56,1.31,3.92,2A51.71,51.71,0,0,1,339,575a43.15,43.15,0,0,1,14.56,26.54,51.66,51.66,0,0,0-10.81-6.39c-1.59-.77-3.09-1.49-4.51-2.29l-.1-.18C334.92,586.77,331.54,584,327.61,581.79Z"/><path class="cls-1" d="M302.55,561.15a39.54,39.54,0,0,1-4.9-14.51A51.81,51.81,0,0,1,298,534c.18-1.51.35-3,.45-4.37l.61.34a24.81,24.81,0,0,1,10,9.89c.16.26.31.52.46.79h0c-.25,4.48.29,8.83,3.54,14.73l.11.2c-.08,1.63-.29,3.28-.49,5a51.86,51.86,0,0,0-.38,12.55A39,39,0,0,1,302.55,561.15Z"/><path class="cls-1" d="M310.32,523l.05,0a.13.13,0,0,1,0,.06Z"/><path class="cls-1" d="M388.83,717.84A39.87,39.87,0,0,1,384,703.91a50.15,50.15,0,0,1,.3-13.26c.17-1.56.36-3.06.45-4.52,0-.18,0-.36,0-.54.14.26.27.53.42.8,3.92,2.19,7.31,5,10.56,10.89l0,0a.34.34,0,0,0,0,.1A25.2,25.2,0,0,0,399.33,712c0,.22,0,.44-.05.66-.1,1.42-.26,2.86-.44,4.36a52,52,0,0,0-.36,12.69A39.43,39.43,0,0,1,388.83,717.84Z"/><path class="cls-1" d="M367.11,645.23h0c-.15-.28-.31-.53-.46-.79a4.59,4.59,0,0,0,.49.26c1.28.7,2.64,1.35,4.05,2a50.18,50.18,0,0,1,11.36,6.84,39.73,39.73,0,0,1,9.2,11.52,39.27,39.27,0,0,1,4.89,14.5,51.22,51.22,0,0,0-10.91-6.46c-1.37-.66-2.67-1.29-3.92-2l-.59-.33c-3.23-5.84-6.58-8.63-10.45-10.8l-.1,0v0C367.41,654.06,366.86,649.71,367.11,645.23Z"/><path class="cls-1" d="M345.84,639.76l10.24-5.64s0,0,0,.08c-.1,1.42-.26,2.86-.44,4.36a51.9,51.9,0,0,0-.37,12.68A39.11,39.11,0,0,1,345.84,639.76Z"/><path class="cls-1" d="M399.34,712.05v0a25.2,25.2,0,0,1-3.54-14.62.34.34,0,0,1,0-.1l.08.15c1.42.79,2.93,1.51,4.51,2.28a52.15,52.15,0,0,1,10.82,6.39,39.1,39.1,0,0,1,9.74,12,39.7,39.7,0,0,1,4.81,13.82s0,.09,0,.13l-.1-.09a50.37,50.37,0,0,0-11.26-6.75c-1.41-.68-2.76-1.33-4.05-2l-.49-.27a24.74,24.74,0,0,0-10-9.89Z"/><path class="cls-1" d="M410.33,723.72h0c-.15-.27-.3-.53-.46-.79l.49.27c1.29.7,2.64,1.35,4.05,2A50.37,50.37,0,0,1,425.67,732L414,738.4a.62.62,0,0,1,0,.13l-.11-.06h0C410.63,732.55,410.08,728.2,410.33,723.72Z"/><path class="cls-1" d="M374.81,692.37a39.22,39.22,0,0,1-4.92-14.64,51.9,51.9,0,0,1,.39-12.56c.2-1.74.4-3.38.49-5l-.1-.17.1,0c3.87,2.17,7.22,5,10.45,10.8l0,0c.18.34.36.67.52,1a24.87,24.87,0,0,0,3,13.71c0,.18,0,.36,0,.54-.09,1.46-.28,3-.45,4.52a50.15,50.15,0,0,0-.3,13.26A39.87,39.87,0,0,1,374.81,692.37Z"/><path class="cls-1" d="M356.06,634.2s0-.05,0-.08l11.84-6.52.06,0a39.24,39.24,0,0,1,9.74,12,39.66,39.66,0,0,1,4.83,14,50.18,50.18,0,0,0-11.36-6.84c-1.41-.69-2.77-1.34-4.05-2a4.59,4.59,0,0,1-.49-.26,24.84,24.84,0,0,0-10-9.9C356.48,634.41,356.27,634.31,356.06,634.2Z"/><path class="cls-1" d="M356,634.17l.08,0s0,0,0,.08Z"/><path class="cls-1" d="M403.37,744.25a39.31,39.31,0,0,1-4.89-14.51,52,52,0,0,1,.36-12.69c.18-1.5.34-2.94.44-4.36,0-.22,0-.44.05-.66v0l.56,1a24.74,24.74,0,0,1,10,9.89c.16.26.31.52.46.79h0c-.25,4.48.3,8.83,3.56,14.74Z"/><path class="cls-1" d="M385.21,686.39c-.15-.27-.28-.54-.42-.8a24.87,24.87,0,0,1-3-13.71c-.16-.33-.34-.66-.52-1l0,0,.59.33c1.25.67,2.55,1.3,3.92,2a51.22,51.22,0,0,1,10.91,6.46,43.22,43.22,0,0,1,14.56,26.54,52.15,52.15,0,0,0-10.82-6.39c-1.58-.77-3.09-1.49-4.51-2.28l-.1-.18C392.52,691.37,389.13,688.58,385.21,686.39Z"/><path class="cls-1" d="M360.15,665.75a39.17,39.17,0,0,1-4.9-14.51,51.9,51.9,0,0,1,.37-12.68c.18-1.5.34-2.94.44-4.36.21.11.42.21.62.33a24.84,24.84,0,0,1,10,9.9c.15.26.31.51.46.79h0c-.25,4.48.3,8.83,3.55,14.73l.11.2c-.09,1.63-.29,3.27-.49,5a51.9,51.9,0,0,0-.39,12.56A39.24,39.24,0,0,1,360.15,665.75Z"/><path class="cls-1" d="M367.92,627.6l0,0s0,0,0,.06Z"/><path class="cls-1" d="M446.43,822.44a39.71,39.71,0,0,1-4.82-13.94,50.1,50.1,0,0,1,.29-13.25c.18-1.56.36-3.06.46-4.52l0-.54c.14.26.27.52.42.79,3.92,2.19,7.31,5,10.56,10.89l0,0a.14.14,0,0,0,0,.09c-.24,4.44.31,8.77,3.54,14.62,0,.23,0,.44-.05.67-.1,1.41-.26,2.85-.44,4.36a51.91,51.91,0,0,0-.37,12.68A39.23,39.23,0,0,1,446.43,822.44Z"/><path class="cls-1" d="M424.71,749.83h0c-.15-.28-.3-.53-.46-.8a4.67,4.67,0,0,0,.49.27c1.29.7,2.64,1.35,4.06,2a49.85,49.85,0,0,1,11.35,6.83,43.45,43.45,0,0,1,14.1,26,52,52,0,0,0-10.91-6.47c-1.37-.65-2.68-1.28-3.93-2l-.59-.32c-3.22-5.84-6.57-8.63-10.44-10.8l-.1-.06v0C425,758.66,424.46,754.3,424.71,749.83Z"/><path class="cls-1" d="M403.43,744.36l10.24-5.64a.22.22,0,0,1,0,.08c-.1,1.41-.27,2.85-.44,4.36a51.32,51.32,0,0,0-.37,12.67A39.23,39.23,0,0,1,403.43,744.36Z"/><path class="cls-1" d="M456.94,816.65v0c-3.23-5.85-3.78-10.18-3.54-14.62a.14.14,0,0,1,0-.09l.08.14c1.42.8,2.92,1.52,4.51,2.29a51.66,51.66,0,0,1,10.81,6.39,39,39,0,0,1,9.75,12,39.53,39.53,0,0,1,4.8,13.82l0,.12-.11-.08A50.54,50.54,0,0,0,472,829.82c-1.42-.69-2.76-1.33-4.05-2l-.49-.28a24.87,24.87,0,0,0-10-9.89C457.31,817.31,457.12,817,456.94,816.65Z"/><path class="cls-1" d="M467.93,828.32h0l-.46-.8.49.28c1.29.7,2.63,1.34,4.05,2a50.54,50.54,0,0,1,11.25,6.75L471.6,843s0,.09,0,.14l-.12-.07h0C468.23,837.15,467.68,832.79,467.93,828.32Z"/><path class="cls-1" d="M432.4,797a39.47,39.47,0,0,1-4.91-14.64,52.44,52.44,0,0,1,.38-12.56c.21-1.74.41-3.39.49-5l-.09-.17.1.06c3.87,2.17,7.22,5,10.44,10.8l0,0c.19.34.36.68.53,1a24.82,24.82,0,0,0,3,13.71l0,.54c-.1,1.46-.28,3-.46,4.52a50.1,50.1,0,0,0-.29,13.25A39.69,39.69,0,0,1,432.4,797Z"/><path class="cls-1" d="M413.66,738.8a.22.22,0,0,0,0-.08l11.85-6.52.05,0a39,39,0,0,1,9.75,12,39.57,39.57,0,0,1,4.82,13.94,49.85,49.85,0,0,0-11.35-6.83c-1.42-.69-2.77-1.34-4.06-2a4.67,4.67,0,0,1-.49-.27,24.73,24.73,0,0,0-10-9.89C414.07,739,413.87,738.9,413.66,738.8Z"/><path class="cls-1" d="M413.59,738.76l.08,0a.22.22,0,0,1,0,.08Z"/><path class="cls-1" d="M461,848.85a39.58,39.58,0,0,1-4.9-14.52,51.91,51.91,0,0,1,.37-12.68c.18-1.51.34-2.95.44-4.36,0-.23,0-.44.05-.67v0c.18.33.37.66.56,1a24.87,24.87,0,0,1,10,9.89l.46.8h0c-.25,4.47.3,8.83,3.55,14.74Z"/><path class="cls-1" d="M442.81,791c-.15-.27-.28-.53-.42-.79a24.82,24.82,0,0,1-3-13.71c-.17-.33-.34-.67-.53-1l0,0,.59.32c1.25.68,2.56,1.31,3.93,2a52,52,0,0,1,10.91,6.47,43.2,43.2,0,0,1,14.55,26.54A51.66,51.66,0,0,0,458,804.34c-1.59-.77-3.09-1.49-4.51-2.29l-.1-.18C450.12,796,446.73,793.17,442.81,791Z"/><path class="cls-1" d="M417.74,770.35a39.41,39.41,0,0,1-4.89-14.52,51.32,51.32,0,0,1,.37-12.67c.17-1.51.34-2.95.44-4.36.21.1.41.21.62.33a24.73,24.73,0,0,1,10,9.89c.16.27.31.52.46.8h0c-.25,4.47.3,8.83,3.55,14.73l.1.19c-.08,1.63-.28,3.28-.49,5a52.44,52.44,0,0,0-.38,12.56A39.26,39.26,0,0,1,417.74,770.35Z"/><path class="cls-1" d="M425.52,732.2l0,0a.15.15,0,0,1,0,.07Z"/><path class="cls-1" d="M504,927a39.47,39.47,0,0,1-4.82-13.93,49.68,49.68,0,0,1,.29-13.25c.18-1.57.36-3.06.46-4.52,0-.19,0-.36,0-.55.13.27.27.53.41.8,3.93,2.19,7.31,5,10.57,10.89l0,0a.25.25,0,0,0,0,.09,25.28,25.28,0,0,0,3.54,14.62c0,.23,0,.44,0,.66-.1,1.42-.27,2.86-.44,4.37a51.91,51.91,0,0,0-.37,12.68A39.29,39.29,0,0,1,504,927Z"/><path class="cls-1" d="M482.31,854.42h0c-.15-.27-.3-.53-.46-.79a4.59,4.59,0,0,0,.49.26c1.29.7,2.64,1.36,4.06,2a50.13,50.13,0,0,1,11.35,6.84,43.31,43.31,0,0,1,14.09,26,51.64,51.64,0,0,0-10.91-6.46c-1.36-.66-2.67-1.29-3.92-2l-.59-.33c-3.23-5.84-6.58-8.62-10.45-10.8l-.09-.05,0,0C482.6,863.25,482.06,858.9,482.31,854.42Z"/><path class="cls-1" d="M461,849l10.24-5.64a.22.22,0,0,0,0,.08c-.1,1.42-.27,2.86-.45,4.36a51.9,51.9,0,0,0-.37,12.68A39,39,0,0,1,461,849Z"/><path class="cls-1" d="M514.54,921.25l0,0A25.28,25.28,0,0,1,511,906.6a.25.25,0,0,1,0-.09l.08.14c1.42.8,2.92,1.52,4.51,2.28a52.1,52.1,0,0,1,10.81,6.39,39.26,39.26,0,0,1,9.75,12,39.87,39.87,0,0,1,4.8,13.82s0,.09,0,.13a.39.39,0,0,0-.1-.08,50.23,50.23,0,0,0-11.25-6.76c-1.42-.68-2.77-1.33-4.05-2l-.5-.28a24.85,24.85,0,0,0-10-9.89C514.91,921.9,514.72,921.58,514.54,921.25Z"/><path class="cls-1" d="M525.53,932.91h0c-.15-.27-.3-.53-.46-.79l.5.28c1.28.69,2.63,1.34,4.05,2a50.23,50.23,0,0,1,11.25,6.76l-11.67,6.42v.13l-.12-.06h0C525.82,941.74,525.28,937.39,525.53,932.91Z"/><path class="cls-1" d="M490,901.56a39,39,0,0,1-4.91-14.64,51.83,51.83,0,0,1,.38-12.55c.2-1.75.41-3.39.49-5l-.09-.17.09.05c3.87,2.18,7.22,5,10.45,10.8l0,0c.19.34.36.67.53,1a24.78,24.78,0,0,0,3,13.71c0,.19,0,.36,0,.55-.1,1.46-.28,2.95-.46,4.52a49.68,49.68,0,0,0-.29,13.25A39.72,39.72,0,0,1,490,901.56Z"/><path class="cls-1" d="M471.26,843.39a.22.22,0,0,1,0-.08l11.84-6.52.06,0a39.26,39.26,0,0,1,9.75,12,39.68,39.68,0,0,1,4.82,14,50.13,50.13,0,0,0-11.35-6.84c-1.42-.68-2.77-1.34-4.06-2a4.59,4.59,0,0,1-.49-.26,24.74,24.74,0,0,0-10-9.89Z"/><path class="cls-1" d="M471.19,843.36l.08-.05a.22.22,0,0,0,0,.08Z"/><path class="cls-1" d="M518.57,953.44a39.17,39.17,0,0,1-4.9-14.51,51.91,51.91,0,0,1,.37-12.68c.17-1.51.34-3,.44-4.37,0-.22,0-.43,0-.66l0,0c.18.33.37.65.56,1a24.85,24.85,0,0,1,10,9.89c.16.26.31.52.46.79h0c-.25,4.48.29,8.83,3.55,14.74Z"/><path class="cls-1" d="M500.4,895.58c-.14-.27-.28-.53-.41-.8a24.78,24.78,0,0,1-3-13.71c-.17-.33-.34-.66-.53-1l0,0,.59.33c1.25.67,2.56,1.3,3.92,2a51.64,51.64,0,0,1,10.91,6.46,43.22,43.22,0,0,1,14.56,26.54,52.1,52.1,0,0,0-10.81-6.39c-1.59-.76-3.09-1.48-4.51-2.28l-.1-.18C507.71,900.56,504.33,897.77,500.4,895.58Z"/><path class="cls-1" d="M475.34,874.94a39.54,39.54,0,0,1-4.9-14.51,51.9,51.9,0,0,1,.37-12.68c.18-1.5.35-2.94.45-4.36l.61.34a24.74,24.74,0,0,1,10,9.89c.16.26.31.52.46.79h0c-.25,4.48.29,8.83,3.54,14.73l.11.2c-.08,1.63-.29,3.27-.49,5a51.83,51.83,0,0,0-.38,12.55A39.26,39.26,0,0,1,475.34,874.94Z"/><path class="cls-1" d="M483.11,836.79l.05,0a.13.13,0,0,1,0,.06Z"/><path class="cls-1" d="M561.62,1031.63a39.91,39.91,0,0,1-4.82-13.94,50.09,50.09,0,0,1,.3-13.25c.17-1.56.35-3.06.45-4.52,0-.18,0-.36,0-.54.14.26.27.53.42.79a25.36,25.36,0,0,1,10.56,10.9l0,0a.34.34,0,0,0,0,.1,25.16,25.16,0,0,0,3.54,14.61c0,.23,0,.45,0,.67-.1,1.42-.26,2.86-.44,4.36a52,52,0,0,0-.36,12.69A39.43,39.43,0,0,1,561.62,1031.63Z"/><path class="cls-1" d="M539.9,959h0c-.15-.28-.31-.53-.46-.8a4.67,4.67,0,0,0,.49.27c1.28.7,2.64,1.35,4.05,2a50.12,50.12,0,0,1,11.36,6.83,39.92,39.92,0,0,1,9.2,11.53,39.21,39.21,0,0,1,4.89,14.5,51.22,51.22,0,0,0-10.91-6.46c-1.37-.66-2.67-1.29-3.92-2l-.59-.33c-3.23-5.84-6.58-8.63-10.45-10.8l-.1-.05v0C540.2,967.85,539.65,963.5,539.9,959Z"/><path class="cls-1" d="M518.63,953.55l10.24-5.64,0,.08c-.1,1.41-.26,2.85-.44,4.36A51.88,51.88,0,0,0,528,965,39.11,39.11,0,0,1,518.63,953.55Z"/><path class="cls-1" d="M572.13,1025.84v0a25.16,25.16,0,0,1-3.54-14.61.34.34,0,0,1,0-.1l.08.14c1.42.8,2.93,1.52,4.51,2.29a51.71,51.71,0,0,1,10.82,6.39,39.1,39.1,0,0,1,9.74,12,39.64,39.64,0,0,1,4.81,13.82s0,.08,0,.13l-.1-.09A50.37,50.37,0,0,0,587.2,1039c-1.41-.69-2.76-1.33-4.05-2l-.49-.27a24.84,24.84,0,0,0-10-9.9Z"/><path class="cls-1" d="M583.12,1037.51h0c-.15-.28-.3-.53-.46-.79l.49.27c1.29.7,2.64,1.34,4.05,2a50.37,50.37,0,0,1,11.26,6.75l-11.67,6.43a.66.66,0,0,1,0,.13l-.11-.07h0C583.42,1046.34,582.87,1042,583.12,1037.51Z"/><path class="cls-1" d="M547.6,1006.16a39.22,39.22,0,0,1-4.92-14.64,51.9,51.9,0,0,1,.39-12.56c.2-1.74.4-3.39.49-5l-.1-.17.1.05c3.87,2.17,7.22,5,10.45,10.8l0,0c.18.34.36.67.52,1a24.87,24.87,0,0,0,3,13.71c0,.18,0,.36,0,.54-.1,1.46-.28,3-.45,4.52a50.09,50.09,0,0,0-.3,13.25A39.68,39.68,0,0,1,547.6,1006.16Z"/><path class="cls-1" d="M528.85,948l0-.08,11.84-6.52.06,0a39.26,39.26,0,0,1,9.74,12,39.68,39.68,0,0,1,4.83,13.94A50.12,50.12,0,0,0,544,960.52c-1.41-.69-2.77-1.34-4.05-2a4.67,4.67,0,0,1-.49-.27,24.87,24.87,0,0,0-10-9.89C529.27,948.2,529.06,948.1,528.85,948Z"/><path class="cls-1" d="M528.79,948l.08,0,0,.08Z"/><path class="cls-1" d="M576.16,1058a39.37,39.37,0,0,1-4.89-14.51,52,52,0,0,1,.36-12.69c.18-1.5.34-2.94.44-4.36,0-.22,0-.44,0-.67v0l.56,1a24.84,24.84,0,0,1,10,9.9c.16.26.31.51.46.79h0c-.25,4.48.3,8.83,3.56,14.74Z"/><path class="cls-1" d="M558,1000.17c-.15-.26-.28-.53-.42-.79a24.87,24.87,0,0,1-3-13.71c-.16-.33-.34-.66-.52-1l0,0,.59.33c1.25.67,2.55,1.3,3.92,2a51.22,51.22,0,0,1,10.91,6.46A43.22,43.22,0,0,1,584,1019.92a51.71,51.71,0,0,0-10.82-6.39c-1.58-.77-3.09-1.49-4.51-2.29l-.1-.17A25.36,25.36,0,0,0,558,1000.17Z"/><path class="cls-1" d="M532.94,979.54A39.22,39.22,0,0,1,528,965a51.88,51.88,0,0,1,.37-12.68c.18-1.51.34-3,.44-4.36.21.11.42.21.62.33a24.87,24.87,0,0,1,10,9.89c.15.27.31.52.46.8h0c-.25,4.48.3,8.83,3.55,14.73l.11.2c-.09,1.62-.29,3.27-.49,5a51.9,51.9,0,0,0-.39,12.56A39.24,39.24,0,0,1,532.94,979.54Z"/><path class="cls-1" d="M540.71,941.39l0,0s0,0,0,.07Z"/><path class="cls-1" d="M619.22,1136.23a39.71,39.71,0,0,1-4.82-13.94,50.1,50.1,0,0,1,.29-13.25c.18-1.57.36-3.06.46-4.52l0-.54c.14.26.27.52.42.79,3.92,2.19,7.31,5,10.56,10.89l0,0a.14.14,0,0,0,0,.09c-.24,4.43.31,8.76,3.54,14.62,0,.23,0,.44-.05.67-.1,1.41-.26,2.85-.44,4.36a51.91,51.91,0,0,0-.37,12.68A39.23,39.23,0,0,1,619.22,1136.23Z"/><path class="cls-1" d="M597.5,1063.61h0c-.15-.27-.3-.53-.46-.79a4.67,4.67,0,0,0,.49.27c1.29.7,2.64,1.35,4.06,2a49.92,49.92,0,0,1,11.35,6.84,43.24,43.24,0,0,1,14.1,26,52,52,0,0,0-10.91-6.47c-1.37-.65-2.68-1.28-3.93-2l-.59-.32c-3.22-5.85-6.57-8.63-10.44-10.81l-.1-.05v0C597.8,1072.44,597.25,1068.09,597.5,1063.61Z"/><path class="cls-1" d="M576.22,1058.15l10.24-5.64a.17.17,0,0,1,0,.07c-.1,1.42-.27,2.86-.44,4.37a51.32,51.32,0,0,0-.37,12.67A39.23,39.23,0,0,1,576.22,1058.15Z"/><path class="cls-1" d="M629.73,1130.44v0c-3.23-5.86-3.78-10.19-3.54-14.62a.14.14,0,0,1,0-.09l.08.14c1.42.8,2.92,1.52,4.51,2.29a51.66,51.66,0,0,1,10.81,6.39,39,39,0,0,1,9.75,12,39.55,39.55,0,0,1,4.8,13.81l0,.13-.11-.08a50.61,50.61,0,0,0-11.25-6.76c-1.42-.68-2.76-1.32-4-2l-.49-.28a24.81,24.81,0,0,0-10-9.89C630.1,1131.09,629.91,1130.77,629.73,1130.44Z"/><path class="cls-1" d="M640.72,1142.11h0l-.46-.8.49.28c1.29.7,2.63,1.34,4,2a50.61,50.61,0,0,1,11.25,6.76l-11.66,6.42s0,.08,0,.14l-.12-.07h0C641,1150.94,640.47,1146.58,640.72,1142.11Z"/><path class="cls-1" d="M605.19,1110.76a39.46,39.46,0,0,1-4.91-14.65,52.37,52.37,0,0,1,.38-12.55c.21-1.74.41-3.39.49-5l-.09-.17.1.05c3.87,2.18,7.22,5,10.44,10.81l0,0c.19.34.36.68.53,1a24.83,24.83,0,0,0,3,13.72l0,.54c-.1,1.46-.28,3-.46,4.52a50.1,50.1,0,0,0-.29,13.25A39.69,39.69,0,0,1,605.19,1110.76Z"/><path class="cls-1" d="M586.45,1052.58a.17.17,0,0,0,0-.07l11.85-6.53.05,0a39.26,39.26,0,0,1,9.75,12,39.68,39.68,0,0,1,4.82,14,49.92,49.92,0,0,0-11.35-6.84c-1.42-.68-2.77-1.33-4.06-2a4.67,4.67,0,0,1-.49-.27,24.73,24.73,0,0,0-10-9.89Z"/><path class="cls-1" d="M586.38,1052.55l.08,0a.17.17,0,0,1,0,.07Z"/><path class="cls-1" d="M633.76,1162.63a39.54,39.54,0,0,1-4.9-14.51,51.91,51.91,0,0,1,.37-12.68c.18-1.51.34-3,.44-4.36,0-.23,0-.44.05-.67v0c.18.33.37.65.56,1a24.81,24.81,0,0,1,10,9.89l.46.8h0c-.25,4.47.3,8.83,3.55,14.74Z"/><path class="cls-1" d="M615.6,1104.77c-.15-.27-.28-.53-.42-.79a24.83,24.83,0,0,1-3-13.72c-.17-.32-.34-.66-.53-1l0,0,.59.32c1.25.68,2.56,1.31,3.93,2A52,52,0,0,1,627,1098a43.2,43.2,0,0,1,14.55,26.54,51.66,51.66,0,0,0-10.81-6.39c-1.59-.77-3.09-1.49-4.51-2.29l-.1-.18C622.91,1109.75,619.52,1107,615.6,1104.77Z"/><path class="cls-1" d="M590.53,1084.13a39.31,39.31,0,0,1-4.89-14.51A51.32,51.32,0,0,1,586,1057c.17-1.51.34-3,.44-4.37l.62.34a24.73,24.73,0,0,1,10,9.89c.16.26.31.52.46.79h0c-.25,4.48.3,8.83,3.55,14.74l.1.19c-.08,1.63-.28,3.28-.49,5a52.37,52.37,0,0,0-.38,12.55A39,39,0,0,1,590.53,1084.13Z"/><path class="cls-1" d="M598.31,1046l0,0a.13.13,0,0,1,0,.06Z"/><path class="cls-1" d="M676.82,1240.82a39.47,39.47,0,0,1-4.82-13.93,49.76,49.76,0,0,1,.29-13.26c.18-1.56.36-3.06.46-4.52,0-.18,0-.36,0-.54.13.27.27.53.41.8,3.93,2.19,7.31,5,10.57,10.89l0,0a.34.34,0,0,0,0,.1,25.28,25.28,0,0,0,3.54,14.62c0,.22,0,.44,0,.66-.1,1.42-.27,2.86-.44,4.36a52,52,0,0,0-.37,12.69A39.41,39.41,0,0,1,676.82,1240.82Z"/><path class="cls-1" d="M655.1,1168.21h0c-.15-.28-.3-.53-.46-.79a4.59,4.59,0,0,0,.49.26c1.29.7,2.64,1.35,4.06,2a50.13,50.13,0,0,1,11.35,6.84,43.31,43.31,0,0,1,14.09,26,51.22,51.22,0,0,0-10.91-6.46c-1.36-.66-2.67-1.29-3.92-2l-.59-.33c-3.23-5.84-6.58-8.63-10.45-10.8l-.09,0,0,0C655.39,1177,654.85,1172.69,655.1,1168.21Z"/><path class="cls-1" d="M633.82,1162.74l10.24-5.64a.22.22,0,0,0,0,.08c-.1,1.42-.27,2.86-.45,4.36a51.9,51.9,0,0,0-.37,12.68A39.11,39.11,0,0,1,633.82,1162.74Z"/><path class="cls-1" d="M687.33,1235l0,0a25.28,25.28,0,0,1-3.54-14.62.34.34,0,0,1,0-.1l.08.15c1.42.8,2.92,1.52,4.51,2.28a52.1,52.1,0,0,1,10.81,6.39,39.26,39.26,0,0,1,9.75,12,39.87,39.87,0,0,1,4.8,13.82s0,.09,0,.13l-.1-.09a50.54,50.54,0,0,0-11.25-6.75c-1.42-.68-2.77-1.33-4-2l-.5-.27a24.79,24.79,0,0,0-10-9.89C687.7,1235.69,687.51,1235.36,687.33,1235Z"/><path class="cls-1" d="M698.32,1246.7h0c-.15-.27-.3-.53-.46-.79l.5.27c1.28.7,2.63,1.35,4,2a50.54,50.54,0,0,1,11.25,6.75L702,1261.38v.13l-.12-.06h0C698.61,1255.53,698.07,1251.18,698.32,1246.7Z"/><path class="cls-1" d="M662.79,1215.35a39,39,0,0,1-4.91-14.64,51.93,51.93,0,0,1,.38-12.56c.2-1.74.41-3.38.49-5l-.09-.17.09,0c3.87,2.17,7.22,5,10.45,10.8l0,0c.19.34.36.67.53,1a24.78,24.78,0,0,0,3,13.71c0,.18,0,.36,0,.54-.1,1.46-.28,3-.46,4.52a49.76,49.76,0,0,0-.29,13.26A39.72,39.72,0,0,1,662.79,1215.35Z"/><path class="cls-1" d="M644.05,1157.18a.22.22,0,0,1,0-.08l11.84-6.52.06,0a43.32,43.32,0,0,1,14.57,25.93,50.13,50.13,0,0,0-11.35-6.84c-1.42-.69-2.77-1.34-4.06-2a4.59,4.59,0,0,1-.49-.26,24.84,24.84,0,0,0-10-9.9C644.46,1157.39,644.25,1157.29,644.05,1157.18Z"/><path class="cls-1" d="M644,1157.15l.08-.05a.22.22,0,0,0,0,.08Z"/><path class="cls-1" d="M691.36,1267.23a39.17,39.17,0,0,1-4.9-14.51,52,52,0,0,1,.37-12.69c.17-1.5.34-2.94.44-4.36,0-.22,0-.44,0-.66l0,0c.18.33.37.66.56,1a24.79,24.79,0,0,1,10,9.89c.16.26.31.52.46.79h0c-.25,4.48.29,8.83,3.55,14.74Z"/><path class="cls-1" d="M673.19,1209.37c-.14-.27-.28-.53-.41-.8a24.78,24.78,0,0,1-3-13.71c-.17-.33-.34-.66-.53-1l0,0,.59.33c1.25.67,2.56,1.3,3.92,2a51.22,51.22,0,0,1,10.91,6.46,43.22,43.22,0,0,1,14.56,26.54,52.1,52.1,0,0,0-10.81-6.39c-1.59-.76-3.09-1.48-4.51-2.28l-.1-.18C680.5,1214.35,677.12,1211.56,673.19,1209.37Z"/><path class="cls-1" d="M648.13,1188.73a39.54,39.54,0,0,1-4.9-14.51,51.9,51.9,0,0,1,.37-12.68c.18-1.5.35-2.94.45-4.36.2.11.41.21.61.33a24.84,24.84,0,0,1,10,9.9c.16.26.31.51.46.79h0c-.25,4.48.29,8.83,3.54,14.73l.11.2c-.08,1.63-.29,3.27-.49,5a51.93,51.93,0,0,0-.38,12.56A39.26,39.26,0,0,1,648.13,1188.73Z"/><path class="cls-1" d="M655.9,1150.58l.05,0s0,0,0,.06Z"/><path class="cls-1" d="M734.41,1345.42a39.91,39.91,0,0,1-4.82-13.94,50.08,50.08,0,0,1,.3-13.25c.17-1.56.35-3.06.45-4.52,0-.18,0-.36,0-.54.14.26.27.53.42.79,3.92,2.19,7.31,5,10.56,10.89l0,0a.27.27,0,0,0,0,.09,25.17,25.17,0,0,0,3.54,14.62c0,.23,0,.44,0,.67-.1,1.41-.26,2.85-.44,4.36a51.94,51.94,0,0,0-.36,12.68A39.25,39.25,0,0,1,734.41,1345.42Z"/><path class="cls-1" d="M712.69,1272.81h0c-.15-.28-.31-.53-.46-.8a4.67,4.67,0,0,0,.49.27c1.28.7,2.64,1.35,4,2a50.12,50.12,0,0,1,11.36,6.83,39.78,39.78,0,0,1,9.2,11.53,39.21,39.21,0,0,1,4.89,14.5,51.71,51.71,0,0,0-10.91-6.47c-1.37-.65-2.67-1.28-3.92-2l-.59-.33c-3.23-5.84-6.58-8.63-10.45-10.8l-.1-.06v0C713,1281.64,712.44,1277.28,712.69,1272.81Z"/><path class="cls-1" d="M691.42,1267.34l10.24-5.64,0,.08c-.1,1.41-.26,2.85-.44,4.36a51.81,51.81,0,0,0-.37,12.67A39.06,39.06,0,0,1,691.42,1267.34Z"/><path class="cls-1" d="M744.92,1339.63v0a25.17,25.17,0,0,1-3.54-14.62.27.27,0,0,1,0-.09l.08.14c1.42.8,2.93,1.52,4.51,2.29a51.71,51.71,0,0,1,10.82,6.39,39,39,0,0,1,9.74,12,39.57,39.57,0,0,1,4.81,13.82s0,.08,0,.12a.39.39,0,0,1-.1-.08A50.37,50.37,0,0,0,760,1352.8c-1.41-.69-2.76-1.33-4-2l-.49-.28a24.87,24.87,0,0,0-10-9.89Z"/><path class="cls-1" d="M755.91,1351.3h0c-.15-.28-.3-.53-.46-.8l.49.28c1.29.7,2.64,1.34,4,2a50.37,50.37,0,0,1,11.26,6.75L759.58,1366a.66.66,0,0,1,0,.13l-.11-.07h0C756.21,1360.13,755.66,1355.78,755.91,1351.3Z"/><path class="cls-1" d="M720.39,1320a39.27,39.27,0,0,1-4.92-14.64,51.9,51.9,0,0,1,.39-12.56c.2-1.74.4-3.39.49-5l-.1-.17.1.06c3.87,2.17,7.22,5,10.45,10.8l0,0c.18.34.36.68.52,1a24.89,24.89,0,0,0,3,13.71c0,.18,0,.36,0,.54-.1,1.46-.28,3-.45,4.52a50.08,50.08,0,0,0-.3,13.25A39.68,39.68,0,0,1,720.39,1320Z"/><path class="cls-1" d="M701.64,1261.78l0-.08,11.84-6.52.06,0a39.14,39.14,0,0,1,9.74,12,39.68,39.68,0,0,1,4.83,13.94,50.12,50.12,0,0,0-11.36-6.83c-1.41-.69-2.77-1.34-4-2a4.67,4.67,0,0,1-.49-.27,24.81,24.81,0,0,0-10-9.89C702.06,1262,701.85,1261.88,701.64,1261.78Z"/><path class="cls-1" d="M701.58,1261.74l.08,0,0,.08Z"/><path class="cls-1" d="M749,1371.83a39.35,39.35,0,0,1-4.89-14.52,51.94,51.94,0,0,1,.36-12.68c.18-1.51.34-3,.44-4.36,0-.23,0-.44,0-.67v0l.56,1a24.87,24.87,0,0,1,10,9.89c.16.27.31.52.46.8h0c-.25,4.48.3,8.83,3.56,14.74Z"/><path class="cls-1" d="M730.79,1314c-.15-.26-.28-.53-.42-.79a24.89,24.89,0,0,1-3-13.71c-.16-.33-.34-.67-.52-1l0,0,.59.33c1.25.67,2.55,1.3,3.92,2a51.71,51.71,0,0,1,10.91,6.47,43.22,43.22,0,0,1,14.56,26.54,51.71,51.71,0,0,0-10.82-6.39c-1.58-.77-3.09-1.49-4.51-2.29l-.1-.18C738.1,1318.94,734.71,1316.15,730.79,1314Z"/><path class="cls-1" d="M705.73,1293.33a39.27,39.27,0,0,1-4.9-14.52,51.81,51.81,0,0,1,.37-12.67c.18-1.51.34-3,.44-4.36.21.1.42.21.62.33a24.81,24.81,0,0,1,10,9.89c.15.27.31.52.46.8h0c-.25,4.47.3,8.83,3.55,14.73l.11.19c-.09,1.63-.29,3.28-.49,5a51.9,51.9,0,0,0-.39,12.56A39.24,39.24,0,0,1,705.73,1293.33Z"/><path class="cls-1" d="M713.5,1255.18l0,0a.64.64,0,0,1,0,.07Z"/><path class="cls-1" d="M792,1450a39.67,39.67,0,0,1-4.82-13.93,50.1,50.1,0,0,1,.29-13.25c.18-1.57.36-3.06.46-4.52l0-.55c.14.27.27.53.42.8,3.92,2.19,7.31,5,10.56,10.89l0,0a.14.14,0,0,0,0,.09c-.24,4.43.31,8.76,3.54,14.62,0,.23,0,.44,0,.66-.1,1.42-.26,2.86-.44,4.37a51.91,51.91,0,0,0-.37,12.68A39.29,39.29,0,0,1,792,1450Z"/><path class="cls-1" d="M770.29,1377.4h0c-.15-.27-.3-.53-.46-.79a4.59,4.59,0,0,0,.49.26c1.29.7,2.64,1.36,4.06,2a49.92,49.92,0,0,1,11.35,6.84,43.39,43.39,0,0,1,14.1,26,51.89,51.89,0,0,0-10.91-6.46c-1.37-.66-2.68-1.29-3.93-2l-.59-.32c-3.22-5.85-6.57-8.63-10.44-10.81l-.1,0v0C770.59,1386.23,770,1381.88,770.29,1377.4Z"/><path class="cls-1" d="M749,1371.93l10.24-5.64a.22.22,0,0,1,0,.08c-.1,1.42-.27,2.86-.44,4.36a51.42,51.42,0,0,0-.37,12.68A39.15,39.15,0,0,1,749,1371.93Z"/><path class="cls-1" d="M802.52,1444.23v0c-3.23-5.86-3.78-10.19-3.54-14.62a.14.14,0,0,1,0-.09l.08.14c1.42.8,2.92,1.52,4.51,2.28a52.1,52.1,0,0,1,10.81,6.39,39.26,39.26,0,0,1,9.75,12,39.66,39.66,0,0,1,4.8,13.82l0,.13-.11-.08a50.23,50.23,0,0,0-11.25-6.76c-1.42-.68-2.76-1.33-4.05-2l-.49-.28a24.81,24.81,0,0,0-10-9.89C802.89,1444.88,802.7,1444.56,802.52,1444.23Z"/><path class="cls-1" d="M813.51,1455.89h0l-.46-.79.49.28c1.29.69,2.63,1.34,4.05,2a50.23,50.23,0,0,1,11.25,6.76l-11.66,6.42s0,.08,0,.13l-.12-.06h0C813.81,1464.72,813.26,1460.37,813.51,1455.89Z"/><path class="cls-1" d="M778,1424.54a39.36,39.36,0,0,1-4.91-14.64,52.34,52.34,0,0,1,.38-12.55c.21-1.75.41-3.39.49-5l-.09-.17.1,0c3.87,2.18,7.22,5,10.44,10.81l0,0c.19.34.36.68.53,1a24.78,24.78,0,0,0,3,13.71l0,.55c-.1,1.46-.28,3-.46,4.52a50.1,50.1,0,0,0-.29,13.25A39.88,39.88,0,0,1,778,1424.54Z"/><path class="cls-1" d="M759.24,1366.37a.22.22,0,0,0,0-.08l11.85-6.52a.1.1,0,0,0,0,0,39.26,39.26,0,0,1,9.75,12,39.68,39.68,0,0,1,4.82,14,49.92,49.92,0,0,0-11.35-6.84c-1.42-.68-2.77-1.34-4.06-2a4.59,4.59,0,0,1-.49-.26,24.67,24.67,0,0,0-10-9.89Z"/><path class="cls-1" d="M759.17,1366.34l.08,0a.22.22,0,0,1,0,.08Z"/><path class="cls-1" d="M806.55,1476.42a39.54,39.54,0,0,1-4.9-14.51,51.91,51.91,0,0,1,.37-12.68c.18-1.51.34-3,.44-4.37,0-.22,0-.43,0-.66v0c.18.33.37.65.56,1a24.81,24.81,0,0,1,10,9.89l.46.79h0c-.25,4.48.3,8.83,3.55,14.74Z"/><path class="cls-1" d="M788.39,1418.56c-.15-.27-.28-.53-.42-.8a24.78,24.78,0,0,1-3-13.71c-.17-.32-.34-.66-.53-1l0,0,.59.32c1.25.67,2.56,1.3,3.93,2a51.89,51.89,0,0,1,10.91,6.46,39.41,39.41,0,0,1,9.64,11.9,39,39,0,0,1,4.91,14.64,52.1,52.1,0,0,0-10.81-6.39c-1.59-.76-3.09-1.48-4.51-2.28l-.1-.18C795.7,1423.54,792.31,1420.75,788.39,1418.56Z"/><path class="cls-1" d="M763.32,1397.92a39.31,39.31,0,0,1-4.89-14.51,51.42,51.42,0,0,1,.37-12.68c.17-1.5.34-2.94.44-4.36l.62.34a24.67,24.67,0,0,1,10,9.89c.16.26.31.52.46.79h0c-.25,4.48.3,8.83,3.55,14.73l.1.2c-.08,1.63-.28,3.27-.49,5a52.34,52.34,0,0,0-.38,12.55A39.26,39.26,0,0,1,763.32,1397.92Z"/><path class="cls-1" d="M771.1,1359.77l0,0a.13.13,0,0,1,0,.06A.1.1,0,0,1,771.1,1359.77Z"/><path class="cls-1" d="M849.61,1554.61a39.51,39.51,0,0,1-4.82-13.94,49.7,49.7,0,0,1,.29-13.25c.18-1.56.36-3.06.46-4.52,0-.18,0-.36,0-.54l.41.8c3.93,2.19,7.31,5,10.57,10.89l0,0a.34.34,0,0,0,0,.1,25.28,25.28,0,0,0,3.54,14.62c0,.22,0,.44,0,.66-.1,1.42-.27,2.86-.44,4.36a52,52,0,0,0-.37,12.69A39.41,39.41,0,0,1,849.61,1554.61Z"/><path class="cls-1" d="M827.89,1482h0c-.15-.28-.3-.53-.46-.8a4.67,4.67,0,0,0,.49.27c1.29.7,2.64,1.35,4.06,2a50.07,50.07,0,0,1,11.35,6.83,39.75,39.75,0,0,1,9.2,11.53,39.21,39.21,0,0,1,4.89,14.5,51.22,51.22,0,0,0-10.91-6.46c-1.36-.66-2.67-1.29-3.92-2l-.59-.33c-3.23-5.84-6.58-8.63-10.45-10.8l-.09,0,0,0C828.18,1490.83,827.64,1486.48,827.89,1482Z"/><path class="cls-1" d="M806.61,1476.53l10.24-5.64a.22.22,0,0,0,0,.08c-.1,1.41-.27,2.85-.45,4.36A51.88,51.88,0,0,0,816,1488,39.11,39.11,0,0,1,806.61,1476.53Z"/><path class="cls-1" d="M860.12,1548.82l0,0a25.28,25.28,0,0,1-3.54-14.62.34.34,0,0,1,0-.1l.08.14c1.42.8,2.92,1.52,4.51,2.29A52.1,52.1,0,0,1,872,1542.9a39.26,39.26,0,0,1,9.75,12,39.8,39.8,0,0,1,4.8,13.82s0,.08,0,.13l-.1-.09a50.54,50.54,0,0,0-11.25-6.75c-1.42-.69-2.77-1.33-4.05-2l-.5-.27a24.89,24.89,0,0,0-10-9.9C860.49,1549.48,860.3,1549.15,860.12,1548.82Z"/><path class="cls-1" d="M871.11,1560.49h0c-.15-.28-.3-.53-.46-.79l.5.27c1.28.7,2.63,1.34,4.05,2a50.54,50.54,0,0,1,11.25,6.75l-11.67,6.43v.13l-.12-.07h0C871.4,1569.32,870.86,1565,871.11,1560.49Z"/><path class="cls-1" d="M835.58,1529.14a39,39,0,0,1-4.91-14.64,51.93,51.93,0,0,1,.38-12.56c.2-1.74.41-3.39.49-5l-.09-.17.09,0c3.87,2.17,7.22,5,10.45,10.8l0,0c.19.34.36.67.53,1a24.78,24.78,0,0,0,3,13.71c0,.18,0,.36,0,.54-.1,1.46-.28,3-.46,4.52a49.7,49.7,0,0,0-.29,13.25A39.53,39.53,0,0,1,835.58,1529.14Z"/><path class="cls-1" d="M816.84,1471a.22.22,0,0,1,0-.08l11.84-6.52.06,0a39.13,39.13,0,0,1,9.75,12,39.64,39.64,0,0,1,4.82,13.94A50.07,50.07,0,0,0,832,1483.5c-1.42-.69-2.77-1.34-4.06-2a4.67,4.67,0,0,1-.49-.27,24.87,24.87,0,0,0-10-9.89C817.25,1471.18,817,1471.08,816.84,1471Z"/><path class="cls-1" d="M816.77,1470.93l.08,0a.22.22,0,0,0,0,.08Z"/><path class="cls-1" d="M864.15,1581a39.22,39.22,0,0,1-4.9-14.51,52,52,0,0,1,.37-12.69c.17-1.5.34-2.94.44-4.36,0-.22,0-.44,0-.66l0,0c.18.33.37.66.56,1a24.89,24.89,0,0,1,10,9.9c.16.26.31.51.46.79h0c-.25,4.48.29,8.83,3.55,14.74Z"/><path class="cls-1" d="M846,1523.16l-.41-.8a24.78,24.78,0,0,1-3-13.71c-.17-.33-.34-.66-.53-1l0,0,.59.33c1.25.67,2.56,1.3,3.92,2a51.22,51.22,0,0,1,10.91,6.46A43.22,43.22,0,0,1,872,1542.9a52.1,52.1,0,0,0-10.81-6.39c-1.59-.77-3.09-1.49-4.51-2.29l-.1-.17C853.29,1528.14,849.91,1525.35,846,1523.16Z"/><path class="cls-1" d="M820.92,1502.52A39.6,39.6,0,0,1,816,1488a51.88,51.88,0,0,1,.37-12.68c.18-1.51.35-2.95.45-4.36.2.11.41.21.61.33a24.87,24.87,0,0,1,10,9.89c.16.27.31.52.46.8h0c-.25,4.48.29,8.83,3.54,14.73l.11.2c-.08,1.62-.29,3.27-.49,5a51.93,51.93,0,0,0-.38,12.56A39.26,39.26,0,0,1,820.92,1502.52Z"/><path class="cls-1" d="M828.69,1464.37l0,0a.17.17,0,0,1,0,.07Z"/><path class="cls-1" d="M907.2,1659.21a39.91,39.91,0,0,1-4.82-13.94,50.08,50.08,0,0,1,.3-13.25c.17-1.57.35-3.06.45-4.52,0-.18,0-.36,0-.54.14.26.27.52.42.79,3.92,2.19,7.31,5,10.56,10.89l0,0a.27.27,0,0,0,0,.09,25.2,25.2,0,0,0,3.54,14.62c0,.23,0,.44-.05.67-.1,1.41-.26,2.85-.44,4.36a51.94,51.94,0,0,0-.36,12.68A39.25,39.25,0,0,1,907.2,1659.21Z"/><path class="cls-1" d="M885.48,1586.59h0c-.15-.27-.31-.53-.46-.79a4.67,4.67,0,0,0,.49.27c1.28.7,2.64,1.35,4,2a50.18,50.18,0,0,1,11.36,6.84,39.73,39.73,0,0,1,9.2,11.52A39.31,39.31,0,0,1,915,1621a51.71,51.71,0,0,0-10.91-6.47c-1.37-.65-2.67-1.28-3.92-2l-.59-.32c-3.23-5.85-6.58-8.63-10.45-10.81l-.1-.05v0C885.78,1595.42,885.23,1591.07,885.48,1586.59Z"/><path class="cls-1" d="M864.21,1581.13l10.24-5.64s0,0,0,.07c-.1,1.42-.26,2.86-.44,4.37a51.81,51.81,0,0,0-.37,12.67A39.06,39.06,0,0,1,864.21,1581.13Z"/><path class="cls-1" d="M917.71,1653.42v0a25.2,25.2,0,0,1-3.54-14.62.27.27,0,0,1,0-.09l.08.14c1.42.8,2.93,1.52,4.51,2.29a51.71,51.71,0,0,1,10.82,6.39,38.86,38.86,0,0,1,9.74,12,39.59,39.59,0,0,1,4.81,13.81s0,.09,0,.13a.87.87,0,0,1-.1-.08,50,50,0,0,0-11.26-6.75c-1.41-.69-2.76-1.33-4-2l-.49-.28a24.81,24.81,0,0,0-10-9.89Z"/><path class="cls-1" d="M928.7,1665.09h0c-.15-.28-.3-.53-.46-.8l.49.28c1.29.7,2.64,1.34,4,2a50,50,0,0,1,11.26,6.75l-11.67,6.42a.76.76,0,0,1,0,.14l-.11-.07h0C929,1673.92,928.45,1669.56,928.7,1665.09Z"/><path class="cls-1" d="M893.18,1633.74a39.31,39.31,0,0,1-4.92-14.65,51.83,51.83,0,0,1,.39-12.55c.2-1.74.4-3.39.49-5l-.1-.17.1.05c3.87,2.18,7.22,5,10.45,10.81l0,0c.18.34.36.68.52,1a24.92,24.92,0,0,0,3,13.72c0,.18,0,.36,0,.54-.1,1.46-.28,3-.45,4.52a50.08,50.08,0,0,0-.3,13.25A39.68,39.68,0,0,1,893.18,1633.74Z"/><path class="cls-1" d="M874.43,1575.56s0,0,0-.07l11.84-6.52.06,0a43.45,43.45,0,0,1,14.57,25.93,50.18,50.18,0,0,0-11.36-6.84c-1.41-.68-2.77-1.33-4-2a4.67,4.67,0,0,1-.49-.27,24.81,24.81,0,0,0-10-9.89C874.85,1575.78,874.64,1575.67,874.43,1575.56Z"/><path class="cls-1" d="M874.37,1575.53l.08,0s0,0,0,.07Z"/><path class="cls-1" d="M921.74,1685.61a39.31,39.31,0,0,1-4.89-14.51,51.94,51.94,0,0,1,.36-12.68c.18-1.51.34-3,.44-4.36,0-.23,0-.44.05-.67v0l.56,1a24.81,24.81,0,0,1,10,9.89c.16.27.31.52.46.8h0c-.25,4.47.3,8.83,3.56,14.74Z"/><path class="cls-1" d="M903.58,1627.75c-.15-.27-.28-.53-.42-.79a24.92,24.92,0,0,1-3-13.72c-.16-.32-.34-.66-.52-1l0,0,.59.32c1.25.68,2.55,1.31,3.92,2A51.71,51.71,0,0,1,915,1621a43.15,43.15,0,0,1,14.56,26.54,51.71,51.71,0,0,0-10.82-6.39c-1.58-.77-3.09-1.49-4.51-2.29l-.1-.18C910.89,1632.73,907.5,1629.94,903.58,1627.75Z"/><path class="cls-1" d="M878.52,1607.11a39.17,39.17,0,0,1-4.9-14.51,51.81,51.81,0,0,1,.37-12.67c.18-1.51.34-3,.44-4.37.21.11.42.22.62.34a24.81,24.81,0,0,1,10,9.89c.15.26.31.52.46.79h0c-.25,4.48.3,8.83,3.55,14.74l.11.19c-.09,1.63-.29,3.28-.49,5a51.83,51.83,0,0,0-.39,12.55A39,39,0,0,1,878.52,1607.11Z"/><path class="cls-1" d="M886.29,1569l0,0,0,.06Z"/><path class="cls-1" d="M964.8,1763.8a39.67,39.67,0,0,1-4.82-13.93,50.18,50.18,0,0,1,.29-13.26c.18-1.56.36-3,.46-4.52l0-.54c.14.27.27.53.42.8,3.92,2.19,7.31,5,10.56,10.89l0,0a.17.17,0,0,0,0,.1c-.24,4.43.31,8.76,3.54,14.62,0,.22,0,.44,0,.66-.1,1.42-.26,2.86-.44,4.36a52,52,0,0,0-.37,12.69A39.29,39.29,0,0,1,964.8,1763.8Z"/><path class="cls-1" d="M943.08,1691.19h0c-.15-.28-.3-.53-.46-.79a4.59,4.59,0,0,0,.49.26c1.29.7,2.64,1.35,4.06,2a49.92,49.92,0,0,1,11.35,6.84,43.39,43.39,0,0,1,14.1,26,51.47,51.47,0,0,0-10.91-6.46c-1.37-.66-2.68-1.29-3.93-2l-.59-.33c-3.22-5.84-6.57-8.63-10.44-10.8l-.1,0v0C943.38,1700,942.83,1695.67,943.08,1691.19Z"/><path class="cls-1" d="M921.8,1685.72l10.24-5.64a.22.22,0,0,1,0,.08c-.1,1.42-.27,2.86-.44,4.36a51.4,51.4,0,0,0-.37,12.68A39.28,39.28,0,0,1,921.8,1685.72Z"/><path class="cls-1" d="M975.31,1758v0c-3.23-5.86-3.78-10.19-3.54-14.62a.17.17,0,0,1,0-.1l.08.15c1.42.8,2.92,1.52,4.51,2.28a52.1,52.1,0,0,1,10.81,6.39,39.26,39.26,0,0,1,9.75,12,39.66,39.66,0,0,1,4.8,13.82l0,.13-.11-.09a50.54,50.54,0,0,0-11.25-6.75c-1.42-.68-2.76-1.33-4-2l-.49-.27a24.74,24.74,0,0,0-10-9.89C975.68,1758.67,975.49,1758.34,975.31,1758Z"/><path class="cls-1" d="M986.3,1769.68h0l-.46-.79.49.27c1.29.7,2.63,1.35,4,2a50.54,50.54,0,0,1,11.25,6.75L990,1784.36s0,.08,0,.13l-.12-.06h0C986.6,1778.51,986.05,1774.16,986.3,1769.68Z"/><path class="cls-1" d="M950.77,1738.33a39.36,39.36,0,0,1-4.91-14.64,52.34,52.34,0,0,1,.38-12.55c.21-1.75.41-3.39.49-5l-.09-.17.1,0c3.87,2.17,7.22,5,10.44,10.8l0,0c.19.34.36.67.53,1a24.78,24.78,0,0,0,3,13.71l0,.54c-.1,1.47-.28,3-.46,4.52a50.18,50.18,0,0,0-.29,13.26A39.88,39.88,0,0,1,950.77,1738.33Z"/><path class="cls-1" d="M932,1680.16a.22.22,0,0,0,0-.08l11.85-6.52.05,0a43.32,43.32,0,0,1,14.57,25.93,49.92,49.92,0,0,0-11.35-6.84c-1.42-.69-2.77-1.34-4.06-2a4.59,4.59,0,0,1-.49-.26,24.76,24.76,0,0,0-10-9.9Z"/><path class="cls-1" d="M932,1680.13l.08-.05a.22.22,0,0,1,0,.08Z"/><path class="cls-1" d="M979.34,1790.21a39.54,39.54,0,0,1-4.9-14.51,52,52,0,0,1,.37-12.69c.18-1.5.34-2.94.44-4.36,0-.22,0-.44,0-.66v0c.18.33.37.66.56,1a24.74,24.74,0,0,1,10,9.89l.46.79h0c-.25,4.48.3,8.83,3.55,14.74Z"/><path class="cls-1" d="M961.18,1732.35c-.15-.27-.28-.53-.42-.8a24.78,24.78,0,0,1-3-13.71c-.17-.33-.34-.66-.53-1l0,0,.59.33c1.25.67,2.56,1.3,3.93,2a51.47,51.47,0,0,1,10.91,6.46,39.41,39.41,0,0,1,9.64,11.9,39,39,0,0,1,4.91,14.64,52.1,52.1,0,0,0-10.81-6.39c-1.59-.76-3.09-1.48-4.51-2.28l-.1-.18C968.49,1737.33,965.1,1734.54,961.18,1732.35Z"/><path class="cls-1" d="M936.11,1711.71a39.31,39.31,0,0,1-4.89-14.51,51.4,51.4,0,0,1,.37-12.68c.17-1.5.34-2.94.44-4.36l.62.33a24.76,24.76,0,0,1,10,9.9c.16.26.31.51.46.79h0c-.25,4.48.3,8.83,3.55,14.73l.1.2c-.08,1.63-.28,3.27-.49,5a52.34,52.34,0,0,0-.38,12.55A39.26,39.26,0,0,1,936.11,1711.71Z"/><path class="cls-1" d="M943.89,1673.56l0,0s0,0,0,.06Z"/><path class="cls-2" d="M43.13,90.05a39.13,39.13,0,0,1-4.76-13.83,49.79,49.79,0,0,1,.34-13.17c.19-1.55.37-3,.47-4.49,0-.18,0-.36,0-.54.13.26.26.52.41.79,3.91,2.16,7.28,4.92,10.5,10.78l0,0a.14.14,0,0,0,0,.09,24.78,24.78,0,0,0,3.48,14.51c0,.23,0,.44-.05.66-.1,1.41-.27,2.84-.45,4.34a51.16,51.16,0,0,0-.41,12.6A38.66,38.66,0,0,1,43.13,90.05Z"/><path class="cls-2" d="M21.72,18h0c-.15-.28-.3-.53-.46-.79a4.59,4.59,0,0,0,.49.26c1.28.69,2.63,1.33,4,2a49.51,49.51,0,0,1,11.31,6.75,39,39,0,0,1,9.14,11.42A38.6,38.6,0,0,1,51.06,52,50.83,50.83,0,0,0,40.2,45.64c-1.37-.65-2.67-1.27-3.91-1.94l-.59-.32c-3.2-5.79-6.53-8.55-10.39-10.7l-.09,0,0,0C22,26.76,21.45,22.43,21.72,18Z"/><path class="cls-2" d="M10.73,7.07c-.11,1.4-.28,2.83-.46,4.33A51.58,51.58,0,0,0,9.85,24,38.67,38.67,0,0,1,.5,12.63"/><path class="cls-2" d="M53.64,84.26v0a24.78,24.78,0,0,1-3.48-14.51.14.14,0,0,1,0-.09l.08.14c1.42.79,2.92,1.5,4.5,2.25A52.21,52.21,0,0,1,65.5,78.33,38.54,38.54,0,0,1,75.18,90.2a39,39,0,0,1,4.74,13.71l0,.13-.11-.08a49.77,49.77,0,0,0-11.2-6.67c-1.41-.68-2.76-1.31-4-2-.16-.1-.32-.18-.49-.27a24.42,24.42,0,0,0-9.91-9.8C54,84.91,53.82,84.59,53.64,84.26Z"/><path class="cls-2" d="M68.05,110.45h0c-3.22-5.86-3.76-10.18-3.49-14.63h0c-.15-.27-.3-.52-.46-.78.17.09.33.17.49.27,1.28.69,2.63,1.32,4,2A49.77,49.77,0,0,1,79.84,104"/><path class="cls-2" d="M29.23,64.79a38.22,38.22,0,0,1-4.85-14.53,51.08,51.08,0,0,1,.42-12.47c.21-1.73.42-3.37.51-5l-.09-.17.09,0c3.86,2.15,7.19,4.91,10.39,10.7l0,0c.18.33.36.66.52,1a24.45,24.45,0,0,0,3,13.61c0,.18,0,.36,0,.54-.1,1.45-.28,2.94-.47,4.49a49.79,49.79,0,0,0-.34,13.17A39,39,0,0,1,29.23,64.79Z"/><path class="cls-2" d="M22.64.51a38.49,38.49,0,0,1,9.68,11.86,39.14,39.14,0,0,1,4.77,13.84,49.51,49.51,0,0,0-11.31-6.75c-1.41-.68-2.76-1.32-4-2a4.59,4.59,0,0,1-.49-.26A24.33,24.33,0,0,0,11.34,7.4c-.2-.12-.41-.23-.61-.33a.22.22,0,0,1,0-.08"/><path class="cls-3" d="M10.66,7l.08,0a.22.22,0,0,0,0,.08Z"/><path class="cls-2" d="M57.55,116.23a38.51,38.51,0,0,1-4.83-14.4,51.16,51.16,0,0,1,.41-12.6c.18-1.5.35-2.93.45-4.34,0-.22,0-.43.05-.66v0c.18.33.37.65.56,1A24.42,24.42,0,0,1,64.11,95c.16.26.31.51.46.78h0c-.27,4.45.27,8.77,3.49,14.63"/><path class="cls-2" d="M39.63,58.81c-.15-.27-.28-.53-.41-.79a24.45,24.45,0,0,1-3-13.61c-.16-.33-.34-.66-.52-1l0,0,.59.32c1.24.67,2.54,1.29,3.91,1.94A50.83,50.83,0,0,1,51.06,52,38.5,38.5,0,0,1,60.64,63.8,38.49,38.49,0,0,1,65.5,78.33,52.21,52.21,0,0,0,54.73,72c-1.58-.75-3.08-1.46-4.5-2.25l-.1-.18C46.91,63.73,43.54,61,39.63,58.81Z"/><path class="cls-2" d="M10.73,7.07c.2.1.41.21.61.33a24.33,24.33,0,0,1,9.91,9.79c.16.26.31.51.46.79h0c-.27,4.45.26,8.78,3.48,14.63l.11.19c-.09,1.62-.3,3.26-.51,5a51.08,51.08,0,0,0-.42,12.47A38.48,38.48,0,0,1,14.69,38.4,38.85,38.85,0,0,1,9.85,24a51.58,51.58,0,0,1,.42-12.6c.18-1.5.35-2.93.46-4.33"/><path class="cls-3" d="M22.64.51l-.06,0,.05,0a.15.15,0,0,1,0,.07"/><path class="cls-2" d="M100.73,194.64A39,39,0,0,1,96,180.81a49.31,49.31,0,0,1,.34-13.16c.18-1.56.37-3,.47-4.49l0-.54c.14.26.27.52.42.79,3.9,2.16,7.27,4.92,10.5,10.78l0,0a.34.34,0,0,0,0,.1,24.91,24.91,0,0,0,3.49,14.51c0,.22,0,.44,0,.66-.11,1.41-.28,2.84-.46,4.33a51.73,51.73,0,0,0-.41,12.61A38.85,38.85,0,0,1,100.73,194.64Z"/><path class="cls-2" d="M79.31,122.58h0c-.15-.27-.3-.53-.46-.79a4.67,4.67,0,0,0,.49.27c1.28.69,2.63,1.33,4,2a49.51,49.51,0,0,1,11.31,6.75,39.11,39.11,0,0,1,9.14,11.41,38.9,38.9,0,0,1,4.83,14.39,51.3,51.3,0,0,0-10.87-6.38c-1.36-.65-2.66-1.27-3.9-1.93L93.3,148a24.93,24.93,0,0,0-10.39-10.7l-.1-.05v0A24.91,24.91,0,0,1,79.31,122.58Z"/><path class="cls-2" d="M68.32,111.66c-.1,1.41-.27,2.84-.45,4.34a50.54,50.54,0,0,0-.42,12.59,38.39,38.39,0,0,1-9.35-11.37"/><path class="cls-2" d="M111.24,188.85v0a24.91,24.91,0,0,1-3.49-14.51.34.34,0,0,1,0-.1l.08.14c1.41.79,2.91,1.5,4.49,2.26a51.32,51.32,0,0,1,10.77,6.31,38.56,38.56,0,0,1,9.69,11.87,39.15,39.15,0,0,1,4.74,13.71s0,.08,0,.12l-.1-.08a50,50,0,0,0-11.21-6.67c-1.41-.67-2.75-1.31-4-2-.17-.09-.33-.17-.49-.27a24.47,24.47,0,0,0-9.92-9.79C111.61,189.51,111.42,189.18,111.24,188.85Z"/><path class="cls-2" d="M125.65,215h0c-3.23-5.86-3.76-10.18-3.49-14.63h0c-.15-.28-.3-.53-.45-.79.16.1.32.18.49.27,1.28.69,2.62,1.33,4,2a50,50,0,0,1,11.21,6.67"/><path class="cls-2" d="M86.82,169.39A38.62,38.62,0,0,1,82,154.86a51.64,51.64,0,0,1,.43-12.48c.21-1.73.41-3.36.51-5l-.1-.17.1.05A24.93,24.93,0,0,1,93.3,148l0,0,.52,1a24.53,24.53,0,0,0,3,13.62l0,.54c-.1,1.45-.29,2.93-.47,4.49A49.31,49.31,0,0,0,96,180.81,39.08,39.08,0,0,1,86.82,169.39Z"/><path class="cls-2" d="M80.24,105.1A38.54,38.54,0,0,1,89.92,117a39,39,0,0,1,4.77,13.84,49.51,49.51,0,0,0-11.31-6.75c-1.41-.68-2.76-1.32-4-2a4.67,4.67,0,0,1-.49-.27A24.45,24.45,0,0,0,68.94,112l-.62-.33s0,0,0-.08"/><path class="cls-3" d="M68.26,111.63l.08,0s0,0,0,.08Z"/><path class="cls-2" d="M115.15,220.83a38.79,38.79,0,0,1-4.84-14.4,51.73,51.73,0,0,1,.41-12.61c.18-1.49.35-2.92.46-4.33,0-.22,0-.44,0-.66v0c.18.33.37.66.55,1a24.47,24.47,0,0,1,9.92,9.79c.15.26.3.51.45.79h0c-.27,4.45.26,8.77,3.49,14.63"/><path class="cls-2" d="M97.23,163.41c-.15-.27-.28-.53-.42-.79a24.53,24.53,0,0,1-3-13.62l-.52-1,0,0,.59.32c1.24.66,2.54,1.28,3.9,1.93a51.3,51.3,0,0,1,10.87,6.38,39,39,0,0,1,9.58,11.79,38.62,38.62,0,0,1,4.85,14.53,51.32,51.32,0,0,0-10.77-6.31c-1.58-.76-3.08-1.47-4.49-2.26l-.1-.17C104.5,168.33,101.13,165.57,97.23,163.41Z"/><path class="cls-2" d="M68.32,111.66l.62.33a24.45,24.45,0,0,1,9.91,9.79c.16.26.31.52.46.79h0A24.91,24.91,0,0,0,82.8,137.2l.11.2c-.1,1.62-.3,3.25-.51,5A51.64,51.64,0,0,0,82,154.86,38.54,38.54,0,0,1,72.29,143a38.73,38.73,0,0,1-4.84-14.4A50.54,50.54,0,0,1,67.87,116c.18-1.5.35-2.93.45-4.34"/><path class="cls-3" d="M80.24,105.1l-.06,0,0,0s0,0,0,.06"/><path class="cls-2" d="M158.33,299.24a39.17,39.17,0,0,1-4.77-13.83,49.77,49.77,0,0,1,.35-13.17c.18-1.55.36-3,.47-4.49l0-.54.41.79c3.91,2.16,7.28,4.92,10.51,10.78l0,0a.28.28,0,0,0,0,.09,24.86,24.86,0,0,0,3.48,14.51c0,.23,0,.44,0,.66-.11,1.41-.28,2.84-.46,4.34a51.16,51.16,0,0,0-.41,12.6A38.5,38.5,0,0,1,158.33,299.24Z"/><path class="cls-2" d="M136.91,227.18h0c-.15-.28-.3-.53-.45-.79a4.45,4.45,0,0,0,.48.26c1.29.69,2.63,1.34,4,2a49.51,49.51,0,0,1,11.31,6.75,42.74,42.74,0,0,1,14,25.81,50.88,50.88,0,0,0-10.87-6.38c-1.36-.65-2.66-1.27-3.91-1.94l-.59-.32c-3.2-5.79-6.53-8.55-10.38-10.69l-.1,0,0,0C137.17,236,136.64,231.63,136.91,227.18Z"/><path class="cls-2" d="M125.92,216.26c-.11,1.41-.28,2.84-.46,4.33a51.14,51.14,0,0,0-.41,12.6,38.69,38.69,0,0,1-9.36-11.37"/><path class="cls-2" d="M168.84,293.45l0,0a24.86,24.86,0,0,1-3.48-14.51.28.28,0,0,1,0-.09l.07.14c1.42.79,2.92,1.5,4.5,2.26a51.69,51.69,0,0,1,10.77,6.3,38.66,38.66,0,0,1,9.68,11.87,39.12,39.12,0,0,1,4.75,13.71s0,.09,0,.13l-.1-.08a49.6,49.6,0,0,0-11.21-6.67c-1.41-.68-2.75-1.31-4-2l-.5-.27a24.33,24.33,0,0,0-9.91-9.79C169.21,294.1,169,293.78,168.84,293.45Z"/><path class="cls-2" d="M183.25,319.64h0c-3.23-5.86-3.76-10.19-3.5-14.64h0c-.15-.27-.3-.52-.46-.78l.5.27c1.28.69,2.62,1.32,4,2A49.6,49.6,0,0,1,195,313.15"/><path class="cls-2" d="M144.42,274a38.57,38.57,0,0,1-4.85-14.53A51.58,51.58,0,0,1,140,247c.22-1.73.42-3.37.51-5l-.09-.16.1,0c3.85,2.14,7.18,4.9,10.38,10.69l0,0c.19.33.36.67.53,1a24.43,24.43,0,0,0,3,13.61l0,.54c-.11,1.45-.29,2.94-.47,4.49a49.77,49.77,0,0,0-.35,13.17A39,39,0,0,1,144.42,274Z"/><path class="cls-2" d="M137.83,209.7a38.62,38.62,0,0,1,9.69,11.86,39.1,39.1,0,0,1,4.76,13.84A49.51,49.51,0,0,0,141,228.65c-1.41-.67-2.75-1.32-4-2a4.45,4.45,0,0,1-.48-.26,24.47,24.47,0,0,0-9.92-9.79c-.2-.12-.4-.23-.61-.33a.22.22,0,0,0,0-.08"/><path class="cls-3" d="M125.85,216.22l.08,0a.22.22,0,0,1,0,.08Z"/><path class="cls-2" d="M172.74,325.42a38.7,38.7,0,0,1-4.83-14.4,51.16,51.16,0,0,1,.41-12.6c.18-1.5.35-2.93.46-4.34,0-.22,0-.43,0-.66l0,0c.18.33.37.65.55,1a24.33,24.33,0,0,1,9.91,9.79c.16.26.31.51.46.78h0c-.26,4.45.27,8.78,3.5,14.64"/><path class="cls-2" d="M154.82,268l-.41-.79a24.43,24.43,0,0,1-3-13.61c-.17-.32-.34-.66-.53-1l0,0,.59.32c1.25.67,2.55,1.29,3.91,1.94a50.88,50.88,0,0,1,10.87,6.38,42.59,42.59,0,0,1,14.43,26.31,51.69,51.69,0,0,0-10.77-6.3c-1.58-.76-3.08-1.47-4.5-2.26l-.09-.18C162.1,272.92,158.73,270.16,154.82,268Z"/><path class="cls-2" d="M125.92,216.26c.21.1.41.21.61.33a24.47,24.47,0,0,1,9.92,9.79c.15.26.3.51.45.79h0c-.27,4.45.26,8.77,3.48,14.62l.11.19c-.09,1.62-.29,3.26-.51,5a51.58,51.58,0,0,0-.42,12.47,42.43,42.43,0,0,1-14.52-26.26,51.14,51.14,0,0,1,.41-12.6c.18-1.49.35-2.92.46-4.33"/><path class="cls-3" d="M137.83,209.7l-.05,0,0,0a.17.17,0,0,1,0,.07"/><path class="cls-2" d="M215.92,403.84A39.13,39.13,0,0,1,211.16,390a49.79,49.79,0,0,1,.34-13.17c.19-1.55.37-3,.47-4.49,0-.18,0-.36,0-.54.13.26.26.52.41.79,3.91,2.16,7.28,4.92,10.5,10.78l0,0a.14.14,0,0,0,0,.09A24.81,24.81,0,0,0,226.42,398c0,.23,0,.44,0,.66-.1,1.41-.27,2.84-.45,4.34a51.16,51.16,0,0,0-.41,12.6A38.66,38.66,0,0,1,215.92,403.84Z"/><path class="cls-2" d="M194.51,331.77h0c-.15-.27-.3-.52-.46-.78.16.09.32.18.49.26,1.28.69,2.63,1.33,4,2A49.51,49.51,0,0,1,209.88,340,39,39,0,0,1,219,351.42a38.6,38.6,0,0,1,4.83,14.39A50.71,50.71,0,0,0,213,359.42c-1.36-.64-2.66-1.27-3.9-1.93l-.59-.32c-3.2-5.79-6.53-8.55-10.39-10.7l-.09-.05,0,0C194.77,340.54,194.24,336.22,194.51,331.77Z"/><path class="cls-2" d="M183.52,320.85c-.11,1.41-.28,2.84-.46,4.34a51.52,51.52,0,0,0-.42,12.59,38.49,38.49,0,0,1-9.35-11.36"/><path class="cls-2" d="M226.43,398.05v0a24.81,24.81,0,0,1-3.48-14.51.14.14,0,0,1,0-.09l.08.14c1.42.79,2.92,1.5,4.5,2.25a51.32,51.32,0,0,1,10.77,6.31A38.54,38.54,0,0,1,248,404a39,39,0,0,1,4.74,13.71l0,.13-.11-.09a49.86,49.86,0,0,0-11.2-6.66c-1.41-.68-2.76-1.31-4-2l-.49-.28A24.45,24.45,0,0,0,227,399C226.8,398.7,226.61,398.37,226.43,398.05Z"/><path class="cls-2" d="M240.84,424.24h0c-3.22-5.86-3.76-10.18-3.49-14.63h0c-.15-.27-.3-.53-.46-.79l.49.28c1.28.69,2.63,1.32,4,2a49.86,49.86,0,0,1,11.2,6.66"/><path class="cls-2" d="M202,378.58a38.27,38.27,0,0,1-4.85-14.53,51.08,51.08,0,0,1,.42-12.47c.21-1.73.42-3.37.51-5l-.09-.17.09.05c3.86,2.15,7.19,4.91,10.39,10.7l0,0c.18.34.36.67.52,1a24.45,24.45,0,0,0,3,13.61c0,.18,0,.36,0,.54-.1,1.45-.28,2.94-.47,4.49a49.79,49.79,0,0,0-.34,13.17A39,39,0,0,1,202,378.58Z"/><path class="cls-2" d="M195.43,314.29a38.54,38.54,0,0,1,9.68,11.87A39.14,39.14,0,0,1,209.88,340a49.51,49.51,0,0,0-11.31-6.75c-1.41-.68-2.76-1.32-4-2-.17-.08-.33-.17-.49-.26a24.43,24.43,0,0,0-9.91-9.8c-.2-.12-.41-.22-.61-.33a.17.17,0,0,1,0-.07"/><path class="cls-3" d="M183.45,320.82l.08,0a.17.17,0,0,0,0,.07Z"/><path class="cls-2" d="M230.34,430a38.51,38.51,0,0,1-4.83-14.4,51.16,51.16,0,0,1,.41-12.6c.18-1.5.35-2.93.45-4.34,0-.22,0-.43,0-.66v0c.18.32.37.65.56,1a24.45,24.45,0,0,1,9.91,9.79c.16.26.31.52.46.79h0c-.27,4.45.27,8.77,3.49,14.63"/><path class="cls-2" d="M212.42,372.6c-.15-.27-.28-.53-.41-.79a24.45,24.45,0,0,1-3-13.61c-.16-.33-.34-.66-.52-1l0,0,.59.32c1.24.66,2.54,1.29,3.9,1.93a50.71,50.71,0,0,1,10.87,6.39,42.6,42.6,0,0,1,14.44,26.31,51.32,51.32,0,0,0-10.77-6.31c-1.58-.75-3.08-1.46-4.5-2.25l-.1-.18C219.7,377.52,216.33,374.76,212.42,372.6Z"/><path class="cls-2" d="M183.52,320.85c.2.11.41.21.61.33A24.43,24.43,0,0,1,194,331c.16.26.31.51.46.78h0c-.27,4.45.26,8.77,3.48,14.63l.11.19c-.09,1.62-.3,3.26-.51,5a51.08,51.08,0,0,0-.42,12.47,42.57,42.57,0,0,1-14.53-26.27,51.52,51.52,0,0,1,.42-12.59c.18-1.5.35-2.93.46-4.34"/><path class="cls-3" d="M195.43,314.29l-.06,0,0,0a.13.13,0,0,1,0,.06"/><path class="cls-2" d="M273.52,508.43a39.06,39.06,0,0,1-4.76-13.83,49.31,49.31,0,0,1,.34-13.16c.18-1.56.37-3,.47-4.5l0-.54c.14.27.27.53.42.79A25,25,0,0,1,280.52,488l0,0a.31.31,0,0,0,0,.1A24.91,24.91,0,0,0,284,502.62c0,.22,0,.44,0,.66-.11,1.4-.28,2.84-.46,4.33a51.71,51.71,0,0,0-.41,12.61A38.85,38.85,0,0,1,273.52,508.43Z"/><path class="cls-2" d="M252.1,436.37h0c-.15-.28-.3-.53-.46-.79a4.59,4.59,0,0,0,.49.26c1.28.69,2.63,1.34,4,2a49.88,49.88,0,0,1,11.31,6.75A39.31,39.31,0,0,1,276.62,456a38.84,38.84,0,0,1,4.83,14.39A51.3,51.3,0,0,0,270.58,464c-1.36-.65-2.66-1.27-3.9-1.93-.2-.11-.4-.21-.59-.33a25,25,0,0,0-10.39-10.69l-.1-.05v0A24.91,24.91,0,0,1,252.1,436.37Z"/><path class="cls-2" d="M241.11,425.45c-.1,1.41-.27,2.84-.45,4.33a50.64,50.64,0,0,0-.42,12.6A38.39,38.39,0,0,1,230.89,431"/><path class="cls-2" d="M284,502.64v0a24.91,24.91,0,0,1-3.49-14.51.31.31,0,0,1,0-.1l.08.14c1.41.79,2.91,1.5,4.49,2.26a51.32,51.32,0,0,1,10.77,6.31,38.5,38.5,0,0,1,9.69,11.86,39.05,39.05,0,0,1,4.74,13.72s0,.08,0,.12l-.1-.08A50,50,0,0,0,299,515.67c-1.41-.68-2.75-1.31-4-2l-.49-.27a24.47,24.47,0,0,0-9.92-9.79C284.4,503.29,284.21,503,284,502.64Z"/><path class="cls-2" d="M298.44,528.83h0c-3.23-5.86-3.76-10.18-3.49-14.63h0c-.15-.28-.3-.53-.45-.79l.49.27c1.28.69,2.62,1.32,4,2a50,50,0,0,1,11.21,6.67"/><path class="cls-2" d="M259.61,483.18a38.62,38.62,0,0,1-4.85-14.53,51.64,51.64,0,0,1,.43-12.48c.21-1.73.41-3.37.5-5l-.09-.17.1.05a25,25,0,0,1,10.39,10.69l0,0,.52,1a24.48,24.48,0,0,0,3,13.61l0,.54c-.1,1.46-.29,2.94-.47,4.5a49.31,49.31,0,0,0-.34,13.16A39.08,39.08,0,0,1,259.61,483.18Z"/><path class="cls-2" d="M253,418.89a38.54,38.54,0,0,1,9.68,11.87,39,39,0,0,1,4.77,13.83,49.88,49.88,0,0,0-11.31-6.75c-1.41-.67-2.76-1.32-4-2a4.59,4.59,0,0,1-.49-.26,24.45,24.45,0,0,0-9.91-9.79c-.2-.12-.41-.22-.62-.33,0,0,0-.05,0-.08"/><path class="cls-3" d="M241.05,425.42l.08-.05s0,.05,0,.08Z"/><path class="cls-2" d="M287.94,534.62a38.85,38.85,0,0,1-4.84-14.4,51.71,51.71,0,0,1,.41-12.61c.18-1.49.35-2.93.46-4.33,0-.22,0-.44,0-.66v0c.18.33.37.65.55,1a24.47,24.47,0,0,1,9.92,9.79c.15.26.3.51.45.79h0c-.27,4.45.26,8.77,3.49,14.63"/><path class="cls-2" d="M270,477.19c-.15-.26-.28-.52-.42-.79a24.48,24.48,0,0,1-3-13.61l-.52-1,0,0c.19.12.39.22.59.33,1.24.66,2.54,1.28,3.9,1.93a51.3,51.3,0,0,1,10.87,6.38,42.58,42.58,0,0,1,14.43,26.32,51.32,51.32,0,0,0-10.77-6.31c-1.58-.76-3.08-1.47-4.49-2.26l-.1-.17A25,25,0,0,0,270,477.19Z"/><path class="cls-2" d="M241.11,425.45c.21.11.42.21.62.33a24.45,24.45,0,0,1,9.91,9.79c.16.26.31.51.46.79h0A24.91,24.91,0,0,0,255.59,451l.1.2c-.09,1.61-.29,3.25-.5,5a51.64,51.64,0,0,0-.43,12.48,42.62,42.62,0,0,1-14.52-26.27,50.64,50.64,0,0,1,.42-12.6c.18-1.49.35-2.92.45-4.33"/><path class="cls-3" d="M253,418.89l-.06,0,0,0s0,0,0,.06"/><path class="cls-2" d="M331.12,613a39.17,39.17,0,0,1-4.77-13.83A49.77,49.77,0,0,1,326.7,586c.18-1.55.36-3,.47-4.49l0-.54.41.79c3.91,2.16,7.28,4.92,10.51,10.78l0,0a.25.25,0,0,0,0,.09,24.86,24.86,0,0,0,3.48,14.51c0,.23,0,.44,0,.66-.11,1.41-.28,2.84-.46,4.34a51.16,51.16,0,0,0-.41,12.6A38.5,38.5,0,0,1,331.12,613Z"/><path class="cls-2" d="M309.7,541h0c-.15-.28-.3-.53-.45-.79a4.45,4.45,0,0,0,.48.26c1.29.69,2.63,1.33,4,2a49.51,49.51,0,0,1,11.31,6.75,42.74,42.74,0,0,1,14,25.81,50.88,50.88,0,0,0-10.87-6.38c-1.36-.65-2.66-1.27-3.91-1.94l-.59-.32c-3.2-5.79-6.53-8.55-10.38-10.69l-.1-.06,0,0C310,549.74,309.43,545.41,309.7,541Z"/><path class="cls-2" d="M298.71,530.05c-.11,1.4-.28,2.83-.46,4.33a51.12,51.12,0,0,0-.41,12.6,38.53,38.53,0,0,1-9.36-11.37"/><path class="cls-2" d="M341.63,607.24l0,0a24.86,24.86,0,0,1-3.48-14.51.25.25,0,0,1,0-.09l.07.14c1.42.79,2.92,1.5,4.5,2.25a52.21,52.21,0,0,1,10.77,6.31,38.54,38.54,0,0,1,9.68,11.87,39.05,39.05,0,0,1,4.75,13.71s0,.09,0,.13l-.1-.08a49.6,49.6,0,0,0-11.21-6.67c-1.41-.68-2.75-1.31-4-2l-.5-.27a24.42,24.42,0,0,0-9.91-9.8C342,607.89,341.81,607.57,341.63,607.24Z"/><path class="cls-2" d="M356,633.43h0c-3.23-5.86-3.76-10.18-3.5-14.63h0c-.15-.27-.3-.52-.46-.78l.5.27c1.28.69,2.62,1.32,4,2a49.6,49.6,0,0,1,11.21,6.67"/><path class="cls-2" d="M317.21,587.77a38.57,38.57,0,0,1-4.85-14.53,51.58,51.58,0,0,1,.42-12.47c.22-1.73.42-3.37.51-5l-.09-.17.1.06c3.85,2.14,7.18,4.9,10.38,10.69l0,0c.19.33.36.66.53,1a24.43,24.43,0,0,0,3,13.61l0,.54c-.11,1.45-.29,2.94-.47,4.49a49.77,49.77,0,0,0-.35,13.17A39.12,39.12,0,0,1,317.21,587.77Z"/><path class="cls-2" d="M310.62,523.49a38.5,38.5,0,0,1,9.69,11.86,39.1,39.1,0,0,1,4.76,13.84,49.51,49.51,0,0,0-11.31-6.75c-1.41-.68-2.75-1.32-4-2a4.45,4.45,0,0,1-.48-.26,24.41,24.41,0,0,0-9.92-9.79c-.2-.12-.4-.23-.61-.33a.22.22,0,0,0,0-.08"/><path class="cls-3" d="M298.64,530l.08,0a.22.22,0,0,1,0,.08Z"/><path class="cls-2" d="M345.53,639.21a38.7,38.7,0,0,1-4.83-14.4,51.16,51.16,0,0,1,.41-12.6c.18-1.5.35-2.93.46-4.34,0-.22,0-.43,0-.66l0,0c.18.33.37.65.55,1a24.42,24.42,0,0,1,9.91,9.8c.16.26.31.51.46.78h0c-.26,4.45.27,8.77,3.5,14.63"/><path class="cls-2" d="M327.61,581.79l-.41-.79a24.43,24.43,0,0,1-3-13.61c-.17-.33-.34-.66-.53-1l0,0,.59.32c1.25.67,2.55,1.29,3.91,1.94A50.88,50.88,0,0,1,339.05,575a42.52,42.52,0,0,1,14.43,26.31A52.21,52.21,0,0,0,342.71,595c-1.58-.75-3.08-1.46-4.5-2.25l-.09-.18C334.89,586.71,331.52,584,327.61,581.79Z"/><path class="cls-2" d="M298.71,530.05c.21.1.41.21.61.33a24.41,24.41,0,0,1,9.92,9.79c.15.26.3.51.45.79h0c-.27,4.45.26,8.78,3.48,14.63l.11.19c-.09,1.62-.29,3.26-.51,5a51.58,51.58,0,0,0-.42,12.47A42.43,42.43,0,0,1,297.84,547a51.12,51.12,0,0,1,.41-12.6c.18-1.5.35-2.93.46-4.33"/><path class="cls-3" d="M310.62,523.49l-.05,0,0,0a.15.15,0,0,1,0,.07"/><path class="cls-2" d="M388.71,717.62A39,39,0,0,1,384,703.79a49.73,49.73,0,0,1,.34-13.16c.19-1.56.37-3,.47-4.49,0-.19,0-.36,0-.54.13.26.26.52.41.79,3.91,2.16,7.28,4.92,10.5,10.78l0,0a.17.17,0,0,0,0,.1,24.81,24.81,0,0,0,3.48,14.51c0,.22,0,.44,0,.66-.1,1.41-.27,2.84-.45,4.33a51.24,51.24,0,0,0-.41,12.61A38.72,38.72,0,0,1,388.71,717.62Z"/><path class="cls-2" d="M367.3,645.56h0c-.15-.27-.3-.53-.46-.79a4.67,4.67,0,0,0,.49.27c1.28.69,2.63,1.33,4,2a49.51,49.51,0,0,1,11.31,6.75,39.11,39.11,0,0,1,9.14,11.41,38.71,38.71,0,0,1,4.83,14.39,51.25,51.25,0,0,0-10.86-6.38c-1.37-.65-2.67-1.27-3.91-1.93l-.59-.32c-3.2-5.8-6.53-8.55-10.39-10.7l-.09,0,0,0C367.56,654.33,367,650,367.3,645.56Z"/><path class="cls-2" d="M356.31,634.64c-.11,1.41-.28,2.84-.46,4.34a51.52,51.52,0,0,0-.42,12.59,38.41,38.41,0,0,1-9.35-11.37"/><path class="cls-2" d="M399.22,711.84v0a24.81,24.81,0,0,1-3.48-14.51.17.17,0,0,1,0-.1l.08.14c1.42.79,2.91,1.5,4.5,2.26a51.32,51.32,0,0,1,10.77,6.31,38.54,38.54,0,0,1,9.68,11.87,39,39,0,0,1,4.74,13.71l0,.12-.11-.08a50.14,50.14,0,0,0-11.2-6.67c-1.41-.67-2.76-1.31-4-2l-.49-.27a24.45,24.45,0,0,0-9.91-9.79C399.59,712.49,399.4,712.16,399.22,711.84Z"/><path class="cls-2" d="M413.63,738h0c-3.22-5.86-3.76-10.18-3.49-14.63h0c-.15-.28-.3-.53-.46-.79l.49.27c1.28.69,2.63,1.33,4,2a50.14,50.14,0,0,1,11.2,6.67"/><path class="cls-2" d="M374.81,692.37A38.27,38.27,0,0,1,370,677.84a51.16,51.16,0,0,1,.42-12.48c.21-1.73.42-3.36.51-5l-.09-.17.09,0c3.86,2.15,7.19,4.9,10.39,10.7l0,0c.18.34.36.67.52,1a24.46,24.46,0,0,0,3,13.62c0,.18,0,.35,0,.54-.1,1.45-.28,2.93-.47,4.49a49.73,49.73,0,0,0-.34,13.16A38.9,38.9,0,0,1,374.81,692.37Z"/><path class="cls-2" d="M368.22,628.08A38.54,38.54,0,0,1,377.9,640a39,39,0,0,1,4.77,13.84A49.51,49.51,0,0,0,371.36,647c-1.41-.68-2.76-1.32-4-2a4.67,4.67,0,0,1-.49-.27,24.39,24.39,0,0,0-9.91-9.79c-.2-.12-.41-.22-.61-.33a.22.22,0,0,1,0-.08"/><path class="cls-3" d="M356.24,634.61l.08-.05a.22.22,0,0,0,0,.08Z"/><path class="cls-2" d="M403.13,743.81a38.57,38.57,0,0,1-4.83-14.4,51.24,51.24,0,0,1,.41-12.61c.18-1.49.35-2.92.45-4.33,0-.22,0-.44,0-.66v0c.18.32.37.65.56,1a24.45,24.45,0,0,1,9.91,9.79c.16.26.31.51.46.79h0c-.27,4.45.27,8.77,3.49,14.63"/><path class="cls-2" d="M385.21,686.39c-.15-.27-.28-.53-.41-.79a24.46,24.46,0,0,1-3-13.62c-.16-.32-.34-.65-.52-1l0,0,.59.32c1.24.66,2.54,1.28,3.91,1.93a51.25,51.25,0,0,1,10.86,6.38,42.66,42.66,0,0,1,14.44,26.32,51.32,51.32,0,0,0-10.77-6.31c-1.59-.76-3.08-1.47-4.5-2.26l-.1-.17C392.49,691.31,389.12,688.55,385.21,686.39Z"/><path class="cls-2" d="M356.31,634.64c.2.11.41.21.61.33a24.39,24.39,0,0,1,9.91,9.79c.16.26.31.52.46.79h0c-.27,4.45.26,8.77,3.48,14.62l.11.2c-.09,1.62-.3,3.25-.51,5a51.16,51.16,0,0,0-.42,12.48,42.57,42.57,0,0,1-14.53-26.27,51.52,51.52,0,0,1,.42-12.59c.18-1.5.35-2.93.46-4.34"/><path class="cls-3" d="M368.22,628.08l-.06,0,0,0a.13.13,0,0,1,0,.06"/><path class="cls-2" d="M446.31,822.22a39.13,39.13,0,0,1-4.76-13.83,49.37,49.37,0,0,1,.34-13.17c.18-1.55.37-3,.47-4.49l0-.54c.14.26.27.53.42.79,3.9,2.16,7.27,4.92,10.5,10.78l0,0a.28.28,0,0,0,0,.09,24.88,24.88,0,0,0,3.49,14.51c0,.23,0,.44-.05.67-.11,1.4-.28,2.83-.46,4.33a51.65,51.65,0,0,0-.41,12.6A38.8,38.8,0,0,1,446.31,822.22Z"/><path class="cls-2" d="M424.89,750.16h0c-.15-.28-.3-.53-.46-.79a4.59,4.59,0,0,0,.49.26c1.28.69,2.63,1.34,4,2a49.51,49.51,0,0,1,11.31,6.75,42.66,42.66,0,0,1,14,25.81,51.3,51.3,0,0,0-10.87-6.38c-1.36-.65-2.66-1.27-3.9-1.93l-.59-.33c-3.2-5.79-6.54-8.55-10.39-10.69l-.1-.05v0A24.91,24.91,0,0,1,424.89,750.16Z"/><path class="cls-2" d="M413.9,739.24c-.1,1.41-.27,2.84-.45,4.33a50.62,50.62,0,0,0-.42,12.6,38.52,38.52,0,0,1-9.35-11.37"/><path class="cls-2" d="M456.82,816.43v0a24.88,24.88,0,0,1-3.49-14.51.28.28,0,0,1,0-.09l.08.14c1.41.79,2.91,1.5,4.49,2.26a51.32,51.32,0,0,1,10.77,6.31,38.5,38.5,0,0,1,9.69,11.86,39.08,39.08,0,0,1,4.74,13.71s0,.09,0,.13a.39.39,0,0,0-.1-.08,49.6,49.6,0,0,0-11.21-6.67c-1.41-.68-2.75-1.31-4-2l-.49-.27a24.41,24.41,0,0,0-9.92-9.79C457.19,817.08,457,816.76,456.82,816.43Z"/><path class="cls-2" d="M471.23,842.62h0c-3.23-5.86-3.76-10.19-3.49-14.64h0c-.15-.28-.3-.53-.45-.79l.49.27c1.28.69,2.62,1.32,4,2A49.6,49.6,0,0,1,483,836.13"/><path class="cls-2" d="M432.4,797a38.53,38.53,0,0,1-4.85-14.52A51.62,51.62,0,0,1,428,770c.21-1.73.41-3.37.5-5l-.09-.16.1.05c3.85,2.14,7.19,4.9,10.39,10.69l0,0c.18.33.35.67.52,1a24.5,24.5,0,0,0,3,13.61l0,.54c-.1,1.45-.29,2.94-.47,4.49a49.37,49.37,0,0,0-.34,13.17A39,39,0,0,1,432.4,797Z"/><path class="cls-2" d="M425.82,732.68a38.61,38.61,0,0,1,9.68,11.86,39.14,39.14,0,0,1,4.77,13.84A49.51,49.51,0,0,0,429,751.63c-1.41-.67-2.76-1.32-4-2a4.59,4.59,0,0,1-.49-.26,24.45,24.45,0,0,0-9.91-9.79c-.2-.12-.41-.23-.62-.33,0,0,0,0,0-.08"/><path class="cls-3" d="M413.84,739.2l.08,0s0,.05,0,.08Z"/><path class="cls-2" d="M460.73,848.4a38.73,38.73,0,0,1-4.84-14.4,51.65,51.65,0,0,1,.41-12.6c.18-1.5.35-2.93.46-4.33,0-.23,0-.44.05-.67v0c.18.33.37.65.55,1a24.41,24.41,0,0,1,9.92,9.79c.15.26.3.51.45.79h0c-.27,4.45.26,8.78,3.49,14.64"/><path class="cls-2" d="M442.81,791c-.15-.26-.28-.53-.42-.79a24.5,24.5,0,0,1-3-13.61c-.17-.32-.34-.66-.52-1l0,0,.59.33c1.24.66,2.54,1.28,3.9,1.93a51.3,51.3,0,0,1,10.87,6.38,42.58,42.58,0,0,1,14.43,26.32,51.32,51.32,0,0,0-10.77-6.31c-1.58-.76-3.08-1.47-4.49-2.26l-.1-.18C450.08,795.9,446.71,793.14,442.81,791Z"/><path class="cls-2" d="M413.9,739.24c.21.1.42.21.62.33a24.45,24.45,0,0,1,9.91,9.79c.16.26.31.51.46.79h0a24.91,24.91,0,0,0,3.49,14.62l.1.19c-.09,1.62-.29,3.26-.5,5a51.62,51.62,0,0,0-.43,12.48A42.62,42.62,0,0,1,413,756.17a50.62,50.62,0,0,1,.42-12.6c.18-1.49.35-2.92.45-4.33"/><path class="cls-3" d="M425.82,732.68l-.06,0,0,0s0,0,0,.06"/><path class="cls-2" d="M503.91,926.82A39.17,39.17,0,0,1,499.14,913a49.77,49.77,0,0,1,.35-13.17c.18-1.55.36-3,.47-4.49l0-.54.41.79c3.91,2.16,7.28,4.92,10.51,10.78l0,0a.25.25,0,0,0,0,.09A24.89,24.89,0,0,0,514.4,921c0,.23,0,.44,0,.66-.11,1.41-.28,2.84-.46,4.34a51.16,51.16,0,0,0-.41,12.6A38.5,38.5,0,0,1,503.91,926.82Z"/><path class="cls-2" d="M482.49,854.75h0L482,854l.48.26c1.29.69,2.63,1.33,4,2A49.51,49.51,0,0,1,497.86,863,38.88,38.88,0,0,1,507,874.4a38.42,38.42,0,0,1,4.83,14.39A50.65,50.65,0,0,0,501,882.4c-1.36-.64-2.66-1.26-3.91-1.93l-.59-.32c-3.2-5.79-6.53-8.55-10.38-10.7l-.1-.05,0,0C482.75,863.52,482.22,859.2,482.49,854.75Z"/><path class="cls-2" d="M471.5,843.83c-.11,1.41-.28,2.84-.46,4.34a51.05,51.05,0,0,0-.41,12.59,38.5,38.5,0,0,1-9.36-11.36"/><path class="cls-2" d="M514.42,921l0,0a24.89,24.89,0,0,1-3.48-14.51.25.25,0,0,1,0-.09l.07.14c1.42.79,2.92,1.5,4.5,2.25a51.32,51.32,0,0,1,10.77,6.31A38.54,38.54,0,0,1,536,927a39.05,39.05,0,0,1,4.75,13.71s0,.09,0,.13l-.1-.09a49.91,49.91,0,0,0-11.21-6.66c-1.41-.68-2.75-1.31-4-2l-.5-.28A24.39,24.39,0,0,0,515,922Z"/><path class="cls-2" d="M528.83,947.22h0c-3.23-5.86-3.76-10.18-3.5-14.63h0c-.15-.27-.3-.53-.46-.79l.5.28c1.28.69,2.62,1.32,4,2a49.91,49.91,0,0,1,11.21,6.66"/><path class="cls-2" d="M490,901.56A38.57,38.57,0,0,1,485.15,887a51.58,51.58,0,0,1,.42-12.47c.22-1.73.42-3.37.51-5l-.09-.17.1.05c3.85,2.15,7.18,4.91,10.38,10.7l0,0c.19.34.36.67.53,1a24.43,24.43,0,0,0,3,13.61l0,.54c-.11,1.45-.29,2.94-.47,4.49a49.77,49.77,0,0,0-.35,13.17A39.12,39.12,0,0,1,490,901.56Z"/><path class="cls-2" d="M483.41,837.27a38.68,38.68,0,0,1,9.69,11.87A39.1,39.1,0,0,1,497.86,863a49.51,49.51,0,0,0-11.31-6.75c-1.41-.68-2.75-1.32-4-2L482,854a24.5,24.5,0,0,0-9.92-9.8c-.2-.12-.4-.22-.61-.33a.17.17,0,0,0,0-.07"/><path class="cls-3" d="M471.43,843.8l.08,0a.17.17,0,0,1,0,.07Z"/><path class="cls-2" d="M518.32,953a38.7,38.7,0,0,1-4.83-14.4,51.16,51.16,0,0,1,.41-12.6c.18-1.5.35-2.93.46-4.34,0-.22,0-.43,0-.66l0,0,.55,1a24.39,24.39,0,0,1,9.91,9.79c.16.26.31.52.46.79h0c-.26,4.45.27,8.77,3.5,14.63"/><path class="cls-2" d="M500.4,895.58l-.41-.79a24.43,24.43,0,0,1-3-13.61c-.17-.33-.34-.66-.53-1l0,0,.59.32c1.25.67,2.55,1.29,3.91,1.93a50.65,50.65,0,0,1,10.86,6.39,42.47,42.47,0,0,1,14.44,26.31,51.32,51.32,0,0,0-10.77-6.31c-1.58-.75-3.08-1.46-4.5-2.25l-.09-.18C507.68,900.5,504.31,897.74,500.4,895.58Z"/><path class="cls-2" d="M471.5,843.83c.21.11.41.21.61.33A24.5,24.5,0,0,1,482,854l.45.78h0c-.27,4.45.26,8.77,3.48,14.63l.11.19c-.09,1.62-.29,3.26-.51,5a51.58,51.58,0,0,0-.42,12.47,42.49,42.49,0,0,1-14.52-26.27,51.05,51.05,0,0,1,.41-12.59c.18-1.5.35-2.93.46-4.34"/><path class="cls-3" d="M483.41,837.27l-.05,0,0,0a.13.13,0,0,1,0,.06"/><path class="cls-2" d="M561.5,1031.41a39.06,39.06,0,0,1-4.76-13.83,49.73,49.73,0,0,1,.34-13.16c.19-1.56.37-3,.47-4.5,0-.18,0-.35,0-.53.13.26.26.52.41.78A24.93,24.93,0,0,1,568.5,1011l0,0a.17.17,0,0,0,0,.1A24.81,24.81,0,0,0,572,1025.6c0,.22,0,.44,0,.66-.1,1.4-.27,2.84-.45,4.33a51.22,51.22,0,0,0-.41,12.61A38.72,38.72,0,0,1,561.5,1031.41Z"/><path class="cls-2" d="M540.08,959.35h0c-.15-.27-.3-.53-.46-.79a3.29,3.29,0,0,0,.49.26c1.28.69,2.63,1.34,4,2a49.57,49.57,0,0,1,11.31,6.76A39.11,39.11,0,0,1,564.6,979a38.71,38.71,0,0,1,4.83,14.39A51.25,51.25,0,0,0,558.57,987c-1.37-.65-2.67-1.27-3.91-1.93l-.59-.32c-3.2-5.8-6.53-8.55-10.39-10.7l-.09,0,0,0A24.91,24.91,0,0,1,540.08,959.35Z"/><path class="cls-2" d="M529.1,948.43c-.11,1.41-.28,2.84-.46,4.33a51.62,51.62,0,0,0-.42,12.6A38.54,38.54,0,0,1,518.87,954"/><path class="cls-2" d="M572,1025.62v0a24.81,24.81,0,0,1-3.48-14.51.17.17,0,0,1,0-.1l.08.14c1.42.79,2.92,1.5,4.5,2.26a51.32,51.32,0,0,1,10.77,6.31,38.61,38.61,0,0,1,9.68,11.86,39.05,39.05,0,0,1,4.74,13.72l0,.12-.11-.08a50.14,50.14,0,0,0-11.2-6.67c-1.41-.67-2.76-1.31-4-2l-.49-.27a24.45,24.45,0,0,0-9.91-9.79C572.38,1026.27,572.19,1026,572,1025.62Z"/><path class="cls-2" d="M586.42,1051.81h0c-3.22-5.86-3.76-10.18-3.49-14.63h0c-.15-.28-.3-.53-.46-.79l.49.27c1.28.69,2.63,1.33,4,2a50.14,50.14,0,0,1,11.2,6.67"/><path class="cls-2" d="M547.6,1006.16a38.27,38.27,0,0,1-4.85-14.53,51.16,51.16,0,0,1,.42-12.48c.21-1.73.42-3.36.51-5l-.09-.17.09,0c3.86,2.15,7.19,4.9,10.39,10.7l0,0c.18.34.36.67.52,1a24.46,24.46,0,0,0,3,13.62c0,.18,0,.35,0,.53-.1,1.46-.28,2.94-.47,4.5a49.73,49.73,0,0,0-.34,13.16A38.9,38.9,0,0,1,547.6,1006.16Z"/><path class="cls-2" d="M541,941.87a38.54,38.54,0,0,1,9.68,11.87,39,39,0,0,1,4.77,13.84,49.57,49.57,0,0,0-11.31-6.76c-1.41-.67-2.76-1.32-4-2a3.29,3.29,0,0,1-.49-.26,24.39,24.39,0,0,0-9.91-9.79c-.2-.12-.41-.22-.61-.33a.22.22,0,0,1,0-.08"/><path class="cls-3" d="M529,948.4l.08,0a.22.22,0,0,0,0,.08Z"/><path class="cls-2" d="M575.92,1057.6a38.63,38.63,0,0,1-4.83-14.4,51.22,51.22,0,0,1,.41-12.61c.18-1.49.35-2.93.45-4.33,0-.22,0-.44,0-.66v0c.18.33.37.65.56,1a24.45,24.45,0,0,1,9.91,9.79c.16.26.31.51.46.79h0c-.27,4.45.27,8.77,3.49,14.63"/><path class="cls-2" d="M558,1000.17c-.15-.26-.28-.52-.41-.78a24.46,24.46,0,0,1-3-13.62c-.16-.32-.34-.65-.52-1l0,0,.59.32c1.24.66,2.54,1.28,3.91,1.93a51.25,51.25,0,0,1,10.86,6.38,42.66,42.66,0,0,1,14.44,26.32,51.32,51.32,0,0,0-10.77-6.31c-1.58-.76-3.08-1.47-4.5-2.26l-.1-.17A24.93,24.93,0,0,0,558,1000.17Z"/><path class="cls-2" d="M529.1,948.43c.2.11.41.21.61.33a24.39,24.39,0,0,1,9.91,9.79c.16.26.31.52.46.79h0A24.91,24.91,0,0,0,543.57,974l.11.2c-.09,1.62-.3,3.25-.51,5a51.16,51.16,0,0,0-.42,12.48,42.57,42.57,0,0,1-14.53-26.27,51.62,51.62,0,0,1,.42-12.6c.18-1.49.35-2.92.46-4.33"/><path class="cls-3" d="M541,941.87l-.06,0,0,0s0,0,0,.06"/><path class="cls-2" d="M619.1,1136a39.13,39.13,0,0,1-4.76-13.83,49.37,49.37,0,0,1,.34-13.17c.18-1.55.37-3,.47-4.49l0-.54c.14.26.27.52.42.79,3.9,2.16,7.27,4.92,10.5,10.78l0,0a.25.25,0,0,0,0,.09,24.88,24.88,0,0,0,3.49,14.51c0,.23,0,.44-.05.66-.11,1.41-.28,2.84-.46,4.34a51.65,51.65,0,0,0-.41,12.6A38.8,38.8,0,0,1,619.1,1136Z"/><path class="cls-2" d="M597.68,1063.94h0c-.15-.28-.3-.53-.46-.79a4.59,4.59,0,0,0,.49.26c1.28.69,2.63,1.33,4,2a49.51,49.51,0,0,1,11.31,6.75A42.66,42.66,0,0,1,627,1098a50.88,50.88,0,0,0-10.87-6.38c-1.36-.65-2.66-1.27-3.9-1.94l-.59-.32c-3.2-5.79-6.54-8.55-10.39-10.69l-.1-.06v0A24.94,24.94,0,0,1,597.68,1063.94Z"/><path class="cls-2" d="M586.69,1053c-.1,1.4-.27,2.84-.45,4.33a50.6,50.6,0,0,0-.42,12.6,38.52,38.52,0,0,1-9.35-11.37"/><path class="cls-2" d="M629.61,1130.22v0a24.88,24.88,0,0,1-3.49-14.51.25.25,0,0,1,0-.09l.08.14c1.41.79,2.91,1.5,4.49,2.25a52.21,52.21,0,0,1,10.77,6.31,38.56,38.56,0,0,1,9.69,11.87,39.22,39.22,0,0,1,4.74,13.71s0,.09,0,.13a.39.39,0,0,0-.1-.08,49.6,49.6,0,0,0-11.21-6.67c-1.41-.68-2.75-1.31-4-2l-.49-.27a24.5,24.5,0,0,0-9.92-9.8C630,1130.87,629.79,1130.55,629.61,1130.22Z"/><path class="cls-2" d="M644,1156.41h0c-3.23-5.86-3.76-10.18-3.49-14.63h0l-.45-.78.49.27c1.28.69,2.62,1.32,4,2a49.6,49.6,0,0,1,11.21,6.67"/><path class="cls-2" d="M605.19,1110.75a38.57,38.57,0,0,1-4.85-14.53,51.55,51.55,0,0,1,.43-12.47c.21-1.73.41-3.37.5-5l-.09-.17.1.06c3.85,2.14,7.19,4.9,10.39,10.69l0,0c.18.33.35.67.52,1a24.51,24.51,0,0,0,3,13.61l0,.54c-.1,1.45-.29,2.94-.47,4.49a49.37,49.37,0,0,0-.34,13.17A39.14,39.14,0,0,1,605.19,1110.75Z"/><path class="cls-2" d="M598.61,1046.47a38.49,38.49,0,0,1,9.68,11.86,39.14,39.14,0,0,1,4.77,13.84,49.51,49.51,0,0,0-11.31-6.75c-1.41-.68-2.76-1.32-4-2a4.59,4.59,0,0,1-.49-.26,24.39,24.39,0,0,0-9.91-9.79c-.2-.12-.41-.23-.62-.33l0-.08"/><path class="cls-3" d="M586.63,1053l.08,0,0,.08Z"/><path class="cls-2" d="M633.52,1162.19a38.73,38.73,0,0,1-4.84-14.4,51.65,51.65,0,0,1,.41-12.6c.18-1.5.35-2.93.46-4.34,0-.22,0-.43.05-.66v0c.18.33.37.65.55,1a24.5,24.5,0,0,1,9.92,9.8l.45.78h0c-.27,4.45.26,8.77,3.49,14.63"/><path class="cls-2" d="M615.6,1104.77c-.15-.27-.28-.53-.42-.79a24.51,24.51,0,0,1-3-13.61c-.17-.32-.34-.66-.52-1l0,0,.59.32c1.24.67,2.54,1.29,3.9,1.94A50.88,50.88,0,0,1,627,1098a42.52,42.52,0,0,1,14.43,26.31,52.21,52.21,0,0,0-10.77-6.31c-1.58-.75-3.08-1.46-4.49-2.25l-.1-.18C622.87,1109.69,619.5,1106.93,615.6,1104.77Z"/><path class="cls-2" d="M586.69,1053c.21.1.42.21.62.33a24.39,24.39,0,0,1,9.91,9.79c.16.26.31.51.46.79h0a24.94,24.94,0,0,0,3.49,14.63l.1.19c-.09,1.62-.29,3.26-.5,5a51.55,51.55,0,0,0-.43,12.47A42.56,42.56,0,0,1,585.82,1070a50.6,50.6,0,0,1,.42-12.6c.18-1.49.35-2.93.45-4.33"/><path class="cls-3" d="M598.61,1046.47l-.06,0,0,0a.64.64,0,0,1,0,.07"/><path class="cls-2" d="M676.7,1240.6a39.06,39.06,0,0,1-4.77-13.82,49.77,49.77,0,0,1,.35-13.17c.18-1.56.36-3,.47-4.49l0-.54.41.79c3.91,2.16,7.28,4.92,10.51,10.78l0,0a.34.34,0,0,0,0,.1,24.89,24.89,0,0,0,3.48,14.51c0,.23,0,.44,0,.66-.11,1.41-.28,2.84-.46,4.33a51.24,51.24,0,0,0-.41,12.61A38.56,38.56,0,0,1,676.7,1240.6Z"/><path class="cls-2" d="M655.28,1168.54h0l-.45-.79a4.53,4.53,0,0,0,.48.27c1.29.69,2.63,1.33,4,2a49.51,49.51,0,0,1,11.31,6.75,39,39,0,0,1,9.14,11.41,38.53,38.53,0,0,1,4.83,14.39,51,51,0,0,0-10.86-6.38c-1.36-.65-2.66-1.27-3.91-1.93l-.59-.32c-3.2-5.8-6.53-8.55-10.38-10.7l-.1,0,0,0C655.54,1177.31,655,1173,655.28,1168.54Z"/><path class="cls-2" d="M644.29,1157.62c-.11,1.41-.28,2.84-.46,4.34a51.05,51.05,0,0,0-.41,12.59,38.27,38.27,0,0,1-9.36-11.37"/><path class="cls-2" d="M687.21,1234.82l0,0a24.89,24.89,0,0,1-3.48-14.51.34.34,0,0,1,0-.1l.07.15c1.42.78,2.92,1.49,4.5,2.25a51.32,51.32,0,0,1,10.77,6.31,38.54,38.54,0,0,1,9.68,11.87,39,39,0,0,1,4.75,13.71s0,.08,0,.12a.39.39,0,0,1-.1-.08,50,50,0,0,0-11.21-6.67c-1.41-.67-2.75-1.31-4-2l-.5-.27a24.45,24.45,0,0,0-9.91-9.79Z"/><path class="cls-2" d="M701.62,1261h0c-3.23-5.86-3.76-10.18-3.5-14.63h0c-.15-.28-.3-.53-.46-.79l.5.27c1.28.69,2.62,1.33,4,2a50,50,0,0,1,11.21,6.67"/><path class="cls-2" d="M662.79,1215.35a38.62,38.62,0,0,1-4.85-14.53,51.56,51.56,0,0,1,.42-12.47c.22-1.74.42-3.37.51-5l-.09-.17.1,0c3.85,2.15,7.18,4.9,10.38,10.7l0,0c.19.34.36.67.53,1a24.44,24.44,0,0,0,3,13.62l0,.54c-.11,1.45-.29,2.93-.47,4.49a49.77,49.77,0,0,0-.35,13.17A39.26,39.26,0,0,1,662.79,1215.35Z"/><path class="cls-2" d="M656.2,1151.06a38.56,38.56,0,0,1,9.69,11.87,39,39,0,0,1,4.76,13.84,49.51,49.51,0,0,0-11.31-6.75c-1.41-.68-2.75-1.32-4-2a4.53,4.53,0,0,1-.48-.27,24.47,24.47,0,0,0-9.92-9.79c-.2-.12-.4-.22-.61-.33a.22.22,0,0,0,0-.08"/><path class="cls-3" d="M644.22,1157.59l.08,0a.22.22,0,0,1,0,.08Z"/><path class="cls-2" d="M691.11,1266.79a38.75,38.75,0,0,1-4.83-14.4,51.24,51.24,0,0,1,.41-12.61c.18-1.49.35-2.92.46-4.33,0-.22,0-.43,0-.66l0,0,.55,1a24.45,24.45,0,0,1,9.91,9.79c.16.26.31.51.46.79h0c-.26,4.45.27,8.77,3.5,14.63"/><path class="cls-2" d="M673.19,1209.37l-.41-.79a24.44,24.44,0,0,1-3-13.62c-.17-.32-.34-.65-.53-1l0,0,.59.32c1.25.66,2.55,1.28,3.91,1.93a51,51,0,0,1,10.86,6.38,42.53,42.53,0,0,1,14.44,26.32,51.32,51.32,0,0,0-10.77-6.31c-1.58-.76-3.08-1.47-4.5-2.25l-.09-.18C680.47,1214.29,677.1,1211.53,673.19,1209.37Z"/><path class="cls-2" d="M644.29,1157.62c.21.11.41.21.61.33a24.47,24.47,0,0,1,9.92,9.79l.45.79h0c-.27,4.45.26,8.77,3.48,14.62l.11.2c-.09,1.62-.29,3.25-.51,5a51.56,51.56,0,0,0-.42,12.47,42.49,42.49,0,0,1-14.52-26.27,51.05,51.05,0,0,1,.41-12.59c.18-1.5.35-2.93.46-4.34"/><path class="cls-3" d="M656.2,1151.06l-.05,0,0,0a.13.13,0,0,1,0,.06"/><path class="cls-2" d="M734.29,1345.2a39.13,39.13,0,0,1-4.76-13.83,49.7,49.7,0,0,1,.34-13.16c.19-1.56.37-3,.47-4.5,0-.18,0-.36,0-.54.13.27.26.53.41.79,3.91,2.16,7.28,4.92,10.5,10.78l0,0a.14.14,0,0,0,0,.09,24.83,24.83,0,0,0,3.48,14.52c0,.22,0,.43,0,.66-.1,1.4-.27,2.83-.45,4.33a51.16,51.16,0,0,0-.41,12.6A38.66,38.66,0,0,1,734.29,1345.2Z"/><path class="cls-2" d="M712.88,1273.14h0c-.15-.28-.3-.53-.46-.79a4.59,4.59,0,0,0,.49.26c1.28.69,2.63,1.34,4,2a49.51,49.51,0,0,1,11.31,6.75,39.17,39.17,0,0,1,9.14,11.42,38.66,38.66,0,0,1,4.83,14.39,51.06,51.06,0,0,0-10.87-6.38c-1.36-.65-2.66-1.27-3.9-1.94l-.59-.32c-3.2-5.79-6.53-8.55-10.39-10.69l-.09,0,0,0C713.14,1281.91,712.61,1277.59,712.88,1273.14Z"/><path class="cls-2" d="M701.89,1262.22c-.11,1.41-.28,2.84-.46,4.33a51.6,51.6,0,0,0-.42,12.6,38.67,38.67,0,0,1-9.35-11.37"/><path class="cls-2" d="M744.8,1339.41v0a24.83,24.83,0,0,1-3.48-14.52.14.14,0,0,1,0-.09l.08.14c1.42.79,2.91,1.5,4.5,2.26a51.32,51.32,0,0,1,10.77,6.31,38.49,38.49,0,0,1,9.68,11.86,39.08,39.08,0,0,1,4.74,13.71l0,.13-.11-.08a49.77,49.77,0,0,0-11.2-6.67c-1.41-.68-2.76-1.31-4-2l-.49-.27a24.39,24.39,0,0,0-9.91-9.79C745.17,1340.06,745,1339.74,744.8,1339.41Z"/><path class="cls-2" d="M759.21,1365.6h0c-3.22-5.86-3.76-10.19-3.49-14.64h0c-.15-.28-.3-.53-.46-.79l.49.27c1.28.69,2.63,1.32,4,2a49.77,49.77,0,0,1,11.2,6.67"/><path class="cls-2" d="M720.39,1320a38.27,38.27,0,0,1-4.85-14.53,51.14,51.14,0,0,1,.42-12.48c.21-1.73.42-3.37.51-5l-.09-.16.09,0c3.86,2.14,7.19,4.9,10.39,10.69l0,0c.18.33.36.67.52,1a24.43,24.43,0,0,0,3,13.61c0,.18,0,.36,0,.54-.1,1.45-.28,2.94-.47,4.5a49.7,49.7,0,0,0-.34,13.16A38.9,38.9,0,0,1,720.39,1320Z"/><path class="cls-2" d="M713.8,1255.66a38.54,38.54,0,0,1,9.68,11.87,39,39,0,0,1,4.77,13.83,49.51,49.51,0,0,0-11.31-6.75c-1.41-.67-2.76-1.32-4-2a4.59,4.59,0,0,1-.49-.26,24.39,24.39,0,0,0-9.91-9.79c-.2-.12-.41-.23-.61-.33a.22.22,0,0,1,0-.08"/><path class="cls-3" d="M701.82,1262.18l.08,0a.22.22,0,0,0,0,.08Z"/><path class="cls-2" d="M748.71,1371.38a38.51,38.51,0,0,1-4.83-14.4,51.16,51.16,0,0,1,.41-12.6c.18-1.5.35-2.93.45-4.33,0-.23,0-.44,0-.66v0c.18.33.37.65.56,1a24.39,24.39,0,0,1,9.91,9.79c.16.26.31.51.46.79h0c-.27,4.45.27,8.78,3.49,14.64"/><path class="cls-2" d="M730.79,1314c-.15-.26-.28-.52-.41-.79a24.43,24.43,0,0,1-3-13.61c-.16-.32-.34-.66-.52-1l0,0,.59.32c1.24.67,2.54,1.29,3.9,1.94a51.06,51.06,0,0,1,10.87,6.38,42.66,42.66,0,0,1,14.44,26.32,51.32,51.32,0,0,0-10.77-6.31c-1.59-.76-3.08-1.47-4.5-2.26l-.1-.18C738.07,1318.88,734.7,1316.12,730.79,1314Z"/><path class="cls-2" d="M701.89,1262.22c.2.1.41.21.61.33a24.39,24.39,0,0,1,9.91,9.79c.16.26.31.51.46.79h0c-.27,4.45.26,8.77,3.48,14.62l.11.19c-.09,1.62-.3,3.26-.51,5a51.14,51.14,0,0,0-.42,12.48A42.57,42.57,0,0,1,701,1279.15a51.6,51.6,0,0,1,.42-12.6c.18-1.49.35-2.92.46-4.33"/><path class="cls-3" d="M713.8,1255.66l-.06,0,0,0s0,0,0,.06"/><path class="cls-2" d="M791.89,1449.8a39.13,39.13,0,0,1-4.76-13.83,49.37,49.37,0,0,1,.34-13.17c.18-1.55.37-3,.47-4.49l0-.54c.14.26.27.52.42.79,3.9,2.16,7.27,4.92,10.5,10.78l0,0a.25.25,0,0,0,0,.09,24.91,24.91,0,0,0,3.49,14.51c0,.23,0,.44,0,.66-.11,1.41-.28,2.84-.46,4.34a51.65,51.65,0,0,0-.41,12.6A38.8,38.8,0,0,1,791.89,1449.8Z"/><path class="cls-2" d="M770.47,1377.73h0c-.15-.27-.3-.52-.46-.78.16.09.32.18.49.26,1.28.69,2.63,1.33,4,2a49.51,49.51,0,0,1,11.31,6.75,42.66,42.66,0,0,1,14,25.81,51,51,0,0,0-10.87-6.39c-1.36-.64-2.66-1.26-3.9-1.93l-.59-.32a25,25,0,0,0-10.39-10.7l-.1,0v0C770.74,1386.5,770.21,1382.18,770.47,1377.73Z"/><path class="cls-2" d="M759.48,1366.81c-.1,1.41-.27,2.84-.45,4.34a50.54,50.54,0,0,0-.42,12.59,38.33,38.33,0,0,1-9.35-11.36"/><path class="cls-2" d="M802.4,1444v0a24.91,24.91,0,0,1-3.49-14.51.25.25,0,0,1,0-.09l.08.14c1.41.79,2.91,1.5,4.49,2.25a51.32,51.32,0,0,1,10.77,6.31,38.56,38.56,0,0,1,9.69,11.87,39.22,39.22,0,0,1,4.74,13.71s0,.09,0,.13l-.1-.09a49.91,49.91,0,0,0-11.21-6.66c-1.41-.68-2.75-1.31-4-2l-.49-.28A24.47,24.47,0,0,0,803,1445C802.77,1444.66,802.58,1444.34,802.4,1444Z"/><path class="cls-2" d="M816.81,1470.2h0c-3.23-5.86-3.76-10.18-3.49-14.63h0l-.45-.79.49.28c1.28.69,2.62,1.32,4,2a49.91,49.91,0,0,1,11.21,6.66"/><path class="cls-2" d="M778,1424.54a38.57,38.57,0,0,1-4.85-14.53,51.55,51.55,0,0,1,.43-12.47c.21-1.73.41-3.37.51-5l-.1-.17.1,0a25,25,0,0,1,10.39,10.7l0,0,.52,1a24.51,24.51,0,0,0,3,13.61l0,.54c-.1,1.45-.29,2.94-.47,4.49a49.37,49.37,0,0,0-.34,13.17A39.14,39.14,0,0,1,778,1424.54Z"/><path class="cls-2" d="M771.4,1360.25a38.66,38.66,0,0,1,9.68,11.87,39.14,39.14,0,0,1,4.77,13.84,49.51,49.51,0,0,0-11.31-6.75c-1.41-.68-2.76-1.32-4-2-.17-.08-.33-.17-.49-.26a24.48,24.48,0,0,0-9.91-9.8l-.62-.33s0,0,0-.07"/><path class="cls-3" d="M759.42,1366.78l.08,0s0,0,0,.07Z"/><path class="cls-2" d="M806.31,1476a38.73,38.73,0,0,1-4.84-14.4,51.65,51.65,0,0,1,.41-12.6c.18-1.5.35-2.93.46-4.34,0-.22,0-.43,0-.66v0c.18.33.37.65.55,1a24.47,24.47,0,0,1,9.92,9.79l.45.79h0c-.27,4.45.26,8.77,3.49,14.63"/><path class="cls-2" d="M788.39,1418.56c-.15-.27-.28-.53-.42-.79a24.51,24.51,0,0,1-3-13.61l-.52-1,0,0,.59.32c1.24.67,2.54,1.29,3.9,1.93a51,51,0,0,1,10.87,6.39,42.52,42.52,0,0,1,14.43,26.31,51.32,51.32,0,0,0-10.77-6.31c-1.58-.75-3.08-1.46-4.49-2.25l-.1-.18C795.66,1423.48,792.29,1420.72,788.39,1418.56Z"/><path class="cls-2" d="M759.48,1366.81l.62.33a24.48,24.48,0,0,1,9.91,9.8c.16.26.31.51.46.78h0c-.26,4.45.27,8.77,3.49,14.63l.11.19c-.1,1.62-.3,3.26-.51,5a51.55,51.55,0,0,0-.43,12.47,42.62,42.62,0,0,1-14.52-26.27,50.54,50.54,0,0,1,.42-12.59c.18-1.5.35-2.93.45-4.34"/><path class="cls-3" d="M771.4,1360.25l-.06,0,0,0,0,.06"/><path class="cls-2" d="M849.49,1554.39a39.11,39.11,0,0,1-4.77-13.83,49.71,49.71,0,0,1,.35-13.16c.18-1.56.36-3,.47-4.5l0-.53c.13.26.27.52.41.78a25,25,0,0,1,10.51,10.79l0,0a.34.34,0,0,0,0,.1,24.89,24.89,0,0,0,3.48,14.51c0,.22,0,.44,0,.66-.11,1.41-.28,2.84-.46,4.33a51.22,51.22,0,0,0-.41,12.61A38.56,38.56,0,0,1,849.49,1554.39Z"/><path class="cls-2" d="M828.07,1482.33h0l-.45-.79a3.2,3.2,0,0,0,.48.26c1.29.7,2.63,1.34,4,2a49.57,49.57,0,0,1,11.31,6.76,39,39,0,0,1,9.14,11.41,38.53,38.53,0,0,1,4.83,14.39,51,51,0,0,0-10.86-6.38c-1.36-.65-2.66-1.27-3.91-1.93l-.59-.32c-3.2-5.8-6.53-8.55-10.38-10.7l-.1,0,0,0C828.33,1491.1,827.8,1486.78,828.07,1482.33Z"/><path class="cls-2" d="M817.08,1471.41c-.11,1.41-.28,2.84-.46,4.34a51.05,51.05,0,0,0-.41,12.59,38.4,38.4,0,0,1-9.36-11.37"/><path class="cls-2" d="M860,1548.6l0,0a24.89,24.89,0,0,1-3.48-14.51.34.34,0,0,1,0-.1l.07.14c1.42.79,2.92,1.5,4.5,2.26a51.32,51.32,0,0,1,10.77,6.31,38.61,38.61,0,0,1,9.68,11.86,39.1,39.1,0,0,1,4.75,13.72s0,.08,0,.12a.39.39,0,0,1-.1-.08,50,50,0,0,0-11.21-6.67c-1.41-.67-2.75-1.31-4-2l-.5-.27a24.45,24.45,0,0,0-9.91-9.79C860.37,1549.25,860.18,1548.93,860,1548.6Z"/><path class="cls-2" d="M874.41,1574.79h0c-3.23-5.86-3.76-10.18-3.5-14.63h0c-.15-.28-.3-.53-.46-.79l.5.27c1.28.69,2.62,1.33,4,2a50,50,0,0,1,11.21,6.67"/><path class="cls-2" d="M835.58,1529.14a38.62,38.62,0,0,1-4.85-14.53,51.67,51.67,0,0,1,.42-12.48c.22-1.73.42-3.36.51-5l-.09-.17.1,0c3.85,2.15,7.18,4.9,10.38,10.7l0,0c.19.34.36.67.53,1a24.44,24.44,0,0,0,3,13.62l0,.53c-.11,1.46-.29,2.94-.47,4.5a49.71,49.71,0,0,0-.35,13.16A39.07,39.07,0,0,1,835.58,1529.14Z"/><path class="cls-2" d="M829,1464.85a38.56,38.56,0,0,1,9.69,11.87,39,39,0,0,1,4.76,13.84,49.57,49.57,0,0,0-11.31-6.76c-1.41-.67-2.75-1.31-4-2a3.2,3.2,0,0,1-.48-.26,24.47,24.47,0,0,0-9.92-9.79c-.2-.12-.4-.22-.61-.33a.22.22,0,0,0,0-.08"/><path class="cls-3" d="M817,1471.38l.08-.05a.22.22,0,0,1,0,.08Z"/><path class="cls-2" d="M863.9,1580.58a38.75,38.75,0,0,1-4.83-14.4,51.22,51.22,0,0,1,.41-12.61c.18-1.49.35-2.92.46-4.33,0-.22,0-.44,0-.66l0,0c.18.33.37.65.55,1a24.45,24.45,0,0,1,9.91,9.79c.16.26.31.51.46.79h0c-.26,4.45.27,8.77,3.5,14.63"/><path class="cls-2" d="M846,1523.15c-.14-.26-.28-.52-.41-.78a24.44,24.44,0,0,1-3-13.62c-.17-.32-.34-.65-.53-1l0,0,.59.32c1.25.66,2.55,1.28,3.91,1.93a51,51,0,0,1,10.86,6.38,42.53,42.53,0,0,1,14.44,26.32,51.32,51.32,0,0,0-10.77-6.31c-1.58-.76-3.08-1.47-4.5-2.26l-.09-.17A25,25,0,0,0,846,1523.15Z"/><path class="cls-2" d="M817.08,1471.41c.21.11.41.21.61.33a24.47,24.47,0,0,1,9.92,9.79l.45.79h0c-.27,4.45.26,8.77,3.48,14.62l.11.2c-.09,1.62-.29,3.25-.51,5a51.67,51.67,0,0,0-.42,12.48,42.49,42.49,0,0,1-14.52-26.27,51.05,51.05,0,0,1,.41-12.59c.18-1.5.35-2.93.46-4.34"/><path class="cls-3" d="M829,1464.85l0,0,0,0a.13.13,0,0,1,0,.06"/><path class="cls-2" d="M907.08,1659a39.13,39.13,0,0,1-4.76-13.83,49.79,49.79,0,0,1,.34-13.17c.19-1.55.37-3,.47-4.49,0-.18,0-.36,0-.54.13.26.26.52.41.79,3.91,2.16,7.28,4.92,10.5,10.78l0,0a.14.14,0,0,0,0,.09,24.78,24.78,0,0,0,3.48,14.51c0,.23,0,.44-.05.66-.1,1.41-.27,2.84-.45,4.34a51.16,51.16,0,0,0-.41,12.6A38.66,38.66,0,0,1,907.08,1659Z"/><path class="cls-2" d="M885.66,1586.92h0c-.15-.28-.3-.53-.46-.79a4.59,4.59,0,0,0,.49.26c1.28.69,2.63,1.33,4,2a49.51,49.51,0,0,1,11.31,6.75,39.17,39.17,0,0,1,9.14,11.42A38.6,38.6,0,0,1,915,1621a50.83,50.83,0,0,0-10.86-6.38c-1.37-.65-2.67-1.27-3.91-1.94l-.59-.32c-3.2-5.79-6.53-8.55-10.39-10.69l-.09-.06,0,0A24.94,24.94,0,0,1,885.66,1586.92Z"/><path class="cls-2" d="M874.68,1576c-.11,1.4-.28,2.84-.46,4.33a51.58,51.58,0,0,0-.42,12.6,38.67,38.67,0,0,1-9.35-11.37"/><path class="cls-2" d="M917.59,1653.2v0a24.78,24.78,0,0,1-3.48-14.51.14.14,0,0,1,0-.09l.08.14c1.42.79,2.91,1.5,4.5,2.25a52.21,52.21,0,0,1,10.77,6.31,42.67,42.67,0,0,1,14.42,25.58l0,.13-.11-.08a49.77,49.77,0,0,0-11.2-6.67c-1.41-.68-2.76-1.31-4-2-.16-.1-.32-.18-.49-.27a24.48,24.48,0,0,0-9.91-9.8C918,1653.85,917.77,1653.53,917.59,1653.2Z"/><path class="cls-2" d="M932,1679.39h0c-3.22-5.86-3.76-10.18-3.49-14.63h0c-.15-.27-.3-.52-.46-.78.17.09.33.17.49.27,1.28.69,2.63,1.32,4,2a49.77,49.77,0,0,1,11.2,6.67"/><path class="cls-2" d="M893.18,1633.73a38.22,38.22,0,0,1-4.85-14.53,51.08,51.08,0,0,1,.42-12.47c.21-1.73.42-3.37.51-5l-.09-.17.09.06c3.86,2.14,7.19,4.9,10.39,10.69l0,0c.18.33.36.67.52,1a24.45,24.45,0,0,0,3,13.61c0,.18,0,.36,0,.54-.1,1.45-.28,2.94-.47,4.49a49.79,49.79,0,0,0-.34,13.17A39,39,0,0,1,893.18,1633.73Z"/><path class="cls-2" d="M886.59,1569.45a38.49,38.49,0,0,1,9.68,11.86,39.14,39.14,0,0,1,4.77,13.84,49.51,49.51,0,0,0-11.31-6.75c-1.41-.68-2.76-1.32-4-2a4.59,4.59,0,0,1-.49-.26,24.39,24.39,0,0,0-9.91-9.79c-.2-.12-.41-.23-.61-.33a.22.22,0,0,1,0-.08"/><path class="cls-3" d="M874.61,1576l.08,0a.22.22,0,0,0,0,.08Z"/><path class="cls-2" d="M921.5,1685.17a38.51,38.51,0,0,1-4.83-14.4,51.16,51.16,0,0,1,.41-12.6c.18-1.5.35-2.93.45-4.34,0-.22,0-.43.05-.66v0c.18.33.37.65.56,1a24.48,24.48,0,0,1,9.91,9.8c.16.26.31.51.46.78h0c-.27,4.45.27,8.77,3.49,14.63"/><path class="cls-2" d="M903.58,1627.75c-.15-.27-.28-.53-.41-.79a24.45,24.45,0,0,1-3-13.61c-.16-.32-.34-.66-.52-1l0,0,.59.32c1.24.67,2.54,1.29,3.91,1.94A50.83,50.83,0,0,1,915,1621a42.6,42.6,0,0,1,14.44,26.31,52.21,52.21,0,0,0-10.77-6.31c-1.59-.75-3.08-1.46-4.5-2.25l-.1-.18C910.86,1632.67,907.49,1629.91,903.58,1627.75Z"/><path class="cls-2" d="M874.68,1576c.2.1.41.21.61.33a24.39,24.39,0,0,1,9.91,9.79c.16.26.31.51.46.79h0a24.94,24.94,0,0,0,3.49,14.63l.11.19c-.09,1.62-.3,3.26-.51,5a51.08,51.08,0,0,0-.42,12.47,38.36,38.36,0,0,1-9.69-11.86,38.85,38.85,0,0,1-4.84-14.4,51.58,51.58,0,0,1,.42-12.6c.18-1.49.35-2.93.46-4.33"/><path class="cls-3" d="M886.59,1569.45l-.06,0,.05,0a.15.15,0,0,1,0,.07"/><path class="cls-2" d="M964.68,1763.58a39,39,0,0,1-4.76-13.82,49.37,49.37,0,0,1,.34-13.17c.18-1.56.37-3,.47-4.49l0-.54c.14.26.27.52.42.79,3.9,2.16,7.27,4.92,10.5,10.78l0,0a.34.34,0,0,0,0,.1,24.91,24.91,0,0,0,3.49,14.51c0,.23,0,.44,0,.66-.11,1.41-.28,2.84-.46,4.33a51.73,51.73,0,0,0-.41,12.61A38.85,38.85,0,0,1,964.68,1763.58Z"/><path class="cls-2" d="M943.26,1691.52h0c-.15-.27-.3-.52-.46-.79a4.67,4.67,0,0,0,.49.27c1.28.69,2.63,1.33,4,2a49.51,49.51,0,0,1,11.31,6.75,42.59,42.59,0,0,1,14,25.81,51,51,0,0,0-10.87-6.39c-1.36-.64-2.66-1.27-3.9-1.93l-.59-.32a24.93,24.93,0,0,0-10.39-10.7l-.1,0v0A24.91,24.91,0,0,1,943.26,1691.52Z"/><path class="cls-2" d="M932.27,1680.6c-.1,1.41-.27,2.84-.45,4.34a50.54,50.54,0,0,0-.42,12.59,38.26,38.26,0,0,1-9.35-11.37"/><path class="cls-2" d="M975.19,1757.8v0a24.91,24.91,0,0,1-3.49-14.51.34.34,0,0,1,0-.1l.08.15c1.41.78,2.91,1.49,4.49,2.25a51.32,51.32,0,0,1,10.77,6.31,38.56,38.56,0,0,1,9.69,11.87,39.15,39.15,0,0,1,4.74,13.71s0,.08,0,.12l-.1-.08a50,50,0,0,0-11.21-6.67c-1.41-.67-2.75-1.31-4-2-.17-.09-.33-.17-.49-.27a24.47,24.47,0,0,0-9.92-9.79Z"/><path class="cls-2" d="M989.6,1784h0c-3.23-5.86-3.76-10.18-3.49-14.63h0c-.15-.28-.3-.53-.45-.79.16.1.32.18.49.27,1.28.69,2.62,1.33,4,2a50,50,0,0,1,11.21,6.67"/><path class="cls-2" d="M950.77,1738.33a38.62,38.62,0,0,1-4.85-14.53,51.53,51.53,0,0,1,.43-12.47c.21-1.74.41-3.37.5-5l-.09-.17.1,0a24.93,24.93,0,0,1,10.39,10.7l0,0,.52,1a24.51,24.51,0,0,0,3,13.61l0,.54c-.1,1.45-.29,2.93-.47,4.49a49.37,49.37,0,0,0-.34,13.17A39.27,39.27,0,0,1,950.77,1738.33Z"/><path class="cls-2" d="M944.19,1674a38.54,38.54,0,0,1,9.68,11.87,39,39,0,0,1,4.77,13.84,49.51,49.51,0,0,0-11.31-6.75c-1.41-.68-2.76-1.32-4-2a4.67,4.67,0,0,1-.49-.27,24.45,24.45,0,0,0-9.91-9.79l-.62-.33s0,0,0-.07"/><path class="cls-3" d="M932.21,1680.57l.08,0s0,0,0,.07Z"/><path class="cls-2" d="M979.1,1789.77a38.79,38.79,0,0,1-4.84-14.4,51.73,51.73,0,0,1,.41-12.61c.18-1.49.35-2.92.46-4.33,0-.22,0-.43,0-.66v0l.55,1a24.47,24.47,0,0,1,9.92,9.79c.15.26.3.51.45.79h0c-.27,4.45.26,8.77,3.49,14.63"/><path class="cls-2" d="M961.18,1732.35c-.15-.27-.28-.53-.42-.79a24.51,24.51,0,0,1-3-13.61l-.52-1,0,0,.59.32c1.24.66,2.54,1.29,3.9,1.93a51,51,0,0,1,10.87,6.39A42.52,42.52,0,0,1,987,1751.87a51.32,51.32,0,0,0-10.77-6.31c-1.58-.76-3.08-1.47-4.49-2.25l-.1-.18C968.45,1737.27,965.08,1734.51,961.18,1732.35Z"/><path class="cls-2" d="M932.27,1680.6l.62.33a24.45,24.45,0,0,1,9.91,9.79c.16.27.31.52.46.79h0a24.91,24.91,0,0,0,3.49,14.62l.1.2c-.09,1.62-.29,3.25-.5,5a51.53,51.53,0,0,0-.43,12.47,42.62,42.62,0,0,1-14.52-26.27,50.54,50.54,0,0,1,.42-12.59c.18-1.5.35-2.93.45-4.34"/><path class="cls-3" d="M944.19,1674l-.06,0,0,0s0,0,0,.06"/></g></g></svg>