<svg xmlns="http://www.w3.org/2000/svg" viewBox="0 0 113.98 1714.03"><defs><style>.cls-1{fill:#f7d6eb;}.cls-2{fill:none;stroke:#f5aed0;stroke-linecap:round;stroke-linejoin:round;}.cls-3{fill:#f5aed0;}</style></defs><g id="圖層_2" data-name="圖層 2"><g id="mobile"><path class="cls-1" d="M56.75,18.57c.21-1.51,1.43-2.66,3.12-3.61a38.93,38.93,0,0,1,7.29-2.73c1-.3,1.93-.58,2.8-.87l.31-.1-.06.22c2.26,1,3.75,2,3.52,3.68h0l-.06,0c-2.53.9-4.32,1.88-4.52,3.56l-.39.14c-.83.29-1.74.57-2.69.87a40.28,40.28,0,0,0-7,2.68C57.52,21.4,56.53,20.16,56.75,18.57Z"/><path class="cls-1" d="M88.85,4a18.07,18.07,0,0,0-4.64-.75A32.13,32.13,0,0,0,76,3.93h0l0,0a11.3,11.3,0,0,0-1,.83c-.19.13-.09.3,0,.46l.25.47a3.8,3.8,0,0,1,.38.93,1.84,1.84,0,0,1,0,1l.32.15c.7.3,1.47.61,2.29.92a32.27,32.27,0,0,1,6,2.77,9.71,9.71,0,0,0,2.28-1.56A5.38,5.38,0,0,0,87.21,9c.1-.17.19-.33.27-.5l.1-.26L87.66,8l0-.1v0l.85-1.15s.63-1.72.18-2.59"/><path class="cls-1" d="M69.14,18.76h0c.2-1.68,2-2.66,4.52-3.56l.06,0v0c.84.36,1.79.71,2.8,1.09a33.72,33.72,0,0,1,6.29,2.8c1.61,1,2.67,2.27,2.55,3.88s-1.22,2.69-2.82,3.66l-.05,0,0,0a33.09,33.09,0,0,0-6.67-3c-.92-.34-1.8-.66-2.59-1l-.3-.12C72.85,21,71.33,20,69.13,19Z"/><path class="cls-1" d="M72.87,22.75h0v-.23l.3.12c.79.33,1.67.65,2.59,1a33.09,33.09,0,0,1,6.67,3l-14-.19-.08,0-.07,0h0C68.51,24.71,70.3,23.69,72.87,22.75Z"/><path class="cls-1" d="M58,11.29c.33-1.57,1.78-2.75,3.75-3.71l1.84-1c.32-.18.67-.35,1-.51a11.56,11.56,0,0,1,1.08-.43,22.64,22.64,0,0,1,4.76-1.1c.38,0,.74-.1,1.18-.14s.9-.06,1.33-.09l1.28-.08,1.25,0,.15,0,0,0a11.08,11.08,0,0,0-1,.83c-.19.13-.09.3,0,.46l.26.47a3.8,3.8,0,0,1,.38.93,1.84,1.84,0,0,1,0,1h0l-.1.27c-2.5.8-4.31,1.7-4.77,3.19l-.31.1c-.87.29-1.82.57-2.8.87A38.93,38.93,0,0,0,59.87,15C58.5,14,57.67,12.79,58,11.29Z"/><path class="cls-1" d="M55.79,26.28c.18-1.62,1.48-2.84,3.28-3.84a40.28,40.28,0,0,1,7-2.68c1-.3,1.86-.58,2.69-.87l.39-.14h0V19c2.2.94,3.72,1.93,3.75,3.48v.23h0c-2.57.94-4.36,2-4.52,3.7Z"/><path class="cls-1" d="M70.21,11.48l.06-.22c.46-1.49,2.27-2.39,4.77-3.19l.1-.27h0l.33.15c.69.3,1.47.61,2.29.92a31.88,31.88,0,0,1,6,2.77c1.49,1,2.45,2.19,2.27,3.74s-1.45,2.75-3.24,3.73a33.72,33.72,0,0,0-6.29-2.8c-1-.38-2-.73-2.8-1.09v-.05C74,13.49,72.47,12.46,70.21,11.48Z"/><path class="cls-1" d="M89.3,2.7a8.09,8.09,0,0,1,2.17-1.57c-1.23-.19-2.57-.35-4-.48C85.61.5,83.62.43,81.49.43A68.91,68.91,0,0,0,68.37,1.66c-1.06.21-2,.44-2.9.68a20.68,20.68,0,0,0-2.28.7,3.48,3.48,0,0,0-2.07,1.63,2.8,2.8,0,0,0,.6,2.91l1.84-1c.32-.18.67-.35,1-.51a11.56,11.56,0,0,1,1.08-.43,22.64,22.64,0,0,1,4.76-1.1c.38,0,.74-.1,1.18-.14s.9-.06,1.33-.09l1.28-.08,1.25,0,.17,0a32.25,32.25,0,0,1,8.2-.65,18.15,18.15,0,0,1,4.64.75A4.42,4.42,0,0,1,89.3,2.7Z"/><path class="cls-1" d="M53.63,50.34c.12-1.68,1.32-3,3-4a36.94,36.94,0,0,1,7.4-3.07c1-.34,2-.66,2.84-1l.32-.12,0,.24c2.5,1.08,4.18,2.22,4.09,4.08h0l-.06,0c-2.59,1-4.4,2.12-4.5,4l-.4.15c-.86.33-1.8.65-2.78,1a39,39,0,0,0-7.24,3C54.6,53.48,53.49,52.1,53.63,50.34Z"/><path class="cls-1" d="M72.24,30.46h0v-.25a2.22,2.22,0,0,0,.31.13c.81.34,1.71.67,2.64,1a32.73,32.73,0,0,1,6.87,3.12c1.54,1.05,2.56,2.31,2.5,3.91s-1.3,3-3.07,4a35.71,35.71,0,0,0-6.77-3c-.93-.35-1.81-.68-2.61-1l-.38-.16c.1-1.79-1.52-2.89-3.94-3.93l-.06,0h0C67.85,32.48,69.65,31.42,72.24,30.46Z"/><path class="cls-1" d="M55.79,26.31,68,26.48H68c-.83.3-1.74.6-2.69.9a39.41,39.41,0,0,0-7,2.77C56.69,29.12,55.68,27.88,55.79,26.31Z"/><path class="cls-1" d="M66.71,50.49h0c.1-1.87,1.91-3,4.5-4l.06,0v0c.91.4,1.94.79,3,1.2a36.88,36.88,0,0,1,6.85,3.1c1.76,1.14,2.95,2.53,2.91,4.32s-1.16,3-2.81,4.11l0,0,0,0A35.53,35.53,0,0,0,74,55.9c-1-.38-1.93-.74-2.78-1.1l-.33-.14c-.11-1.72-1.76-2.82-4.15-3.86Z"/><path class="cls-1" d="M70.87,54.93h0v-.26l.33.14c.85.36,1.79.72,2.78,1.1a35.53,35.53,0,0,1,7.18,3.33l-14.73-.16-.08,0-.08,0h0C66.36,57.12,68.21,56,70.87,54.93Z"/><path class="cls-1" d="M54.27,42.29c.14-1.73,1.45-3,3.3-4.09a39.44,39.44,0,0,1,7-2.81c1.11-.37,2.17-.71,3.11-1.07v0l.06,0c2.42,1,4,2.14,3.94,3.93h0l0,.31c-2.44.93-4.18,2-4.47,3.6l-.32.12c-.87.33-1.84.65-2.84,1a36.94,36.94,0,0,0-7.4,3.07C55.12,45.23,54.13,43.93,54.27,42.29Z"/><path class="cls-1" d="M68,26.49H68l14.16.19,0,0c1.65,1.06,2.76,2.33,2.67,4s-1.21,2.79-2.84,3.8a32.73,32.73,0,0,0-6.87-3.12c-.93-.35-1.83-.68-2.64-1a2.22,2.22,0,0,1-.31-.13c-.06-1.58-1.62-2.6-3.87-3.56Z"/><path class="cls-1" d="M67.93,26.48h0Z"/><path class="cls-1" d="M53,58.91c.13-1.8,1.44-3.16,3.29-4.28a39,39,0,0,1,7.24-3c1-.34,1.92-.66,2.78-1l.4-.15h0v.31c2.39,1,4,2.14,4.15,3.86v.26h0c-2.66,1-4.51,2.19-4.6,4.14Z"/><path class="cls-1" d="M67.18,42.38l0-.24c.29-1.65,2-2.67,4.47-3.6l0-.31h0l.38.16c.8.33,1.68.66,2.61,1a35.71,35.71,0,0,1,6.77,3c1.7,1.11,2.84,2.45,2.79,4.18s-1.3,3.1-3.12,4.2a36.88,36.88,0,0,0-6.85-3.1c-1.09-.41-2.12-.8-3-1.2v0C71.36,44.6,69.68,43.46,67.18,42.38Z"/><path class="cls-1" d="M55,34.1c.16-1.66,1.45-2.92,3.25-3.94a39.41,39.41,0,0,1,7-2.77c1-.3,1.86-.6,2.69-.9l.39.16c2.25,1,3.81,2,3.87,3.56v.25h0c-2.59,1-4.39,2-4.52,3.8v.06c-.94.36-2,.7-3.11,1.07a39.44,39.44,0,0,0-7,2.81C55.91,37.1,54.83,35.79,55,34.1Z"/><path class="cls-1" d="M82.19,26.67h0l0,0Z"/><path class="cls-1" d="M51.32,85.79c.1-1.87,1.35-3.32,3.12-4.5a37.2,37.2,0,0,1,7.78-3.45c1.05-.38,2.07-.75,3-1.11l.34-.14,0,.27c2.67,1.2,4.48,2.47,4.42,4.55v0l-.06,0c-2.72,1.14-4.62,2.39-4.7,4.48-.14.06-.27.12-.42.17-.9.37-1.89.73-2.92,1.11A39.65,39.65,0,0,0,54.2,90.6C52.39,89.31,51.2,87.77,51.32,85.79Z"/><path class="cls-1" d="M70.52,63.52h0v-.27a2.52,2.52,0,0,0,.33.14c.87.37,1.82.74,2.83,1.13A35.2,35.2,0,0,1,81,68c1.65,1.17,2.77,2.58,2.75,4.37s-1.29,3.34-3.14,4.54a37,37,0,0,0-7.24-3.4c-1-.39-1.92-.75-2.78-1.12l-.4-.18c.06-2-1.69-3.23-4.27-4.38l-.06,0h0C66,65.79,67.82,64.61,70.52,63.52Z"/><path class="cls-1" d="M53,59l12.93.15h-.06c-.87.34-1.81.67-2.81,1a40.07,40.07,0,0,0-7.33,3.1C54.06,62.07,53,60.7,53,59Z"/><path class="cls-1" d="M65.16,85.94h0c.08-2.09,2-3.34,4.7-4.48l.06,0v0c1,.44,2.08.87,3.24,1.33a38.8,38.8,0,0,1,7.3,3.46c1.88,1.29,3.17,2.84,3.16,4.85s-1.18,3.38-2.91,4.61l0,0-.05,0A37.11,37.11,0,0,0,72.94,92c-1-.42-2.06-.82-3-1.22l-.34-.16c-.15-1.93-1.92-3.16-4.46-4.32Z"/><path class="cls-1" d="M69.64,90.91h0v-.29l.34.16c.91.4,1.92.8,3,1.22a37.11,37.11,0,0,1,7.66,3.74L65,95.56l-.09,0-.08,0h0C64.9,93.38,66.84,92.09,69.64,90.91Z"/><path class="cls-1" d="M51.85,76.78c.11-1.93,1.47-3.39,3.4-4.57a38.94,38.94,0,0,1,7.37-3.16c1.16-.41,2.27-.8,3.25-1.2v-.06l.06,0c2.58,1.15,4.33,2.38,4.27,4.38h0l0,.34c-2.57,1-4.38,2.19-4.64,4l-.34.14c-.91.36-1.93.73-3,1.11a37.2,37.2,0,0,0-7.78,3.45C52.81,80.07,51.74,78.62,51.85,76.78Z"/><path class="cls-1" d="M65.87,59.11h.06l14.95.17h0c1.79,1.18,3,2.6,3,4.45S82.71,66.86,81,68a35.2,35.2,0,0,0-7.35-3.47c-1-.39-2-.76-2.83-1.13a2.52,2.52,0,0,1-.33-.14c-.12-1.77-1.8-2.9-4.23-4Z"/><path class="cls-1" d="M65.83,59.1h0Z"/><path class="cls-1" d="M50.78,95.41c.11-2,1.47-3.56,3.42-4.81a39.65,39.65,0,0,1,7.62-3.39c1-.38,2-.74,2.92-1.11.15,0,.28-.11.42-.17h0v.35c2.54,1.16,4.31,2.39,4.46,4.32v.29h0c-2.8,1.18-4.74,2.47-4.81,4.65Z"/><path class="cls-1" d="M65.5,76.86l0-.27c.26-1.85,2.07-3,4.64-4l0-.34h0l.4.18c.86.37,1.8.73,2.78,1.12a37,37,0,0,1,7.24,3.4c1.82,1.23,3.06,2.73,3,4.67s-1.32,3.47-3.22,4.7a38.8,38.8,0,0,0-7.3-3.46c-1.16-.46-2.26-.89-3.24-1.33v-.07C70,79.33,68.17,78.06,65.5,76.86Z"/><path class="cls-1" d="M52.42,67.63c.12-1.85,1.44-3.26,3.31-4.41a40.07,40.07,0,0,1,7.33-3.1c1-.34,1.94-.67,2.81-1l.41.18c2.43,1.06,4.11,2.19,4.23,4v.27h0c-2.7,1.09-4.56,2.27-4.64,4.26v.07c-1,.4-2.09.79-3.25,1.2a38.94,38.94,0,0,0-7.37,3.16C53.47,71,52.3,69.52,52.42,67.63Z"/><path class="cls-1" d="M80.88,59.27h0Z"/><path class="cls-1" d="M49.23,125.64c.1-2.11,1.41-3.74,3.29-5.08a38.31,38.31,0,0,1,8.22-3.89c1.12-.43,2.19-.84,3.16-1.25l.35-.16,0,.31c2.84,1.34,4.77,2.78,4.73,5.12v0l-.07,0C66,122,64,123.43,63.94,125.79l-.45.2c-1,.41-2,.82-3.09,1.25a40.46,40.46,0,0,0-8.08,3.83C50.39,129.61,49.12,127.87,49.23,125.64Z"/><path class="cls-1" d="M69.4,100.56h0l0-.3.35.15c.92.42,1.94.83,3,1.27a36.29,36.29,0,0,1,7.84,3.89c1.77,1.31,3,2.9,3,4.92s-1.33,3.75-3.28,5.1a39,39,0,0,0-7.71-3.82c-1-.43-2-.84-3-1.26l-.42-.19c0-2.26-1.83-3.64-4.58-4.93l-.07,0h0C64.59,103.11,66.55,101.78,69.4,100.56Z"/><path class="cls-1" d="M50.77,95.45l13.7.14-.06,0c-.92.38-1.92.75-3,1.14a40,40,0,0,0-7.73,3.49C51.93,99,50.74,97.41,50.77,95.45Z"/><path class="cls-1" d="M63.94,125.8h0c.06-2.36,2.06-3.76,4.94-5.05l.07,0v.06c1,.49,2.22,1,3.45,1.5a40.11,40.11,0,0,1,7.78,3.9c2,1.44,3.4,3.19,3.41,5.47s-1.22,3.82-3,5.21l0,0-.06,0a38.39,38.39,0,0,0-8.18-4.22c-1.12-.48-2.18-.93-3.15-1.38l-.37-.18c-.17-2.18-2.06-3.57-4.77-4.87Z"/><path class="cls-1" d="M68.74,131.41h0l0-.33.37.18c1,.45,2,.9,3.15,1.38a38.39,38.39,0,0,1,8.18,4.22l-16.6-.18-.09,0-.08-.05h0C63.72,134.2,65.76,132.75,68.74,131.41Z"/><path class="cls-1" d="M49.73,115.49c.11-2.17,1.54-3.81,3.57-5.15a40.26,40.26,0,0,1,7.78-3.56c1.23-.47,2.4-.9,3.44-1.36v-.06l.07,0c2.75,1.29,4.62,2.67,4.58,4.93h0l0,.38c-2.7,1.19-4.61,2.47-4.88,4.55l-.35.16c-1,.41-2,.82-3.16,1.25a38.31,38.31,0,0,0-8.22,3.89C50.77,119.19,49.62,117.56,49.73,115.49Z"/><path class="cls-1" d="M64.41,95.61l.06,0,15.84.18,0,0c1.91,1.32,3.22,2.91,3.22,5s-1.21,3.52-3,4.79a36.29,36.29,0,0,0-7.84-3.89c-1.07-.44-2.09-.85-3-1.27l-.35-.15c-.15-2-1.95-3.26-4.53-4.45Z"/><path class="cls-1" d="M64.36,95.59h.11l-.06,0Z"/><path class="cls-1" d="M48.71,136.5c.11-2.28,1.55-4,3.61-5.43a40.46,40.46,0,0,1,8.08-3.83c1.09-.43,2.14-.84,3.09-1.25l.45-.2h0v.4c2.71,1.3,4.6,2.69,4.77,4.87l0,.33h0c-3,1.34-5,2.79-5.08,5.25Z"/><path class="cls-1" d="M64.22,115.57l0-.31c.27-2.08,2.18-3.36,4.88-4.55l0-.38h0l.42.19c.92.42,1.92.83,3,1.26a39,39,0,0,1,7.71,3.82c2,1.4,3.28,3.08,3.28,5.26s-1.36,3.92-3.38,5.32a40.11,40.11,0,0,0-7.78-3.9c-1.23-.52-2.41-1-3.45-1.5v-.08C69,118.35,67.06,116.91,64.22,115.57Z"/><path class="cls-1" d="M50.25,105.2c.11-2.09,1.5-3.67,3.47-5a40,40,0,0,1,7.73-3.49c1-.39,2-.76,3-1.14l.44.2c2.58,1.19,4.38,2.45,4.53,4.45l0,.3h0c-2.85,1.22-4.81,2.55-4.88,4.79v.07c-1,.46-2.21.89-3.44,1.36a40.26,40.26,0,0,0-7.78,3.56C51.4,109,50.14,107.32,50.25,105.2Z"/><path class="cls-1" d="M80.31,95.77h.06l0,0Z"/><path class="cls-1" d="M47.19,170.78c.1-2.4,1.49-4.25,3.49-5.77,2.38-1.83,5.69-3.18,8.74-4.43,1.19-.49,2.33-1,3.36-1.43l.38-.17,0,.35c3,1.52,5.1,3.15,5.06,5.81v0l-.06,0c-3.06,1.47-5.19,3.06-5.25,5.75l-.47.22c-1,.47-2.13.94-3.3,1.42A42.57,42.57,0,0,0,50.5,177C48.44,175.29,47.08,173.32,47.19,170.78Z"/><path class="cls-1" d="M68.54,142.32h0l0-.34.38.18c1,.47,2.07.94,3.21,1.43a38.29,38.29,0,0,1,8.37,4.4c1.89,1.49,3.18,3.28,3.19,5.57s-1.38,4.26-3.45,5.79A40.89,40.89,0,0,0,72,155c-1.12-.48-2.19-.95-3.16-1.42l-.46-.22c0-2.56-2-4.12-4.9-5.58l-.07,0h0C63.45,145.21,65.52,143.7,68.54,142.32Z"/><path class="cls-1" d="M48.71,136.55l14.56.15-.06,0c-1,.42-2,.85-3.14,1.29A40.79,40.79,0,0,0,51.86,142C50,140.51,48.68,138.76,48.71,136.55Z"/><path class="cls-1" d="M62.87,171h0c.06-2.69,2.19-4.28,5.25-5.75l.06,0v.07c1.11.56,2.36,1.11,3.68,1.7a41.68,41.68,0,0,1,8.33,4.43c2.15,1.64,3.63,3.63,3.66,6.22,0,2.44-1.28,4.35-3.23,5.93l-.05.05-.07-.05c-2.38-1.94-5.68-3.42-8.74-4.8-1.19-.54-2.34-1.05-3.37-1.57l-.4-.2c-.19-2.48-2.21-4.06-5.1-5.53Z"/><path class="cls-1" d="M68,177.32h0l0-.38.4.2c1,.52,2.18,1,3.37,1.57,3.06,1.38,6.36,2.86,8.74,4.8l-17.71-.19-.09,0-.1-.05h0C62.67,180.51,64.85,178.85,68,177.32Z"/><path class="cls-1" d="M47.69,159.25c.1-2.47,1.62-4.33,3.78-5.85a42,42,0,0,1,8.26-4c1.31-.52,2.55-1,3.66-1.53v-.08l.07,0c2.94,1.46,4.93,3,4.9,5.58h0l0,.44c-2.87,1.34-4.9,2.8-5.17,5.16l-.38.17c-1,.47-2.17.94-3.36,1.43-3.05,1.25-6.36,2.6-8.74,4.43C48.81,163.45,47.58,161.59,47.69,159.25Z"/><path class="cls-1" d="M63.21,136.73l.06,0,16.85.19,0,0c2,1.49,3.46,3.3,3.47,5.65s-1.26,4-3.14,5.42a38.29,38.29,0,0,0-8.37-4.4c-1.14-.49-2.23-1-3.21-1.43l-.38-.18c-.17-2.25-2.09-3.68-4.84-5Z"/><path class="cls-1" d="M63.16,136.7h.11l-.06,0Z"/><path class="cls-1" d="M46.67,183.14c.1-2.6,1.64-4.58,3.83-6.19a42.57,42.57,0,0,1,8.6-4.37c1.17-.48,2.28-1,3.3-1.42l.47-.22h0l0,.46c2.89,1.47,4.91,3.05,5.1,5.53l0,.38h0c-3.17,1.53-5.35,3.19-5.4,6Z"/><path class="cls-1" d="M63.12,159.33l0-.35c.27-2.36,2.3-3.82,5.17-5.16l0-.44h0l.46.22c1,.47,2,.94,3.16,1.42a40.89,40.89,0,0,1,8.24,4.33c2.08,1.58,3.51,3.5,3.53,6s-1.43,4.46-3.56,6.05a41.68,41.68,0,0,0-8.33-4.43c-1.32-.59-2.57-1.14-3.68-1.7v-.09C68.22,162.48,66.16,160.85,63.12,159.33Z"/><path class="cls-1" d="M48.21,147.58c.1-2.36,1.57-4.15,3.65-5.61A40.79,40.79,0,0,1,60.07,138c1.11-.44,2.17-.87,3.14-1.29l.47.22c2.75,1.34,4.67,2.77,4.84,5l0,.34h0c-3,1.38-5.09,2.89-5.15,5.42v.09c-1.11.51-2.35,1-3.66,1.53a42,42,0,0,0-8.26,4C49.44,151.85,48.1,150,48.21,147.58Z"/><path class="cls-1" d="M80.12,136.89h.06s0,0,0,0Z"/><path class="cls-1" d="M45.09,222.33c.11-2.76,1.6-4.88,3.73-6.63,2.55-2.09,6.08-3.63,9.35-5.07,1.27-.56,2.49-1.1,3.59-1.63l.4-.2,0,.4c3.26,1.74,5.47,3.6,5.44,6.65v0s-.06,0-.07,0c-3.27,1.68-5.55,3.51-5.6,6.59l-.51.25c-1.09.54-2.28,1.08-3.52,1.64a43.92,43.92,0,0,0-9.21,5C46.44,227.5,45,225.23,45.09,222.33Z"/><path class="cls-1" d="M67.86,189.76h0l0-.39.4.21c1.06.53,2.22,1.07,3.44,1.63,3.14,1.43,6.54,3,9,5,2,1.7,3.42,3.75,3.45,6.37s-1.46,4.87-3.66,6.62a43.33,43.33,0,0,0-8.84-4.94c-1.2-.56-2.34-1.09-3.38-1.63l-.49-.25c0-2.92-2.12-4.71-5.26-6.38l-.08,0h0C62.43,193.06,64.64,191.34,67.86,189.76Z"/><path class="cls-1" d="M46.66,183.19l15.54.17-.06,0c-1,.48-2.17,1-3.35,1.47A42.67,42.67,0,0,0,50,189.37C48,187.7,46.64,185.72,46.66,183.19Z"/><path class="cls-1" d="M61.89,222.51h0c0-3.08,2.33-4.91,5.6-6.59,0,0,0,0,.07,0V216c1.19.64,2.53,1.27,4,2A43.89,43.89,0,0,1,80.43,223c2.32,1.88,3.92,4.17,3.95,7.14A8.73,8.73,0,0,1,81,236.93l-.06.06-.07-.06c-2.56-2.23-6.1-3.93-9.39-5.51-1.29-.62-2.51-1.21-3.62-1.8l-.43-.23c-.21-2.85-2.38-4.66-5.48-6.36Z"/><path class="cls-1" d="M67.42,229.82h0l0-.43.43.23c1.11.59,2.33,1.18,3.62,1.8,3.29,1.58,6.83,3.28,9.39,5.51l-19-.22-.1.06-.1-.06h0C61.7,233.49,64,231.58,67.42,229.82Z"/><path class="cls-1" d="M45.61,209.11c.11-2.82,1.73-5,4-6.69a44.42,44.42,0,0,1,8.83-4.62c1.4-.6,2.72-1.17,3.9-1.75V196l.08,0c3.14,1.67,5.28,3.46,5.26,6.38h0l0,.5c-3.06,1.54-5.23,3.21-5.51,5.91l-.4.2c-1.1.53-2.32,1.07-3.59,1.63-3.27,1.44-6.8,3-9.35,5.07C46.82,213.92,45.5,211.8,45.61,209.11Z"/><path class="cls-1" d="M62.14,183.39l.06,0,18,.2,0,0c2.19,1.69,3.7,3.75,3.73,6.43s-1.32,4.55-3.33,6.19c-2.42-2-5.82-3.58-9-5-1.22-.56-2.38-1.1-3.44-1.63l-.4-.21c-.19-2.56-2.25-4.19-5.19-5.72Z"/><path class="cls-1" d="M62.08,183.36h.12l-.06,0Z"/><path class="cls-1" d="M44.54,236.52c.12-3,1.76-5.27,4.11-7.12a43.92,43.92,0,0,1,9.21-5c1.24-.56,2.43-1.1,3.52-1.64l.51-.25h0l0,.52c3.1,1.7,5.27,3.51,5.48,6.36l0,.43h0c-3.39,1.76-5.72,3.67-5.77,6.89Z"/><path class="cls-1" d="M62.12,209.2l0-.4c.28-2.7,2.45-4.37,5.51-5.91l0-.5h0l.49.25c1,.54,2.18,1.07,3.38,1.63a43.33,43.33,0,0,1,8.84,4.94c2.23,1.81,3.77,4,3.8,6.84s-1.51,5.11-3.79,6.93a43.89,43.89,0,0,0-8.92-5.07c-1.42-.68-2.76-1.31-4-2v-.1C67.59,212.8,65.38,210.94,62.12,209.2Z"/><path class="cls-1" d="M46.15,195.77c.11-2.69,1.67-4.73,3.89-6.4a42.67,42.67,0,0,1,8.75-4.51c1.18-.51,2.31-1,3.35-1.47l.5.25c2.94,1.53,5,3.16,5.19,5.72l0,.39h0c-3.22,1.58-5.43,3.3-5.49,6.19v.1c-1.18.58-2.5,1.15-3.9,1.75a44.42,44.42,0,0,0-8.83,4.62C47.47,200.65,46,198.51,46.15,195.77Z"/><path class="cls-1" d="M80.19,183.56h.06l0,0Z"/><path class="cls-1" d="M42.86,281.75a10.55,10.55,0,0,1,4-7.67c2.74-2.42,6.53-4.21,10-5.87,1.37-.65,2.68-1.27,3.86-1.89l.43-.24,0,.47c3.5,2,5.89,4.16,5.86,7.69v0s-.06,0-.07,0c-3.52,1.94-6,4.07-6,7.63l-.54.3c-1.17.62-2.45,1.24-3.79,1.89-3.44,1.67-7.14,3.45-9.92,5.82C44.32,287.75,42.74,285.12,42.86,281.75Z"/><path class="cls-1" d="M67.28,244.12h0l0-.45a3.45,3.45,0,0,0,.43.23c1.13.62,2.38,1.23,3.69,1.88,3.37,1.65,7,3.43,9.64,5.77a9.91,9.91,0,0,1,3.73,7.34c0,3.19-1.55,5.64-3.91,7.66-2.65-2.3-6.21-4.07-9.51-5.71-1.29-.64-2.52-1.26-3.65-1.88l-.52-.29c0-3.37-2.29-5.43-5.66-7.35l-.09,0h0C61.47,247.92,63.83,245.94,67.28,244.12Z"/><path class="cls-1" d="M44.54,236.58l16.66.19-.07,0c-1.11.56-2.31,1.12-3.58,1.7a44.63,44.63,0,0,0-9.38,5.19C46,241.76,44.52,239.48,44.54,236.58Z"/><path class="cls-1" d="M60.94,282v0c.06-3.56,2.5-5.69,6-7.63,0,0,0,0,.07,0v.08c1.28.75,2.73,1.48,4.25,2.26,3.35,1.69,6.94,3.52,9.63,5.87,2.5,2.18,4.23,4.83,4.28,8.28a10.46,10.46,0,0,1-3.67,7.92l-.06.07-.08-.07c-2.77-2.59-6.59-4.56-10.13-6.4-1.39-.72-2.71-1.4-3.91-2.09l-.45-.26c-.24-3.31-2.58-5.4-5.92-7.37Z"/><path class="cls-1" d="M66.91,290.43h0l0-.5.45.26c1.2.69,2.52,1.37,3.91,2.09,3.54,1.84,7.36,3.81,10.13,6.4l-20.47-.24-.11.06-.11-.07h0C60.76,294.69,63.26,292.47,66.91,290.43Z"/><path class="cls-1" d="M43.42,266.46c.12-3.26,1.86-5.72,4.33-7.73a46.1,46.1,0,0,1,9.48-5.33c1.5-.7,2.92-1.35,4.18-2v-.1l.09,0c3.37,1.92,5.67,4,5.66,7.35v0l0,.57c-3.29,1.78-5.61,3.71-5.91,6.82l-.43.24c-1.18.62-2.49,1.24-3.86,1.89-3.51,1.66-7.3,3.45-10,5.87A9.82,9.82,0,0,1,43.42,266.46Z"/><path class="cls-1" d="M61.13,236.79l.07,0,19.29.22,0,0c2.36,1.95,4,4.31,4,7.4A9.2,9.2,0,0,1,81,251.55c-2.61-2.34-6.27-4.12-9.64-5.77-1.31-.65-2.56-1.26-3.69-1.88a3.45,3.45,0,0,1-.43-.23c-.22-3-2.43-4.83-5.59-6.59Z"/><path class="cls-1" d="M61.08,236.76h.12l-.07,0Z"/><path class="cls-1" d="M42.27,298.21c.13-3.47,1.9-6.11,4.42-8.26,2.78-2.37,6.48-4.15,9.92-5.82,1.34-.65,2.62-1.27,3.79-1.89l.54-.3v0l0,.6c3.34,2,5.68,4.06,5.92,7.37l0,.5h0c-3.65,2-6.15,4.26-6.2,8Z"/><path class="cls-1" d="M61.17,266.55l0-.47c.3-3.11,2.62-5,5.91-6.82l0-.57v0l.52.29c1.13.62,2.36,1.24,3.65,1.88,3.3,1.64,6.86,3.41,9.51,5.71,2.41,2.09,4.07,4.62,4.12,7.9s-1.6,5.92-4,8c-2.69-2.35-6.28-4.18-9.63-5.87-1.52-.78-3-1.51-4.25-2.26v-.11C67.06,270.71,64.67,268.56,61.17,266.55Z"/><path class="cls-1" d="M44,251.06c.12-3.11,1.8-5.46,4.18-7.38a44.63,44.63,0,0,1,9.38-5.19c1.27-.58,2.47-1.14,3.58-1.7l.54.29c3.16,1.76,5.37,3.63,5.59,6.59l0,.45h0c-3.45,1.82-5.81,3.8-5.87,7.14v.11c-1.26.68-2.68,1.33-4.18,2a46.1,46.1,0,0,0-9.48,5.33C45.42,256.68,43.88,254.22,44,251.06Z"/><path class="cls-1" d="M80.49,237h.07l0,0Z"/><path class="cls-1" d="M40.43,351a12.73,12.73,0,0,1,4.35-9c3-2.82,7.07-4.92,10.86-6.87,1.47-.76,2.89-1.48,4.17-2.21l.47-.27,0,.54c3.78,2.35,6.37,4.87,6.34,9v0l-.08,0c-3.8,2.28-6.44,4.76-6.49,8.94-.2.12-.38.24-.6.35-1.26.73-2.65,1.46-4.1,2.22-3.73,2-7.73,4-10.74,6.83A12.63,12.63,0,0,1,40.43,351Z"/><path class="cls-1" d="M66.8,307.05h0l0-.52a4,4,0,0,0,.46.27c1.23.72,2.58,1.43,4,2.18,3.65,1.92,7.59,4,10.42,6.72a11.89,11.89,0,0,1,4,8.56c.06,3.72-1.65,6.58-4.19,8.95-2.87-2.69-6.72-4.75-10.3-6.67-1.4-.75-2.72-1.47-3.94-2.19l-.57-.34c0-3.93-2.48-6.33-6.12-8.57l-.1-.05v0C60.53,311.47,63.08,309.17,66.8,307.05Z"/><path class="cls-1" d="M42.27,298.28l18,.22-.08,0c-1.19.65-2.49,1.29-3.86,2-3.51,1.72-7.28,3.58-10.11,6A11,11,0,0,1,42.27,298.28Z"/><path class="cls-1" d="M60,351.24v0c.05-4.18,2.69-6.66,6.49-8.94l.08,0v.1c1.39.87,3,1.73,4.61,2.64,3.62,2,7.52,4.12,10.43,6.88a13.33,13.33,0,0,1,4.67,9.72,12.69,12.69,0,0,1-4,9.3l-.07.08-.08-.08c-3-3.05-7.16-5.36-11-7.51-1.5-.85-2.94-1.65-4.24-2.46l-.49-.31c-.26-3.88-2.8-6.34-6.42-8.64Z"/><path class="cls-1" d="M66.48,361.18h0l0-.59.49.31c1.3.81,2.74,1.61,4.24,2.46,3.85,2.15,8,4.46,11,7.51L60,370.59l-.12.07-.11-.07h0C59.82,366.19,62.53,363.58,66.48,361.18Z"/><path class="cls-1" d="M41.05,333.1c.13-3.81,2-6.68,4.68-9,2.87-2.53,6.69-4.44,10.23-6.23,1.62-.81,3.15-1.57,4.51-2.36v-.11l.1.05c3.64,2.24,6.13,4.64,6.12,8.57v0c0,.23,0,.45,0,.67-3.55,2.08-6.06,4.33-6.37,8l-.47.27c-1.28.73-2.7,1.45-4.17,2.21-3.79,1.95-7.9,4.05-10.86,6.87A11.85,11.85,0,0,1,41.05,333.1Z"/><path class="cls-1" d="M60.15,298.53l.08,0,20.79.24,0,0c2.55,2.27,4.32,5,4.37,8.61a11,11,0,0,1-3.79,8.3c-2.83-2.73-6.77-4.8-10.42-6.72-1.41-.75-2.76-1.46-4-2.18a4,4,0,0,1-.46-.27c-.24-3.44-2.63-5.61-6-7.65C60.55,298.75,60.35,298.64,60.15,298.53Z"/><path class="cls-1" d="M60.09,298.49h.14l-.08,0Z"/><path class="cls-1" d="M39.77,370.33a13.52,13.52,0,0,1,4.8-9.71c3-2.78,7-4.87,10.74-6.83,1.45-.76,2.84-1.49,4.1-2.22.22-.11.4-.23.6-.35v0l0,.71c3.62,2.3,6.16,4.76,6.42,8.64l0,.59h0c-4,2.4-6.66,5-6.72,9.41Z"/><path class="cls-1" d="M60.24,333.2l0-.54c.31-3.64,2.82-5.89,6.37-8,0-.22,0-.44,0-.67v0l.57.34c1.22.72,2.54,1.44,3.94,2.19,3.58,1.92,7.43,4,10.3,6.67A12.68,12.68,0,0,1,86,342.44c.06,3.93-1.72,6.93-4.36,9.41-2.91-2.76-6.81-4.9-10.43-6.88-1.65-.91-3.22-1.77-4.61-2.64v-.13C66.61,338.07,64,335.55,60.24,333.2Z"/><path class="cls-1" d="M41.67,315.13c.13-3.61,1.94-6.35,4.51-8.59,2.83-2.46,6.6-4.32,10.11-6,1.37-.68,2.67-1.32,3.86-2,.2.11.4.22.58.34,3.41,2,5.8,4.21,6,7.65l0,.52h0c-3.72,2.12-6.27,4.42-6.33,8.31v.13c-1.36.79-2.89,1.55-4.51,2.36-3.54,1.79-7.36,3.7-10.23,6.23C43.21,321.69,41.54,318.82,41.67,315.13Z"/><path class="cls-1" d="M81,298.74h.07l0,0Z"/><path class="cls-1" d="M37.7,432.75a15.66,15.66,0,0,1,4.75-10.68c3.23-3.35,7.7-5.84,11.83-8.15,1.6-.9,3.15-1.75,4.53-2.62l.51-.32,0,.64c4.12,2.79,6.94,5.77,6.92,10.67v0l-.09.06C62,425.09,59.1,428,59,433l-.64.41c-1.39.87-2.9,1.74-4.48,2.64-4.06,2.33-8.43,4.82-11.72,8.13A15.65,15.65,0,0,1,37.7,432.75Z"/><path class="cls-1" d="M66.38,380.73h0l0-.61a5.68,5.68,0,0,0,.51.32c1.32.84,2.79,1.68,4.33,2.56,4,2.27,8.25,4.71,11.33,7.93A14.59,14.59,0,0,1,87,401a14.28,14.28,0,0,1-4.53,10.58c-3.13-3.17-7.33-5.62-11.22-7.89-1.52-.88-3-1.73-4.29-2.58l-.62-.41c0-4.64-2.7-7.47-6.66-10.11l-.1-.07v0C59.58,386,62.35,383.23,66.38,380.73Z"/><path class="cls-1" d="M39.77,370.41l19.48.25-.09,0c-1.29.77-2.7,1.53-4.19,2.32-3.8,2-7.89,4.22-11,7.11A13.32,13.32,0,0,1,39.77,370.41Z"/><path class="cls-1" d="M59,433v0c.06-5,2.93-7.92,7.07-10.63l.09-.06v.12c1.51,1,3.22,2.05,5,3.13,4,2.36,8.2,4.89,11.39,8.17a16.48,16.48,0,0,1,5.12,11.56,15.78,15.78,0,0,1-4.28,11.1l-.08.1-.09-.1c-3.3-3.64-7.83-6.4-12-9-1.64-1-3.21-2-4.63-2.92l-.54-.37c-.29-4.62-3.06-7.55-7-10.28Z"/><path class="cls-1" d="M66.11,444.86h0l0-.7.54.37c1.42,1,3,1.91,4.63,2.92,4.2,2.56,8.73,5.32,12,9L59,456.07l-.13.09-.13-.09h0C58.85,450.82,61.8,447.71,66.11,444.86Z"/><path class="cls-1" d="M38.4,411.51a15,15,0,0,1,5.1-10.68c3.12-3,7.27-5.25,11.12-7.35,1.76-1,3.43-1.86,4.9-2.79v-.14l.1.07c4,2.64,6.66,5.47,6.66,10.11v0c0,.27,0,.53,0,.79-3.86,2.46-6.58,5.12-6.93,9.43l-.51.32c-1.38.87-2.93,1.72-4.53,2.62-4.13,2.31-8.6,4.8-11.83,8.15A14.63,14.63,0,0,1,38.4,411.51Z"/><path class="cls-1" d="M59.16,370.7l.09,0,22.54.29,0,0a14,14,0,0,1,4.77,10.13,13.4,13.4,0,0,1-4.09,9.8c-3.08-3.22-7.37-5.66-11.33-7.93-1.54-.88-3-1.72-4.33-2.56a5.68,5.68,0,0,1-.51-.32c-.26-4.05-2.86-6.61-6.56-9C59.59,371,59.38,370.83,59.16,370.7Z"/><path class="cls-1" d="M59.1,370.66h.15l-.09,0Z"/><path class="cls-1" d="M37,455.77a16.72,16.72,0,0,1,5.25-11.58c3.29-3.31,7.66-5.8,11.72-8.13,1.58-.9,3.09-1.77,4.48-2.64L59,433v0l0,.84c4,2.73,6.72,5.66,7,10.28l0,.7h0c-4.31,2.85-7.26,6-7.32,11.21Z"/><path class="cls-1" d="M59.28,411.62l0-.64c.35-4.31,3.07-7,6.93-9.43,0-.26,0-.52,0-.79v0l.62.41c1.32.85,2.77,1.7,4.29,2.58,3.89,2.27,8.09,4.72,11.22,7.89a15.62,15.62,0,0,1,4.9,11,15.07,15.07,0,0,1-4.71,11.17c-3.19-3.28-7.44-5.81-11.39-8.17-1.8-1.08-3.51-2.1-5-3.13v-.15C66.22,417.39,63.4,414.41,59.28,411.62Z"/><path class="cls-1" d="M39.1,390.27A14.21,14.21,0,0,1,44,380.13c3.07-2.89,7.16-5.08,11-7.11,1.49-.79,2.9-1.55,4.19-2.32.22.13.43.26.63.4,3.7,2.4,6.3,5,6.56,9l0,.61h0c-4,2.5-6.8,5.22-6.85,9.8v.16c-1.47.93-3.14,1.83-4.9,2.79-3.85,2.1-8,4.37-11.12,7.35A14.08,14.08,0,0,1,39.1,390.27Z"/><path class="cls-1" d="M81.79,371h.08a.05.05,0,0,1,0,0Z"/><path class="cls-1" d="M34.56,530.7a19.84,19.84,0,0,1,5.24-12.88c3.55-4,8.46-7,13-9.82,1.76-1.08,3.46-2.11,5-3.15l.55-.39c0,.25,0,.51,0,.77,4.52,3.35,7.61,6.94,7.6,12.85v0l-.1.07C61.24,521.45,58.08,525,58,531c-.24.17-.45.33-.71.5-1.52,1-3.18,2.1-4.92,3.19-4.47,2.82-9.28,5.84-12.9,9.84A20,20,0,0,1,34.56,530.7Z"/><path class="cls-1" d="M66,468.18h0l0-.74a4.84,4.84,0,0,0,.55.39c1.45,1,3,2,4.74,3.06,4.34,2.71,9,5.63,12.41,9.49a18.4,18.4,0,0,1,4.89,12.12,17.9,17.9,0,0,1-4.94,12.72c-3.44-3.82-8-6.75-12.32-9.48-1.66-1.06-3.25-2.08-4.7-3.1l-.68-.49c0-5.57-3-9-7.3-12.13l-.11-.07v0C58.59,474.42,61.62,471.17,66,468.18Z"/><path class="cls-1" d="M37,455.87l21.27.29-.09,0c-1.41.92-3,1.82-4.58,2.77-4.15,2.43-8.63,5-12,8.5A16.66,16.66,0,0,1,37,455.87Z"/><path class="cls-1" d="M58,531v0c.06-6,3.22-9.56,7.76-12.83l.1-.07v.15c1.66,1.24,3.53,2.47,5.51,3.77,4.35,2.84,9,5.9,12.53,9.86a20.91,20.91,0,0,1,5.67,14,20.15,20.15,0,0,1-4.68,13.45l-.08.12-.1-.12c-3.64-4.41-8.64-7.76-13.27-10.86-1.81-1.22-3.53-2.37-5.1-3.54l-.59-.45c-.32-5.59-3.38-9.12-7.72-12.43Z"/><path class="cls-1" d="M65.8,545.34h0l0-.85.59.45c1.57,1.17,3.29,2.32,5.1,3.54,4.63,3.1,9.63,6.45,13.27,10.86L58,558.94l-.14.1-.14-.1h0C57.81,552.57,61.07,548.8,65.8,545.34Z"/><path class="cls-1" d="M35.37,505.1A18.79,18.79,0,0,1,41,492.27c3.43-3.58,8-6.3,12.19-8.83,1.92-1.15,3.75-2.23,5.37-3.35v-.15l.11.07c4.34,3.16,7.3,6.56,7.3,12.13v0l0,.95c-4.23,3-7.21,6.16-7.59,11.34l-.55.39c-1.52,1-3.22,2.07-5,3.15-4.53,2.78-9.44,5.78-13,9.82A18.66,18.66,0,0,1,35.37,505.1Z"/><path class="cls-1" d="M58.13,456.2l.09,0,24.63.33.05.05a17.44,17.44,0,0,1,5.25,12.1,16.78,16.78,0,0,1-4.45,11.73c-3.38-3.86-8.07-6.78-12.41-9.49-1.69-1.05-3.29-2.06-4.74-3.06a4.84,4.84,0,0,1-.55-.39c-.3-4.84-3.14-7.89-7.18-10.76C58.6,456.51,58.37,456.36,58.13,456.2Z"/><path class="cls-1" d="M58.06,456.15h.16l-.09,0Z"/><path class="cls-1" d="M33.69,558.58a21.24,21.24,0,0,1,5.8-14c3.62-4,8.43-7,12.9-9.84,1.74-1.09,3.4-2.14,4.92-3.19.26-.17.47-.33.71-.5v0l0,1c4.34,3.31,7.4,6.84,7.72,12.43l0,.85h0c-4.73,3.46-8,7.23-8,13.6Z"/><path class="cls-1" d="M58.28,505.23c0-.26,0-.52,0-.77.38-5.18,3.36-8.38,7.59-11.34l0-.95v0l.68.49c1.45,1,3,2,4.7,3.1,4.28,2.73,8.88,5.66,12.32,9.48a19.66,19.66,0,0,1,5.42,13.2,19.06,19.06,0,0,1-5.15,13.48c-3.5-4-8.18-7-12.53-9.86-2-1.3-3.85-2.53-5.51-3.77v-.18C65.89,512.17,62.8,508.58,58.28,505.23Z"/><path class="cls-1" d="M36.18,479.6a17.72,17.72,0,0,1,5.38-12.13c3.36-3.46,7.84-6.07,12-8.5,1.62-1,3.17-1.85,4.58-2.77.24.16.47.31.69.47,4,2.87,6.88,5.92,7.18,10.76l0,.74h0c-4.41,3-7.44,6.24-7.49,11.73v.18c-1.62,1.12-3.45,2.2-5.37,3.35C49,486,44.41,488.69,41,492.27A17.68,17.68,0,0,1,36.18,479.6Z"/><path class="cls-1" d="M82.85,456.49h.09s0,0,0,.05Z"/><path class="cls-1" d="M30.87,650.22a25.89,25.89,0,0,1,5.83-15.85c3.95-5,9.39-8.65,14.42-12.07,1.94-1.33,3.82-2.59,5.5-3.86l.62-.48c0,.31,0,.62-.05.95,5,4.11,8.44,8.5,8.42,15.76v.05a.27.27,0,0,0-.1.08c-5,4-8.54,8.4-8.61,15.79-.26.21-.5.41-.78.61-1.69,1.3-3.53,2.6-5.47,3.95-5,3.47-10.31,7.2-14.34,12.14A26.26,26.26,0,0,1,30.87,650.22Z"/><path class="cls-1" d="M65.74,573.65h0c0-.31,0-.6,0-.9a4.92,4.92,0,0,0,.61.47c1.6,1.23,3.37,2.45,5.23,3.73,4.79,3.3,10,6.85,13.73,11.56a23.8,23.8,0,0,1,5.43,14.8,23.23,23.23,0,0,1-5.42,15.58c-3.82-4.68-8.92-8.28-13.65-11.61-1.84-1.3-3.6-2.55-5.2-3.8l-.75-.59c0-6.81-3.29-11-8.08-14.81l-.13-.09v0C57.54,581.25,60.88,577.29,65.74,573.65Z"/><path class="cls-1" d="M33.69,558.7l23.44.34-.11.06c-1.55,1.11-3.25,2.21-5,3.36-4.58,2.95-9.52,6.13-13.23,10.34A21.37,21.37,0,0,1,33.69,558.7Z"/><path class="cls-1" d="M56.9,650.63v0c.07-7.39,3.57-11.77,8.61-15.79a.27.27,0,0,1,.1-.08v.17c1.85,1.53,3.93,3,6.13,4.64,4.82,3.5,10,7.26,13.92,12.14A27.41,27.41,0,0,1,92,668.93a26.69,26.69,0,0,1-5.16,16.66l-.08.14-.12-.15c-4.06-5.46-9.63-9.6-14.79-13.44-2-1.51-3.93-2.93-5.67-4.37l-.66-.56c-.36-6.91-3.76-11.26-8.58-15.34C56.93,651.46,56.91,651,56.9,650.63Z"/><path class="cls-1" d="M65.56,668.27h0c0-.36,0-.7,0-1l.66.56c1.74,1.44,3.66,2.86,5.67,4.37,5.16,3.84,10.73,8,14.79,13.44l-29.75-.48-.16.13-.15-.13h0C56.67,677.21,60.29,672.56,65.56,668.27Z"/><path class="cls-1" d="M31.83,618.75A24.2,24.2,0,0,1,38.07,603c3.79-4.38,8.81-7.7,13.48-10.79,2.12-1.4,4.14-2.72,5.92-4.08V588l.13.09c4.79,3.85,8.07,8,8.08,14.81v0c0,.39,0,.78-.05,1.16-4.67,3.61-8,7.53-8.39,13.88l-.62.48c-1.68,1.27-3.56,2.53-5.5,3.86-5,3.42-10.47,7.09-14.42,12.07A24.43,24.43,0,0,1,31.83,618.75Z"/><path class="cls-1" d="M57,559.1l.11-.06,27.12.4.06.06a22.35,22.35,0,0,1,5.83,14.71,21.71,21.71,0,0,1-4.87,14.29c-3.74-4.71-8.94-8.26-13.73-11.56-1.86-1.28-3.63-2.5-5.23-3.73a4.92,4.92,0,0,1-.61-.47c-.33-5.88-3.46-9.59-7.92-13.07C57.54,559.47,57.28,559.29,57,559.1Z"/><path class="cls-1" d="M56.94,559h.19l-.11.06Z"/><path class="cls-1" d="M29.82,684.67a27.92,27.92,0,0,1,6.49-17.38c4-4.94,9.38-8.67,14.34-12.14,1.94-1.35,3.78-2.65,5.47-3.95.28-.2.52-.4.78-.61v0c0,.41,0,.83,0,1.24,4.82,4.08,8.22,8.43,8.58,15.34,0,.35,0,.69,0,1h0c-5.27,4.29-8.89,8.94-9,16.83Z"/><path class="cls-1" d="M57.19,618.91c0-.33,0-.64.05-.95.41-6.35,3.72-10.27,8.39-13.88,0-.38,0-.77.05-1.16v0l.75.59c1.6,1.25,3.36,2.5,5.2,3.8,4.73,3.33,9.83,6.93,13.65,11.61a25.53,25.53,0,0,1,6,16.19,24.87,24.87,0,0,1-5.67,16.6c-3.9-4.88-9.1-8.64-13.92-12.14-2.2-1.6-4.28-3.11-6.13-4.64v-.22C65.63,627.41,62.2,623,57.19,618.91Z"/><path class="cls-1" d="M32.79,587.58a22.65,22.65,0,0,1,6-14.78c3.71-4.21,8.65-7.39,13.23-10.34,1.79-1.15,3.49-2.25,5-3.36.26.19.52.37.76.57,4.46,3.48,7.59,7.19,7.92,13.07,0,.3,0,.59,0,.9h0c-4.86,3.64-8.2,7.6-8.27,14.3v.22c-1.78,1.36-3.8,2.68-5.92,4.08-4.67,3.09-9.69,6.41-13.48,10.79A22.79,22.79,0,0,1,32.79,587.58Z"/><path class="cls-1" d="M84.25,559.44h.1s0,0,0,.06Z"/><path class="cls-1" d="M26.39,799.29a35.09,35.09,0,0,1,6.6-20c4.44-6.26,10.54-10.88,16.18-15.17,2.18-1.67,4.28-3.25,6.17-4.85l.69-.6c0,.39,0,.78-.06,1.19,5.62,5.15,9.46,10.67,9.45,19.8v.06a.43.43,0,0,0-.12.11c-5.65,5.06-9.58,10.59-9.65,19.91-.3.26-.57.52-.89.77-1.9,1.64-4,3.28-6.14,5C43,809.9,37,814.62,32.46,820.89A36,36,0,0,1,26.39,799.29Z"/><path class="cls-1" d="M65.51,703.36h0c0-.39,0-.74-.05-1.11.21.2.44.38.68.57,1.79,1.53,3.77,3,5.84,4.64,5.35,4.1,11.16,8.53,15.35,14.39a31.93,31.93,0,0,1,6.12,18.48,31.15,31.15,0,0,1-6,19.51c-4.28-5.87-10-10.37-15.3-14.54-2.06-1.63-4-3.18-5.83-4.75l-.84-.74c0-8.51-3.67-13.68-9-18.49l-.14-.11v0C56.36,712.82,60.09,707.89,65.51,703.36Z"/><path class="cls-1" d="M29.81,684.81l26.1.42-.11.07c-1.74,1.38-3.63,2.75-5.62,4.17-5.11,3.66-10.61,7.61-14.76,12.84A28.37,28.37,0,0,1,29.81,684.81Z"/><path class="cls-1" d="M55.64,799.8v0c.07-9.32,4-14.85,9.65-19.91a.43.43,0,0,1,.12-.11V780c2.07,1.93,4.41,3.82,6.88,5.84C77.72,790.21,83.56,795,88,801.11a37.42,37.42,0,0,1,7.2,21.83A36.9,36.9,0,0,1,89.4,844.1l-.1.18-.13-.19c-4.6-6.94-10.88-12.2-16.7-17.07-2.27-1.91-4.43-3.71-6.39-5.54l-.74-.7c-.42-8.75-4.23-14.26-9.66-19.4C55.67,800.86,55.66,800.33,55.64,799.8Z"/><path class="cls-1" d="M65.38,822.12h0c0-.46,0-.89,0-1.33l.74.7c2,1.83,4.12,3.63,6.39,5.54,5.82,4.87,12.1,10.13,16.7,17.07l-33.55-.6-.17.17-.18-.18h0C55.38,833.47,59.46,827.55,65.38,822.12Z"/><path class="cls-1" d="M27.57,759.69a32.39,32.39,0,0,1,7-19.68c4.25-5.47,9.87-9.62,15.08-13.48,2.38-1.75,4.63-3.39,6.62-5.09v-.24l.14.11c5.36,4.81,9,10,9,18.49v.05c0,.5,0,1,0,1.45-5.22,4.53-8.92,9.43-9.38,17.39l-.69.6c-1.89,1.6-4,3.18-6.17,4.85-5.64,4.29-11.74,8.91-16.18,15.17A33.24,33.24,0,0,1,27.57,759.69Z"/><path class="cls-1" d="M55.8,685.3l.11-.07,30.2.49.07.07a29.57,29.57,0,0,1,6.53,18.26,29,29,0,0,1-5.38,17.79c-4.19-5.86-10-10.29-15.35-14.39-2.07-1.6-4-3.11-5.84-4.64-.24-.19-.47-.37-.68-.57-.37-7.31-3.86-11.92-8.82-16.23C56.37,685.77,56.08,685.54,55.8,685.3Z"/><path class="cls-1" d="M55.71,685.23h.2l-.11.07Z"/><path class="cls-1" d="M25.1,843a38.15,38.15,0,0,1,7.36-22.06c4.55-6.27,10.57-11,16.16-15.38,2.17-1.7,4.24-3.34,6.14-5,.32-.25.59-.51.89-.77v0c0,.53,0,1.06,0,1.58,5.43,5.14,9.24,10.65,9.66,19.4,0,.44,0,.87,0,1.33h0c-5.92,5.43-10,11.35-10.08,21.37Z"/><path class="cls-1" d="M56,759.88c0-.41,0-.8.06-1.19.46-8,4.16-12.86,9.38-17.39,0-.47,0-.95,0-1.45v-.05l.84.74c1.8,1.57,3.77,3.12,5.83,4.75,5.3,4.17,11,8.67,15.3,14.54a34.55,34.55,0,0,1,6.84,20.35A33.84,33.84,0,0,1,88,801.11c-4.4-6.16-10.24-10.9-15.66-15.31-2.47-2-4.81-3.91-6.88-5.84v-.28C65.43,770.55,61.59,765,56,759.88Z"/><path class="cls-1" d="M28.73,720.7a30.11,30.11,0,0,1,6.69-18.39c4.15-5.23,9.65-9.18,14.76-12.84,2-1.42,3.88-2.79,5.62-4.17.28.24.57.47.84.71,5,4.31,8.45,8.92,8.82,16.23,0,.37,0,.72.05,1.11h0c-5.42,4.53-9.15,9.46-9.22,17.8v.28c-2,1.7-4.24,3.34-6.62,5.09-5.21,3.86-10.83,8-15.08,13.48A30.58,30.58,0,0,1,28.73,720.7Z"/><path class="cls-1" d="M86.11,685.72h.11a.13.13,0,0,1,0,.07Z"/><path class="cls-1" d="M20.78,990.44a50.29,50.29,0,0,1,7.6-26c5.07-8.11,12-14.09,18.44-19.64,2.48-2.16,4.87-4.21,7-6.28l.78-.76c0,.5,0,1-.06,1.53C60.94,946,65.31,953.12,65.31,965V965a.47.47,0,0,0-.14.14c-6.43,6.57-10.91,13.75-11,25.87-.33.35-.64.68-1,1-2.16,2.14-4.53,4.27-7,6.5-6.39,5.72-13.28,11.89-18.49,20.08A51.89,51.89,0,0,1,20.78,990.44Z"/><path class="cls-1" d="M65.35,866.75v0c0-.49,0-1,0-1.42a7.76,7.76,0,0,0,.77.74c2,1.94,4.26,3.88,6.6,5.92,6.06,5.24,12.64,10.9,17.39,18.4a44.71,44.71,0,0,1,7,23.72,44,44,0,0,1-6.76,25.16c-4.88-7.57-11.39-13.38-17.41-18.75-2.35-2.1-4.58-4.1-6.62-6.11l-1-1c0-10.92-4.17-17.56-10.24-23.72l-.15-.15v0C55,878.84,59.23,872.54,65.35,866.75Z"/><path class="cls-1" d="M25.09,843.13l29.42.52-.12.09c-2,1.76-4.1,3.49-6.34,5.31-5.77,4.66-12,9.69-16.68,16.37A39.22,39.22,0,0,1,25.09,843.13Z"/><path class="cls-1" d="M54.17,991.09V991c.09-12.12,4.57-19.3,11-25.87a.47.47,0,0,1,.14-.14v.29c2.36,2.5,5,5,7.84,7.57,6.19,5.73,12.87,11.89,17.91,19.9A57.25,57.25,0,0,1,92.85,1049l-.11.24-.15-.24c-5.29-9.12-12.51-16-19.17-22.39-2.6-2.51-5.08-4.87-7.32-7.25l-.86-.93c-.47-11.42-4.84-18.61-11-25.32C54.2,992.47,54.18,991.78,54.17,991.09Z"/><path class="cls-1" d="M65.3,1020.22v0c0-.6,0-1.16-.06-1.74l.86.93c2.24,2.38,4.72,4.74,7.32,7.25,6.66,6.37,13.88,13.27,19.17,22.39l-38.46-.78-.21.21-.2-.22h0C53.85,1035.09,58.52,1027.33,65.3,1020.22Z"/><path class="cls-1" d="M22.28,939.09a45.46,45.46,0,0,1,8-25.37c4.83-7,11.21-12.37,17.12-17.32,2.69-2.24,5.24-4.35,7.49-6.53v-.31l.15.15c6.07,6.16,10.22,12.8,10.24,23.72v.07c0,.64,0,1.26,0,1.87-5.93,5.83-10.13,12.14-10.66,22.42l-.78.76c-2.15,2.07-4.54,4.12-7,6.28-6.41,5.55-13.37,11.53-18.44,19.64A47.34,47.34,0,0,1,22.28,939.09Z"/><path class="cls-1" d="M54.39,843.74l.12-.09,34.06.61.08.1a40.75,40.75,0,0,1,7.44,23.26,40.34,40.34,0,0,1-6,22.75c-4.75-7.5-11.33-13.16-17.39-18.4-2.34-2-4.57-4-6.6-5.92a7.76,7.76,0,0,1-.77-.74c-.42-9.32-4.36-15.18-10-20.66C55,844.34,54.71,844,54.39,843.74Z"/><path class="cls-1" d="M54.29,843.65h.22l-.12.09Z"/><path class="cls-1" d="M19.13,1047.54c.36-12.22,3.75-21.42,8.52-28.92,5.21-8.19,12.1-14.36,18.49-20.08,2.49-2.23,4.86-4.36,7-6.5.37-.33.68-.66,1-1v.06c0,.69,0,1.38,0,2,6.19,6.71,10.56,13.9,11,25.32,0,.58,0,1.14.06,1.74v0c-6.78,7.11-11.45,14.87-11.55,28Z"/><path class="cls-1" d="M54.56,939.32c0-.53,0-1,.06-1.53.53-10.28,4.73-16.59,10.66-22.42,0-.61,0-1.23,0-1.87v-.07l1,1c2,2,4.27,4,6.62,6.11,6,5.37,12.53,11.18,17.41,18.75a48.82,48.82,0,0,1,7.85,26.33,48.18,48.18,0,0,1-7.1,27.2c-5-8-11.72-14.17-17.91-19.9-2.81-2.62-5.48-5.07-7.84-7.57V965C65.31,953.12,60.94,946,54.56,939.32Z"/><path class="cls-1" d="M23.74,888.94a41.6,41.6,0,0,1,7.63-23.52c4.69-6.68,10.91-11.71,16.68-16.37,2.24-1.82,4.38-3.55,6.34-5.31.32.3.65.6,1,.91,5.6,5.48,9.54,11.34,10,20.66,0,.47,0,.93,0,1.42v0c-6.12,5.79-10.33,12.09-10.41,22.76v.36c-2.25,2.18-4.8,4.29-7.49,6.53-5.91,5-12.29,10.28-17.12,17.32A42.83,42.83,0,0,1,23.74,888.94Z"/><path class="cls-1" d="M88.57,844.26h.13s0,.06,0,.09Z"/><path class="cls-1" d="M13.5,1244.39c.42-14.69,4-25.92,8.94-35.1,5.91-10.92,14-19,21.44-26.43,2.88-2.9,5.65-5.65,8.14-8.42l.91-1c0,.67,0,1.35-.08,2,7.39,8.93,12.47,18.53,12.47,34.45v.1a.74.74,0,0,0-.16.19c-7.47,8.87-12.68,18.57-12.79,35-.39.47-.75.92-1.18,1.36-2.52,2.91-5.28,5.8-8.18,8.82-7.46,7.79-15.51,16.18-21.63,27.35C16.33,1272.36,13.06,1260.05,13.5,1244.39Z"/><path class="cls-1" d="M65.3,1078.88v0c0-.65,0-1.25-.06-1.87a11.18,11.18,0,0,0,.88,1c2.33,2.57,4.9,5.13,7.6,7.82,7,6.93,14.56,14.42,20.06,24.37a66.23,66.23,0,0,1,8.18,31.56c.31,13.89-2.87,24.67-7.71,33.64-5.68-10.14-13.22-17.9-20.19-25.08-2.71-2.8-5.3-5.47-7.65-8.15-.38-.43-.73-.85-1.1-1.28,0-14.56-4.83-23.38-11.82-31.55l-.17-.2V1109C53.42,1094.88,58.26,1086.53,65.3,1078.88Z"/><path class="cls-1" d="M19.13,1047.78l33.73.68-.15.12c-2.24,2.3-4.7,4.59-7.28,7-6.62,6.14-13.77,12.77-19.18,21.58A57.18,57.18,0,0,1,19.13,1047.78Z"/><path class="cls-1" d="M52.37,1245.27v-.08c.11-16.42,5.32-26.12,12.79-35a.74.74,0,0,1,.16-.19v.39c2.74,3.37,5.84,6.69,9.12,10.22,7.2,7.73,15,16.07,20.88,26.92,5.53,10.13,9.45,22.49,9.81,38.78.35,15.48-2.71,27.74-7.48,38l-.13.33-.17-.34c-6.24-12.5-14.7-21.93-22.51-30.65-3-3.42-5.94-6.63-8.56-9.89l-1-1.26c-.56-15.56-5.65-25.33-12.86-34.43C52.4,1247.14,52.39,1246.2,52.37,1245.27Z"/><path class="cls-1" d="M65.35,1284.88v0c0-.81,0-1.58-.07-2.37l1,1.26c2.62,3.26,5.52,6.47,8.56,9.89,7.81,8.72,16.27,18.15,22.51,30.65l-45.06-1-.24.3-.24-.31h0C52,1305.19,57.43,1294.59,65.35,1284.88Z"/><path class="cls-1" d="M15.47,1175.16c.41-14.39,4.16-25.17,9.4-33.92,5.6-9.39,13-16.48,19.8-23.07,3.1-3,6-5.78,8.64-8.67v-.41l.17.2c7,8.17,11.78,17,11.82,31.55v.09c0,.85,0,1.68-.07,2.49-6.84,7.78-11.69,16.23-12.31,30l-.91,1c-2.49,2.77-5.26,5.52-8.14,8.42-7.44,7.45-15.53,15.51-21.44,26.43A71.86,71.86,0,0,1,15.47,1175.16Z"/><path class="cls-1" d="M52.71,1048.58l.15-.12,39,.79.09.12c4.89,8,8.36,17.79,8.63,30.65.27,12.35-2.53,22-6.84,30.13-5.5-10-13.08-17.44-20.06-24.37-2.7-2.69-5.27-5.25-7.6-7.82a11.18,11.18,0,0,1-.88-1c-.5-12.29-5-20-11.44-27.22C53.45,1049.36,53.08,1049,52.71,1048.58Z"/><path class="cls-1" d="M52.6,1048.46h.26l-.15.12Z"/><path class="cls-1" d="M11.29,1322.28c.48-16.75,4.49-29.34,10.09-39.56,6.12-11.17,14.17-19.56,21.63-27.35,2.9-3,5.66-5.91,8.18-8.82.43-.44.79-.89,1.18-1.36v.08c0,.93,0,1.87.05,2.78,7.21,9.1,12.3,18.87,12.86,34.43,0,.79,0,1.56.07,2.37v0c-7.92,9.71-13.38,20.31-13.5,38.34Z"/><path class="cls-1" d="M52.85,1175.46c0-.7,0-1.38.08-2,.62-13.76,5.47-22.21,12.31-30,0-.81,0-1.64.07-2.49v-.09c.37.43.72.85,1.1,1.28,2.35,2.68,4.94,5.35,7.65,8.15,7,7.18,14.51,14.94,20.19,25.08,5.2,9.28,8.9,20.59,9.22,35.4.34,15.25-3,27-8.15,36.79-5.89-10.85-13.68-19.19-20.88-26.92-3.28-3.53-6.38-6.85-9.12-10.22v-.49C65.32,1194,60.24,1184.39,52.85,1175.46Z"/><path class="cls-1" d="M17.39,1108.27c.37-13.16,3.91-23.07,8.86-31.13,5.41-8.81,12.56-15.44,19.18-21.58,2.58-2.39,5-4.68,7.28-7,.37.39.74.78,1.09,1.19,6.42,7.2,10.94,14.93,11.44,27.22,0,.62,0,1.22.06,1.87v0c-7,7.65-11.88,16-12,30.14v.48c-2.6,2.89-5.54,5.69-8.64,8.67-6.83,6.59-14.2,13.68-19.8,23.07C20.1,1132.36,17,1121.79,17.39,1108.27Z"/><path class="cls-1" d="M91.9,1049.25h.15a.23.23,0,0,1-.06.12Z"/><path class="cls-1" d="M3.56,1598.21c.58-21,4.88-37,10.86-50.08,7.09-15.5,16.74-26.92,25.61-37.46,3.42-4.09,6.72-8,9.67-11.89l1.08-1.45c0,1-.06,1.9-.09,2.89,8.78,12.61,14.82,26.18,14.85,48.78v.14a.6.6,0,0,0-.19.27c-8.91,12.61-15.13,26.45-15.28,49.92-.47.67-.9,1.31-1.41,2-3,4.17-6.33,8.31-9.81,12.65-9,11.19-18.65,23.27-26,39.38C6.79,1638.38,2.93,1620.67,3.56,1598.21Z"/><path class="cls-1" d="M65.4,1365.4v0c0-.89-.05-1.72-.08-2.58a14.59,14.59,0,0,0,1,1.34c2.74,3.55,5.77,7.08,8.94,10.81,8.23,9.59,17.18,20,23.71,33.79,5.51,11.65,9.41,25.76,9.82,44,.44,19.47-3.27,34.64-9,47.28-6.79-14.29-15.75-25.2-24-35.27-3.22-3.92-6.28-7.67-9.07-11.42l-1.31-1.79c0-20.35-5.71-32.65-14-44l-.21-.28v-.09C51.42,1387.55,57.13,1376,65.4,1365.4Z"/><path class="cls-1" d="M11.28,1322.61l39.51.92-.17.16c-2.63,3.16-5.5,6.3-8.53,9.59-7.78,8.45-16.2,17.58-22.59,29.74C14.37,1352,11,1339,11.28,1322.61Z"/><path class="cls-1" d="M50.07,1599.44v-.11c.15-23.47,6.37-37.31,15.28-49.92a.6.6,0,0,1,.19-.27v.55c3.27,4.79,7,9.51,10.88,14.53,8.62,11,18,22.93,25.06,38.45,6.67,14.53,11.45,32.29,12,55.79.5,22.41-3.11,40.2-8.8,55.09l-.15.48-.21-.49c-7.59-18.17-17.82-31.86-27.24-44.48-3.67-5-7.16-9.6-10.31-14.3-.41-.61-.79-1.2-1.2-1.82-.69-22.43-6.8-36.46-15.44-49.51C50.1,1602.12,50.09,1600.78,50.07,1599.44Z"/><path class="cls-1" d="M65.64,1656.41v0c0-1.18,0-2.29-.08-3.43.41.62.79,1.21,1.2,1.82,3.15,4.7,6.64,9.35,10.31,14.3,9.42,12.62,19.65,26.31,27.24,44.48l-54.39-1.49-.29.44-.28-.45h0C49.54,1685.83,56.12,1670.46,65.64,1656.41Z"/><path class="cls-1" d="M6.3,1499.82c.57-20.27,5.07-35.41,11.31-47.68,6.66-13.13,15.39-23,23.47-32.21,3.66-4.16,7.14-8.07,10.21-12.09v-.57l.21.28c8.24,11.37,13.9,23.67,14,44v.12c0,1.2,0,2.36-.07,3.49-8.1,10.92-13.85,22.78-14.6,42.15l-1.08,1.45c-3,3.91-6.25,7.8-9.67,11.89-8.87,10.54-18.52,22-25.61,37.46C9.12,1535,5.76,1519.36,6.3,1499.82Z"/><path class="cls-1" d="M50.62,1323.69l.17-.16,45.75,1.06.1.17c5.78,11,9.89,24.46,10.28,42.21.38,17.07-2.87,30.53-7.91,41.76-6.53-13.82-15.48-24.2-23.71-33.79-3.17-3.73-6.2-7.26-8.94-10.81a14.59,14.59,0,0,1-1-1.34c-.59-17-5.9-27.57-13.42-37.47C51.5,1324.76,51.06,1324.22,50.62,1323.69Z"/><path class="cls-1" d="M50.49,1323.52h.3l-.17.16Z"/><path class="cls-1" d="M.45,1710.7c.67-24.35,5.57-42.6,12.36-57.39,7.39-16.11,17.08-28.19,26-39.38,3.48-4.34,6.79-8.48,9.81-12.65.51-.64.94-1.28,1.41-2v.11c0,1.34,0,2.68,0,4,8.64,13,14.75,27.08,15.44,49.51,0,1.14.06,2.25.08,3.43v0c-9.52,14-16.1,29.42-16.26,55.63Z"/><path class="cls-1" d="M50.69,1500.22c0-1,.06-1.94.09-2.89.75-19.37,6.5-31.23,14.6-42.15,0-1.13.05-2.29.07-3.49v-.12l1.31,1.79c2.79,3.75,5.85,7.5,9.07,11.42,8.28,10.07,17.24,21,24,35.27,6.23,13.1,10.68,29.09,11.16,50.12.49,21.7-3.46,38.51-9.54,52.5-7.1-15.52-16.44-27.43-25.06-38.45-3.91-5-7.61-9.74-10.88-14.53V1549C65.51,1526.4,59.47,1512.83,50.69,1500.22Z"/><path class="cls-1" d="M8.93,1406.16c.51-18.27,4.72-32,10.57-43.14,6.39-12.16,14.81-21.29,22.59-29.74,3-3.29,5.9-6.43,8.53-9.59.44.53.88,1.07,1.28,1.63,7.52,9.9,12.83,20.52,13.42,37.47,0,.86.05,1.69.08,2.58v0c-8.27,10.59-14,22.15-14.11,41.78v.66c-3.07,4-6.55,7.93-10.21,12.09-8.08,9.18-16.81,19.08-23.47,32.21C12,1439.73,8.4,1425,8.93,1406.16Z"/><path class="cls-1" d="M96.54,1324.59h.17a.28.28,0,0,1-.07.16Z"/><path class="cls-2" d="M56.76,18.51c.21-1.5,1.43-2.64,3.12-3.58a38.56,38.56,0,0,1,7.28-2.7c1-.3,1.93-.58,2.8-.87l.31-.1-.06.22c2.26,1,3.75,2,3.52,3.65h0l0,0c-2.53.89-4.33,1.87-4.53,3.53l-.39.13c-.83.29-1.73.57-2.68.87a40.27,40.27,0,0,0-7,2.66C57.53,21.31,56.54,20.08,56.76,18.51Z"/><path class="cls-2" d="M90.88,1.48c-2.41.73-1.88,2.18-2.17,2.61,0,0-3.89-.6-5.16-.65-.64,0-1.3,0-2,0s-1.43.05-2.12.12a28.77,28.77,0,0,0-4.14.62h0l0,0c-.33.26-.52.53-.81.79s0,.29.11.43l.29.41a2.24,2.24,0,0,1,.32,2l.32.15c.7.3,1.48.6,2.29.91a32.3,32.3,0,0,1,6,2.75,8.81,8.81,0,0,0,3.49-3.48,13,13,0,0,0,1.44-3.77"/><path class="cls-2" d="M69.15,18.7h0c.2-1.66,2-2.64,4.53-3.53l0,0v0c.83.35,1.79.7,2.79,1.08A33.8,33.8,0,0,1,82.82,19c1.6,1,2.66,2.25,2.55,3.85s-1.22,2.66-2.83,3.62l0,0,0,0a33.16,33.16,0,0,0-6.68-3c-.91-.34-1.79-.66-2.58-1l-.31-.13c0-1.53-1.54-2.51-3.74-3.44Z"/><path class="cls-2" d="M68.36,26.32h0c.15-1.72,1.94-2.74,4.51-3.66h0v-.23l.31.13c.79.32,1.67.64,2.58,1a33.16,33.16,0,0,1,6.68,3"/><path class="cls-2" d="M58,11.29c.32-1.55,1.76-2.73,3.73-3.68A26.63,26.63,0,0,1,65.3,6.23C66.61,5.81,68,5.45,69.48,5l.58-.16c.21-.06.47-.15.72-.21a6.54,6.54,0,0,1,.74-.21l.17,0h.25l.66,0c.85-.06,1.67-.11,2.51-.15l.15,0,0,0c-.33.26-.52.53-.81.79s0,.29.11.43l.29.41a2.24,2.24,0,0,1,.32,2h0L75,8.1c-2.5.79-4.31,1.69-4.77,3.16l-.31.1c-.87.29-1.82.57-2.8.87a38.56,38.56,0,0,0-7.28,2.7C58.51,14,57.67,12.77,58,11.29Z"/><path class="cls-2" d="M55.81,26.15c.18-1.6,1.47-2.82,3.27-3.8a40.27,40.27,0,0,1,7-2.66c1-.3,1.85-.58,2.68-.87l.39-.13h0V19c2.2.93,3.72,1.91,3.74,3.44v.23h0c-2.57.92-4.36,1.94-4.51,3.66"/><path class="cls-2" d="M70.21,11.48l.06-.22C70.73,9.79,72.54,8.89,75,8.1l.09-.27h0l.32.15c.7.3,1.48.6,2.29.91a32.3,32.3,0,0,1,6,2.75c1.49,1,2.45,2.18,2.27,3.7S84.61,18.07,82.82,19a33.8,33.8,0,0,0-6.3-2.78c-1-.38-2-.73-2.79-1.08v0C74,13.47,72.47,12.45,70.21,11.48Z"/><path class="cls-2" d="M88.47,4.19c-7.13-2.46-12.89-.27-19.89,1.73-3,0-5,2-8,1-1-1-.11-3.26,2-4,8.62-3,19-2.65,28.51-1.85"/><path class="cls-2" d="M53.63,50.27c.13-1.66,1.32-2.94,3-4a37.51,37.51,0,0,1,7.4-3c1-.34,2-.66,2.84-1l.32-.12,0,.24c2.5,1.07,4.18,2.2,4.09,4h0l0,0c-2.6,1-4.41,2.11-4.51,4l-.4.15c-.86.33-1.79.64-2.77,1a39.8,39.8,0,0,0-7.25,3C54.6,53.38,53.5,52,53.63,50.27Z"/><path class="cls-2" d="M72.23,30.56h0v-.23l.3.12c.81.33,1.71.66,2.65,1a33.46,33.46,0,0,1,6.87,3.09c1.53,1.05,2.56,2.29,2.5,3.89s-1.3,3-3.07,4a35.7,35.7,0,0,0-6.77-3c-.93-.34-1.81-.67-2.61-1l-.38-.15c.1-1.78-1.52-2.87-3.94-3.9l-.06,0h0C67.85,32.56,69.64,31.51,72.23,30.56Z"/><path class="cls-2" d="M68,26.62c-.83.3-1.74.59-2.69.9a39.38,39.38,0,0,0-7,2.74c-1.55-1-2.56-2.26-2.45-3.82"/><path class="cls-2" d="M66.71,50.42h0c.1-1.85,1.91-2.95,4.51-4l0,0v0c.91.39,2,.77,3,1.18a36.56,36.56,0,0,1,6.85,3.08c1.76,1.13,2.95,2.5,2.91,4.29s-1.16,3-2.81,4.06l0,0-.06,0A35,35,0,0,0,74,55.78c-1-.37-1.93-.73-2.78-1.09l-.32-.13c-.11-1.71-1.77-2.8-4.15-3.83Z"/><path class="cls-2" d="M66.27,58.92h0c.09-1.92,1.93-3.06,4.6-4.1h0v-.25l.32.13c.85.36,1.8.72,2.78,1.09a35,35,0,0,1,7.18,3.31"/><path class="cls-2" d="M54.27,42.29c.14-1.71,1.45-3,3.3-4a38.87,38.87,0,0,1,7-2.79c1.12-.37,2.17-.71,3.11-1.06v-.06l.06,0c2.42,1,4,2.12,3.94,3.9h0l0,.3c-2.44.93-4.18,1.93-4.47,3.57l-.32.12c-.87.32-1.84.64-2.84,1a37.51,37.51,0,0,0-7.4,3C55.12,45.2,54.13,43.92,54.27,42.29Z"/><path class="cls-2" d="M82.21,26.82c1.65,1.05,2.76,2.31,2.67,3.95s-1.2,2.77-2.83,3.77a33.46,33.46,0,0,0-6.87-3.09c-.94-.35-1.84-.68-2.65-1l-.3-.12c-.07-1.58-1.63-2.59-3.88-3.54L68,26.62H68"/><path class="cls-3" d="M67.92,26.61h0Z"/><path class="cls-2" d="M53,58.77c.13-1.79,1.44-3.14,3.28-4.25a39.8,39.8,0,0,1,7.25-3c1-.34,1.91-.65,2.77-1l.4-.15h0v.31c2.38,1,4,2.12,4.15,3.83v.25h0c-2.67,1-4.51,2.18-4.6,4.1"/><path class="cls-2" d="M67.18,42.38l0-.24c.29-1.64,2-2.64,4.47-3.57l0-.3h0l.38.15c.8.33,1.68.66,2.61,1a35.7,35.7,0,0,1,6.77,3c1.7,1.1,2.84,2.42,2.79,4.13s-1.3,3.07-3.12,4.17a36.56,36.56,0,0,0-6.85-3.08c-1.08-.41-2.12-.79-3-1.18v-.06C71.36,44.58,69.68,43.45,67.18,42.38Z"/><path class="cls-2" d="M68,26.62l.39.16c2.25.95,3.81,2,3.88,3.54v.23h0c-2.59,1-4.38,2-4.51,3.77v.06c-.94.35-2,.69-3.11,1.06a38.87,38.87,0,0,0-7,2.79c-1.66-1.09-2.74-2.4-2.58-4.07s1.44-2.9,3.24-3.91a39.38,39.38,0,0,1,7-2.74c1-.31,1.86-.6,2.69-.9"/><path class="cls-3" d="M82.21,26.82l0,0h0l0,0"/><path class="cls-2" d="M51.32,85.71c.11-1.86,1.35-3.29,3.13-4.46a37.36,37.36,0,0,1,7.77-3.42c1.05-.38,2.07-.74,3-1.1l.34-.14,0,.27c2.67,1.19,4.48,2.45,4.42,4.52h0a.08.08,0,0,0-.06,0c-2.72,1.13-4.62,2.37-4.69,4.44a4.28,4.28,0,0,1-.43.17c-.9.37-1.88.72-2.92,1.1a40.15,40.15,0,0,0-7.62,3.36C52.4,89.2,51.21,87.67,51.32,85.71Z"/><path class="cls-2" d="M70.52,63.63h0v-.26l.32.14c.87.36,1.83.73,2.83,1.11A35.52,35.52,0,0,1,81,68.06c1.65,1.17,2.77,2.56,2.75,4.34s-1.29,3.31-3.14,4.5a36.9,36.9,0,0,0-7.24-3.37c-1-.39-1.92-.75-2.78-1.12l-.4-.17c.06-2-1.69-3.21-4.27-4.35l-.07,0h0C66,65.88,67.82,64.71,70.52,63.63Z"/><path class="cls-2" d="M65.86,59.26c-.86.33-1.81.66-2.81,1a39.36,39.36,0,0,0-7.33,3.08c-1.67-1.15-2.78-2.51-2.73-4.24"/><path class="cls-2" d="M65.17,85.86h0c.07-2.07,2-3.31,4.69-4.44a.08.08,0,0,1,.06,0v0c1,.44,2.08.87,3.24,1.32a39.07,39.07,0,0,1,7.3,3.43C82.33,87.47,83.62,89,83.61,91s-1.18,3.35-2.91,4.57l0,0-.05,0a36.57,36.57,0,0,0-7.66-3.71c-1-.42-2-.81-3-1.21l-.35-.16c-.14-1.91-1.91-3.13-4.45-4.28Z"/><path class="cls-2" d="M64.83,95.39h0c.07-2.16,2-3.44,4.81-4.61h0l0-.29.35.16c.91.4,1.91.79,3,1.21a36.57,36.57,0,0,1,7.66,3.71"/><path class="cls-2" d="M51.85,76.78c.11-1.91,1.47-3.36,3.4-4.54a40.42,40.42,0,0,1,7.36-3.13c1.17-.41,2.28-.79,3.26-1.19v0l.07,0c2.58,1.14,4.33,2.36,4.27,4.35h0l0,.34c-2.56,1-4.37,2.17-4.63,4l-.34.14c-.91.36-1.93.72-3,1.1a37.36,37.36,0,0,0-7.77,3.42C52.81,80,51.74,78.6,51.85,76.78Z"/><path class="cls-2" d="M80.91,59.43c1.79,1.17,3,2.58,3,4.41s-1.18,3.1-2.87,4.22a35.52,35.52,0,0,0-7.36-3.44c-1-.38-2-.75-2.83-1.11l-.32-.14c-.13-1.76-1.81-2.88-4.23-3.94l-.42-.17.06,0"/><path class="cls-3" d="M65.82,59.24h.1l-.06,0Z"/><path class="cls-2" d="M50.79,95.24c.11-2,1.47-3.52,3.41-4.76a40.15,40.15,0,0,1,7.62-3.36c1-.38,2-.73,2.92-1.1a4.28,4.28,0,0,0,.43-.17h0v.35c2.54,1.15,4.31,2.37,4.45,4.28l0,.29h0c-2.81,1.17-4.74,2.45-4.81,4.61"/><path class="cls-2" d="M65.5,76.86l0-.27c.26-1.83,2.07-3,4.63-4l0-.34h0l.4.17c.86.37,1.8.73,2.78,1.12a36.9,36.9,0,0,1,7.24,3.37c1.82,1.23,3.06,2.71,3,4.63S82.36,85,80.45,86.19a39.07,39.07,0,0,0-7.3-3.43c-1.16-.45-2.26-.88-3.24-1.32v-.06C70,79.31,68.17,78.05,65.5,76.86Z"/><path class="cls-2" d="M65.86,59.26l.42.17c2.42,1.06,4.1,2.18,4.23,3.94v.26h0c-2.7,1.08-4.56,2.25-4.65,4.23v.06c-1,.4-2.09.78-3.26,1.19a40.42,40.42,0,0,0-7.36,3.13c-1.78-1.21-3-2.66-2.84-4.53s1.44-3.24,3.31-4.37a39.36,39.36,0,0,1,7.33-3.08c1-.34,2-.67,2.81-1"/><path class="cls-3" d="M80.91,59.43l0,0h.06s0,0,0,0"/><path class="cls-2" d="M49.23,125.56c.1-2.1,1.41-3.71,3.29-5a38.26,38.26,0,0,1,8.22-3.86c1.12-.43,2.19-.83,3.16-1.24l.35-.16,0,.31c2.84,1.33,4.77,2.75,4.73,5.08v0l-.07,0c-2.87,1.28-4.88,2.67-4.94,5l-.45.2c-1,.41-2,.81-3.09,1.23a41.81,41.81,0,0,0-8.08,3.8C50.4,129.49,49.13,127.77,49.23,125.56Z"/><path class="cls-2" d="M69.39,100.68h0v-.3a2.29,2.29,0,0,0,.35.16c.92.41,1.94.82,3,1.25a37.17,37.17,0,0,1,7.84,3.86c1.77,1.31,3,2.88,3,4.88s-1.33,3.73-3.28,5.06a39.52,39.52,0,0,0-7.71-3.79c-1-.42-2-.83-3-1.24l-.42-.2c0-2.23-1.83-3.6-4.58-4.88l-.07,0h0C64.59,103.21,66.55,101.9,69.39,100.68Z"/><path class="cls-2" d="M64.4,95.78c-.91.37-1.91.74-3,1.13a39.61,39.61,0,0,0-7.73,3.46c-1.79-1.29-3-2.82-2.94-4.76"/><path class="cls-2" d="M63.94,125.72v0c.06-2.34,2.07-3.73,4.94-5l.07,0v0c1,.49,2.22,1,3.45,1.49a40.42,40.42,0,0,1,7.79,3.87c2,1.43,3.39,3.16,3.4,5.42s-1.22,3.79-3,5.16l0,.05-.06-.05a38.93,38.93,0,0,0-8.17-4.18c-1.12-.47-2.19-.92-3.16-1.37l-.37-.17c-.17-2.17-2.06-3.54-4.77-4.83Z"/><path class="cls-2" d="M63.65,136.48h0c.06-2.44,2.11-3.88,5.08-5.21h0l0-.33.37.17c1,.45,2,.9,3.16,1.37a38.93,38.93,0,0,1,8.17,4.18"/><path class="cls-2" d="M49.73,115.49c.11-2.16,1.53-3.78,3.57-5.11a40.81,40.81,0,0,1,7.78-3.53c1.23-.46,2.4-.89,3.44-1.34v-.07l.07,0c2.75,1.28,4.61,2.65,4.58,4.88h0l0,.38c-2.7,1.18-4.61,2.45-4.88,4.51l-.35.16c-1,.41-2,.81-3.16,1.24a38.26,38.26,0,0,0-8.22,3.86C50.77,119.16,49.63,117.54,49.73,115.49Z"/><path class="cls-2" d="M80.35,96c1.91,1.31,3.22,2.89,3.22,5s-1.21,3.49-3,4.75a37.17,37.17,0,0,0-7.84-3.86c-1.07-.43-2.09-.84-3-1.25a2.29,2.29,0,0,1-.35-.16c-.16-2-2-3.23-4.54-4.41l-.44-.19.06,0"/><path class="cls-3" d="M64.36,95.76h.1l-.06,0Z"/><path class="cls-2" d="M48.72,136.32c.11-2.27,1.55-4,3.6-5.39a41.81,41.81,0,0,1,8.08-3.8c1.09-.42,2.14-.82,3.09-1.23l.45-.2v.41c2.71,1.29,4.6,2.66,4.77,4.83l0,.33h0c-3,1.33-5,2.77-5.08,5.21"/><path class="cls-2" d="M64.22,115.57l0-.31c.27-2.06,2.18-3.33,4.88-4.51l0-.38h0l.42.2c.92.41,1.92.82,3,1.24a39.52,39.52,0,0,1,7.71,3.79c2,1.39,3.28,3,3.28,5.22s-1.36,3.88-3.37,5.27a40.42,40.42,0,0,0-7.79-3.87c-1.23-.51-2.41-1-3.45-1.49v-.07C69,118.32,67.06,116.9,64.22,115.57Z"/><path class="cls-2" d="M64.4,95.78l.44.19c2.58,1.18,4.38,2.44,4.54,4.41v.3h0c-2.84,1.22-4.8,2.53-4.87,4.75v.08c-1,.45-2.21.88-3.44,1.34a40.81,40.81,0,0,0-7.78,3.53c-1.9-1.36-3.16-3-3-5.1s1.49-3.63,3.46-4.91a39.61,39.61,0,0,1,7.73-3.46c1.05-.39,2.05-.76,3-1.13"/><path class="cls-3" d="M80.35,96l0,0h.06l0,0"/><path class="cls-2" d="M47.19,170.68c.1-2.38,1.5-4.22,3.49-5.72,2.38-1.81,5.69-3.15,8.74-4.39,1.19-.49,2.33-.95,3.36-1.42l.38-.17,0,.35c3,1.51,5.1,3.12,5.06,5.76v0l-.06,0c-3.06,1.46-5.19,3-5.25,5.7l-.47.22c-1,.47-2.13.93-3.3,1.41a43,43,0,0,0-8.6,4.32C48.45,175.15,47.08,173.19,47.19,170.68Z"/><path class="cls-2" d="M68.54,142.46h0l0-.33.37.17c1,.47,2.08.93,3.22,1.42a38.64,38.64,0,0,1,8.37,4.36c1.89,1.48,3.18,3.26,3.19,5.53s-1.38,4.23-3.45,5.74A41.31,41.31,0,0,0,72,155.05c-1.12-.48-2.19-1-3.16-1.41l-.46-.22c0-2.54-2-4.09-4.9-5.54l-.07,0h0C63.45,145.32,65.52,143.83,68.54,142.46Z"/><path class="cls-2" d="M63.2,136.91c-1,.42-2,.84-3.14,1.28a40.92,40.92,0,0,0-8.2,3.92c-1.91-1.45-3.18-3.18-3.16-5.38"/><path class="cls-2" d="M62.87,170.85h0c.06-2.66,2.19-4.24,5.25-5.7l.06,0v.06c1.11.56,2.37,1.11,3.69,1.69a42.83,42.83,0,0,1,8.32,4.39c2.15,1.63,3.63,3.6,3.65,6.17s-1.27,4.32-3.22,5.88l-.05,0-.07,0a40.51,40.51,0,0,0-8.74-4.75c-1.19-.54-2.34-1.05-3.37-1.56l-.39-.2c-.19-2.46-2.22-4-5.11-5.49Z"/><path class="cls-2" d="M62.61,183.1h0c.06-2.77,2.23-4.42,5.4-5.93h0l0-.37.39.2c1,.51,2.18,1,3.37,1.56a40.51,40.51,0,0,1,8.74,4.75"/><path class="cls-2" d="M47.69,159.25c.1-2.45,1.62-4.29,3.77-5.8a42.26,42.26,0,0,1,8.27-4c1.31-.53,2.55-1,3.65-1.53v-.07l.07,0c2.94,1.45,4.93,3,4.9,5.54h0l0,.43c-2.88,1.34-4.9,2.78-5.17,5.12l-.38.17c-1,.47-2.17.93-3.36,1.42-3.05,1.24-6.36,2.58-8.74,4.39C48.81,163.41,47.58,161.57,47.69,159.25Z"/><path class="cls-2" d="M80.15,137.09c2,1.48,3.46,3.27,3.47,5.61s-1.26,3.94-3.14,5.37a38.64,38.64,0,0,0-8.37-4.36c-1.14-.49-2.23-1-3.22-1.42l-.37-.17c-.17-2.24-2.1-3.66-4.85-5l-.47-.22.07,0"/><path class="cls-3" d="M63.15,136.89h.12l-.07,0Z"/><path class="cls-2" d="M46.67,182.93c.11-2.58,1.65-4.54,3.83-6.14a43,43,0,0,1,8.6-4.32c1.17-.48,2.28-.94,3.3-1.41l.47-.22h0l0,.45c2.89,1.47,4.92,3,5.11,5.49l0,.37h0c-3.17,1.51-5.34,3.16-5.4,5.93"/><path class="cls-2" d="M63.12,159.33l0-.35c.27-2.34,2.29-3.78,5.17-5.12l0-.43h0l.46.22c1,.46,2,.93,3.16,1.41a41.31,41.31,0,0,1,8.24,4.29c2.08,1.57,3.51,3.47,3.53,5.92s-1.43,4.42-3.56,6a42.83,42.83,0,0,0-8.32-4.39c-1.32-.58-2.58-1.13-3.69-1.69v-.08C68.22,162.45,66.16,160.84,63.12,159.33Z"/><path class="cls-2" d="M63.2,136.91l.47.22c2.75,1.33,4.68,2.75,4.85,5l0,.33h0c-3,1.37-5.09,2.86-5.15,5.38v.08c-1.1.51-2.34,1-3.65,1.53a42.26,42.26,0,0,0-8.27,4c-2-1.54-3.37-3.39-3.26-5.78s1.57-4.11,3.66-5.56a40.92,40.92,0,0,1,8.2-3.92c1.11-.44,2.17-.86,3.14-1.28"/><path class="cls-3" d="M80.15,137.09l0,0h.06s0,0,0,0"/><path class="cls-2" d="M45.1,222.21c.1-2.73,1.59-4.83,3.72-6.56,2.55-2.07,6.08-3.61,9.35-5,1.27-.56,2.49-1.09,3.59-1.62l.4-.2,0,.4c3.26,1.72,5.47,3.57,5.44,6.6h0l-.07,0c-3.27,1.67-5.55,3.48-5.6,6.54-.17.08-.32.17-.51.25-1.09.53-2.27,1.06-3.52,1.62a44.5,44.5,0,0,0-9.21,5C46.45,227.34,45,225.09,45.1,222.21Z"/><path class="cls-2" d="M67.85,189.92h0l0-.38.4.2c1.06.53,2.22,1.06,3.44,1.61,3.14,1.43,6.54,3,9,5,2,1.69,3.42,3.72,3.45,6.31,0,2.74-1.46,4.84-3.66,6.58a42.77,42.77,0,0,0-8.84-4.91c-1.2-.55-2.34-1.08-3.39-1.61l-.48-.26c0-2.89-2.12-4.66-5.26-6.32l-.08,0h0C62.42,193.19,64.63,191.49,67.85,189.92Z"/><path class="cls-2" d="M62.13,183.6c-1,.48-2.16,1-3.35,1.46A42.48,42.48,0,0,0,50,189.53c-2-1.65-3.41-3.62-3.38-6.13"/><path class="cls-2" d="M61.89,222.4h0c0-3.06,2.33-4.87,5.6-6.54l.07,0v.08c1.19.64,2.53,1.26,4,1.93a44.74,44.74,0,0,1,8.92,5c2.32,1.87,3.92,4.13,3.95,7.08A8.67,8.67,0,0,1,81,236.69l0,.06-.07-.06c-2.57-2.21-6.1-3.9-9.39-5.46-1.29-.62-2.51-1.2-3.62-1.79l-.42-.23c-.22-2.82-2.39-4.61-5.49-6.3Z"/><path class="cls-2" d="M61.64,236.47h0c.06-3.19,2.38-5.08,5.77-6.82h0l0-.43.42.23c1.11.59,2.33,1.17,3.62,1.79,3.29,1.56,6.82,3.25,9.39,5.46"/><path class="cls-2" d="M45.61,209.11c.11-2.8,1.73-4.91,4-6.63a43.79,43.79,0,0,1,8.83-4.58c1.4-.6,2.72-1.16,3.9-1.74v-.09l.08,0c3.14,1.66,5.28,3.43,5.26,6.32v0l0,.49c-3.07,1.53-5.23,3.18-5.51,5.86l-.4.2c-1.1.53-2.32,1.06-3.59,1.62-3.27,1.42-6.8,3-9.35,5C46.82,213.88,45.51,211.77,45.61,209.11Z"/><path class="cls-2" d="M80.23,183.8c2.19,1.68,3.7,3.72,3.73,6.38s-1.32,4.51-3.33,6.14c-2.42-2-5.82-3.55-9-5-1.22-.55-2.38-1.08-3.44-1.61l-.4-.2c-.19-2.55-2.25-4.17-5.2-5.68-.15-.09-.33-.17-.5-.25l.07,0"/><path class="cls-3" d="M62.08,183.57h.12l-.07,0Z"/><path class="cls-2" d="M44.55,236.28c.12-3,1.76-5.22,4.1-7.06a44.5,44.5,0,0,1,9.21-5c1.25-.56,2.43-1.09,3.52-1.62.19-.08.34-.17.51-.25h0l0,.51c3.1,1.69,5.27,3.48,5.49,6.3l0,.43h0c-3.39,1.74-5.71,3.63-5.77,6.82"/><path class="cls-2" d="M62.12,209.2l0-.4c.28-2.68,2.44-4.33,5.51-5.86l0-.49v0l.48.26c1,.53,2.19,1.06,3.39,1.61a42.77,42.77,0,0,1,8.84,4.91c2.23,1.79,3.77,4,3.8,6.77s-1.51,5.06-3.79,6.87a44.74,44.74,0,0,0-8.92-5c-1.42-.67-2.76-1.29-4-1.93v-.09C67.59,212.77,65.38,210.92,62.12,209.2Z"/><path class="cls-2" d="M62.13,183.6c.17.08.35.16.5.25,2.95,1.51,5,3.13,5.2,5.68l0,.38h0c-3.22,1.57-5.43,3.27-5.48,6.14v.1c-1.18.58-2.5,1.14-3.9,1.74a43.79,43.79,0,0,0-8.83,4.58c-2.17-1.77-3.61-3.88-3.5-6.6s1.67-4.7,3.9-6.35a42.48,42.48,0,0,1,8.74-4.47c1.19-.5,2.32-1,3.35-1.46"/><path class="cls-3" d="M80.23,183.8l0,0h.06l0,0"/><path class="cls-2" d="M42.87,281.61a10.4,10.4,0,0,1,4-7.6c2.74-2.39,6.53-4.17,10-5.82,1.37-.64,2.68-1.26,3.86-1.87l.43-.23,0,.46c3.5,2,5.89,4.12,5.86,7.63v0l-.07,0c-3.52,1.93-6,4-6,7.57-.19.1-.35.2-.55.29-1.17.62-2.45,1.24-3.79,1.88-3.44,1.65-7.14,3.42-9.91,5.76C44.32,287.56,42.75,285,42.87,281.61Z"/><path class="cls-2" d="M67.28,244.31h0l0-.44c.13.08.27.15.43.23,1.13.61,2.38,1.22,3.69,1.86,3.37,1.64,7,3.4,9.64,5.73A9.75,9.75,0,0,1,84.75,259c0,3.15-1.55,5.58-3.91,7.59-2.65-2.28-6.21-4-9.51-5.66-1.29-.64-2.52-1.25-3.65-1.86l-.52-.3c0-3.34-2.29-5.38-5.66-7.28l-.09,0h0C61.46,248.08,63.83,246.11,67.28,244.31Z"/><path class="cls-2" d="M61.13,237c-1.11.55-2.32,1.1-3.59,1.68a45,45,0,0,0-9.38,5.15c-2.19-1.91-3.65-4.17-3.63-7.05"/><path class="cls-2" d="M61,281.83v0c0-3.54,2.49-5.64,6-7.57l.07,0v.08c1.28.74,2.73,1.47,4.25,2.24,3.35,1.68,6.94,3.49,9.63,5.82,2.5,2.17,4.23,4.79,4.28,8.21a10.33,10.33,0,0,1-3.67,7.85l-.06.07-.08-.07c-2.77-2.57-6.59-4.53-10.13-6.34-1.39-.72-2.71-1.39-3.91-2.07l-.45-.27c-.24-3.27-2.58-5.35-5.92-7.3Z"/><path class="cls-2" d="M60.7,298.15h0c0-3.71,2.56-5.9,6.2-7.92h0l0-.5.45.27c1.2.68,2.52,1.35,3.91,2.07,3.54,1.81,7.36,3.77,10.13,6.34"/><path class="cls-2" d="M43.42,266.45c.12-3.23,1.86-5.67,4.33-7.66a46,46,0,0,1,9.48-5.28c1.5-.69,2.92-1.34,4.18-2v-.1l.09,0c3.37,1.9,5.67,3.94,5.66,7.28v0l0,.57c-3.29,1.77-5.61,3.68-5.91,6.77l-.43.23c-1.18.61-2.49,1.23-3.86,1.87-3.51,1.65-7.3,3.43-10,5.82A9.7,9.7,0,0,1,43.42,266.45Z"/><path class="cls-2" d="M80.53,237.26c2.36,1.94,4,4.28,4,7.34A9.1,9.1,0,0,1,81,251.68c-2.61-2.33-6.27-4.09-9.64-5.73-1.31-.64-2.56-1.25-3.69-1.86-.16-.08-.3-.15-.43-.23-.22-2.93-2.43-4.79-5.59-6.54-.17-.1-.36-.19-.54-.28l.07,0"/><path class="cls-3" d="M61.07,237h.13l-.07,0Z"/><path class="cls-2" d="M42.28,297.93c.12-3.44,1.9-6.05,4.42-8.19,2.77-2.34,6.47-4.11,9.91-5.76,1.34-.64,2.62-1.26,3.79-1.88.2-.09.36-.19.55-.29v0l0,.59c3.34,1.95,5.68,4,5.92,7.3l0,.5h0c-3.64,2-6.15,4.21-6.2,7.92"/><path class="cls-2" d="M61.17,266.55l0-.46c.3-3.09,2.62-5,5.91-6.77l0-.57v0l.52.3c1.13.61,2.36,1.22,3.65,1.86,3.3,1.63,6.86,3.38,9.51,5.66,2.4,2.07,4.07,4.58,4.12,7.84s-1.61,5.86-4,7.95c-2.69-2.33-6.28-4.14-9.63-5.82-1.52-.77-3-1.5-4.25-2.24v-.1C67.06,270.67,64.67,268.54,61.17,266.55Z"/><path class="cls-2" d="M61.13,237c.18.09.37.18.54.28,3.16,1.75,5.37,3.61,5.59,6.54l0,.44h0c-3.45,1.8-5.82,3.77-5.87,7.08v.11c-1.26.67-2.68,1.32-4.18,2a46,46,0,0,0-9.48,5.28c-2.33-2-3.88-4.47-3.76-7.6s1.79-5.42,4.17-7.32a45,45,0,0,1,9.38-5.15c1.27-.58,2.48-1.13,3.59-1.68"/><path class="cls-3" d="M80.53,237.26l0,0h.07s0,0,0,0"/><path class="cls-2" d="M40.43,350.84a12.56,12.56,0,0,1,4.35-8.9c3-2.81,7.07-4.88,10.86-6.82,1.47-.75,2.89-1.46,4.17-2.19l.47-.27,0,.54c3.78,2.33,6.37,4.83,6.34,8.93v0l-.08.05c-3.8,2.26-6.44,4.72-6.49,8.87-.2.12-.38.23-.59.34-1.27.73-2.66,1.45-4.11,2.2-3.72,1.94-7.73,4-10.73,6.77A12.48,12.48,0,0,1,40.43,350.84Z"/><path class="cls-2" d="M66.8,307.26h0l0-.52.46.27c1.23.71,2.58,1.42,4,2.16,3.65,1.91,7.59,4,10.42,6.67a11.75,11.75,0,0,1,4,8.49c.06,3.69-1.65,6.52-4.19,8.87-2.87-2.66-6.72-4.71-10.3-6.61-1.4-.75-2.73-1.46-3.94-2.17l-.57-.35c0-3.89-2.48-6.27-6.12-8.49l-.1-.05v0C60.52,311.65,63.08,309.37,66.8,307.26Z"/><path class="cls-2" d="M60.15,298.81c-1.2.65-2.5,1.29-3.87,1.95-3.5,1.71-7.28,3.56-10.11,6-2.36-2.22-3.94-4.85-3.91-8.2"/><path class="cls-2" d="M60,351.09v0c.05-4.15,2.69-6.61,6.49-8.87l.08-.05v.1c1.39.86,3,1.71,4.61,2.62,3.62,2,7.52,4.08,10.43,6.82,2.71,2.54,4.6,5.61,4.66,9.63a12.49,12.49,0,0,1-4,9.22l-.06.08-.09-.08c-3-3-7.15-5.32-11-7.45-1.5-.84-2.93-1.63-4.23-2.43l-.5-.31c-.26-3.85-2.8-6.28-6.42-8.56Z"/><path class="cls-2" d="M59.75,370.26h0c0-4.36,2.76-6.94,6.71-9.32h0l0-.58.5.31c1.3.8,2.73,1.59,4.23,2.43,3.85,2.13,8,4.43,11,7.45"/><path class="cls-2" d="M41.05,333.1c.13-3.78,2-6.62,4.68-9,2.87-2.5,6.68-4.4,10.23-6.17,1.62-.8,3.15-1.56,4.51-2.34v-.11l.1.05c3.64,2.22,6.13,4.6,6.12,8.49v0l0,.66c-3.55,2.06-6.06,4.29-6.37,7.9l-.47.27c-1.28.73-2.7,1.44-4.17,2.19-3.79,1.94-7.9,4-10.86,6.82A11.72,11.72,0,0,1,41.05,333.1Z"/><path class="cls-2" d="M81.06,299.06c2.56,2.25,4.32,5,4.38,8.54a10.85,10.85,0,0,1-3.8,8.24c-2.83-2.71-6.77-4.76-10.42-6.67-1.41-.74-2.76-1.45-4-2.16l-.46-.27c-.24-3.41-2.63-5.57-6-7.6l-.58-.33.08,0"/><path class="cls-3" d="M60.09,298.78h.14l-.08,0Z"/><path class="cls-2" d="M39.78,370a13.35,13.35,0,0,1,4.8-9.62c3-2.75,7-4.83,10.73-6.77,1.45-.75,2.84-1.47,4.11-2.2.21-.11.39-.22.59-.34v0l0,.7c3.62,2.28,6.16,4.71,6.42,8.56l0,.58h0c-4,2.38-6.66,5-6.71,9.32"/><path class="cls-2" d="M60.24,333.2l0-.54c.31-3.61,2.82-5.84,6.37-7.9l0-.66v0l.57.35c1.21.71,2.54,1.42,3.94,2.17,3.58,1.9,7.43,4,10.3,6.61A12.56,12.56,0,0,1,86,342.37c.06,3.88-1.72,6.86-4.36,9.32-2.91-2.74-6.81-4.85-10.43-6.82-1.65-.91-3.22-1.76-4.61-2.62v-.12C66.61,338,64,335.53,60.24,333.2Z"/><path class="cls-2" d="M60.15,298.81l.58.33c3.41,2,5.8,4.19,6,7.6l0,.52h0c-3.72,2.11-6.28,4.39-6.33,8.25v.13c-1.36.78-2.89,1.54-4.51,2.34-3.55,1.77-7.36,3.67-10.23,6.17-2.52-2.37-4.19-5.21-4.06-8.87s1.93-6.3,4.5-8.52c2.83-2.44,6.61-4.29,10.11-6,1.37-.66,2.67-1.3,3.87-1.95"/><path class="cls-3" d="M81.06,299.06l0,0h.07s0,0,0,0"/><path class="cls-2" d="M37.7,432.56A15.5,15.5,0,0,1,42.45,422c3.23-3.32,7.7-5.79,11.83-8.08,1.6-.89,3.15-1.74,4.53-2.59l.51-.32c0,.21,0,.42,0,.63,4.12,2.77,6.94,5.72,6.92,10.58v0a.2.2,0,0,0-.09.06C62,425,59.1,427.9,59,432.82c-.21.14-.41.28-.64.41-1.38.86-2.89,1.72-4.48,2.62-4.06,2.3-8.43,4.78-11.71,8A15.48,15.48,0,0,1,37.7,432.56Z"/><path class="cls-2" d="M66.38,381h0l0-.61a4.06,4.06,0,0,0,.51.32c1.32.84,2.79,1.67,4.33,2.55,4,2.25,8.25,4.67,11.33,7.86a14.44,14.44,0,0,1,4.43,10,14.12,14.12,0,0,1-4.53,10.5c-3.13-3.15-7.33-5.58-11.22-7.83-1.52-.88-3-1.72-4.29-2.56l-.62-.41c0-4.6-2.7-7.41-6.66-10l-.11-.06v0C59.58,386.16,62.35,383.46,66.38,381Z"/><path class="cls-2" d="M59.16,371c-1.3.76-2.71,1.51-4.19,2.3-3.81,2-7.9,4.19-11,7.06a13.21,13.21,0,0,1-4.24-9.64"/><path class="cls-2" d="M59,432.84v0c.06-4.92,2.93-7.85,7.07-10.53a.2.2,0,0,1,.09-.06v.12c1.51,1,3.22,2,5,3.1,4,2.34,8.2,4.85,11.38,8.1A16.27,16.27,0,0,1,87.72,445a15.57,15.57,0,0,1-4.28,11l-.07.09-.09-.09c-3.3-3.61-7.83-6.34-12-8.88-1.64-1-3.21-1.94-4.63-2.9l-.54-.37c-.29-4.58-3.06-7.47-7-10.18Z"/><path class="cls-2" d="M58.78,455.67h0c.06-5.2,3-8.27,7.32-11.11h0l0-.7.54.37c1.42,1,3,1.9,4.63,2.9,4.2,2.54,8.73,5.27,12,8.88"/><path class="cls-2" d="M38.4,411.51a14.81,14.81,0,0,1,5.1-10.59c3.12-3,7.27-5.2,11.12-7.29,1.76-1,3.42-1.85,4.9-2.77v-.13l.11.06c4,2.62,6.66,5.43,6.66,10v0l0,.78c-3.86,2.44-6.58,5.08-6.93,9.36l-.51.32c-1.38.85-2.93,1.7-4.53,2.59-4.13,2.29-8.6,4.76-11.83,8.08A14.53,14.53,0,0,1,38.4,411.51Z"/><path class="cls-2" d="M81.84,371.32a13.9,13.9,0,0,1,4.78,10.06,13.28,13.28,0,0,1-4.1,9.71c-3.08-3.19-7.37-5.61-11.33-7.86-1.54-.88-3-1.71-4.33-2.55a4.06,4.06,0,0,1-.51-.32c-.26-4-2.86-6.55-6.56-8.94l-.63-.39.08,0"/><path class="cls-3" d="M59.09,371h.15l-.08,0Z"/><path class="cls-2" d="M37,455.38a16.52,16.52,0,0,1,5.25-11.48c3.28-3.27,7.65-5.75,11.71-8,1.59-.9,3.1-1.76,4.48-2.62.23-.13.43-.27.64-.41v0l0,.84c4,2.71,6.72,5.6,7,10.18l0,.7h0c-4.3,2.84-7.26,5.91-7.32,11.11"/><path class="cls-2" d="M59.28,411.62c0-.21,0-.42,0-.63.35-4.28,3.07-6.92,6.93-9.36l0-.78v0l.62.41c1.32.84,2.77,1.68,4.29,2.56,3.89,2.25,8.09,4.68,11.22,7.83a15.39,15.39,0,0,1,4.9,10.86,14.89,14.89,0,0,1-4.72,11.07c-3.18-3.25-7.43-5.76-11.38-8.1-1.8-1.07-3.51-2.08-5-3.1v-.15C66.22,417.34,63.4,414.39,59.28,411.62Z"/><path class="cls-2" d="M59.16,371l.63.39c3.7,2.39,6.3,4.93,6.56,8.94l0,.61h0c-4,2.48-6.8,5.18-6.86,9.73v.15c-1.48.92-3.14,1.81-4.9,2.77-3.85,2.09-8,4.33-11.12,7.29a13.84,13.84,0,0,1-4.4-10.48A14,14,0,0,1,44,380.39c3.07-2.87,7.16-5,11-7.06,1.48-.79,2.89-1.54,4.19-2.3"/><path class="cls-3" d="M81.84,371.32l0,0h.09s0,0,0,0"/><path class="cls-2" d="M34.57,530.48a19.58,19.58,0,0,1,5.23-12.77c3.55-4,8.46-7,13-9.73,1.76-1.08,3.46-2.1,5-3.13l.55-.38,0,.76c4.52,3.32,7.61,6.88,7.6,12.74v0l-.1.07c-4.54,3.24-7.7,6.77-7.76,12.72-.23.17-.45.33-.71.49-1.52,1-3.17,2.08-4.92,3.17-4.46,2.78-9.27,5.78-12.89,9.74A19.66,19.66,0,0,1,34.57,530.48Z"/><path class="cls-2" d="M66,468.48h0c0-.25,0-.49,0-.73a5,5,0,0,0,.56.38c1.45,1,3,2,4.74,3,4.34,2.69,9,5.59,12.42,9.42a18.11,18.11,0,0,1,4.88,12,17.66,17.66,0,0,1-4.94,12.61c-3.44-3.78-8-6.7-12.32-9.4-1.66-1.05-3.25-2.06-4.7-3.08l-.68-.48c0-5.53-3-8.89-7.3-12l-.12-.08v0C58.59,474.67,61.62,471.45,66,468.48Z"/><path class="cls-2" d="M58.13,456.6c-1.42.9-3,1.8-4.58,2.74-4.16,2.41-8.63,5-12,8.44a16.55,16.55,0,0,1-4.62-11.52"/><path class="cls-2" d="M58,530.81v0c.06-5.95,3.22-9.48,7.76-12.72l.1-.07v.14c1.66,1.24,3.53,2.45,5.51,3.75,4.35,2.82,9,5.85,12.53,9.77a20.73,20.73,0,0,1,5.67,13.86,20,20,0,0,1-4.68,13.34l-.08.11-.1-.12c-3.64-4.37-8.64-7.68-13.27-10.76-1.81-1.21-3.53-2.35-5.1-3.51l-.59-.44c-.32-5.55-3.37-9-7.72-12.32Z"/><path class="cls-2" d="M57.73,558.46h0c.06-6.31,3.32-10,8.06-13.47h0l0-.84.59.44c1.57,1.16,3.29,2.3,5.1,3.51,4.63,3.08,9.63,6.39,13.27,10.76"/><path class="cls-2" d="M35.37,505.1A18.56,18.56,0,0,1,41,492.37c3.42-3.55,8-6.24,12.19-8.75,1.92-1.14,3.75-2.21,5.36-3.32v-.16l.12.08c4.34,3.14,7.3,6.5,7.3,12v0l0,.94c-4.23,2.93-7.21,6.1-7.59,11.25l-.55.38c-1.52,1-3.22,2-5,3.13-4.53,2.75-9.44,5.72-13,9.73A18.41,18.41,0,0,1,35.37,505.1Z"/><path class="cls-2" d="M82.91,456.93a17.25,17.25,0,0,1,5.24,12,16.63,16.63,0,0,1-4.44,11.64c-3.38-3.83-8.08-6.73-12.42-9.42-1.69-1-3.29-2-4.74-3a5,5,0,0,1-.56-.38c-.29-4.8-3.13-7.83-7.18-10.67a8.19,8.19,0,0,0-.68-.47l.09-.05"/><path class="cls-3" d="M58.06,456.55h.16l-.09.05Z"/><path class="cls-2" d="M33.7,558.1a21,21,0,0,1,5.8-13.91c3.62-4,8.43-7,12.89-9.74,1.75-1.09,3.4-2.13,4.92-3.17.26-.16.48-.32.71-.49v0l0,1c4.35,3.27,7.4,6.77,7.72,12.32l0,.84h0c-4.74,3.43-8,7.16-8.06,13.47"/><path class="cls-2" d="M58.28,505.23l0-.76c.38-5.15,3.36-8.32,7.59-11.25l0-.94v0l.68.48c1.45,1,3,2,4.7,3.08,4.28,2.7,8.88,5.62,12.32,9.4a19.44,19.44,0,0,1,5.42,13.09,18.84,18.84,0,0,1-5.15,13.36c-3.5-3.92-8.18-6.95-12.53-9.77-2-1.3-3.85-2.51-5.51-3.75V518C65.89,512.11,62.8,508.55,58.28,505.23Z"/><path class="cls-2" d="M58.13,456.6a8.19,8.19,0,0,1,.68.47c4,2.84,6.89,5.87,7.18,10.67,0,.24,0,.48,0,.73h0c-4.41,3-7.44,6.19-7.5,11.64v.18c-1.61,1.11-3.44,2.18-5.36,3.32-4.22,2.51-8.77,5.2-12.19,8.75a17.4,17.4,0,0,1,.57-24.59c3.37-3.44,7.84-6,12-8.44,1.62-.94,3.16-1.84,4.58-2.74"/><path class="cls-3" d="M82.91,456.93l-.06,0h.09l0,0"/><path class="cls-2" d="M30.87,649.94a25.55,25.55,0,0,1,5.84-15.71c3.94-4.93,9.38-8.57,14.41-12,1.94-1.32,3.82-2.57,5.5-3.83l.62-.47-.05.94c5,4.07,8.44,8.43,8.43,15.63v0a.2.2,0,0,0-.11.09c-5,4-8.54,8.32-8.6,15.64-.26.21-.51.41-.79.61-1.69,1.29-3.53,2.57-5.46,3.91-5,3.44-10.31,7.13-14.34,12A25.93,25.93,0,0,1,30.87,649.94Z"/><path class="cls-2" d="M65.74,574h0c0-.31,0-.59,0-.89a5.11,5.11,0,0,0,.61.46c1.6,1.22,3.37,2.43,5.23,3.7,4.79,3.28,10,6.8,13.73,11.47a23.45,23.45,0,0,1,5.44,14.68,23,23,0,0,1-5.43,15.45c-3.82-4.64-8.92-8.21-13.65-11.51-1.84-1.29-3.6-2.53-5.2-3.77l-.76-.59c0-6.75-3.28-10.86-8.08-14.69l-.12-.09v0C57.53,581.56,60.87,577.63,65.74,574Z"/><path class="cls-2" d="M57,559.58c-1.56,1.1-3.26,2.19-5.05,3.33-4.58,2.93-9.52,6.08-13.23,10.26a21.1,21.1,0,0,1-5.07-14"/><path class="cls-2" d="M56.91,650.35v0c.06-7.32,3.56-11.66,8.6-15.64a.2.2,0,0,1,.11-.09v.17c1.85,1.52,3.93,3,6.13,4.6,4.82,3.47,10,7.2,13.92,12A27.18,27.18,0,0,1,92,668.49,26.3,26.3,0,0,1,86.83,685l-.08.14-.12-.14c-4.06-5.41-9.63-9.52-14.78-13.32-2-1.49-3.93-2.9-5.67-4.33l-.66-.55c-.36-6.85-3.76-11.16-8.58-15.2Z"/><path class="cls-2" d="M56.59,684.51h0c.06-7.81,3.68-12.43,9-16.67h0c0-.36,0-.7,0-1l.66.55c1.74,1.43,3.66,2.84,5.67,4.33,5.15,3.8,10.72,7.91,14.78,13.32"/><path class="cls-2" d="M31.83,618.75a23.94,23.94,0,0,1,6.23-15.58c3.79-4.34,8.82-7.63,13.48-10.7,2.13-1.39,4.14-2.7,5.93-4.05v-.19l.12.09c4.8,3.83,8.08,7.94,8.08,14.69v0c0,.39,0,.78,0,1.15-4.68,3.59-8,7.47-8.39,13.77l-.62.47c-1.68,1.26-3.56,2.51-5.5,3.83-5,3.39-10.47,7-14.41,12A24.05,24.05,0,0,1,31.83,618.75Z"/><path class="cls-2" d="M84.32,560a22,22,0,0,1,5.82,14.6,21.33,21.33,0,0,1-4.87,14.17c-3.74-4.67-8.94-8.19-13.73-11.47-1.86-1.27-3.63-2.48-5.23-3.7a5.11,5.11,0,0,1-.61-.46c-.33-5.84-3.46-9.52-7.92-13-.24-.2-.5-.39-.76-.57l.1-.06"/><path class="cls-3" d="M56.94,559.52h.18l-.1.06Z"/><path class="cls-2" d="M29.84,684.08a27.52,27.52,0,0,1,6.48-17.22c4-4.9,9.37-8.59,14.34-12,1.93-1.34,3.77-2.62,5.46-3.91.28-.2.53-.4.79-.61v0l0,1.24c4.82,4,8.22,8.35,8.58,15.2,0,.34,0,.68,0,1h0c-5.27,4.24-8.89,8.86-9,16.67"/><path class="cls-2" d="M57.19,618.91l.05-.94c.41-6.3,3.71-10.18,8.39-13.77,0-.37,0-.76,0-1.15v0l.76.59c1.6,1.24,3.36,2.48,5.2,3.77,4.73,3.3,9.83,6.87,13.65,11.51a25.25,25.25,0,0,1,6,16,24.59,24.59,0,0,1-5.67,16.45c-3.9-4.83-9.1-8.56-13.92-12-2.2-1.58-4.28-3.08-6.13-4.6v-.21C65.63,627.34,62.2,623,57.19,618.91Z"/><path class="cls-2" d="M57,559.58c.26.18.52.37.76.57,4.46,3.45,7.59,7.13,7.92,13,0,.3,0,.58,0,.89h0c-4.87,3.61-8.21,7.54-8.27,14.18v.22c-1.79,1.35-3.8,2.66-5.93,4.05-4.66,3.07-9.69,6.36-13.48,10.7a22.82,22.82,0,0,1,.68-30c3.71-4.18,8.65-7.33,13.23-10.26,1.79-1.14,3.49-2.23,5.05-3.33"/><path class="cls-3" d="M84.32,560l-.06-.06h.1s0,0,0,.06"/><path class="cls-2" d="M26.4,798.94A34.65,34.65,0,0,1,33,779.14c4.44-6.2,10.54-10.79,16.18-15,2.18-1.65,4.28-3.22,6.17-4.81l.69-.59L56,759.88c5.62,5.11,9.46,10.58,9.45,19.63v.06a.43.43,0,0,0-.12.11c-5.65,5-9.58,10.49-9.65,19.73-.3.26-.57.51-.89.76-1.89,1.63-4,3.25-6.14,4.94-5.58,4.35-11.6,9-16.14,15.24A35.51,35.51,0,0,1,26.4,798.94Z"/><path class="cls-2" d="M65.51,703.82v0l-.05-1.1a7.94,7.94,0,0,0,.68.58c1.79,1.51,3.77,3,5.84,4.6,5.36,4.07,11.16,8.46,15.35,14.27a31.41,31.41,0,0,1,6.12,18.33,30.71,30.71,0,0,1-6,19.35c-4.28-5.81-10-10.28-15.3-14.42-2.06-1.61-4-3.16-5.83-4.71l-.84-.74c0-8.43-3.67-13.56-9-18.33l-.14-.12v0C56.36,713.21,60.09,708.31,65.51,703.82Z"/><path class="cls-2" d="M55.79,685.9c-1.73,1.36-3.63,2.72-5.62,4.13-5.11,3.64-10.61,7.55-14.76,12.74a28,28,0,0,1-5.61-17.36"/><path class="cls-2" d="M55.65,799.45v0c.07-9.24,4-14.72,9.65-19.73a.43.43,0,0,1,.12-.11v.22c2.07,1.91,4.41,3.79,6.87,5.79C77.71,790,83.56,794.65,88,800.75a36.9,36.9,0,0,1,7.18,21.64,36.31,36.31,0,0,1-5.75,21l-.1.18-.13-.18c-4.6-6.88-10.88-12.09-16.69-16.91-2.27-1.9-4.43-3.69-6.39-5.49l-.74-.7c-.42-8.67-4.23-14.13-9.66-19.23Z"/><path class="cls-2" d="M55.28,842.73h0c.08-9.92,4.16-15.78,10.08-21.16v0l0-1.31.74.7c2,1.8,4.12,3.59,6.39,5.49,5.81,4.82,12.09,10,16.69,16.91"/><path class="cls-2" d="M27.57,759.69a32,32,0,0,1,7-19.52c4.24-5.43,9.86-9.54,15.08-13.36,2.37-1.74,4.63-3.37,6.62-5.06v-.24l.14.12c5.36,4.77,9,9.9,9,18.33V740c0,.49,0,1,0,1.44-5.22,4.48-8.92,9.35-9.38,17.24l-.69.59c-1.89,1.59-4,3.16-6.17,4.81-5.64,4.25-11.74,8.84-16.18,15A32.73,32.73,0,0,1,27.57,759.69Z"/><path class="cls-2" d="M86.19,686.39a29.18,29.18,0,0,1,6.53,18.12,28.48,28.48,0,0,1-5.39,17.64c-4.19-5.81-10-10.2-15.35-14.27-2.07-1.59-4-3.09-5.84-4.6a7.94,7.94,0,0,1-.68-.58c-.37-7.25-3.86-11.82-8.83-16.1-.26-.24-.55-.47-.84-.7l.11-.07"/><path class="cls-3" d="M55.7,685.82h.2l-.11.07Z"/><path class="cls-2" d="M25.12,842.19a37.51,37.51,0,0,1,7.36-21.84C37,814.13,43,809.46,48.62,805.11c2.18-1.69,4.25-3.31,6.14-4.94.32-.25.59-.5.89-.76v0l0,1.56c5.43,5.1,9.24,10.56,9.66,19.23l0,1.31v0c-5.92,5.38-10,11.24-10.08,21.16"/><path class="cls-2" d="M56,759.88,56,758.7c.46-7.89,4.16-12.76,9.38-17.24,0-.47,0-1,0-1.44V740l.84.74c1.8,1.55,3.77,3.1,5.83,4.71,5.3,4.14,11,8.61,15.3,14.42A34.13,34.13,0,0,1,94.27,780,33.38,33.38,0,0,1,88,800.75c-4.4-6.1-10.25-10.8-15.67-15.17-2.46-2-4.8-3.88-6.87-5.79v-.28C65.43,770.46,61.59,765,56,759.88Z"/><path class="cls-2" d="M55.79,685.9c.29.23.58.46.84.7,5,4.28,8.46,8.85,8.83,16.1l.05,1.1v0c-5.42,4.49-9.15,9.39-9.22,17.66v.27c-2,1.69-4.25,3.32-6.62,5.06-5.22,3.82-10.84,7.93-15.08,13.36A30.15,30.15,0,0,1,28.72,721a29.68,29.68,0,0,1,6.69-18.25c4.15-5.19,9.65-9.1,14.76-12.74,2-1.41,3.89-2.77,5.62-4.13"/><path class="cls-3" d="M86.19,686.39l-.07-.08h.11s0,0,0,.07"/><path class="cls-2" d="M20.8,990a49.37,49.37,0,0,1,7.58-25.73c5.07-8,12-14,18.44-19.47,2.48-2.14,4.87-4.17,7-6.22l.78-.76-.06,1.51c6.38,6.61,10.75,13.69,10.75,25.41v.08a.29.29,0,0,0-.13.14c-6.44,6.51-10.92,13.62-11,25.64-.33.34-.64.67-1,1-2.16,2.12-4.52,4.23-7,6.43-6.39,5.68-13.28,11.78-18.49,19.9A51.15,51.15,0,0,1,20.8,990Z"/><path class="cls-2" d="M65.35,867.33v0c0-.48,0-.93,0-1.4a9,9,0,0,0,.77.73c2,1.93,4.26,3.85,6.61,5.88,6.06,5.2,12.63,10.81,17.39,18.26a44.11,44.11,0,0,1,7,23.53,43.37,43.37,0,0,1-6.77,24.94C85.43,931.74,78.92,926,72.9,920.66c-2.35-2.08-4.58-4.07-6.62-6.06l-1-1c0-10.84-4.17-17.43-10.24-23.53l-.16-.15v-.05C55,879.33,59.23,873.07,65.35,867.33Z"/><path class="cls-2" d="M54.38,844.5c-2,1.74-4.09,3.46-6.34,5.27-5.77,4.62-12,9.61-16.69,16.24a38.71,38.71,0,0,1-6.28-22.13"/><path class="cls-2" d="M54.17,990.63v0c.09-12,4.57-19.13,11-25.64a.29.29,0,0,1,.13-.14v.28c2.36,2.48,5,4.92,7.84,7.51,6.18,5.68,12.86,11.79,17.9,19.73A56.28,56.28,0,0,1,92.83,1048l-.11.24-.15-.25c-5.29-9-12.5-15.86-19.16-22.17-2.6-2.48-5.07-4.82-7.32-7.19l-.85-.91c-.47-11.32-4.83-18.44-11-25.09C54.2,992,54.19,991.32,54.17,990.63Z"/><path class="cls-2" d="M53.73,1047.25h0c.09-13,4.76-20.71,11.54-27.75v0c0-.59,0-1.15-.06-1.72l.85.91c2.25,2.37,4.72,4.71,7.32,7.19,6.66,6.31,13.87,13.14,19.16,22.17"/><path class="cls-2" d="M22.28,939.08a44.89,44.89,0,0,1,8-25.15c4.83-7,11.21-12.27,17.12-17.18,2.69-2.23,5.24-4.32,7.5-6.48V890l.16.15c6.07,6.1,10.22,12.69,10.24,23.53v.07c0,.63,0,1.25,0,1.85-5.93,5.78-10.13,12-10.66,22.23l-.78.76c-2.15,2.05-4.54,4.08-7,6.22-6.41,5.5-13.37,11.43-18.44,19.47A46.62,46.62,0,0,1,22.28,939.08Z"/><path class="cls-2" d="M88.66,845.11A40.29,40.29,0,0,1,96.1,868.2a39.83,39.83,0,0,1-6,22.58c-4.76-7.45-11.33-13.06-17.39-18.26-2.35-2-4.58-3.95-6.61-5.88a9,9,0,0,1-.77-.73c-.42-9.25-4.37-15.07-10-20.52-.3-.3-.62-.6-.95-.89l.13-.09"/><path class="cls-3" d="M54.28,844.41h.23l-.13.09Z"/><path class="cls-2" d="M19.16,1046.55c.35-12.1,3.74-21.22,8.5-28.64,5.21-8.12,12.1-14.22,18.49-19.9,2.49-2.2,4.85-4.31,7-6.43.37-.33.68-.66,1-1v0c0,.69,0,1.37,0,2,6.2,6.65,10.56,13.77,11,25.09,0,.57,0,1.13.06,1.72v0c-6.78,7-11.45,14.72-11.54,27.75"/><path class="cls-2" d="M54.56,939.31l.06-1.51c.53-10.19,4.73-16.45,10.66-22.23,0-.6,0-1.22,0-1.85v-.07l1,1c2,2,4.27,4,6.62,6.06,6,5.33,12.53,11.08,17.41,18.59a48.15,48.15,0,0,1,7.85,26.11,47.53,47.53,0,0,1-7.11,27c-5-7.94-11.72-14.05-17.9-19.73-2.82-2.59-5.48-5-7.84-7.51v-.36C65.31,953,60.94,945.92,54.56,939.31Z"/><path class="cls-2" d="M54.38,844.5c.33.29.65.59.95.89,5.6,5.45,9.55,11.27,10,20.52,0,.47,0,.92,0,1.4v0c-6.12,5.74-10.33,12-10.42,22.59v.35c-2.26,2.16-4.81,4.25-7.5,6.48-5.91,4.91-12.29,10.19-17.12,17.18a42.33,42.33,0,0,1-6.58-24.59A41.13,41.13,0,0,1,31.35,866c4.7-6.63,10.92-11.62,16.69-16.24,2.25-1.81,4.38-3.53,6.34-5.27"/><path class="cls-3" d="M88.66,845.11l-.07-.09h.12a.14.14,0,0,1,0,.09"/><path class="cls-2" d="M13.52,1243.78c.41-14.56,3.95-25.69,8.93-34.79,5.91-10.83,14-18.81,21.43-26.2,2.88-2.87,5.65-5.6,8.14-8.35l.91-1c0,.67,0,1.34-.08,2,7.39,8.87,12.47,18.38,12.47,34.17v.09a.74.74,0,0,0-.16.19c-7.47,8.79-12.67,18.4-12.79,34.67-.39.47-.75.91-1.17,1.35-2.52,2.89-5.28,5.75-8.18,8.74-7.45,7.71-15.51,16-21.62,27.08C16.35,1271.48,13.08,1259.29,13.52,1243.78Z"/><path class="cls-2" d="M65.3,1079.65v0c0-.64,0-1.24-.06-1.86a11.34,11.34,0,0,0,.88,1c2.33,2.55,4.9,5.09,7.6,7.76,7,6.88,14.57,14.31,20.07,24.19A65.28,65.28,0,0,1,102,1142c.3,13.77-2.88,24.46-7.72,33.35-5.68-10-13.22-17.75-20.19-24.87-2.71-2.77-5.29-5.42-7.65-8.08l-1.1-1.27c0-14.44-4.83-23.2-11.82-31.31l-.18-.19v-.07C53.41,1095.53,58.26,1087.25,65.3,1079.65Z"/><path class="cls-2" d="M52.7,1049.57c-2.24,2.29-4.7,4.56-7.28,6.93-6.63,6.09-13.78,12.67-19.19,21.42a56.46,56.46,0,0,1-7.13-29.14"/><path class="cls-2" d="M52.37,1244.65v-.08c.12-16.27,5.32-25.88,12.79-34.67a.74.74,0,0,1,.16-.19v.39c2.74,3.34,5.84,6.63,9.12,10.13,7.2,7.67,15,15.93,20.87,26.68,5.52,10,9.45,22.28,9.8,38.42.34,15.33-2.72,27.47-7.48,37.6l-.13.32-.18-.33c-6.23-12.38-14.68-21.72-22.48-30.35-3-3.39-5.94-6.58-8.56-9.8l-1-1.25c-.56-15.42-5.65-25.09-12.86-34.11C52.41,1246.5,52.39,1245.58,52.37,1244.65Z"/><path class="cls-2" d="M51.82,1321.86h0c.12-17.85,5.59-28.35,13.5-38v0c0-.81,0-1.57-.07-2.35l1,1.25c2.62,3.22,5.52,6.41,8.56,9.8,7.8,8.63,16.25,18,22.48,30.35"/><path class="cls-2" d="M15.47,1175.15c.41-14.27,4.15-25,9.39-33.64,5.6-9.31,13-16.34,19.8-22.87,3.11-3,6.05-5.74,8.65-8.61v-.4l.18.19c7,8.11,11.78,16.87,11.82,31.31v.09c0,.84,0,1.66-.07,2.47-6.85,7.71-11.69,16.09-12.31,29.73l-.91,1c-2.49,2.75-5.26,5.48-8.14,8.35-7.44,7.39-15.52,15.37-21.43,26.2A70.6,70.6,0,0,1,15.47,1175.15Z"/><path class="cls-2" d="M92,1050.37c4.89,8,8.35,17.66,8.63,30.42a58.68,58.68,0,0,1-6.85,29.9c-5.5-9.88-13.09-17.31-20.07-24.19-2.7-2.67-5.27-5.21-7.6-7.76a11.34,11.34,0,0,1-.88-1c-.5-12.19-5-19.86-11.45-27-.34-.4-.71-.79-1.09-1.18l.15-.11"/><path class="cls-3" d="M52.59,1049.45h.26l-.15.11Z"/><path class="cls-2" d="M11.33,1320.92c.47-16.58,4.48-29.05,10.07-39.18,6.11-11.06,14.17-19.37,21.62-27.08,2.9-3,5.66-5.85,8.18-8.74.42-.44.78-.88,1.17-1.35v.08c0,.93,0,1.85.05,2.76,7.21,9,12.3,18.69,12.86,34.11,0,.78,0,1.54.07,2.35v0c-7.91,9.61-13.38,20.11-13.5,38"/><path class="cls-2" d="M52.85,1175.45c0-.69,0-1.36.08-2,.62-13.64,5.46-22,12.31-29.73,0-.81,0-1.63.07-2.47v-.09l1.1,1.27c2.36,2.66,4.94,5.31,7.65,8.08,7,7.12,14.51,14.82,20.19,24.87,5.2,9.21,8.89,20.42,9.22,35.11.33,15.11-3,26.77-8.16,36.45-5.89-10.75-13.67-19-20.87-26.68-3.28-3.5-6.38-6.79-9.12-10.13v-.48C65.32,1193.83,60.24,1184.32,52.85,1175.45Z"/><path class="cls-2" d="M52.7,1049.57c.38.39.75.78,1.09,1.18,6.43,7.16,10.95,14.83,11.45,27,0,.62,0,1.22.06,1.86v0c-7,7.6-11.89,15.88-12,29.91v.47c-2.6,2.87-5.54,5.65-8.65,8.61-6.82,6.53-14.2,13.56-19.8,22.87a62.81,62.81,0,0,1-7.49-32.7c.38-13,3.91-22.89,8.86-30.89,5.41-8.75,12.56-15.33,19.19-21.42,2.58-2.37,5-4.64,7.28-6.93"/><path class="cls-3" d="M92,1050.37l-.09-.12h.14a.31.31,0,0,1,0,.12"/><path class="cls-2" d="M3.58,1597.33c.58-20.81,4.87-36.68,10.85-49.63,7.09-15.36,16.73-26.67,25.6-37.12,3.42-4.06,6.72-7.91,9.67-11.79l1.08-1.44c0,.94-.06,1.89-.09,2.87,8.78,12.5,14.82,26,14.85,48.35v.14a.74.74,0,0,0-.19.27c-8.91,12.5-15.13,26.21-15.27,49.47-.47.66-.91,1.3-1.41,1.93-3,4.13-6.33,8.23-9.81,12.53-8.95,11.08-18.64,23-26,39C6.82,1637.12,3,1619.57,3.58,1597.33Z"/><path class="cls-2" d="M65.4,1366.47v0c0-.88-.05-1.71-.07-2.56a14,14,0,0,0,1,1.33c2.74,3.52,5.77,7,9,10.73,8.23,9.52,17.18,19.82,23.71,33.54,5.51,11.55,9.42,25.56,9.82,43.69.43,19.32-3.28,34.35-9,46.88-6.78-14.16-15.75-25-24-35-3.22-3.89-6.28-7.6-9.07-11.32L65.45,1452c0-20.18-5.71-32.39-14-43.67l-.21-.28v-.09C51.41,1388.45,57.12,1377,65.4,1366.47Z"/><path class="cls-2" d="M50.61,1325.05c-2.63,3.14-5.51,6.26-8.54,9.52-7.78,8.39-16.2,17.45-22.59,29.53-5.14-10.92-8.49-23.83-8.23-40.13"/><path class="cls-2" d="M50.07,1598.55v-.1c.14-23.26,6.36-37,15.27-49.47a.74.74,0,0,1,.19-.27v.55c3.27,4.75,7,9.42,10.88,14.4,8.62,10.93,18,22.73,25,38.11,6.66,14.39,11.43,32,12,55.26.51,22.18-3.1,39.8-8.79,54.54l-.16.47-.21-.48c-7.57-18-17.79-31.55-27.21-44-3.66-4.89-7.15-9.5-10.31-14.15l-1.19-1.81c-.69-22.21-6.8-36.11-15.43-49C50.11,1601.21,50.09,1599.88,50.07,1598.55Z"/><path class="cls-2" d="M49.36,1710.06h0c.15-26,6.73-41.16,16.24-55.07v0c0-1.17,0-2.27-.08-3.4l1.19,1.81c3.16,4.65,6.65,9.26,10.31,14.15,9.42,12.5,19.64,26.06,27.21,44"/><path class="cls-2" d="M6.3,1499.81c.56-20.1,5.06-35.11,11.3-47.28,6.66-13,15.4-22.85,23.47-32,3.67-4.12,7.14-8,10.21-12V1408l.21.28c8.24,11.28,13.9,23.49,14,43.67v.13c0,1.18,0,2.33-.07,3.45-8.1,10.83-13.85,22.6-14.6,41.8l-1.08,1.44c-3,3.88-6.25,7.73-9.67,11.79-8.87,10.45-18.51,21.76-25.6,37.12C9.13,1534.65,5.76,1519.18,6.3,1499.81Z"/><path class="cls-2" d="M96.67,1326.13c5.77,10.94,9.88,24.29,10.27,41.9.38,17-2.87,30.31-7.92,41.45-6.53-13.72-15.48-24-23.71-33.54-3.18-3.7-6.21-7.21-9-10.73a14,14,0,0,1-1-1.33c-.6-16.83-5.91-27.38-13.44-37.21-.4-.56-.84-1.09-1.28-1.62l.17-.16"/><path class="cls-3" d="M50.48,1324.89h.3l-.17.16Z"/><path class="cls-2" d="M.5,1708.72c.66-24.11,5.56-42.17,12.34-56.81,7.38-16,17.07-27.92,26-39,3.48-4.3,6.78-8.4,9.81-12.53.5-.63.94-1.27,1.41-1.93v.1c0,1.33,0,2.66.06,4,8.63,12.94,14.74,26.84,15.43,49,0,1.13,0,2.23.08,3.4v0c-9.51,13.91-16.09,29.12-16.24,55.07"/><path class="cls-2" d="M50.69,1500.22c0-1,.06-1.93.09-2.87.75-19.2,6.5-31,14.6-41.8,0-1.12.05-2.27.07-3.45V1452l1.31,1.78c2.79,3.72,5.85,7.43,9.07,11.32,8.28,10,17.25,20.82,24,35,6.23,13,10.68,28.85,11.15,49.7.48,21.51-3.46,38.15-9.54,52-7.1-15.38-16.43-27.18-25-38.11-3.91-5-7.61-9.65-10.88-14.4v-.69C65.51,1526.18,59.47,1512.72,50.69,1500.22Z"/><path class="cls-2" d="M50.61,1325.05c.44.53.88,1.06,1.28,1.62,7.53,9.83,12.84,20.38,13.44,37.21,0,.85,0,1.68.07,2.56v0c-8.28,10.5-14,22-14.11,41.46v.66c-3.07,4-6.54,7.86-10.21,12-8.07,9.11-16.81,18.94-23.47,32-5.6-12.31-9.22-27-8.69-45.63.51-18.12,4.71-31.74,10.57-42.8,6.39-12.08,14.81-21.14,22.59-29.53,3-3.26,5.91-6.38,8.54-9.52"/><path class="cls-3" d="M96.67,1326.13l-.11-.17h.17a.39.39,0,0,1-.06.17"/></g></g></svg>