<svg xmlns="http://www.w3.org/2000/svg" viewBox="0 0 234.29 89.67"><defs><style>.cls-1{fill:#fff;}.cls-2{fill:#ccc;}.cls-3{fill:#2e4999;}.cls-4{fill:#f5cb91;}.cls-5{fill:#ecf0f2;}.cls-6{fill:#045e9e;}.cls-7{fill:#f8f196;}.cls-8{fill:#eb8ebb;}.cls-9{fill:#6fa0d3;}.cls-10{fill:#fdfdfd;}</style></defs><g id="圖層_2" data-name="圖層 2"><g id="素材"><path class="cls-1" d="M224.32,89.17a11.19,11.19,0,0,1-4.5-1A20.94,20.94,0,0,1,214.88,85a42.78,42.78,0,0,1-4.63-4.58A42.06,42.06,0,0,1,202,65.82c-.27-.76-.54-1.53-.8-2.29a93.84,93.84,0,0,0-3.37-8.77c-.55-1.17-1.18-2.34-1.79-3.48s-1.11-2.09-1.63-3.15a18,18,0,0,1-2-7c-.15-3.11,1-5.89,3.61-8.5a39.57,39.57,0,0,1,8-5.81l1.75-1.06c1.26-.76,2.49-1.51,3.66-2.28a6.48,6.48,0,0,0-.39-3.94,4.92,4.92,0,0,1-.41-2,4.3,4.3,0,0,1,2.75-4,4,4,0,0,1,1.26-.2,4.89,4.89,0,0,1,3,1.1,4.71,4.71,0,0,1,.66.68,5.88,5.88,0,0,1,1.17,4.1,25,25,0,0,1-.58,4l-.09.46a4.89,4.89,0,0,1,1.06,3.47c.26,0,.51-.08.75-.1a13,13,0,0,1,1.49-.08,10.53,10.53,0,0,1,1.72.13,4,4,0,0,1,1.93.85,3.46,3.46,0,0,1,1.27,2.71,3,3,0,0,1,1.25-.31,2.28,2.28,0,0,1,1.47.53,2.7,2.7,0,0,1,.92,1.94,6.1,6.1,0,0,1-.81,3.58,9.23,9.23,0,0,1-1.39,1.92,3.08,3.08,0,0,1,.45,2.43l-.18.92a10.92,10.92,0,0,0,2.14,1.08l.72.26a11.38,11.38,0,0,1,2,.84,3,3,0,0,1,.58.37,2.32,2.32,0,0,1,.73,2.62,2.37,2.37,0,0,1-2.29,1.64,2.92,2.92,0,0,1-1-.16l-.36-.11a8.28,8.28,0,0,1-1.66-.62,7.78,7.78,0,0,0-.82-.36,3.19,3.19,0,0,0,.16.46,5.3,5.3,0,0,1,.42,2.43l.12.35a3.13,3.13,0,0,1,.34.21l.21.16a2.35,2.35,0,0,1,.21,3.46,1.87,1.87,0,0,0,.33.47,3.1,3.1,0,0,1,.84,2.26c0,.08,0,.16,0,.2a8.41,8.41,0,0,0,2,3.65,5.74,5.74,0,0,1,1.21,4.28,11.7,11.7,0,0,0,.25,2.57c.08.47.16,1,.22,1.44l0,.12c.47,3.83,1,7.79,0,11.87a10.35,10.35,0,0,1-4.05,6.52A8.56,8.56,0,0,1,224.32,89.17Z"/><path class="cls-2" d="M212.63,13.81a4.38,4.38,0,0,1,2.72,1,3.72,3.72,0,0,1,.59.6A5.48,5.48,0,0,1,217,19.17a25.56,25.56,0,0,1-.57,3.91c-.05.24-.09.47-.14.71a4.71,4.71,0,0,1,1.08,3.77v.16a11.35,11.35,0,0,1,1.32-.21,12.14,12.14,0,0,1,1.44-.08,9.36,9.36,0,0,1,1.63.13,3.51,3.51,0,0,1,1.7.73,3.13,3.13,0,0,1,1,3.22l.64-.35a2.57,2.57,0,0,1,1.21-.35,1.75,1.75,0,0,1,1.15.42,2.23,2.23,0,0,1,.74,1.59,5.52,5.52,0,0,1-.75,3.29,8.32,8.32,0,0,1-1.64,2.14,2.46,2.46,0,0,1,.65,2.36l-.22,1.12-.18,0a10.72,10.72,0,0,0,2.67,1.42c.23.1.48.18.73.27a10.64,10.64,0,0,1,1.93.81h0a3,3,0,0,1,.49.31,1.84,1.84,0,0,1,.57,2.06,1.89,1.89,0,0,1-1.82,1.31,2.67,2.67,0,0,1-.8-.13,2.64,2.64,0,0,0-.4-.12,9.9,9.9,0,0,1-1.54-.58,12.74,12.74,0,0,0-1.32-.57l-.28-.11a1.66,1.66,0,0,1-.12.31,2.89,2.89,0,0,1,.17.52,5.41,5.41,0,0,0,.19.57,4.74,4.74,0,0,1,.38,2.3,1,1,0,0,0,0,.16,4,4,0,0,1,.16.49,2.59,2.59,0,0,1,.46.26l0,0a1.09,1.09,0,0,1,.17.13,1.8,1.8,0,0,1,.63,1.92,1.92,1.92,0,0,1-.69,1,2.34,2.34,0,0,0,.57,1A2.61,2.61,0,0,1,229,57a1.57,1.57,0,0,0,0,.25,8.73,8.73,0,0,0,2.14,3.9,5.29,5.29,0,0,1,1.09,3.93,12.12,12.12,0,0,0,.26,2.69c.08.45.16.93.22,1.41v.12c.47,3.79,1,7.71,0,11.7a9.91,9.91,0,0,1-3.84,6.22,8,8,0,0,1-4.59,1.44,10.74,10.74,0,0,1-4.3-1,20.33,20.33,0,0,1-4.82-3h0a41.45,41.45,0,0,1-12.7-19c-.27-.76-.53-1.53-.8-2.3-1-2.93-2.07-6-3.39-8.81-.55-1.18-1.18-2.36-1.8-3.5s-1.1-2.07-1.62-3.14a17.55,17.55,0,0,1-2-6.79A10.54,10.54,0,0,1,196.39,33a39.54,39.54,0,0,1,7.88-5.74l.65-.39,1.15-.7c1.27-.76,2.57-1.55,3.81-2.38a7.06,7.06,0,0,0-.4-4.43,4.57,4.57,0,0,1-.36-1.84A3.76,3.76,0,0,1,211.54,14a3.28,3.28,0,0,1,1.09-.17m8.54,21.4.41-.22-.15-.13-.24.27a.24.24,0,0,1,0,.08m-.08,0h0m2.41,24.63-.56-.77-.06,0h0l-.09-.13a1.34,1.34,0,0,0-.21.2l.91.76m.46.37-.07-.09,0,0,.09.07M212.63,12.81a4.4,4.4,0,0,0-1.42.23,4.74,4.74,0,0,0-3.09,4.49,5.4,5.4,0,0,0,.46,2.23,5.93,5.93,0,0,1,.38,3.43c-1.11.73-2.27,1.44-3.4,2.12l-1.16.7-.65.39a40.28,40.28,0,0,0-8.07,5.89,11.5,11.5,0,0,0-3.75,8.87A18.46,18.46,0,0,0,194,48.34c.53,1.1,1.1,2.16,1.64,3.18s1.23,2.3,1.77,3.46a89,89,0,0,1,3.36,8.71c.27.8.53,1.55.8,2.3a42.72,42.72,0,0,0,8.31,14.8,44.85,44.85,0,0,0,4.69,4.64,21.73,21.73,0,0,0,5.06,3.16,11.63,11.63,0,0,0,4.7,1.08,9,9,0,0,0,5.15-1.62,10.79,10.79,0,0,0,4.25-6.82c1-4.16.48-8.16,0-12l0-.12c-.06-.51-.14-1-.22-1.46a10.42,10.42,0,0,1-.25-2.46,6.39,6.39,0,0,0-1.33-4.64,8,8,0,0,1-1.91-3.4.57.57,0,0,1,0-.13,3.58,3.58,0,0,0-1-2.61l-.06-.07a2.87,2.87,0,0,0-.51-3.89l-.23-.17-.23-.15,0-.08a5,5,0,0,0-.23-1.89,10,10,0,0,0,1.45.52l.39.12a3.57,3.57,0,0,0,1.1.18,2.9,2.9,0,0,0,2.76-2,2.84,2.84,0,0,0-.88-3.16,3.57,3.57,0,0,0-.67-.43,12,12,0,0,0-2.08-.88c-.26-.09-.48-.16-.7-.25a11.76,11.76,0,0,1-1.77-.84l.12-.59a3.63,3.63,0,0,0-.32-2.48,10,10,0,0,0,1.2-1.72,6.61,6.61,0,0,0,.88-3.88,3.15,3.15,0,0,0-1.1-2.27,2.77,2.77,0,0,0-1.79-.65,3.22,3.22,0,0,0-.81.11,3.93,3.93,0,0,0-1.39-2.4,4.56,4.56,0,0,0-2.17-.95,10.51,10.51,0,0,0-1.8-.14c-.49,0-1,0-1.54.08l-.21,0a5.2,5.2,0,0,0-1-3l0-.19a25.45,25.45,0,0,0,.6-4.1,6.53,6.53,0,0,0-1.28-4.43A4,4,0,0,0,216,14a5.33,5.33,0,0,0-3.35-1.22Z"/><path class="cls-1" d="M223.91,62.2a2.1,2.1,0,0,1-1.37-.5,1.7,1.7,0,0,1-.24-.22l-1.5-1.65,1.77-1.37A2.21,2.21,0,0,1,224,58a2.15,2.15,0,0,1,1.35.49,2.18,2.18,0,0,1,.58.73l1,2-2,.86A2.27,2.27,0,0,1,223.91,62.2Z"/><path class="cls-2" d="M224,58.45a1.59,1.59,0,0,1,1,.38,1.64,1.64,0,0,1,.45.56l.74,1.49-1.53.65,0,0a1.76,1.76,0,0,1-.7.15,1.68,1.68,0,0,1-1.06-.38l-.18-.18-1.13-1.25,1.33-1a1.75,1.75,0,0,1,1.09-.4m-1.11,2.87h0M224,57.45a2.77,2.77,0,0,0-1.71.62l-1.33,1-.85.66.73.8,1.13,1.25a2.54,2.54,0,0,0,.29.28,2.62,2.62,0,0,0,1.69.61,2.77,2.77,0,0,0,1.09-.23l.06,0,1.52-.65,1-.42-.47-1L226.34,59a3,3,0,0,0-.71-.9,2.67,2.67,0,0,0-1.67-.6Z"/><path class="cls-1" d="M223.69,60.63l-.23-.2-.36-.4.43-.33a.64.64,0,0,1,.43-.18.6.6,0,0,1,.53.35l.24.47-.5.21a.78.78,0,0,1-.31.08Z"/><path class="cls-2" d="M224,60s0,0,.08.07l0,0-.07,0a.12.12,0,0,1-.09,0s.09-.07.13-.07m0-1a1.15,1.15,0,0,0-.73.27l-.84.67.7.8a1.11,1.11,0,0,0,.83.37,1.14,1.14,0,0,0,.47-.1l1-.42-.43-1a1.06,1.06,0,0,0-1-.63Z"/><path class="cls-3" d="M221.78,34.68c1.36-.71,2.72-1.41,4.06-2.14.55-.31.74-.17.79.41a4.07,4.07,0,0,1-.55,2.39,6,6,0,0,1-1.94,2.21c-.62.39-.54.72-.18,1.17l.06.2.11.36c0,.19,0,.47-.28.48s-.34-.19-.4-.41a1.45,1.45,0,0,0-.66-1,2.94,2.94,0,0,1,.15,2.12c-.27.88-.17,1.06.79,1.49a4.51,4.51,0,0,1,0-1.9c.7.2.38.79.53,1.18a1.7,1.7,0,0,0,.25,1.28,11.62,11.62,0,0,0,3.67,2.15,18,18,0,0,1,2.46,1c.19.11.49.19.38.51s-.41.27-.66.19a10.55,10.55,0,0,1-1.69-.59c-1.49-.78-3.24-1-4.57-2.45,0,1-.38,1.87.57,2.46.13.08.21.25.13.34-.6.55-.05,1,.07,1.54a6,6,0,0,1,.52,2.4c-.1.61.48,1.15.25,1.81-.07.2.12.3.34.3a1.22,1.22,0,0,1,.74.2c.12.09.27.18.22.37a.3.3,0,0,1-.37.22c-.91-.2-.67.35-.55.83a4.77,4.77,0,0,0,1.22,2.47c.3.29.16.91.26,1.37a10.5,10.5,0,0,0,2.49,4.6,3.74,3.74,0,0,1,.72,2.81,23,23,0,0,0,.48,4.39c.47,3.76,1,7.51.06,11.27a8.23,8.23,0,0,1-3.2,5.28c-2.38,1.63-4.88,1.4-7.37.31-3.59-1.58-6.3-4.3-8.87-7.16A40.73,40.73,0,0,1,204,65.14c-1.34-3.78-2.55-7.61-4.25-11.25-1.06-2.27-2.34-4.42-3.43-6.66a15.82,15.82,0,0,1-1.81-6.18,9.05,9.05,0,0,1,3-6.95,40.94,40.94,0,0,1,8.23-5.9c1.73-1.06,3.49-2.08,5.17-3.22a1.18,1.18,0,0,0,.5-.86,8.72,8.72,0,0,0-.5-5.43,3.12,3.12,0,0,1-.23-1.22,2.22,2.22,0,0,1,1.38-2,2.62,2.62,0,0,1,2.65.91,3.93,3.93,0,0,1,.73,2.73,32.39,32.39,0,0,1-.75,4.7.82.82,0,0,0,.3.93c.93.75.85,1.85.81,2.89a19.1,19.1,0,0,1-.3,2.13c1.13-.22,2.22-.56,3.36-.69a9.8,9.8,0,0,1,2.65,0,1.58,1.58,0,0,1,1.39,2.16,2.83,2.83,0,0,1-2.82,2.17c-.44,0-.59.11-.43.57a2.68,2.68,0,0,1,0,.7c0,.17-.28.39.08.51s.52.17.74-.15a2.94,2.94,0,0,1,1.1-.87c.11-.06.25-.15.31,0s-.08.18-.12.26a.93.93,0,0,0-.62.52,3.34,3.34,0,0,0-1.2,1.89,12.77,12.77,0,0,0-.45,2.72,6.45,6.45,0,0,0,.89-2.31,2.29,2.29,0,0,1,.61-1.41c.37-.41.74-.37,1,.08a1.21,1.21,0,0,1,.23,1c-.26-.06-.27-.28-.38-.41s-.23-.45-.46-.32-.36.62-.38,1,.28.1.43.13c1.19.23,3.11-1.36,3.4-2.58.1-.41-.07-.47-.4-.35a4.28,4.28,0,0,0-1.69,1.29,3.36,3.36,0,0,1,1.08-1.48l.2-.17-.2.18c-.25,0-.43.14-.64.23-.63.27-1.26.57-1.91.81-.41.15-.31-.06-.15-.27C221.46,35.06,221.58,34.79,221.78,34.68Zm2.05,25.42c-.17-.05-.25,0-.32.17-.16-.17-.28,0-.42,0-.36,0-.17-.21-.13-.37a6.54,6.54,0,0,1,2-.88c-.74-.15-1.45-.57-2.17,0-.29-.14-.47.29-.76.18-.12-.53.19-.9.39-1.3-.2-.25-.4.31-.61,0a5,5,0,0,1,2.94-1.9,4.56,4.56,0,0,0-3.15-.23c-.61.18-.73,0-.61-.61a6.72,6.72,0,0,1,1.5-2.86c-.71.23-1.26-.14-1.74.2s-.51,0-.48-.28a4.14,4.14,0,0,1,.84-2.29c.3-.38,1.11-.51.87-1.08-.18-.41-.79-.65-1.22-.93s-.86-.94-1.55-.2a1.42,1.42,0,0,1,.52-1.23c.58-.52,1.37-.74,1.85-1.4.29-.4.37-.58-.18-.84a5,5,0,0,0-2.05-.17,1.58,1.58,0,0,1-.95-.2c-.3-.29.31-.3.32-.56v-.08c0-1.66,0-3.31.19-5.09A11,11,0,0,0,217,39.91c-.44.7-1.07,1.27-1.52,2-.16.25-.22.39,0,.66a8.41,8.41,0,0,1,1.81,4.18c.58,3.29.45,6.64.67,10a22.15,22.15,0,0,0,1.54,7.84,6.73,6.73,0,0,0,2.16,2.92,1.9,1.9,0,0,0,1.23.43c.57,0,.79-.44.88-.93,0-.2.28-.51-.1-.63s-.33-.33,0-.46a4.73,4.73,0,0,1,.81-.25,10.46,10.46,0,0,1,3.11,0,4.64,4.64,0,0,0-2.27-.72,2,2,0,0,0-2,1,1,1,0,0,1,.37-.93,8.79,8.79,0,0,1,2.69-1.29,4.48,4.48,0,0,1,2.55.59,1.84,1.84,0,0,1,.69.91c0,.14.17.31.33.19a.25.25,0,0,0,0-.41,3.7,3.7,0,0,1-.74-.79A5.74,5.74,0,0,0,227,62.46c-1.09-.5-1.1-.49-1.69.55-.06.11-.13.22-.2.33s-.23.45-.46.32a.56.56,0,0,1-.28-.58c.08-.38.13-.76.2-1.22L223.2,62a.82.82,0,0,1-.68-.28c-.16-.16,0-.37.16-.54s.28-.49.41-.73l.42-.23a.34.34,0,0,0,.31-.17c.08.09.15,0,.23,0,.46-.12,1,0,1.4-.33-.48.05-1-.12-1.4.35C224,60,223.9,60,223.83,60.1Zm-.22,1.22a1.41,1.41,0,0,0,1.43-.4,2.2,2.2,0,0,0-1.43.42l-.18.06,0,.06Zm-21.93-4.86a.13.13,0,0,0,.06.19s.06,0,.06,0,0-.16-.13-.14a4.17,4.17,0,0,0,0-1.86c.13-1.26.21-2.54.41-3.79.54-3.32,1.29-6.59,1.79-9.91a18,18,0,0,1,2.41-7.21c.41-.63,1.1-1.1,1.38-1.75a20.52,20.52,0,0,1,5.49-7.29,2.06,2.06,0,0,0-1.56.3,59.92,59.92,0,0,1-5.17,3.34c-.2.12-.43.19-.55.43-1.13,2.25-2.49,4.39-3.47,6.73a40.25,40.25,0,0,0-3.47,15,1.08,1.08,0,0,0,.09.53c.48.89.95,1.79,1.42,2.69A24,24,0,0,0,201.68,56.46Zm-5.89-12.2c0,.12,0,.32.11.31s.11-.21.1-.34a40.13,40.13,0,0,1,.94-4.74,21.46,21.46,0,0,1,3.5-7.21,16,16,0,0,0-2.69,2.23A8.42,8.42,0,0,0,195.79,44.26ZM229.05,67a7.16,7.16,0,0,0-3.57-.94c-.61,0-.89.16-1,.82-.41,1.92-1.9,2.41-3.46,1.22a7.13,7.13,0,0,1-2-2.56c-1.52-3-1.69-6.3-1.86-9.58-.14-2.73-.12-5.47-.43-8.19a8.72,8.72,0,0,0-1.51-4.37c-.29-.39-.42-.47-.77,0a42.51,42.51,0,0,1-3.53,4.17c-1,1-1,1-.5,2.36l.15.44c1.58,4.16,2.66,8.49,4.45,12.58a34.43,34.43,0,0,0,5.28,9,9.71,9.71,0,0,0,3.55,2.74c1.6.67,3.58.49,4.43-.65,1.41-1.9,2.37-4,1.87-6.5-.05-.35-.12-.71-.15-1.06,0-.56-.31-.81-.91-.75C229.41,66.15,229.62,66.6,229.05,67Zm-1.76,8.46c-2.27.82-4.2,0-6-1.32a13.84,13.84,0,0,1-2.92-3.23,50.5,50.5,0,0,1-6.7-14.62,69.94,69.94,0,0,0-2.44-7.19,15.68,15.68,0,0,1-2.54,1.38c-.21.07-.47.26-.64,0s.1-.43.25-.6c.59-.62,1.15-1.28,1.8-1.84.4-.35.34-.6.15-1a13.3,13.3,0,0,0-3.47-4.17c-.39-.34-.55-.33-.65.26-.37,2.26-.79,4.51-1.2,6.76a23.15,23.15,0,0,0,.25,10.54,62.43,62.43,0,0,0,3.48,9.27,37.63,37.63,0,0,0,8.63,11.86A18.73,18.73,0,0,0,222.23,86a6.06,6.06,0,0,0,8-4,18.45,18.45,0,0,0,.76-7.64,11.25,11.25,0,0,0-.51-3.7C229.93,72.8,229.17,74.52,227.29,75.48Zm-16-48.4A22,22,0,0,0,209,30.39a5.81,5.81,0,0,0-.89,2.32,1.2,1.2,0,0,0,.58,1.18c.44.29.74.13,1.12-.09a8.08,8.08,0,0,1,4.82-1.31c.78.06,1.55.16,2.33.21a15.82,15.82,0,0,0,3.89-.05,1.71,1.71,0,0,0,1.55-1.83c0-.73-.47-1.08-1.57-1.19a14.06,14.06,0,0,0-4.33.43c-.71.15-1.45.22-1.58,1.17a.34.34,0,0,1-.45.31c-.27-.11-.14-.35-.09-.54.22-.78.48-1.54.65-2.33a4.93,4.93,0,0,0-.08-3c-.38-.94-1.11-1.14-1.82-.46S211.71,26.67,211.31,27.08Zm-3.85,5.78a15.67,15.67,0,0,0-2.6,6.08c-.07.29,0,.34.31.36.65,0,1.3.1,2,.16a15.68,15.68,0,0,1,6.68,1.68c.43.25.63.26,1-.1a35.21,35.21,0,0,1,3-2.89c.64-.56,1.22-1.19,1.81-1.8.19-.2.13-.37-.08-.59s-.37,0-.49.1a3.67,3.67,0,0,1-3.22.75A37.84,37.84,0,0,1,209,34.86C208.17,34.53,207.39,34.17,207.46,32.86ZM205,29.24c-1.44,1.1-3.27,1.54-4.22,3.39a38.11,38.11,0,0,0-3.21,7.17,31.22,31.22,0,0,0-.81,5.94c-.1,1.35.74,2.21,1.33,3.24A47.81,47.81,0,0,1,205,29.24Zm8.11,13.55c.66-.77.67-.77-.24-1.22-.25-.13-.51-.24-.78-.35A26.9,26.9,0,0,0,206,40c-1.37-.2-1.38-.19-1.55,1.2,0,.28-.25.64.15.84a10.56,10.56,0,0,1,4.1,4.38c.31.51.52.49.89.1C210.75,45.28,211.93,44,213.11,42.79Zm-3-8.29a29.85,29.85,0,0,0,7,1.49,2.12,2.12,0,0,0,1.77-.84,1.12,1.12,0,0,0,.08-1.24c-.16-.43-.48-.48-.87-.49s-.77,0-1.16-.08C214.58,33.09,212.28,33,210.11,34.5Zm2-10.17a3,3,0,0,1,.94-.14c1.09.25,1.16-.36,1.23-1.21a34.73,34.73,0,0,0,.52-4.08,2.4,2.4,0,0,0-.7-2,1.73,1.73,0,0,0,.05.51,8.09,8.09,0,0,1-.63,4c-.07.19-.14.43-.36.47-.41.08-.44.4-.49.7A5.56,5.56,0,0,1,212.15,24.33Zm9.57,16.93a2.21,2.21,0,0,1-1.14-1.4c-.05-.16-.06-.33.12-.4s.24.12.3.25a2.86,2.86,0,0,0,.4.75.54.54,0,0,0,.6.21c.27-.07.29-.27.32-.47a2.76,2.76,0,0,0,0-1.31c-.06-.22-.08-.57-.33-.55-.4,0-1,.06-1.16.32a5.21,5.21,0,0,0-.7,4.11C220.34,41.74,221.24,41.86,221.72,41.26Zm-7.49,1.2c-.08,0-.15,0-.17,0l-4.55,4.83a.42.42,0,0,0,0,.62c.22.25.37,0,.49-.16a31,31,0,0,0,4.22-5A.23.23,0,0,0,214.23,42.46Zm9.41,3.16a5.44,5.44,0,0,1,.11-2.28.33.33,0,0,0-.11-.41,7,7,0,0,1-1.26-1,.26.26,0,0,0-.41,0c-.32.58-.95.82-1.45,1.26a6.08,6.08,0,0,1,1,.34c.66.38.86.16.75-.52,0-.32-.06-.69.36-.67s.36.47.29.67C222.62,44,223.06,44.67,223.64,45.62Zm-.46,12.6a4.82,4.82,0,0,1,2.87.32c.28.11.55.21.74-.11s-.38-1.21-.64-1.29A2.69,2.69,0,0,0,223.18,58.22ZM212.77,21.44a4.57,4.57,0,0,0,.55-4.64C212.24,18.23,212.94,19.8,212.77,21.44ZM212,20.07c.13-1.41,0-2.86,1.26-3.92-1.68-.36-2.28.2-1.93,1.77C211.54,18.65,211.82,19.36,212,20.07Zm9.43,31.19a4.06,4.06,0,0,1,1.94.21c.27.1.45,0,.65-.14s.07-.16,0-.26c-.44-1.09-.9-1.23-1.83-.52C222,50.72,221.84,50.93,221.47,51.26ZM229,62.89A2.42,2.42,0,0,0,226.7,61c-.34-.06-.53.08-.59.33s.27.25.42.29A9.11,9.11,0,0,1,229,62.89Zm-4.72-26.12A4.15,4.15,0,0,0,226.13,33c-.83.27-.82.27-.67.91a1.79,1.79,0,0,1,0,.46A4.31,4.31,0,0,1,224.24,36.77Zm-1.39,17.29a7.75,7.75,0,0,1,2.72.58c-.7-.36-.62-1.19-1.14-1.4S223.44,53.64,222.85,54.06ZM221,47.23l1.85,1.37a.41.41,0,0,0,.51,0c.15-.12,0-.23-.06-.32A2.61,2.61,0,0,0,221,47.23Zm3.46,1.21c-.13-1.2-.27-1.35-1.36-1.4A12,12,0,0,1,224.43,48.44Zm-17,1a2.93,2.93,0,0,0,1.27-.6c.21-.13.3-.32.14-.52s-.3,0-.41.13C208.12,48.74,207.79,49.08,207.46,49.41ZM224.41,55a2.11,2.11,0,0,0-2-.18Zm-2.22-1.3.13.14,1-.84c.1-.08.33-.14.15-.33a.26.26,0,0,0-.41,0C222.74,53,222.47,53.36,222.19,53.7Zm.89-8.34c-.65-.54-.65-.54-1,0Zm1.07,6.51c.31.19.43.48.74.33a.29.29,0,0,0,.07-.41C224.73,51.46,224.5,51.72,224.15,51.87Z"/><path class="cls-4" d="M224.23,41.2c-.15-.39.17-1-.53-1.18a4.51,4.51,0,0,0,0,1.9c-1-.43-1.06-.61-.79-1.49a2.94,2.94,0,0,0-.15-2.12,1.45,1.45,0,0,1,.66,1c.06.22.18.42.4.41s.23-.29.28-.48c.61-.11.93.3.78,1h0c-.08,0-.21-.09-.25-.06s0,.21.06.3h0l-.27.58Z"/><path class="cls-5" d="M221.17,35a.93.93,0,0,1,.62-.52v.2c-.2.11-.32.38-.61.31Z"/><path class="cls-5" d="M224,38.92l-.06-.2Z"/><path class="cls-6" d="M231,74.36a18.45,18.45,0,0,1-.76,7.64,6.06,6.06,0,0,1-8,4,18.73,18.73,0,0,1-6.94-4.39,37.63,37.63,0,0,1-8.63-11.86,62.43,62.43,0,0,1-3.48-9.27,23.15,23.15,0,0,1-.25-10.54c.41-2.25.83-4.5,1.2-6.76.1-.59.26-.6.65-.26a13.3,13.3,0,0,1,3.47,4.17c.19.4.25.65-.15,1-.65.56-1.21,1.22-1.8,1.84-.15.17-.4.34-.25.6s.43.08.64,0a15.68,15.68,0,0,0,2.54-1.38,69.94,69.94,0,0,1,2.44,7.19,50.5,50.5,0,0,0,6.7,14.62,13.84,13.84,0,0,0,2.92,3.23c1.8,1.33,3.73,2.14,6,1.32a1.17,1.17,0,0,0,1.78-.59,3.11,3.11,0,0,1,1.07-1.18c.16.36-.42.49-.1.75a.63.63,0,0,0,.73,0Z"/><path class="cls-7" d="M230.12,67.49c.5,2.49-.46,4.6-1.87,6.5-.85,1.14-2.83,1.32-4.43.65a9.71,9.71,0,0,1-3.55-2.74,34.43,34.43,0,0,1-5.28-9c-1.79-4.09-2.87-8.42-4.45-12.58l-.15-.44c-.53-1.37-.53-1.37.5-2.36a42.51,42.51,0,0,0,3.53-4.17c.35-.44.48-.36.77,0a8.72,8.72,0,0,1,1.51,4.37c.31,2.72.29,5.46.43,8.19.17,3.28.34,6.56,1.86,9.58a7.13,7.13,0,0,0,2,2.56c1.56,1.19,3,.7,3.46-1.22.14-.66.42-.79,1-.82a7.16,7.16,0,0,1,3.57.94C229.25,67.54,229.71,67.48,230.12,67.49Z"/><path class="cls-4" d="M223,59.94c0,.16-.23.36.13.37v.17c-.13.24-.26.49-.41.73s-.32.38-.16.54a.82.82,0,0,0,.68.28l1.35-.17c-.07.46-.12.84-.2,1.22a.56.56,0,0,0,.28.58c.23.13.33-.17.46-.32s.14-.22.2-.33c.59-1,.6-1,1.69-.55a5.74,5.74,0,0,1,2.21,1.69l-.27.1a4.48,4.48,0,0,0-2.55-.59A8.79,8.79,0,0,0,223.68,65a1,1,0,0,0-.37.93,2,2,0,0,1,2-1,4.64,4.64,0,0,1,2.27.72,10.46,10.46,0,0,0-3.11,0,4.73,4.73,0,0,0-.81.25c-.32.13-.5.3,0,.46s.13.43.1.63c-.09.49-.31.9-.88.93a1.9,1.9,0,0,1-1.23-.43,6.73,6.73,0,0,1-2.16-2.92A22.15,22.15,0,0,1,218,56.69c-.22-3.32-.09-6.67-.67-10a8.41,8.41,0,0,0-1.81-4.18c-.23-.27-.17-.41,0-.66.45-.71,1.08-1.28,1.52-2A11,11,0,0,1,219,38.15c-.16,1.78-.2,3.43-.19,5.09v.08c0,.26-.62.27-.32.56a1.58,1.58,0,0,0,.95.2,5,5,0,0,1,2.05.17c.55.26.47.44.18.84-.48.66-1.27.88-1.85,1.4a1.42,1.42,0,0,0-.52,1.23c.69-.74,1.09-.09,1.55.2s1,.52,1.22.93c.24.57-.57.7-.87,1.08a4.14,4.14,0,0,0-.84,2.29c0,.33,0,.61.48.28s1,0,1.74-.2a6.72,6.72,0,0,0-1.5,2.86c-.12.59,0,.79.61.61a4.56,4.56,0,0,1,3.15.23,5,5,0,0,0-2.94,1.9c.21.34.41-.22.61,0-.2.4-.51.77-.39,1.3.29.11.47-.32.76-.18.07.21-.06.34-.16.49C222.34,60,222.71,59.91,223,59.94Z"/><path class="cls-8" d="M200.47,53.72c-.47-.9-.94-1.8-1.42-2.69a1.08,1.08,0,0,1-.09-.53,40.25,40.25,0,0,1,3.47-15c1-2.34,2.34-4.48,3.47-6.73.12-.24.35-.31.55-.43A59.92,59.92,0,0,0,211.62,25a2.06,2.06,0,0,1,1.56-.3A20.52,20.52,0,0,0,207.69,32c-.28.65-1,1.12-1.38,1.75a18,18,0,0,0-2.41,7.21c-.5,3.32-1.25,6.59-1.79,9.91-.2,1.25-.28,2.53-.41,3.79C201.17,54.48,201.1,53.71,200.47,53.72Z"/><path class="cls-9" d="M211.31,27.08c.4-.41,1.09-1.15,1.82-1.86s1.44-.48,1.82.46a4.93,4.93,0,0,1,.08,3c-.17.79-.43,1.55-.65,2.33,0,.19-.18.43.09.54a.34.34,0,0,0,.45-.31c.13-.95.87-1,1.58-1.17a14.06,14.06,0,0,1,4.33-.43c1.1.11,1.53.46,1.57,1.19a1.71,1.71,0,0,1-1.55,1.83,15.82,15.82,0,0,1-3.89.05c-.78-.05-1.55-.15-2.33-.21a8.08,8.08,0,0,0-4.82,1.31c-.38.22-.68.38-1.12.09a1.2,1.2,0,0,1-.58-1.18,5.81,5.81,0,0,1,.89-2.32A22,22,0,0,1,211.31,27.08Z"/><path class="cls-4" d="M207.46,32.86c-.07,1.31.71,1.67,1.58,2a37.84,37.84,0,0,0,6.71,1.75,3.67,3.67,0,0,0,3.22-.75c.12-.11.22-.37.49-.1s.27.39.08.59c-.59.61-1.17,1.24-1.81,1.8a35.21,35.21,0,0,0-3,2.89c-.33.36-.53.35-1,.1a15.68,15.68,0,0,0-6.68-1.68c-.65-.06-1.3-.13-2-.16-.27,0-.38-.07-.31-.36A15.67,15.67,0,0,1,207.46,32.86Z"/><path class="cls-8" d="M205,29.24A47.81,47.81,0,0,0,198.09,49c-.59-1-1.43-1.89-1.33-3.24a31.22,31.22,0,0,1,.81-5.94,38.11,38.11,0,0,1,3.21-7.17C201.73,30.78,203.56,30.34,205,29.24Z"/><path class="cls-7" d="M213.11,42.79c-1.18,1.25-2.36,2.49-3.53,3.75-.37.39-.58.41-.89-.1a10.56,10.56,0,0,0-4.1-4.38c-.4-.2-.18-.56-.15-.84.17-1.39.18-1.4,1.55-1.2a26.9,26.9,0,0,1,6.1,1.2c.27.11.53.22.78.35C213.78,42,213.77,42,213.11,42.79Z"/><path class="cls-9" d="M210.11,34.5c2.17-1.53,4.47-1.41,6.79-1.16.39,0,.78.07,1.16.08s.71.06.87.49a1.12,1.12,0,0,1-.08,1.24,2.12,2.12,0,0,1-1.77.84A29.85,29.85,0,0,1,210.11,34.5Z"/><path class="cls-8" d="M195.79,44.26a8.42,8.42,0,0,1,2-9.75,16,16,0,0,1,2.69-2.23,21.46,21.46,0,0,0-3.5,7.21,40.13,40.13,0,0,0-.94,4.74Z"/><path class="cls-4" d="M223.87,34.21a3.36,3.36,0,0,0-1.08,1.48,4.28,4.28,0,0,1,1.69-1.29c.33-.12.5-.06.4.35-.29,1.22-2.21,2.81-3.4,2.58-.15,0-.44.18-.43-.13s0-.78.38-1,.33.17.46.32.12.35.38.41a1.21,1.21,0,0,0-.23-1c-.28-.45-.65-.49-1-.08a2.29,2.29,0,0,0-.61,1.41,6.45,6.45,0,0,1-.89,2.31,12.77,12.77,0,0,1,.45-2.72,3.34,3.34,0,0,1,1.2-1.89h0c-.16.21-.26.42.15.27.65-.24,1.28-.54,1.91-.81.21-.09.39-.26.64-.23Z"/><path class="cls-6" d="M212.15,24.33a5.56,5.56,0,0,0,.56-1.7c0-.3.08-.62.49-.7.22,0,.29-.28.36-.47a8.09,8.09,0,0,0,.63-4,1.73,1.73,0,0,1-.05-.51,2.4,2.4,0,0,1,.7,2,34.73,34.73,0,0,1-.52,4.08c-.07.85-.14,1.46-1.23,1.21A3,3,0,0,0,212.15,24.33Z"/><path class="cls-4" d="M221.72,41.26c-.48.6-1.38.48-1.59,1.51a5.21,5.21,0,0,1,.7-4.11c.21-.26.76-.3,1.16-.32.25,0,.27.33.33.55a2.76,2.76,0,0,1,0,1.31c0,.2,0,.4-.32.47a.54.54,0,0,1-.6-.21,2.86,2.86,0,0,1-.4-.75c-.06-.13-.08-.35-.3-.25s-.17.24-.12.4A2.21,2.21,0,0,0,221.72,41.26Z"/><path class="cls-4" d="M214.23,42.46a.23.23,0,0,1,0,.32,31,31,0,0,1-4.22,5c-.12.12-.27.41-.49.16a.42.42,0,0,1,0-.62l4.55-4.83S214.15,42.47,214.23,42.46Z"/><path class="cls-4" d="M223.64,45.62c-.58-.95-1-1.67-.7-2.6.07-.2.06-.65-.29-.67s-.41.35-.36.67c.11.68-.09.9-.75.52a6.08,6.08,0,0,0-1-.34c.5-.44,1.13-.68,1.45-1.26a.26.26,0,0,1,.41,0,7,7,0,0,0,1.26,1,.33.33,0,0,1,.11.41A5.44,5.44,0,0,0,223.64,45.62Z"/><path class="cls-4" d="M223.18,58.22a2.69,2.69,0,0,1,3-1.08c.26.08.77,1.07.64,1.29s-.46.22-.74.11A4.82,4.82,0,0,0,223.18,58.22Z"/><path class="cls-6" d="M212.77,21.44c.17-1.64-.53-3.21.55-4.64A4.57,4.57,0,0,1,212.77,21.44Z"/><path class="cls-6" d="M212,20.07c-.22-.71-.5-1.42-.67-2.15-.35-1.57.25-2.13,1.93-1.77C212,17.21,212.17,18.66,212,20.07Z"/><path class="cls-4" d="M221.47,51.26c.37-.33.57-.54.79-.71.93-.71,1.39-.57,1.83.52,0,.1.1.2,0,.26s-.38.24-.65.14A4.06,4.06,0,0,0,221.47,51.26Z"/><path class="cls-4" d="M229,62.89a9.11,9.11,0,0,0-2.43-1.27c-.15,0-.49,0-.42-.29s.25-.39.59-.33A2.42,2.42,0,0,1,229,62.89Z"/><path class="cls-4" d="M224.24,36.77a4.31,4.31,0,0,0,1.2-2.38,1.79,1.79,0,0,0,0-.46c-.15-.64-.16-.64.67-.91A4.15,4.15,0,0,1,224.24,36.77Z"/><path class="cls-4" d="M222.85,54.06c.59-.42.92-1.1,1.58-.82s.44,1,1.14,1.4A7.75,7.75,0,0,0,222.85,54.06Z"/><path class="cls-4" d="M223,59.94c-.25,0-.62,0-.29-.4.1-.15.23-.28.16-.49.72-.56,1.43-.14,2.17,0A6.54,6.54,0,0,0,223,59.94Z"/><path class="cls-8" d="M200.47,53.72c.63,0,.7.76,1.23.89a4.17,4.17,0,0,1,0,1.86h0A24,24,0,0,1,200.47,53.72Z"/><path class="cls-4" d="M221,47.23a2.61,2.61,0,0,1,2.3,1c.09.09.21.2.06.32a.41.41,0,0,1-.51,0Z"/><path class="cls-4" d="M230.12,67.49c-.41,0-.87.05-1.07-.47.57-.42.36-.87,0-1.34.6-.06.87.19.91.75C230,66.78,230.07,67.14,230.12,67.49Z"/><path class="cls-4" d="M224.43,48.44a12,12,0,0,0-1.36-1.4C224.16,47.09,224.3,47.24,224.43,48.44Z"/><path class="cls-4" d="M207.46,49.41c.33-.33.66-.67,1-1,.11-.09.2-.39.41-.13s.07.39-.14.52A2.93,2.93,0,0,1,207.46,49.41Z"/><path class="cls-4" d="M224.41,55l-2-.18A2.11,2.11,0,0,1,224.41,55Z"/><path class="cls-4" d="M222.19,53.7c.28-.34.55-.69.84-1a.26.26,0,0,1,.41,0c.18.19-.05.25-.15.33l-1,.84Z"/><path class="cls-5" d="M228.92,64.25l.27-.1a3.7,3.7,0,0,0,.74.79.25.25,0,0,1,0,.41c-.16.12-.3,0-.33-.19A1.84,1.84,0,0,0,228.92,64.25Z"/><path class="cls-5" d="M223.08,45.36l-1,0C222.43,44.82,222.43,44.82,223.08,45.36Z"/><path class="cls-4" d="M224.15,51.87c.35-.15.58-.41.81-.08a.29.29,0,0,1-.07.41C224.58,52.35,224.46,52.06,224.15,51.87Z"/><path class="cls-5" d="M223.61,61.34a2.2,2.2,0,0,1,1.43-.42,1.41,1.41,0,0,1-1.43.4Z"/><path class="cls-4" d="M224.05,60.11c.37-.47.92-.3,1.4-.35-.42.3-.94.21-1.4.33Z"/><path class="cls-5" d="M223.09,60.48v-.17c.14-.06.26-.21.42,0v0Z"/><path class="cls-5" d="M223.87,34.22l.2-.18-.2.17Z"/><path class="cls-5" d="M196,44.23c0,.13.12.32-.1.34s-.1-.19-.11-.31Z"/><path class="cls-5" d="M223.51,60.27c.07-.13.15-.22.32-.17v0a.34.34,0,0,1-.31.17Z"/><path class="cls-5" d="M223.61,61.32l-.15.14,0-.06.18-.06Z"/><path class="cls-5" d="M224.05,60.09c-.08,0-.15.08-.23,0v0c.07-.06.15-.15.22,0Z"/><path class="cls-10" d="M224.9,40.31l-.19.24c-.07-.09-.19-.19-.06-.3S224.82,40.29,224.9,40.31Z"/><path class="cls-5" d="M225,41.41l-.23,0Z"/><path class="cls-1" d="M30.41,65.53a9.75,9.75,0,0,1-6.31-2.64c-2.94-2.51-4.75-5.72-6.49-8.83L17.55,54c-.23-.41-.43-.81-.62-1.2a10.59,10.59,0,0,0-1.22-2,5.37,5.37,0,0,1-1.46-3.86A7.72,7.72,0,0,0,13.76,43a.65.65,0,0,1-.09-.11,2.92,2.92,0,0,1-.62-2.18,1.3,1.3,0,0,0,0-.48,2.31,2.31,0,0,1-1-.45,2.17,2.17,0,0,1-.76-2.28,1.87,1.87,0,0,1,.07-.22,2.83,2.83,0,0,1,.14-.35c0-.1-.1-.31-.1-.31a4.94,4.94,0,0,1-1-2,2.57,2.57,0,0,0-.11-.36,7.27,7.27,0,0,0-.36.65A8.78,8.78,0,0,1,9,36.26l-.22.3a2.42,2.42,0,0,1-2,1.1,2.34,2.34,0,0,1-1.31-.42,2.19,2.19,0,0,1-.91-2.38,3,3,0,0,1,.24-.6,11.13,11.13,0,0,1,1-1.73l.39-.59a10.28,10.28,0,0,0,1-1.94l-.63-.56a2.91,2.91,0,0,1-1-2.05,9.57,9.57,0,0,1-2.06-.66A5.8,5.8,0,0,1,1,24.5a2.55,2.55,0,0,1-.38-2A2.29,2.29,0,0,1,2.5,20.85,3.22,3.22,0,0,1,2,18.16a3.83,3.83,0,0,1,1-1.7,11.34,11.34,0,0,1,2.36-1.8l.58-.32a4.61,4.61,0,0,1-1.1-3.13l-.31-.28A23.3,23.3,0,0,1,1.89,8.29,5.52,5.52,0,0,1,.5,4.57,4.47,4.47,0,0,1,.63,3.7,4.31,4.31,0,0,1,3.35.65,3.65,3.65,0,0,1,4.4.5,4,4,0,0,1,7.63,2.13a4.63,4.63,0,0,1,.82,1.76A6,6,0,0,0,10.28,7c1.3-.06,2.62-.18,3.9-.3l1.93-.18c1.74-.16,3.55-.32,5.37-.32a24.4,24.4,0,0,1,3.75.27,10.24,10.24,0,0,1,7.36,4.36,16.63,16.63,0,0,1,2.33,6.3c.2,1.08.36,2.18.51,3.24s.35,2.39.58,3.56a85.92,85.92,0,0,0,2.3,8.35L39,34.41a39.19,39.19,0,0,1,1.91,15.38,39.52,39.52,0,0,1-.94,5.94,19.41,19.41,0,0,1-2,5c-1.75,3.06-4.2,4.66-7.26,4.77Z"/><path class="cls-2" d="M4.4,1A3.49,3.49,0,0,1,7.22,2.42,4.19,4.19,0,0,1,8,4,6.53,6.53,0,0,0,10.09,7.5c1.37-.06,2.78-.19,4.13-.32l1.24-.11.7-.06c1.74-.16,3.52-.32,5.32-.32A22.75,22.75,0,0,1,25.15,7a9.72,9.72,0,0,1,7,4.13,16.29,16.29,0,0,1,2.26,6.12c.2,1.08.36,2.17.51,3.22s.35,2.41.58,3.59a86.15,86.15,0,0,0,2.31,8.4l.66,2.14a38.38,38.38,0,0,1,1.89,15.18,39.6,39.6,0,0,1-.92,5.87h0a19,19,0,0,1-1.93,4.89c-1.67,2.9-4,4.42-6.84,4.52h-.28a9.23,9.23,0,0,1-6-2.52c-2.88-2.45-4.66-5.62-6.39-8.69l-.05-.1c-.23-.39-.42-.79-.62-1.17a10.19,10.19,0,0,0-1.28-2.14,4.9,4.9,0,0,1-1.34-3.51,8,8,0,0,0-.54-4.07l-.13-.2a2.4,2.4,0,0,1-.53-1.81,2.16,2.16,0,0,0-.11-1,1.81,1.81,0,0,1-1.07-.38,1.67,1.67,0,0,1-.58-1.77,1.33,1.33,0,0,1,.05-.19v0a3,3,0,0,1,.2-.45c-.07-.17-.11-.33-.15-.45a.78.78,0,0,0-.05-.14,4.49,4.49,0,0,1-1-1.92A3.53,3.53,0,0,0,10.7,34a3,3,0,0,1-.15-.49,1.4,1.4,0,0,1-.26-.16l-.15.24a12.9,12.9,0,0,0-.67,1.14A8,8,0,0,1,8.64,36l-.23.31a1.93,1.93,0,0,1-1.56.89,1.88,1.88,0,0,1-1-.33A1.69,1.69,0,0,1,5.12,35a2.52,2.52,0,0,1,.19-.5l0,0a10,10,0,0,1,1-1.66l.41-.6a10.72,10.72,0,0,0,1.2-2.52l-.15.08L7,29.07A2.24,2.24,0,0,1,6.19,27a7.74,7.74,0,0,1-2.39-.69,5.13,5.13,0,0,1-2.36-2,2,2,0,0,1-.32-1.58A1.83,1.83,0,0,1,2.84,21.3l.66-.09a2.88,2.88,0,0,1-1-2.93,3.32,3.32,0,0,1,.86-1.47,10.31,10.31,0,0,1,2.25-1.72q.55-.31,1.11-.57l-.1-.11A4.37,4.37,0,0,1,5.34,11l-.5-.45A23.24,23.24,0,0,1,2.28,8,5,5,0,0,1,1,4.59a4.2,4.2,0,0,1,.11-.77A3.79,3.79,0,0,1,3.5,1.13,3,3,0,0,1,4.4,1M7.53,22.22l.43,0-.06-.05L7.58,22l0,.18m.52-.07h0M19.73,41.76,20,40.7a.84.84,0,0,0-.27,0v.15h0l0,.07v.88m-.11.42h0v.11l0-.11M4.4,0A4.06,4.06,0,0,0,3.2.18,4.75,4.75,0,0,0,.14,3.58a4.63,4.63,0,0,0-.14,1,6.11,6.11,0,0,0,1.5,4,23.54,23.54,0,0,0,2.67,2.7l.13.12a4.81,4.81,0,0,0,.87,2.75l-.09.06a11.45,11.45,0,0,0-2.47,1.88A4.3,4.3,0,0,0,1.5,18a3.7,3.7,0,0,0,.25,2.52A2.69,2.69,0,0,0,.15,22.4a3,3,0,0,0,.44,2.36,6.09,6.09,0,0,0,2.8,2.42,9.89,9.89,0,0,0,1.8.62,3.46,3.46,0,0,0,1.13,2l.37.33a10.68,10.68,0,0,1-.82,1.54c-.12.18-.24.37-.38.56A12,12,0,0,0,4.42,34a4,4,0,0,0-.27.7,2.71,2.71,0,0,0,1.11,2.92,2.87,2.87,0,0,0,1.59.5,2.92,2.92,0,0,0,2.37-1.31l.21-.28a10.17,10.17,0,0,0,.73-1.06A4.76,4.76,0,0,0,11,36.9v0l-.07.21a2.76,2.76,0,0,0-.08.27,2.69,2.69,0,0,0,.93,2.8,2.9,2.9,0,0,0,.81.44h0a3.4,3.4,0,0,0,.7,2.54l.07.1a7.37,7.37,0,0,1,.43,3.53,5.92,5.92,0,0,0,1.57,4.22,10.56,10.56,0,0,1,1.15,2c.2.39.4.8.63,1.21l.06.1c1.77,3.14,3.6,6.4,6.61,9A10.13,10.13,0,0,0,30.41,66h.31c3.25-.11,5.83-1.8,7.68-5a20.34,20.34,0,0,0,2-5.14,42.58,42.58,0,0,0,1-6,39.57,39.57,0,0,0-1.93-15.57c-.22-.72-.44-1.44-.67-2.15a85.64,85.64,0,0,1-2.28-8.3c-.23-1.15-.4-2.36-.57-3.53s-.32-2.17-.52-3.26A17.16,17.16,0,0,0,33,10.54,10.68,10.68,0,0,0,25.31,6a24.05,24.05,0,0,0-3.82-.28c-1.85,0-3.67.16-5.42.32l-.7.07-1.24.11c-1.2.11-2.44.23-3.65.29A5.32,5.32,0,0,1,8.94,3.79,5.12,5.12,0,0,0,8,1.85,4.49,4.49,0,0,0,4.4,0Z"/><path class="cls-1" d="M17.53,42.55a2.17,2.17,0,0,1,0-.88,2,2,0,0,1,2-1.52l2.19.06-.21,2.09a1.36,1.36,0,0,1-.06.29A2,2,0,0,1,20,44.09l-2.06.49Z"/><path class="cls-2" d="M19.57,40.65h.07l1.56,0L21,42.25a1.7,1.7,0,0,1,0,.22,1.55,1.55,0,0,1-1.17,1.14h0L18.29,44,18,42.46a1.46,1.46,0,0,1,0-.66,1.52,1.52,0,0,1,1.52-1.15m0-1a2.52,2.52,0,0,0-2.49,1.9,2.61,2.61,0,0,0,0,1.08l.26,1.51.19,1,1-.25L20,44.59a2.55,2.55,0,0,0,2-1.87,2.38,2.38,0,0,0,.06-.37l.16-1.56.11-1.07-1.08,0-1.56,0Z"/><path class="cls-1" d="M19,42.3l0-.23.16-.27.15-.18.32,0h.55v.55a.62.62,0,0,1-.49.54l-.51.12Z"/><path class="cls-2" d="M19.55,42.1h.05a.11.11,0,0,1-.1.1h-.05c0-.1,0-.11.1-.11m0-1a1.09,1.09,0,0,0-.85.38,1.11,1.11,0,0,0-.24.9l.18,1,1-.22h0l.05,0a1.1,1.1,0,0,0,.87-1l.11-1.08-1.08,0Z"/><path class="cls-3" d="M7.84,22c.23.07.42.18,0,.28-.62.18-1.24.3-1.87.45-.2.05-.42,0-.59.18l-.25,0,.24,0A3.11,3.11,0,0,1,7,23.4a4.06,4.06,0,0,0-2,0c-.31.1-.4.23-.11.48.89.75,3.18.88,3.94,0,.1-.1.42-.1.25-.32s-.45-.57-.82-.52-.14.31-.16.49.1.33-.06.52a1.17,1.17,0,0,1-.37-.87c0-.48.22-.71.72-.62a2.16,2.16,0,0,1,1.22.72,6.06,6.06,0,0,0,1.92,1.23,11.24,11.24,0,0,0-1.81-1.77A3.07,3.07,0,0,0,7.85,22,.89.89,0,0,0,7.1,22c-.08,0-.21-.06-.23-.12s.1-.18.22-.2a2.81,2.81,0,0,1,1.29,0c.34.13.47-.07.63-.29s-.14-.29-.22-.42-.3-.34-.36-.53c-.13-.43-.29-.41-.64-.19a2.6,2.6,0,0,1-3.27-.07,1.47,1.47,0,0,1-.15-2.37,8.7,8.7,0,0,1,1.94-1.47c.92-.54,1.92-.88,2.87-1.33a18.46,18.46,0,0,1-1.39-1.42c-.59-.75-1.25-1.52-1-2.59a.73.73,0,0,0-.28-.85A32.5,32.5,0,0,1,3.4,7.07a3.58,3.58,0,0,1-.95-2.43A2.43,2.43,0,0,1,3.92,2.51,2.06,2.06,0,0,1,6,3.25a2.82,2.82,0,0,1,.5,1,8,8,0,0,0,2.6,4.31A1.07,1.07,0,0,0,10,9c1.88-.07,3.74-.27,5.6-.44a37.92,37.92,0,0,1,9.34-.12,8.38,8.38,0,0,1,6,3.51,14.62,14.62,0,0,1,2,5.58c.42,2.26.64,4.56,1.1,6.82.73,3.64,1.92,7.14,3,10.68A37.57,37.57,0,0,1,38.94,49.6c-.34,3.54-.86,7-2.66,10.18-1.25,2.17-3,3.7-5.65,3.8a7.57,7.57,0,0,1-5.26-2.17C22.65,59.1,21,56.05,19.25,53a21.9,21.9,0,0,0-2.05-3.53,3.47,3.47,0,0,1-1-2.47,9.66,9.66,0,0,0-.66-4.78c-.18-.4-.62-.78-.56-1.17a4.38,4.38,0,0,0-.45-2.5c-.17-.42-.29-1-.86-.31a.28.28,0,0,1-.39,0c-.15-.12-.09-.27,0-.4a1.09,1.09,0,0,1,.44-.55c.16-.13.25-.3.08-.41-.53-.37-.39-1.08-.8-1.48-.59-.58-.62-1.38-.92-2.07-.19-.43,0-1.11-.8-1.19-.11,0-.14-.18-.09-.31.39-1-.39-1.4-.92-2.15-.21,1.79-1.37,2.94-2.05,4.32a9.71,9.71,0,0,1-.93,1.37c-.14.2-.33.4-.6.22s-.07-.4,0-.59A15.88,15.88,0,0,1,7.94,33a10.67,10.67,0,0,0,1.54-3.6A1.56,1.56,0,0,0,9,28.29c-.1-.37-.66-.64-.26-1.16a3.91,3.91,0,0,1,1,1.42c.48-.84.46-1-.23-1.54a2.67,2.67,0,0,1-1-1.66,1.33,1.33,0,0,0,.07,1.14c.08.2.1.4-.07.52s-.33-.09-.47-.21l-.11-.32-.07-.18c0-.54-.1-.82-.77-.77A5.57,5.57,0,0,1,4.39,25a3.73,3.73,0,0,1-1.72-1.47c-.28-.46-.21-.67.36-.74,1.4-.19,2.79-.42,4.19-.63C7.43,22.08,7.66,22.21,7.84,22ZM19.45,42.23c-.54-.14-.84.28-1.23.51.47,0,.81-.36,1.22-.53.07,0,.16,0,.16-.12a.33.33,0,0,0,.33-.05l.43-.06.71.32c.18.07.45.11.42.32a.77.77,0,0,1-.35.57l-1.1.62c.3.3.55.56.81.79a.51.51,0,0,1,.11.59c-.09.22-.34.05-.51,0a2,2,0,0,1-.34-.13c-1-.45-1-.45-1.55.52A5.23,5.23,0,0,0,17.85,48a3.28,3.28,0,0,1-.12,1,.24.24,0,0,0,.21.32c.19,0,.2-.21.15-.33a1.71,1.71,0,0,1,0-1.05,4.11,4.11,0,0,1,1.57-1.83,8,8,0,0,1,2.7-.51c.26,0,.51.12.79.48a1.88,1.88,0,0,0-2.05.39,4.27,4.27,0,0,0-1.29,1.77,9.42,9.42,0,0,1,2.3-1.7,3.82,3.82,0,0,1,.74-.26c.31-.08.53-.06.24.35s.14.39.28.52a.87.87,0,0,0,1.16.21,1.78,1.78,0,0,0,.67-1,6,6,0,0,0,0-3.34,20.34,20.34,0,0,0-3.15-6.67,83,83,0,0,1-4.95-7.77,7.76,7.76,0,0,1-.95-4.09c0-.32-.09-.39-.35-.49-.72-.28-1.5-.36-2.21-.64a10,10,0,0,0-2.39-.26c1.09,1.23,2,2.44,2.93,3.68l0,.06c.14.18.6-.14.54.24s-.36.48-.6.67A4.49,4.49,0,0,0,12.71,29c-.27.49-.11.58.32.72a9.66,9.66,0,0,0,2.15,0,1.35,1.35,0,0,1,1.06.64c-.92-.18-.86.52-1,1s-.5,1-.4,1.36c.13.55.81.2,1.23.32a3.78,3.78,0,0,1,1.89,1.25c.19.22.3.46-.21.47s-.75.58-1.4.8A6.34,6.34,0,0,1,19,36.9c.41.38.42.59-.12.79a4.19,4.19,0,0,0-2.22,1.89,4.68,4.68,0,0,1,3.22-.2c0,.37-.41.07-.43.36.36.19.8.3,1,.75-.17.24-.53,0-.67.29-.85,0-1.14.68-1.6,1.19a6.33,6.33,0,0,1,2-.46c.11.09.36.14.1.35-.13,0-.31,0-.33.19a.24.24,0,0,0-.33.05C19.52,42.1,19.42,42.07,19.45,42.23Zm1.18.69v-.07l-.17,0a2.12,2.12,0,0,0-1.29.47,1.27,1.27,0,0,0,1.28-.48ZM33.46,24.58,33,21.81a1.05,1.05,0,0,0-.22-.45A37,37,0,0,0,22,12.1c-2-1.2-4.18-2-6.26-3.11a1,1,0,0,0-.63,0,53.94,53.94,0,0,1-5.68.34A2,2,0,0,0,8.12,10a18.83,18.83,0,0,1,8.07,2.41,14.31,14.31,0,0,0,2,.54,16.65,16.65,0,0,1,5.74,4c2.18,2.2,4.53,4.22,6.74,6.38.84.82,1.6,1.73,2.39,2.6a3.84,3.84,0,0,0,1,1.36c-.1,0,0,.11,0,.18h.06a.11.11,0,0,0,0-.17A22.44,22.44,0,0,0,33.46,24.58ZM25,8.83a14.45,14.45,0,0,0-3.22-.19,20,20,0,0,1,6.55,3.44,37.5,37.5,0,0,1,3.29,3c.06.1.09.3.26.2s0-.2-.09-.29A7.76,7.76,0,0,0,25,8.83ZM18.78,49.11a.66.66,0,0,0-.27,1c.17.28.32.58.47.88a7.34,7.34,0,0,0,4.95,3.79c1.26.39,2.82-.56,3.64-1.93a8.88,8.88,0,0,0,1.14-4,31.72,31.72,0,0,0-1-9.55c-.91-4-2.48-7.82-3.58-11.77,0-.14-.09-.27-.13-.41-.35-1.31-.35-1.31-1.66-1.48a37.3,37.3,0,0,1-4.91-1.17c-.5-.13-.55,0-.55.45a8,8,0,0,0,1.27,4.07c1.26,2.19,2.77,4.21,4.16,6.32,1.67,2.52,3.34,5.06,3.87,8.13a6.61,6.61,0,0,1-.09,3c-.51,1.73-1.88,2.18-3.24,1a.81.81,0,0,0-1.21,0,6.56,6.56,0,0,0-2.14,2.65C18.87,50.1,18.78,49.65,18.78,49.11Zm1.68,4.47a10.31,10.31,0,0,0,1.65,3,17,17,0,0,0,4.74,5.26A5.58,5.58,0,0,0,35,60.43a17.24,17.24,0,0,0,2.75-7.06,34.81,34.81,0,0,0-.08-13.53,57.64,57.64,0,0,0-2.49-8.79,21.36,21.36,0,0,0-5.58-8C28,21.64,26.46,20.2,25,18.73c-.39-.39-.52-.31-.62.16a12.22,12.22,0,0,0-.29,5c.07.39.17.62.65.65.79.07,1.57.25,2.35.39.2,0,.49,0,.51.31s-.27.29-.47.35a13.54,13.54,0,0,1-2.64.36,65.11,65.11,0,0,0,2.13,6.69,46.28,46.28,0,0,1,3,14.52,12.85,12.85,0,0,1-.4,4c-.61,2-1.59,3.63-3.74,4.26C23.53,55.74,22,54.87,20.46,53.58Zm-12-43.23c-.9-.12-1.34.42-1.11,1.33A4.5,4.5,0,0,0,8.94,14c.56.49,1.17.91,1.76,1.37.14.11.37.22.23.45a.32.32,0,0,1-.51,0c-.61-.63-1.2-.28-1.81,0a13.25,13.25,0,0,0-3.46,2c-.75.69-.87,1.19-.5,1.74a1.55,1.55,0,0,0,2.14.52A14.74,14.74,0,0,0,9.72,18c.54-.47,1.07-1,1.61-1.44a7.51,7.51,0,0,1,4.29-1.66c.41,0,.72-.09.88-.55a1.08,1.08,0,0,0-.21-1.19,5.31,5.31,0,0,0-1.93-1.23,19.65,19.65,0,0,0-3.52-1.2C10.32,10.65,9.4,10.47,8.47,10.35Zm8.31,4.91a34.43,34.43,0,0,1-4,5,3.35,3.35,0,0,1-2.8,1.2c-.15,0-.37-.15-.41.2s0,.43.25.48c.78.13,1.56.28,2.34.35a32.07,32.07,0,0,1,3.78.51c.44.09.59,0,.77-.45a14.5,14.5,0,0,1,4-4.9c.45-.4.89-.81,1.36-1.19.19-.15.24-.25,0-.43a14.51,14.51,0,0,0-5.26-3.09C17.63,13.85,17.24,14.55,16.78,15.26Zm15.86,4.5c-.13-1.09,0-2.19-.79-3.14a28.89,28.89,0,0,0-3.85-4,35.27,35.27,0,0,0-6.31-3.56c-1.72-.85-3.32-.18-5-.21A44.16,44.16,0,0,1,32.64,19.76Zm-9.87,4.47c.49.1.65,0,.61-.56A9.83,9.83,0,0,1,24,18.18c.19-.38-.17-.52-.35-.71-.88-.94-.9-.94-1.8,0A24.71,24.71,0,0,0,18,21.66q-.21.35-.39.69c-.42.83-.42.83.5,1ZM10.11,18.44l-.82.7c-.28.21-.49.43-.38.84s.28.76.74.87a2,2,0,0,0,1.77-.34,27.91,27.91,0,0,0,4.37-4.92C13.34,15.64,11.7,17,10.11,18.44ZM7.36,8.2c-.2-.2-.4-.42-.75-.26-.18.09-.36-.05-.53-.15A7.42,7.42,0,0,1,3.42,5.14a2,2,0,0,0-.25-.41,2.22,2.22,0,0,0,.57,1.86A29.47,29.47,0,0,0,6.36,9.33c.51.6.9,1,1.57.23a3,3,0,0,1,.77-.41A5.26,5.26,0,0,1,7.36,8.2Zm5.51,19a4.79,4.79,0,0,0-2.77-2.67c-.29-.07-.72.19-1,.39s0,.4,0,.6a2.65,2.65,0,0,0,.72,1c.13.13.25.27.49.18a.5.5,0,0,0,.33-.49,2.54,2.54,0,0,0-.11-.78c0-.13-.13-.3.09-.35s.25.09.31.23A2.09,2.09,0,0,1,10.87,27C11.55,27.15,12.15,26.56,12.87,27.21ZM17.26,24a29,29,0,0,0,5.87,1.4c.16,0,.43.16.45-.15a.38.38,0,0,0-.34-.46l-6-1.1s-.08,0-.15.08A.21.21,0,0,0,17.26,24Zm-6.34,5c-.16-.12-.4-.46-.15-.66s.49,0,.63.3c.3.57.56.62.85,0a5.11,5.11,0,0,1,.57-.82,5.21,5.21,0,0,1-1.77-.13.23.23,0,0,0-.33.18,6.06,6.06,0,0,1-.37,1.45.31.31,0,0,0,.14.37,5.14,5.14,0,0,1,1.34,1.64C11.74,30.23,11.67,29.45,10.92,28.94Zm5.34,12.24a1.7,1.7,0,0,0,.23,1.31c.32.13.47-.09.62-.33a4.41,4.41,0,0,1,1.95-1.81A2.48,2.48,0,0,0,16.26,41.18ZM3.71,4.2a4.21,4.21,0,0,0,3,3.14C5.64,6.22,5.3,4.67,3.71,4.2ZM5.77,4C5.18,2.61,4.42,2.52,3.38,3.7,4.91,3.78,5.59,5,6.45,5.93,6.23,5.27,6.05,4.6,5.77,4Zm9.78,30.2c-1.08,0-1.35.33-1.08,1.38,0,.09,0,.2.16.18s.42,0,.56-.25a3.79,3.79,0,0,1,1.33-1.22C16.07,34.21,15.81,34.16,15.55,34.16Zm2.88,10.55c.1-.11.37-.26.16-.44a.41.41,0,0,0-.62.07A2.21,2.21,0,0,0,17.33,47,8.24,8.24,0,0,1,18.43,44.71ZM4.35,23.89a1.19,1.19,0,0,1-.27-.33c-.24-.56-.24-.56-1-.31A3.81,3.81,0,0,0,6.53,25,3.91,3.91,0,0,1,4.35,23.89ZM15.41,37.34c-.27.44.24,1-.08,1.66A7.1,7.1,0,0,1,17,37.08C16.36,37.09,15.75,36.77,15.41,37.34ZM13.54,33c0,.11,0,.26.13.27a.36.36,0,0,0,.39-.26c.22-.67.42-1.35.63-2A2.39,2.39,0,0,0,13.54,33ZM13,32c-.78.62-.81.81-.24,1.77A9.43,9.43,0,0,1,13,32Zm11.6-7c-.13,0-.37-.18-.38.12s.16.33.39.32a2.73,2.73,0,0,0,1.27-.26C25.48,25.14,25.06,25.07,24.63,25ZM17.81,37.38c-.6.1-1,.46-1.42,1.26Zm-1.67-1.22a.24.24,0,0,0-.31.21c0,.24.18.16.3.17l1.17.09,0-.18Zm-3.28-5.93c-.57-.23-.57-.23-.76.52Zm1.36,6.33c0,.11.1.29.28.26s.24-.35.37-.65C14.53,36.25,14.21,36.18,14.22,36.56Z"/><path class="cls-4" d="M9,28.29c-.1-.37-.66-.64-.26-1.16a3.91,3.91,0,0,1,1,1.42c.48-.84.46-1-.23-1.54a2.67,2.67,0,0,1-1-1.66,1.33,1.33,0,0,0,.07,1.14c.08.2.1.4-.07.52s-.33-.09-.47-.21c-.51.26-.52.74,0,1.2H8c0-.06.11-.18.16-.18s.12.15.11.26h0l.52.28Z"/><path class="cls-5" d="M7.85,22A.89.89,0,0,0,7.1,22l.12.15c.21,0,.44.1.62-.11Z"/><path class="cls-5" d="M7.88,26.48l-.07-.18Z"/><path class="cls-6" d="M22.11,56.61a17,17,0,0,0,4.74,5.26A5.58,5.58,0,0,0,35,60.43a17.24,17.24,0,0,0,2.75-7.06,34.81,34.81,0,0,0-.08-13.53,57.64,57.64,0,0,0-2.49-8.79,21.36,21.36,0,0,0-5.58-8C28,21.64,26.46,20.2,25,18.73c-.39-.39-.52-.31-.62.16a12.22,12.22,0,0,0-.29,5c.07.39.17.62.65.65.79.07,1.57.25,2.35.39.2,0,.49,0,.51.31s-.27.29-.47.35a13.54,13.54,0,0,1-2.64.36,65.11,65.11,0,0,0,2.13,6.69,46.28,46.28,0,0,1,3,14.52,12.85,12.85,0,0,1-.4,4c-.61,2-1.59,3.63-3.74,4.26a1.09,1.09,0,0,1-1.64.54,2.84,2.84,0,0,0-1.43-.3c.07.36.57.14.48.51a.59.59,0,0,1-.54.4Z"/><path class="cls-7" d="M19,51a7.34,7.34,0,0,0,4.95,3.79c1.26.39,2.82-.56,3.64-1.93a8.88,8.88,0,0,0,1.14-4,31.72,31.72,0,0,0-1-9.55c-.91-4-2.48-7.82-3.58-11.77,0-.14-.09-.27-.13-.41-.35-1.31-.35-1.31-1.66-1.48a37.3,37.3,0,0,1-4.91-1.17c-.5-.13-.55,0-.55.45a8,8,0,0,0,1.27,4.07c1.26,2.19,2.77,4.21,4.16,6.32,1.67,2.52,3.34,5.06,3.87,8.13a6.61,6.61,0,0,1-.09,3c-.51,1.73-1.88,2.18-3.24,1a.81.81,0,0,0-1.21,0,6.56,6.56,0,0,0-2.14,2.65C19.65,50.6,19.28,50.8,19,51Z"/><path class="cls-4" d="M20.17,41.51c.11.09.36.14.1.35l.09.12.71.32c.18.07.45.11.42.32a.77.77,0,0,1-.35.57l-1.1.62c.3.3.55.56.81.79a.51.51,0,0,1,.11.59c-.09.22-.34.05-.51,0a2,2,0,0,1-.34-.13c-1-.45-1-.45-1.55.52A5.23,5.23,0,0,0,17.85,48L18.1,48a4.11,4.11,0,0,1,1.57-1.83,8,8,0,0,1,2.7-.51c.26,0,.51.12.79.48a1.88,1.88,0,0,0-2.05.39,4.27,4.27,0,0,0-1.29,1.77,9.42,9.42,0,0,1,2.3-1.7,3.82,3.82,0,0,1,.74-.26c.31-.08.53-.06.24.35s.14.39.28.52a.87.87,0,0,0,1.16.21,1.78,1.78,0,0,0,.67-1,6,6,0,0,0,0-3.34,20.34,20.34,0,0,0-3.15-6.67,83,83,0,0,1-4.95-7.77,7.76,7.76,0,0,1-.95-4.09c0-.32-.09-.39-.35-.49-.72-.28-1.5-.36-2.21-.64a10,10,0,0,0-2.39-.26c1.09,1.23,2,2.44,2.93,3.68l0,.06c.14.18.6-.14.54.24s-.36.48-.6.67A4.49,4.49,0,0,0,12.71,29c-.27.49-.11.58.32.72a9.66,9.66,0,0,0,2.15,0,1.35,1.35,0,0,1,1.06.64c-.92-.18-.86.52-1,1s-.5,1-.4,1.36c.13.55.81.2,1.23.32a3.78,3.78,0,0,1,1.89,1.25c.19.22.3.46-.21.47s-.75.58-1.4.8A6.34,6.34,0,0,1,19,36.9c.41.38.42.59-.12.79a4.19,4.19,0,0,0-2.22,1.89,4.68,4.68,0,0,1,3.22-.2c0,.37-.41.07-.43.36.36.19.8.3,1,.75-.17.24-.53,0-.67.29.06.19.23.22.39.27C20.65,41.2,20.34,41.35,20.17,41.51Z"/><path class="cls-8" d="M33.46,24.58,33,21.81a1.05,1.05,0,0,0-.22-.45A37,37,0,0,0,22,12.1c-2-1.2-4.18-2-6.26-3.11a1,1,0,0,0-.63,0,53.94,53.94,0,0,1-5.68.34A2,2,0,0,0,8.12,10a18.83,18.83,0,0,1,8.07,2.41,14.31,14.31,0,0,0,2,.54,16.65,16.65,0,0,1,5.74,4c2.18,2.2,4.53,4.22,6.74,6.38.84.82,1.6,1.73,2.39,2.6C33.36,25.53,33,24.92,33.46,24.58Z"/><path class="cls-9" d="M10.84,10.73c-.52-.08-1.44-.26-2.37-.38s-1.34.42-1.11,1.33A4.5,4.5,0,0,0,8.94,14c.56.49,1.17.91,1.76,1.37.14.11.37.22.23.45a.32.32,0,0,1-.51,0c-.61-.63-1.2-.28-1.81,0a13.25,13.25,0,0,0-3.46,2c-.75.69-.87,1.19-.5,1.74a1.55,1.55,0,0,0,2.14.52A14.74,14.74,0,0,0,9.72,18c.54-.47,1.07-1,1.61-1.44a7.51,7.51,0,0,1,4.29-1.66c.41,0,.72-.09.88-.55a1.08,1.08,0,0,0-.21-1.19,5.31,5.31,0,0,0-1.93-1.23A19.65,19.65,0,0,0,10.84,10.73Z"/><path class="cls-4" d="M16.86,12.92c.77.93.38,1.63-.08,2.34a34.43,34.43,0,0,1-4,5,3.35,3.35,0,0,1-2.8,1.2c-.15,0-.37-.15-.41.2s0,.43.25.48c.78.13,1.56.28,2.34.35a32.07,32.07,0,0,1,3.78.51c.44.09.59,0,.77-.45a14.5,14.5,0,0,1,4-4.9c.45-.4.89-.81,1.36-1.19.19-.15.24-.25,0-.43A14.51,14.51,0,0,0,16.86,12.92Z"/><path class="cls-8" d="M16.7,8.88A44.16,44.16,0,0,1,32.64,19.76c-.13-1.09,0-2.19-.79-3.14a28.89,28.89,0,0,0-3.85-4,35.27,35.27,0,0,0-6.31-3.56C20,8.24,18.37,8.91,16.7,8.88Z"/><path class="cls-7" d="M18.1,23.38l4.67.85c.49.1.65,0,.61-.56A9.83,9.83,0,0,1,24,18.18c.19-.38-.17-.52-.35-.71-.88-.94-.9-.94-1.8,0A24.71,24.71,0,0,0,18,21.66q-.21.35-.39.69C17.18,23.18,17.18,23.18,18.1,23.38Z"/><path class="cls-9" d="M15.79,15.59c-2.45.05-4.09,1.4-5.68,2.85l-.82.7c-.28.21-.49.43-.38.84s.28.76.74.87a2,2,0,0,0,1.77-.34A27.91,27.91,0,0,0,15.79,15.59Z"/><path class="cls-8" d="M31.76,15A7.76,7.76,0,0,0,25,8.83a14.45,14.45,0,0,0-3.22-.19,20,20,0,0,1,6.55,3.44,37.5,37.5,0,0,1,3.29,3Z"/><path class="cls-4" d="M5.41,22.9A3.11,3.11,0,0,1,7,23.4a4.06,4.06,0,0,0-2,0c-.31.1-.4.23-.11.48.89.75,3.18.88,3.94,0,.1-.1.42-.1.25-.32s-.45-.57-.82-.52-.14.31-.16.49.1.33-.06.52a1.17,1.17,0,0,1-.37-.87c0-.48.22-.71.72-.62a2.16,2.16,0,0,1,1.22.72,6.06,6.06,0,0,0,1.92,1.23,11.24,11.24,0,0,0-1.81-1.77A3.07,3.07,0,0,0,7.85,22h0c.23.07.42.18,0,.28-.62.18-1.24.3-1.87.45-.2.05-.42,0-.59.18Z"/><path class="cls-6" d="M8.7,9.15a5.26,5.26,0,0,1-1.34-1c-.2-.2-.4-.42-.75-.26-.18.09-.36-.05-.53-.15A7.42,7.42,0,0,1,3.42,5.14a2,2,0,0,0-.25-.41,2.22,2.22,0,0,0,.57,1.86A29.47,29.47,0,0,0,6.36,9.33c.51.6.9,1,1.57.23A3,3,0,0,1,8.7,9.15Z"/><path class="cls-4" d="M10.87,27c.68.2,1.28-.39,2,.26a4.79,4.79,0,0,0-2.77-2.67c-.29-.07-.72.19-1,.39s0,.4,0,.6a2.65,2.65,0,0,0,.72,1c.13.13.25.27.49.18a.5.5,0,0,0,.33-.49,2.54,2.54,0,0,0-.11-.78c0-.13-.13-.3.09-.35s.25.09.31.23A2.09,2.09,0,0,1,10.87,27Z"/><path class="cls-4" d="M17.08,23.75a.21.21,0,0,0,.18.23,29,29,0,0,0,5.87,1.4c.16,0,.43.16.45-.15a.38.38,0,0,0-.34-.46l-6-1.1S17.15,23.71,17.08,23.75Z"/><path class="cls-4" d="M11.83,31.25c-.09-1-.16-1.8-.91-2.31-.16-.12-.4-.46-.15-.66s.49,0,.63.3c.3.57.56.62.85,0a5.11,5.11,0,0,1,.57-.82,5.21,5.21,0,0,1-1.77-.13.23.23,0,0,0-.33.18,6.06,6.06,0,0,1-.37,1.45.31.31,0,0,0,.14.37A5.14,5.14,0,0,1,11.83,31.25Z"/><path class="cls-4" d="M19.06,40.35a2.48,2.48,0,0,0-2.8.83,1.7,1.7,0,0,0,.23,1.31c.32.13.47-.09.62-.33A4.41,4.41,0,0,1,19.06,40.35Z"/><path class="cls-6" d="M6.67,7.34c-1-1.12-1.37-2.67-3-3.14A4.21,4.21,0,0,0,6.67,7.34Z"/><path class="cls-6" d="M6.45,5.93c-.22-.66-.4-1.33-.68-2C5.18,2.61,4.42,2.52,3.38,3.7,4.91,3.78,5.59,5,6.45,5.93Z"/><path class="cls-4" d="M16.52,34.25c-.45,0-.71-.09-1-.09-1.08,0-1.35.33-1.08,1.38,0,.09,0,.2.16.18s.42,0,.56-.25A3.79,3.79,0,0,1,16.52,34.25Z"/><path class="cls-4" d="M17.33,47a8.24,8.24,0,0,1,1.1-2.27c.1-.11.37-.26.16-.44a.41.41,0,0,0-.62.07A2.21,2.21,0,0,0,17.33,47Z"/><path class="cls-4" d="M6.53,25a3.91,3.91,0,0,1-2.18-1.11,1.19,1.19,0,0,1-.27-.33c-.24-.56-.24-.56-1-.31A3.81,3.81,0,0,0,6.53,25Z"/><path class="cls-4" d="M17,37.08c-.67,0-1.28-.31-1.62.26s.24,1-.08,1.66A7.1,7.1,0,0,1,17,37.08Z"/><path class="cls-4" d="M20.17,41.51c.17-.16.48-.31,0-.46-.16,0-.33-.08-.39-.27-.85,0-1.14.68-1.6,1.19A6.33,6.33,0,0,1,20.17,41.51Z"/><path class="cls-8" d="M33.46,24.58c-.47.34-.1,1-.42,1.34a3.84,3.84,0,0,0,1,1.36h0A22.44,22.44,0,0,0,33.46,24.58Z"/><path class="cls-4" d="M14.69,31a2.39,2.39,0,0,0-1.15,2c0,.11,0,.26.13.27a.36.36,0,0,0,.39-.26C14.28,32.34,14.48,31.66,14.69,31Z"/><path class="cls-4" d="M19,51c.3-.24.67-.44.54-.94-.65,0-.74-.45-.74-1a.66.66,0,0,0-.27,1C18.68,50.44,18.83,50.74,19,51Z"/><path class="cls-4" d="M12.79,33.77A9.43,9.43,0,0,1,13,32C12.25,32.62,12.22,32.81,12.79,33.77Z"/><path class="cls-4" d="M25.91,25.2c-.43-.06-.85-.13-1.28-.18-.13,0-.37-.18-.38.12s.16.33.39.32A2.73,2.73,0,0,0,25.91,25.2Z"/><path class="cls-4" d="M16.39,38.64l1.42-1.26C17.21,37.48,16.8,37.84,16.39,38.64Z"/><path class="cls-4" d="M17.32,36.45l-1.18-.29a.24.24,0,0,0-.31.21c0,.24.18.16.3.17l1.17.09Z"/><path class="cls-5" d="M18.1,48l-.25.07a3.28,3.28,0,0,1-.12,1,.24.24,0,0,0,.21.32c.19,0,.2-.21.15-.33A1.71,1.71,0,0,1,18.1,48Z"/><path class="cls-5" d="M12.1,30.75l.76-.52C12.29,30,12.29,30,12.1,30.75Z"/><path class="cls-4" d="M14.87,36.17c-.34.08-.66,0-.65.39,0,.11.1.29.28.26S14.74,36.47,14.87,36.17Z"/><path class="cls-5" d="M20.45,42.9a2.12,2.12,0,0,0-1.29.47,1.27,1.27,0,0,0,1.28-.48Z"/><path class="cls-4" d="M19.45,42.23c-.54-.14-.84.28-1.23.51.47,0,.81-.36,1.22-.53Z"/><path class="cls-5" d="M20.36,42l-.09-.12c-.13,0-.31,0-.33.19h0Z"/><path class="cls-5" d="M5.42,22.91l-.25,0,.24,0Z"/><path class="cls-5" d="M31.59,15.09c.06.1.09.3.26.2s0-.2-.09-.29Z"/><path class="cls-5" d="M19.94,42.05a.24.24,0,0,0-.33.05h0a.33.33,0,0,0,.33-.05Z"/><path class="cls-5" d="M20.44,42.89l.19,0v-.07l-.17,0Z"/><path class="cls-5" d="M19.44,42.21c.07,0,.16,0,.16-.12h0c-.09,0-.19,0-.16.13Z"/><path class="cls-10" d="M8,28l.27.08c0-.11.05-.25-.11-.26S8,27.93,8,28Z"/><path class="cls-5" d="M8.5,28.87l.17-.1Z"/></g></g></svg>