<svg xmlns="http://www.w3.org/2000/svg" viewBox="0 0 444.33 104.28"><defs><style>.cls-1,.cls-3{fill:#fff;}.cls-1,.cls-2{stroke:#fff;stroke-miterlimit:10;}.cls-1{stroke-width:2.5px;}.cls-2{fill:none;stroke-width:3px;}.cls-4{fill:#faf9db;}</style></defs><g id="圖層_2" data-name="圖層 2"><g id="素材"><path class="cls-1" d="M20.4,48.54a47.43,47.43,0,0,1-6.54,13.68,42.69,42.69,0,0,0,7-1.37l.49-.17a67.31,67.31,0,0,0,2.42-6.37h6.65a27.54,27.54,0,0,0,3.19-5.77Z"/><path class="cls-1" d="M12.67,31.68h0c-.07,1.21-.19,2.38-.34,3.51C12.46,34.06,12.58,32.89,12.67,31.68Z"/><path class="cls-1" d="M24,32.73c.06-.39.11-.75.15-1h0c-.12.84-.3,1.93-.54,3.3h2.59a.68.68,0,0,0,0-.15H25.4c.06-.39.11-.75.15-1h-.84c.06-.39.11-.75.15-1.05Z"/><path class="cls-1" d="M6.16,59.63,6,59.81a36.1,36.1,0,0,1,2.71,2.84l1-.07a57.51,57.51,0,0,0-6.88-8.3l-.32.28q.45.4.9.87l-.21.18c.3.27.59.56.9.87l-.21.18c.3.27.59.56.9.87l-.21.18c.3.27.59.56.9.87l-.21.18C5.56,59,5.85,59.32,6.16,59.63Z"/><path class="cls-1" d="M45.49,40.75h-.25l-.44-1h-.25l-.44-1.05h-.25l-.44-1h-.21l4.17,10a66.56,66.56,0,0,1-6.57,14.57,30.35,30.35,0,0,1-9.71,9.62,34.16,34.16,0,0,1-7.67,3.16,74.05,74.05,0,0,1-11.61,2.45A46.84,46.84,0,0,0,5.77,63.32l-.39,0a46.8,46.8,0,0,1,6.37,14.57l.39-.06c.1.37.21.74.3,1.11l.39-.06c.1.37.21.74.3,1.11l.39-.06c.1.37.21.74.3,1.11l.39-.06c.1.37.21.74.3,1.11l.39-.06c.1.37.21.74.3,1.11a74.05,74.05,0,0,0,11.61-2.45,34.36,34.36,0,0,0,7.67-3.16,30.32,30.32,0,0,0,9.7-9.62,65.64,65.64,0,0,0,6.57-14.57Z"/><path class="cls-2" d="M30.07,55.1a27.55,27.55,0,0,0,3.25-5.85H20.1a47.42,47.42,0,0,1-6.55,13.68,41.6,41.6,0,0,0,7-1.38A18.23,18.23,0,0,0,25.8,59.1,16.56,16.56,0,0,0,30.07,55.1ZM41.81,35.69l5.26,12.6A65.52,65.52,0,0,1,40.5,62.87a30.19,30.19,0,0,1-9.7,9.61,34.31,34.31,0,0,1-7.67,3.17A75.21,75.21,0,0,1,11.52,78.1,46.85,46.85,0,0,0,5.15,63.52c1.88-.07,3.3-.15,4.24-.23a56.46,56.46,0,0,0-7.12-8.55q9.21-7.58,10.13-22.87H23.94c-.11.87-.32,2.15-.62,3.82Z"/><path class="cls-1" d="M56,57.64l.69,0v1.09l.69,0v1.09l.69,0v1.09l.69,0v1.09q5.35-.35,12.85-.49,6.42-2.06,9.33-5.88-16.09,0-25.56.6V43.68h-.07V56.59l.69,0Z"/><path class="cls-1" d="M93.78,48.94h-.14l-.55-1H93l-.54-1h2.17V37.47h-.69v-1H93.2V35.37h-.69v-1h-.69v-1H91.2v7.81H57V32.22h-.08v9.37h.69v1h.69v.53H90.41l5,9.43a40,40,0,0,1-7,12.55A31.27,31.27,0,0,1,77.6,73.06,72.29,72.29,0,0,1,61.09,78c-.59-2.27-1.37-4.7-2.32-7.29a53.91,53.91,0,0,0-2.9-6.49l-.34,0a50.64,50.64,0,0,1,3.16,7A76.27,76.27,0,0,1,61,78.51l.38-.08c.11.38.22.76.31,1.13l.38-.08c.11.38.22.76.31,1.13l.38-.08c.11.38.22.76.31,1.13l.38-.08c.11.38.22.76.31,1.13l.38-.08c.11.38.22.76.31,1.13A72.55,72.55,0,0,0,81,78.83a31.36,31.36,0,0,0,10.75-7.91,40.19,40.19,0,0,0,7-12.55Z"/><path class="cls-2" d="M57.17,32.24H91.35v9.37H57.17ZM90.55,43.7l5,9.44a40,40,0,0,1-7,12.54A31.26,31.26,0,0,1,77.75,73.6a72.39,72.39,0,0,1-16.52,4.93,76.27,76.27,0,0,0-2.32-7.29,50.64,50.64,0,0,0-3.16-7Q75.3,63.59,81.09,56q-16.09,0-25.56.6V43.7Z"/><path class="cls-1" d="M147.34,43c.09-.16.19-.32.28-.49l-1-.56c.09-.16.19-.32.28-.49l-1-.56c.09-.16.19-.32.28-.49l-1-.56c.09-.16.19-.32.28-.49l-1-.56c.09-.16.19-.32.28-.49l-.17-.1a55.58,55.58,0,0,1-5.7,8.45,35.25,35.25,0,0,1-7,6.3V76.79H119.73V58.16A114.51,114.51,0,0,1,104,60.55q-.36-4.66-.82-8.07a44.73,44.73,0,0,0-1.46-6.59h-.23a43.56,43.56,0,0,1,1.62,7.1q.47,3.41.81,8.07l.6-.06c0,.37.07.72.09,1.11l.6-.06c0,.37.07.72.09,1.11l.6-.06c0,.37.06.72.09,1.11l.6-.06c0,.37.06.72.09,1.11l.6-.06c0,.37.06.72.09,1.11q7.06-.66,12.25-1.65V77.31h.69v1H121v1h.69v1h.69v1.05h.69v1h12.25V58.73a35,35,0,0,0,7-6.3,56.67,56.67,0,0,0,5.95-8.87Z"/><path class="cls-2" d="M144.54,38.27a56.55,56.55,0,0,1-5.94,8.86,35.57,35.57,0,0,1-7,6.31V77.27H119.34V58.63A113,113,0,0,1,103.64,61q-.36-4.65-.82-8.06a43.9,43.9,0,0,0-1.62-7.11,95.18,95.18,0,0,0,12.34-.6,26.72,26.72,0,0,0,8.8-2.39,25.46,25.46,0,0,0,11.06-11Z"/><path class="cls-1" d="M195.28,69.91c.07-.29.12-.59.19-.88l-.88-.17c.07-.29.12-.59.19-.88l-.88-.17c.07-.29.12-.59.19-.88l-.49-.1V56.88l-.69-.11v-.94l-.69-.11v-.94l-.69-.11v-.2c.69.13,1.37.24,2.07.38V42.79l-.69-.14v-.92l-.69-.13v-.92l-.69-.14v-.91l-.69-.14v-.91l-.62-.12V49.08a140.21,140.21,0,0,0-17.36-2.33q-8.6-.6-18.15-.6v-12h-.07V46.67h.69v1H156v.35c5.66,0,11.12.26,16.34.7q8.46.72,17.87,2.33V61.86a122,122,0,0,0-17.16-2.54q-8.49-.62-18.35-.62V48.58h-.07V59.21h.69v1H156v.18c5.59.06,11,.31,16.28.78a189.93,189.93,0,0,1,20.5,3.08,53.88,53.88,0,0,0-1,5.32q-.41,2.75-.93,7A153.22,153.22,0,0,0,172.24,74q-8.91-.69-19.92-.69V61h-.07v12.9h.69V74.9h.69v1h.69v1H155v1h.69v1q11,0,19.92.69a150.85,150.85,0,0,1,18.59,2.65q.54-4.29.93-7t1-5.32Z"/><path class="cls-2" d="M154.89,34.26q20.34,0,35.51,3.35V49.67A140.21,140.21,0,0,0,173,47.34q-8.59-.59-18.15-.59ZM152.5,61q10.35-.06,20,.81A189.79,189.79,0,0,1,193,64.9c-.42,1.72-.75,3.49-1,5.32s-.57,4.18-.93,7a151.21,151.21,0,0,0-18.59-2.66q-8.93-.69-19.93-.69Zm2.39-12.36q9.2,0,17.65.72T190.4,51.7V62.46a120.53,120.53,0,0,0-17.16-2.54q-8.49-.63-18.35-.63Z"/><path class="cls-1" d="M230.33,33.48h0c-.15,1.77-.34,3.43-.57,5Q230.09,36.12,230.33,33.48Z"/><path class="cls-1" d="M244.56,42.77c0-.27.06-.52.09-.8l-.78-.25c0-.27.06-.52.09-.8l-.78-.25c0-.27.06-.52.09-.8l-.78-.25c0-.27.06-.52.09-.8l-.76-.24A60.18,60.18,0,0,1,238,55.29a35.12,35.12,0,0,1-8.07,11.83,32.38,32.38,0,0,1-10.75,6.81,64.88,64.88,0,0,1-15.21,3.52q-1-4.83-1.92-8.15A34.58,34.58,0,0,0,199.46,63h-.34a34.25,34.25,0,0,1,2.81,6.78c.64,2.21,1.28,4.92,1.93,8.15l.45-.06c.08.37.16.72.24,1.11L205,79c.08.37.16.72.24,1.11l.45-.06c.08.37.16.72.24,1.11l.45-.06c.08.37.16.72.24,1.11l.45-.06c.08.37.16.72.24,1.11a65,65,0,0,0,15.21-3.52,32.24,32.24,0,0,0,10.74-6.81,35.28,35.28,0,0,0,8.08-11.83q2.94-6.93,4-18Z"/><path class="cls-1" d="M199.24,47.66l1.22.34c-.17.23-.35.48-.53.71l1.22.34c-.18.23-.35.48-.53.71l1.22.34c-.18.24-.35.48-.53.71l1.22.34c-.18.24-.35.48-.53.71a93.59,93.59,0,0,1,9.37,2.93c2,.8,4.67,2,7.88,3.58a21.45,21.45,0,0,0,2.85-2l4.35-5.83a27.47,27.47,0,0,0,1.13-2.74l-.4-.22.35-.48-1-.57.35-.48-1-.57.35-.48-1-.57.35-.48-1-.57.35-.48-.22-.12-7.71,10.35Q211.37,50.34,208,49a91.46,91.46,0,0,0-9.12-2.86l-.33.45,1.22.34C199.6,47.18,199.42,47.43,199.24,47.66Z"/><path class="cls-2" d="M202.14,70.07a34.79,34.79,0,0,0-2.8-6.78A53.36,53.36,0,0,0,213,61.83,23.34,23.34,0,0,0,222.33,57a19.55,19.55,0,0,0,5.49-8.78,63,63,0,0,0,2.69-14.51q2.66,1.25,5.24,2.18c1.73.62,3.84,1.32,6.35,2.12q-1.07,11.11-4,18A35,35,0,0,1,230,67.89a32.07,32.07,0,0,1-10.75,6.81,65,65,0,0,1-15.21,3.53Q203.09,73.38,202.14,70.07ZM217,53.86q-5.47-2.74-8.84-4.06a91.35,91.35,0,0,0-9.38-2.93,64.69,64.69,0,0,0,4.25-6.3,51.93,51.93,0,0,0,3.18-6q5.58,2.1,9.95,4.07T225,43.11Z"/><path class="cls-1" d="M263.63,48.54a47.17,47.17,0,0,1-6.54,13.68,42.69,42.69,0,0,0,7-1.37l.49-.17A67.31,67.31,0,0,0,267,54.31h6.65a28,28,0,0,0,3.2-5.77Z"/><path class="cls-1" d="M267.25,32.73c.06-.39.12-.75.16-1h0c-.13.84-.31,1.93-.55,3.3h2.59l0-.15h-.85c.06-.39.12-.75.16-1h-.85c.06-.39.12-.75.16-1.05Z"/><path class="cls-1" d="M255.9,31.68h0q-.11,1.82-.33,3.51C255.69,34.06,255.81,32.89,255.9,31.68Z"/><path class="cls-1" d="M288.72,40.75h-.25l-.44-1h-.25l-.27-.65.59-.21q-.44-1.83-1-3.51l.38-.14c.1.4.21.81.29,1.19l.4-.14c.1.4.21.81.29,1.19l.4-.14c.1.4.21.81.29,1.19l3.63-1.31a38.9,38.9,0,0,0-2.61-7.76l-.21.07c-.16-.38-.31-.76-.48-1.12l-.21.07c-.16-.38-.31-.76-.48-1.12l-.21.07c-.16-.38-.31-.76-.48-1.12l-.2.07a40.81,40.81,0,0,1,1.51,5.07l-3.63,1.31a46.84,46.84,0,0,0-2.39-7.39l-.25.09A51.33,51.33,0,0,1,285,30.63c-.09-.2-.17-.41-.26-.6l-.2.07c-.16-.38-.32-.76-.49-1.12l-.2.07c-.16-.38-.32-.76-.49-1.12l-.19.06a43.31,43.31,0,0,1,1.54,5.08l-3.67,1.32a46.3,46.3,0,0,0-2.4-7.39l-.24.08A47,47,0,0,1,281,34.91l.39-.15.06.22h3.92l5.26,12.61A66.56,66.56,0,0,1,284,62.16a30.42,30.42,0,0,1-9.7,9.62,34.27,34.27,0,0,1-7.68,3.16,73.56,73.56,0,0,1-11.61,2.45A46.59,46.59,0,0,0,249,63.32l-.39,0A46.8,46.8,0,0,1,255,77.91l.39-.06c.1.37.21.74.3,1.11l.39-.06c.1.37.21.74.3,1.11l.39-.06c.1.37.21.74.3,1.11l.39-.06c.1.37.21.74.3,1.11l.39-.06c.1.37.21.74.3,1.11A74.05,74.05,0,0,0,270,80.71a34.36,34.36,0,0,0,7.67-3.16,30.45,30.45,0,0,0,9.71-9.62A66.11,66.11,0,0,0,294,53.36Zm-2-6.58.09,0c.07.31.15.61.22.91C286.92,34.75,286.82,34.46,286.71,34.17Z"/><path class="cls-1" d="M249.39,59.63l-.2.18a38,38,0,0,1,2.7,2.84l1-.07a58.21,58.21,0,0,0-6.87-8.3l-.32.28c.29.27.59.56.89.87l-.2.18c.29.27.59.56.89.87l-.2.18c.29.27.59.56.89.87l-.2.18c.29.27.59.56.89.87l-.2.18C248.79,59,249.09,59.32,249.39,59.63Z"/><path class="cls-2" d="M286,33.39a46.68,46.68,0,0,0-2.57-7.82L287,24.31a39,39,0,0,1,2.61,7.77Zm-.44,2.27,5.26,12.6a66.35,66.35,0,0,1-6.57,14.57,30.25,30.25,0,0,1-9.71,9.62,34.1,34.1,0,0,1-7.67,3.17,75.21,75.21,0,0,1-11.61,2.45,46.85,46.85,0,0,0-6.37-14.58c1.89-.08,3.31-.16,4.25-.24A56.9,56.9,0,0,0,246,54.71q9.19-7.58,10.13-22.87h11.54c-.12.87-.33,2.15-.62,3.82ZM273.8,55.07a27.12,27.12,0,0,0,3.25-5.85H263.83a47.48,47.48,0,0,1-6.54,13.67,40.69,40.69,0,0,0,7-1.37,18.62,18.62,0,0,0,5.24-2.45A16.53,16.53,0,0,0,273.8,55.07Zm7.46-20a47.93,47.93,0,0,0-2.57-7.82L282.27,26a39.55,39.55,0,0,1,2.66,7.77Z"/><path class="cls-1" d="M301.71,35.82c.26-1.84.45-3.45.57-4.85h0c-.11,1.42-.3,3.1-.56,5A.77.77,0,0,1,301.71,35.82Z"/><path class="cls-1" d="M327.62,33.48h0c-.13,1.46-.28,2.85-.45,4.18C327.33,36.32,327.49,34.93,327.62,33.48Z"/><path class="cls-1" d="M298.14,56.48c0,.34,0,.7-.06,1h.75c0,.34,0,.7-.06,1h.75c0,.34,0,.7-.06,1h.75c0,.34,0,.7-.06,1h.75c0,.34,0,.7-.06,1,1.81,0,3.53.06,5.18.18a36.78,36.78,0,0,0,4.16-.84,24,24,0,0,0,8.07-3.83l.5-4c-.26-.1-.53-.18-.79-.27l.1-.78c-.26-.1-.52-.18-.79-.27l.1-.78c-.26-.1-.52-.18-.79-.27l.08-.64A33.49,33.49,0,0,1,321.18,52l2-10c-.26-.16-.54-.31-.8-.46l.11-.59c-.26-.16-.54-.31-.8-.46l.11-.59c-.26-.16-.54-.31-.8-.46l.11-.59c-.25-.16-.54-.31-.8-.46l.11-.59c-.25-.16-.54-.31-.8-.46l.11-.59,0,0-1.89,9.53a38.64,38.64,0,0,0-7-2.57,91.41,91.41,0,0,0-10.08-2c0,.17-.07.35-.1.51l.86.13c-.06.31-.11.63-.17.92l.86.13c-.06.31-.11.63-.17.92l.86.13,0,.11c1.48.18,2.89.39,4.22.64a55.11,55.11,0,0,1,8.32,2.24l-1.33,10.81a46.69,46.69,0,0,0-7.81-1.73,65.88,65.88,0,0,0-8.78-.54q.23-2.81.23-5.79c0-1.79-.07-3.65-.2-5.57h-.1q.23,3.16.22,6.09t-.22,5.8Z"/><path class="cls-1" d="M341.85,42.77c0-.27.06-.52.09-.8l-.78-.25c0-.27.06-.52.09-.8l-.78-.25c0-.27.07-.52.09-.8l-.78-.25c0-.27.07-.52.09-.8l-.76-.24a59.83,59.83,0,0,1-3.86,16.71,35.12,35.12,0,0,1-8.07,11.83,32.34,32.34,0,0,1-10.74,6.81,65,65,0,0,1-15.22,3.52q-1-4.83-1.92-8.15A33.88,33.88,0,0,0,296.75,63h-.33a34.86,34.86,0,0,1,2.81,6.78c.63,2.21,1.27,4.92,1.92,8.15l.46-.06c.07.37.15.72.23,1.11l.46-.06c.07.37.15.72.23,1.11L303,80c.07.37.15.72.23,1.11l.46-.06c.07.37.15.72.23,1.11l.46-.06c.07.37.15.72.23,1.11a65,65,0,0,0,15.21-3.52,32.38,32.38,0,0,0,10.75-6.81,35.12,35.12,0,0,0,8.07-11.83q2.94-6.93,4-18Z"/><path class="cls-2" d="M317.93,46.94a38.92,38.92,0,0,0-7-2.57,93.28,93.28,0,0,0-10.11-2q.57-2.74,1-5.85c.29-2.07.5-3.86.62-5.37q10.92,1.66,17.47,5.73ZM299.42,70a34.86,34.86,0,0,0-2.81-6.78,53.9,53.9,0,0,0,13.69-1.46A23.54,23.54,0,0,0,319.61,57a19.67,19.67,0,0,0,5.48-8.78,62.47,62.47,0,0,0,2.7-14.52A54.53,54.53,0,0,0,333,35.86c1.72.62,3.84,1.33,6.34,2.12q-1,11.12-4,18a35.12,35.12,0,0,1-8.07,11.83,32.12,32.12,0,0,1-10.74,6.81,64.48,64.48,0,0,1-15.22,3.52Q300.37,73.35,299.42,70ZM314.17,59a46.69,46.69,0,0,0-7.81-1.73,65.88,65.88,0,0,0-8.78-.54q.23-2.8.22-5.79c0-2-.07-4-.22-6.1a74.76,74.76,0,0,1,9.6,1.11,54.66,54.66,0,0,1,8.31,2.24Z"/><polygon class="cls-1" points="388.33 53.84 388.33 52.78 387.64 52.78 387.64 51.73 386.95 51.73 386.95 50.68 386.26 50.68 386.26 49.63 385.65 49.63 385.65 62.04 347.3 62.04 347.3 48.58 347.23 48.58 347.23 62.56 347.92 62.56 347.92 63.61 348.61 63.61 348.61 64.66 349.3 64.66 349.3 65.71 349.99 65.71 349.99 66.76 350.68 66.76 350.68 67.81 389.02 67.81 389.02 53.84 388.33 53.84"/><path class="cls-2" d="M385.89,62.75H347.55v-14h38.34Z"/><path class="cls-1" d="M437.23,56.88c-.18.21-.35.4-.52.61,0-.55-.13-1.12-.17-1.66-.18.21-.35.4-.52.61,0-.55-.13-1.12-.17-1.66-.18.21-.35.4-.52.61-.05-.55-.13-1.12-.17-1.66-.18.21-.35.4-.52.61-.05-.55-.13-1.12-.17-1.66l-.4.47a90.16,90.16,0,0,0,2.48,13.13A47.65,47.65,0,0,1,430,71.93a90,90,0,0,1-9,5.46l-6.41-5.91q.09-4.78.09-15.71c0-9.7-.07-17.32-.21-22.9h-.09c.05,1.8.09,3.86.12,6.12h-.35c0-.38,0-.74,0-1.07l-.65,0c0-.38,0-.74,0-1.07l-.65,0c0-.38,0-.74,0-1.07h-.55q.1,2.67.22,6.6.15,5.19.15,8.78c0,1.27,0,2.15,0,2.63q-.36,9.55-3.78,15.8A18.64,18.64,0,0,1,398,78.41q-1.32-3.89-3-7.62a35.72,35.72,0,0,0-3.33-5.89l-.4,0c.25.33.49.69.73,1h0c.19.25.37.52.55.78,0,.09.1.18.16.27h0a2.14,2.14,0,0,1,.13.19,39.41,39.41,0,0,1,2.14,4.07,81.42,81.42,0,0,1,3,7.61l.26-.1c.14.39.3.77.43,1.16l.26-.11c.14.39.3.77.43,1.16l.26-.11c.14.39.3.77.43,1.16l.26-.11c.14.39.3.77.43,1.16l.26-.11c.14.39.3.77.43,1.16a18.62,18.62,0,0,0,10.72-8.75,27.73,27.73,0,0,0,2.45-6.3c0,1.09,0,2.05,0,2.87l.7.64c0,.13,0,.28,0,.41l.7.64c0,.13,0,.28,0,.41l.7.64c0,.13,0,.28,0,.41l.7.64c0,.13,0,.28,0,.41l.7.64c0,.13,0,.28,0,.41l6.42,5.91a89.75,89.75,0,0,0,9-5.46,47.07,47.07,0,0,0,6.59-5.65A88.88,88.88,0,0,1,437.23,56.88Z"/><path class="cls-1" d="M425.2,33.59q-.15,8.92-.15,14.53,0,3.71.09,10.76a26.63,26.63,0,0,0,3.29-2.27V53.89q0-6.09.17-16.12l-.71,0c0-.36,0-.71,0-1.07l-.71,0c0-.36,0-.71,0-1.07l-.71,0c0-.36,0-.71,0-1.07l-.71,0c0-.36,0-.71,0-1.07Z"/><path class="cls-1" d="M401.32,53.78a18.93,18.93,0,0,1-.13,2.18,17.65,17.65,0,0,0,.2-2.7q0-7.47-.29-11.5a52.1,52.1,0,0,0-.85-6.62h-.17a52.56,52.56,0,0,1,.95,7.14Q401.32,46.32,401.32,53.78Z"/><path class="cls-2" d="M436.9,67a46.35,46.35,0,0,1-6.59,5.64,88.07,88.07,0,0,1-9,5.47l-6.41-5.92q.09-4.77.09-15.7,0-15-.22-23.42l10.79-.35q-.18,10-.18,16.12,0,3.7.09,10.75a27.49,27.49,0,0,0,4.18-3,37.49,37.49,0,0,0,4.53-4.78A90.13,90.13,0,0,0,436.9,67ZM412.45,35c.08,2,.18,4.72.28,8.19s.16,6.39.16,8.78c0,1.27,0,2.15-.05,2.62q-.34,9.57-3.78,15.8a18.59,18.59,0,0,1-10.72,8.75c-.89-2.59-1.9-5.12-3-7.61a35.32,35.32,0,0,0-3.65-6.36q5.54-.54,7.81-3.38T401.74,54q0-7.47-.28-11.5a52.23,52.23,0,0,0-1-7.14Z"/><path class="cls-3" d="M9.58,11.75A5.5,5.5,0,0,1,7.89,7.42,6,6,0,0,1,9.58,3q1.7-1.64,5.26-1.64,5,0,6.68,3.43a26,26,0,0,0-3.33,1.47A2.83,2.83,0,0,0,16.74,4.9a4.91,4.91,0,0,0-2-.43,3,3,0,0,0-2.26.8,2.8,2.8,0,0,0-.74,2,2.77,2.77,0,0,0,.8,2.06,3.32,3.32,0,0,0,2.44.79,4.24,4.24,0,0,0,2.08-.43,2.55,2.55,0,0,0,1.14-1.38c.86.46,2,1,3.32,1.56a4.69,4.69,0,0,1-2.64,2.67,10.44,10.44,0,0,1-4,.76Q11.27,13.27,9.58,11.75ZM28.06,9.7c0,1.57,0,2.71,0,3.41H24.37V11.33c0-2,0-3.47,0-4.54s0-2.44,0-4.29V.79h3.72q0,2.25,0,3.66c0,1.06,0,1.84,0,2.34S28.06,8.39,28.06,9.7Zm3.52-6.64a1.73,1.73,0,0,1-.48-1.27A1.77,1.77,0,0,1,31.58.51,1.93,1.93,0,0,1,33.05,0a2,2,0,0,1,1.46.51A1.79,1.79,0,0,1,35,1.79a1.7,1.7,0,0,1-.49,1.27,2.45,2.45,0,0,1-2.94,0Zm-.36,10c.08-1.69.11-3.09.11-4.2,0-1.32,0-2.79-.12-4.42H35c-.09,1.56-.13,3-.13,4.42,0,1.16,0,2.56.11,4.2Zm19,0c.08-1.38.12-2.81.12-4.28A1.66,1.66,0,0,0,50,7.72a1.2,1.2,0,0,0-.94-.41,1.17,1.17,0,0,0-.93.48,2.15,2.15,0,0,0-.38,1.37h0c0,1.86,0,3.18.08,4H44.3c.06-1.55.1-3,.1-4.28a1.75,1.75,0,0,0-.34-1.11,1.09,1.09,0,0,0-.86-.41,1.16,1.16,0,0,0-.93.47,2.23,2.23,0,0,0-.43,1.27q0,1.2,0,1.71c0,.71,0,1.5.06,2.35H38.09c.09-1.52.13-2.95.13-4.3s0-2.79-.13-4.32c.7,0,1.23,0,1.6,0s.92,0,1.59,0l.48,2.33a3.43,3.43,0,0,1,1.15-1.88,2.88,2.88,0,0,1,1.82-.61,2.85,2.85,0,0,1,3,2.45A3.64,3.64,0,0,1,48.93,5a3.1,3.1,0,0,1,1.94-.66,2.78,2.78,0,0,1,2.23,1,3.93,3.93,0,0,1,.81,2.62v2.62c0,1.19,0,2.05,0,2.59ZM65.68,5A4.15,4.15,0,0,1,67,6.66a5.43,5.43,0,0,1,.46,2.23A5.21,5.21,0,0,1,67,11.1a3.87,3.87,0,0,1-1.28,1.58,3.11,3.11,0,0,1-1.85.59,4.08,4.08,0,0,1-2.08-.51,3.18,3.18,0,0,1-1.33-1.62l-.46,2h-3Q57,10.14,57,7T56.94.82h3.57l0,1.94c-.05,1.37-.08,2.6-.08,3.67a3.07,3.07,0,0,1,1.31-1.59,4.08,4.08,0,0,1,2.1-.51A3,3,0,0,1,65.68,5Zm-2.3,5.14a1.9,1.9,0,0,0,.45-1.31,1.51,1.51,0,0,0-.49-1.18,1.66,1.66,0,0,0-1.19-.45,2,2,0,0,0-.76.17,1.67,1.67,0,0,0-.68.54,1.44,1.44,0,0,0-.28.92,1.89,1.89,0,0,0,.44,1.4,1.84,1.84,0,0,0,1.31.41A1.49,1.49,0,0,0,63.38,10.11Zm7.53-7a1.73,1.73,0,0,1-.48-1.27A1.77,1.77,0,0,1,70.91.51,1.94,1.94,0,0,1,72.39,0a2,2,0,0,1,1.45.51,1.76,1.76,0,0,1,.51,1.28,1.73,1.73,0,0,1-.49,1.27,2,2,0,0,1-1.47.49A2,2,0,0,1,70.91,3.06Zm-.35,10c.07-1.69.11-3.09.11-4.2,0-1.32,0-2.79-.13-4.42h3.79c-.08,1.56-.13,3-.13,4.42,0,1.16,0,2.56.11,4.2Zm13,0c.06-1.55.09-3,.09-4.28a1.69,1.69,0,0,0-.34-1.11,1.07,1.07,0,0,0-.86-.41,1.08,1.08,0,0,0-.88.47,2.31,2.31,0,0,0-.43,1.27q0,1.2,0,1.71c0,.71,0,1.5.06,2.35H77.35c.08-1.52.12-2.95.12-4.3s0-2.79-.12-4.32c.69,0,1.22,0,1.59,0s.92,0,1.6,0L81,6.81a3.53,3.53,0,0,1,1.13-1.87,2.82,2.82,0,0,1,1.8-.61,3.14,3.14,0,0,1,1.65.42,2.72,2.72,0,0,1,1,1.13A3.57,3.57,0,0,1,87,7.47V9.75c0,1.4,0,2.52.08,3.36ZM97.36,4.49h3c-.06,1.72-.08,4.18-.08,7.36a5.74,5.74,0,0,1-.75,3.08,4.4,4.4,0,0,1-2,1.74,6.59,6.59,0,0,1-2.75.55,7.72,7.72,0,0,1-2.68-.44,4.14,4.14,0,0,1-1.8-1.16l.71-2.41a7.28,7.28,0,0,0,1.61.7,5.91,5.91,0,0,0,1.58.21c1.79,0,2.69-.76,2.69-2.27,0-.22,0-.38,0-.48s0-.14,0-.25,0-.24,0-.41a3.62,3.62,0,0,1-5.3,1.67,3.76,3.76,0,0,1-1.29-1.54,5,5,0,0,1-.45-2.14,5.31,5.31,0,0,1,.45-2.2,4,4,0,0,1,1.28-1.59,3.13,3.13,0,0,1,1.85-.58c1.78,0,2.94.62,3.48,1.88Zm-1.42,5.77a1.67,1.67,0,0,0,.68-.54,1.44,1.44,0,0,0,.28-.92,1.85,1.85,0,0,0-.44-1.4A1.82,1.82,0,0,0,95.15,7a1.49,1.49,0,0,0-1.2.51,1.94,1.94,0,0,0-.44,1.31A1.57,1.57,0,0,0,94,10a1.68,1.68,0,0,0,1.19.45A2,2,0,0,0,95.94,10.26Zm12.93,0a13.18,13.18,0,0,0,.69-1.61,9.72,9.72,0,0,0,2.6,1,11.82,11.82,0,0,0,2.77.37,5.3,5.3,0,0,0,1.85-.23c.35-.16.53-.32.53-.5q0-1-2.94-1a11.85,11.85,0,0,1-4.67-.68,2.24,2.24,0,0,1-1.45-2.17A3.37,3.37,0,0,1,110,2.34a9.17,9.17,0,0,1,4.6-1,14.2,14.2,0,0,1,3.37.42,13.19,13.19,0,0,1,3.12,1.14c-.3.7-.62,1.54-1,2.54-.06.21-.12.37-.16.48a6.67,6.67,0,0,0-2.43-1.08,11.29,11.29,0,0,0-2.88-.44,6.75,6.75,0,0,0-2,.2c-.34.13-.52.32-.52.58s.24.45.72.6a7,7,0,0,0,2.08.23,11.42,11.42,0,0,1,4.86.77,2.49,2.49,0,0,1,1.52,2.34,3.44,3.44,0,0,1-1.61,3.19,9.65,9.65,0,0,1-4.88,1,17,17,0,0,1-3.57-.39A13.12,13.12,0,0,1,108,11.75,15,15,0,0,0,108.87,10.25Zm22.44-2.94c-1-.06-1.86-.11-2.66-.14V8.85a2.1,2.1,0,0,0,.37,1.33,1.58,1.58,0,0,0,1.32.48,3.85,3.85,0,0,0,.69-.06,11.51,11.51,0,0,0-.06,1.18c0,.19,0,.63,0,1.3a11.39,11.39,0,0,1-1.17.16q-.47,0-1.23,0a3.3,3.3,0,0,1-2.61-.89,3.73,3.73,0,0,1-.77-2.49l0-2.67-1.55.09V4.52A2,2,0,0,0,125.07,4a2.13,2.13,0,0,0,.68-1.25H130a7.11,7.11,0,0,1-1.78,1.77h3.05Zm3.17-4.25A1.7,1.7,0,0,1,134,1.79a1.73,1.73,0,0,1,.49-1.28A1.93,1.93,0,0,1,136,0a2,2,0,0,1,1.46.51,1.79,1.79,0,0,1,.5,1.28,1.7,1.7,0,0,1-.49,1.27,2.45,2.45,0,0,1-2.94,0Zm-.36,10c.07-1.69.11-3.09.11-4.2,0-1.32,0-2.79-.13-4.42h3.8c-.09,1.56-.13,3-.13,4.42,0,1.16,0,2.56.11,4.2Zm10.51-3a1.91,1.91,0,0,0,1.43.49,2.12,2.12,0,0,0,.93-.19,2.37,2.37,0,0,0,.76-.6,20,20,0,0,0,3.15.9,3.86,3.86,0,0,1-1.76,1.9,6.72,6.72,0,0,1-3.22.68A5.4,5.4,0,0,1,142,12a4.33,4.33,0,0,1-1.27-3.24A4.33,4.33,0,0,1,142,5.56a5.4,5.4,0,0,1,3.9-1.23,6.6,6.6,0,0,1,3.22.68A3.88,3.88,0,0,1,150.9,6.9a27.05,27.05,0,0,0-3.15.9,2.34,2.34,0,0,0-.76-.59,2.12,2.12,0,0,0-.93-.2,2,2,0,0,0-1.43.49,1.89,1.89,0,0,0-.51,1.3A1.85,1.85,0,0,0,144.63,10.09Zm20.18-5.62L160.9,8q2,2.85,3.74,5.07h-4.19l-.8-1.29-1-1.71-1.32,1.2v1.8h-3.63q.14-3,.13-6.08T153.66.82h3.63v6.7c1-1,2-2.06,2.9-3Zm9.31,4.69H169a1.87,1.87,0,0,0,.62,1.13,2.08,2.08,0,0,0,1.42.44,3.06,3.06,0,0,0,1.24-.26,2.39,2.39,0,0,0,.94-.74A23.63,23.63,0,0,0,176,10.85a3.63,3.63,0,0,1-1.78,1.76,7.38,7.38,0,0,1-3.36.66,5.53,5.53,0,0,1-4-1.24,4.32,4.32,0,0,1-1.29-3.26,4.26,4.26,0,0,1,1.28-3.21,5.58,5.58,0,0,1,4-1.23,6.69,6.69,0,0,1,2.8.54,4.16,4.16,0,0,1,1.82,1.49,3.88,3.88,0,0,1,.63,2.19,4.5,4.5,0,0,1,0,.61ZM169.79,7a1.64,1.64,0,0,0-.71.83h3.73a1.82,1.82,0,0,0-.62-.82,1.87,1.87,0,0,0-1.11-.31A2.51,2.51,0,0,0,169.79,7Zm12.67-.19a3.06,3.06,0,0,1,3.3-2.38,6.29,6.29,0,0,1,.88.06L186.14,8a5.73,5.73,0,0,0-1.87-.43,1.57,1.57,0,0,0-1.32.54,2.23,2.23,0,0,0-.43,1.44v1c0,.75,0,1.58.06,2.5h-3.78c.09-1.52.13-2.95.13-4.3s0-2.79-.13-4.32c.7,0,1.23,0,1.6,0s.92,0,1.59,0Z"/><path class="cls-4" d="M14.21,96.61l-.31-.31a2.18,2.18,0,0,0-3.1,0L9.64,97.46,8.47,96.3a2.17,2.17,0,0,0-3.09,0l-.31.31a2.19,2.19,0,0,0,0,3.09l1.16,1.17h0l3.41,3.41h0l3.4-3.41h0l1.16-1.17A2.19,2.19,0,0,0,14.21,96.61Z"/><path class="cls-4" d="M28.53,96.61l-.31-.31a2.18,2.18,0,0,0-3.1,0L24,97.46,22.79,96.3a2.18,2.18,0,0,0-3.1,0l-.31.31a2.19,2.19,0,0,0,0,3.09l1.17,1.17h0L24,104.28h0l3.41-3.41h0l1.17-1.17A2.19,2.19,0,0,0,28.53,96.61Z"/><path class="cls-4" d="M42.84,96.61l-.31-.31a2.17,2.17,0,0,0-3.09,0l-1.17,1.16L37.11,96.3a2.18,2.18,0,0,0-3.1,0l-.31.31a2.19,2.19,0,0,0,0,3.09l1.17,1.17h0l3.4,3.41h0l3.41-3.41h0l1.16-1.17A2.19,2.19,0,0,0,42.84,96.61Z"/><path class="cls-4" d="M57.16,96.61l-.31-.31a2.18,2.18,0,0,0-3.1,0l-1.16,1.16L51.42,96.3a2.17,2.17,0,0,0-3.09,0l-.31.31a2.19,2.19,0,0,0,0,3.09l1.16,1.17h0l3.41,3.41h0l3.4-3.41h0l1.17-1.17A2.19,2.19,0,0,0,57.16,96.61Z"/><path class="cls-4" d="M71.47,96.61l-.31-.31a2.17,2.17,0,0,0-3.09,0L66.9,97.46,65.74,96.3a2.18,2.18,0,0,0-3.1,0l-.31.31a2.19,2.19,0,0,0,0,3.09l1.17,1.17h0l3.4,3.41h0l3.41-3.41h0l1.16-1.17A2.17,2.17,0,0,0,71.47,96.61Z"/><path class="cls-4" d="M85.79,96.61l-.31-.31a2.18,2.18,0,0,0-3.1,0l-1.16,1.16L80.06,96.3a2.18,2.18,0,0,0-3.1,0l-.31.31a2.19,2.19,0,0,0,0,3.09l1.16,1.17h0l3.41,3.41h0l3.41-3.41h0l1.16-1.17A2.19,2.19,0,0,0,85.79,96.61Z"/><path class="cls-4" d="M100.11,96.61l-.31-.31a2.18,2.18,0,0,0-3.1,0l-1.16,1.16L94.37,96.3a2.17,2.17,0,0,0-3.09,0l-.31.31a2.17,2.17,0,0,0,0,3.09l1.16,1.17h0l3.41,3.41h0l3.4-3.41h0l1.17-1.17A2.19,2.19,0,0,0,100.11,96.61Z"/><path class="cls-4" d="M114.42,96.61l-.31-.31a2.17,2.17,0,0,0-3.09,0l-1.17,1.16-1.16-1.16a2.18,2.18,0,0,0-3.1,0l-.31.31a2.19,2.19,0,0,0,0,3.09l1.17,1.17h0l3.4,3.41h0l3.41-3.41h0l1.16-1.17A2.19,2.19,0,0,0,114.42,96.61Z"/><path class="cls-4" d="M128.74,96.61l-.31-.31a2.18,2.18,0,0,0-3.1,0l-1.16,1.16L123,96.3a2.17,2.17,0,0,0-3.09,0l-.31.31a2.19,2.19,0,0,0,0,3.09l1.16,1.17h0l3.41,3.41h0l3.4-3.41h0l1.17-1.17A2.19,2.19,0,0,0,128.74,96.61Z"/><path class="cls-4" d="M143.05,96.61l-.3-.31a2.18,2.18,0,0,0-3.1,0l-1.17,1.16-1.16-1.16a2.18,2.18,0,0,0-3.1,0l-.31.31a2.19,2.19,0,0,0,0,3.09l1.17,1.17h0l3.41,3.41h0l3.41-3.41h0l1.16-1.17A2.17,2.17,0,0,0,143.05,96.61Z"/><path class="cls-4" d="M157.37,96.61l-.31-.31a2.18,2.18,0,0,0-3.1,0l-1.16,1.16-1.16-1.16a2.18,2.18,0,0,0-3.1,0l-.31.31a2.19,2.19,0,0,0,0,3.09l1.16,1.17h0l3.4,3.41h0l3.41-3.41h0l1.16-1.17A2.19,2.19,0,0,0,157.37,96.61Z"/><path class="cls-4" d="M171.69,96.61l-.31-.31a2.18,2.18,0,0,0-3.1,0l-1.16,1.16L166,96.3a2.17,2.17,0,0,0-3.09,0l-.31.31a2.19,2.19,0,0,0,0,3.09l1.16,1.17h0l3.41,3.41h0l3.4-3.41h0l1.17-1.17A2.19,2.19,0,0,0,171.69,96.61Z"/><path class="cls-4" d="M186,96.61l-.31-.31a2.17,2.17,0,0,0-3.09,0l-1.17,1.16-1.16-1.16a2.18,2.18,0,0,0-3.1,0l-.31.31a2.19,2.19,0,0,0,0,3.09l1.17,1.17h0l3.4,3.41h0l3.41-3.41h0L186,99.7A2.17,2.17,0,0,0,186,96.61Z"/><path class="cls-4" d="M200.32,96.61,200,96.3a2.18,2.18,0,0,0-3.1,0l-1.16,1.16-1.16-1.16a2.18,2.18,0,0,0-3.1,0l-.31.31a2.19,2.19,0,0,0,0,3.09l1.16,1.17h0l3.41,3.41h0l3.4-3.41h0l1.16-1.17A2.19,2.19,0,0,0,200.32,96.61Z"/><path class="cls-4" d="M214.64,96.61l-.31-.31a2.18,2.18,0,0,0-3.1,0l-1.16,1.16L208.9,96.3a2.17,2.17,0,0,0-3.09,0l-.31.31a2.17,2.17,0,0,0,0,3.09l1.16,1.17h0l3.41,3.41h0l3.41-3.41h0l1.17-1.17A2.19,2.19,0,0,0,214.64,96.61Z"/><path class="cls-4" d="M229,96.61l-.31-.31a2.17,2.17,0,0,0-3.09,0l-1.17,1.16-1.16-1.16a2.18,2.18,0,0,0-3.1,0l-.31.31a2.19,2.19,0,0,0,0,3.09l1.17,1.17h0l3.4,3.41h0l3.41-3.41h0L229,99.7A2.19,2.19,0,0,0,229,96.61Z"/><path class="cls-4" d="M243.27,96.61,243,96.3a2.18,2.18,0,0,0-3.1,0l-1.16,1.16-1.17-1.16a2.17,2.17,0,0,0-3.09,0l-.31.31a2.19,2.19,0,0,0,0,3.09l1.16,1.17h0l3.41,3.41h0l3.4-3.41h0l1.17-1.17A2.19,2.19,0,0,0,243.27,96.61Z"/><path class="cls-4" d="M257.58,96.61l-.3-.31a2.18,2.18,0,0,0-3.1,0L253,97.46l-1.16-1.16a2.18,2.18,0,0,0-3.1,0l-.31.31a2.19,2.19,0,0,0,0,3.09l1.17,1.17h0l3.41,3.41h0l3.41-3.41h0l1.16-1.17A2.17,2.17,0,0,0,257.58,96.61Z"/><path class="cls-4" d="M271.9,96.61l-.31-.31a2.18,2.18,0,0,0-3.1,0l-1.16,1.16-1.16-1.16a2.18,2.18,0,0,0-3.1,0l-.31.31a2.19,2.19,0,0,0,0,3.09l1.16,1.17h0l3.4,3.41h0l3.41-3.41h0l1.16-1.17A2.19,2.19,0,0,0,271.9,96.61Z"/><path class="cls-4" d="M286.22,96.61l-.31-.31a2.18,2.18,0,0,0-3.1,0l-1.16,1.16-1.17-1.16a2.17,2.17,0,0,0-3.09,0l-.31.31a2.19,2.19,0,0,0,0,3.09l1.16,1.17h0l3.41,3.41h0l3.4-3.41h0l1.17-1.17A2.19,2.19,0,0,0,286.22,96.61Z"/><path class="cls-4" d="M300.53,96.61l-.31-.31a2.17,2.17,0,0,0-3.09,0L296,97.46,294.8,96.3a2.18,2.18,0,0,0-3.1,0l-.31.31a2.19,2.19,0,0,0,0,3.09l1.17,1.17h0l3.4,3.41h0l3.41-3.41h0l1.16-1.17A2.19,2.19,0,0,0,300.53,96.61Z"/><path class="cls-4" d="M314.85,96.61l-.31-.31a2.18,2.18,0,0,0-3.1,0l-1.16,1.16-1.16-1.16a2.18,2.18,0,0,0-3.1,0l-.31.31a2.19,2.19,0,0,0,0,3.09l1.16,1.17h0l3.41,3.41h0l3.4-3.41h0l1.16-1.17A2.19,2.19,0,0,0,314.85,96.61Z"/><path class="cls-4" d="M329.17,96.61l-.31-.31a2.18,2.18,0,0,0-3.1,0l-1.16,1.16-1.17-1.16a2.18,2.18,0,0,0-3.1,0l-.3.31a2.17,2.17,0,0,0,0,3.09l1.16,1.17h0l3.41,3.41h0l3.41-3.41h0l1.17-1.17A2.19,2.19,0,0,0,329.17,96.61Z"/><path class="cls-4" d="M343.48,96.61l-.31-.31a2.17,2.17,0,0,0-3.09,0l-1.17,1.16-1.16-1.16a2.18,2.18,0,0,0-3.1,0l-.31.31a2.19,2.19,0,0,0,0,3.09l1.17,1.17h0l3.4,3.41h0l3.41-3.41h0l1.16-1.17A2.19,2.19,0,0,0,343.48,96.61Z"/><path class="cls-4" d="M357.8,96.61l-.31-.31a2.18,2.18,0,0,0-3.1,0l-1.16,1.16-1.17-1.16a2.17,2.17,0,0,0-3.09,0l-.31.31a2.19,2.19,0,0,0,0,3.09l1.16,1.17h0l3.41,3.41h0l3.4-3.41h0l1.17-1.17A2.19,2.19,0,0,0,357.8,96.61Z"/><path class="cls-4" d="M372.11,96.61l-.31-.31a2.17,2.17,0,0,0-3.09,0l-1.17,1.16-1.16-1.16a2.18,2.18,0,0,0-3.1,0l-.31.31a2.19,2.19,0,0,0,0,3.09l1.17,1.17h0l3.4,3.41h0l3.41-3.41h0l1.16-1.17A2.17,2.17,0,0,0,372.11,96.61Z"/><path class="cls-4" d="M386.43,96.61l-.31-.31a2.18,2.18,0,0,0-3.1,0l-1.16,1.16L380.7,96.3a2.18,2.18,0,0,0-3.1,0l-.31.31a2.19,2.19,0,0,0,0,3.09l1.16,1.17h0l3.41,3.41h0l3.41-3.41h0l1.16-1.17A2.19,2.19,0,0,0,386.43,96.61Z"/><path class="cls-4" d="M400.75,96.61l-.31-.31a2.18,2.18,0,0,0-3.1,0l-1.16,1.16L395,96.3a2.17,2.17,0,0,0-3.09,0l-.31.31a2.17,2.17,0,0,0,0,3.09l1.16,1.17h0l3.41,3.41h0l3.4-3.41h0l1.17-1.17A2.19,2.19,0,0,0,400.75,96.61Z"/><path class="cls-4" d="M415.06,96.61l-.31-.31a2.17,2.17,0,0,0-3.09,0l-1.17,1.16-1.16-1.16a2.18,2.18,0,0,0-3.1,0l-.31.31a2.19,2.19,0,0,0,0,3.09l1.17,1.17h0l3.4,3.41h0l3.41-3.41h0l1.16-1.17A2.19,2.19,0,0,0,415.06,96.61Z"/><path class="cls-4" d="M429.38,96.61l-.31-.31a2.18,2.18,0,0,0-3.1,0l-1.16,1.16-1.17-1.16a2.17,2.17,0,0,0-3.09,0l-.31.31a2.19,2.19,0,0,0,0,3.09l1.16,1.17h0l3.41,3.41h0l3.4-3.41h0l1.17-1.17A2.19,2.19,0,0,0,429.38,96.61Z"/><path class="cls-4" d="M443.7,96.61l-.31-.31a2.18,2.18,0,0,0-3.1,0l-1.16,1.16L438,96.3a2.18,2.18,0,0,0-3.1,0l-.31.31a2.19,2.19,0,0,0,0,3.09l1.17,1.17h0l3.41,3.41h0l3.41-3.41h0l1.17-1.17A2.19,2.19,0,0,0,443.7,96.61Z"/><polygon class="cls-4" points="268.62 3.05 270.17 6.2 273.65 6.71 271.13 9.16 271.73 12.62 268.62 10.99 265.51 12.62 266.1 9.16 263.58 6.71 267.06 6.2 268.62 3.05"/><polygon class="cls-4" points="255.53 3.22 257.08 6.37 260.56 6.88 258.04 9.33 258.64 12.8 255.53 11.16 252.41 12.8 253.01 9.33 250.49 6.88 253.97 6.37 255.53 3.22"/><polygon class="cls-4" points="281.71 3.05 283.27 6.2 286.75 6.71 284.23 9.16 284.82 12.62 281.71 10.99 278.6 12.62 279.19 9.16 276.68 6.71 280.15 6.2 281.71 3.05"/><polygon class="cls-4" points="294.8 3.05 296.36 6.2 299.84 6.71 297.32 9.16 297.92 12.62 294.8 10.99 291.69 12.62 292.29 9.16 289.77 6.71 293.25 6.2 294.8 3.05"/><polygon class="cls-4" points="307.9 3.05 309.45 6.2 312.93 6.71 310.41 9.16 311.01 12.62 307.9 10.99 304.78 12.62 305.38 9.16 302.86 6.71 306.34 6.2 307.9 3.05"/><polygon class="cls-4" points="320.99 3.05 322.54 6.2 326.02 6.71 323.51 9.16 324.1 12.62 320.99 10.99 317.88 12.62 318.47 9.16 315.95 6.71 319.43 6.2 320.99 3.05"/><polygon class="cls-4" points="334.08 3.05 335.64 6.2 339.12 6.71 336.6 9.16 337.19 12.62 334.08 10.99 330.97 12.62 331.56 9.16 329.05 6.71 332.52 6.2 334.08 3.05"/><polygon class="cls-4" points="347.17 3.05 348.73 6.2 352.21 6.71 349.69 9.16 350.29 12.62 347.17 10.99 344.06 12.62 344.66 9.16 342.14 6.71 345.62 6.2 347.17 3.05"/><polygon class="cls-4" points="360.27 3.05 361.82 6.2 365.3 6.71 362.78 9.16 363.38 12.62 360.27 10.99 357.15 12.62 357.75 9.16 355.23 6.71 358.71 6.2 360.27 3.05"/><polygon class="cls-4" points="373.36 3.05 374.92 6.2 378.39 6.71 375.88 9.16 376.47 12.62 373.36 10.99 370.25 12.62 370.84 9.16 368.32 6.71 371.8 6.2 373.36 3.05"/><polygon class="cls-4" points="386.45 3.05 388.01 6.2 391.49 6.71 388.97 9.16 389.56 12.62 386.45 10.99 383.34 12.62 383.93 9.16 381.42 6.71 384.9 6.2 386.45 3.05"/><polygon class="cls-4" points="399.54 3.05 401.1 6.2 404.58 6.71 402.06 9.16 402.66 12.62 399.54 10.99 396.43 12.62 397.03 9.16 394.51 6.71 397.99 6.2 399.54 3.05"/><polygon class="cls-4" points="412.64 3.05 414.19 6.2 417.67 6.71 415.15 9.16 415.75 12.62 412.64 10.99 409.52 12.62 410.12 9.16 407.6 6.71 411.08 6.2 412.64 3.05"/><polygon class="cls-4" points="425.73 3.05 427.29 6.2 430.76 6.71 428.25 9.16 428.84 12.62 425.73 10.99 422.62 12.62 423.21 9.16 420.69 6.71 424.17 6.2 425.73 3.05"/><polygon class="cls-4" points="438.82 3.05 440.38 6.2 443.86 6.71 441.34 9.16 441.93 12.62 438.82 10.99 435.71 12.62 436.31 9.16 433.79 6.71 437.27 6.2 438.82 3.05"/></g></g></svg>