<svg xmlns="http://www.w3.org/2000/svg" viewBox="0 0 62.45 92.48"><defs><style>.cls-1,.cls-9{fill:#fdfdfd;}.cls-1{stroke:#ccc;stroke-miterlimit:10;}.cls-2{fill:#2e4999;}.cls-3{fill:#045e9e;}.cls-4{fill:#f5de65;}.cls-5{fill:#f5cb91;}.cls-6{fill:#6fa0d3;}.cls-7{fill:#4ec8b1;}.cls-8{fill:#ecf0f2;}</style></defs><g id="圖層_2" data-name="圖層 2"><g id="素材"><path class="cls-1" d="M20.12,91.18A37.5,37.5,0,0,1,14,89.28,21.23,21.23,0,0,1,3.61,81.11,22,22,0,0,1,.52,68.34a51,51,0,0,1,1-8.64c.16-.76.26-1.58.36-2.43s.25-2,.48-3.06A105.62,105.62,0,0,0,4.64,25.47,4.54,4.54,0,0,1,6,22a10.48,10.48,0,0,1,1.3-1.14,4.76,4.76,0,0,0,.78-.69,19.7,19.7,0,0,1,11.12-6.87,29.16,29.16,0,0,1,9.17-.64c.13-.83.28-1.59.46-2.31a23.1,23.1,0,0,1,2.53-6.46C32.82,1.4,35.23.12,37.46.6a4.87,4.87,0,0,1,.74.23c2,.85,6.78,2.82,6.28,8.87a18.13,18.13,0,0,1-2.33,7,34,34,0,0,1,5,3.24,25.27,25.27,0,0,1,1.16-2.61l.09-.16,1.44-2.06L50,15a12.69,12.69,0,0,1,2.85-2.19A6.35,6.35,0,0,1,57.3,12a5.93,5.93,0,0,1,4.56,5.35,13.65,13.65,0,0,1-.34,4.93c-.86,3.42-3.19,5.48-5.24,7.29l-1.05.93-.06.06-.35.29c.11.29.26.66.4,1l.08.21.05.21a21.92,21.92,0,0,1,.07,8.84c-.48,2.49-.9,5-1.31,7.52-.24,1.48-.49,3-.75,4.5,1.62.58,3.2,1.94,3,5.11a8.41,8.41,0,0,1-.86,3.11l-.15.32c-.06.13-.14.28-.2.42a4.16,4.16,0,0,1,.78,2.39c0,.07,0,.14,0,.21a23.28,23.28,0,0,1-1.07,9.5v0a6.54,6.54,0,0,1-.59,1.46,3.09,3.09,0,0,1-3,1.64C49.5,83.68,45.13,88.1,38.48,90.23a35,35,0,0,1-18.36,1Zm9.06-34.64a1.84,1.84,0,0,1-.05-.25L28.9,57Zm0-1.06s0,0,0-.08.06-.22.1-.33l-.68-.14-.2.65Z"/><path class="cls-2" d="M51.68,16.74A10.22,10.22,0,0,1,54,15a3.38,3.38,0,0,1,5.3,2.68,11,11,0,0,1-.29,4c-.79,3.18-3.34,4.94-5.54,7-1.76,1.41-1.76,1.41-.65,4.17a19.29,19.29,0,0,1,.06,7.83C52,45.07,51.35,49.55,50.54,54c-.16.89.18,1.21,1,1.33,1.74.26,2.29,1,2.17,2.75a6,6,0,0,1-.61,2.19c-.54,1.11-1.23,2.18-.08,3.39.27.28.24.88.3,1.33a21.06,21.06,0,0,1-1,8.49c-.17.6-.43,1.52-1.08,1.28s-.17-1.09,0-1.67a19.15,19.15,0,0,0,1.12-7.72,3.46,3.46,0,0,0-.78-2.06c-1.33,1.44-2.2,2.9-1.95,5a21.44,21.44,0,0,1-.28,5.17c-.88,7.29-4.81,12.13-11.77,14.35a32.65,32.65,0,0,1-22.79-.89C6.51,83.55,2.66,77.3,3,68.41a48.54,48.54,0,0,1,1-8.22c.37-1.78.44-3.66.83-5.46A107,107,0,0,0,7.09,25.3a2,2,0,0,1,.66-1.62c.68-.73,1.56-1.17,2.2-2a17.13,17.13,0,0,1,9.72-6,27.33,27.33,0,0,1,9.79-.43c.81.11,1-.15,1.1-.89a27.73,27.73,0,0,1,.62-3.49,20.56,20.56,0,0,1,2.23-5.75c.93-1.53,2.48-2.52,3.73-2,3,1.23,5,2.75,4.72,6.31-.23,2.74-1.48,5.08-2.78,7.4-.22.39-.76.82.06,1.2a30.8,30.8,0,0,1,9.28,6.54,19.26,19.26,0,0,1,2-6.13Zm3.59,8.82.62-.68a6.88,6.88,0,0,0,2.59-4.69c.12-.81-.2-1-1-1.11a8.09,8.09,0,0,1-1.7,5.65c-.2.24-.52.38-.59.73-.26.06-.39.2-.34.48l-.26,0,0,.11.22-.16C55.09,25.92,55.18,25.74,55.27,25.56ZM31.81,56.48c.08.71.16,1.41.23,2.12l.06,1a7.71,7.71,0,0,0,0,2.49A66.38,66.38,0,0,1,30.68,74a24.58,24.58,0,0,1-1,4.13c-.18.43-.31.83-.87.35-.36-.31-.81-.06-1.21-.05-5,.2-9.94.83-14.93.64a32.23,32.23,0,0,1-6.56-1A13.3,13.3,0,0,0,11,83.52c6,3.91,12.71,5,19.73,4.53a24.22,24.22,0,0,0,9.48-2.46A14.56,14.56,0,0,0,48.63,73.2c.19-2,.19-4,.26-5.94,0-.58,0-1.05-.87-1.15a2.76,2.76,0,0,1-2.21-2A8.06,8.06,0,0,1,47.27,56a2,2,0,0,1,1-.78c1.58-.24,1.61-1.47,1.82-2.62.7-3.92,1.39-7.85,2.1-11.86-.22.08-.33.08-.35.13-2.59,5.72-7.69,7.23-13.26,7.7A42.86,42.86,0,0,1,20,45.6c-.35-.13-.72-.22-1.09-.32a.69.69,0,0,0-.6-.3l-.46-.19a34.88,34.88,0,0,1-9.66-7.08c-.43,3.55-.83,6.86-1.22,10.17-.19,1-.37,2-.55,3-.5,2-.5,2,1.52,1.91s3.93,0,5.89,0l.43,0a57.83,57.83,0,0,1,7.41.88,48,48,0,0,1,7.56,1.88l.7.24.28.15.67.29c.23.5.66.11,1,.21ZM8.41,30c-.14,0-.12.26,0,.39,0,.5-.05,1-.05,1.51,0,1.4,0,1.4,1.45.78L8.52,30.34C8.49,30.21,8.6,30,8.41,30Zm6.47-9.68c-.91-.95-2.14-.37-3.21,1.4l-.18,0,0,.16.14-.16Zm34.44,7.52c-.21.08-.08.23,0,.36.93,1.8.39,3.94,1.31,5.74a7,7,0,0,0-1.08-5.87C49.44,28,49.35,27.83,49.32,27.84ZM43.39,22c-.19.15,0,.27.13.37a17.82,17.82,0,0,1,1.39,4.81c.06.9.94,1,1.56,1.7A17.57,17.57,0,0,0,45.64,25c-.14-.74,0-.93.74-.69a30.37,30.37,0,0,1,1.21,5.34c.1,1,1.16,1.47,1.83,2.5-.1-1.74-.78-3.12-.83-4.52-.06-1.72-1.17-2.42-2.23-3.3a8.11,8.11,0,0,0-2.59-2.18C43.69,22,43.52,21.86,43.39,22Zm6.09,20c.74-2.14,2.16-4,1.74-6.59-.66,1.36-1.41,2.27-1.41,3.71,0,1.9-1,3.64-2.14,5.55a7.32,7.32,0,0,0,3.18-4l.19-.13-.17.16C50.42,41,50.32,41.69,49.48,41.94ZM38,19l.23.36a12.91,12.91,0,0,1,2.17,4.51c.13.63.71.78,1.12,1.09.7.53,1.44,1,2.17,1.52a7.41,7.41,0,0,0-5.22-7.28C38.33,19,38.19,18.9,38,19ZM43.9,44.8a9.9,9.9,0,0,0,2.59-4.18c-1.27.86-2.64,1.11-3.14,2.8-.46,1.54-1.9,2.53-3.27,3.4-.19.12-.46.35-.65.07s0-.48.22-.65a9.62,9.62,0,0,0,2.63-3.32c-1.38.47-3.13.15-3.65,2.25-.18.75-1.11,1.31-1.69,2-.11,0-.26,0-.19.19s.21,0,.32,0a15.17,15.17,0,0,0,6.6-1,3.47,3.47,0,0,0,2.71-1.53,13.08,13.08,0,0,0,2.81-6.34c-.83.73-1.55,1.15-1.82,2.29a10.39,10.39,0,0,1-3.72,5.54C42.74,45.64,43.52,45.2,43.9,44.8ZM55.35,16.53c-.17-.84-.6-.84-1.23-.46a8.84,8.84,0,0,0-4,5.34c-.34,1.18-.57,2.38-.85,3.57a1.06,1.06,0,0,0,.11,1,15.46,15.46,0,0,1,1.86,3.28c.29-1.19,1-2-.47-2.75a2.62,2.62,0,0,1-1.15-2.26l2.13,2.58c.87-1.3.86-1.93-.09-3.18a2.83,2.83,0,0,1-.62-1.86l1.78,2c.34-.67.61-1.15,0-1.74a3.88,3.88,0,0,1-1-1.78c.87.32,1.2,1,1.68,1.4,1.8-1.35-.17-2.81.07-4.31.68.54.79,1.35,1.32,1.91l1.41-1.26c.32-.07.64-.17,1-.21s.63,0,1,0c-.54-1.76-1.15-2.22-2.82-2.07.24.81,1.17,1.35.9,2.31A2.58,2.58,0,0,1,55.35,16.53ZM44.91,40.28a13,13,0,0,0,4.59-3.87,1.14,1.14,0,0,0,.1-1.36,20.7,20.7,0,0,0-5.51-6.37,32.88,32.88,0,0,0-6.76-4.62c-.55-.27-1.08-1.1-1.89-.42,0,0-.26-.06-.3-.14-.47-1.13-1.61-1.16-2.52-1.46a28.17,28.17,0,0,0-17.76-.38,19,19,0,0,0-5.78,3.56c-.49.38-.4.87-.35,1.38.41,3.83,2.58,6.61,5.47,8.9a36,36,0,0,0,13.64,6.61C34.28,43.56,39.74,43.06,44.91,40.28ZM22.37,75.44c-.24.19-.41.66-.78.25a.55.55,0,0,1,.18-.94c2.07-1.11,2.65-2.58,1.7-4.89a30.32,30.32,0,0,1-1.2-5.42c-1.48,1.52-2.89,3-4.35,4.47-.49.48-1.3,1.29-1.76.78s.58-1,1-1.45c.69-.68,1.76-1.17,2.08-2s-.6-1.74-.9-2.65c-1-3.08-2.08-6.13-3.17-9.28-2.88,3.52-5.49,7.21-9,10.07-.08.06-.23,0-.66.08,2.62-3.71,5.89-6.61,8.41-10.31a36.87,36.87,0,0,0-5.55-.07c-2.58.13-2.61.15-3.07,2.65-.83,4.52-1.75,9-1.4,13.68,0,.21.06.41.11.73,2.05-1.78,3.77-3.74,5.83-5.34a.76.76,0,0,1,.09-.09c2.14-1.86,2.25-1.86,3.6.6a61,61,0,0,1,3.62,6.52c.22.55.78,1.45.2,1.69s-.75-.79-1-1.29c-1.3-2.32-2.58-4.65-3.81-7-.33-.63-.57-.64-1.11-.26-2.57,1.82-4.6,4.22-6.95,6.27-.35.3-.27.66-.2,1,.54,3.3.83,3.65,4.12,4.22A50.1,50.1,0,0,0,20,77.89a77.6,77.6,0,0,1,8.22-.39c.91,0,1.26-.45.87-1.34-.71-1.66-1.5-3.29-2.3-5A55.41,55.41,0,0,1,22.37,75.44Zm-.44-11.86c.19-.21.4-.53.71-.46s.31.53.35.85a34.86,34.86,0,0,0,1.86,7.68c.13,0,.23,0,.27-.06,1.94-1.84,1.94-1.84,3.12.54.41.83.8,1.67,1.18,2.46.3,0,.35-.12.39-.29a61.29,61.29,0,0,0,1.61-16.2.77.77,0,0,0-.59-.81,49.56,49.56,0,0,0-13.44-2.93c-.74-.06-1.13,0-.86.92,1,3.43,2,6.86,3.47,10.34C20.72,64.86,21.31,64.21,21.93,63.58ZM33.14,13.52a10.93,10.93,0,0,0,4.25,1.24c.34,0,.56.08.67-.29.59-1.94,1.58-3.76,1.79-5.8a3.76,3.76,0,0,0-2.53-4.29,2.33,2.33,0,0,0-2.73.72,9.87,9.87,0,0,0-2,4.17c-.49,1.83-.78,3.72-1.22,5.57-.16.66.12.79.65.9a26.14,26.14,0,0,1,3.79,1c1.58.59,1.59.56,1.86-1.26A3.9,3.9,0,0,1,33.14,13.52ZM47,63.73a2,2,0,0,0,.76.82c.33.18.7.41,1.07.24s.13-.61.13-.91a47.77,47.77,0,0,1,.36-6.55c.08-.49.12-1.06-.29-1.28s-.74.29-1.06.55a5.1,5.1,0,0,0-1.54,3.09A5.45,5.45,0,0,0,47,63.73Zm-28.62-24a42.1,42.1,0,0,1-5.28-3.62c-.19-.17-.42-.31-.66-.08a5.05,5.05,0,0,1-3.07,1c1.62,2,1.84,2,4.28,1.19.52-.17,1.33-.7,1.54,0s-.59,1.2-1.33,1.37c-.44.1-.89.14-1.39.22C14.25,41.57,15.54,41.55,18.33,39.71Zm34.36,18.9a2.84,2.84,0,0,0,.07-1.12,1.46,1.46,0,0,0-1.56-1.21c-.73,0-1,.51-1.14,1.12a34.63,34.63,0,0,0-.39,6.6A13,13,0,0,0,52.69,58.61Zm-19-41.11c1.3,2.38,1.84,5.37,5.24,5.61C37.19,19,36.91,18.16,33.71,17.5Zm-3.32,2c.16.48.51.61.93.73.89.24,1.78.51,2.67.77-.26-2.87-2.1-4.35-5.67-4.42A7.07,7.07,0,0,1,30.39,19.5Zm-7.45-3c2.32,2.55,3.29,3,6.14,3.07C27.88,16.51,26.76,16,22.94,16.5Zm3.45,26.63c-.82-.61-1.89-.6-2.77-1.09a.35.35,0,0,0-.53.13c-.57,1.15-1.72,1.52-2.92,2.08C23.33,45.78,24.54,45.54,26.39,43.13Zm-4.2-1.54-2.36-1.16a.52.52,0,0,0-.68.11,5.28,5.28,0,0,1-3.61,1.54C19.05,44,18.3,44.55,22.19,41.59ZM18,17.57c1.38,2.35,3.66,1.38,5.76,1.52C21.72,16.28,21.11,16.13,18,17.57ZM56.83,19c-2.37,1.91-2.87,4.5-3.74,7.26C55.42,24.18,56.91,22.09,56.83,19Zm-21,25.1c-.31,0-.7.05-.75.33-.24,1.34-1.24,2.1-2.36,2.85,2.53,1.05,4-.89,5.23-3.24C37.15,44,36.49,44.05,35.82,44.05Zm-1.62.18L31.57,44a.47.47,0,0,0-.49.32,8.54,8.54,0,0,1-2.25,2.33C31.52,47.23,32.62,46.72,34.2,44.23Zm-5.65-.7c-.77-.28-1.31-.27-1.68.63a3,3,0,0,1-2,1.52c2.53,1.06,2.84,1,5.11-1.83A11.66,11.66,0,0,1,28.55,43.53ZM11,34.07c-.37-.54-.69-.77-1.26-.18-.37.39-.85.13-1.25-.11-.05.09-.13.15-.14.21-.1,2.13-.1,2.14,2,1.61.48-.12.95-.27,1.59-.45A13.67,13.67,0,0,1,11,34.07Zm4.16-15.2c1.4,1.08,1.4,1.08,3,.49C16.84,17.78,16.84,17.78,15.13,18.87ZM40.4,12.19c-.58,1.19-1.51,2.22-1.82,3.91A14.16,14.16,0,0,0,40.4,12.19ZM52,35.26c.62-.95,0-1.72-.1-2.75A3.11,3.11,0,0,0,52,35.26Zm2.24-8.8c-.83.12-1.67.22-1.58,1.49Z"/><path class="cls-3" d="M27.84,42.11c6.44,1.45,11.9,1,17.07-1.83a13,13,0,0,0,4.59-3.87,1.14,1.14,0,0,0,.1-1.36,20.7,20.7,0,0,0-5.51-6.37,32.88,32.88,0,0,0-6.76-4.62c-.55-.27-1.08-1.1-1.89-.42,0,0-.26-.06-.3-.14-.47-1.13-1.61-1.16-2.52-1.46a28.17,28.17,0,0,0-17.76-.38,19,19,0,0,0-5.78,3.56c-.49.38-.4.87-.35,1.38.41,3.83,2.58,6.61,5.47,8.9A36,36,0,0,0,27.84,42.11Z"/><path class="cls-4" d="M26.79,71.15a55.41,55.41,0,0,1-4.42,4.29c-.24.19-.41.66-.78.25a.55.55,0,0,1,.18-.94c2.07-1.11,2.65-2.58,1.7-4.89a30.32,30.32,0,0,1-1.2-5.42c-1.48,1.52-2.89,3-4.35,4.47-.49.48-1.3,1.29-1.76.78s.58-1,1-1.45c.69-.68,1.76-1.17,2.08-2s-.6-1.74-.9-2.65c-1-3.08-2.08-6.13-3.17-9.28-2.88,3.52-5.49,7.21-9,10.07-.08.06-.23,0-.66.08,2.62-3.71,5.89-6.61,8.41-10.31a36.87,36.87,0,0,0-5.55-.07c-2.58.13-2.61.15-3.07,2.65-.83,4.52-1.75,9-1.4,13.68,0,.21.06.41.11.73,2.05-1.78,3.77-3.74,5.83-5.34a.76.76,0,0,1,.09-.09c2.14-1.86,2.25-1.86,3.6.6a61,61,0,0,1,3.62,6.52c.22.55.78,1.45.2,1.69s-.75-.79-1-1.29c-1.3-2.32-2.58-4.65-3.81-7-.33-.63-.57-.64-1.11-.26-2.57,1.82-4.6,4.22-6.95,6.27-.35.3-.27.66-.2,1,.54,3.3.83,3.65,4.12,4.22A50.1,50.1,0,0,0,20,77.89a77.6,77.6,0,0,1,8.22-.39c.91,0,1.26-.45.87-1.34C28.38,74.5,27.59,72.87,26.79,71.15Z"/><path class="cls-4" d="M20,65.62c.72-.76,1.31-1.41,1.93-2,.19-.21.4-.53.71-.46s.31.53.35.85a34.86,34.86,0,0,0,1.86,7.68c.13,0,.23,0,.27-.06,1.94-1.84,1.94-1.84,3.12.54.41.83.8,1.67,1.18,2.46.3,0,.35-.12.39-.29a61.29,61.29,0,0,0,1.61-16.2.77.77,0,0,0-.59-.81,49.56,49.56,0,0,0-13.44-2.93c-.74-.06-1.13,0-.86.92C17.56,58.71,18.57,62.14,20,65.62Z"/><path class="cls-5" d="M35.77,16.75a26.14,26.14,0,0,0-3.79-1c-.53-.11-.81-.24-.65-.9.44-1.85.73-3.74,1.22-5.57a9.87,9.87,0,0,1,2-4.17,2.33,2.33,0,0,1,2.73-.72,3.76,3.76,0,0,1,2.53,4.29c-.21,2-1.2,3.86-1.79,5.8-.11.37-.33.32-.67.29a10.93,10.93,0,0,1-4.25-1.24,3.9,3.9,0,0,0,4.49,2C37.36,17.31,37.35,17.34,35.77,16.75ZM37.36,13c.25,0,.54,0,.57-.34s-.21-.34-.41-.4l-3-.87A3.56,3.56,0,0,0,37.36,13Z"/><path class="cls-5" d="M56.33,18a2.58,2.58,0,0,1-1-1.42c-.17-.84-.6-.84-1.23-.46a8.84,8.84,0,0,0-4,5.34c-.34,1.18-.57,2.38-.85,3.57a1.06,1.06,0,0,0,.11,1,15.46,15.46,0,0,1,1.86,3.28c.29-1.19,1-2-.47-2.75a2.62,2.62,0,0,1-1.15-2.26l2.13,2.58c.87-1.3.86-1.93-.09-3.18a2.83,2.83,0,0,1-.62-1.86l1.78,2c.34-.67.61-1.15,0-1.74a3.88,3.88,0,0,1-1-1.78c.87.32,1.2,1,1.68,1.4,1.8-1.35-.17-2.81.07-4.31.68.54.79,1.35,1.32,1.91l1.41-1.26Z"/><path class="cls-5" d="M43.65,46.3c-.91-.66-.13-1.1.25-1.5a9.9,9.9,0,0,0,2.59-4.18c-1.27.86-2.64,1.11-3.14,2.8-.46,1.54-1.9,2.53-3.27,3.4-.19.12-.46.35-.65.07s0-.48.22-.65a9.62,9.62,0,0,0,2.63-3.32c-1.38.47-3.13.15-3.65,2.25-.18.75-1.11,1.31-1.69,2l.13.22a15.17,15.17,0,0,0,6.6-1Z"/><path class="cls-6" d="M46.38,59.69a5.45,5.45,0,0,0,.57,4,2,2,0,0,0,.76.82c.33.18.7.41,1.07.24s.13-.61.13-.91a47.77,47.77,0,0,1,.36-6.55c.08-.49.12-1.06-.29-1.28s-.74.29-1.06.55A5.1,5.1,0,0,0,46.38,59.69Z"/><path class="cls-5" d="M12.42,39.8c1.83,1.77,3.12,1.75,5.91-.09a42.1,42.1,0,0,1-5.28-3.62c-.19-.17-.42-.31-.66-.08a5.05,5.05,0,0,1-3.07,1c1.62,2,1.84,2,4.28,1.19.52-.17,1.33-.7,1.54,0s-.59,1.2-1.33,1.37C13.37,39.68,12.92,39.72,12.42,39.8Z"/><polygon class="cls-7" points="31.81 56.48 31.82 56.48 31.82 56.49 31.81 56.48"/><path class="cls-7" d="M6.93,47.88a3.86,3.86,0,0,1-.55,3c-.5,2-.5,2,1.52,1.91s3.93,0,5.89,0l.43,0-.05-.8.05.8a57.83,57.83,0,0,1,7.41.88,48,48,0,0,1,7.56,1.88c.16-.18.32-.38.58-.27s.14.32.12.51l.28.15.67.29c.18-.24.39-.44.71-.37s.32.31.27.56c1.32.29,1.49.83.86,2.77-.15-.3-.22-.65-.64-.65l.06,1a3,3,0,0,1,0,2.49A66.38,66.38,0,0,1,30.68,74a24.58,24.58,0,0,1-1,4.13c-.18.43-.31.83-.87.35-.36-.31-.81-.06-1.21-.05-5,.2-9.94.83-14.93.64a32.23,32.23,0,0,1-6.56-1A13.3,13.3,0,0,0,11,83.52c6,3.91,12.71,5,19.73,4.53a24.22,24.22,0,0,0,9.48-2.46A14.56,14.56,0,0,0,48.63,73.2c.19-2,.19-4,.26-5.94,0-.58,0-1.05-.87-1.15a2.76,2.76,0,0,1-2.21-2A8.06,8.06,0,0,1,47.27,56a2,2,0,0,1,1-.78c1.58-.24,1.61-1.47,1.82-2.62.7-3.92,1.39-7.85,2.1-11.86-.22.08-.33.08-.35.13-2.59,5.72-7.69,7.23-13.26,7.7A42.86,42.86,0,0,1,20,45.6c-.35-.13-.72-.22-1.09-.32a.59.59,0,0,1-.6-.3l-.46-.19a34.88,34.88,0,0,1-9.66-7.08C7.72,41.26,7.32,44.57,6.93,47.88Zm23.85,7.38a.43.43,0,0,1,0,.19A.43.43,0,0,0,30.78,55.26ZM20.72,52.73a3.77,3.77,0,0,0,.9.39A3.77,3.77,0,0,1,20.72,52.73ZM7.35,46.33l.15-.16c0,.07.07.14.06.21s-.09.11-.14.16Z"/><path class="cls-6" d="M49.67,64a13,13,0,0,0,3-5.39,2.84,2.84,0,0,0,.07-1.12,1.46,1.46,0,0,0-1.56-1.21c-.73,0-1,.51-1.14,1.12A34.63,34.63,0,0,0,49.67,64Z"/><path class="cls-5" d="M38.19,19.36a12.91,12.91,0,0,1,2.17,4.51c.13.63.71.78,1.12,1.09.7.53,1.44,1,2.17,1.52a7.41,7.41,0,0,0-5.22-7.28Z"/><path class="cls-5" d="M39,23.11c-1.76-4.15-2-4.95-5.24-5.61C35,19.88,35.55,22.87,39,23.11Z"/><path class="cls-5" d="M28.32,16.58a7.07,7.07,0,0,1,2.07,2.92c.16.48.51.61.93.73.89.24,1.78.51,2.67.77C33.73,18.13,31.89,16.65,28.32,16.58Z"/><path class="cls-5" d="M29.08,19.57c-1.2-3.06-2.32-3.62-6.14-3.07C25.26,19.05,26.23,19.53,29.08,19.57Z"/><path class="cls-5" d="M20.17,44.25c3.16,1.53,4.37,1.29,6.22-1.12-.82-.61-1.89-.6-2.77-1.09a.35.35,0,0,0-.53.13C22.52,43.32,21.37,43.69,20.17,44.25Z"/><path class="cls-5" d="M15.54,42.08c3.51,1.92,2.76,2.47,6.65-.49l-2.36-1.16a.52.52,0,0,0-.68.11A5.28,5.28,0,0,1,15.54,42.08Z"/><path class="cls-5" d="M23.78,19.09c-2.06-2.81-2.67-3-5.76-1.52C19.4,19.92,21.68,19,23.78,19.09Z"/><path class="cls-5" d="M43.67,46.34a3.47,3.47,0,0,0,2.71-1.53,13.08,13.08,0,0,0,2.81-6.34c-.83.73-1.55,1.15-1.82,2.29a10.39,10.39,0,0,1-3.72,5.54Z"/><path class="cls-5" d="M37.94,44c-.79,0-1.45.06-2.12.06-.31,0-.7.05-.75.33-.24,1.34-1.24,2.1-2.36,2.85C35.24,48.28,36.76,46.34,37.94,44Z"/><path class="cls-5" d="M28.83,46.66c2.69.57,3.79.06,5.37-2.43L31.57,44a.47.47,0,0,0-.49.32A8.54,8.54,0,0,1,28.83,46.66Z"/><path class="cls-5" d="M46.38,24.32a30.37,30.37,0,0,1,1.21,5.34c.1,1,1.16,1.47,1.83,2.5-.1-1.74-.78-3.12-.83-4.52-.06-1.72-1.17-2.42-2.23-3.3Z"/><path class="cls-5" d="M50.87,40.64c-.45.35-.55,1-1.39,1.3.74-2.14,2.16-4,1.74-6.59-.66,1.36-1.41,2.27-1.41,3.71,0,1.9-1,3.64-2.14,5.55a7.32,7.32,0,0,0,3.18-4Z"/><path class="cls-5" d="M30,43.85a11.66,11.66,0,0,1-1.46-.32c-.77-.28-1.31-.27-1.68.63a3,3,0,0,1-2,1.52C27.43,46.74,27.74,46.64,30,43.85Z"/><path class="cls-5" d="M43.51,22.33a17.49,17.49,0,0,1,1.4,4.81c.06.9.94,1,1.56,1.7A17.57,17.57,0,0,0,45.64,25c-.14-.74,0-.93.74-.69l0,0a8.11,8.11,0,0,0-2.59-2.18Z"/><path class="cls-5" d="M11.91,35.15A13.67,13.67,0,0,1,11,34.07c-.37-.54-.69-.77-1.26-.18-.37.39-.85.13-1.25-.11-.05.09-.13.15-.14.21-.1,2.13-.1,2.14,2,1.61C10.8,35.48,11.27,35.33,11.91,35.15Z"/><path class="cls-5" d="M55.89,24.88a6.88,6.88,0,0,0,2.59-4.69c.12-.81-.2-1-1-1.11a8.09,8.09,0,0,1-1.7,5.65Z"/><path class="cls-5" d="M49.27,28.2c.93,1.8.39,3.94,1.31,5.74a7,7,0,0,0-1.08-5.87Z"/><path class="cls-5" d="M56.32,17.93c.32-.07.64-.17,1-.21s.63,0,1,0c-.54-1.76-1.15-2.22-2.82-2.07.24.81,1.17,1.35.9,2.31Z"/><path class="cls-5" d="M18.15,19.36c-1.31-1.58-1.31-1.58-3-.49C16.53,20,16.53,20,18.15,19.36Z"/><path class="cls-5" d="M11.66,21.7l3.22-1.38c-.91-.95-2.14-.37-3.21,1.4Z"/><path class="cls-5" d="M8.41,30.39c0,.5-.05,1-.05,1.51,0,1.4,0,1.4,1.45.78L8.52,30.34Z"/><path class="cls-7" d="M32,58.6c.42,0,.49.35.64.65.63-1.94.46-2.49-.87-2.77C31.89,57.19,32,57.89,32,58.6Z"/><path class="cls-5" d="M38.58,16.1a14.16,14.16,0,0,0,1.82-3.91C39.82,13.38,38.89,14.41,38.58,16.1Z"/><path class="cls-5" d="M51.91,32.51a3.11,3.11,0,0,0,.1,2.75C52.63,34.31,52,33.54,51.91,32.51Z"/><path class="cls-5" d="M52.67,28l1.58-1.49C53.42,26.58,52.58,26.68,52.67,28Z"/><path class="cls-7" d="M6.38,50.91a3.86,3.86,0,0,0,.55-3C6.74,48.89,6.56,49.9,6.38,50.91Z"/><path class="cls-7" d="M32.13,62.11a3,3,0,0,0,0-2.49A7.71,7.71,0,0,0,32.13,62.11Z"/><path class="cls-7" d="M31.82,56.5c.05-.26.06-.51-.27-.58s-.53.13-.71.37C31.07,56.79,31.5,56.4,31.82,56.5Z"/><path class="cls-7" d="M29.89,55.85c0-.19.13-.42-.12-.51s-.42.09-.58.27Z"/><path class="cls-5" d="M55.28,25.56l.61-.68-.11-.15c-.2.24-.52.38-.59.73Z"/><path class="cls-8" d="M18.27,45a.59.59,0,0,0,.6.3A.69.69,0,0,0,18.27,45Z"/><path class="cls-5" d="M50.85,40.61l.19-.13-.17.16Z"/><path class="cls-5" d="M8.52,30.34c0-.13.08-.37-.11-.34s-.12.26,0,.39Z"/><path class="cls-5" d="M43.77,22.16c-.08-.18-.25-.3-.38-.2s0,.27.12.37Z"/><path class="cls-5" d="M55.19,25.46c-.26.06-.39.2-.34.48v0c.25,0,.34-.17.44-.35Z"/><path class="cls-5" d="M38.43,19.2c-.1-.2-.24-.3-.47-.2.08.12.16.24.23.36Z"/><path class="cls-8" d="M36.94,47.13c-.11,0-.26,0-.19.19s.21,0,.32,0A2.53,2.53,0,0,1,36.94,47.13Z"/><path class="cls-5" d="M54.85,25.94l-.26,0,0,.11.22-.16Z"/><path class="cls-5" d="M11.67,21.72l-.18,0,0,.16.14-.16Z"/><path class="cls-5" d="M49.5,28.07c-.06-.08-.15-.24-.18-.23-.21.08-.08.23,0,.36Z"/><path class="cls-2" d="M34.52,11.42A3.56,3.56,0,0,0,37.36,13c.25,0,.54,0,.57-.34s-.21-.34-.41-.4Z"/><path class="cls-9" d="M7.35,46.33l.07.21s.13-.1.14-.16,0-.14-.06-.21Z"/></g></g></svg>