<svg xmlns="http://www.w3.org/2000/svg" viewBox="0 0 190.15 135.27"><defs><style>.cls-1,.cls-2{fill:#fff;stroke:#ccc;}.cls-1{stroke-miterlimit:10;}.cls-2{stroke-linecap:round;stroke-linejoin:round;}.cls-3{fill:#2e4999;}.cls-4{fill:#b5ddc2;}.cls-5{fill:#4ec8b1;}.cls-6{fill:#f5cb91;}.cls-7{fill:#ea7494;}.cls-8{fill:#ecf0f2;}</style></defs><g id="圖層_2" data-name="圖層 2"><g id="素材"><path class="cls-1" d="M127.93,63a2.86,2.86,0,0,1-.4.47l-1.23,1.42a81.81,81.81,0,0,1-14-4.38c.11,0,.2-.18.31-.17,3.54.55,6.93,1.1,10.48,1.8,1.42.28,3.12.58,4.61.79C127.8,62.91,128,62.82,127.93,63Z"/><path class="cls-1" d="M16.44,95.3s.2-.2.17-.25,0,0,0,0S16.4,95.25,16.44,95.3Z"/><path class="cls-1" d="M23.16,87c-.05,0,.05,0,0,0Z"/><path class="cls-1" d="M72,128.21h0Z"/><path class="cls-1" d="M108.16,92.15a2.77,2.77,0,0,0,.41-.05,2.79,2.79,0,0,0-.71,0C107.69,92.18,108,92.11,108.16,92.15Z"/><path class="cls-1" d="M108.57,92.1a.54.54,0,0,1,.27.09A.33.33,0,0,0,108.57,92.1Z"/><path class="cls-1" d="M72,128.19h0S72.06,128.18,72,128.19Z"/><path class="cls-1" d="M72.05,115.82s.12,0,.07,0H72s0,.09,0,.08A.24.24,0,0,0,72.05,115.82Z"/><path class="cls-1" d="M86.41,114.18s0,0,0,0a3,3,0,0,0-1.87-1.86A3.11,3.11,0,0,1,86.41,114.18Z"/><path class="cls-2" d="M189.08,50.8c-.9-5.59-2.94-11.15-6.77-15.34l-.22-.24c-3.83-4-9.51-6.54-15-5.65-5,.82-9.14,4.19-13.35,7a73.3,73.3,0,0,1-34.13,12.16q.61-7.36,1.25-14.75a70.63,70.63,0,0,0,17.18-3,8.31,8.31,0,0,0,4.17-2.28c1.48-1.79,1.33-4.37,1.09-6.68C142.49,14,140.57,4.4,133,1.43c-2.92-1.15-6.17-1-9.28-.72-21.7,2.14-42.54,12.08-64.31,10.76-6.72-.41-13.4-1.9-20.13-1.63-5.35.22-11,1.76-15,5.44a5.45,5.45,0,0,0-2,2.71c-.19,1,0,2.19-.12,3.26-.41,3.48-.85,7-1.28,10.44-.25,2-.49,4-.74,6.05-.29,2.39-.58,4.87.21,7.14,1.64,4.7,7.49,6.79,12.38,5.86s9-4.06,12.95-7.11A75.77,75.77,0,0,1,7.65,78c-2.51,1-5.3,2.11-6.52,4.52C0,84.7.57,87.35,1.28,89.72a63.38,63.38,0,0,0,63.59,45c7.71-.36,15.51-2.21,21.94-6.47S98.18,117.09,99,109.41c.71-6.91-4.08-12.56-8.09-18.24s-8.42-9.29-12.45-16c4.18-1.21,6.11-2.37,7.94-2.69C91.76,71.5,97.45,78.2,111,82c-6.89,7.09-10.84,12.7-11,14.65-.25,3.59,9,12.67,14.43,15.3,8.93,4.36,20,4.37,29.84,2.65,9.42-1.65,17.89-7,24.91-13.46C183,88.39,192.07,69.36,189.08,50.8ZM41.84,99.93a99.53,99.53,0,0,1-14.68-6.26c4.57-1.52,6.3-2.73,13.22-4.84a41.18,41.18,0,0,1,10.95-2A10.61,10.61,0,0,1,57,88.17l4.75,2.65a10.1,10.1,0,0,1,1.82,1.28c4.93,4.41,8.62,9.62,9.23,16.81C63.91,108.26,50.59,102.59,41.84,99.93ZM66.51,62.74A88,88,0,0,1,56.14,66.8c-5.64,1.52-10.35,1.77-15.52,4,.18-.35.2-.6.38-.95a12.22,12.22,0,0,1,2.68-3.41c.25-.24.71-.62.94-.83l.6-.53c7.66-7.08,14.84-13.78,21-22.26.28-.38.61-.88.91-1.26,2.4,0,4.77.09,7.18.11l2,0A72.91,72.91,0,0,0,81,52.22a32,32,0,0,1,2,4.32C77.55,58.33,71.66,60.55,66.51,62.74Zm83.26,5.46a59.35,59.35,0,0,0,.62-7.88A27.16,27.16,0,0,1,153,59c.83-.38,1.54-.55,2.34-.9A71.44,71.44,0,0,1,149.77,68.2Z"/><path class="cls-1" d="M120.55,85.18Z"/><path class="cls-3" d="M141.5,93.56h0s0,.07,0,.07,0-.06,0-.07h.05Z"/><path class="cls-3" d="M26.73,87.16s0,0,0,0h0v0h0s0,0,0,0Z"/><path class="cls-3" d="M68.2,26.37h0a0,0,0,0,1,0,0,0,0,0,0,0,0,0h0v0s0,0,0,0Z"/><path class="cls-3" d="M44.35,32.54a22.37,22.37,0,0,0,3.17,0C46.46,32.52,45.41,32.57,44.35,32.54Zm127.12,2.72a2.87,2.87,0,0,1,2,.35A2.77,2.77,0,0,0,171.47,35.26Zm10.95,36.08A60,60,0,0,1,177,85a59.9,59.9,0,0,0,5.47-13.68,50.82,50.82,0,0,0,.89-16A51.06,51.06,0,0,1,182.42,71.34ZM139.31,81.45c-.18,1.06-.32,2-.42,3.06.11-1.05.26-2,.43-3.06.25-1.53.42-3.15.74-4.69C139.73,78.3,139.56,79.92,139.31,81.45Zm3.78,28.46c1.39-.18,2.79-.37,4.18-.63C145.88,109.53,144.48,109.73,143.09,109.91Zm-30.44-74.8c.21.07.14.55.14.55S112.87,35.17,112.65,35.11Zm24.68,55.25c-.07-1.69,0-3.37,0-5.06C137.28,87,137.25,88.67,137.33,90.36ZM108.25,53.5a7.26,7.26,0,0,0,3.44-1.06A11.43,11.43,0,0,1,108.25,53.5Zm21.13,28.57-.07,0a7,7,0,0,0-3.34-.36c.46,0,1.42,0,1.76,0l.47,0a1.58,1.58,0,0,1,.21,0,1.77,1.77,0,0,1,.3.06l.5.16.06,0,.18.07S129.38,82.08,129.38,82.07ZM126,81.69c1.49,2.15,3.53,2.7,6,3.19A20.76,20.76,0,0,1,126,81.69Zm-.14,0c0-.86.69-1.16,1.37-1.52C126.52,80.42,125.32,80.75,125.81,81.65ZM124.5,83c-.27-.83.68-1.09,1.31-1.33C125.07,81.83,124,82.06,124.5,83Zm15,22.78a2.45,2.45,0,0,0,0,.85,2.74,2.74,0,0,1,0-.85c.07-.39.18-1.08.26-1.52C139.68,104.7,139.57,105.39,139.5,105.78Zm-6.84-6.6c1.18.72,2.35,1.45,3.52,2.19C135,100.62,133.84,99.9,132.66,99.18ZM108.53,93.8c.11,0,.68-.07.77.13s.07,0,0-.06a2.61,2.61,0,0,0-1-.09C108.13,93.84,108.42,93.79,108.53,93.8ZM84.92,114a3.08,3.08,0,0,1,1.86,1.89s0,0,0,0A3,3,0,0,0,84.92,114Zm1.77,3.77a4,4,0,0,0,.18-1.42A4.86,4.86,0,0,1,86.69,117.72ZM79.92,32.21c1.69-.06,3.38-.05,5.08,0C83.3,32.15,81.61,32.14,79.92,32.21Zm-5.84-7.47a5.11,5.11,0,0,1,2.41,1A3.19,3.19,0,0,0,74.08,24.74ZM63.17,34.09c2.06,0,4.11,0,6.17,0C67.28,34.11,65.23,34.12,63.17,34.09ZM51.35,126.92q3,.94,6.09,1.66C55.39,128.09,53.36,127.55,51.35,126.92ZM43.93,32.47h0s0,0,0,0h0l.19,0h.23a21,21,0,0,0,3.17-.06h.1l.36,0C46.6,32.15,45.22,31.69,43.93,32.47Zm-4.49-4.85c1.42.22,2.81.63,4.25.75A23,23,0,0,0,39.44,27.62Zm-.12.15c0,.46.12.92-.3,1.22C39.62,28.73,39.52,28.31,39.32,27.77Zm-16,58c.43.15.72.18.93-.27A1.43,1.43,0,0,1,23.33,85.73ZM14.91,105.2c-.11-.84-.15-1.82-.19-2.68,0,.87.07,1.84.18,2.68a8.61,8.61,0,0,0,.65,2.24A9.12,9.12,0,0,1,14.91,105.2Z"/><path class="cls-3" d="M26.65,87.18h0s0,0,0,0Z"/><path class="cls-3" d="M166,35.31s.29-.09.28-.12S166,35.27,166,35.31Z"/><path class="cls-3" d="M166.5,35.34s0,0,0,0,0,0,0,0,0-.06,0-.06S166.5,35.33,166.5,35.34Z"/><path class="cls-3" d="M166.09,35.58s.18,0,.2-.07S166.08,35.56,166.09,35.58Z"/><path class="cls-3" d="M141.45,93.53s0,0,0,0,0,0,0,0,0,.1.05.1,0,0,0,0h0s-.06-.07,0-.08h0s0,0,0,0,0-.13,0-.13S141.46,93.52,141.45,93.53Z"/><path class="cls-3" d="M112,52.42s.21-.16.22-.2S112,52.4,112,52.42Z"/><path class="cls-3" d="M111.77,52.37c.06,0,.22-.19.22-.21S111.72,52.35,111.77,52.37Z"/><path class="cls-3" d="M108.75,33.56s0,0,0,0a.47.47,0,0,0,.17,0s0,0,0,0A.26.26,0,0,0,108.75,33.56Z"/><path class="cls-3" d="M108.91,33.56s0,0,0,0v0S108.92,33.56,108.91,33.56Z"/><path class="cls-3" d="M109.39,36.82s0,.08,0,.09,0-.08,0-.09Z"/><path class="cls-3" d="M108.88,34.21a1,1,0,0,0,0,.18s.13.12.08.1A.94.94,0,0,1,108.88,34.21Z"/><path class="cls-3" d="M103.6,37.82a6.11,6.11,0,0,1,.86.08A8.08,8.08,0,0,0,103.6,37.82Z"/><path class="cls-3" d="M101.9,42.8c.08,0,.56,0,.56,0A1.62,1.62,0,0,0,101.9,42.8Z"/><path class="cls-3" d="M101.84,44.39c.29-.16.6-.28.91-.42A9.41,9.41,0,0,0,101.84,44.39Z"/><path class="cls-3" d="M100.81,42.7a1.06,1.06,0,0,0,.28-.06S100.84,42.68,100.81,42.7Z"/><path class="cls-3" d="M101,43.15s.37-.14.35-.17S101,43.13,101,43.15Z"/><path class="cls-3" d="M119.69,89.13s0,0,0,0,0,0,0,0,0,0,0,0S119.7,89.11,119.69,89.13Z"/><path class="cls-3" d="M119.73,89.14h0s0,0,0,0h0s.06.06.08.07.07.07.07,0-.09-.09-.08-.12,0,0,0,0,0,0,0,0A.18.18,0,0,0,119.73,89.14Z"/><path class="cls-3" d="M119.67,89.14s0,0,0,0h0Z"/><path class="cls-3" d="M100.62,43s0-.08,0-.08,0,.08,0,.09,0,0,0,0S100.62,43,100.62,43Z"/><path class="cls-3" d="M98.12,32.24s0,0,0,0,0,0,0,0S98.13,32.23,98.12,32.24Z"/><path class="cls-3" d="M98.12,32.26s0,0,0,0h0c-.07,0-.41-.24-.43-.14s.38.3.47.18S98.12,32.28,98.12,32.26Z"/><path class="cls-3" d="M96.6,30.73s0,.05,0,.06a.44.44,0,0,0,.11.09S96.63,30.74,96.6,30.73Z"/><path class="cls-3" d="M96.62,30.8s-.05,0-.06-.05,0,0,0,0,.09.26.13.26S96.63,30.82,96.62,30.8Z"/><path class="cls-3" d="M96.53,30.6s0,.06,0,.08l0,0S96.56,30.59,96.53,30.6Z"/><path class="cls-3" d="M96.45,30.64s.07.12.09.1,0,0,0-.06S96.46,30.62,96.45,30.64Z"/><path class="cls-3" d="M117.38,94.82h0v0Z"/><path class="cls-3" d="M117.24,94.84s.11,0,.12,0S117.22,94.82,117.24,94.84Z"/><path class="cls-3" d="M117.13,95s0,0,0,0,.07,0,.08-.06,0,0,0,0S117.11,95,117.13,95Z"/><path class="cls-3" d="M117.23,95s0,.08,0,.08,0-.08,0-.09S117.23,95,117.23,95Z"/><path class="cls-3" d="M117.19,95.08s0,.06.06.06,0,0,0,0,0-.07,0-.08S117.19,95.07,117.19,95.08Z"/><path class="cls-3" d="M90.88,33.21a7.83,7.83,0,0,1,1.28-.14A7.83,7.83,0,0,0,90.88,33.21Z"/><path class="cls-3" d="M79.6,26.23s-.07.12,0,.13,0-.1.06-.12l.06,0S79.61,26.22,79.6,26.23Z"/><path class="cls-3" d="M79.65,26.51s.24.17.26.14S79.66,26.49,79.65,26.51Z"/><path class="cls-3" d="M75.6,113.5a.75.75,0,0,0-.24.08l.21,0h.05S75.64,113.49,75.6,113.5Z"/><path class="cls-3" d="M73.63,116.24s1.42-1.59,1.39-1.6A19.19,19.19,0,0,0,73.63,116.24Z"/><path class="cls-3" d="M72.23,116.35a10.37,10.37,0,0,0,1.12-1.18A10.42,10.42,0,0,0,72.23,116.35Z"/><path class="cls-3" d="M72.26,117.54s.22-.27.23-.32S72.22,117.51,72.26,117.54Z"/><path class="cls-3" d="M72,116.83s0,0-.06,0S71.93,116.79,72,116.83Z"/><path class="cls-3" d="M73.8,24.54s.17.2.21.17S73.84,24.54,73.8,24.54Z"/><path class="cls-3" d="M73.66,24.68s.2.2.22.17S73.7,24.69,73.66,24.68Z"/><polygon class="cls-3" points="68.17 26.43 68.17 26.44 68.18 26.45 68.18 26.43 68.18 26.43 68.17 26.43"/><path class="cls-3" d="M68.08,26.35a2.17,2.17,0,0,0-.44-.11,1.24,1.24,0,0,0,.48.13C68.18,26.37,68.13,26.36,68.08,26.35Z"/><path class="cls-3" d="M72.39,129.76c0,.05,0,0,0,0h0a.33.33,0,0,0,.14,0s.2,0,.17,0S72.41,129.72,72.39,129.76Z"/><path class="cls-3" d="M72.56,129.81s-.1,0-.09,0,.21,0,.19,0S72.59,129.81,72.56,129.81Z"/><path class="cls-3" d="M72.4,129.83h0v0h0a0,0,0,0,0,0,0Z"/><path class="cls-3" d="M72.38,129.83s0,0,0,0,0,0,0,0,0,0,0,0h.06Z"/><path class="cls-3" d="M63.63,22.2a6.31,6.31,0,0,1,.65.4A3.34,3.34,0,0,0,63.63,22.2Z"/><path class="cls-3" d="M39.27,18.68c1.17.07,2.34.15,3.51.2C41.61,18.83,40.44,18.75,39.27,18.68Z"/><path class="cls-3" d="M43.87,32.47h0s-.09,0-.08,0,.09,0,.1,0,0,0,0,0Z"/><path class="cls-3" d="M31.7,24.56c.45.33.91.62,1.38.91C32.61,25.18,32.15,24.88,31.7,24.56Z"/><path class="cls-3" d="M29.2,21.29a6.86,6.86,0,0,0,.43,1A10.38,10.38,0,0,1,29.2,21.29Z"/><path class="cls-3" d="M26.67,87.1s0,0,0,0,0,0,0,0,0,0,0,0,.11,0,.09,0S26.68,87.07,26.67,87.1Z"/><path class="cls-3" d="M26.74,87.16l0,0,0,0s.1,0,.1,0S26.76,87.16,26.74,87.16Z"/><path class="cls-3" d="M26.67,87.18h0s0,0,0,0v0Z"/><path class="cls-3" d="M26.66,87.18s0,0,0,0h0s0,0,0,0,0,0,0,0,0,0,0,0Z"/><path class="cls-3" d="M24.39,85.42c0,.09.4,0,.39,0S24.39,85.33,24.39,85.42Z"/><path class="cls-3" d="M24.17,84.67s-.07.41,0,.42S24.21,84.65,24.17,84.67Z"/><path class="cls-3" d="M23.81,85a1.43,1.43,0,0,0-.37-.19.3.3,0,0,0-.15,0s-.16,0-.06,0,.68.38.8.35S23.85,85.06,23.81,85Z"/><path class="cls-3" d="M23.1,85.63s0-.07-.05-.06,0,.06.05.07.06.06.07,0S23.12,85.63,23.1,85.63Z"/><path class="cls-3" d="M17.18,87.66s0,0,0,0,0,0,0,0,.11,0,.1,0S17.2,87.65,17.18,87.66Z"/><path class="cls-3" d="M17.62,85.21s0,0,0,0h0Z"/><path class="cls-3" d="M7.61,92.15c.25-.4.48-.82.75-1.2C8.08,91.33,7.86,91.74,7.61,92.15Z"/><path class="cls-3" d="M129.38,82.07l-.07,0h0a1.46,1.46,0,0,0,.19.07Z"/><path class="cls-3" d="M177.48,38.05a13.16,13.16,0,0,0-8.8-4.21c-6.13-.3-11.38,4-16.51,7.36a64.89,64.89,0,0,1-37.58,10.51l1.06-17.33a4.51,4.51,0,0,1,.83-2.82,4.53,4.53,0,0,1,2.58-1.12l13-2.59c2.25-.45,4.73-1.05,6-3s.89-4.11.57-6.22c-.78-5.14-2.09-11-6.74-13.38-2.67-1.34-5.84-1.12-8.8-.75-21.31,2.69-41.91,11.7-63.36,10.68-6.17-.29-12.29-1.32-18.47-1.37a37,37,0,0,0-9,.91c-1.82.45-5.68,1.14-6.08,3.38a13,13,0,0,0,.32,3.56,38.77,38.77,0,0,1,.18,4.82A38.34,38.34,0,0,1,25.32,36c-.59,2.12-1.38,4.36-.75,6.47,1,3.5,5.53,4.87,9.07,3.94S40,43,43,41s6.68-3.79,10.21-2.87A156.73,156.73,0,0,1,28.07,71.89c-3.53,3.6-7.48,7.17-12.39,8.25-4.07.9-9.69.93-10.61,5a7.62,7.62,0,0,0,.28,3.44,56.32,56.32,0,0,0,67,41.22c5.67-1.28,11.26-3.52,15.57-7.43s7.18-9.67,6.65-15.47C94,100,89,94.47,84.19,89.47L71.92,76.6c-.73-.76-1.51-1.83-1-2.77a2.59,2.59,0,0,1,1.55-1.06L90,66.31a6.09,6.09,0,0,1,3.44-.55c2.54.6,3.47,2.38,5.36,4.18a25.33,25.33,0,0,0,9.8,5.7c3.4,1.1,6,1,9.31,2.27a1.85,1.85,0,0,1,1.1.82c.31.68-.22,1.43-.73,2q-7.41,8.25-15.5,15.85c2.78,8.37,12.41,12.12,21,13.94,7.14,1.5,14.57,2.42,21.71.94,8.69-1.8,16.35-7,22.52-13.43,11.75-12.17,18.76-29.56,16-46.24A26.24,26.24,0,0,0,177.48,38.05Zm-63.39,6a4.71,4.71,0,0,1-.08,1.15c-.28,2.55-2.07,3-4.17,3.67-1,.29-1.36-.28-1.2-1,.3-1.28.8-1,1.88-1.22a6.43,6.43,0,0,0,3-1.43c-2.19.15-4.53.66-3.71-2.25a5.54,5.54,0,0,0,1.84-.07C113.25,42.31,114,42.45,114.09,44Zm-11.66,6.31c-.52.12-1.12.62-1.36,0s.45-1,1-1.18a3.87,3.87,0,0,0,1.49-1c-.48-.55-1.43-.27-2-.18s-.84.13-.89-.34.47-.57.86-.65c1.27-.25,2.39-.79,2.52,1a25.22,25.22,0,0,0,.5,3.37.82.82,0,0,1-.79.9c-.53.05-1.83.83-2.11,0s1.18-1,1.6-1.17a9.46,9.46,0,0,0,.84-.55A2,2,0,0,0,102.43,50.35ZM87.71,42.22c-1.37-4.23.25-5.44,4.22-6.15a1.48,1.48,0,0,1,1.37.47,5,5,0,0,0,2.24,1.14c2.63.41,3.51,1.52,3.33,4a46,46,0,0,0,.31,10.7c.19,1.31-.72,1.72-1.77,2.11s-2,1.22-2.93,0A47.4,47.4,0,0,1,87.71,42.22Zm5.21,14a9.83,9.83,0,0,1-2.68,1.36.75.75,0,0,1-1.16-.37c-1.48-3.66-3.47-6.52-5.38-10-.37-.67-.88-1.46.62-1.78,1-.22,2-1.12,2.91.61,1.57,2.9,3.41,6.37,5.1,9.37C92.48,55.72,92.79,56,92.92,56.23ZM91,28.8a2.29,2.29,0,0,1,1.42.39,2.38,2.38,0,0,1,.52.53c.25.3.56.83.82,1.18A6.86,6.86,0,0,1,91,28.8ZM96.15,36a8.15,8.15,0,0,1,3.24-.77c.41,0,.83,0,.83.44s-.37.62-.81.61C98.35,36.23,97.22,36.07,96.15,36Zm.39-5.38a.27.27,0,0,0,.06.12l.17.18a14.43,14.43,0,0,0,1.28,1.3c.21.14,0,0,0,0s0,0,.06,0h0s.06,0,0,0,0,0-.09,0-.46-.13-.5-.2,0,0,0,0a2.35,2.35,0,0,1-.89-1c0-.08-.1-.21-.14-.28a.37.37,0,0,0-.11-.13,3.78,3.78,0,0,1-1.35-1.82,3.7,3.7,0,0,1,1.44,1.76S96.52,30.57,96.54,30.6Zm7.36-1c-.34-.33-.78-.73-.27-1.09a.85.85,0,0,1,1.29.39,16.72,16.72,0,0,1,1.76,4.82,14.11,14.11,0,0,1-8.22-4.35c1.67-.21,2.45-.38,3.66,1.05a5.38,5.38,0,0,0,3.49,1.78A6.59,6.59,0,0,0,103.9,29.56ZM103.77,39c.46-.16,1-.3.9.41-.06.38-.25.51-.83.54a28.54,28.54,0,0,0-3.62.9A16.42,16.42,0,0,1,103.77,39ZM101,37.85a15.45,15.45,0,0,1,3.67-1c.48-.1.67,0,.63.44a.69.69,0,0,1-.75.64c-.37,0-.54-.08-.93-.08s-.89,0-1.31,0A9.55,9.55,0,0,1,101,37.85Zm6.6-.67a33.89,33.89,0,0,1-1.15,12.23A29.92,29.92,0,0,1,107.55,37.18Zm-7,8.4a.77.77,0,0,1,.09-.48.41.41,0,0,1,.16-.18.77.77,0,0,1,.2-.13l.43-.18a3.8,3.8,0,0,0,.44-.23c.18-.12.67-.31.83-.39a.87.87,0,0,0,.25-.14.85.85,0,0,0,.17-.16.73.73,0,0,0,.11-.4c0-.1,0,0,0-.09a.51.51,0,0,0-.17-.28.49.49,0,0,0-.15-.09s-.07,0-.12,0l-.12,0h-.16a4.4,4.4,0,0,0-.64,0h-.07l-.23.06a.22.22,0,0,0-.14.06s0,0,0,0a1.08,1.08,0,0,1-.4.2h-.13a.22.22,0,0,1-.19-.11s0,0,0,0a.13.13,0,0,1,0-.1s0,0,0-.07a.29.29,0,0,1,.19-.14l.33-.08h0s0,0,.13-.06.49-.33.67-.41a2.11,2.11,0,0,1,.47-.19c.19-.05.18-.12.46-.13s.86-.12,1.13.23a1.72,1.72,0,0,1,0,2.5C103.12,45.4,101.7,45.51,100.54,45.58Zm6.21,8.62c.26-.87.82-.75,1.48-.71a9.45,9.45,0,0,0,3.31-1l.14-.06h0l0,0s0,0,0,0a.81.81,0,0,1,.25-.24l0,0h.08s0,0,.07,0,0,0,.06.06-.19.21-.24.23H112c-1.29,1.31-2.64,2.55-4.46,2.79C106.51,55.36,106.6,54.71,106.75,54.2Zm.78-1.77c.53-1.67.87-2.06,2.78-2.22a9.89,9.89,0,0,0,3-1.11C112.15,51.61,110.07,51.89,107.53,52.43Zm5.86-11.27a11.27,11.27,0,0,1-3.63.53c-.45,0-.28-.67-.13-1a.69.69,0,0,1,.77-.46A4.77,4.77,0,0,0,113,39.7c.57-.32.94-.67,1.12,0S114.35,40.86,113.39,41.16Zm.53-4.47c.13.65.3,1.64-1,1.73s-3,.74-3.49-1.06a1.19,1.19,0,0,1,0-.41c0-.11,0-.08,0-.13h0l.09,0a3.3,3.3,0,0,1,1.14-.17,2.18,2.18,0,0,0,2.13-.87.56.56,0,0,0-.11-.64c-.09-.12-.09-.07-.13-.09a4.28,4.28,0,0,0-1.35-.17c-.38,0-.82,0-1.06,0s-.39.08-.42,0,0,0,0,0l-.27-.06-.15-.05a.67.67,0,0,1-.14-.09.38.38,0,0,1-.09-.09.73.73,0,0,1-.1-.13.65.65,0,0,1,0-.2.71.71,0,0,1,0-.14v-.13s0-.12,0-.16a.47.47,0,0,0,0-.16s0,0,0,0-.12,0-.15,0,0,0,0,0a.26.26,0,0,1,.19-.05h0s0,0,0,0,0,0,0,0a2.74,2.74,0,0,0,1.78-.37l.22-.07a4.36,4.36,0,0,0,.52-.21,1.18,1.18,0,0,0,.29-.23.62.62,0,0,0,.11-.17.87.87,0,0,0,0-.21.37.37,0,0,0-.25-.35,2.11,2.11,0,0,0-.33,0c-.12,0-.26,0-.35,0a.67.67,0,0,1-.2,0l-2-.22c-.67-.07-1.23-.45-1.1-1.16s.8-.36,1.32-.46a13.73,13.73,0,0,0,1.68-.49c.47-.16,1-.2.92-.74s-.69-.34-1.12-.28c-.89.12-2.1.21-3,.27a1.14,1.14,0,0,1-1.38-1c-.16-.71.84-.62,1.18-.67,2.7-.33,4.27-.51,5.32,2.33C113.46,31.76,113.41,34.09,113.92,36.69Zm3.48-10.4a5.48,5.48,0,0,1-2.57,4.36,21.72,21.72,0,0,0-1.31-2.8.84.84,0,0,1,0-1c.15-.22.46-.42.55-.38.56.24.59.44.58,1s-.13,1.06.48,1.41a3.79,3.79,0,0,0,1-2.4.63.63,0,0,1,.58-.6C117.1,25.85,117.47,25.84,117.4,26.29Zm.64,2.45c1.08-1.94,1.29-3.17,3.64-3.7C120.91,27.07,120.21,28.15,118,28.74Zm7-3.26c-.54,1.42-1.06,2.12-2.65,2.27a8.89,8.89,0,0,0,.77-2.37c.17-.84.72-1.39,1.58-1.21S125.24,24.86,125,25.48Zm4.34-1.81c0,2.28-.83,2.91-3,3.32.27-1,.53-2.33.79-3.23s.82-1.06,1.52-1.15S129.33,23.27,129.34,23.67Zm1.09,2.7c.47-2.33.21-4.46,2-6.29C133.06,22.89,133.23,25,130.43,26.37Zm5.25-10.91c.25,2.67.61,5.24.86,7.94.07.81-1,1.32-1.73,1.5C134.36,21.53,133.87,18.5,135.68,15.46Zm-4.27-8.72c3.43,1.66,3.44,3.56.83,6.34A21.72,21.72,0,0,1,125,17.86a133.43,133.43,0,0,1-13.71,4.54,2.42,2.42,0,0,1-2.37-.2,142.6,142.6,0,0,0,16-6.43A11,11,0,0,0,129,13c1.74-2.28,1.59-4.13-.84-5.64-1.69-1-3.86-.62-5.73-.87C125.27,6.24,128.78,5.46,131.41,6.74ZM122.9,8c1.32-.13,3-.44,4.14.13,2.15,1.05,2.57,1.89.63,3.81a25.36,25.36,0,0,1-7.6,4.67c-3.57,1.56-7.75,3-11.51,4.28-2,.71-3.65,2.24-5.82,2.47a49.71,49.71,0,0,1-9.37-.15c-3.71-.31-7.26-1-10.91-1.6-.61-.1-1.19-.23-1.79-.35-1.2-.24-2.38-.49-3.58-.75s-2.43-.58-3.61-.87c4.29-.86,9.1-1.48,13.31-2.29,7.93-1.51,15.31-3.82,22.93-6.06,4-1.18,8-2.23,12-3.08A9.2,9.2,0,0,1,122.9,8Zm-2.2-1.28c-9.47,2.55-18.64,5.63-28.24,7.8C86.14,15.92,79.55,16.78,73.13,18c-3,.58-6-.25-9-.94A513,513,0,0,0,120.7,6.69ZM32.12,16.55c2.72-.24,5.15-.63,7.93-.75a77.91,77.91,0,0,1,22.41,2.44c.7.18,1.48.45,2.2.67,1.44.43,3,.88,4.41,1.27S72,21,73.4,21.36c2.1.53,4.3,1.07,6.33,1.49s3.85.73,5.81,1.06c1.3.21,2.46.4,3.74.56.65.09,1.33.16,2,.22,1.27.12,2.52.23,3.78.32.48,0,.9.07,1.38.08,1.45,0,2.77.13,4.26,0a85.61,85.61,0,0,0,18.42-3.3,51.64,51.64,0,0,0,14.54-7.09,6.91,6.91,0,0,1-.36.72,15.5,15.5,0,0,1-8.91,6.49,104.08,104.08,0,0,1-14,3.12c-3.84.63-7.6,1.58-11.44,2.07a10.61,10.61,0,0,1-1.12.05c-.73,0-1.39.06-2.11,0a66.55,66.55,0,0,1-13.52-2C70.93,22.39,59.28,19.92,47.64,19c-.42,0-.83,0-1.24,0-1.2,0-2.42-.07-3.61-.11s-2.35-.13-3.52-.2l-1.16-.07c-1.85-.14-3.76-.36-5.56-.61a5.81,5.81,0,0,1-1.71-.37c-.48-.23-.44-.48-.71-.86C30.81,16.69,31.45,16.61,32.12,16.55Zm57,13.32a8.43,8.43,0,0,1-3.22-1.93A5.53,5.53,0,0,1,87,28a2.61,2.61,0,0,1,1.09.46A3.84,3.84,0,0,1,89.15,29.87ZM48,20.39c2.21.38,3.54.24,5.15,2.11a16.91,16.91,0,0,0,6,4.47c.45.19,1.15.6,1.51.13s-.14-.75-.57-1.06c-2.26-1.6-4.57-3.35-6.69-5.19,2.34.13,4,.39,5.59,2.2.09.1.15.25.28.41s.39.5.56.67.18.2.37.37a6.2,6.2,0,0,0,.69.61,19.84,19.84,0,0,0,4.31,2.38,8.49,8.49,0,0,0,3.74.61c1.19-.11,1.56.38,2.38,1-5.79-.4-12.07-.91-17.69-1.09-1.35,0-1.62-.62-2.31-1a56.1,56.1,0,0,1-8.79-6.86c1.12.05,2.77.15,3.75.15s.86.45,1.23.92a18.2,18.2,0,0,0,9.19,6.15C53.66,25.2,50.8,22.83,48,20.39ZM74.23,25l-.46-.25-.1-.11c-.1-.1,0-.05,0-.1s0,0,0,0,0,0,0,0,0,0,0,0a.52.52,0,0,1,.22.17c0,.05,0,0,0,0h0a3.15,3.15,0,0,1,2.4,1c.22.18.43.35.65.51A23.17,23.17,0,0,0,79.86,28l.75.38c.34.16,1,.45,1.39.6a2.93,2.93,0,0,0-.77-1.2c-.25-.24-.43-.35-.59-.49a3.93,3.93,0,0,1-.32-.27L80,26.73c-.06-.06,0,0-.07-.06h0a.64.64,0,0,1-.29-.16c0-.06-.06-.06-.08-.12a.17.17,0,0,1,0-.14s.06,0,.08-.06l0,0a.31.31,0,0,1,.19,0l.11,0a.72.72,0,0,1,.19.11l0,0s.06.06.09.07c2,.42,3.39.89,4.28,2.88-3.1-.18-6.23.24-9.31-.25-2.14-.34-3.61-1.91-5.29-3.15-1.3-1-2.48-2.09-3.77-3.07,2.13.43,4,.83,5.57,2.38a15.34,15.34,0,0,0,5.43,3.51C77,27.2,75.21,25.57,74.23,25Zm4.54,5.74a169.65,169.65,0,0,1-23.21.33c-.52,0-1.32.23-1.23-.52s.38-.92,1.36-.9,2.33.11,3.55.17c5.23.27,10.64.61,15.94.78l1,0c.41,0,1.24.05,1.65.08ZM68.11,26.35s.07,0,.08,0h0s0,0,0,0,0,0,0,0,0,0,0,0h0s0,0,0,0a3.28,3.28,0,0,1-.51-.15l0,0h0a19.4,19.4,0,0,1-3.88-1.69c-.35-.21-.66-.42-1-.66-1-.73-2-1.54-3-2.36a21,21,0,0,1,4,.71,2.58,2.58,0,0,1,.64.38,2.68,2.68,0,0,1,.35.28,3.31,3.31,0,0,1,.4.45,2.58,2.58,0,0,1,.2.29c.06.08.06.09.1.15l.1.17A12.07,12.07,0,0,0,68.11,26.35ZM54,32.33a7.17,7.17,0,0,1,1,0c7.27.22,14.67.48,21.9.08,1.12-.07,2-.18,3-.22,1.78-.08,3.37-.07,5.12,0,.4,0,.84.06,1.25.09a154.43,154.43,0,0,1-16.86,1.77c-2,.07-4.09,0-6,0h-.55c-1.65,0-4.1-.05-6-.12l-3.1-.12c-.51,0-1.44.24-1.39-.55S53.23,32.39,54,32.33Zm-21.8-4.22a22.52,22.52,0,0,1-4.09-3.29c-.62-.62-.38-1.47-.1-2.21a25.36,25.36,0,0,0,6.45,5.25A13,13,0,0,0,38.3,29c.12,0,.24,0,.34,0s.2,0,.27,0S39,29,39,29a.7.7,0,0,0,.35-1.12l0-.06h-.07a11,11,0,0,1-1.09-.28c-.34-.13-.78-.21-1.14-.34s-.46-.14-.88-.29-1.07-.4-1.55-.62a16.76,16.76,0,0,1-1.51-.79,15.65,15.65,0,0,1-1.38-.91l-.32-.25a8.43,8.43,0,0,1-1.75-2.06,6.1,6.1,0,0,1-.44-1s0,0,0-.07-.15-.56-.17-.69a1.33,1.33,0,0,1-.05-.3,8.62,8.62,0,0,1,0-1.76,35.28,35.28,0,0,0,10.48,9.16,23,23,0,0,1,4.25.75c-4.24-2.6-8.35-5.22-11.82-8.84,2.32.33,3.57.53,5.37,2.32a25,25,0,0,0,6.51,4.86c.39.19,1,.53,1.37.1s0-.86-.41-1.16A46.39,46.39,0,0,1,38,20a4,4,0,0,1,3.56,1.46A28.71,28.71,0,0,0,49.94,28c-2,.15-3.95.34-5.88.64-3.07.48-6.2,1.25-9.14,2a5,5,0,0,1-4.09-.36,5.53,5.53,0,0,1-3-3.62,13.57,13.57,0,0,0,5.13,2.64C33.24,28.64,32.58,28.37,32.16,28.11ZM30,36.5c.44-.9,1.22-.4,1.91-.36,3.07.17,6,.48,9,.92a34.65,34.65,0,0,1-6.92,2.15A5.65,5.65,0,0,1,30.76,39,1.75,1.75,0,0,1,30,36.5Zm.66,8.25c-5.52-.08-6.31-4.52-4.13-9a2.63,2.63,0,0,1,2-1.3c.11,0,.09.21.09.31-.12,5.47,2.15,6.39,7.44,6C37.78,40.6,40,39.51,41.78,39a3.63,3.63,0,0,1,2-.34C39.55,41.56,36.21,44.82,30.68,44.75ZM44.8,35.48c-3.79-.17-7.54-.42-11.33-.54C38,33,41.94,33.31,46.7,34.38A2.41,2.41,0,0,1,44.8,35.48Zm-.88-3h0l-.1,0h.15c1.27-.79,2.68-.3,4,0a5.7,5.7,0,0,0,.83,0,1.23,1.23,0,0,0,.25,0h0s.07,0,0,0A7.5,7.5,0,0,1,43.92,32.49ZM32.25,33.94c-.94.35-1.08.18-1.65-.5a86,86,0,0,1,21-3.94c-.29,1-1.12,1.33-2.13,1.33A48.08,48.08,0,0,0,32.25,33.94Zm18.58,1.29c.08-.88,1.15-.54,1.88-.52,3.65.09,7.49.32,11.18.37a169.76,169.76,0,0,0,22.43-1.32c1.49-.18,3.07-.33,4.52-.55a7.83,7.83,0,0,1,1.24-.14,1.23,1.23,0,0,1,.53.11,2.24,2.24,0,0,1,.57.31C79.46,35.78,66.33,36,52.49,35.76,51.82,35.75,50.75,36.11,50.83,35.23ZM33.12,68.33A95.12,95.12,0,0,1,39.91,60a88.34,88.34,0,0,0,10.84-14.6l.14-.22a3.55,3.55,0,0,1,.33-.5c1,.25,2.82-.26,3.22,1s-.83,2.08-1.51,2.89c-6.17,7.33-12.86,14.24-19,21.49-.33.4-.93,1.41-1.25.64A2.26,2.26,0,0,1,33.12,68.33Zm2.27,2.35a19.68,19.68,0,0,1,4-6.14c6.74-7.14,13.45-14.23,19.24-22.35.79-1.11,1.57-2.38,2.43-3.52A1.65,1.65,0,0,1,62.75,38c4.43.13,9.51.3,13.82,0,1.24-.08,1.74.25,2,1A105.64,105.64,0,0,0,83.86,50.6a35.44,35.44,0,0,1,3.33,7.2c.2.68.12,1.07-.88,1.4-9.64,3.12-20.92,7.87-30.06,11.07-8.61,3-15.28,2.54-22.82,6.53-1.88,1-2.49.7-4.25,1.4.93-2,1.67-3.42,3.56-4.53A6.38,6.38,0,0,0,35.39,70.68Zm9.25,4.25c-.41-.53-.09-.7.55-.81,2.61-.45,4.45-.41,5.85,2.2s0,3.88-2.38,4.84c-.31-.62-.73-1.49-1-2S47,78,46.75,77.53s-.45-.66-.65-.94-.28-.34-.45-.55-.31-.36-.48-.56S44.79,75.14,44.64,74.93ZM43,83.11a2.91,2.91,0,0,1-2.88-1.06,10.82,10.82,0,0,1-2.47-3.85c-.25-.75-.68-1.29,0-2a7.31,7.31,0,0,1,4.05-1.73c.22.24.39.36.62.62a16.06,16.06,0,0,1,2.72,3.42C46.5,81.32,46.14,82.52,43,83.11ZM31.06,70.47a3.49,3.49,0,0,1-.88,3.86c-.88,1-1.87,2.34-2.82,3.53s-2.75,1.23-4.2,1.38A44.45,44.45,0,0,1,31.06,70.47Zm47.62,38.32c.36,1.9-5.3,3.7-6.84,3.43A192.86,192.86,0,0,1,25.62,97.64c-2.22-1-4.39-3.43-6.42-5,6.2-3.34,12.21-4.79,19.18-6.58C42.78,85,49,83.6,53,80.67c.29-.22.56-.76,1.3-.34,4,2.27,5.43.86,9.18,5.38C68,91.2,77.23,101.1,78.68,108.79ZM55.5,79.26c4.1-2.52,7.89-4.69,12.6-5.81-1.8,1.81-3.8,4.23-5.62,5.82C60.24,81.22,58,79.83,55.5,79.26ZM87.87,65.11c-.43.28-.86.57-1.29.84s-.92.55-1.35.79-1.07.57-1.44.73a7.23,7.23,0,0,1-.87.38C76.05,70,68.09,71.1,61.82,74.18c-3.23,1.59-5,2.59-8.08,3.91-.17-.34-.38-.75-.56-1.09a18.13,18.13,0,0,0-1.74-2.84.85.85,0,0,1-.18-.25c0-.09,0-.06,0-.14s0-.14.09-.19,0,0,.12-.08a2.8,2.8,0,0,1,.56-.25c5.89-1.77,10.91-4.67,16.79-7,2.94-1.17,6.76-2.08,10-3.1s6.68-2.06,9.82-3.33c.65-.26,1.25-.5,1.87-.73,1.26-.48,2.48-.94,3.7-1.45s2.37-.86,3.57-1.42c1.79-.84,3.55-1.77,5.4-2.55a7,7,0,0,1,2.22-.56c-1.28,2.58-1.9,3.59-4.84,4.76a44.59,44.59,0,0,0-6.73,3.5C91.79,62.63,89.82,63.85,87.87,65.11Zm37,8.65a32.34,32.34,0,0,1-2.48,2.49c-6.19-.8-12.81-1.88-18.3-4.48-2.84-1.35-3.81-3.21-6.13-4.75a18.52,18.52,0,0,1-2.12-2c-.38-.35-.74-.71-1-1-1.31-1.36.81-1.76,1.52-2.25a1.44,1.44,0,0,1,2.11.1c8,5.91,16,8.68,25.6,10.68C124.86,72.71,125.55,72.88,124.83,73.76Zm7.55-10.17c-.91,1.54-3,4-4.25,5.66-.38.51-.68,1.3-1.32,1.6a1.84,1.84,0,0,1-1.83-.34c-9.33-2.27-17.8-4.84-25.73-10.4.94-.53,1.84-1,2.81-1.58.28-.16.58-.36.94-.16,2.48,1.37,4.61.08,6.72-1.18a4.72,4.72,0,0,1,2.87-.95c5.86.54,12.13.91,17.77,1.69C135,58.57,134.52,59.91,132.38,63.59Zm9.37,23.32A12.13,12.13,0,0,1,142,82C145.22,83.56,144,84.93,141.75,86.91Zm-4.39-27.66c-.72-.34.06-.82.27-1.14.94-1.51.46-2.59-1.3-2.53a134.6,134.6,0,0,1-20.3-.69L114,54.64c-1.4-.17-1-.75-.36-1.61,10.9.89,21.11-2.24,31.18-5.89,1.86-.68,2.1-.39,3.42.94.84.85,2.19,1.48,2.74,2.64-2.94,2-3.69,3.77-6.36,6.52C143.66,58.19,139.11,60.1,137.36,59.25Zm14,16.5a1.83,1.83,0,0,1-2.47.82c-3.82-1.45-5.65-2.23-4.68-6.78a81.8,81.8,0,0,0,1.9-11.34,4.52,4.52,0,0,1,1.37-2.69A17.85,17.85,0,0,1,153.11,52c3.36-1.45,4.72-3.24,7-5.63C161.31,57.79,157.69,66.58,151.34,75.75Z"/><path class="cls-3" d="M73.79,24.79l.16.1A.49.49,0,0,1,73.79,24.79Z"/><path class="cls-3" d="M108.24,93.8a2.28,2.28,0,0,1,.87,0,1.8,1.8,0,0,0-.58,0C108.37,93.8,108.05,93.82,108.24,93.8Z"/><path class="cls-3" d="M108.94,33.53s0,0,0,0h0s-.14,0-.13,0S108.92,33.53,108.94,33.53Z"/><path class="cls-3" d="M72.54,129.82s-.07,0-.08,0h-.08s0,0,0,0h0S72.52,129.8,72.54,129.82Z"/><path class="cls-3" d="M96.61,30.78s0-.05,0-.07,0,0,0,0,0,0,0,0S96.6,30.79,96.61,30.78Z"/><path class="cls-3" d="M119.73,89.14h0l0,0A0,0,0,0,1,119.73,89.14Z"/><path class="cls-3" d="M117.23,95s0,.07,0,.09h0l0,0-.06,0s0,0,0,0S117.2,95,117.23,95Z"/><path class="cls-3" d="M43.88,32.47s0,0,0,0h0Z"/><path class="cls-3" d="M43.91,32.49h0a0,0,0,0,1,0,0s0,0,0,0Z"/><path class="cls-4" d="M83.57,111.21a13.22,13.22,0,0,1,2,2.07s.11.28.39.91,0,0,.08.18a1.73,1.73,0,0,1,.09.51,4.24,4.24,0,0,1-.16,1.31c-.11.32-.06.25-.19.61a7.1,7.1,0,0,1-.72,1.43,6,6,0,0,0-.83,1.08s0,0,0,0A10.14,10.14,0,0,1,83,120.46c-11.12,7.07-20,8.51-32.24,5-9.09-2.61-17-6.46-25.27-10.56a6.81,6.81,0,0,1-.87-.45c-6-4.25-8.68-7.46-8.54-15a6,6,0,0,1,.13-.83,6.59,6.59,0,0,1,.25-1,3.24,3.24,0,0,1,.29-.59,3.16,3.16,0,0,1,.21-.33A83,83,0,0,0,42.4,111.32c1.36.48,2.64.85,4,1.21,2.65.72,5.27,1.4,7.89,2,1.31.33,2.65.78,3.88,1,4.9,1,7.85,3.18,14.13,1.92S83.57,111.21,83.57,111.21Z"/><path class="cls-4" d="M166.19,41c.54-.06.78.33,1.32.56a6.26,6.26,0,0,1,1.75,1.09c.55.53,1.11.64,1.62,1.52,1.34,2.34,2.91,4,3.46,7.09,4.1,22.46-3.67,38.73-20.38,53.56-2.76,2.44-5.08,2.53-8.12,3.69a5.26,5.26,0,0,1-1.33.2c-3.15.41-4.24.69-3.21-2.75.09-.33,0-.7.16-1.2,1.3-5.39.83-7.38,5.58-11.61a54.25,54.25,0,0,0,16.85-27.43c1.79-6.78,1.58-15.26.75-22.12C164.36,41.22,164.47,41.14,166.19,41Z"/><path class="cls-4" d="M127.67,11.91a25.24,25.24,0,0,1-7.6,4.67c-3.57,1.56-7.75,3-11.51,4.28-2,.71-3.65,2.24-5.82,2.47a49.72,49.72,0,0,1-9.37-.15c-3.7-.31-7.26-1-10.91-1.6-.61-.1-1.19-.23-1.79-.35-1.2-.24-2.38-.49-3.58-.75s-2.43-.58-3.61-.87c4.29-.86,9.1-1.48,13.31-2.29,7.93-1.51,15.3-3.82,22.93-6.06,4-1.18,8-2.22,12-3.08A9.2,9.2,0,0,1,122.9,8c1.32-.13,3-.44,4.14.13C129.18,9.16,129.61,10,127.67,11.91Z"/><path class="cls-4" d="M105.33,53.1c-1.28,2.58-1.9,3.59-4.84,4.76a44.59,44.59,0,0,0-6.73,3.5c-2,1.27-3.94,2.49-5.89,3.75-.43.28-.86.57-1.29.84s-.92.55-1.35.79-1.07.57-1.44.73a7.23,7.23,0,0,1-.87.38C76.05,70,68.09,71.1,61.82,74.18c-3.23,1.59-5,2.59-8.08,3.91-.17-.34-.38-.75-.56-1.09a18.13,18.13,0,0,0-1.74-2.84.85.85,0,0,1-.18-.25c0-.09,0-.06,0-.14a.19.19,0,0,1,.09-.19c.08,0,0,0,.12-.08a2.8,2.8,0,0,1,.56-.25c5.9-1.77,10.91-4.67,16.79-7,2.94-1.16,6.76-2.08,10-3.1s6.68-2,9.82-3.33c.65-.26,1.25-.5,1.87-.73,1.25-.48,2.48-.94,3.7-1.45s2.37-.86,3.57-1.42c1.79-.84,3.55-1.77,5.4-2.55A7,7,0,0,1,105.33,53.1Z"/><path class="cls-5" d="M133.62,14.71a6.91,6.91,0,0,1-.36.72,15.5,15.5,0,0,1-8.91,6.49,104.08,104.08,0,0,1-14,3.12c-3.84.63-7.6,1.58-11.45,2.07a10.31,10.31,0,0,1-1.11.05c-.73,0-1.39.06-2.11,0a66.55,66.55,0,0,1-13.52-2C70.93,22.39,59.28,19.92,47.64,19c-.42,0-.83,0-1.24,0-1.2,0-2.42-.07-3.61-.11s-2.35-.13-3.52-.2l-1.16-.07c-1.85-.14-3.76-.36-5.56-.61a5.81,5.81,0,0,1-1.71-.37c-.48-.23-.44-.48-.71-.86.68-.08,1.32-.16,2-.22,2.7-.24,5.14-.63,7.92-.75a77.91,77.91,0,0,1,22.41,2.44c.7.18,1.48.45,2.2.67,1.44.43,3,.87,4.41,1.27S72,21,73.4,21.36c2.1.53,4.3,1.07,6.33,1.49s3.85.73,5.81,1.06c1.3.22,2.46.4,3.74.56.65.09,1.32.16,2,.22,1.27.13,2.52.23,3.78.32.48,0,.9.08,1.38.08,1.45,0,2.77.13,4.26,0a85.61,85.61,0,0,0,18.42-3.3A51.64,51.64,0,0,0,133.62,14.71Z"/><path class="cls-5" d="M173.51,35.62l.15.07c.17.08.82.41,1,.54l.45.28c.2.13.53.37.72.52s.21.14.4.31a3,3,0,0,1,.65.6,6.41,6.41,0,0,1,.39.66c.24.43.77,1.34,1.08,1.91a19.25,19.25,0,0,1,.94,1.68,51,51,0,0,1,4,13.3,45.31,45.31,0,0,1-.85,15.83A46.48,46.48,0,0,1,177,84.74c-7.32,11.31-15.56,19.09-27.23,25.11-2.14,1.1-3.95.75-6,1.35a17.08,17.08,0,0,1-2.33.32c-.62.12-.8.08-1.22.15a5.85,5.85,0,0,1-1.13.06c-.28,0-.34,0-.46-.1-.42-.32.06-1.13.39-1.24a17.28,17.28,0,0,1,2.24-.26c.67-.11,1.18-.13,1.82-.22,1.39-.19,2.79-.37,4.18-.63h0c.85-.21,1.74-.28,2.57-.56a29.16,29.16,0,0,0,5.79-2.93,13,13,0,0,0,2-1.37c1.63-1.39,3.25-2.81,4.83-4.32a41.33,41.33,0,0,0,4.34-5c1.36-1.79,2.74-3.69,4-5.59a17.55,17.55,0,0,0,1.68-2.94c2-4.42,4.07-8.35,4.89-13.32,1.44-8.71.39-17.09-2.27-25.46a20.73,20.73,0,0,0-2.23-4.36,14.42,14.42,0,0,0-1-1.36,1.33,1.33,0,0,0-.55-.5c-.78-.58-1.47-1-2.24-1.49a26.53,26.53,0,0,0-2.36-1.39,18.54,18.54,0,0,1,2.3-2.22c.29-.21.52-.33.81-.51a9.88,9.88,0,0,1,1.08-.54,3.48,3.48,0,0,1,.52-.19A2.74,2.74,0,0,1,173.51,35.62Z"/><path class="cls-5" d="M26.24,87.43c0,.08-.08.11-.15.14l-.16.07-.64.26-.63.27c-.3.13-.79.35-1.12.46,0,0,.12,0-.12,0a4.24,4.24,0,0,0-1.13.44c-.27.17-.36.16-.68.33s-.78.37-1.17.62a10.82,10.82,0,0,0-2.3,2,6.36,6.36,0,0,0-.52.65c-.21.32-.46.81-.69,1.26a20.17,20.17,0,0,0-2,6.36c0,.26-.08.51-.11.87a10.3,10.3,0,0,0-.1,1.32,21.49,21.49,0,0,0,.19,2.66,6.26,6.26,0,0,0,.66,2.24,14.1,14.1,0,0,0,3.34,4.17,68.78,68.78,0,0,0,14.36,8.71c2,.89,4.27,1.8,6.4,2.62,3.8,1.46,7.75,2.76,11.67,4,2,.62,4,1.18,6.08,1.65.68.16,8.36.69,20.16-3.51,2.45-.88,7.55-4.92,10.35-8.28l-.55,2.08a28,28,0,0,1-4.65,6.07,28.62,28.62,0,0,1-10.33,4.91c-9,1.78-12.35,1.17-16.17.25-9.82-2.37-21.78-6.76-30.47-11.88-6.06-3.58-9.39-8.85-13.29-14.29a3,3,0,0,1-.38-2.07C12.44,96.23,14.35,92,18.79,89a10.15,10.15,0,0,1,2.45-1.15,16.39,16.39,0,0,1,3-.65c.58-.07,1.16-.11,1.74-.15Z"/><path class="cls-4" d="M148.2,48.08c.84.85,2.19,1.48,2.74,2.64-2.94,2-3.69,3.77-6.36,6.52-.92.95-5.47,2.86-7.22,2-.72-.34.06-.82.27-1.14.94-1.51.46-2.59-1.3-2.53a134.6,134.6,0,0,1-20.3-.69L114,54.64c-1.4-.17-1-.75-.36-1.61,10.9.89,21.11-2.24,31.18-5.89C146.64,46.46,146.88,46.75,148.2,48.08Z"/><path class="cls-6" d="M54.44,45.67c.4,1.22-.83,2.08-1.51,2.89-6.17,7.33-12.86,14.24-19,21.49-.33.4-.93,1.41-1.25.64a2.26,2.26,0,0,1,.46-2.36A95.12,95.12,0,0,1,39.91,60a88.34,88.34,0,0,0,10.84-14.6l.14-.22a3.55,3.55,0,0,1,.33-.5C52.21,45,54,44.45,54.44,45.67Z"/><path class="cls-6" d="M124.83,73.76a32.34,32.34,0,0,1-2.48,2.49c-6.19-.8-12.81-1.88-18.3-4.48-2.84-1.35-3.81-3.21-6.13-4.75a17.69,17.69,0,0,1-2.12-2c-.38-.35-.74-.71-1-1-1.31-1.36.81-1.76,1.52-2.25a1.44,1.44,0,0,1,2.11.1c8,5.91,16,8.68,25.6,10.68C124.86,72.71,125.55,72.88,124.83,73.76Z"/><path class="cls-6" d="M43.74,38.62c-4.19,2.94-7.53,6.2-13.06,6.13s-6.31-4.52-4.13-9a2.63,2.63,0,0,1,2-1.3c.11,0,.09.21.09.31-.12,5.47,2.15,6.39,7.44,6C37.78,40.6,40,39.51,41.78,39A3.63,3.63,0,0,1,43.74,38.62Z"/><path class="cls-5" d="M162.68,43.2c.09.85.24,1.64.34,2.47a61.28,61.28,0,0,1,.42,9.95c-.09,1.66-.51,3.29-.6,5a11.12,11.12,0,0,1-.51,2.34c-.56,2-1.14,4.17-1.71,6.16a39.81,39.81,0,0,1-2.1,5.77,65.35,65.35,0,0,1-5.94,9.88,22.72,22.72,0,0,1-1.91,2.37c-.67.75-1.32,1.4-2,2.07a25.43,25.43,0,0,1-2.23,1.8,2.9,2.9,0,0,1-.36.25,23.58,23.58,0,0,1-2,1.3c-.71.34-1.49.17-2.22.45.42-1.14.31-2.13,1-3.2.51-.77,1.08-1.28,1.77-2.14,10.27-12.77,18.45-25.05,17.39-42C161.94,44.47,161.92,44,162.68,43.2Z"/><path class="cls-4" d="M49.94,28c-2,.15-3.95.34-5.88.64-3.07.48-6.2,1.25-9.14,2a5,5,0,0,1-4.09-.36,5.53,5.53,0,0,1-3-3.62,13.57,13.57,0,0,0,5.13,2.64c.33-.67-.33-.94-.75-1.2a22.52,22.52,0,0,1-4.09-3.29c-.62-.62-.38-1.47-.1-2.21a24.74,24.74,0,0,0,6.45,5.24A24.22,24.22,0,0,0,38.31,29h0a1,1,0,0,0,.3,0h.26C39,29,39,29,39,29c.38-.27.26-.83.3-1.19,0-.12,0,0,0,0s0-.13.11-.13a21.38,21.38,0,0,1,4.25.74c-4.24-2.6-8.35-5.22-11.82-8.84,2.32.33,3.57.53,5.37,2.32a25,25,0,0,0,6.51,4.86c.39.19,1,.53,1.37.1s0-.86-.41-1.16A46.39,46.39,0,0,1,38,20,3.94,3.94,0,0,1,41.5,21.5,28.89,28.89,0,0,0,49.94,28Z"/><path class="cls-5" d="M120.69,6.69c-9.46,2.55-18.63,5.63-28.23,7.8-6.31,1.43-12.9,2.29-19.33,3.52-3,.58-6-.25-9-.94A512.44,512.44,0,0,0,120.69,6.69Z"/><path class="cls-5" d="M36.29,79c0,.06,0,.09-.07.13a4.22,4.22,0,0,1-1.41.85,22.27,22.27,0,0,1-2.16.92,19.08,19.08,0,0,1-2.37.59c-.92.17-1.4.32-2.59.49A53.92,53.92,0,0,0,18,84.11a20.31,20.31,0,0,0-8.46,5.1c-.15.17-.31.35-.45.53a6.69,6.69,0,0,0-.92,1.65c-.07.15-.72,1-.77.51-.51-5.25-.23-7.65,5.19-9.22,7-2,14.91-1.17,21.56-4.45.86-.43,1.45-.87,2.25-1.33A4.47,4.47,0,0,1,36.29,79Z"/><path class="cls-4" d="M71.32,29.15c-5.79-.4-12.07-.91-17.69-1.09-1.35,0-1.62-.62-2.31-1a56.1,56.1,0,0,1-8.79-6.86c1.12.05,2.77.15,3.75.15s.86.45,1.23.92a18.2,18.2,0,0,0,9.19,6.15c-3-2.18-5.9-4.55-8.75-7,2.21.38,3.54.24,5.15,2.11a16.91,16.91,0,0,0,6,4.47c.45.19,1.15.6,1.51.13s-.14-.75-.57-1.06c-2.26-1.6-4.57-3.35-6.69-5.19,2.34.13,4,.39,5.59,2.2.09.1.15.25.28.41a8,8,0,0,0,.56.67c.16.16.18.2.37.37a7.41,7.41,0,0,0,.69.62,20.69,20.69,0,0,0,4.31,2.37,8.35,8.35,0,0,0,3.74.61C70.13,28,70.5,28.48,71.32,29.15Z"/><path class="cls-5" d="M106.48,97.94a1.68,1.68,0,0,0,.16.93,3.76,3.76,0,0,0,1.23,1.28,19.6,19.6,0,0,0,2.43,1.5,2.64,2.64,0,0,0,1.53.39,2.81,2.81,0,0,0,1.66-1.42c5.53-8.34,10.28-17.17,15.89-25.46,3.12-4.61,6.5-9.06,9.12-14a1,1,0,0,0,.17-.83c-.19-.46-.86-.41-1.31-.2-1.6.77-2.47,2.5-3.33,4.06-5.51,10.1-14.52,17.56-22,26.13-1.17,1.34-2.31,2.71-3.38,4.12C108,95.33,106.63,96.68,106.48,97.94Z"/><path class="cls-5" d="M132.24,13.08A21.72,21.72,0,0,1,125,17.86a133.43,133.43,0,0,1-13.71,4.54,2.42,2.42,0,0,1-2.37-.2,142.6,142.6,0,0,0,16-6.43A11,11,0,0,0,129,13c1.74-2.28,1.59-4.13-.84-5.64-1.69-1-3.86-.62-5.73-.87,2.85-.24,6.36-1,9,.26C134.84,8.4,134.85,10.3,132.24,13.08Z"/><path class="cls-5" d="M138,73.53c-.72,2.33-1.42,4.67-1.94,7.06-1.93,8.76-1.49,18.19-5.44,26.26a2.65,2.65,0,0,0-.41,1.91,2.16,2.16,0,0,0,.69.9,7.68,7.68,0,0,0,4.64,1.84,2,2,0,0,0,1.12-.2,2.24,2.24,0,0,0,.81-1.34,42.27,42.27,0,0,0,2-8.1c.52-4.66-.51-9.35-.59-14-.16-8.52,2.8-16.73,4.82-25a4.77,4.77,0,0,0,.2-1.87c-.29-1.83-2.32-1.69-2.79-.11-.6,2-.7,4.29-1.25,6.37S138.6,71.43,138,73.53Z"/><path class="cls-5" d="M64.18,82.34A1.34,1.34,0,0,0,64,84.42,138.35,138.35,0,0,1,76,97.29c4.42,5.8,12.13,15.76,13.3,18.54.21.47.52-.35.37-1.15S85.2,106.44,84,104.06s-6.16-8.54-7-9.39C71.81,89,70,87.72,64.36,82.21Z"/><path class="cls-4" d="M86.25,32.3a154.43,154.43,0,0,1-16.86,1.77c-2,.07-4.09,0-6,0-1.44,0,1.1,0-.55,0s-4.1-.05-6-.12l-3.1-.12c-.51,0-1.44.24-1.39-.55s.86-.91,1.59-1a9.09,9.09,0,0,1,1,0c7.26.22,14.68.48,21.9.08,1.12-.07,2-.18,3-.22,1.78-.08,3.37-.07,5.12,0C85.4,32.22,85.84,32.27,86.25,32.3Z"/><path class="cls-5" d="M43,83.11a2.91,2.91,0,0,1-2.88-1.06,10.82,10.82,0,0,1-2.47-3.85c-.25-.75-.68-1.29,0-2a7.31,7.31,0,0,1,4.05-1.73c.22.24.39.36.62.62a16.06,16.06,0,0,1,2.72,3.42C46.5,81.32,46.14,82.52,43,83.11Z"/><path class="cls-6" d="M92.92,56.23a9.83,9.83,0,0,1-2.68,1.36.75.75,0,0,1-1.16-.37c-1.48-3.66-3.47-6.52-5.38-10-.37-.67-.88-1.46.62-1.78,1-.22,2-1.12,2.91.61,1.57,2.9,3.41,6.37,5.1,9.37C92.48,55.72,92.79,56,92.92,56.23Z"/><path class="cls-4" d="M93.18,33.49C79.45,35.78,66.33,36,52.48,35.76c-.66,0-1.72.35-1.65-.53s1.15-.54,1.88-.52c3.65.09,7.49.32,11.17.37a169.81,169.81,0,0,0,22.44-1.32c1.49-.18,3.07-.33,4.52-.55a7.7,7.7,0,0,1,1.24-.14,1.23,1.23,0,0,1,.53.11A2.24,2.24,0,0,1,93.18,33.49Z"/><path class="cls-7" d="M109,33.53s0,0,0,0h0s0,0,0,0l0,0A0,0,0,0,1,109,33.53Z"/><path class="cls-7" d="M113.92,36.69c.13.65.3,1.64-1,1.73s-3,.74-3.49-1.06a1.19,1.19,0,0,1,0-.41c0-.11,0-.08,0-.13s-.19.07.09,0a3.3,3.3,0,0,1,1.14-.17,2.18,2.18,0,0,0,2.13-.87.56.56,0,0,0-.11-.64c-.09-.12-.09-.07-.13-.09a4.28,4.28,0,0,0-1.35-.17c-.38,0-.82,0-1.06,0s-.39.08-.42,0,0,0,0,0l-.27-.06-.15-.05-.15-.09a.57.57,0,0,1-.1-.11.78.78,0,0,1-.14-.42,1,1,0,0,0,0-.16c0-.06,0-.12,0-.16s0-.17,0-.15a2.3,2.3,0,0,0,1.8-.4l.2-.08c.11,0,.4-.15.52-.21a1,1,0,0,0,.29-.23.82.82,0,0,0,.11-.17.87.87,0,0,0,0-.21.37.37,0,0,0-.25-.35,1.35,1.35,0,0,0-.33,0,2,2,0,0,0-.35,0h-.2l-2-.22c-.67-.07-1.23-.45-1.1-1.16s.8-.36,1.32-.46a13.73,13.73,0,0,0,1.68-.49c.47-.16,1-.2.92-.74s-.69-.34-1.12-.28c-.89.12-2.1.21-3,.27a1.14,1.14,0,0,1-1.38-1c-.16-.71.84-.62,1.18-.67,2.7-.32,4.27-.51,5.32,2.33C113.46,31.76,113.41,34.09,113.92,36.69Z"/><path class="cls-5" d="M164.53,35.43h.27l.64,0h.41c.06,0,0,0,0,0s0,0,0,0,.05.11.07.12,0,0,0,0,0,0,0,0l-.12.13c-.81.89-1.68,1.91-2.44,2.81s-1.51,2-2.18,2.82c-1.39,1.71-2.43,3.44-3.85,5-.49.53-.72.52-1.32,0s-1.6-1.43-2.26-2A11,11,0,0,1,155,43.07c.32-.38.65-.71.94-1a5,5,0,0,0,.57-.56,7.17,7.17,0,0,1,1.08-1c.42-.32.83-.77,1.3-1.14s1-.68,1.5-1.12A16.81,16.81,0,0,1,162,36.91c.56-.4,1.18-.85,1.75-1.24a1.38,1.38,0,0,1,.4-.18.46.46,0,0,1,.19,0Z"/><path class="cls-5" d="M68.1,73.45c-1.8,1.81-3.8,4.23-5.62,5.82-2.24,2-4.53.56-7,0C59.6,76.74,63.39,74.57,68.1,73.45Z"/><path class="cls-4" d="M84.6,29.25c-3.1-.18-6.23.24-9.31-.25-2.14-.34-3.61-1.91-5.29-3.15-1.3-1-2.48-2.09-3.77-3.07,2.14.44,3.94.82,5.57,2.38a15.77,15.77,0,0,0,5.48,3.54,17.22,17.22,0,0,0-3.34-3.84s.06-.07.1-.1-.08,0,0,0-.35,0,.15,0a3.78,3.78,0,0,1,2.28,1,4.32,4.32,0,0,0,.65.51A22.25,22.25,0,0,0,79.86,28l.75.38c.34.16,1,.45,1.39.6a2.93,2.93,0,0,0-.77-1.2c-.25-.24-.43-.35-.59-.49L80.32,27a2,2,0,0,1-.29-.28c-.07-.09,0,0,0-.07s0,0,0,0a.79.79,0,0,1,.17-.19l0,0s0,0,0,0C82.35,26.78,83.71,27.27,84.6,29.25Z"/><path class="cls-6" d="M30.18,74.33c-.88,1-1.87,2.34-2.82,3.53s-2.75,1.23-4.2,1.38a44.45,44.45,0,0,1,7.9-8.77A3.49,3.49,0,0,1,30.18,74.33Z"/><path class="cls-5" d="M48.66,81.16c-.31-.62-.73-1.49-1-2S47,78,46.75,77.53s-.45-.66-.65-.94-.28-.34-.45-.55-.31-.36-.48-.56-.38-.34-.53-.55c-.41-.53-.09-.7.55-.81,2.61-.45,4.45-.41,5.85,2.2S51.06,80.2,48.66,81.16Z"/><path class="cls-4" d="M78.77,30.77a169.53,169.53,0,0,1-23.2.33c-.53,0-1.33.23-1.24-.52s.38-.92,1.36-.9,2.33.11,3.55.17c5.23.27,10.64.61,15.94.78.33,0,.58,0,1,0l1.65.08Z"/><path class="cls-4" d="M46.7,34.38a2.41,2.41,0,0,1-1.9,1.1c-3.79-.17-7.54-.42-11.33-.54C38,33,41.94,33.31,46.7,34.38Z"/><path class="cls-7" d="M114.09,44a4.71,4.71,0,0,1-.08,1.15c-.28,2.55-2.07,3-4.17,3.67-1,.29-1.36-.28-1.2-1,.3-1.28.8-1,1.88-1.22a6.43,6.43,0,0,0,3-1.43c-2.19.15-4.53.66-3.71-2.25a5.54,5.54,0,0,0,1.84-.07C113.24,42.31,114,42.45,114.09,44Z"/><path class="cls-4" d="M39.44,27.62s-.08.11-.11.14.06,0,0,0h-.09a6.54,6.54,0,0,1-1.06-.25c-.32-.11-.79-.22-1.13-.34s-.47-.14-.88-.29-1.07-.4-1.55-.62a16.76,16.76,0,0,1-1.51-.79,15.65,15.65,0,0,1-1.38-.91l-.32-.25a8.43,8.43,0,0,1-1.75-2.06,6.1,6.1,0,0,1-.44-1s0,0,0-.07-.15-.56-.17-.69a1.33,1.33,0,0,1-.05-.3,8.62,8.62,0,0,1,0-1.76A35.28,35.28,0,0,0,39.44,27.62Z"/><path class="cls-4" d="M51.61,29.5c-.29,1-1.12,1.33-2.13,1.33a48.08,48.08,0,0,0-17.23,3.11c-.94.35-1.08.18-1.65-.5A86.43,86.43,0,0,1,51.61,29.5Z"/><path class="cls-4" d="M106.68,33.68a14.11,14.11,0,0,1-8.22-4.35c1.67-.21,2.45-.38,3.66,1.05a5.38,5.38,0,0,0,3.49,1.78,6.59,6.59,0,0,0-1.71-2.6c-.34-.33-.78-.73-.27-1.09a.85.85,0,0,1,1.29.39A16.72,16.72,0,0,1,106.68,33.68Z"/><path class="cls-4" d="M119.79,89.16s.09.09.08.12,0,0,0,0,0,0-.07-.07-.08,0-.08-.06,0,0,0,0h0s0,0,0,0Z"/><path class="cls-4" d="M135.68,15.46c.25,2.67.61,5.24.86,7.94.07.81-1,1.33-1.73,1.5C134.36,21.53,133.87,18.5,135.68,15.46Z"/><path class="cls-5" d="M154.63,46.23c.41.34,1.37,1.06,1.07,1.85s-.81,1.55-1.72.75-2-2.24-3-3.1C152.58,45.09,153.12,45,154.63,46.23Z"/><path class="cls-5" d="M90.58,100.29a17.77,17.77,0,0,0-4.34-6.12c-2.08-2.09-3.87-3.7-6-5.69-.13-.12-.45-.52-.58-.51-3.9-3.84-6.31-5.61-9.74-10-.51-1-3,1.82-2.64,2.3a27.58,27.58,0,0,0,3.69,4c8.66,8.15,18.6,15.87,22.65,24.78.17.36.45-.1,0-2.33S90.75,100.63,90.58,100.29Z"/><path class="cls-7" d="M104.58,51.4a.82.82,0,0,1-.79.9c-.53.05-1.83.83-2.11,0s1.18-1,1.6-1.17a9.46,9.46,0,0,0,.84-.55,2,2,0,0,0-1.69-.25c-.52.12-1.12.62-1.36,0s.45-1,1-1.18a3.87,3.87,0,0,0,1.49-1c-.48-.55-1.43-.27-2-.18s-.84.13-.89-.34.47-.57.86-.65c1.27-.25,2.39-.79,2.52,1A25.22,25.22,0,0,0,104.58,51.4Z"/><path class="cls-6" d="M148.75,78.47a3.59,3.59,0,0,1-2.32,2.93c-1.3.42-2.2-.06-3.29-.58a2.21,2.21,0,0,1-.75-.74,1.21,1.21,0,0,1-.27-.47,2.45,2.45,0,0,1-.26-1.23c.1-.76.32-1.55,1.23-1.64C145.26,76.54,146.84,77.6,148.75,78.47Z"/><path class="cls-4" d="M132.39,20.08c.67,2.81.84,4.87-2,6.29C130.9,24,130.64,21.91,132.39,20.08Z"/><path class="cls-4" d="M67.52,26.2a19.4,19.4,0,0,1-3.88-1.69c-.35-.21-.66-.42-1-.66-1-.73-2-1.54-3-2.36a21,21,0,0,1,4,.71,2.58,2.58,0,0,1,.64.38,2.68,2.68,0,0,1,.35.28,3.31,3.31,0,0,1,.4.45,2.58,2.58,0,0,1,.2.29,1,1,0,0,1,.1.16c0,.07,0,.1.1.18A6,6,0,0,0,67.52,26.2Z"/><path class="cls-4" d="M68.19,26.37s0,0,0,0,0,0,0,0,0,0,0,0-.48-.1-.47-.14.38.1.44.11A.22.22,0,0,1,68.19,26.37Z"/><path class="cls-5" d="M150.87,46.59a17.74,17.74,0,0,1,2.38,3.32c-1.85.31-3.25-1.79-4.41-3.15-.34-.4-.31-.79.5-.8S150.08,45.81,150.87,46.59Z"/><path class="cls-4" d="M117.4,26.29a5.48,5.48,0,0,1-2.57,4.36,21.72,21.72,0,0,0-1.31-2.8.84.84,0,0,1,0-1c.15-.22.46-.42.55-.38.56.24.59.44.58,1s-.13,1.06.48,1.41a3.79,3.79,0,0,0,1-2.4.63.63,0,0,1,.58-.6C117.1,25.85,117.47,25.84,117.4,26.29Z"/><path class="cls-4" d="M117.22,95.06s0,.06,0,.07-.06,0-.07,0l-.06,0s0,0,0,0h0S117.21,95,117.22,95.06Z"/><path class="cls-7" d="M113.31,49.1c-1.16,2.51-3.24,2.79-5.78,3.33.53-1.67.87-2.06,2.78-2.22A9.89,9.89,0,0,0,113.31,49.1Z"/><path class="cls-4" d="M129.34,23.67c0,2.28-.83,2.91-3,3.32.27-1,.53-2.33.79-3.23s.82-1.06,1.52-1.15S129.33,23.27,129.34,23.67Z"/><path class="cls-7" d="M113.39,41.16a11.27,11.27,0,0,1-3.63.53c-.45,0-.28-.67-.13-1a.69.69,0,0,1,.77-.46A4.77,4.77,0,0,0,113,39.7c.57-.32.94-.67,1.12,0S114.35,40.86,113.39,41.16Z"/><path class="cls-7" d="M111.93,52.45a5.16,5.16,0,0,1-4.42,2.8c-1,.09-.93-.51-.75-1,.31-.92.7-.71,1.49-.73a10.68,10.68,0,0,0,3.44-1l.06,0h0S112,52.42,111.93,52.45Z"/><path class="cls-4" d="M121.68,25c-.77,2-1.47,3.11-3.64,3.7C119.12,26.8,119.33,25.57,121.68,25Z"/><path class="cls-7" d="M104,44.56c-.84.84-2.26.95-3.42,1a.77.77,0,0,1,.09-.48.73.73,0,0,1,.16-.18.77.77,0,0,1,.2-.13l.43-.18a2.13,2.13,0,0,0,.45-.23,8.64,8.64,0,0,1,.82-.39,1,1,0,0,0,.25-.14c.1-.06.09-.07.17-.16a.83.83,0,0,0,.11-.4c0-.1,0,0,0-.09a.58.58,0,0,0-.17-.29l-.15-.08-.12,0-.12,0h-.16a4.49,4.49,0,0,0-.64,0h-.38a.61.61,0,0,1-.15-.13s-.1,0-.09-.08-.09.06,0,0a4.43,4.43,0,0,1,.67-.41,3.08,3.08,0,0,1,.47-.19c.2-.05.18-.12.47-.13s.85-.12,1.12.23A1.72,1.72,0,0,1,104,44.56Z"/><path class="cls-4" d="M125,25.48c-.54,1.42-1.06,2.12-2.65,2.27a8.89,8.89,0,0,0,.77-2.37c.17-.84.72-1.39,1.58-1.21S125.24,24.86,125,25.48Z"/><path class="cls-4" d="M48,32.47c-.06,0-.33,0-.39,0h-.1c-1.05,0-2.12.09-3.15.06h-.25l-.19,0h0s-.09,0-.1,0h.15c1.29-.78,2.67-.32,4,0C48,32.47,48.07,32.47,48,32.47Z"/><path class="cls-4" d="M49,32.45a3.56,3.56,0,0,1-.91,0s.63,0,.7,0S49.16,32.39,49,32.45Z"/><path class="cls-8" d="M100.21,35.65c0,.45-.36.62-.8.61-1.06,0-2.19-.19-3.26-.28a8.15,8.15,0,0,1,3.24-.77C99.8,35.17,100.22,35.2,100.21,35.65Z"/><path class="cls-7" d="M105.25,37.26a.69.69,0,0,1-.75.64c-.37,0-.54-.08-.93-.08l-1.31,0a9.55,9.55,0,0,1-1.31,0,15.45,15.45,0,0,1,3.67-1C105.1,36.72,105.29,36.83,105.25,37.26Z"/><path class="cls-4" d="M89.15,29.87a8.43,8.43,0,0,1-3.22-1.93A5.53,5.53,0,0,1,87,28a2.61,2.61,0,0,1,1.09.46A3.84,3.84,0,0,1,89.15,29.87Z"/><path class="cls-7" d="M104.67,39.45c-.06.38-.25.51-.83.54a28.54,28.54,0,0,0-3.62.9A16.42,16.42,0,0,1,103.77,39C104.23,38.88,104.79,38.74,104.67,39.45Z"/><path class="cls-4" d="M93.77,30.9A6.86,6.86,0,0,1,91,28.8a2.29,2.29,0,0,1,1.42.39,2.38,2.38,0,0,1,.52.53C93.2,30,93.51,30.55,93.77,30.9Z"/><path class="cls-8" d="M97.18,31.52s-.4-.37-.47-.46a.88.88,0,0,1-.16-.3c0-.06,0,0,0,0s0-.06,0,0a1.11,1.11,0,0,1,.18.19A3.65,3.65,0,0,1,97.18,31.52Z"/><path class="cls-8" d="M98.11,32.29c-.12.1-.46-.13-.5-.21s0,0-.06-.06a4.52,4.52,0,0,1-.28-.4c.1.06.64.53.77.59s0,0,.06,0,0,0,0,0S98.23,32.18,98.11,32.29Z"/><path class="cls-8" d="M95.09,28.81a4.57,4.57,0,0,1,.71.88A3.57,3.57,0,0,1,95.09,28.81Z"/><path class="cls-8" d="M96.58,30.71s0,0,0,0,0,.05,0,0,0,0-.15-.16a8.2,8.2,0,0,1-.58-.87,3.87,3.87,0,0,1,.71.86c0,.06,0,0,0,0S96.58,30.68,96.58,30.71Z"/><path class="cls-8" d="M80.28,26.36s0,0,0,.05,0,0,0,0a.44.44,0,0,1-.17.19s0,0,0,0a.19.19,0,0,0-.08,0h-.07a.64.64,0,0,1-.29-.16.62.62,0,0,1-.08-.12.17.17,0,0,1,0-.14s.05,0,.08-.06l0,0a.58.58,0,0,1,.19,0s.06,0,.11,0a.59.59,0,0,1,.19.11l0,0Z"/><path class="cls-8" d="M101.49,42.82s0,0,0,0l-.08.09s0,0,0,0a.89.89,0,0,1-.4.2h-.13a.4.4,0,0,1-.19-.11s0,0,0,0a.12.12,0,0,1,0-.1s0,0,0-.06a.34.34,0,0,1,.18-.15,2,2,0,0,1,.33-.08h0s0,0,.06,0l.12,0a.4.4,0,0,1,.16.12S101.49,42.8,101.49,42.82Z"/><path class="cls-8" d="M72.59,117s.19-.09.15,0"/><path class="cls-8" d="M74,24.71c0,.05,0,0,0,0v0a.13.13,0,0,1-.1.09s0,0,0,0a.5.5,0,0,1-.24-.19c0-.07,0-.07,0-.1s0,0,0,0,0,0,0,0l0,0A.6.6,0,0,1,74,24.71Z"/><path class="cls-8" d="M98.21,32.25h-.08s0,0,0,0,0,0,0,0h0Z"/><path class="cls-8" d="M112.25,52.2c0,.08-.18.21-.24.23l0,0s0,0,0,0-.13,0-.15,0-.05,0,0,0,0,0,0,0,.19-.22.24-.24,0,0,0,0h.08s0,0,.07,0S112.25,52.13,112.25,52.2Z"/><path class="cls-8" d="M17.19,87.76s0,0,0-.05v0s0,0,0,0v0S17.21,87.75,17.19,87.76Z"/><path class="cls-8" d="M108.94,33.51s0,0,0,0,0,0,0,0l0,0a.26.26,0,0,1-.15,0s0,0,0,0A.26.26,0,0,1,108.94,33.51Z"/><path class="cls-8" d="M43.88,32.47s0,0,0,0h0Z"/><path class="cls-8" d="M68.17,26.46a.12.12,0,0,1,0,.12l0-.07S68.16,26.45,68.17,26.46Z"/><path class="cls-8" d="M68.19,26.41h0s0,0,0,0S68.18,26.4,68.19,26.41Z"/><path class="cls-5" d="M71.2,116.62c6.77-.85,10.57-6.53,10.57-6.53a25.21,25.21,0,0,1-5.38,3.38c-2,.76-7.45,1.15-10.86.48s-4.22-1.72-6.43-2.35-4.39-1.1-6.6-1.55c-6.81-2.24-13.65-4.46-20.18-7.17C27.7,101,23.39,97.7,19.75,94.67c-1.17-1-1.21-.55-1.69,0-.86,1,.05,1.3.65,1.85a66.6,66.6,0,0,0,5.2,4.22c1.28.93,2.55,1.74,3.88,2.56.53.33,1,.63,1.57.93a56.9,56.9,0,0,0,7,3.36c2.91,1.12,6,2,8.94,2.92l.06,0,2.42.64,2.32.6c.75.2,1.68.43,2.35.58s1.69.43,2.09.56l.22.07c1.84.55,4,1,5.81,1.51l1.53.37c1.64.66,5,1.69,5,1.69S68,117,71.2,116.62Z"/></g></g></svg>