<svg xmlns="http://www.w3.org/2000/svg" viewBox="0 0 110.56 129.1"><defs><style>.cls-1{fill:#fff;stroke:#ccc;stroke-miterlimit:10;}.cls-2{fill:#2e4999;}.cls-3{fill:#f5de65;}.cls-4{fill:#a1d6f6;}.cls-5{fill:#f8f196;}</style></defs><g id="圖層_2" data-name="圖層 2"><g id="素材"><path class="cls-1" d="M79.66,128.18a17.84,17.84,0,0,1-10.38-.86,37.76,37.76,0,0,1-13.09-7.92,10.84,10.84,0,0,1-5,0,7.68,7.68,0,0,1-5.06-3.35,7.34,7.34,0,0,1-.76-5.59c-2.6-3.43-6.26-5.76-10.14-8.22L33.28,101l-2.35-1.5a91.18,91.18,0,0,1-10.71-7.61,32.69,32.69,0,0,1-9.45-13.18,4,4,0,0,1-3.11-.64C6,76.9,5.73,75.07,5.41,72.3c0-.21,0-.43-.08-.64-.07-.56-.15-1.14-.19-1.77,0-.11,0-.28,0-.43a7,7,0,0,1-2.81-3.4,18.88,18.88,0,0,1-.67-14.43l.06-.16A6,6,0,0,1,4.2,48v-.27c0-.16,0-.33,0-.5C4.55,38.67,6,32,8.63,26.1c3.49-7.65,9.35-13.55,17.9-18A66.44,66.44,0,0,1,42,2.25,65.32,65.32,0,0,1,54.11.55c8.91-.42,17.8,2,26.41,7.1,11.13,6.64,19.28,14.65,24.9,24.49a48.11,48.11,0,0,1,4.34,10.55,5.53,5.53,0,0,1-.33,4.36,5,5,0,0,1-3.32,2.31h0l-.6.12c-1.11.18-2.25.4-3.47.7-2.1.49-4.2,1.12-6.2,1.75-.77,5.6-3.08,10.51-5.32,15.27l-.11.25a22.47,22.47,0,0,0-2.47,9.86,5.42,5.42,0,0,0,.15.91,10.06,10.06,0,0,1,.25,3,11.75,11.75,0,0,1-1.3,5l.69,3.86c.34,1.92.69,3.9,1.06,5.83A7.77,7.77,0,0,0,90,99.32a6.56,6.56,0,0,1,1,6.56,2.9,2.9,0,0,0,.24.52l.13.22a7.58,7.58,0,0,1,1.27,4.67v0a3.83,3.83,0,0,1-1.39,3.25,7.74,7.74,0,0,1-.22,1.64C89.49,122.47,85.34,126.83,79.66,128.18Zm-12.59-18,.31.28.39.36c.39.32.77.65,1.14,1a21.74,21.74,0,0,0,4.63,3.37,1.86,1.86,0,0,0,1.13.23.8.8,0,0,0,.43-.28c1.41-1.52,1.48-2,1.48-2.12,0-.63-.06-1.3-.12-2a25.77,25.77,0,0,1-.12-3.58,6.64,6.64,0,0,1-.44-6.11,58.65,58.65,0,0,1-1.69-9.58A7.29,7.29,0,0,1,70,89a8,8,0,0,1-1-6.22,1.08,1.08,0,0,0,0-.29h0a1.47,1.47,0,0,0-.27-.37,23.71,23.71,0,0,0-1.68-1.74,50.21,50.21,0,0,0-4.8-3.8c-.93-.67-1.86-1.36-2.79-2.08v.93a101.12,101.12,0,0,0,3.54,27.13A6.63,6.63,0,0,1,67.07,110.15Zm-20.15-3.59,2.12,0v0l-2.13-.13ZM41.14,92.34c.61.43,1.15.87,1.67,1.3a10.87,10.87,0,0,0,2,1.41l.32.15.29.22.59.46a136.34,136.34,0,0,1-2.52-25.19h-.06a63,63,0,0,1-10,.13c-1.59-.06-3.1-.12-4.61-.12a42.87,42.87,0,0,0-8.81.82,16.93,16.93,0,0,0,1.19,2c4.74,6.84,11.18,12,17.37,16.71l2.06,1.58.23.28ZM66.8,62.89c.8.67,1.61,1.34,2.47,2a52.57,52.57,0,0,1,6.49,5.89A38.2,38.2,0,0,1,78,64.9l.27-.6.13-.12,0-.14.27-.54,1-2a58.52,58.52,0,0,0,2.56-5.41L70.41,59.47A21.88,21.88,0,0,1,66.8,62.89ZM50.6,73.13l-.35,0,.12.08Zm8.46-7.44.78-.7h0l-.77.68Zm-8.58-2.62h0l0-.17Zm-5,0-.38-1,.37,1ZM82.64,42.44l0,0,1.43-1.32ZM53.4,34.05v0ZM64.12,27l.6-.14a.51.51,0,0,0,0-.17l-.78.19-.08.16Zm-1.1.13,0,0-.32.07Zm-39,2.71-.54-1.14h0l0,.07-.06,0,.4,1.08Zm11.88-3.38.35-.39h0l-.35.39Zm0,0,.35-.38h0l-.35.38Z"/><path class="cls-2" d="M12.83,73.51C9.34,76,9.34,76,8.84,71.79c-.08-.75-.2-1.5-.25-2.25C8.5,68.25,8.39,67.05,7,66.4a3.47,3.47,0,0,1-1.5-1.87,15.42,15.42,0,0,1-.56-11.85c.24-.7.5-1.59,1.17-1.88,1.72-.73,1.56-2.13,1.62-3.57.26-6.82,1.23-13.49,4.1-19.78C15.2,20,21,14.8,28.12,11.05A62.17,62.17,0,0,1,54.25,3.93c8.8-.42,16.92,2.12,24.46,6.61,9.77,5.83,18,13.26,23.66,23.23a44.73,44.73,0,0,1,4,9.79c.4,1.39.14,2.12-1.46,2.38a76.31,76.31,0,0,0-11.1,2.86c-.74.24-1.25.5-1.33,1.34-.5,5.66-2.9,10.69-5.27,15.72a26.06,26.06,0,0,0-2.79,11.36c0,1.23.52,2.32.41,3.58a7.59,7.59,0,0,1-1.19,4.08A1.38,1.38,0,0,0,83.45,86c.64,3.47,1.23,7,1.89,10.43a10.66,10.66,0,0,0,1.91,5,3.11,3.11,0,0,1,.47,3.15,3.78,3.78,0,0,0,.47,3.44,4.88,4.88,0,0,1,1,2.92c0,.28,0,.77-.09.83-1.65.72-1.13,2.31-1.43,3.53-2,8.07-9.15,11.7-17.15,8.68a33.66,33.66,0,0,1-12.58-7.84,1.54,1.54,0,0,0-1.83-.4,7.9,7.9,0,0,1-4.12.22c-2.71-.64-3.83-2.29-3.17-5a2.75,2.75,0,0,0-.65-2.63c-3.44-4.57-8.33-7.3-13-10.32-4.33-2.81-8.76-5.44-12.69-8.83A28.85,28.85,0,0,1,12.83,73.51ZM67.26,25.45h0a.67.67,0,0,0-.69-.32h0a25.49,25.49,0,0,0-8.79-3.32,33,33,0,0,0-10.16-1.44,12.48,12.48,0,0,0-3.76-.05l-.91.12a1.2,1.2,0,0,0-1.19,0l-1.59.25A5.25,5.25,0,0,0,37.6,21l-.6.1a.75.75,0,0,0-1,.2h-.57l-.86.16-3.16.76a2.21,2.21,0,0,0-1.48.53l-1.17.33A72,72,0,0,0,14,29.43c-2.43,1.3-3,3.14-3.54,5.61,1-.85,2.29-1.52,2.66-2.14,1.4-2.33,3.64-3.26,5.8-4.33a38.67,38.67,0,0,1,13.16-3.66l.47,0,.61,0,.69-.07A26.87,26.87,0,0,1,39.46,26c.72.41,1.44.8,2.13,1.24a1.53,1.53,0,0,1,.78,1.46c-.07.82-.85.67-1.35.79-4.06,1-8.11,2-12.2,2.79a75.81,75.81,0,0,0-14,3.85,14.75,14.75,0,0,1-4,1.44c-1.09.09-1.06.55-1.15,1.24-.2.21-.54.37-.32.76l.08.68c-.6,2.4-.44,4.86-.58,7.29A115.28,115.28,0,0,0,9,63.32c.21,3.54.62,7.08,1,11,.94-1,1.62-1.57,2.23-2.25C14.77,69.22,16.66,65.94,19,63c3.43-4.46,7.85-6.38,13.4-5.41a59.59,59.59,0,0,0,18.47.51c12.24-1.68,24-5.22,35.76-8.77,5.77-1.74,11.37-4.05,17.36-5,1-.16,1-.53.8-1.38a40.21,40.21,0,0,0-5.5-11.38,64.43,64.43,0,0,0-22-19.83A43.45,43.45,0,0,0,54.92,5.6a59.84,59.84,0,0,0-21,4.3c-7.59,3-14.2,7.3-18.84,14.2a21,21,0,0,0-2.6,5,1.17,1.17,0,0,0,1.13-.27,63.55,63.55,0,0,1,25-9.44A48.28,48.28,0,0,1,63.83,22.2C71.43,25.29,77.6,30.44,83.49,36a28.46,28.46,0,0,1,2.64,3.22c.32.41.67,1,.16,1.36s-.8-.26-1.09-.55c-.93-1-1.8-2-2.73-2.92a60.77,60.77,0,0,0-14.79-11.4ZM51.35,107.54a6.82,6.82,0,0,0-1.42,5.3c.33-1.79,1.15-3.45,1.54-5.22.14-.1.26-.27.08-.36S51.35,107.4,51.35,107.54ZM32.68,91.93c.09.5.38,1.07.24,1.5-.49,1.41.38,1.71,1.28,2,1.33-2.07-.33-2.68-1.54-3.51l-2.49-2.22c-.07,1.12.28,2.18-1.07,2.39a7.77,7.77,0,0,1-.4-2.34c-.24-1.43-.08-1.46-1.33-2.14C27,91.2,27,91.2,29.12,92.1c.56,1,1.69,1.17,2.6,1.93C31.94,93.14,31.56,92.13,32.68,91.93ZM7.56,58.61a21.55,21.55,0,0,1-.81,2.91c-.84,2-.65,2.7,1.39,3.81a49.22,49.22,0,0,0-.61-6.73c.34-2.4,0-4.79,0-7.21-.69.75-1.81,1.53-1.31,2.44C7,55.36,7.13,57,7.56,58.61ZM18.72,78.46a3.8,3.8,0,0,1-.22,3.61c-.58.81.37,1.15.66,1.69.14.25.33.63.79.43s1.4-2.77,1-3.2c-.74-.85-1.23-1.94-2.28-2.5-1.26-2.43-3-4.61-3.81-7.27-2,1-1,2.25-.51,3.45.5-.13.49-1.15,1.11-.77s.19,1,0,1.43c-.68,1.28-.12,2.27.56,3.3.74-.48-.09-1.53.77-1.95a1.51,1.51,0,0,1,.38,1.91c-.64,1.53-.58,1.84.77,3C18,79.28,18,79.28,18.72,78.46Zm40-10.95c1.57,2.12,2.35,2.2,3.87.34.39-.48.67-1,1.3-1.24.76,2.06-1.1,2.45-2.3,3.38A4.69,4.69,0,0,0,64,71.68c1.06.18,1.71-1,2.75-1.75,0,1.36-.35,2.25-1.31,2.64,1.43,2.27,3,1.39,4.41,0,.31,1.14.1,1.83-.67,2.21s-.44.52,0,.82c.59.45,1,1.53,1.94.31.18-.25.67-.63,1-.19a.76.76,0,0,1-.18,1.09c-1.3.49-.5,1-.08,1.5l1.47,1.86c1.82-2.33,1.8-2.31.27-4.41-2.65-3.65-6.15-6.39-9.7-9.08l-2.42-2.08c-.57,1.44-.87,3-2.75,3-.57-1,.43-1.12.8-1.62.5-.68,1.65-1.29.85-2.29-1.06-1.33-2.35-2.48-3.69-3.87l-.34,5.75,2.05-3.11c.07,1.37,0,2.41-.91,2.95s-.48.75-.07,1.12S58.07,67.41,58.7,67.51Zm19.56,52.71c-.6-1.3-1.28-.75-2.08,0a3.55,3.55,0,0,0,1.83.51c.28.23.9.11.85.69,0,.41-.46.46-.79.57a2,2,0,0,1-2.5-.61c-.73-1.2-1.74-1.19-2.87-1.28,0,.75.88,1.33.24,2.1-.88-.8-1-2.31-1.64-2.73a44.15,44.15,0,0,1-8.12-6.74c-.25-.24-.51-.8-1-.33-1.12,1.17-2.7,1.67-4,2.77.5.38.89.71,1.31,1,.94.67,1.83,1.75,2.84,1.88s1.38-1.58,2.26-2.27a1.3,1.3,0,0,1-.06,1.68c-1.38,1.63-.36,2.21,1,2.69l.8-1.81c.47.21.5.51.41.78-.52,1.61.54,2.13,1.73,2.59a26.58,26.58,0,0,0,6,1.66c6.28.83,11.09-3.72,12-9.65.12-.76-.09-1-.81-.73a4.17,4.17,0,0,1-3.37-.23c-.65-.33-1-.19-1.22.59a12.83,12.83,0,0,1-2.86,5.21c1.17.88,2.48.59,3.89.69C81.05,120.78,79.7,120.69,78.26,120.22ZM81.77,65c2.18-4.38,4.75-8.61,5.17-13.71a2.48,2.48,0,0,0-.59,0L69,56.15c-.27.08-.62.16-.76.36-1.85,2.55-4.45,4.21-7,6l2.66,2.34c4.06,3.6,8.76,6.53,11.62,11.35a.8.8,0,0,0,.53.36c.8,0,2.56-1.77,2.67-2.62a27.26,27.26,0,0,1,2.5-7.67A2.09,2.09,0,0,0,81.77,65ZM43.26,98.09c2.73,2.07,4.92,4.81,8.11,6.85-2.8-12.89-5-25.5-4.33-38.46-1.45.24-2.75.5-4.06.66-4.73.55-9.46,0-14.18,0A43.29,43.29,0,0,0,17.29,68.5c-1.23.33-2,1.1-1.42,2.38a30.51,30.51,0,0,0,2.44,4.58C23.19,82.51,29.7,87.85,36.44,93l1.74,1.34c.27.32.49.7.94.8A31.08,31.08,0,0,0,43.26,98.09ZM56.31,66.36c-.25,3.25-.3,6.11-.27,9a104.3,104.3,0,0,0,3.74,28.33,2.34,2.34,0,0,0,1.43,1.76c2.33,1,3,2.45,2.18,4.87-.26.8-.19,1.24.53,1.69a15.45,15.45,0,0,1,1.58,1.35c2.08,1.75,4,3.67,6.54,4.85a4.57,4.57,0,0,0,5.59-.84c1.19-1.28,2.42-2.81,2.41-4.51,0-2.19-.5-4.38-.1-6.6,0-.14-.29-.34-.44-.52a3.31,3.31,0,0,1-.27-3.59c.14-.36.36-.63.24-1a55.24,55.24,0,0,1-1.93-11.28,1.24,1.24,0,0,0-1.21-1.34c-3.43-.54-4.48-1.83-3.87-5.18a3.91,3.91,0,0,0-1-3.56,26,26,0,0,0-1.94-2C65.35,73.82,60,71.36,56.31,66.36Zm-1.66.54c.31-2.39.59-4.61.91-6.82.1-.72.07-1.1-.85-.92-1.53.3-3.08.52-4.64.71-.73.09-1.1.33-1.2,1.15a86.74,86.74,0,0,0-.78,8.82,133.41,133.41,0,0,0,3.52,31.1c1.06,4.75.46,4.33,5.22,4a8.29,8.29,0,0,1,.86,0c.83,0,.92-.33.72-1.08a116.91,116.91,0,0,1-3.69-27c0-.86-.19-1.21-1.19-1.11a3.41,3.41,0,0,1-3.59-2.2c-.16-.34-.31-.69,0-1s.65.06.89.25a7.1,7.1,0,0,0,3.76,1.78c0-2,.06-4,.11-6,0-.79-.09-1.15-1.1-1.14a3.93,3.93,0,0,1-3.74-4A15.52,15.52,0,0,0,54.65,66.9Zm-6.72-6.75c-5.41.43-10.64-.32-15.89-1.09a12.69,12.69,0,0,0-13.9,7.71,41.82,41.82,0,0,1,11.54-1.25c4.61,0,9.24.31,13.83-.34,3.55-.5,3.55-.54,4.2-3.89C47.78,61,47.84,60.62,47.93,60.15ZM82.45,86.27a10.73,10.73,0,0,1-3.63,1.91c-.46.11-.69.31-.62.84.49,3.84.57,7.75,1.85,11.46.11.32.14.76.57.76,1.39,0,2.91.1,4-.7.86-.61,0-1.68-.17-2.54-.23-1.49-.58-3-.84-4.44C83.25,91.23,82.88,88.89,82.45,86.27Zm1.5-7.6a19.25,19.25,0,0,1,1-9.79c.26-.67-.14-.68-.6-.88-1.16-.5-1.17-.59-.93-1.84.86.21,1,1.37,1.91,1.59l.8-2.31a2.28,2.28,0,0,1-2.9-.92,35,35,0,0,0-2.82,6.14c-.08.3-.75.75,0,.93.89.22.76,1.24,1.47,1.56.34.16.75.52.32,1s-.83.17-1.25-.08c-.67-.38-.51-1.3-1.12-1.85-.22.95-.37,1.75-.6,2.52-.15.5,0,.78.45.9C81.32,76,82.44,77.21,84,78.67ZM89.89,54.6a1,1,0,0,1-1.06.45c-1.32-.42-1.59.4-1.92,1.36a25.9,25.9,0,0,1-1.6,3.84c-.7,1.28-1,2.38,0,3.63.27.3.43.69.84.77.56.1.59-.43.75-.78.35-.73.68-1.46,1-2.2.25-.52.44-.94-.46-1-.56,0-1.05-.43-.85-1.05s.76-.27,1.19-.17,1,.31,1.34-.51c.4-1.09-.53-.65-.87-.87s-1.08-.53-.85-1.11.92-.35,1.35-.1c.9.54,1.15.06,1.42-.71a32.46,32.46,0,0,0,1.13-5C91.65,49.68,91,49.6,90,50c-.68.29-1.95.11-1.88,1.08s1.15.06,1.74.35c.33.17.9,0,1,.53s-.44.81-.88.9a3,3,0,0,1-1.19-.06c-.33-.07-.69-.94-.9.09-.11.57,0,.84.67.89S89.67,53.92,89.89,54.6ZM40.1,28.08a4.56,4.56,0,0,0-2.61-1.3,20.13,20.13,0,0,0-7.58-.12c-.84.14-1.93,0-1.45,1.41.37,1.1.18,2.77,2.24,2.25C33.73,29.56,36.77,28.87,40.1,28.08ZM51.21,113c3.48-.67,6.66-1.45,8.71-4.76a16.35,16.35,0,0,1-6.05-1.08c-.54-.24-.73,0-.88.42C52.43,109.3,51.85,111,51.21,113ZM22.7,32.19c3.27-.91,3.28-1,2-3.26a1,1,0,0,0-1.53-.54,28.23,28.23,0,0,1-2.87,1.16c-1.76.53-1,1.62-.71,2.67.43,1.46,1.27.34,1.92.31A5.39,5.39,0,0,0,22.7,32.19Zm1,53a1.55,1.55,0,0,1,.56,1.89c-.53,1.7-.52,1.73,1.45,2.49a9.42,9.42,0,0,0,.43-1.84c0-.45.73-.8.13-1.36-1.48-1.39-2.92-2.83-4.37-4.24-.42,2-1.87,4.15,1,5.42C23.41,86.9,23.09,86,23.74,85.21Zm54.85-6.53-3.26,4.13a11.87,11.87,0,0,0,6.32-.45c.77-.33,1-.69.17-1.28C80.73,80.33,79.69,79.51,78.59,78.68ZM82.83,84a17.79,17.79,0,0,1-8.13.6c-.4-.07-.83-.72-1.2-.13s-.07,1.12.38,1.55A3.14,3.14,0,0,0,76,87,8.33,8.33,0,0,0,82.83,84Zm-1.67,20.74c.49,2.18,1,2.53,3.11,2,.51-.12.91-.23.63-.89-.19-.42-.54-.88-.48-1.27.43-2.58-1.26-2.09-2.75-2-.74,0-1.1.15-.8,1A11.11,11.11,0,0,1,81.16,104.73ZM65.26,57c-2.76.66-5.1,1.21-7.44,1.78-.09,0-.15.14-.25.26a9.54,9.54,0,0,0,2.13,2.17c.32.27.65.58,1,.13C62,59.78,63.83,59,65.26,57Zm-3.14,50.33c-2.11,4.09-3.11,4.88-9.41,7.34,3.8-.18,6.77-1.3,9.17-3.78A2.45,2.45,0,0,0,62.12,107.28Zm22.55,4.28c.51-.3,1.36-.16,1-1.11-.29-.72-.35-1.83-.85-2.09a3.69,3.69,0,0,0-2.66-.08c-.85.31-.56,1.46-.38,2.09C82.21,111.92,83.61,111.48,84.67,111.56ZM74.76,81.32c.73-1,1.51-1.93,2.18-2.95.87-1.31,1.71-1.67,2.93-.37a9.89,9.89,0,0,0,3.47,2.3c-1-2-3.24-3.76-4.67-3.58C76.81,77,75.12,78.79,74.76,81.32ZM35.86,94.21c-.41,2.59-.4,2.59,1.75,2.35a.51.51,0,0,1,.61.47c0,1.73,1.53,1.89,2.66,2.47C40.32,96.79,37.48,96.3,35.86,94.21ZM27.59,29.28a7.34,7.34,0,0,0-.18-.74c-.15-.43.26-1.17-.53-1.23a1.84,1.84,0,0,0-1.3.37c-.56.52.25.87.37,1.32s.46.94.6,1.43.45.75,1,.57.44-.56.29-1S27.66,29.49,27.59,29.28Zm16.74,71.66c-.24.61-.46,1.23.25,1.51,1.2.48,1.62,1.67,2.46,2.46.23.22.45.81.87.43a.75.75,0,0,0,0-1.19A24.34,24.34,0,0,0,44.33,100.94ZM12.25,35.42c3.33-.46,4.05-1.1,3.23-2.88C14.5,33.56,13.17,34.13,12.25,35.42ZM17,32.78c.15.17-.15,1.16.94.83.68-.21,1.08-.6.68-1.21-.3-.45.08-1.64-1.08-1.26C17,31.33,16.37,31.71,17,32.78ZM5.44,60.35c1-2.18,1-2.94,0-4.94A11,11,0,0,0,5.44,60.35Zm44.37,47.43c.73-1,.95-1.91-.57-2.27C49,106.36,48.52,107.26,49.81,107.78Zm-7.73-8.39c-.23.27-.64.54-.42.85A1.72,1.72,0,0,0,43,101c.13,0,.44-.54.37-.68A1.74,1.74,0,0,0,42.08,99.39Z"/><path class="cls-3" d="M78.26,120.22c1.44.47,2.79.56,4-1-1.41-.1-2.72.19-3.89-.69a12.83,12.83,0,0,0,2.86-5.21c.22-.78.57-.92,1.22-.59a4.17,4.17,0,0,0,3.37.23c.72-.25.93,0,.81.73-1,5.93-5.76,10.48-12,9.65a26.58,26.58,0,0,1-6-1.66c-1.19-.46-2.25-1-1.73-2.59.09-.27.06-.57-.41-.78-.27.6-.53,1.2-.8,1.81-1.41-.48-2.43-1.06-1-2.69a1.3,1.3,0,0,0,.06-1.68c-.88.69-1.13,2.42-2.26,2.27s-1.9-1.21-2.84-1.88c-.42-.29-.81-.62-1.31-1,1.29-1.1,2.87-1.6,4-2.77.45-.47.71.09,1,.33a44.15,44.15,0,0,0,8.12,6.74c.69.42.76,1.93,1.64,2.73.64-.77-.2-1.35-.24-2.1,1.13.09,2.14.08,2.87,1.28a2,2,0,0,0,2.5.61c.33-.11.75-.16.79-.57,0-.58-.57-.46-.85-.69Zm6.42-4.31c-1.26.21-2.21.38-3.17.53-.4.07-.88,0-.83.62a.9.9,0,0,0,.8.8C83,118.19,83.94,117.42,84.68,115.91Zm-22.05-2.2a10.89,10.89,0,0,1-2.12,1.39c-.28.15-.64.42-.42.82a.74.74,0,0,0,1,.29A2.4,2.4,0,0,0,62.63,113.71Zm7.35,8A2.06,2.06,0,0,0,69,119,4.23,4.23,0,0,0,70,121.7Z"/><path class="cls-3" d="M82.45,86.27c.43,2.62.8,5,1.21,7.29.26,1.48.61,3,.84,4.44.12.86,1,1.93.17,2.54-1.14.8-2.66.7-4,.7-.43,0-.46-.44-.57-.76C78.77,96.77,78.69,92.86,78.2,89c-.07-.53.16-.73.62-.84A10.73,10.73,0,0,0,82.45,86.27Zm-1,7.58c.45-.4,1.56-.57,1.32-1.43s-.9.25-1.44.1A8.86,8.86,0,0,0,80,92.36c-.33,0-.73-.23-.93.17s.18.75.49,1A2.24,2.24,0,0,0,81.47,93.85Zm.73-5.16a9,9,0,0,1-1.31.65,6,6,0,0,1-1.33.18c-.3,0-.6,0-.7.31s.17.63.45.82C80.34,91.3,81.32,90.73,82.2,88.69Zm.46,11.19c.7-.3,1.63-.44,1.52-1.1-.13-.87-.92-.07-1.41-.17a3.5,3.5,0,0,0-1,0c-.31,0-.76,0-.79.42s.35.59.67.68A6.72,6.72,0,0,0,82.66,99.88Zm.54-3.09a4.58,4.58,0,0,0-3-.25C81.14,97.66,82,98,83.2,96.79Z"/><path class="cls-3" d="M63.85,66.65c3.55,2.69,7.05,5.43,9.7,9.08,1.53,2.1,1.55,2.08-.27,4.41l-1.47-1.86c-.42-.52-1.22-1,.08-1.5a.76.76,0,0,0,.18-1.09c-.35-.44-.84-.06-1,.19-.9,1.22-1.35.14-1.94-.31-.4-.3-.59-.51,0-.82s1-1.07.67-2.21c-1.46,1.42-3,2.3-4.41,0,1-.39,1.33-1.28,1.31-2.64-1,.71-1.69,1.93-2.75,1.75A4.69,4.69,0,0,1,61.57,70c1.2-.93,3.06-1.32,2.3-3.38Z"/><path class="cls-3" d="M84,78.67c-1.51-1.46-2.63-2.66-4.29-3.07-.5-.12-.6-.4-.45-.9.23-.77.38-1.57.6-2.52.61.55.45,1.47,1.12,1.85.42.25.86.49,1.25.08s0-.8-.32-1c-.71-.32-.58-1.34-1.47-1.56-.74-.18-.07-.63,0-.93a35,35,0,0,1,2.82-6.14,2.28,2.28,0,0,0,2.9.92l-.8,2.31c-.95-.22-1-1.38-1.91-1.59-.24,1.25-.23,1.34.93,1.84.46.2.86.21.6.88A19.25,19.25,0,0,0,84,78.67ZM82,69.06a.75.75,0,0,0-.42.94c.33.72.83,1.28,1.73,1.12a.44.44,0,0,0,.31-.67A3.06,3.06,0,0,0,82,69.06Z"/><path class="cls-3" d="M89.89,54.6c-.22-.68-.84-.76-1.38-.81s-.78-.32-.67-.89c.21-1,.57-.16.9-.09a3,3,0,0,0,1.19.06c.44-.09.93-.35.88-.9s-.63-.36-1-.53c-.59-.29-1.67.55-1.74-.35S89.31,50.3,90,50c1-.41,1.66-.33,1.38,1.1a32.46,32.46,0,0,1-1.13,5c-.27.77-.52,1.25-1.42.71-.43-.25-1.09-.56-1.35.1s.42.83.85,1.11,1.27-.22.87.87c-.3.82-.78.66-1.34.51s-1-.47-1.19.17.29,1,.85,1.05c.9.06.71.48.46,1-.35.74-.68,1.47-1,2.2-.16.35-.19.88-.75.78-.41-.08-.57-.47-.84-.77-1.07-1.25-.74-2.35,0-3.63a25.9,25.9,0,0,0,1.6-3.84c.33-1,.6-1.78,1.92-1.36A1,1,0,0,0,89.89,54.6Z"/><path class="cls-3" d="M51.21,113c.64-1.94,1.22-3.68,1.78-5.42.15-.46.34-.66.88-.42a16.35,16.35,0,0,0,6.05,1.08C57.87,111.53,54.69,112.31,51.21,113Z"/><path class="cls-3" d="M23.74,85.21c-.65.76-.33,1.69-.78,2.36-2.89-1.27-1.44-3.42-1-5.42,1.45,1.41,2.89,2.85,4.37,4.24.6.56-.1.91-.13,1.36a9.42,9.42,0,0,1-.43,1.84c-2-.76-2-.79-1.45-2.49A1.55,1.55,0,0,0,23.74,85.21Z"/><path class="cls-3" d="M78.59,78.68c1.1.83,2.14,1.65,3.23,2.4.84.59.6,1-.17,1.28a11.87,11.87,0,0,1-6.32.45Z"/><path class="cls-3" d="M58.7,67.51c-.63-.1-.92-.66-1.33-1s-.72-.65.07-1.12,1-1.58.91-2.95L56.3,65.51l.34-5.75c1.34,1.39,2.63,2.54,3.69,3.87.8,1-.35,1.61-.85,2.29-.37.5-1.37.66-.8,1.62Z"/><path class="cls-3" d="M82.83,84A8.33,8.33,0,0,1,76,87a3.14,3.14,0,0,1-2.13-1c-.45-.43-.75-1-.38-1.55s.8.06,1.2.13A17.79,17.79,0,0,0,82.83,84Z"/><path class="cls-3" d="M18.72,78.46c-.68.82-.68.82-.79,3.18-1.35-1.21-1.41-1.52-.77-3a1.51,1.51,0,0,0-.38-1.91c-.86.42,0,1.47-.77,1.95-.68-1-1.24-2-.56-3.3.23-.43.54-1.11,0-1.43s-.61.64-1.11.77c-.51-1.2-1.44-2.41.51-3.45.84,2.66,2.55,4.84,3.81,7.27Z"/><path class="cls-3" d="M81.16,104.73a11.11,11.11,0,0,0-.29-1.17c-.3-.82.06-1,.8-1,1.49-.06,3.18-.55,2.75,2-.06.39.29.85.48,1.27.28.66-.12.77-.63.89C82.19,107.26,81.65,106.91,81.16,104.73Z"/><path class="cls-4" d="M65.26,57c-1.43,2-3.3,2.83-4.54,4.34-.37.45-.7.14-1-.13A9.54,9.54,0,0,1,57.57,59c.1-.12.16-.24.25-.26C60.16,58.16,62.5,57.61,65.26,57Z"/><path class="cls-3" d="M62.12,107.28a2.45,2.45,0,0,1-.24,3.56c-2.4,2.48-5.37,3.6-9.17,3.78C59,112.16,60,111.37,62.12,107.28Z"/><path class="cls-3" d="M84.67,111.56c-1.06-.08-2.46.36-2.91-1.19-.18-.63-.47-1.78.38-2.09a3.69,3.69,0,0,1,2.66.08c.5.26.56,1.37.85,2.09C86,111.4,85.18,111.26,84.67,111.56Z"/><path class="cls-3" d="M63.87,66.61c-.63.21-.91.76-1.3,1.24-1.52,1.86-2.3,1.78-3.87-.34l0,0c1.88,0,2.18-1.53,2.75-3l2.42,2.08Z"/><path class="cls-3" d="M74.76,81.32c.36-2.53,2-4.36,3.91-4.6,1.43-.18,3.71,1.55,4.67,3.58A9.89,9.89,0,0,1,79.87,78c-1.22-1.3-2.06-.94-2.93.37C76.27,79.39,75.49,80.34,74.76,81.32Z"/><path class="cls-3" d="M18.7,78.49c1.05.56,1.54,1.65,2.28,2.5.37.43-.52,3-1,3.2s-.65-.18-.79-.43c-.29-.54-1.24-.88-.66-1.69a3.8,3.8,0,0,0,.22-3.61Z"/><path class="cls-3" d="M35.86,94.21c1.62,2.09,4.46,2.58,5,5.29-1.13-.58-2.66-.74-2.66-2.47a.51.51,0,0,0-.61-.47C35.46,96.8,35.45,96.8,35.86,94.21Z"/><path class="cls-3" d="M29.1,92.13c1.35-.21,1-1.27,1.07-2.39L32.66,92l0,0c-1.12.2-.74,1.21-1,2.1-.91-.76-2-.91-2.6-1.93Z"/><path class="cls-3" d="M29.12,92.1c-2.15-.9-2.15-.9-1.75-4.45,1.25.68,1.09.71,1.33,2.14a7.77,7.77,0,0,0,.4,2.34Z"/><path class="cls-3" d="M32.66,92c1.21.83,2.87,1.44,1.54,3.51-.9-.33-1.77-.63-1.28-2,.14-.43-.15-1-.24-1.5Z"/><path class="cls-3" d="M51.47,107.62c-.39,1.77-1.21,3.43-1.54,5.22a6.82,6.82,0,0,1,1.42-5.3Z"/><path class="cls-3" d="M49.81,107.78c-1.29-.52-.81-1.42-.57-2.27C50.76,105.87,50.54,106.73,49.81,107.78Z"/><path class="cls-3" d="M42.08,99.39a1.74,1.74,0,0,1,1.3,1c.07.14-.24.68-.37.68a1.72,1.72,0,0,1-1.35-.78C41.44,99.93,41.85,99.66,42.08,99.39Z"/><path class="cls-3" d="M78,120.69a3.55,3.55,0,0,1-1.83-.51c.8-.71,1.48-1.26,2.08,0Z"/><path class="cls-3" d="M51.35,107.54c0-.14,0-.37.2-.28s.06.26-.08.36Z"/><path class="cls-2" d="M53.1,70.38A2.23,2.23,0,0,1,50.91,70c-.64-.47-1.56-1.12-1.1-1.88.36-.59,1.16.26,1.75.49a17,17,0,0,1,1.58.66c.36.19,1.11-.07,1,.63S53.4,70.23,53.1,70.38Z"/><path class="cls-3" d="M54.71,59.16c-1.53.3-3.08.52-4.64.71-.73.09-1.1.33-1.2,1.15a86.74,86.74,0,0,0-.78,8.82,133.41,133.41,0,0,0,3.52,31.1c1.06,4.75.46,4.33,5.22,4a8.29,8.29,0,0,1,.86,0c.83,0,.92-.33.72-1.08a116.91,116.91,0,0,1-3.69-27c0-.86-.19-1.21-1.19-1.11a3.41,3.41,0,0,1-3.59-2.2c-.16-.34-.31-.69,0-1s.65.06.89.25a7.1,7.1,0,0,0,3.76,1.78c0-2,.06-4,.11-6,0-.79-.09-1.15-1.1-1.14a3.93,3.93,0,0,1-3.74-4,15.52,15.52,0,0,0,4.81,3.32c.31-2.39.59-4.61.91-6.82C55.66,59.36,55.63,59,54.71,59.16ZM54,82.36c0-.09-.09-.25-.18-.28.09,0,.13.19.18.28a.49.49,0,0,1-.19.55A.49.49,0,0,0,54,82.36ZM51.56,68.58a17,17,0,0,1,1.58.66c.36.19,1.11-.07,1,.63s-.75.36-1,.51A2.23,2.23,0,0,1,50.91,70c-.64-.47-1.56-1.12-1.1-1.88C50.17,67.5,51,68.35,51.56,68.58Zm1.8-5.51c-1.27.61-3.33-.41-4-2.11,1.36.45,2.55,1.14,3.92,1.14a.64.64,0,0,1,.5.36C53.9,62.77,53.63,62.94,53.36,63.07Z"/><path class="cls-3" d="M44.33,100.94c-.24.61-.46,1.23.25,1.51,1.2.48,1.62,1.67,2.46,2.46.23.22.45.81.87.43a.75.75,0,0,0,0-1.19A24.34,24.34,0,0,0,44.33,100.94Z"/><path class="cls-2" d="M49.4,61c1.36.45,2.55,1.14,3.92,1.14a.64.64,0,0,1,.5.36c.08.31-.19.48-.46.61C52.09,63.68,50,62.66,49.4,61Z"/><path class="cls-3" d="M84.68,115.91c-.74,1.51-1.65,2.28-3.2,2a.9.9,0,0,1-.8-.8c-.05-.59.43-.55.83-.62C82.47,116.29,83.42,116.12,84.68,115.91Z"/><path class="cls-3" d="M62.63,113.71a2.4,2.4,0,0,1-1.5,2.5.74.74,0,0,1-1-.29c-.22-.4.14-.67.42-.82A10.89,10.89,0,0,0,62.63,113.71Z"/><path class="cls-3" d="M70,121.7A4.23,4.23,0,0,1,69,119,2.06,2.06,0,0,1,70,121.7Z"/><path class="cls-3" d="M81.47,93.85a2.24,2.24,0,0,1-1.92-.34c-.31-.23-.71-.51-.49-1s.6-.21.93-.17a8.86,8.86,0,0,1,1.36.16c.54.15,1.22-.87,1.44-.1S81.92,93.45,81.47,93.85Z"/><path class="cls-3" d="M82.2,88.69c-.88,2-1.86,2.61-2.89,2-.28-.19-.58-.42-.45-.82s.4-.31.7-.31a6,6,0,0,0,1.33-.18A9,9,0,0,0,82.2,88.69Z"/><path class="cls-3" d="M82.66,99.88a6.72,6.72,0,0,1-1-.15c-.32-.09-.68-.3-.67-.68s.48-.38.79-.42a3.5,3.5,0,0,1,1,0c.49.1,1.28-.7,1.41.17C84.29,99.44,83.36,99.58,82.66,99.88Z"/><path class="cls-3" d="M83.2,96.79c-1.2,1.2-2.06.87-3-.25A4.58,4.58,0,0,1,83.2,96.79Z"/><path class="cls-3" d="M82,69.06a3.06,3.06,0,0,1,1.62,1.39.44.44,0,0,1-.31.67c-.9.16-1.4-.4-1.73-1.12A.75.75,0,0,1,82,69.06Z"/><path class="cls-4" d="M104.74,42.91a40.21,40.21,0,0,0-5.5-11.38,64.43,64.43,0,0,0-22-19.83A43.45,43.45,0,0,0,54.92,5.6a59.84,59.84,0,0,0-21,4.3c-7.59,3-14.2,7.3-18.84,14.2a21.09,21.09,0,0,0-2.6,5,1.15,1.15,0,0,0,1.13-.26,63.55,63.55,0,0,1,25-9.44A48.28,48.28,0,0,1,63.83,22.2C71.43,25.29,77.6,30.44,83.49,36a28.46,28.46,0,0,1,2.64,3.22c.32.41.67,1,.16,1.36s-.8-.26-1.09-.55c-.93-1-1.8-2-2.73-2.92a60.77,60.77,0,0,0-14.79-11.4l-.42-.23h0a.67.67,0,0,0-.69-.32,25.29,25.29,0,0,0-8.77-3.31c-.39.37-.56.66-.5.91-.06-.25.11-.54.5-.91a33,33,0,0,0-10.16-1.44,12.48,12.48,0,0,0-3.76-.05l.09.35-.09-.35-.91.12a1.2,1.2,0,0,0-1.19,0l-1.59.25,2.36,1.67-2.36-1.67A5.25,5.25,0,0,0,37.6,21l-.6.1h0a.75.75,0,0,0-1,.2h-.57l-.86.16h0l-3.16.76a2.21,2.21,0,0,0-1.48.53l-1.17.33A72,72,0,0,0,14,29.43c-2.43,1.3-3,3.14-3.54,5.61,1-.85,2.29-1.52,2.66-2.14,1.4-2.33,3.64-3.26,5.8-4.33a38.67,38.67,0,0,1,13.16-3.66l.47,0,.61,0,.69-.07A26.87,26.87,0,0,1,39.46,26c.72.41,1.44.8,2.13,1.24a1.53,1.53,0,0,1,.78,1.46c-.07.82-.85.67-1.35.79-4.06,1-8.11,2-12.2,2.79a75.81,75.81,0,0,0-14,3.85,14.75,14.75,0,0,1-4,1.44c-1.09.09-1.06.55-1.15,1.24a.77.77,0,0,1,0,.45.77.77,0,0,0,0-.45c-.2.21-.54.37-.32.76,0,.23.06.45.08.68.93.1.83.9.86,1.45l.09,1.42-.09-1.42c0-.55.07-1.35-.86-1.45-.6,2.4-.44,4.86-.58,7.29h0A115.28,115.28,0,0,0,9,63.32c.21,3.54.62,7.08,1,11,.94-1,1.62-1.57,2.23-2.25C14.77,69.22,16.66,65.94,19,63c3.43-4.46,7.85-6.38,13.4-5.41a59.59,59.59,0,0,0,18.47.51c12.24-1.68,24-5.22,35.76-8.77,5.77-1.74,11.37-4.05,17.36-5C104.92,44.13,105,43.76,104.74,42.91Zm-77-18.86-.23.08.23-.08c.06,0,.1-.13.2-.26l-.43,0,.43,0C27.88,23.92,27.84,24,27.78,24.05Zm8.73-1.74c-.25-.21-.57-.31-.79-.5.22.19.54.29.79.5-.29.08-.58.19-.85.25C35.93,22.5,36.22,22.39,36.51,22.31Zm-.83,1.27a2.24,2.24,0,0,1,2.13.74A2.24,2.24,0,0,0,35.68,23.58Zm3.93-.24,0,0,0,0a.5.5,0,0,0,.21,0A.5.5,0,0,1,39.61,23.34Zm-.77-.45.95-.25Zm1.27-.31Zm-29,23.88a.38.38,0,0,0,.12.17A.38.38,0,0,1,11.14,46.46Zm.25,0a.13.13,0,0,0,0-.06c0-.09-.11-.16-.18-.25.07.09.16.16.18.25A.13.13,0,0,1,11.39,46.48ZM50.1,47.59a.3.3,0,0,0,0-.18c-.1-.36-.43-.33-.69-.39a.57.57,0,0,0-.26,0,.57.57,0,0,1,.26,0c.26.06.59,0,.7.39A.42.42,0,0,1,50.1,47.59ZM48.66,41h0a3.45,3.45,0,0,1,.67,1A3.45,3.45,0,0,0,48.66,41Zm.49-3a9.07,9.07,0,0,0,0-1A9.07,9.07,0,0,1,49.15,38Zm4.28-6.65a12.39,12.39,0,0,0-3.09.38h0a12.39,12.39,0,0,1,3.09-.38,1.23,1.23,0,0,1,.51.09A1.23,1.23,0,0,0,53.43,31.32ZM55,34.07l0-.34h0Zm1.11,1.87a.71.71,0,0,0,.18.38A.71.71,0,0,1,56.11,35.94Zm0-1.65a6.53,6.53,0,0,0-.21-.79l-1,.23,1-.23v0A6.53,6.53,0,0,1,56.15,34.29Zm3.94-6.65a.88.88,0,0,0,.87.53A.88.88,0,0,1,60.09,27.64Zm.28-.43a3,3,0,0,1,.59.06A3,3,0,0,0,60.37,27.21Zm1,.63a4.48,4.48,0,0,0-.11-.62A4.48,4.48,0,0,1,61.36,27.84Zm-.11-.63-.43-.39.43.39Z"/><path class="cls-4" d="M18.14,66.77a41.82,41.82,0,0,1,11.54-1.25c4.61,0,9.24.31,13.83-.34,3.55-.5,3.55-.54,4.2-3.89.07-.34.13-.67.22-1.14-5.41.43-10.64-.32-15.89-1.09A12.69,12.69,0,0,0,18.14,66.77Z"/><path class="cls-5" d="M30.7,30.32c3-.76,6.07-1.45,9.4-2.24a4.56,4.56,0,0,0-2.61-1.3,20.13,20.13,0,0,0-7.58-.12c-.84.14-1.93,0-1.45,1.41C28.83,29.17,28.64,30.84,30.7,30.32Z"/><path class="cls-5" d="M21.55,32.53a5.39,5.39,0,0,0,1.15-.34c3.27-.91,3.28-1,2-3.26a1,1,0,0,0-1.53-.54,28.23,28.23,0,0,1-2.87,1.16c-1.76.53-1,1.62-.71,2.67C20.06,33.68,20.9,32.56,21.55,32.53Z"/><path class="cls-4" d="M7.55,58.68a20.55,20.55,0,0,1-.8,2.84c-.84,2-.65,2.7,1.39,3.81A51.52,51.52,0,0,0,7.55,58.68Z"/><path class="cls-4" d="M6.18,53.83a18.87,18.87,0,0,1,1.36,4.69,49.92,49.92,0,0,0,0-7.13C6.8,52.14,5.68,52.92,6.18,53.83Z"/><path class="cls-4" d="M7.54,58.52a.25.25,0,0,1,0,.08h0l0,.08s0,0,0-.07A.29.29,0,0,0,7.54,58.52Z"/><path class="cls-5" d="M26.88,27.31a1.84,1.84,0,0,0-1.3.37c-.56.52.25.87.37,1.32s.46.94.6,1.43.45.75,1,.57.44-.56.29-1-.19-.55-.26-.76a7.34,7.34,0,0,0-.18-.74C27.26,28.11,27.67,27.37,26.88,27.31Z"/><path class="cls-5" d="M15.48,32.53c-1,1-2.31,1.6-3.23,2.89C15.58,35,16.3,34.32,15.48,32.53Z"/><path class="cls-5" d="M17.57,31.14c-.56.19-1.2.57-.54,1.64.15.17-.15,1.16.94.83.68-.21,1.08-.6.68-1.21C18.35,32,18.73,30.76,17.57,31.14Z"/><path class="cls-4" d="M5.45,55.41a11,11,0,0,0,0,4.94C6.46,58.17,6.45,57.41,5.45,55.41Z"/></g></g></svg>