<svg xmlns="http://www.w3.org/2000/svg" xmlns:xlink="http://www.w3.org/1999/xlink" viewBox="0 0 351.69 93.23"><defs><style>.cls-1{fill:#ed1e79;}.cls-2,.cls-7{fill:#fff;}.cls-2,.cls-3,.cls-4,.cls-5,.cls-6{stroke:#fff;}.cls-2{stroke-width:3px;}.cls-3,.cls-4,.cls-5,.cls-6{stroke-width:2px;}.cls-3{fill:url(#未命名漸層_229);}.cls-4{fill:url(#未命名漸層_229-2);}.cls-5{fill:url(#未命名漸層_229-3);}.cls-6{fill:url(#未命名漸層_229-4);}.cls-7{font-size:14.22px;font-family:DelaGothicOne-Regular, Dela Gothic One;letter-spacing:0.07em;}</style><linearGradient id="未命名漸層_229" x1="40.76" y1="90.09" x2="40.76" y2="33.24" gradientUnits="userSpaceOnUse"><stop offset="0" stop-color="#7900e3"/><stop offset="1" stop-color="#ed4790"/></linearGradient><linearGradient id="未命名漸層_229-2" x1="130.31" y1="90.39" x2="130.31" y2="33.16" xlink:href="#未命名漸層_229"/><linearGradient id="未命名漸層_229-3" x1="217.95" y1="90.46" x2="217.95" y2="33.61" xlink:href="#未命名漸層_229"/><linearGradient id="未命名漸層_229-4" x1="306.68" y1="91.5" x2="306.68" y2="35.17" xlink:href="#未命名漸層_229"/></defs><g id="圖層_2" data-name="圖層 2"><g id="素材"><polygon class="cls-1" points="159.91 14 12.73 14 14.37 0 161.55 0 159.91 14"/><path class="cls-2" d="M75.79,62.18H53.45l-.34,1.93h21.3l-2,11.14H51.15l-.3,1.7H76.38L74.06,90.09H6.22L8.54,77H34.07l.3-1.7H13.07l2-11.14h21.3l.34-1.93H14.34l1-5.64c-.81.1-2.11.2-3.91.3.34-2.23.62-4.87.84-7.94s.32-5.64.29-7.72l2.29.07a81.78,81.78,0,0,0,9.49-.59,49,49,0,0,0,9.12-1.86,19.47,19.47,0,0,0,5.31-2.3,6.12,6.12,0,0,0,2.35-3.26H59.45a27.62,27.62,0,0,1-2.06,3.63,75.67,75.67,0,0,0,28,4.31q-1.24,3.27-2.66,7.72c-1,3-1.72,5.61-2.33,7.94-1.7-.2-2.88-.37-3.54-.52ZM36.53,50.83H57.31a68.34,68.34,0,0,1-10.4-5.42A72,72,0,0,1,36.53,50.83Z"/><path class="cls-2" d="M161.81,62.18h3.64l-5,28.21H142.59l.2-1.12H115.92l-.2,1.12H97.84l5-28.21h52.4l-2.84-3.71-51.74,2.6c.06-.89.08-1.58.07-2.08a105.89,105.89,0,0,0,.13-12.54l10-.22L121,33.16l20.11,1.26-8.46,11.36,11.56-.3a59.21,59.21,0,0,1-3.73-8.75l16.71-3.42a49.05,49.05,0,0,0,7.53,10.76,56.27,56.27,0,0,0,8.14,7.28A71.88,71.88,0,0,0,161.81,62.18ZM118.73,73.32l-.6,3.41H145l.6-3.41Z"/><path class="cls-2" d="M258.51,63.52H212.2a17.25,17.25,0,0,1-1.12,1.71h43.79l-4.45,25.23H233.57l.11-.59H211.34l-.11.59H194.38L196,81.33a48.79,48.79,0,0,1-9.7,6.61c0-.4,0-.84,0-1.34s0-1.06,0-1.7q0-5.64-.19-9A15,15,0,0,0,185,70.57a30.56,30.56,0,0,0,4.55-2.26,18.16,18.16,0,0,0,3.68-3.16c.36-.39.8-.94,1.32-1.63h-6.08l2.05-11.65h70.07Zm-13.7-28.8H261l-2.67,15.14H192.41l2.67-15.14h16.18l-.56,3.19H219l.76-4.3h16.92l-.75,4.3h8.31Zm-9.14,43.87.55-3.12H213.88l-.55,3.12Z"/><path class="cls-2" d="M347,65.37H310.88L310,66.64h36.15L344.29,77.1q-1.21,6.9-5.07,10.47t-11.58,3.56A35.74,35.74,0,0,0,327.43,81a38.76,38.76,0,0,1-8.61,10.54,66.31,66.31,0,0,0-7-2.41,22.22,22.22,0,0,0-6.68-.63,75.71,75.71,0,0,0,8.47-6.79,33.46,33.46,0,0,0,5.06-6h-1.85a48.3,48.3,0,0,1-7.7,7.87,65.76,65.76,0,0,1-11.61,7.35,29.74,29.74,0,0,0-5.11-3,27.85,27.85,0,0,0-7-1.82q13.06-5,19.06-10.39h-2.23a42.31,42.31,0,0,1-6.16,4.6,31,31,0,0,0-1.47-6.38q-1,4.23-1.67,8.24a76.4,76.4,0,0,1-9.24,2.93c-3.87,1-7.28,1.79-10.25,2.34a125.87,125.87,0,0,0,.78-15.36,26.3,26.3,0,0,0,3.64-.45l2.12-12h-3.12l2.45-13.88h3.12l1.84-10.47h14.18l-1.84,10.47H300l-2,11.57h50.4Zm-48.69,0h-3l1-5.78h-2l-1.6,9,3.51-1C297.12,66.69,297.82,65.92,298.26,65.37Zm5-30.2H349.9L346.23,56H299.62Zm13.13,12.69-.22,1.26h15.95l.23-1.26Zm16.74-4.45.22-1.27H317.43l-.23,1.27Zm-2.71,35.18a2.29,2.29,0,0,0,.49-1.34q.15-1,.24-1.56h-1.34c-.35.89-.81,2-1.37,3.19A4,4,0,0,0,330.45,78.59Z"/><path class="cls-3" d="M70.76,62.18H48.42l-.34,1.93h21.3l-2,11.14H46.11l-.3,1.7H71.35L69,90.09H1.19L3.51,77H29l.3-1.7H8l2-11.14H31.3l.34-1.93H9.3l1-5.64c-.81.1-2.11.2-3.91.3.34-2.23.62-4.87.84-7.94s.31-5.64.29-7.72l2.28.07a81.81,81.81,0,0,0,9.5-.59,49,49,0,0,0,9.12-1.86,19.38,19.38,0,0,0,5.3-2.3,6.14,6.14,0,0,0,2.36-3.26H54.41a26.51,26.51,0,0,1-2,3.63,75.67,75.67,0,0,0,28,4.31q-1.24,3.27-2.66,7.72c-1,3-1.72,5.61-2.33,7.94-1.7-.2-2.88-.37-3.55-.52ZM31.49,50.83H52.28a68.34,68.34,0,0,1-10.4-5.42A71.57,71.57,0,0,1,31.49,50.83Z"/><path class="cls-4" d="M156.78,62.18h3.64l-5,28.21H137.56l.19-1.12H110.89l-.2,1.12H92.8l5-28.21h52.4l-2.84-3.71L95.6,61.07c.05-.89.08-1.58.07-2.08a105.89,105.89,0,0,0,.13-12.54l10-.22L116,33.16l20.11,1.26-8.46,11.36,11.56-.3a59.21,59.21,0,0,1-3.73-8.75l16.71-3.42a49.05,49.05,0,0,0,7.53,10.76,55.74,55.74,0,0,0,8.14,7.28A71,71,0,0,0,156.78,62.18ZM113.7,73.32l-.6,3.41H140l.6-3.41Z"/><path class="cls-5" d="M253.48,63.52H207.16a14.63,14.63,0,0,1-1.11,1.71h43.79l-4.45,25.23H228.54l.1-.59H206.3l-.1.59H189.35L191,81.33a48.79,48.79,0,0,1-9.7,6.61c0-.4,0-.84,0-1.34s0-1.06,0-1.7c0-3.76-.05-6.77-.19-9a14.78,14.78,0,0,0-1.15-5.31,30.23,30.23,0,0,0,4.56-2.26,18.12,18.12,0,0,0,3.67-3.16,19.83,19.83,0,0,0,1.33-1.63h-6.09l2.06-11.65h70.06Zm-13.7-28.8H256l-2.67,15.14H187.38l2.67-15.14h16.18l-.56,3.19H214l.76-4.3h16.92l-.76,4.3h8.32Zm-9.15,43.87.55-3.12H208.84l-.55,3.12Z"/><path class="cls-6" d="M341.92,65.37H305.85L305,66.64H341.1L339.26,77.1Q338,84,334.18,87.57t-11.57,3.56A35.74,35.74,0,0,0,322.4,81a38.76,38.76,0,0,1-8.61,10.54,66.31,66.31,0,0,0-7-2.41,22.26,22.26,0,0,0-6.68-.63,76.64,76.64,0,0,0,8.47-6.79,33.46,33.46,0,0,0,5.06-6h-1.86a47.81,47.81,0,0,1-7.69,7.87,65.51,65.51,0,0,1-11.62,7.35,29.36,29.36,0,0,0-5.11-3,27.64,27.64,0,0,0-6.95-1.82q13.07-5,19.05-10.39h-2.22a42.31,42.31,0,0,1-6.16,4.6,31.61,31.61,0,0,0-1.47-6.38q-1,4.23-1.68,8.24a75.25,75.25,0,0,1-9.24,2.93c-3.86,1-7.28,1.79-10.24,2.34a125.87,125.87,0,0,0,.78-15.36,26.48,26.48,0,0,0,3.64-.45l2.12-12h-3.12l2.45-13.88h3.12l1.84-10.47H293.5l-1.85,10.47H295l-2,11.57h50.4Zm-48.69,0h-3l1-5.78h-2l-1.6,9,3.51-1C292.08,66.69,292.79,65.92,293.23,65.37Zm5-30.2h46.61L341.19,56H294.58Zm13.13,12.69-.23,1.26h16l.22-1.26Zm16.74-4.45.22-1.27h-16l-.22,1.27Zm-2.72,35.18a2.21,2.21,0,0,0,.5-1.34q.15-1,.24-1.56h-1.34c-.35.89-.81,2-1.38,3.19A3.93,3.93,0,0,0,325.41,78.59Z"/><text class="cls-7" transform="matrix(0.98, 0, -0.17, 0.98, 16.86, 12.62)">Climbing Gym</text></g></g></svg>