<svg xmlns="http://www.w3.org/2000/svg" xmlns:xlink="http://www.w3.org/1999/xlink" viewBox="0 0 353.33 90.58"><defs><style>.cls-1{fill:#ed1e79;}.cls-2,.cls-3{fill:#fff;}.cls-2,.cls-4,.cls-5,.cls-6,.cls-7{stroke:#fff;stroke-width:2px;}.cls-3{font-size:14.22px;font-family:DelaGothicOne-Regular, Dela Gothic One;letter-spacing:0.07em;}.cls-4{fill:url(#未命名漸層_229);}.cls-5{fill:url(#未命名漸層_229-2);}.cls-6{fill:url(#未命名漸層_229-3);}.cls-7{fill:url(#未命名漸層_229-4);}</style><linearGradient id="未命名漸層_229" x1="40" y1="88.63" x2="40" y2="31.53" gradientUnits="userSpaceOnUse"><stop offset="0" stop-color="#7900e3"/><stop offset="1" stop-color="#ed4790"/></linearGradient><linearGradient id="未命名漸層_229-2" x1="129.27" y1="88.7" x2="129.27" y2="31.85" xlink:href="#未命名漸層_229"/><linearGradient id="未命名漸層_229-3" x1="218.95" y1="89.1" x2="218.95" y2="31.92" xlink:href="#未命名漸層_229"/><linearGradient id="未命名漸層_229-4" x1="308.43" y1="89.58" x2="308.43" y2="31.48" xlink:href="#未命名漸層_229"/></defs><g id="圖層_2" data-name="圖層 2"><g id="素材"><polygon class="cls-1" points="212.37 14 12.3 14 14.52 0 214.6 0 212.37 14"/><path class="cls-2" d="M56.44,73.64l.27.83a.73.73,0,0,0,.69.5H78.64a.73.73,0,0,1,.72.86l-.62,3.52A.73.73,0,0,1,78,80H57.39a.72.72,0,0,0-.7.56,8.64,8.64,0,0,1-2.49,4.33c-1.33,1.24-3.53,2.18-6.62,2.82a65.75,65.75,0,0,1-12.86,1,142.14,142.14,0,0,1-15.3-1.1.74.74,0,0,1-.63-.83,12,12,0,0,0-.89-6.32.75.75,0,0,0-.68-.43H7.36a.73.73,0,0,1-.72-.86l.62-3.52A.73.73,0,0,1,8,75H40.84a9.58,9.58,0,0,0-.13-1.33H10a.73.73,0,0,1-.71-.86L9.38,72a.15.15,0,0,0,0-.07c.18-2.11.25-3.86.23-5.27a11.83,11.83,0,0,0-.5-3.23.72.72,0,0,1,.69-.91,143.39,143.39,0,0,0,19.94-1.61H11.69A.72.72,0,0,1,11,60L12.1,53.6a.73.73,0,0,1,.72-.6H39.45l0-.22-3-2.47a.73.73,0,0,0-1.11.23l-.15.3a.73.73,0,0,1-1,.28A11.74,11.74,0,0,1,32.73,50a9,9,0,0,1-1-1,.72.72,0,0,0-1.25.36l-.37,2.09a.72.72,0,0,1-.71.6H20a.72.72,0,0,1-.71-.85l.08-.49a.72.72,0,0,0-1.16-.69,17.2,17.2,0,0,1-4,2.21.73.73,0,0,1-1-.72,20.78,20.78,0,0,0-.55-6.44.73.73,0,0,1,.68-.9A21.35,21.35,0,0,0,16.47,44a19.4,19.4,0,0,0,3.76-1.12H16.42a.72.72,0,0,1-.71-.85l1.36-7.75a.74.74,0,0,1,.72-.6h4a.72.72,0,0,0,.71-.6l.09-.5a.73.73,0,0,1,.72-.61h9.43a.73.73,0,0,1,.72.86h0a.72.72,0,0,0,.71.85h3.92a.78.78,0,0,0,.22,0l6.33-2a.72.72,0,0,1,.5,0l4.94,2a.73.73,0,0,0,.56,0c1.14-.5,2.39-1.12,3.76-1.88a.73.73,0,0,1,.58-.06l7.55,2.5.09-.52h5.11a.74.74,0,0,0,.72-.6l0-.28a.74.74,0,0,1,.72-.6H79.86l-.26,1.48h3.59a.72.72,0,0,1,.71.85l-1.36,7.75a.73.73,0,0,1-.72.6H78l0,.08A12.71,12.71,0,0,0,81.26,44a21.12,21.12,0,0,0,2.66.23.72.72,0,0,1,.61,1.09,27,27,0,0,0-2.8,6.6.72.72,0,0,1-1,.48,11.11,11.11,0,0,1-3-1.88.72.72,0,0,0-1.19.42l-.1.58a.73.73,0,0,1-.72.6h-9.8a.72.72,0,0,1-.72-.85l.3-1.71a.72.72,0,0,0-1.17-.69c-.43.36-.87.7-1.34,1a15.72,15.72,0,0,1-2.88,1.63L60,50.33l-2.31,1.31A.73.73,0,0,0,58,53H81.55a.73.73,0,0,1,.72.86l-1.13,6.41a.73.73,0,0,1-.72.6H63.22a137.8,137.8,0,0,0,17.88,1.6.71.71,0,0,1,.6,1.1,26.64,26.64,0,0,0-2.81,6.06H79L78.44,73a.73.73,0,0,1-.71.6ZM19.85,80a116.23,116.23,0,0,0,14,1.11c3.12,0,5.11-.37,6-1.11ZM39.78,69.63,39.5,69a.73.73,0,0,0-.67-.44H28.45a.61.61,0,0,0-.24,0c-.8.27-1.49.5-2.09.66s-1.14.31-1.56.41ZM31.62,43.06a48,48,0,0,0,5,1.33l-.87-.33-1.08-.41,1.78-.82H31.66Zm6.53-1,.31-.14a.72.72,0,0,0,.16-1.23l-.25-.2a.73.73,0,0,0-1.17.44l-.06.34A.72.72,0,0,0,38.15,42.05Zm-.95,5.16c.52-.14,1.67-.49,3.45-1l-1.54-.67a.72.72,0,0,0-.87.24C38,46.09,37.65,46.58,37.2,47.21Zm1.65-9.78,1.23-.31a.73.73,0,0,0,.12-1.37l-1.09-.48a.73.73,0,0,0-1,.54L38,36.6A.72.72,0,0,0,38.85,37.43Zm9,25.37a23.31,23.31,0,0,1-2.07-1.33.72.72,0,0,0-.82,0,24.36,24.36,0,0,1-2.55,1.43C44.88,62.87,46.69,62.85,47.89,62.8Zm2.68-11.43-2-1a.73.73,0,0,0-.58,0l-3.1,1.08Zm-.4-8.49,1.42-.53a.73.73,0,0,0,0-1.34l-1.22-.58a.77.77,0,0,0-.54,0l-1.51.51a.73.73,0,0,0-.07,1.35l1.33.6A.7.7,0,0,0,50.17,42.88ZM64.64,69.63c-1.5-.43-2.75-.81-3.76-1.15a.62.62,0,0,0-.23,0h-7.6l.76.92a.74.74,0,0,0,.56.27Zm-5.19-21.9c-.12-.43-.22-.8-.32-1.11a.72.72,0,0,0-1-.46l-1,.39Zm7.25-4.9H61.85a.73.73,0,0,1-.72-.85l.17-.93a.73.73,0,0,0-1-.79l-1.46.63a.72.72,0,0,0-.1,1.27l2.92,1.91a.76.76,0,0,0,.59.1q3-.77,4.44-1.26Zm-5.65-7-1.16.52a.73.73,0,0,0,0,1.34l1,.41a.72.72,0,0,0,1-.55l.17-.93A.74.74,0,0,0,61.05,35.84Z"/><path class="cls-2" d="M169.68,61.76H124.56a.83.83,0,0,0-.71.39h0a.85.85,0,0,0,.71,1.31h41.19a.84.84,0,0,1,.83,1L162.42,88a.84.84,0,0,1-.83.7H145.45l.1-.59H123.21l-.1.59H107.27a.85.85,0,0,1-.84-1l1-5.9a.85.85,0,0,0-1.36-.81,44.13,44.13,0,0,1-7.94,5.18c0-.4,0-.84,0-1.34s0-1.06,0-1.7q0-5.64-.19-9a16.74,16.74,0,0,0-.84-4.59.83.83,0,0,1,.48-1,29.9,29.9,0,0,0,3.78-1.94,19.82,19.82,0,0,0,5-4.79h-5.08a.83.83,0,0,1-.83-1l1.75-10a.85.85,0,0,1,.84-.7h68.34a.85.85,0,0,1,.84,1l-1.76,10A.84.84,0,0,1,169.68,61.76ZM157.4,33h14.46a.85.85,0,0,1,.83,1l-2.37,13.45a.85.85,0,0,1-.83.7H105.3a.85.85,0,0,1-.84-1l2.37-13.45a.87.87,0,0,1,.84-.7h14.46a.85.85,0,0,1,.83,1l-.21,1.2a.84.84,0,0,0,.83,1h6.6a.84.84,0,0,0,.83-.69l.51-2.91a.86.86,0,0,1,.84-.7h15.2a.83.83,0,0,1,.83,1L148,35.16a.85.85,0,0,0,.84,1h6.59a.85.85,0,0,0,.84-.69l.31-1.8A.86.86,0,0,1,157.4,33Zm-9.74,43.17.26-1.43a.85.85,0,0,0-.84-1H126.46a.85.85,0,0,0-.83.7l-.25,1.43a.84.84,0,0,0,.83,1h20.62A.85.85,0,0,0,147.66,76.13Z"/><path class="cls-2" d="M249.43,89.08a44.51,44.51,0,0,1-17.08-7.33.87.87,0,0,0-1.38.55l-.44,2.46a.86.86,0,0,1-.7.71q-13.47,2.48-40.7,3.21a.89.89,0,0,1-.9-.83,21.35,21.35,0,0,0-2.18-8,.87.87,0,0,1,.79-1.26h1.27a.89.89,0,0,0,.88-1,16.3,16.3,0,0,0-.93-3.73,16.11,16.11,0,0,0-1.58-3,.87.87,0,0,1,.73-1.36l5.85,0q13.37,0,20.27-1.33H188.26a.89.89,0,0,1-.87-1l1.2-6.78a.88.88,0,0,1,.86-.73h11.14q-5.49-1.09-9.34-1.49a.88.88,0,0,1-.6-1.42c.92-1.21,1.66-2.2,2.21-3a.88.88,0,0,0-.73-1.38H192a.88.88,0,0,1-.87-1l1-5.59a.88.88,0,0,1,.87-.73h18.7l.2-1.11H195.21a.89.89,0,0,1-.87-1l1.69-9.6a.89.89,0,0,1,.87-.73h11.94a.88.88,0,0,1,.87,1L209.47,35a.89.89,0,0,0,.87,1h2.22a.89.89,0,0,0,.87-.73l.42-2.4a.88.88,0,0,1,.87-.73h12.39a.87.87,0,0,1,.86,1l-4.12,23.39a.88.88,0,0,0,.87,1h.66a.88.88,0,0,0,.86-.73l1.45-8.2a.87.87,0,0,1,.87-.72h7.2a.88.88,0,0,0,.87-.73l.32-1.8a.89.89,0,0,0-.87-1h-7.33a.87.87,0,0,1-.86-1l1.5-8.56a.88.88,0,0,1,.87-.72h8a.89.89,0,0,0,.87-.73l.12-.7a.89.89,0,0,1,.87-.73H252.9a.89.89,0,0,1,.87,1l0,.08a.89.89,0,0,0,.87,1h7.7a.88.88,0,0,1,.87,1l-1.51,8.56a.88.88,0,0,1-.87.72h-8.32a.89.89,0,0,0-.87.73l-.31,1.8a.88.88,0,0,0,.86,1H259a.88.88,0,0,1,.87,1l-1.56,8.85a.89.89,0,0,1-.87.73H232.18l-.2,1.11h26.79a.88.88,0,0,1,.86,1l-1.19,6.77a.88.88,0,0,1-.87.73H250a.88.88,0,0,0-.27,1.72l2.29.73a.87.87,0,0,1,.18,1.59c-.76.45-1.69,1-2.79,1.6a.88.88,0,0,0,.27,1.64q2.89.5,6.43.91a.87.87,0,0,1,.57,1.44,36.19,36.19,0,0,0-6.29,10.68A.87.87,0,0,1,249.43,89.08Zm-44.1-11.69a.88.88,0,0,0-1.06-1Q199,77.55,192.2,78.61c4.18,0,8.27-.18,12.3-.41a.87.87,0,0,0,.82-.73ZM208,53a44.34,44.34,0,0,1-2.6,5.4.88.88,0,0,0,.76,1.32h10.42l.19-1.11h-6.37a.88.88,0,0,1-.87-1l.73-4.1a.88.88,0,0,0-.87-1h-.58A.87.87,0,0,0,208,53Zm14.39,23.77,1.8-.26A.87.87,0,0,0,224.7,75c-.46-.54-.94-1.1-1.43-1.71a.88.88,0,0,0-1.55.4l-.35,2A.88.88,0,0,0,222.36,76.73Zm13.83-8.51h-.05a.88.88,0,0,0-.55,1.57l0,0a.89.89,0,0,0,1.07,0l0,0A.88.88,0,0,0,236.19,68.22Z"/><path class="cls-2" d="M342.61,46h7.67a.92.92,0,0,1,.9,1.07l-1.34,7.6a.92.92,0,0,1-.9.75H313.43a.92.92,0,0,0-.9.76l-1.7,9.63q-1,5.86-2.51,11.32-1.4,5.15-3.85,11.82a.92.92,0,0,1-1.15.55,74.43,74.43,0,0,0-8.74-2.24l-2.4-.59a.91.91,0,0,0-1.11.73l-.12.67a.91.91,0,0,1-.9.75H276.69a.92.92,0,0,1-.9-1.07l2.52-14.25a.91.91,0,0,0-1.2-1l-.1,0a.91.91,0,0,1-1.2-1c.48-3.15.79-6,.95-8.58a42.07,42.07,0,0,0-.25-7.79.89.89,0,0,1,.79-1,6.81,6.81,0,0,0,5-2.62Q283.5,50,285,41.65q.66-3.75,1.15-8.3a.92.92,0,0,1,.91-.83l14.32.07a.91.91,0,0,1,.89,1.09,118.15,118.15,0,0,1-5.16,19.76,1,1,0,0,0,0,.17L291.33,86a48.33,48.33,0,0,0,3.42-9.5q1.33-5.28,2.67-12.84l1.59-9,1.38-7.86a.92.92,0,0,1,.9-.75h6.78a.92.92,0,0,0,.9-.76l.13-.73h-5.89a.91.91,0,0,1-.9-1.07l1.52-8.64a.91.91,0,0,1,.9-.75h5.45a.92.92,0,0,0,.9-.76l.19-1.09a.92.92,0,0,1,.9-.75H323.9a.92.92,0,0,1,.9,1.07l-.08.45a.92.92,0,0,0,.89,1.08h4.83a.92.92,0,0,0,.9-.76l.19-1.09a.92.92,0,0,1,.9-.75h11.65a.91.91,0,0,1,.9,1.07l-.08.45a.93.93,0,0,0,.9,1.08h5.62a.91.91,0,0,1,.9,1.07l-1.52,8.64a.92.92,0,0,1-.9.75h-6.26a.9.9,0,0,0-.9.76Zm-34,40.86,5.19-29.42a.9.9,0,0,1,.9-.76h32.21a.92.92,0,0,1,.9,1.08l-4.39,24.9a6.59,6.59,0,0,1-1.55,3.53,6.22,6.22,0,0,1-3.18,1.59,48.11,48.11,0,0,1-5.33.73.91.91,0,0,1-1-.9V86.48a21.93,21.93,0,0,0-.5-6l-1.11,6.29a.92.92,0,0,1-.9.76h-8a.93.93,0,0,1-.9-1.08l1.35-7.65a.91.91,0,0,0-.9-1.07h0a.92.92,0,0,0-.9.75l-1.54,8.74a.91.91,0,0,1-.9.75h-8.53A.91.91,0,0,1,308.61,86.89Zm13-14.74h1.9a.91.91,0,0,0,.9-.75l.13-.73h-1.9a.91.91,0,0,0-.9.75Zm1.85-27.61a.9.9,0,0,0-.9.76l-.13.73h5.91a.9.9,0,0,0,.9-.76l.13-.73ZM324.76,65a.92.92,0,0,0,.9-.76l.13-.73h-1.91a.92.92,0,0,0-.9.76l-.13.73ZM332,79.72a4.24,4.24,0,0,0,1.84-.33,2.68,2.68,0,0,0,.57-1.52l0-.15h-1.31a.92.92,0,0,0-.9.75Zm.67-7.57h1.94a.9.9,0,0,0,.9-.8l.09-.68h-1.9a.91.91,0,0,0-.9.75ZM333.91,65h1.83a.9.9,0,0,0,.9-.76l.13-.73h-1.83a.92.92,0,0,0-.9.76Z"/><text class="cls-3" transform="matrix(0.98, 0, -0.17, 0.98, 17.84, 12.47)">Climbing Equipment</text><path class="cls-4" d="M50.81,73.64l.27.83a.73.73,0,0,0,.69.5H73a.73.73,0,0,1,.72.86l-.62,3.52a.73.73,0,0,1-.72.6H51.76a.72.72,0,0,0-.7.56,8.7,8.7,0,0,1-2.48,4.33C47.24,86.08,45,87,42,87.66a65.75,65.75,0,0,1-12.86,1,142.14,142.14,0,0,1-15.3-1.1.74.74,0,0,1-.63-.83,12,12,0,0,0-.89-6.32.75.75,0,0,0-.68-.43H1.73A.73.73,0,0,1,1,79.09l.62-3.52a.73.73,0,0,1,.72-.6H35.21a9.58,9.58,0,0,0-.13-1.33H4.32a.73.73,0,0,1-.71-.86L3.75,72a.15.15,0,0,0,0-.07C3.94,69.78,4,68,4,66.62a11.83,11.83,0,0,0-.5-3.23.72.72,0,0,1,.69-.91,143.39,143.39,0,0,0,19.94-1.61H6.06A.72.72,0,0,1,5.34,60L6.47,53.6a.73.73,0,0,1,.72-.6H33.82l0-.22-3-2.47a.73.73,0,0,0-1.11.23l-.15.3a.73.73,0,0,1-1,.28A11.74,11.74,0,0,1,27.1,50a9,9,0,0,1-1-1,.72.72,0,0,0-1.25.36l-.37,2.09a.72.72,0,0,1-.71.6H14.35a.72.72,0,0,1-.71-.85l.08-.49a.72.72,0,0,0-1.16-.69,17.2,17.2,0,0,1-4,2.21.73.73,0,0,1-1-.72A20.78,20.78,0,0,0,7,45.13a.73.73,0,0,1,.68-.9A21.35,21.35,0,0,0,10.84,44a19.4,19.4,0,0,0,3.76-1.12H10.79a.72.72,0,0,1-.71-.85l1.36-7.75a.74.74,0,0,1,.72-.6h4a.72.72,0,0,0,.71-.6l.09-.5a.73.73,0,0,1,.72-.61h9.43a.73.73,0,0,1,.72.86h0a.72.72,0,0,0,.71.85h3.92a.78.78,0,0,0,.22,0l6.33-2a.72.72,0,0,1,.5,0l4.94,2a.73.73,0,0,0,.56,0c1.14-.5,2.39-1.12,3.76-1.88a.73.73,0,0,1,.58-.06l7.55,2.5.09-.52h5.11a.74.74,0,0,0,.72-.6l.05-.28a.72.72,0,0,1,.71-.6H74.23L74,33.63h3.59a.72.72,0,0,1,.71.85l-1.36,7.75a.73.73,0,0,1-.72.6H72.35l0,.08A13,13,0,0,0,75.63,44a21.12,21.12,0,0,0,2.66.23.72.72,0,0,1,.61,1.09,27.37,27.37,0,0,0-2.8,6.6.72.72,0,0,1-1,.48,11.11,11.11,0,0,1-3-1.88.72.72,0,0,0-1.19.42l-.1.58a.73.73,0,0,1-.72.6H60.3a.73.73,0,0,1-.72-.85l.3-1.71a.72.72,0,0,0-1.17-.69c-.43.36-.87.7-1.34,1a15.72,15.72,0,0,1-2.88,1.63l-.16-1.19L52,51.64A.73.73,0,0,0,52.38,53H75.92a.73.73,0,0,1,.72.86l-1.13,6.41a.73.73,0,0,1-.72.6H57.59a137.8,137.8,0,0,0,17.88,1.6.71.71,0,0,1,.6,1.1,26.64,26.64,0,0,0-2.81,6.06h.15L72.81,73a.73.73,0,0,1-.71.6ZM14.22,80a116.23,116.23,0,0,0,14,1.11c3.12,0,5.11-.37,6-1.11ZM34.15,69.63,33.87,69a.73.73,0,0,0-.67-.44H22.82a.61.61,0,0,0-.24,0c-.8.27-1.49.5-2.09.66s-1.14.31-1.56.41ZM26,43.06a47.24,47.24,0,0,0,5,1.33l-.87-.33-1.08-.41,1.78-.82H26Zm6.52-1,.31-.14A.72.72,0,0,0,33,40.68l-.25-.2a.73.73,0,0,0-1.17.44l-.06.34A.72.72,0,0,0,32.52,42.05Zm-1,5.16c.52-.14,1.67-.49,3.45-1l-1.54-.67a.72.72,0,0,0-.87.24C32.36,46.09,32,46.58,31.57,47.21Zm1.65-9.78,1.23-.31a.73.73,0,0,0,.12-1.37l-1.09-.48a.73.73,0,0,0-1,.54l-.14.79A.72.72,0,0,0,33.22,37.43Zm9,25.37a23.31,23.31,0,0,1-2.07-1.33.72.72,0,0,0-.82,0,25.34,25.34,0,0,1-2.54,1.43C39.25,62.87,41.06,62.85,42.26,62.8Zm2.68-11.43-2-1a.73.73,0,0,0-.58,0l-3.1,1.08Zm-.4-8.49L46,42.35A.73.73,0,0,0,46,41l-1.22-.58a.77.77,0,0,0-.54,0l-1.51.51a.73.73,0,0,0-.07,1.35l1.33.6A.7.7,0,0,0,44.54,42.88ZM59,69.63c-1.5-.43-2.75-.81-3.76-1.15a.62.62,0,0,0-.23,0h-7.6l.76.92a.74.74,0,0,0,.56.27Zm-5.19-21.9c-.12-.43-.22-.8-.32-1.11a.72.72,0,0,0-1-.46l-1,.39Zm7.25-4.9H56.22A.73.73,0,0,1,55.5,42l.17-.93a.73.73,0,0,0-1-.79l-1.46.63a.72.72,0,0,0-.1,1.27L56,44.07a.76.76,0,0,0,.59.1q3-.77,4.44-1.26Zm-5.65-7-1.16.52a.73.73,0,0,0,0,1.34l1,.41a.72.72,0,0,0,1-.55l.17-.93A.74.74,0,0,0,55.42,35.84Z"/><path class="cls-5" d="M164.05,61.76H118.93a.83.83,0,0,0-.71.39h0a.85.85,0,0,0,.71,1.31h41.19a.84.84,0,0,1,.83,1L156.79,88a.84.84,0,0,1-.83.7H139.82l.1-.59H117.58l-.1.59H101.64a.85.85,0,0,1-.84-1l1-5.9a.85.85,0,0,0-1.36-.81,44.13,44.13,0,0,1-7.94,5.18c0-.4,0-.84,0-1.34s0-1.06,0-1.7c0-3.76,0-6.77-.2-9a16.74,16.74,0,0,0-.84-4.59.83.83,0,0,1,.48-1,29.9,29.9,0,0,0,3.78-1.94,19.82,19.82,0,0,0,5-4.79H95.7a.84.84,0,0,1-.83-1l1.75-10a.85.85,0,0,1,.84-.7H165.8a.85.85,0,0,1,.84,1l-1.76,10A.84.84,0,0,1,164.05,61.76ZM151.77,33h14.46a.85.85,0,0,1,.83,1l-2.37,13.45a.85.85,0,0,1-.83.7H99.67a.85.85,0,0,1-.84-1l2.37-13.45A.87.87,0,0,1,102,33H116.5a.85.85,0,0,1,.83,1l-.21,1.2a.84.84,0,0,0,.83,1h6.6a.84.84,0,0,0,.83-.69l.51-2.91a.86.86,0,0,1,.84-.7h15.2a.83.83,0,0,1,.83,1l-.4,2.32a.83.83,0,0,0,.83,1h6.59a.85.85,0,0,0,.84-.69l.31-1.8A.86.86,0,0,1,151.77,33ZM142,76.13l.26-1.43a.85.85,0,0,0-.84-1H120.83a.85.85,0,0,0-.83.7l-.25,1.43a.84.84,0,0,0,.83,1H141.2A.85.85,0,0,0,142,76.13Z"/><path class="cls-6" d="M243.8,89.08a44.51,44.51,0,0,1-17.08-7.33.87.87,0,0,0-1.38.55l-.44,2.46a.86.86,0,0,1-.7.71q-13.47,2.48-40.7,3.21a.89.89,0,0,1-.9-.83,21.35,21.35,0,0,0-2.18-8,.87.87,0,0,1,.79-1.26h1.27a.89.89,0,0,0,.88-1,16.3,16.3,0,0,0-.93-3.73,15.55,15.55,0,0,0-1.58-3,.87.87,0,0,1,.73-1.36l5.85,0q13.37,0,20.27-1.33H182.63a.89.89,0,0,1-.87-1l1.2-6.78a.88.88,0,0,1,.86-.73H195q-5.49-1.09-9.34-1.49a.88.88,0,0,1-.6-1.42c.92-1.21,1.66-2.2,2.21-3a.88.88,0,0,0-.73-1.38h-.12a.88.88,0,0,1-.87-1l1-5.59a.88.88,0,0,1,.87-.73h18.7l.2-1.11H189.58a.89.89,0,0,1-.87-1l1.69-9.6a.89.89,0,0,1,.87-.73h11.94a.88.88,0,0,1,.87,1L203.84,35a.89.89,0,0,0,.87,1h2.22a.89.89,0,0,0,.87-.73l.42-2.4a.88.88,0,0,1,.87-.73h12.39a.87.87,0,0,1,.86,1l-4.12,23.39a.88.88,0,0,0,.87,1h.66a.89.89,0,0,0,.87-.73l1.44-8.2a.87.87,0,0,1,.87-.72h7.2a.88.88,0,0,0,.87-.73l.32-1.8a.89.89,0,0,0-.87-1h-7.33a.87.87,0,0,1-.86-1l1.51-8.56a.87.87,0,0,1,.86-.72h8a.89.89,0,0,0,.87-.73l.12-.7a.89.89,0,0,1,.87-.73h12.83a.89.89,0,0,1,.87,1l0,.08a.89.89,0,0,0,.87,1h7.7a.88.88,0,0,1,.87,1l-1.51,8.56a.88.88,0,0,1-.87.72h-8.32a.89.89,0,0,0-.87.73l-.31,1.8a.88.88,0,0,0,.86,1h6.81a.88.88,0,0,1,.87,1l-1.56,8.85a.89.89,0,0,1-.87.73H226.55l-.2,1.11h26.79a.89.89,0,0,1,.87,1l-1.2,6.77a.88.88,0,0,1-.87.73H244.4a.88.88,0,0,0-.27,1.72l2.29.73a.87.87,0,0,1,.18,1.59c-.76.45-1.69,1-2.79,1.6a.88.88,0,0,0,.27,1.64q2.89.5,6.43.91a.87.87,0,0,1,.57,1.44,36.19,36.19,0,0,0-6.29,10.68A.87.87,0,0,1,243.8,89.08ZM199.7,77.39a.88.88,0,0,0-1.06-1q-5.22,1.17-12.06,2.23,6.25-.08,12.29-.41a.87.87,0,0,0,.82-.73ZM202.34,53a44.34,44.34,0,0,1-2.6,5.4.88.88,0,0,0,.76,1.32h10.42l.19-1.11h-6.37a.88.88,0,0,1-.87-1l.73-4.1a.88.88,0,0,0-.87-1h-.58A.87.87,0,0,0,202.34,53Zm14.39,23.77,1.8-.26a.87.87,0,0,0,.54-1.44c-.46-.54-.94-1.1-1.43-1.71a.88.88,0,0,0-1.55.4l-.35,2A.88.88,0,0,0,216.73,76.73Zm13.83-8.51h-.05a.88.88,0,0,0-.55,1.57l0,0a.89.89,0,0,0,1.07,0l0,0A.88.88,0,0,0,230.56,68.22Z"/><path class="cls-7" d="M337,46h7.67a.92.92,0,0,1,.9,1.07l-1.34,7.6a.92.92,0,0,1-.9.75H307.8a.92.92,0,0,0-.9.76l-1.7,9.63q-1,5.86-2.51,11.32-1.4,5.15-3.85,11.82a.92.92,0,0,1-1.15.55A74.43,74.43,0,0,0,289,87.29l-2.4-.59a.91.91,0,0,0-1.11.73l-.12.67a.91.91,0,0,1-.9.75H271.06a.92.92,0,0,1-.9-1.07l2.52-14.25a.91.91,0,0,0-1.2-1l-.1,0a.92.92,0,0,1-1.2-1c.48-3.15.79-6,.95-8.58a42.07,42.07,0,0,0-.25-7.79.89.89,0,0,1,.79-1,6.81,6.81,0,0,0,5-2.62q1.16-1.56,2.63-9.87.66-3.75,1.15-8.3a.92.92,0,0,1,.91-.83l14.32.07a.91.91,0,0,1,.89,1.09,118.15,118.15,0,0,1-5.16,19.76,1,1,0,0,0,0,.17L285.7,86a48.33,48.33,0,0,0,3.42-9.5q1.33-5.28,2.67-12.84l1.59-9,1.38-7.86a.92.92,0,0,1,.9-.75h6.78a.92.92,0,0,0,.9-.76l.13-.73h-5.89a.91.91,0,0,1-.9-1.07l1.52-8.64a.91.91,0,0,1,.9-.75h5.45a.92.92,0,0,0,.9-.76l.19-1.09a.92.92,0,0,1,.9-.75h11.73a.92.92,0,0,1,.9,1.07l-.08.45a.92.92,0,0,0,.9,1.08h4.82a.92.92,0,0,0,.9-.76l.19-1.09a.92.92,0,0,1,.9-.75h11.65a.91.91,0,0,1,.9,1.07l-.08.45a.93.93,0,0,0,.9,1.08h5.62a.91.91,0,0,1,.9,1.07l-1.52,8.64a.92.92,0,0,1-.9.75H338a.9.9,0,0,0-.9.76ZM303,86.89l5.19-29.42a.9.9,0,0,1,.9-.76h32.21a.92.92,0,0,1,.9,1.08l-4.39,24.9a6.59,6.59,0,0,1-1.55,3.53,6.22,6.22,0,0,1-3.18,1.59,48.11,48.11,0,0,1-5.33.73.91.91,0,0,1-1-.9V86.48a21.93,21.93,0,0,0-.5-6l-1.11,6.29a.92.92,0,0,1-.9.76h-8a.93.93,0,0,1-.9-1.08l1.35-7.65a.91.91,0,0,0-.9-1.07h0a.92.92,0,0,0-.9.75l-1.54,8.74a.91.91,0,0,1-.9.75h-8.53A.91.91,0,0,1,303,86.89Zm13-14.74h1.9a.91.91,0,0,0,.9-.75l.13-.73H317a.91.91,0,0,0-.9.75Zm1.85-27.61a.9.9,0,0,0-.9.76l-.13.73h5.91a.9.9,0,0,0,.9-.76l.13-.73ZM319.13,65a.92.92,0,0,0,.9-.76l.13-.73h-1.91a.92.92,0,0,0-.9.76l-.12.73Zm7.23,14.69a4.24,4.24,0,0,0,1.84-.33,2.68,2.68,0,0,0,.57-1.52l0-.15h-1.31a.92.92,0,0,0-.9.75Zm.67-7.57H329a.9.9,0,0,0,.9-.8l.09-.68h-1.9a.91.91,0,0,0-.9.75ZM328.28,65h1.83a.9.9,0,0,0,.9-.76l.13-.73h-1.83a.92.92,0,0,0-.9.76Z"/></g></g></svg>