<svg xmlns="http://www.w3.org/2000/svg" xmlns:xlink="http://www.w3.org/1999/xlink" viewBox="0 0 360.24 88.63"><defs><style>.cls-1{fill:#ed1e79;}.cls-2,.cls-7{fill:#fff;}.cls-2,.cls-3,.cls-4,.cls-5,.cls-6{stroke:#fff;stroke-width:2px;}.cls-3{fill:url(#未命名漸層_229);}.cls-4{fill:url(#未命名漸層_229-2);}.cls-5{fill:url(#未命名漸層_229-3);}.cls-6{fill:url(#未命名漸層_229-4);}.cls-7{font-size:14.22px;font-family:DelaGothicOne-Regular, Dela Gothic One;letter-spacing:0.07em;}</style><linearGradient id="未命名漸層_229" x1="40.86" y1="85.63" x2="40.86" y2="27.09" gradientUnits="userSpaceOnUse"><stop offset="0" stop-color="#7900e3"/><stop offset="1" stop-color="#ed4790"/></linearGradient><linearGradient id="未命名漸層_229-2" x1="132.5" y1="85.71" x2="132.5" y2="27.4" xlink:href="#未命名漸層_229"/><linearGradient id="未命名漸層_229-3" x1="223.16" y1="86.09" x2="223.16" y2="27.32" xlink:href="#未命名漸層_229"/><linearGradient id="未命名漸層_229-4" x1="314.74" y1="86.96" x2="314.74" y2="27.32" xlink:href="#未命名漸層_229"/></defs><g id="圖層_2" data-name="圖層 2"><g id="素材"><polygon class="cls-1" points="228.09 14 6.31 14 8.78 0 230.56 0 228.09 14"/><path class="cls-2" d="M55.81,70.92l.21.65a1,1,0,0,0,1,.72H78.23a1,1,0,0,1,1,1.22l-.54,3a1,1,0,0,1-1,.85H57a1,1,0,0,0-1,.8,8.84,8.84,0,0,1-2.49,4.23q-2.06,1.9-6.79,2.89a68,68,0,0,1-13.19,1,142,142,0,0,1-15.35-1.09,1.07,1.07,0,0,1-1-1.15,12.12,12.12,0,0,0-.87-6,1,1,0,0,0-1-.63H5.82a1,1,0,0,1-1-1.22l.53-3a1.05,1.05,0,0,1,1-.86H39.82a10.58,10.58,0,0,0-.14-1.37H8.49a1,1,0,0,1-1-1.22l.09-.49a.17.17,0,0,0,0-.07,54.12,54.12,0,0,0,.23-5.41,12.26,12.26,0,0,0-.4-2.95,1,1,0,0,1,1-1.31,143.53,143.53,0,0,0,20.07-1.64H10.26a1,1,0,0,1-1-1.22l1.06-6a1,1,0,0,1,1-.86H38.38l0-.23L35.35,47a.75.75,0,0,0-1.14.24l-.15.3a.75.75,0,0,1-1.07.29,12.19,12.19,0,0,1-1.49-1.11c-.21-.18-.41-.37-.6-.56a1,1,0,0,0-1.79.51L28.88,48a1,1,0,0,1-1,.86H18.42a.75.75,0,0,1-.73-.88l.09-.49a.74.74,0,0,0-1.2-.71,16.79,16.79,0,0,1-3.69,2.08,1,1,0,0,1-1.45-1A21.23,21.23,0,0,0,11,42a1,1,0,0,1,1-1.26,22.64,22.64,0,0,0,2.91-.28,20.81,20.81,0,0,0,3.85-1.15H15.12a1,1,0,0,1-1-1.21l1.3-7.37a1,1,0,0,1,1-.85h3.83a.76.76,0,0,0,.74-.62l.09-.52a.74.74,0,0,1,.73-.61h9.68a.74.74,0,0,1,.73.87h0a.75.75,0,0,0,.74.88h4a1.19,1.19,0,0,0,.32,0l6.34-2.05a1.08,1.08,0,0,1,.71,0l4.85,2a1.08,1.08,0,0,0,.81,0c1.1-.49,2.31-1.09,3.62-1.81a1.05,1.05,0,0,1,.83-.08L62,30.43l.09-.53h5.24a.74.74,0,0,0,.73-.62l.05-.29a.76.76,0,0,1,.74-.62H79.83l-.27,1.53h3.33a1,1,0,0,1,1,1.22l-1.3,7.36a1,1,0,0,1-1,.85H77.9v.08a12.21,12.21,0,0,0,3.38,1.1,18.93,18.93,0,0,0,2.24.23,1,1,0,0,1,.86,1.56,28.07,28.07,0,0,0-2.53,6,1,1,0,0,1-1.45.66,10.72,10.72,0,0,1-2.73-1.76.73.73,0,0,0-1.22.43l-.11.59a.74.74,0,0,1-.73.62H65.89a1,1,0,0,1-1-1.22L65,47a1,1,0,0,0-1.64-1c-.26.2-.52.4-.8.59a15.39,15.39,0,0,1-3,1.67L59.42,47l-1.41.8a1,1,0,0,0,.52,1.94H81.22a1,1,0,0,1,1,1.22l-1.06,6a1,1,0,0,1-1,.86H62.76a140.68,140.68,0,0,0,17.83,1.63A1,1,0,0,1,81.44,61a27.82,27.82,0,0,0-2.6,5.77H79l-.57,3.26a1,1,0,0,1-1,.85ZM18.29,77.39a117.1,117.1,0,0,0,14.34,1.15c3.19,0,5.24-.38,6.13-1.15ZM38.73,66.81l-.22-.5a1,1,0,0,0-1-.64H27.15a1,1,0,0,0-.34.06c-.8.28-1.49.5-2.09.66s-1.17.32-1.6.42ZM30.36,39.56a48.18,48.18,0,0,0,5.17,1.37c-.29-.1-.59-.21-.9-.34s-.67-.27-1.1-.42l1.82-.84h-5Zm7.86-5.88h0a1,1,0,0,0,.16-1.95h0a1,1,0,0,0-1.44.77h0A1,1,0,0,0,38.22,33.68Zm-1.17,4.85.33-.14a.75.75,0,0,0,.16-1.27l-.26-.2a.75.75,0,0,0-1.2.45l-.06.35A.74.74,0,0,0,37.05,38.53Zm-1,5.3,3.54-1.07-1.36-.59a1,1,0,0,0-1.26.35Zm11,16c-.73-.42-1.38-.84-2-1.25a1,1,0,0,0-1.15-.05,26.66,26.66,0,0,1-2.46,1.38C44,59.89,45.81,59.86,47,59.81Zm2.45-20.47.69-.26a1,1,0,0,0,.08-1.91l-.53-.25a1,1,0,0,0-.77,0l-.72.24a1,1,0,0,0-.1,1.93l.57.26A1,1,0,0,0,49.49,39.34Zm.3,8.75-1.89-1a1,1,0,0,0-.83-.06L44,48.09ZM60,32.39l-.06,0A1,1,0,0,0,60,34.33l0,0a1,1,0,0,0,1.41-.79v-.05A1,1,0,0,0,60,32.39Zm6.29,6.94H61.71a1,1,0,0,1-1-1.21l0-.08a1,1,0,0,0-1.44-1.13l-.49.21a1,1,0,0,0-.16,1.82l2.44,1.59a1.06,1.06,0,0,0,.83.14q3-.77,4.44-1.26Zm-2.1,27.48c-1.52-.43-2.8-.82-3.82-1.16a.89.89,0,0,0-.32-.05H52.34l.69.84a1.06,1.06,0,0,0,.8.37ZM58.9,44.36c-.08-.31-.16-.58-.23-.82a1,1,0,0,0-1.38-.67l-.69.27Z"/><path class="cls-2" d="M171.94,58.74H125.67a.85.85,0,0,0-.73.41h0a.88.88,0,0,0,.73,1.34H167.9a.87.87,0,0,1,.86,1L164.5,85.66a.87.87,0,0,1-.86.72H147.09l.11-.61H124.29l-.11.61H107.94a.88.88,0,0,1-.86-1l1.07-6.06a.87.87,0,0,0-1.4-.82,45.62,45.62,0,0,1-8.14,5.31c0-.41,0-.86,0-1.37s0-1.09,0-1.75q0-5.79-.19-9.25a17.41,17.41,0,0,0-.86-4.7.86.86,0,0,1,.48-1.08,27.79,27.79,0,0,0,3.88-2,18.62,18.62,0,0,0,3.77-3.23c.37-.41.82-1,1.36-1.68h-5.21a.87.87,0,0,1-.86-1l1.81-10.22a.87.87,0,0,1,.85-.72h70.09a.88.88,0,0,1,.86,1L172.8,58A.88.88,0,0,1,171.94,58.74ZM159.35,29.21h14.83a.86.86,0,0,1,.85,1L172.6,44a.86.86,0,0,1-.85.72H105.92a.88.88,0,0,1-.86-1l2.43-13.79a.88.88,0,0,1,.86-.72h14.83a.88.88,0,0,1,.86,1l-.22,1.24a.85.85,0,0,0,.85,1h6.76a.86.86,0,0,0,.86-.71l.52-3a.88.88,0,0,1,.86-.72h15.59a.88.88,0,0,1,.86,1l-.42,2.38a.85.85,0,0,0,.85,1h6.76a.86.86,0,0,0,.86-.71l.32-1.84A.88.88,0,0,1,159.35,29.21Zm-10,44.27.26-1.46a.88.88,0,0,0-.86-1H127.62a.86.86,0,0,0-.85.72l-.26,1.46a.87.87,0,0,0,.85,1h21.15A.89.89,0,0,0,149.37,73.48Z"/><path class="cls-2" d="M257.44,68a27.44,27.44,0,0,0,3.56.68.68.68,0,0,1,.59.8c-.63,3.57-1.13,6.1-1.48,7.57a26,26,0,0,1-1.57,4.57,7.79,7.79,0,0,1-1.89,2.7,5.16,5.16,0,0,1-1.86,1.11,15.56,15.56,0,0,1-2.39.38c-1.44.1-2.67.15-3.68.15-.61,0-2.33,0-5.15-.15-1.81-.1-3-.64-3.64-1.6a5.82,5.82,0,0,1-.44-4.19l2-11.23a.68.68,0,0,0-.67-.79h-.24a.67.67,0,0,0-.66.55,71.34,71.34,0,0,1-2.63,10,80.32,80.32,0,0,1-3.46,7.83.67.67,0,0,1-.82.35,108.27,108.27,0,0,0-13-3.28.69.69,0,0,1-.34-1.17c.78-.72,1.46-1.41,2-2.06A67.41,67.41,0,0,1,213.4,84a58.9,58.9,0,0,1-8.21,2.45.69.69,0,0,1-.82-.68c0-1.74-.07-3.37-.17-4.87a.67.67,0,0,0-1.29-.24,47.33,47.33,0,0,1-3.23,5.8.68.68,0,0,1-.82.26,60.69,60.69,0,0,0-6.13-2.08q-3-.87-5.78-1.38a.68.68,0,0,1-.38-1.13,49.05,49.05,0,0,0,5.05-6.51,25.1,25.1,0,0,0,2.8-6.78.68.68,0,0,0-.66-.86h-.59a.69.69,0,0,1-.67-.8l2.62-14.86a.69.69,0,0,1,.67-.56h30.74a.68.68,0,0,1,.67.8l-2.62,14.85a.68.68,0,0,1-.67.57H219.8a.68.68,0,0,0-.67.56L218.87,70a.68.68,0,0,0,.9.76c1.1-.41,2.46-.94,4.07-1.59a.68.68,0,0,1,.93.71c-.19,1.39-.34,3-.44,4.73a.69.69,0,0,0,1.29.36A26.69,26.69,0,0,0,228,68.81a.68.68,0,0,0-.66-.85h-.6a.68.68,0,0,1-.67-.8l2.62-14.86a.68.68,0,0,1,.67-.56h33.32a.69.69,0,0,1,.68.8l-2.62,14.85a.68.68,0,0,1-.67.57Zm-32-27.18h2.31a.68.68,0,0,1,.67.8L227,50a.68.68,0,0,1-.67.56H194a.68.68,0,0,1-.67-.8l1.48-8.38a.69.69,0,0,1,.67-.56h5.36a.68.68,0,0,0,.67-.76l0-.16a.67.67,0,0,0-.67-.6h-3.61a.69.69,0,0,1-.68-.8L198,30.15a.69.69,0,0,1,.67-.56h9.06a.69.69,0,0,0,.67-.56l.08-.47a.68.68,0,0,1,.67-.57h12.17a.69.69,0,0,1,.67.8h0a.68.68,0,0,0,.67.8h7a.67.67,0,0,1,.67.8l-1.46,8.31a.69.69,0,0,1-.67.56h-1.64a.68.68,0,0,0-.63.41ZM211.94,58.52H208a.68.68,0,0,0-.67.56l-.08.46a.68.68,0,0,0,.67.8h3.94a.68.68,0,0,0,.68-.56l.08-.46A.68.68,0,0,0,211.94,58.52Zm-5.13,15.62a.67.67,0,0,0,.54-.55l1-5.63h-.89a.68.68,0,0,0-.66.54q-.53,2.56-1.19,4.86a.69.69,0,0,0,.76.86Zm9-34.88h-3.42a.68.68,0,0,0-.67.76l0,.16a.68.68,0,0,0,.67.6h2.24a.67.67,0,0,0,.62-.39ZM260,40.78h5.51a.68.68,0,0,1,.67.8L264.72,50a.67.67,0,0,1-.67.56h-35a.68.68,0,0,1-.67-.8l1.48-8.38a.69.69,0,0,1,.67-.56h3.77l-.17-1a.69.69,0,0,0-.67-.56h-2.35a.68.68,0,0,1-.67-.8l1.47-8.31a.68.68,0,0,1,.67-.56h8.29a.68.68,0,0,0,.67-.56l.09-.47a.68.68,0,0,1,.67-.57h13.08a.69.69,0,0,1,.67.8h0a.68.68,0,0,0,.67.8h10.1a.68.68,0,0,1,.67.8L266,38.7a.68.68,0,0,1-.67.56h-4.17a.7.7,0,0,0-.62.39ZM247.56,58.52h-5.47a.68.68,0,0,0-.67.56l-.08.46a.68.68,0,0,0,.67.8h5.47a.68.68,0,0,0,.67-.56l.08-.46A.68.68,0,0,0,247.56,58.52Zm2.08-19.26H246a.68.68,0,0,0-.67.76l0,.16a.68.68,0,0,0,.67.6h2.47a.7.7,0,0,0,.62-.39ZM254,74q.45-2.54.82-5.3a.69.69,0,0,0-.68-.78h-.4a.68.68,0,0,0-.67.56L252,74.58c0,.25.31.38,1.07.38C253.59,75,253.9,74.65,254,74Z"/><path class="cls-2" d="M343.14,87.48a.78.78,0,0,1-.59.13l-4-.7q-12.17-2.19-23.51-4a.61.61,0,0,0-.27,0q-17.87,3.27-29.39,4.58a.78.78,0,0,1-.63-.23,64.17,64.17,0,0,0-6.59-5.76.78.78,0,0,1,.47-1.39,209.75,209.75,0,0,0,24.66-1.72H283.93a.77.77,0,0,1-.76-.91l2.11-12a.83.83,0,0,0-.08-.51,16.78,16.78,0,0,0-2.91-4,.77.77,0,0,1,.44-1.32q3.19-.37,6.47-.83,4.14-.57,7.45-1.25H284.11a.78.78,0,0,1-.77-.92l.79-4.45a.77.77,0,0,1,.76-.65H302l.16-.91H288.22a.77.77,0,0,1-.76-.91l.62-3.55a.78.78,0,0,1,.77-.64H303l.14-.84H289.27a.78.78,0,0,1-.77-.91l.27-1.52a.78.78,0,0,0-.77-.92h-.58a.77.77,0,0,1-.76-.91l1.75-9.94a.77.77,0,0,1,.77-.64h25.41a.77.77,0,0,0,.76-.64l.1-.54a.77.77,0,0,1,.77-.65h15.85a.78.78,0,0,1,.76.92h0a.78.78,0,0,0,.77.91h24.86a.78.78,0,0,1,.77.91l-1.75,9.94a.78.78,0,0,1-.77.64h-1.06a.77.77,0,0,0-.76.65L354.52,44a.76.76,0,0,1-.76.64H339.57l-.15.84h13.92a.77.77,0,0,1,.76.91L353.48,50a.78.78,0,0,1-.77.64H338.52l-.16.91h16.81a.78.78,0,0,1,.76.92l-.78,4.45a.78.78,0,0,1-.77.65H341.49q3.15.67,7.12,1.25,3,.44,5.92.79A.77.77,0,0,1,354.9,61a31.32,31.32,0,0,0-4.61,4.32.75.75,0,0,0-.19.39L348,77.74a.78.78,0,0,1-.77.64H330.65l20.46,2.06a.77.77,0,0,1,.35,1.42Q347.59,84.31,343.14,87.48Zm-40.62-49.4-.1.57a.77.77,0,0,0,.76.91h.25a.78.78,0,0,0,.77-.64l0-.24A.77.77,0,0,1,305,38h13.81l-.26,1.52h6.8a.78.78,0,0,0,.77-.64l0-.24a.78.78,0,0,1,.77-.64h13.81l-.27,1.52h1.09a.77.77,0,0,0,.77-.64l.1-.57a.78.78,0,0,0-.76-.92H303.29A.77.77,0,0,0,302.52,38.08Zm-.19,26.53h30.4a.78.78,0,0,0,.77-.65l.12-.65H303.21a.76.76,0,0,0-.76.65Zm30.44,3.5h-30.4a.78.78,0,0,0-.77.64l-.11.65h30.4a.78.78,0,0,0,.77-.64Zm-.85,4.79h-30.4a.78.78,0,0,0-.77.65l-.11.65H331a.78.78,0,0,0,.77-.65ZM315.23,57.53a.8.8,0,0,0-.3.06l-4.12,1.69h16.13l-3.49-1.68a.75.75,0,0,0-.33-.07Zm-3.61,22.31,2.87,1.61a.76.76,0,0,0,.73,0c1.12-.56,2.22-1.09,3.33-1.6a.78.78,0,0,0-.32-1.49H312A.78.78,0,0,0,311.62,79.84Zm13.49-35.18h-7.46l-.15.84H325Zm-1.05,5.94H316.6l-.16.91h7.46Z"/><path class="cls-3" d="M52,70.25l.21.66a1.05,1.05,0,0,0,1,.72H74.45a1,1,0,0,1,1,1.21l-.53,3a1,1,0,0,1-1,.86H53.23a1.06,1.06,0,0,0-1,.79,8.76,8.76,0,0,1-2.49,4.23q-2,1.91-6.79,2.89a68,68,0,0,1-13.19,1A142.13,142.13,0,0,1,14.4,84.54a1.07,1.07,0,0,1-1-1.15,12.23,12.23,0,0,0-.86-6,1,1,0,0,0-1-.62H2a1,1,0,0,1-1-1.22l.53-3a1,1,0,0,1,1-.85H36a9,9,0,0,0-.14-1.38H4.7a1,1,0,0,1-1-1.21l.09-.5a.17.17,0,0,1,0-.07C4,66.3,4,64.5,4,63.06a12.27,12.27,0,0,0-.41-3,1,1,0,0,1,1-1.31,143.39,143.39,0,0,0,20.07-1.64H6.48a1,1,0,0,1-1-1.22l1-6a1,1,0,0,1,1-.86H34.6l0-.22-3.07-2.53a.74.74,0,0,0-1.14.23l-.15.3a.75.75,0,0,1-1.07.3,14.55,14.55,0,0,1-1.5-1.12c-.2-.18-.41-.37-.6-.56a1,1,0,0,0-1.79.52l-.23,1.31a1,1,0,0,1-1,.86H14.64a.74.74,0,0,1-.73-.87l.08-.5a.74.74,0,0,0-1.19-.71,17.71,17.71,0,0,1-3.69,2.09,1,1,0,0,1-1.45-1,21.09,21.09,0,0,0-.5-5.83,1,1,0,0,1,1-1.27,22.47,22.47,0,0,0,2.9-.28,20,20,0,0,0,3.86-1.14H11.34a1,1,0,0,1-1-1.22l1.29-7.36a1,1,0,0,1,1-.86h3.83a.74.74,0,0,0,.73-.62l.09-.52a.76.76,0,0,1,.74-.61H27.7a.75.75,0,0,1,.74.87h0a.75.75,0,0,0,.73.88h4a1.13,1.13,0,0,0,.32-.05l6.35-2a1,1,0,0,1,.71,0l4.85,2a1,1,0,0,0,.8,0c1.11-.48,2.31-1.09,3.63-1.81a1,1,0,0,1,.83-.08l7.62,2.52.1-.53h5.23a.74.74,0,0,0,.74-.62l.05-.29a.74.74,0,0,1,.73-.61h11l-.27,1.52h3.33a1,1,0,0,1,1,1.22l-1.3,7.36a1,1,0,0,1-1,.86H74.12l0,.07a12.66,12.66,0,0,0,3.39,1.11,21.23,21.23,0,0,0,2.24.22,1,1,0,0,1,.85,1.56,28.28,28.28,0,0,0-2.52,6,1.05,1.05,0,0,1-1.46.66,10.83,10.83,0,0,1-2.72-1.76.74.74,0,0,0-1.23.43l-.1.59a.76.76,0,0,1-.74.62h-9.7a1,1,0,0,1-1-1.22l.11-.63a1,1,0,0,0-1.63-1l-.8.59a15.7,15.7,0,0,1-3,1.67l-.17-1.22-1.4.8a1,1,0,0,0,.51,1.94H77.43a1,1,0,0,1,1,1.22l-1.06,6a1,1,0,0,1-1,.86H59A140.68,140.68,0,0,0,76.8,58.79a1,1,0,0,1,.86,1.59,27.21,27.21,0,0,0-2.6,5.76h.15l-.58,3.26a1,1,0,0,1-1,.85ZM14.5,76.73a119.09,119.09,0,0,0,14.34,1.14c3.2,0,5.24-.38,6.14-1.14ZM34.94,66.14l-.21-.5a1,1,0,0,0-1-.64H23.37a1,1,0,0,0-.35.06c-.79.28-1.49.5-2.09.67l-1.59.41ZM26.58,38.89a48.06,48.06,0,0,0,5.16,1.37c-.29-.1-.58-.21-.89-.34l-1.11-.42,1.83-.83H26.62ZM34.43,33h0a1,1,0,0,0,.17-1.95h0a1,1,0,0,0-1.45.77h0A1,1,0,0,0,34.43,33Zm-1.16,4.85.32-.14a.74.74,0,0,0,.16-1.26l-.26-.21a.75.75,0,0,0-1.2.45l-.06.35A.74.74,0,0,0,33.27,37.86Zm-1,5.3,3.53-1.07-1.36-.58a1,1,0,0,0-1.25.34C33,42.18,32.67,42.62,32.3,43.16Zm11,16c-.72-.42-1.38-.83-2-1.25a1,1,0,0,0-1.15,0,26.43,26.43,0,0,1-2.46,1.37C40.17,59.22,42,59.19,43.25,59.14Zm2.46-20.47.69-.25a1,1,0,0,0,.07-1.92L46,36.25a1.08,1.08,0,0,0-.77,0l-.73.24a1,1,0,0,0-.1,1.94l.58.25A1,1,0,0,0,45.71,38.67Zm.3,8.75-1.9-1a1.09,1.09,0,0,0-.83-.06l-3.06,1.07Zm10.24-15.7-.06,0a1,1,0,0,0,.05,1.91l0,0a1,1,0,0,0,1.41-.78v-.06A1,1,0,0,0,56.25,31.72Zm6.3,7H57.92a1,1,0,0,1-1-1.22v-.08a1,1,0,0,0-1.43-1.13l-.5.21a1,1,0,0,0-.15,1.82l2.44,1.59a1.06,1.06,0,0,0,.83.14c2-.51,3.48-.93,4.43-1.26ZM60.44,66.14c-1.52-.43-2.79-.82-3.82-1.16a.86.86,0,0,0-.32,0H48.55l.69.84a1.05,1.05,0,0,0,.81.37ZM55.11,43.69c-.08-.3-.15-.58-.22-.82a1,1,0,0,0-1.39-.67l-.68.27Z"/><path class="cls-4" d="M168.16,58.08H121.89a.86.86,0,0,0-.73.4h0a.87.87,0,0,0,.73,1.34h42.24a.86.86,0,0,1,.85,1L160.71,85a.87.87,0,0,1-.85.72H143.31l.11-.61H120.5l-.1.61H104.15a.86.86,0,0,1-.85-1l1.07-6a.87.87,0,0,0-1.4-.83,45.66,45.66,0,0,1-8.15,5.31c0-.41,0-.86,0-1.37s0-1.09,0-1.75q0-5.79-.2-9.25a17,17,0,0,0-.86-4.7A.86.86,0,0,1,94.27,65a28.78,28.78,0,0,0,3.87-2,18.75,18.75,0,0,0,3.77-3.24,19.21,19.21,0,0,0,1.36-1.67H98.06a.87.87,0,0,1-.85-1L99,46.84a.86.86,0,0,1,.86-.71H170a.85.85,0,0,1,.85,1L169,57.36A.87.87,0,0,1,168.16,58.08Zm-12.6-29.54h14.83a.88.88,0,0,1,.86,1l-2.43,13.79a.88.88,0,0,1-.86.72H102.13a.86.86,0,0,1-.85-1l2.43-13.79a.87.87,0,0,1,.85-.72H119.4a.87.87,0,0,1,.85,1L120,30.8a.88.88,0,0,0,.86,1h6.76a.87.87,0,0,0,.85-.72l.53-3a.86.86,0,0,1,.85-.72h15.6a.86.86,0,0,1,.85,1l-.42,2.38a.88.88,0,0,0,.86,1h6.76a.87.87,0,0,0,.85-.72l.33-1.84A.87.87,0,0,1,155.56,28.54Zm-10,44.27.26-1.46a.87.87,0,0,0-.85-1H123.84a.88.88,0,0,0-.86.72l-.26,1.46a.88.88,0,0,0,.86,1h21.15A.86.86,0,0,0,145.58,72.81Z"/><path class="cls-5" d="M253.65,67.29a26.15,26.15,0,0,0,3.56.68.69.69,0,0,1,.6.8c-.64,3.57-1.13,6.1-1.49,7.57a25.16,25.16,0,0,1-1.57,4.57,7.91,7.91,0,0,1-1.88,2.7A5,5,0,0,1,251,84.72a15.56,15.56,0,0,1-2.39.38c-1.44.1-2.66.15-3.68.15-.61,0-2.32,0-5.15-.15-1.81-.1-3-.64-3.64-1.6a5.91,5.91,0,0,1-.44-4.19l2-11.22a.68.68,0,0,0-.67-.8h-.23a.69.69,0,0,0-.67.55,70,70,0,0,1-2.63,10A80,80,0,0,1,230,85.7a.67.67,0,0,1-.82.35,110.72,110.72,0,0,0-13-3.28.68.68,0,0,1-.35-1.16c.78-.73,1.46-1.42,2.05-2.07a67.57,67.57,0,0,1-8.32,3.77,58.38,58.38,0,0,1-8.2,2.45.69.69,0,0,1-.83-.67c0-1.75-.06-3.37-.16-4.88a.68.68,0,0,0-1.3-.24,46.51,46.51,0,0,1-3.22,5.8.69.69,0,0,1-.83.26A62.24,62.24,0,0,0,189,84c-2-.58-4-1-5.79-1.39a.69.69,0,0,1-.38-1.13,49.71,49.71,0,0,0,5.05-6.5,25.31,25.31,0,0,0,2.81-6.79.69.69,0,0,0-.66-.86h-.59a.69.69,0,0,1-.68-.8l2.62-14.85a.68.68,0,0,1,.67-.57h30.74a.68.68,0,0,1,.67.8L220.8,66.72a.7.7,0,0,1-.68.57H216a.68.68,0,0,0-.68.56l-.26,1.48a.68.68,0,0,0,.9.76c1.11-.41,2.46-.94,4.07-1.59a.69.69,0,0,1,.94.72c-.2,1.38-.35,3-.44,4.72a.68.68,0,0,0,1.28.36,26.52,26.52,0,0,0,2.39-6.16.69.69,0,0,0-.67-.85H223a.69.69,0,0,1-.67-.8l2.62-14.85a.68.68,0,0,1,.67-.57H258.9a.69.69,0,0,1,.67.8L257,66.72a.68.68,0,0,1-.67.57Zm-32-27.18H224a.68.68,0,0,1,.67.8l-1.48,8.38a.68.68,0,0,1-.67.57H190.18a.68.68,0,0,1-.67-.8L191,40.68a.68.68,0,0,1,.67-.57H197a.68.68,0,0,0,.68-.76l0-.16a.7.7,0,0,0-.68-.6h-3.61a.68.68,0,0,1-.67-.8l1.46-8.3a.68.68,0,0,1,.67-.57h9.06a.68.68,0,0,0,.67-.56l.09-.47a.68.68,0,0,1,.67-.57h12.16a.68.68,0,0,1,.67.8h0a.68.68,0,0,0,.67.8h7.06a.69.69,0,0,1,.67.8L225.09,38a.68.68,0,0,1-.67.56h-1.64a.69.69,0,0,0-.63.41ZM208.15,57.85h-3.94a.68.68,0,0,0-.67.56l-.09.47a.68.68,0,0,0,.67.79h3.95a.68.68,0,0,0,.67-.56l.08-.46A.68.68,0,0,0,208.15,57.85ZM203,73.48a.66.66,0,0,0,.53-.55l1-5.64h-.89a.69.69,0,0,0-.67.54q-.52,2.57-1.18,4.86a.68.68,0,0,0,.76.86Zm9-34.89h-3.41a.68.68,0,0,0-.68.76l0,.16a.67.67,0,0,0,.68.6h2.24a.67.67,0,0,0,.61-.39Zm44.19,1.52h5.51a.68.68,0,0,1,.67.8l-1.48,8.38a.68.68,0,0,1-.67.57h-35a.68.68,0,0,1-.67-.8l1.47-8.38a.68.68,0,0,1,.67-.57h3.77l-.17-1a.68.68,0,0,0-.67-.56h-2.34a.68.68,0,0,1-.67-.8l1.46-8.3a.68.68,0,0,1,.67-.57h8.3a.68.68,0,0,0,.67-.56l.08-.47a.68.68,0,0,1,.67-.57h13.08a.68.68,0,0,1,.67.8h0a.68.68,0,0,0,.67.8H263a.68.68,0,0,1,.67.8L262.24,38a.69.69,0,0,1-.67.56h-4.18a.67.67,0,0,0-.61.39ZM243.78,57.85h-5.47a.68.68,0,0,0-.67.56l-.09.47a.68.68,0,0,0,.68.79h5.46a.67.67,0,0,0,.67-.56l.09-.46A.68.68,0,0,0,243.78,57.85Zm2.07-19.26h-3.64a.68.68,0,0,0-.68.76l0,.17a.67.67,0,0,0,.68.59h2.47a.67.67,0,0,0,.61-.39Zm4.37,34.79q.45-2.55.82-5.31a.68.68,0,0,0-.68-.78H250a.68.68,0,0,0-.67.56l-1.07,6.06c0,.25.32.38,1.08.38C249.81,74.29,250.11,74,250.22,73.38Z"/><path class="cls-6" d="M339.35,86.81a.8.8,0,0,1-.58.14l-4-.71q-12.18-2.19-23.52-4a.57.57,0,0,0-.26,0q-17.88,3.28-29.4,4.58a.76.76,0,0,1-.62-.23,65.07,65.07,0,0,0-6.59-5.75.78.78,0,0,1,.46-1.4,209.93,209.93,0,0,0,24.67-1.72H280.15a.78.78,0,0,1-.77-.91l2.11-12a.82.82,0,0,0-.07-.51,16.3,16.3,0,0,0-2.92-4,.78.78,0,0,1,.44-1.33q3.21-.37,6.48-.83c2.75-.38,5.24-.79,7.45-1.25H280.32a.78.78,0,0,1-.76-.92l.78-4.45a.79.79,0,0,1,.77-.65h17.08l.16-.91H284.44a.78.78,0,0,1-.77-.91l.62-3.55a.78.78,0,0,1,.77-.64h14.19l.15-.84H285.48a.77.77,0,0,1-.76-.91l.27-1.52a.78.78,0,0,0-.77-.91h-.58a.78.78,0,0,1-.77-.92l1.75-9.94a.78.78,0,0,1,.77-.64H310.8a.78.78,0,0,0,.77-.64l.09-.54a.79.79,0,0,1,.77-.65h15.85a.79.79,0,0,1,.77.92h0a.77.77,0,0,0,.76.91h24.87a.78.78,0,0,1,.76.92L353.69,40a.79.79,0,0,1-.77.65h-1.05a.78.78,0,0,0-.77.64l-.36,2.06A.78.78,0,0,1,350,44H335.78l-.14.84h13.91a.79.79,0,0,1,.77.92l-.63,3.54a.77.77,0,0,1-.76.64H334.74l-.16.91h16.8a.78.78,0,0,1,.77.92l-.79,4.46a.76.76,0,0,1-.76.64H337.7c2.1.46,4.48.87,7.13,1.25q3,.44,5.91.79a.77.77,0,0,1,.37,1.38,32.36,32.36,0,0,0-4.61,4.32.93.93,0,0,0-.19.4l-2.13,12.07a.76.76,0,0,1-.76.64H326.87l20.46,2.06a.78.78,0,0,1,.34,1.43Q343.8,83.63,339.35,86.81Zm-40.62-49.4-.1.57a.78.78,0,0,0,.77.91h.24a.77.77,0,0,0,.77-.64l0-.23a.78.78,0,0,1,.77-.65H315l-.27,1.52h6.81a.77.77,0,0,0,.76-.64l0-.23a.78.78,0,0,1,.77-.65H337l-.27,1.52h1.1a.78.78,0,0,0,.77-.64l.1-.57a.78.78,0,0,0-.77-.92H299.5A.78.78,0,0,0,298.73,37.41Zm-.18,26.53H329a.78.78,0,0,0,.77-.65l.11-.65h-30.4a.78.78,0,0,0-.77.65ZM329,67.44h-30.4a.76.76,0,0,0-.76.64l-.12.65h30.4a.78.78,0,0,0,.77-.64Zm-.84,4.79h-30.4a.79.79,0,0,0-.77.65l-.12.65h30.41a.76.76,0,0,0,.76-.64Zm-16.7-15.37a.72.72,0,0,0-.29.06L307,58.61h16.14l-3.49-1.67a.68.68,0,0,0-.34-.08Zm-3.6,22.31,2.87,1.62a.78.78,0,0,0,.73,0c1.11-.56,2.22-1.09,3.32-1.6a.78.78,0,0,0-.31-1.49h-6.23A.78.78,0,0,0,307.84,79.17ZM321.32,44h-7.46l-.15.84h7.46Zm-1.05,5.94h-7.46l-.16.91h7.46Z"/><text class="cls-7" transform="matrix(0.98, 0, -0.17, 0.98, 15.96, 12.62)">Climbing Competition</text></g></g></svg>