<?xml version="1.0" encoding="UTF-8"?>
<svg id="_圖層_2" data-name="圖層 2" xmlns="http://www.w3.org/2000/svg" xmlns:xlink="http://www.w3.org/1999/xlink" viewBox="0 0 170.31 84.52">
  <defs>
    <style>
      .cls-1 {
        fill: url(#_未命名漸層_254-2);
      }

      .cls-1, .cls-2 {
        stroke: #faf9db;
        stroke-miterlimit: 10;
        stroke-width: 2px;
      }

      .cls-3 {
        fill: #6fa0d3;
      }

      .cls-2 {
        fill: url(#_未命名漸層_254);
      }
    </style>
    <linearGradient id="_未命名漸層_254" data-name="未命名漸層 254" x1="41.09" y1="83.46" x2="41.09" y2="24.98" gradientUnits="userSpaceOnUse">
      <stop offset="0" stop-color="#045e9e"/>
      <stop offset="1" stop-color="#a1d6f6"/>
    </linearGradient>
    <linearGradient id="_未命名漸層_254-2" data-name="未命名漸層 254" x1="130.4" y1="82.78" x2="130.4" y2="25.05" xlink:href="#_未命名漸層_254"/>
  </defs>
  <g id="_素材" data-name="素材">
    <g>
      <g>
        <path class="cls-2" d="M70.16,75.4c-1.47,2.31-2.89,4.95-4.25,7.91-3.37-.8-6.95-1.97-10.74-3.5-3.79-1.53-7.09-3.28-9.91-5.24l-1.57,8.89h-15.44l1.57-8.89c-3.61,1.96-7.58,3.72-11.91,5.28-4.33,1.56-8.27,2.71-11.82,3.47-.32-2.96-.81-5.6-1.46-7.91-.66-2.31-1.63-4.6-2.91-6.86,5.15,0,10.1-.25,14.87-.75,4.77-.5,8.97-1.15,12.63-1.96H7.17l4.62-26.23h24.2l.28-1.58H9.33l1.81-10.25h26.94l.49-2.79h15.44l-.49,2.79h26.94l-1.81,10.25h-26.94l-.28,1.58h24.2l-4.62,26.23h-22.04c3.37,.8,7.35,1.46,11.94,1.96,4.59,.5,9.45,.75,14.6,.75-2.08,2.26-3.86,4.55-5.33,6.86Zm-37.02-19.67h-9.13l-.29,1.66h9.13l.29-1.66Zm1.1-6.26l.29-1.66h-9.13l-.29,1.66h9.13Zm14.33,6.26l-.29,1.66h9.13l.29-1.66h-9.13Zm10.23-6.26l.29-1.66h-9.13l-.29,1.66h9.13Z"/>
        <path class="cls-1" d="M96.17,56.48h35.33l-4.64,26.3h-13.95l.13-.75h-7.35l-.13,.75h-14.03l4.64-26.3Zm39.17-16.73h-3.12l-.93,3.17h4.38l-2.03,11.53h-38.22l2.03-11.53h4.23l.04-3.17h-2.82l2.13-12.06h10.09l.47-2.64h15.51l-.47,2.64h10.84l-2.13,12.06Zm-20.33,31.13l.74-4.22h-7.35l-.74,4.22h7.35Zm4.38-31.13h-4.53l-.26,3.17h3.86l.93-3.17Zm49.88-2.56c-3.53,6.53-6.25,11.3-8.17,14.32,2.58,5.02,3.5,9.6,2.78,13.72-.81,4.57-2.65,8.08-5.53,10.51-2.88,2.44-6.44,3.61-10.67,3.5,.2-4.77-.15-8.54-1.05-11.3l-2.56,14.55h-14.33l9.93-56.3h27.68l1.92,11Zm-22.16,28.04c1.74-.6,2.76-1.78,3.07-3.54,.28-1.61-.18-3.59-1.4-5.95l-1.67,9.5Zm4.64-26.3l-1.61,9.12c2.43-3.67,3.88-6.71,4.35-9.12h-2.75Z"/>
      </g>
      <g>
        <path class="cls-3" d="M17.32,7.72c3.55-.02,6.13-.07,7.74-.16-.13,.39-.24,.79-.33,1.2-.09,.41-.18,.93-.29,1.56H13.56c.4-1.84,.74-3.56,1.02-5.16,.28-1.6,.55-3.32,.8-5.16h10.88l-.45,2.57h-7.57l-.24,1.37c.45,0,1.11,.01,1.98,.01,1.48,0,3.02-.03,4.62-.08l-.43,2.45c-1.58-.06-3.11-.09-4.59-.09-.88,0-1.54,0-1.99,.01l-.26,1.48Z"/>
        <path class="cls-3" d="M36.13,7.96c-.06,.32-.06,.55,0,.68,.05,.13,.18,.23,.4,.28l-.29,1.34c-.31,.05-.57,.08-.79,.1-.22,.02-.52,.03-.88,.03-.8,0-1.3-.18-1.5-.55-.2-.36-.25-.83-.14-1.4l.06-.36c-.41,.78-.9,1.36-1.49,1.74s-1.28,.57-2.08,.57c-.93,0-1.6-.19-2.01-.57-.41-.38-.54-.94-.41-1.69,.11-.62,.39-1.1,.86-1.45,.46-.35,1.13-.59,1.99-.72-.62-.51-1.25-.96-1.89-1.34,.69-.72,1.42-1.27,2.21-1.64,.78-.37,1.69-.56,2.72-.56,1.44,0,2.45,.32,3.03,.95,.58,.63,.76,1.6,.53,2.91l-.3,1.69Zm-3.97-.19c.46-.2,.79-.47,1.01-.8l.07-.37c-.24,.11-.51,.2-.79,.26-.28,.06-.62,.12-1.01,.18l-.52,.08c-.54,.11-.83,.29-.88,.54-.05,.27,.17,.41,.66,.41,.52,0,1.01-.1,1.47-.3Zm-.74-2.61c-.39,.16-.76,.4-1.11,.73,.57-.07,1.28-.1,2.12-.1,.34,0,.6-.04,.75-.13,.16-.08,.24-.19,.27-.33,.02-.12-.03-.21-.16-.29-.13-.08-.31-.12-.57-.12-.48,0-.91,.08-1.3,.24Z"/>
        <path class="cls-3" d="M40.34,10.13c-.77-.22-1.47-.56-2.1-1.02l1.83-2.03c.38,.31,.85,.56,1.43,.73,.58,.18,1.08,.26,1.52,.26s.75-.06,1-.18c.25-.12,.39-.27,.42-.46,.03-.15,0-.27-.11-.35-.1-.09-.24-.13-.44-.13-.12,0-.26,0-.42,.01-.16,0-.28,.02-.38,.03-.5,.06-1,.09-1.51,.09-.83,0-1.48-.16-1.94-.48-.46-.32-.63-.84-.5-1.56,.15-.83,.65-1.48,1.5-1.94,.86-.46,2.03-.69,3.54-.69,.74,0,1.46,.11,2.18,.32,.71,.21,1.32,.53,1.83,.96l-1.9,1.65c-.48-.28-.94-.48-1.38-.6-.44-.12-.9-.18-1.36-.18-.33,0-.62,.07-.88,.2-.26,.13-.4,.28-.43,.45-.02,.13,0,.24,.09,.31,.08,.08,.21,.11,.36,.11s.38-.01,.67-.04c.69-.05,1.2-.07,1.54-.07,.97,0,1.69,.17,2.17,.5,.47,.33,.65,.84,.53,1.52-.18,1.02-.7,1.76-1.57,2.22-.87,.46-1.99,.69-3.37,.69-.78,0-1.56-.11-2.33-.33Z"/>
        <path class="cls-3" d="M56.13,5.1c-.85-.06-1.63-.1-2.33-.13l-.28,1.51c-.09,.51-.05,.91,.12,1.2,.17,.29,.53,.43,1.09,.43,.21,0,.42-.02,.63-.06-.1,.35-.18,.71-.24,1.07-.03,.17-.09,.56-.18,1.17-.42,.08-.78,.12-1.06,.14s-.65,.03-1.1,.03c-1.09,0-1.82-.27-2.18-.8-.36-.54-.45-1.28-.28-2.24l.44-2.4c-.44,.02-.9,.05-1.39,.09l.44-2.52c.49,0,.92-.16,1.32-.47s.66-.69,.8-1.12h3.81c-.59,.66-1.21,1.19-1.86,1.59h2.7l-.44,2.52Z"/>
      </g>
    </g>
  </g>
</svg>