<?xml version="1.0" encoding="UTF-8"?>
<svg id="_圖層_2" data-name="圖層 2" xmlns="http://www.w3.org/2000/svg" xmlns:xlink="http://www.w3.org/1999/xlink" viewBox="0 0 166.99 85.31">
  <defs>
    <style>
      .cls-1 {
        fill: url(#_未命名漸層_254-2);
      }

      .cls-1, .cls-2 {
        stroke: #faf9db;
        stroke-miterlimit: 10;
        stroke-width: 2px;
      }

      .cls-3 {
        fill: #6fa0d3;
      }

      .cls-2 {
        fill: url(#_未命名漸層_254);
      }
    </style>
    <linearGradient id="_未命名漸層_254" data-name="未命名漸層 254" x1="38.18" y1="83.63" x2="38.18" y2="26.13" gradientUnits="userSpaceOnUse">
      <stop offset="0" stop-color="#045e9e"/>
      <stop offset="1" stop-color="#a1d6f6"/>
    </linearGradient>
    <linearGradient id="_未命名漸層_254-2" data-name="未命名漸層 254" x1="127.08" y1="84.31" x2="127.08" y2="26.58" xlink:href="#_未命名漸層_254"/>
  </defs>
  <g id="_素材" data-name="素材">
    <g>
      <g>
        <path class="cls-2" d="M51.79,26.13l-1.62,9.19h25.01l-6.45,36.55h-16.48l.27-1.51h-8.54l-2.34,13.26H24.13l2.34-13.26h-8.46l-.27,1.51H1.19L7.64,35.32h25.01l1.62-9.19h17.52Zm-30.18,23.81l-1.01,5.73h8.46l1.01-5.73h-8.46Zm25.98,0l-1.01,5.73h8.54l1.01-5.73h-8.54Z"/>
        <path class="cls-1" d="M92.85,58.01h35.33l-4.64,26.3h-13.95l.13-.75h-7.35l-.13,.75h-14.03l4.64-26.3Zm39.17-16.73h-3.12l-.93,3.17h4.38l-2.03,11.53h-38.22l2.03-11.53h4.23l.04-3.17h-2.82l2.13-12.06h10.09l.47-2.64h15.51l-.47,2.64h10.84l-2.13,12.06Zm-20.33,31.13l.74-4.22h-7.35l-.74,4.22h7.35Zm4.38-31.13h-4.53l-.26,3.17h3.86l.93-3.17Zm49.88-2.56c-3.53,6.53-6.25,11.3-8.17,14.32,2.58,5.02,3.5,9.6,2.78,13.72-.81,4.57-2.65,8.08-5.53,10.51-2.88,2.44-6.44,3.61-10.67,3.5,.2-4.77-.15-8.54-1.05-11.3l-2.56,14.55h-14.33l9.93-56.3h27.68l1.92,11Zm-22.16,28.04c1.74-.6,2.76-1.78,3.07-3.54,.28-1.61-.18-3.59-1.4-5.95l-1.67,9.5Zm4.64-26.3l-1.61,9.12c2.43-3.67,3.88-6.71,4.35-9.12h-2.75Z"/>
      </g>
      <g>
        <path class="cls-3" d="M32.24,1.48l-.73,10.32h-3.63l1.07-7.36-2.7,7.36h-3.67l-.14-7.31-1.5,7.31h-3.63L20.24,1.48h4.76l.03,6.72,2.25-6.72h4.96Z"/>
        <path class="cls-3" d="M33.93,11.8c.33-1.53,.59-2.79,.77-3.78,.21-1.18,.41-2.51,.59-3.98h3.36c-.32,1.41-.6,2.74-.81,3.98-.18,1.04-.37,2.3-.57,3.78h-3.33Zm1.91-9.04c-.23-.29-.31-.68-.22-1.15,.08-.46,.29-.85,.63-1.15,.34-.3,.8-.46,1.39-.46s.96,.15,1.21,.46c.24,.31,.33,.69,.25,1.14-.08,.47-.3,.86-.64,1.15-.34,.29-.8,.44-1.38,.44s-1-.15-1.23-.44Z"/>
        <path class="cls-3" d="M49.65,6.27c-.34,1.91-.63,3.75-.89,5.53h-3.16l.34-1.71c-.38,.64-.86,1.1-1.42,1.4s-1.2,.45-1.9,.45c-.61,0-1.12-.17-1.54-.53-.42-.35-.72-.83-.88-1.43-.16-.6-.18-1.26-.06-1.98,.12-.71,.38-1.38,.76-2.01,.38-.63,.85-1.14,1.41-1.52,.56-.38,1.15-.58,1.77-.58,.73,0,1.32,.15,1.79,.46,.46,.31,.77,.78,.9,1.43,.09-.54,.23-1.41,.4-2.6,.17-1.16,.29-1.97,.37-2.45h3.16c-.37,1.76-.72,3.61-1.06,5.53Zm-3.95,2.89c.33-.26,.55-.67,.65-1.24,.09-.5,0-.87-.24-1.11-.25-.24-.59-.36-1.03-.36s-.8,.13-1.13,.41c-.33,.27-.54,.62-.61,1.06-.08,.48-.02,.88,.18,1.18,.21,.3,.54,.46,.98,.46s.85-.13,1.19-.39Z"/>
        <path class="cls-3" d="M60.98,6.27c-.34,1.91-.63,3.75-.89,5.53h-3.16l.34-1.71c-.38,.64-.86,1.1-1.42,1.4s-1.2,.45-1.9,.45c-.61,0-1.12-.17-1.54-.53-.42-.35-.72-.83-.88-1.43-.16-.6-.18-1.26-.06-1.98,.12-.71,.38-1.38,.76-2.01,.38-.63,.85-1.14,1.41-1.52,.56-.38,1.15-.58,1.77-.58,.73,0,1.32,.15,1.79,.46,.46,.31,.77,.78,.9,1.43,.09-.54,.23-1.41,.4-2.6,.17-1.16,.29-1.97,.37-2.45h3.16c-.37,1.76-.72,3.61-1.06,5.53Zm-3.95,2.89c.33-.26,.55-.67,.65-1.24,.09-.5,0-.87-.24-1.11-.25-.24-.59-.36-1.03-.36s-.8,.13-1.13,.41c-.33,.27-.54,.62-.61,1.06-.08,.48-.02,.88,.18,1.18,.21,.3,.54,.46,.98,.46s.85-.13,1.19-.39Z"/>
        <path class="cls-3" d="M66.07,8.73c-.25,1.41-.42,2.44-.51,3.07h-3.3l.3-1.61c.33-1.76,.58-3.12,.75-4.08,.16-.91,.38-2.2,.65-3.87l.26-1.54h3.3c-.26,1.35-.46,2.45-.61,3.3-.17,.95-.29,1.65-.36,2.1-.11,.57-.27,1.44-.48,2.62Z"/>
        <path class="cls-3" d="M75.76,8.25h-4.56c0,.42,.13,.76,.37,1.02,.25,.26,.64,.39,1.18,.39,.39,0,.77-.08,1.15-.24,.37-.16,.69-.38,.94-.66,.57,.31,1.34,.65,2.31,1.01-.41,.66-1.02,1.19-1.85,1.58-.83,.39-1.86,.59-3.08,.59-1.59,0-2.69-.37-3.32-1.12-.63-.74-.84-1.72-.62-2.94,.21-1.18,.76-2.15,1.64-2.89,.89-.74,2.13-1.11,3.72-1.11,.95,0,1.75,.16,2.39,.48,.64,.32,1.1,.77,1.37,1.34,.27,.57,.34,1.23,.21,1.97-.04,.25-.09,.43-.13,.55h-1.74Zm-3.49-1.93c-.33,.18-.58,.43-.76,.74h3.3c-.06-.3-.2-.55-.42-.73-.22-.19-.53-.28-.93-.28-.47,0-.87,.09-1.2,.27Z"/>
      </g>
    </g>
  </g>
</svg>