<?xml version="1.0" encoding="UTF-8"?>
<svg id="_圖層_2" data-name="圖層 2" xmlns="http://www.w3.org/2000/svg" xmlns:xlink="http://www.w3.org/1999/xlink" viewBox="0 0 168.81 86.32">
  <defs>
    <style>
      .cls-1 {
        fill: url(#_未命名漸層_254-2);
      }

      .cls-1, .cls-2 {
        stroke: #faf9db;
        stroke-miterlimit: 10;
        stroke-width: 2px;
      }

      .cls-3 {
        fill: #6fa0d3;
      }

      .cls-2 {
        fill: url(#_未命名漸層_254);
      }
    </style>
    <linearGradient id="_未命名漸層_254" data-name="未命名漸層 254" x1="39.01" y1="85.14" x2="39.01" y2="26.65" gradientUnits="userSpaceOnUse">
      <stop offset="0" stop-color="#045e9e"/>
      <stop offset="1" stop-color="#a1d6f6"/>
    </linearGradient>
    <linearGradient id="_未命名漸層_254-2" data-name="未命名漸層 254" x1="128.9" y1="84.38" x2="128.9" xlink:href="#_未命名漸層_254"/>
  </defs>
  <g id="_素材" data-name="素材">
    <g>
      <g>
        <path class="cls-2" d="M73.16,58c.04,2.86-.05,5.18-.26,6.93-.21,1.76-.55,3.97-1.02,6.63-.63,3.57-2.19,6.43-4.67,8.59-2.48,2.16-5.42,3.42-8.79,3.77-1.56,.15-3.63,.23-6.2,.23s-5.16-.08-8.05-.23c-2.46-.1-4.15-.51-5.09-1.24-.94-.73-1.33-2.05-1.19-3.96-5.79,1.41-15.28,3.17-28.47,5.27l-6.66,1.13c-.05-3.92-.15-7.11-.28-9.57-.14-2.46-.54-5-1.22-7.61,8.01-.55,13.81-1,17.38-1.36l2.43-13.79H5.05l2.79-15.83H23.88l1.81-10.25h16.77l-6.58,37.31c.72-.15,2.29-.5,4.71-1.05l6.41-36.33h15.59l-1.67,9.5c4.13-.7,9.41-1.76,15.85-3.17-.9,5.68-1.07,10.68-.49,15l-8.37,1.58-9.67,1.81-2.8,15.9c-.07,.4-.02,.68,.15,.83,.17,.15,.65,.23,1.44,.23,1.09,0,1.84-.06,2.26-.19,.42-.12,.65-.31,.69-.56,.67-4.07,.74-7.99,.22-11.76,2.33,.8,6.66,1.53,12.97,2.18Z"/>
        <path class="cls-1" d="M94.67,58.08h35.33l-4.64,26.3h-13.95l.13-.75h-7.35l-.13,.75h-14.03l4.64-26.3Zm39.17-16.73h-3.12l-.93,3.17h4.38l-2.03,11.53h-38.22l2.03-11.53h4.23l.04-3.17h-2.82l2.13-12.06h10.09l.47-2.64h15.51l-.47,2.64h10.84l-2.13,12.06Zm-20.33,31.13l.74-4.22h-7.35l-.74,4.22h7.35Zm4.38-31.13h-4.53l-.26,3.17h3.86l.93-3.17Zm49.88-2.56c-3.53,6.53-6.25,11.3-8.17,14.32,2.58,5.02,3.5,9.6,2.78,13.72-.81,4.57-2.65,8.08-5.53,10.51-2.88,2.44-6.44,3.61-10.67,3.5,.2-4.77-.15-8.54-1.05-11.3l-2.56,14.55h-14.33l9.93-56.3h27.68l1.92,11Zm-22.16,28.04c1.74-.6,2.76-1.78,3.07-3.54,.28-1.61-.18-3.59-1.4-5.95l-1.67,9.5Zm4.64-26.3l-1.61,9.12c2.43-3.67,3.88-6.71,4.35-9.12h-2.75Z"/>
      </g>
      <g>
        <path class="cls-3" d="M29.24,.78c-.35,1.6-.68,3.32-1,5.15-.32,1.84-.6,3.56-.81,5.16h-5.01l-2.02-7.76-1.12,7.76h-3.6c.4-1.84,.74-3.56,1.02-5.16,.28-1.59,.55-3.31,.79-5.15h5.15l2,7.98,1.17-7.98h3.43Z"/>
        <path class="cls-3" d="M30.75,10.11c-.62-.74-.82-1.72-.61-2.94,.21-1.18,.75-2.15,1.64-2.89,.88-.74,2.12-1.11,3.72-1.11,1.07,0,1.94,.18,2.6,.53,.66,.36,1.11,.83,1.35,1.44,.24,.6,.29,1.28,.16,2.03-.22,1.22-.79,2.2-1.72,2.94-.93,.74-2.2,1.11-3.81,1.11s-2.7-.37-3.32-1.12Zm5.24-1.74c.35-.29,.57-.69,.66-1.18,.08-.46,0-.85-.25-1.14-.25-.3-.67-.45-1.28-.45s-1.08,.15-1.41,.44c-.33,.29-.54,.68-.62,1.15-.09,.49-.02,.89,.21,1.18,.23,.29,.65,.44,1.25,.44s1.09-.15,1.44-.44Z"/>
        <path class="cls-3" d="M45.19,5.43c.65-1.43,1.75-2.15,3.31-2.15,.27,0,.53,.02,.77,.06l-1.01,3.18c-.63-.26-1.16-.38-1.58-.38-.53,0-.95,.16-1.26,.48-.31,.32-.51,.75-.61,1.29h0s-.18,.92-.18,.92c-.12,.67-.23,1.42-.34,2.25h-3.35c.32-1.37,.58-2.65,.79-3.87,.21-1.21,.41-2.51,.57-3.9,.61,.03,1.08,.04,1.41,.04,.35,0,.82-.01,1.42-.04l.05,2.1Z"/>
        <path class="cls-3" d="M57.34,5.87c-.85-.06-1.63-.1-2.33-.13l-.28,1.51c-.09,.51-.05,.91,.12,1.2,.17,.29,.53,.43,1.09,.43,.21,0,.42-.02,.63-.06-.1,.35-.18,.71-.24,1.07-.03,.17-.09,.56-.18,1.17-.42,.08-.78,.12-1.06,.14s-.65,.03-1.1,.03c-1.09,0-1.82-.27-2.18-.8-.36-.54-.45-1.28-.28-2.24l.44-2.4c-.44,.02-.9,.05-1.39,.09l.44-2.52c.49,0,.92-.16,1.32-.47s.66-.69,.8-1.12h3.81c-.59,.66-1.21,1.19-1.86,1.59h2.7l-.44,2.52Z"/>
        <path class="cls-3" d="M63.77,11.09c.3-1.39,.56-2.68,.76-3.85,.07-.42,.03-.75-.13-1-.16-.25-.39-.37-.7-.37-.33,0-.63,.16-.92,.48-.29,.32-.48,.76-.58,1.32v-.03c-.28,1.54-.47,2.69-.56,3.44h-3.35c.32-1.37,.68-3.21,1.09-5.54s.7-4.18,.87-5.54h3.33l-.76,4.38-.15,.75c.34-.66,.76-1.15,1.26-1.47,.5-.32,1.03-.48,1.59-.48s1.02,.13,1.39,.38c.37,.25,.62,.59,.75,1.02,.13,.43,.15,.9,.06,1.44l-.36,2.05c-.22,1.26-.38,2.27-.46,3.03h-3.15Z"/>
      </g>
    </g>
  </g>
</svg>