<?xml version="1.0" encoding="UTF-8"?>
<svg id="_圖層_2" data-name="圖層 2" xmlns="http://www.w3.org/2000/svg" xmlns:xlink="http://www.w3.org/1999/xlink" viewBox="0 0 169.33 81.09">
  <defs>
    <style>
      .cls-1 {
        fill: url(#_未命名漸層_254-2);
      }

      .cls-1, .cls-2 {
        stroke: #faf9db;
        stroke-miterlimit: 10;
        stroke-width: 2px;
      }

      .cls-3 {
        fill: #6fa0d3;
      }

      .cls-2 {
        fill: url(#_未命名漸層_254);
      }
    </style>
    <linearGradient id="_未命名漸層_254" data-name="未命名漸層 254" x1="40.19" y1="80.09" x2="40.19" y2="22.14" gradientUnits="userSpaceOnUse">
      <stop offset="0" stop-color="#045e9e"/>
      <stop offset="1" stop-color="#a1d6f6"/>
    </linearGradient>
    <linearGradient id="_未命名漸層_254-2" data-name="未命名漸層 254" x1="129.42" x2="129.42" y2="22.36" xlink:href="#_未命名漸層_254"/>
  </defs>
  <g id="_素材" data-name="素材">
    <g>
      <g>
        <path class="cls-2" d="M77.23,35.25h-26.05l-.23,1.28h25.24l-5.7,32.33c-.52,2.96-1.3,5.19-2.33,6.67-1.03,1.48-2.54,2.5-4.55,3.05-2,.55-4.93,.83-8.79,.83-2.33,0-4.15-.02-5.48-.08,.37-2.36,.63-4.7,.79-7.01h-6.83l-1.32,7.46h-13.66l1.32-7.46h-9.13l1.82-10.33h9.13l.23-1.28h-9.13l1.54-8.74h3.12c-.18-.65-.41-1.63-.67-2.94l11.67-1.36c.08,.96,.3,2.39,.65,4.3h2.38c1.03-1.91,1.75-3.34,2.17-4.3l11.19,1.36c-.73,1.31-1.29,2.29-1.71,2.94h3.12l-1.54,8.74h-9.13l-.23,1.28h9.13l-1.1,6.26c.6-.05,1.02-.31,1.25-.79,.23-.48,.46-1.37,.69-2.68l3.08-17.49H23.67l-5.78,32.79H1.19l7.68-43.56h25.75l.23-1.28H8.8l1.95-11.08h26.05l.36-2.04h16.33l-.36,2.04h26.05l-1.95,11.08Z"/>
        <path class="cls-1" d="M95.19,53.79h35.33l-4.64,26.3h-13.95l.13-.75h-7.35l-.13,.75h-14.03l4.64-26.3Zm39.17-16.73h-3.12l-.93,3.17h4.38l-2.03,11.53h-38.22l2.03-11.53h4.23l.04-3.17h-2.82l2.13-12.06h10.09l.47-2.64h15.51l-.47,2.64h10.84l-2.13,12.06Zm-20.33,31.13l.74-4.22h-7.35l-.74,4.22h7.35Zm4.38-31.13h-4.53l-.26,3.17h3.86l.93-3.17Zm49.88-2.56c-3.53,6.53-6.25,11.3-8.17,14.32,2.58,5.02,3.5,9.6,2.78,13.72-.81,4.57-2.65,8.08-5.53,10.51-2.88,2.44-6.44,3.61-10.67,3.5,.2-4.77-.15-8.54-1.05-11.3l-2.56,14.55h-14.33l9.93-56.3h27.68l1.92,11Zm-22.16,28.04c1.74-.6,2.76-1.78,3.07-3.54,.28-1.61-.18-3.59-1.4-5.95l-1.67,9.5Zm4.64-26.3l-1.61,9.12c2.43-3.67,3.88-6.71,4.35-9.12h-2.75Z"/>
      </g>
      <g>
        <path class="cls-3" d="M20.92,8.52c.28-.42,.57-.9,.86-1.45,.59,.39,1.31,.69,2.15,.91,.84,.22,1.64,.33,2.39,.33s1.33-.07,1.68-.21c.34-.14,.53-.29,.55-.45,.1-.58-.71-.87-2.45-.87-1.9,0-3.25-.2-4.04-.6-.79-.4-1.1-1.05-.94-1.96,.23-1.28,.91-2.22,2.07-2.83,1.15-.61,2.56-.91,4.23-.91,.97,0,1.94,.13,2.92,.38,.98,.25,1.84,.59,2.58,1.03-.38,.63-.8,1.39-1.26,2.29-.09,.19-.16,.33-.21,.43-.41-.39-1.07-.71-1.98-.97-.92-.26-1.74-.39-2.48-.39-.89,0-1.5,.06-1.82,.18-.33,.12-.51,.29-.55,.52-.04,.23,.14,.41,.54,.55,.4,.14,1,.21,1.8,.21,1.98,0,3.38,.23,4.19,.69,.81,.46,1.14,1.16,.97,2.11-.23,1.33-.88,2.28-1.93,2.86s-2.55,.87-4.48,.87c-1.04,0-2.07-.12-3.1-.35-1.03-.23-1.94-.57-2.72-1.02,.4-.48,.75-.93,1.03-1.35Z"/>
        <path class="cls-3" d="M34.82,10.11c-.62-.74-.82-1.72-.61-2.94,.21-1.18,.75-2.15,1.64-2.89,.88-.74,2.12-1.11,3.72-1.11,1.07,0,1.94,.18,2.6,.53,.66,.36,1.11,.83,1.35,1.44,.24,.6,.29,1.28,.16,2.03-.22,1.22-.79,2.2-1.72,2.94-.93,.74-2.2,1.11-3.81,1.11s-2.7-.37-3.32-1.12Zm5.24-1.74c.35-.29,.57-.69,.66-1.18,.08-.46,0-.85-.25-1.14-.25-.3-.67-.45-1.28-.45s-1.08,.15-1.41,.44c-.33,.29-.54,.68-.62,1.15-.09,.49-.02,.89,.21,1.18,.23,.29,.65,.44,1.25,.44s1.09-.15,1.44-.44Z"/>
        <path class="cls-3" d="M54.21,7.19c-.25,1.39-.44,2.69-.59,3.9-.59-.03-1.06-.04-1.41-.04-.33,0-.8,.01-1.42,.04l-.04-2.09c-.35,.76-.78,1.32-1.3,1.68-.52,.36-1.09,.55-1.69,.55-.56,0-1.02-.13-1.39-.38-.37-.25-.62-.59-.75-1.02-.13-.43-.16-.9-.06-1.44l.36-2.05c.22-1.26,.38-2.27,.46-3.03h3.15c-.3,1.39-.57,2.77-.81,4.14-.07,.42-.03,.75,.13,.99,.16,.25,.39,.37,.7,.37,.29,0,.57-.13,.83-.39,.27-.26,.46-.62,.59-1.07l.06-.33c.15-.74,.25-1.25,.3-1.54,.12-.65,.22-1.38,.33-2.18h3.35c-.28,1.19-.54,2.48-.78,3.87Z"/>
        <path class="cls-3" d="M63.05,5.87c-.85-.06-1.63-.1-2.33-.13l-.28,1.51c-.09,.51-.05,.91,.12,1.2,.17,.29,.53,.43,1.09,.43,.21,0,.42-.02,.63-.06-.1,.35-.18,.71-.24,1.07-.03,.17-.09,.56-.18,1.17-.42,.08-.78,.12-1.06,.14s-.65,.03-1.1,.03c-1.09,0-1.82-.27-2.18-.8-.36-.54-.45-1.28-.28-2.24l.44-2.4c-.44,.02-.9,.05-1.39,.09l.44-2.52c.49,0,.92-.16,1.32-.47s.66-.69,.8-1.12h3.81c-.59,.66-1.21,1.19-1.86,1.59h2.7l-.44,2.52Z"/>
        <path class="cls-3" d="M69.48,11.09c.3-1.39,.56-2.68,.76-3.85,.07-.42,.03-.75-.13-1-.16-.25-.39-.37-.7-.37-.33,0-.63,.16-.92,.48-.29,.32-.48,.76-.58,1.32v-.03c-.28,1.54-.47,2.69-.56,3.44h-3.35c.32-1.37,.68-3.21,1.09-5.54s.7-4.18,.87-5.54h3.33l-.76,4.38-.15,.75c.34-.66,.76-1.15,1.26-1.47,.5-.32,1.03-.48,1.59-.48s1.02,.13,1.39,.38c.37,.25,.62,.59,.75,1.02,.13,.43,.15,.9,.06,1.44l-.36,2.05c-.22,1.26-.38,2.27-.46,3.03h-3.15Z"/>
      </g>
    </g>
  </g>
</svg>