<?xml version="1.0" encoding="UTF-8"?>
<svg id="_圖層_2" data-name="圖層 2" xmlns="http://www.w3.org/2000/svg" xmlns:xlink="http://www.w3.org/1999/xlink" viewBox="0 0 351.69 93.23">
  <defs>
    <style>
      .cls-1 {
        fill: url(#_未命名漸層_229-3);
      }

      .cls-1, .cls-2, .cls-3, .cls-4, .cls-5 {
        stroke: #fff;
      }

      .cls-1, .cls-2, .cls-4, .cls-5 {
        stroke-width: 2px;
      }

      .cls-6, .cls-3 {
        fill: #fff;
      }

      .cls-2 {
        fill: url(#_未命名漸層_229-4);
      }

      .cls-3 {
        stroke-width: 3px;
      }

      .cls-4 {
        fill: url(#_未命名漸層_229);
      }

      .cls-7 {
        fill: #ed1e79;
      }

      .cls-5 {
        fill: url(#_未命名漸層_229-2);
      }
    </style>
    <linearGradient id="_未命名漸層_229" data-name="未命名漸層 229" x1="40.76" y1="90.09" x2="40.76" y2="33.24" gradientUnits="userSpaceOnUse">
      <stop offset="0" stop-color="#7900e3"/>
      <stop offset="1" stop-color="#ed4790"/>
    </linearGradient>
    <linearGradient id="_未命名漸層_229-2" data-name="未命名漸層 229" x1="130.31" y1="90.39" x2="130.31" y2="33.16" xlink:href="#_未命名漸層_229"/>
    <linearGradient id="_未命名漸層_229-3" data-name="未命名漸層 229" x1="217.95" y1="90.46" x2="217.95" y2="33.61" xlink:href="#_未命名漸層_229"/>
    <linearGradient id="_未命名漸層_229-4" data-name="未命名漸層 229" x1="306.68" y1="91.5" x2="306.68" y2="35.17" xlink:href="#_未命名漸層_229"/>
  </defs>
  <g id="_素材" data-name="素材">
    <g>
      <polygon class="cls-7" points="159.91 14 12.73 14 14.37 0 161.55 0 159.91 14"/>
      <g>
        <path class="cls-3" d="M75.79,62.18h-22.34l-.34,1.93h21.3l-1.96,11.13h-21.3l-.3,1.71h25.53l-2.32,13.14H6.22l2.32-13.14h25.53l.3-1.71H13.07l1.96-11.13h21.3l.34-1.93H14.34l.99-5.64c-.81,.1-2.11,.2-3.91,.3,.34-2.23,.62-4.87,.84-7.94,.22-3.07,.31-5.64,.28-7.72l2.29,.07c2.92,0,6.08-.2,9.49-.59,3.41-.4,6.45-1.01,9.12-1.86,2.41-.74,4.17-1.51,5.3-2.3,1.13-.79,1.91-1.88,2.36-3.27h18.33c-.63,1.34-1.32,2.55-2.05,3.64,8.27,3.07,17.59,4.5,27.96,4.3-.83,2.18-1.72,4.75-2.66,7.72-.94,2.97-1.72,5.62-2.33,7.94-1.7-.2-2.88-.37-3.55-.52l-1.03,5.86Zm-39.26-11.36h20.78c-4.14-1.78-7.61-3.59-10.4-5.42-3.29,2.08-6.75,3.88-10.38,5.42Z"/>
        <path class="cls-3" d="M161.81,62.18h3.64l-4.97,28.2h-17.89l.2-1.11h-26.87l-.2,1.11h-17.89l4.97-28.2h52.4l-2.83-3.71-51.75,2.6c.06-.89,.08-1.58,.07-2.08,.3-5.34,.34-9.52,.13-12.54l9.98-.22,10.17-13.06,20.11,1.26-8.46,11.36,11.56-.3c-1.3-2.42-2.55-5.34-3.73-8.76l16.71-3.41c2.23,4.21,4.74,7.79,7.53,10.76,2.79,2.97,5.51,5.39,8.14,7.27-3.01,2.18-6.69,5.79-11.04,10.84Zm-43.08,11.13l-.6,3.41h26.87l.6-3.41h-26.87Z"/>
        <path class="cls-3" d="M258.51,63.52h-46.31c-.08,.2-.46,.77-1.12,1.71h43.79l-4.45,25.23h-16.85l.1-.59h-22.34l-.1,.59h-16.85l1.61-9.13c-3.6,3.02-6.83,5.22-9.7,6.61,.02-.4,.02-.84,.01-1.34-.01-.49-.01-1.06,0-1.71,.02-3.76-.04-6.77-.19-9.02-.15-2.25-.53-4.02-1.14-5.31,1.81-.74,3.33-1.5,4.56-2.26,1.22-.77,2.45-1.82,3.67-3.15,.37-.4,.81-.94,1.33-1.63h-6.09l2.05-11.65h70.06l-2.05,11.65Zm-13.7-28.8h16.18l-2.67,15.14h-65.91l2.67-15.14h16.18l-.56,3.19h8.31l.76-4.3h16.92l-.76,4.3h8.31l.56-3.19Zm-9.14,43.86l.55-3.12h-22.34l-.55,3.12h22.34Z"/>
        <path class="cls-3" d="M346.95,65.37h-36.07l-.89,1.26h36.15l-1.85,10.46c-.81,4.6-2.5,8.09-5.07,10.46-2.57,2.38-6.43,3.56-11.58,3.56,.4-3.96,.33-7.35-.21-10.17-2.12,3.86-4.99,7.37-8.61,10.54-2.73-1.09-5.05-1.89-6.96-2.41-1.91-.52-4.14-.73-6.68-.63,3.5-2.47,6.33-4.74,8.47-6.79,2.14-2.05,3.83-4.04,5.06-5.97h-1.86c-2.12,2.77-4.69,5.39-7.7,7.87-3.01,2.47-6.88,4.92-11.61,7.35-1.71-1.24-3.42-2.24-5.11-3-1.7-.77-4.01-1.37-6.95-1.82,8.71-3.36,15.06-6.83,19.05-10.39h-2.23c-2,1.78-4.05,3.32-6.16,4.6-.35-2.52-.84-4.65-1.47-6.38-.65,2.82-1.2,5.57-1.68,8.24-2.29,.94-5.37,1.92-9.24,2.93-3.87,1.01-7.28,1.79-10.25,2.34,.56-4.85,.82-9.97,.78-15.36,1.1-.05,2.31-.2,3.64-.45l2.12-12.02h-3.12l2.45-13.88h3.12l1.85-10.47h14.18l-1.85,10.47h3.34l-2.04,11.58h50.4l-1.43,8.09Zm-48.69,0h-3.04l1.02-5.79h-2l-1.6,9.06,3.51-.97c.97-.99,1.67-1.75,2.11-2.3Zm5.03-30.21h46.61l-3.68,20.86h-46.61l3.68-20.86Zm13.12,12.69l-.22,1.26h15.96l.22-1.26h-15.96Zm16.74-4.45l.22-1.26h-15.96l-.22,1.26h15.96Zm-2.72,35.18c.23-.2,.4-.64,.5-1.34,.1-.69,.18-1.21,.24-1.56h-1.34c-.36,.89-.82,1.96-1.38,3.19,1.09,0,1.75-.1,1.98-.3Z"/>
      </g>
      <g>
        <path class="cls-4" d="M70.76,62.18h-22.34l-.34,1.93h21.3l-1.96,11.13h-21.3l-.3,1.71h25.53l-2.32,13.14H1.19l2.32-13.14H29.04l.3-1.71H8.04l1.96-11.13H31.3l.34-1.93H9.3l.99-5.64c-.81,.1-2.11,.2-3.91,.3,.34-2.23,.62-4.87,.84-7.94,.22-3.07,.31-5.64,.28-7.72l2.29,.07c2.92,0,6.08-.2,9.49-.59,3.41-.4,6.45-1.01,9.12-1.86,2.41-.74,4.17-1.51,5.3-2.3,1.13-.79,1.91-1.88,2.36-3.27h18.33c-.63,1.34-1.32,2.55-2.05,3.64,8.27,3.07,17.59,4.5,27.96,4.3-.83,2.18-1.72,4.75-2.66,7.72-.94,2.97-1.72,5.62-2.33,7.94-1.7-.2-2.88-.37-3.55-.52l-1.03,5.86Zm-39.26-11.36h20.78c-4.14-1.78-7.61-3.59-10.4-5.42-3.29,2.08-6.75,3.88-10.38,5.42Z"/>
        <path class="cls-5" d="M156.78,62.18h3.64l-4.97,28.2h-17.89l.2-1.11h-26.87l-.2,1.11h-17.89l4.97-28.2h52.4l-2.83-3.71-51.75,2.6c.06-.89,.08-1.58,.07-2.08,.3-5.34,.34-9.52,.13-12.54l9.98-.22,10.17-13.06,20.11,1.26-8.46,11.36,11.56-.3c-1.3-2.42-2.55-5.34-3.73-8.76l16.71-3.41c2.23,4.21,4.74,7.79,7.53,10.76,2.79,2.97,5.51,5.39,8.14,7.27-3.01,2.18-6.69,5.79-11.04,10.84Zm-43.08,11.13l-.6,3.41h26.87l.6-3.41h-26.87Z"/>
        <path class="cls-1" d="M253.48,63.52h-46.31c-.08,.2-.46,.77-1.12,1.71h43.79l-4.45,25.23h-16.85l.1-.59h-22.34l-.1,.59h-16.85l1.61-9.13c-3.6,3.02-6.83,5.22-9.7,6.61,.02-.4,.02-.84,.01-1.34-.01-.49-.01-1.06,0-1.71,.02-3.76-.04-6.77-.19-9.02-.15-2.25-.53-4.02-1.14-5.31,1.81-.74,3.33-1.5,4.56-2.26,1.22-.77,2.45-1.82,3.67-3.15,.37-.4,.81-.94,1.33-1.63h-6.09l2.05-11.65h70.06l-2.05,11.65Zm-13.7-28.8h16.18l-2.67,15.14h-65.91l2.67-15.14h16.18l-.56,3.19h8.31l.76-4.3h16.92l-.76,4.3h8.31l.56-3.19Zm-9.14,43.86l.55-3.12h-22.34l-.55,3.12h22.34Z"/>
        <path class="cls-2" d="M341.92,65.37h-36.07l-.89,1.26h36.15l-1.85,10.46c-.81,4.6-2.5,8.09-5.07,10.46-2.57,2.38-6.43,3.56-11.58,3.56,.4-3.96,.33-7.35-.21-10.17-2.12,3.86-4.99,7.37-8.61,10.54-2.73-1.09-5.05-1.89-6.96-2.41-1.91-.52-4.14-.73-6.68-.63,3.5-2.47,6.33-4.74,8.47-6.79,2.14-2.05,3.83-4.04,5.06-5.97h-1.86c-2.12,2.77-4.69,5.39-7.7,7.87-3.01,2.47-6.88,4.92-11.61,7.35-1.71-1.24-3.42-2.24-5.11-3-1.7-.77-4.01-1.37-6.95-1.82,8.71-3.36,15.06-6.83,19.05-10.39h-2.23c-2,1.78-4.05,3.32-6.16,4.6-.35-2.52-.84-4.65-1.47-6.38-.65,2.82-1.2,5.57-1.68,8.24-2.29,.94-5.37,1.92-9.24,2.93-3.87,1.01-7.28,1.79-10.25,2.34,.56-4.85,.82-9.97,.78-15.36,1.1-.05,2.31-.2,3.64-.45l2.12-12.02h-3.12l2.45-13.88h3.12l1.85-10.47h14.18l-1.85,10.47h3.34l-2.04,11.58h50.4l-1.43,8.09Zm-48.69,0h-3.04l1.02-5.79h-2l-1.6,9.06,3.51-.97c.97-.99,1.67-1.75,2.11-2.3Zm5.03-30.21h46.61l-3.68,20.86h-46.61l3.68-20.86Zm13.12,12.69l-.22,1.26h15.96l.22-1.26h-15.96Zm16.74-4.45l.22-1.26h-15.96l-.22,1.26h15.96Zm-2.72,35.18c.23-.2,.4-.64,.5-1.34,.1-.69,.18-1.21,.24-1.56h-1.34c-.36,.89-.82,1.96-1.38,3.19,1.09,0,1.75-.1,1.98-.3Z"/>
      </g>
      <g>
        <path class="cls-6" d="M19.13,11.42c-.84-.9-1.11-2.17-.82-3.84,.29-1.67,1.03-2.99,2.2-3.96,1.17-.97,2.81-1.46,4.92-1.46,2.95,0,4.75,1.01,5.39,3.04-.89,.29-1.95,.72-3.18,1.3-.18-.52-.54-.91-1.08-1.16-.54-.25-1.11-.38-1.72-.38-.9,0-1.6,.24-2.13,.71-.52,.47-.84,1.05-.97,1.74-.13,.75,0,1.36,.38,1.83s1.07,.71,2.04,.71c.77,0,1.41-.13,1.92-.38,.5-.26,.91-.67,1.23-1.23,.69,.41,1.59,.87,2.69,1.39-.67,1.13-1.58,1.92-2.75,2.37-1.17,.45-2.4,.67-3.69,.67-2.11,0-3.58-.45-4.42-1.34Z"/>
        <path class="cls-6" d="M35.48,9.6c-.25,1.39-.41,2.4-.5,3.02h-3.3l.29-1.58c.32-1.74,.57-3.08,.74-4.02,.16-.9,.37-2.17,.64-3.81l.25-1.51h3.3c-.25,1.33-.45,2.41-.6,3.25-.16,.93-.28,1.62-.35,2.07-.11,.56-.26,1.42-.47,2.58Z"/>
        <path class="cls-6" d="M37.39,12.62c.33-1.5,.58-2.74,.76-3.72,.21-1.17,.4-2.47,.58-3.92h3.36c-.32,1.39-.59,2.7-.8,3.92-.18,1.03-.37,2.27-.56,3.72h-3.33Zm1.89-8.9c-.23-.29-.31-.67-.23-1.13,.08-.46,.29-.84,.63-1.13,.34-.3,.8-.45,1.39-.45s.96,.15,1.21,.46c.25,.3,.33,.68,.25,1.13-.08,.47-.29,.84-.63,1.13-.34,.29-.8,.43-1.38,.43s-1-.14-1.23-.43Z"/>
        <path class="cls-6" d="M53.92,12.62c.29-1.22,.55-2.49,.78-3.79,.07-.42,.03-.75-.14-.99s-.43-.36-.77-.36c-.32,0-.62,.14-.89,.42-.28,.28-.46,.69-.56,1.22h0c-.29,1.64-.47,2.81-.55,3.5h-3.15c.3-1.37,.55-2.64,.75-3.79,.07-.41,.03-.74-.13-.98-.16-.24-.39-.36-.7-.36-.33,0-.62,.14-.89,.41-.27,.28-.46,.65-.58,1.13-.14,.71-.24,1.21-.29,1.51-.11,.63-.22,1.33-.31,2.09h-3.35c.31-1.34,.57-2.61,.78-3.81,.21-1.19,.4-2.47,.56-3.84,.61,.03,1.08,.04,1.41,.04,.35,0,.82-.01,1.42-.04l.05,2.07c.35-.76,.79-1.31,1.32-1.67,.53-.36,1.1-.54,1.7-.54,.73,0,1.29,.2,1.68,.6s.59,.92,.58,1.57c.33-.66,.78-1.19,1.36-1.58,.57-.39,1.18-.59,1.83-.59,.84,0,1.45,.28,1.82,.85,.38,.56,.48,1.34,.31,2.32l-.41,2.32c-.19,1.06-.31,1.82-.38,2.3h-3.26Z"/>
        <path class="cls-6" d="M68.51,5.4c.42,.38,.72,.88,.88,1.5,.16,.62,.18,1.28,.06,1.98-.13,.71-.38,1.36-.75,1.95-.38,.59-.84,1.06-1.38,1.41-.55,.35-1.12,.52-1.73,.52-.71,0-1.3-.15-1.77-.45-.47-.3-.78-.78-.92-1.44l-.71,1.75h-2.69c.37-1.75,.71-3.57,1.04-5.45,.33-1.89,.63-3.71,.88-5.45h3.16l-.35,1.72c-.26,1.21-.47,2.3-.64,3.25,.36-.63,.83-1.1,1.4-1.41,.57-.3,1.22-.46,1.95-.46,.62,0,1.15,.19,1.57,.57Zm-2.84,4.56c.31-.3,.51-.69,.6-1.16,.08-.43,0-.78-.24-1.04-.24-.27-.57-.4-.99-.4-.21,0-.45,.05-.7,.15-.25,.1-.48,.26-.69,.48-.21,.22-.34,.49-.4,.82-.1,.58-.04,.99,.17,1.24,.22,.25,.58,.37,1.1,.37,.45,0,.83-.15,1.14-.45Z"/>
        <path class="cls-6" d="M71.2,12.62c.33-1.5,.58-2.74,.76-3.72,.21-1.17,.4-2.47,.58-3.92h3.36c-.32,1.39-.59,2.7-.8,3.92-.18,1.03-.37,2.27-.56,3.72h-3.33Zm1.89-8.9c-.23-.29-.31-.67-.23-1.13,.08-.46,.29-.84,.63-1.13,.34-.3,.8-.45,1.39-.45s.96,.15,1.21,.46c.25,.3,.33,.68,.25,1.13-.08,.47-.29,.84-.63,1.13-.34,.29-.8,.43-1.38,.43s-1-.14-1.23-.43Z"/>
        <path class="cls-6" d="M82.33,12.62c.3-1.37,.55-2.64,.75-3.79,.07-.41,.03-.74-.13-.98-.16-.24-.39-.36-.7-.36s-.59,.14-.86,.41c-.26,.28-.46,.65-.58,1.13-.14,.71-.24,1.21-.29,1.51-.11,.63-.22,1.33-.31,2.09h-3.35c.31-1.34,.57-2.61,.78-3.81,.21-1.19,.4-2.47,.56-3.84,.61,.03,1.08,.04,1.41,.04,.35,0,.82-.01,1.42-.04l.04,2.06c.35-.75,.78-1.3,1.3-1.66s1.08-.54,1.69-.54c.56,0,1.02,.12,1.39,.37,.37,.25,.62,.58,.75,1s.16,.89,.07,1.41l-.36,2.02c-.22,1.24-.37,2.23-.46,2.98h-3.15Z"/>
        <path class="cls-6" d="M95.61,4.98h2.69c-.32,1.53-.72,3.71-1.22,6.52-.2,1.11-.58,2.02-1.15,2.73-.57,.71-1.25,1.23-2.03,1.55-.79,.32-1.63,.48-2.52,.48s-1.66-.13-2.31-.39-1.13-.6-1.41-1.03l1.01-2.14c.45,.29,.89,.5,1.32,.62,.43,.13,.88,.19,1.37,.19,1.59,0,2.5-.67,2.74-2.02,.03-.2,.06-.34,.09-.42,0-.06,.03-.13,.05-.22,.02-.09,.04-.22,.06-.36-.71,1.33-1.83,1.99-3.37,1.99-.63,0-1.15-.17-1.58-.5-.43-.34-.73-.79-.9-1.37-.17-.57-.19-1.21-.07-1.9,.12-.71,.38-1.36,.75-1.95,.38-.59,.84-1.06,1.38-1.41,.55-.35,1.12-.52,1.73-.52,1.58,0,2.51,.56,2.79,1.67l.62-1.53Zm-2.16,5.12c.25-.1,.48-.26,.69-.48s.34-.49,.4-.82c.1-.58,.04-.99-.17-1.24-.22-.25-.58-.37-1.1-.37-.45,0-.83,.15-1.14,.45-.31,.3-.51,.69-.6,1.16-.08,.43,0,.78,.24,1.04,.24,.27,.57,.4,.99,.4,.21,0,.45-.05,.7-.15Z"/>
        <path class="cls-6" d="M109.76,6.82h5.98l-1.02,5.8h-2.46l.14-2.48c-.44,.89-1.05,1.54-1.85,1.97-.79,.43-1.71,.64-2.75,.64-.94,0-1.74-.21-2.4-.63-.66-.42-1.13-1.02-1.4-1.81-.28-.78-.32-1.7-.14-2.74,.29-1.67,1.03-2.99,2.2-3.96,1.17-.97,2.81-1.46,4.92-1.46,1.2,0,2.23,.2,3.08,.59,.85,.39,1.52,1,2.02,1.82-.46,.21-1.35,.64-2.69,1.29l-.38,.2c-.3-.36-.68-.64-1.13-.82-.45-.18-.95-.27-1.49-.27-.9,0-1.6,.24-2.13,.71-.52,.47-.84,1.05-.97,1.74-.13,.75,0,1.35,.39,1.81,.39,.46,1.07,.69,2.04,.69,.42,0,.84-.06,1.26-.18,.42-.12,.79-.33,1.11-.63h-2.73l.4-2.27Z"/>
        <path class="cls-6" d="M127.45,4.98l-.47,.81c-1.3,2.36-2.63,4.64-3.99,6.83-.7,1.12-1.59,2.02-2.66,2.7-1.07,.68-2.32,1-3.76,.97-.04-.77-.08-1.38-.12-1.81-.04-.43-.12-.87-.22-1.31,.49,.12,.96,.18,1.41,.18,.73,0,1.33-.15,1.82-.46-.16-1-.37-2.07-.62-3.22-.26-1.15-.64-2.71-1.16-4.69h3.32c.03,.47,.09,1.01,.18,1.62,.09,.62,.18,1.21,.27,1.78,.02,.18,.07,.45,.13,.8,.06,.36,.11,.66,.14,.9l.56-1.11c1.06-2.02,1.71-3.36,1.95-4h3.22Z"/>
        <path class="cls-6" d="M138.56,12.62c.29-1.22,.55-2.49,.78-3.79,.07-.42,.03-.75-.14-.99s-.43-.36-.77-.36c-.32,0-.62,.14-.89,.42-.28,.28-.46,.69-.56,1.22h0c-.29,1.64-.47,2.81-.55,3.5h-3.15c.3-1.37,.55-2.64,.75-3.79,.07-.41,.03-.74-.13-.98-.16-.24-.39-.36-.7-.36-.33,0-.62,.14-.89,.41-.27,.28-.46,.65-.58,1.13-.14,.71-.24,1.21-.29,1.51-.11,.63-.22,1.33-.31,2.09h-3.35c.31-1.34,.57-2.61,.78-3.81,.21-1.19,.4-2.47,.56-3.84,.61,.03,1.08,.04,1.41,.04,.35,0,.82-.01,1.42-.04l.05,2.07c.35-.76,.79-1.31,1.32-1.67,.53-.36,1.1-.54,1.7-.54,.73,0,1.29,.2,1.68,.6s.59,.92,.58,1.57c.33-.66,.78-1.19,1.36-1.58,.57-.39,1.18-.59,1.83-.59,.84,0,1.45,.28,1.82,.85,.38,.56,.48,1.34,.31,2.32l-.41,2.32c-.19,1.06-.31,1.82-.38,2.3h-3.26Z"/>
      </g>
    </g>
  </g>
</svg>