<?xml version="1.0" encoding="UTF-8"?>
<svg id="_圖層_2" data-name="圖層 2" xmlns="http://www.w3.org/2000/svg" xmlns:xlink="http://www.w3.org/1999/xlink" viewBox="0 0 360.24 88.63">
  <defs>
    <style>
      .cls-1 {
        fill: url(#_未命名漸層_229-3);
      }

      .cls-1, .cls-2, .cls-3, .cls-4, .cls-5 {
        stroke: #fff;
        stroke-width: 2px;
      }

      .cls-6, .cls-4 {
        fill: #fff;
      }

      .cls-2 {
        fill: url(#_未命名漸層_229-4);
      }

      .cls-3 {
        fill: url(#_未命名漸層_229);
      }

      .cls-7 {
        fill: #ed1e79;
      }

      .cls-5 {
        fill: url(#_未命名漸層_229-2);
      }
    </style>
    <linearGradient id="_未命名漸層_229" data-name="未命名漸層 229" x1="40.86" y1="85.63" x2="40.86" y2="27.09" gradientUnits="userSpaceOnUse">
      <stop offset="0" stop-color="#7900e3"/>
      <stop offset="1" stop-color="#ed4790"/>
    </linearGradient>
    <linearGradient id="_未命名漸層_229-2" data-name="未命名漸層 229" x1="132.5" y1="85.71" x2="132.5" y2="27.4" xlink:href="#_未命名漸層_229"/>
    <linearGradient id="_未命名漸層_229-3" data-name="未命名漸層 229" x1="223.16" y1="86.09" x2="223.16" y2="27.32" xlink:href="#_未命名漸層_229"/>
    <linearGradient id="_未命名漸層_229-4" data-name="未命名漸層 229" x1="314.74" y1="86.96" x2="314.74" y2="27.32" xlink:href="#_未命名漸層_229"/>
  </defs>
  <g id="_素材" data-name="素材">
    <g>
      <polygon class="cls-7" points="228.09 14 6.31 14 8.78 0 230.56 0 228.09 14"/>
      <g>
        <path class="cls-4" d="M55.81,70.92l.21,.65c.14,.43,.54,.72,.99,.72h21.22c.65,0,1.14,.58,1.02,1.22l-.53,3.02c-.09,.5-.52,.86-1.02,.86h-20.69c-.48,0-.88,.34-1.01,.8-.47,1.72-1.3,3.12-2.49,4.23-1.37,1.27-3.63,2.23-6.79,2.89-3.16,.66-7.56,.99-13.19,.99-3.84,0-8.96-.36-15.35-1.09-.57-.07-1.02-.57-.96-1.15,.22-2.13-.07-4.14-.87-6.05-.16-.38-.55-.62-.96-.62H5.82c-.65,0-1.14-.58-1.02-1.22l.53-3.02c.09-.5,.52-.86,1.02-.86H39.82c0-.3-.04-.76-.14-1.37H8.49c-.65,0-1.14-.58-1.02-1.22l.09-.5s0-.05,0-.07c.18-2.16,.26-3.97,.23-5.41-.02-1-.15-1.98-.41-2.95-.17-.65,.31-1.29,.98-1.31,8.41-.23,15.1-.77,20.07-1.64H10.26c-.65,0-1.14-.58-1.02-1.22l1.06-5.99c.09-.5,.52-.86,1.02-.86h27.06l.04-.23-3.07-2.53c-.37-.3-.92-.19-1.14,.24l-.15,.3c-.2,.39-.69,.53-1.07,.29-.48-.3-.98-.68-1.49-1.12-.21-.18-.41-.36-.6-.56-.6-.62-1.64-.33-1.79,.52l-.23,1.32c-.09,.5-.52,.86-1.02,.86h-9.43c-.46,0-.82-.42-.73-.88l.09-.5c.12-.68-.65-1.13-1.2-.71-1,.77-2.23,1.46-3.69,2.09-.7,.3-1.48-.24-1.45-.99,.09-2.2-.08-4.14-.49-5.83-.15-.63,.32-1.24,.97-1.27,1.1-.04,2.07-.13,2.9-.28,1.15-.2,2.44-.58,3.86-1.14h-3.56c-.65,0-1.14-.58-1.02-1.22l1.3-7.36c.09-.5,.52-.86,1.02-.86h3.83c.36,0,.67-.26,.73-.62l.09-.52c.06-.36,.37-.62,.73-.62h9.67c.46,0,.82,.42,.73,.88h0c-.08,.46,.27,.88,.73,.88h3.97c.11,0,.22-.02,.32-.05l6.34-2.04c.23-.07,.48-.07,.71,.03l4.85,1.98c.26,.11,.55,.11,.81,0,1.1-.49,2.31-1.09,3.62-1.81,.25-.14,.56-.17,.83-.08l7.63,2.52,.09-.53h5.24c.36,0,.67-.26,.73-.62l.05-.29c.06-.36,.37-.62,.73-.62h10.94l-.27,1.52h3.33c.65,0,1.14,.58,1.02,1.22l-1.3,7.36c-.09,.5-.52,.86-1.02,.86h-3.7v.08c1.16,.56,2.28,.93,3.37,1.1,.65,.11,1.4,.18,2.24,.22,.79,.04,1.25,.88,.86,1.56-1.01,1.75-1.85,3.75-2.53,6.01-.18,.62-.87,.94-1.46,.66-1.12-.53-2.03-1.11-2.73-1.76-.43-.4-1.12-.15-1.22,.42l-.11,.6c-.06,.36-.37,.62-.73,.62h-9.71c-.65,0-1.14-.58-1.02-1.22l.11-.63c.16-.92-.9-1.59-1.64-1.02-.26,.2-.53,.4-.8,.59-1.1,.76-2.09,1.32-2.96,1.67l-.17-1.22-1.4,.8c-.93,.53-.55,1.94,.51,1.94h22.69c.65,0,1.14,.58,1.02,1.22l-1.06,5.99c-.09,.5-.52,.86-1.02,.86h-17.4c5.44,.88,11.38,1.42,17.82,1.62,.81,.03,1.28,.9,.86,1.59-1,1.64-1.87,3.56-2.6,5.77h.15l-.57,3.25c-.09,.5-.52,.86-1.02,.86h-21.58Zm-37.53,6.47c5.96,.76,10.73,1.14,14.34,1.14,3.2,0,5.24-.38,6.14-1.14H18.29Zm20.44-10.58l-.22-.51c-.16-.38-.54-.63-.96-.63h-10.4c-.12,0-.23,.02-.34,.06-.8,.28-1.49,.5-2.09,.66-.64,.18-1.17,.32-1.6,.42h15.6Zm-8.36-27.25c1.92,.61,3.64,1.07,5.16,1.37-.29-.1-.58-.22-.89-.34-.31-.13-.68-.27-1.11-.42l1.82-.84h-4.95l-.04,.23Zm7.85-5.88h0c.96-.24,1.06-1.56,.16-1.96h0c-.62-.27-1.33,.11-1.44,.77h0c-.13,.74,.55,1.37,1.28,1.19Zm-1.16,4.85l.32-.14c.51-.23,.6-.92,.16-1.27l-.26-.21c-.44-.35-1.1-.1-1.2,.45l-.06,.35c-.1,.59,.49,1.05,1.04,.81Zm-.97,5.29c.53-.15,1.71-.51,3.54-1.07l-1.36-.59c-.45-.19-.97-.05-1.25,.34-.24,.33-.55,.77-.92,1.31Zm10.96,15.98c-.73-.42-1.38-.84-1.96-1.26-.34-.25-.79-.26-1.15-.04-.87,.54-1.69,1-2.46,1.37,2.49,0,4.34-.02,5.57-.08Zm2.45-20.47c.22-.08,.45-.17,.69-.26,.86-.33,.91-1.53,.08-1.92l-.53-.25c-.24-.11-.52-.13-.77-.04l-.73,.24c-.9,.3-.96,1.54-.1,1.93l.57,.26c.25,.11,.52,.13,.78,.03Zm.3,8.74l-1.9-1.01c-.26-.14-.56-.16-.83-.06l-3.06,1.07h5.78Zm10.25-15.7s-.04,.02-.06,.03c-.84,.37-.8,1.57,.05,1.91,.02,0,.04,.01,.05,.02,.61,.25,1.29-.13,1.41-.78v-.05c.15-.82-.69-1.47-1.45-1.12Zm6.29,6.95h-4.62c-.65,0-1.14-.58-1.02-1.22v-.08c.16-.82-.66-1.46-1.42-1.13l-.49,.21c-.76,.33-.85,1.37-.15,1.82l2.44,1.59c.24,.16,.55,.21,.83,.14,2-.51,3.48-.93,4.43-1.26v-.08Zm-2.09,27.48c-1.52-.43-2.79-.82-3.82-1.17-.1-.04-.21-.05-.32-.05h-7.75s.69,.84,.69,.84c.2,.24,.49,.38,.8,.38h10.39Zm-5.33-22.45c-.08-.3-.16-.58-.23-.82-.17-.59-.81-.9-1.38-.67l-.69,.27,2.3,1.22Z"/>
        <path class="cls-4" d="M171.94,58.74h-46.27c-.3,0-.57,.15-.73,.4,0,0,0,0,0,.01-.37,.58,.05,1.33,.73,1.33h42.24c.54,0,.95,.49,.85,1.02l-4.26,24.14c-.07,.41-.43,.72-.85,.72h-16.55l.11-.61h-22.91l-.11,.61h-16.24c-.54,0-.95-.49-.85-1.02l1.07-6.05c.14-.79-.77-1.32-1.4-.82-2.98,2.35-5.69,4.12-8.15,5.31,.02-.41,.02-.86,.01-1.37-.01-.51-.01-1.09,0-1.75,.02-3.86-.05-6.94-.2-9.25-.12-1.9-.41-3.47-.86-4.7-.16-.43,.07-.9,.49-1.08,1.51-.65,2.8-1.31,3.88-1.99,1.25-.79,2.51-1.87,3.77-3.24,.38-.41,.83-.96,1.36-1.67h-5.21c-.54,0-.95-.49-.85-1.02l1.8-10.21c.07-.41,.43-.72,.85-.72h70.09c.54,0,.95,.49,.85,1.02l-1.8,10.21c-.07,.41-.43,.72-.85,.72Zm-12.59-29.53h14.83c.54,0,.95,.49,.85,1.02l-2.43,13.79c-.07,.41-.43,.72-.85,.72H105.92c-.54,0-.95-.49-.85-1.02l2.43-13.79c.07-.41,.43-.72,.85-.72h14.83c.54,0,.95,.49,.85,1.02l-.22,1.24c-.09,.53,.32,1.02,.85,1.02h6.76c.42,0,.78-.3,.85-.72l.53-2.98c.07-.41,.43-.72,.85-.72h15.59c.54,0,.95,.49,.85,1.02l-.42,2.38c-.09,.53,.32,1.02,.85,1.02h6.76c.42,0,.78-.3,.85-.72l.32-1.84c.07-.41,.43-.72,.85-.72Zm-9.98,44.27l.26-1.46c.09-.53-.32-1.02-.85-1.02h-21.15c-.42,0-.78,.3-.85,.72l-.26,1.46c-.09,.53,.32,1.02,.85,1.02h21.15c.42,0,.78-.3,.85-.72Z"/>
        <path class="cls-4" d="M257.44,67.96c1.1,.3,2.29,.53,3.56,.68,.39,.05,.66,.41,.6,.8-.64,3.58-1.13,6.1-1.49,7.58-.38,1.57-.9,3.1-1.57,4.57-.57,1.22-1.2,2.12-1.88,2.7s-1.31,.95-1.87,1.1c-.56,.15-1.36,.28-2.39,.38-1.44,.1-2.67,.15-3.68,.15-.61,0-2.33-.05-5.15-.15-1.81-.1-3.02-.63-3.64-1.6-.62-.96-.76-2.36-.44-4.19l1.98-11.23c.07-.42-.25-.8-.67-.8h-.23c-.32,0-.6,.24-.67,.55-.87,4.3-1.75,7.64-2.63,10.03-.87,2.34-2.02,4.96-3.45,7.84-.15,.3-.5,.46-.82,.35-3.61-1.19-7.93-2.29-12.98-3.29-.54-.11-.75-.78-.34-1.16,.78-.73,1.46-1.42,2.04-2.06-2.53,1.37-5.3,2.63-8.31,3.77-2.74,1.04-5.48,1.85-8.2,2.45-.42,.09-.82-.24-.82-.68-.01-1.74-.07-3.37-.17-4.88-.05-.71-1-.88-1.29-.24-.9,1.94-1.97,3.87-3.23,5.8-.18,.27-.52,.38-.83,.26-1.81-.73-3.85-1.42-6.12-2.07-2.03-.58-3.96-1.04-5.78-1.39-.53-.1-.74-.73-.38-1.13,2.23-2.5,3.91-4.67,5.05-6.51,1.15-1.86,2.09-4.12,2.8-6.79,.12-.43-.22-.86-.66-.86h-.59c-.42,0-.74-.38-.67-.8l2.62-14.85c.06-.33,.34-.56,.67-.56h30.74c.42,0,.74,.38,.67,.8l-2.62,14.85c-.06,.33-.34,.56-.67,.56h-4.11c-.33,0-.61,.24-.67,.56l-.26,1.48c-.09,.52,.41,.94,.9,.76,1.1-.41,2.46-.94,4.07-1.59,.48-.2,1,.2,.93,.71-.2,1.38-.34,2.96-.44,4.72-.04,.73,.94,1,1.29,.36,.99-1.81,1.79-3.86,2.38-6.16,.11-.43-.22-.85-.67-.85h-.6c-.42,0-.74-.38-.67-.8l2.62-14.85c.06-.33,.34-.56,.67-.56h33.33c.42,0,.74,.38,.67,.8l-2.62,14.85c-.06,.33-.34,.56-.67,.56h-2.63Zm-31.97-27.17h2.31c.42,0,.74,.38,.67,.8l-1.48,8.38c-.06,.33-.34,.56-.67,.56h-32.34c-.42,0-.74-.38-.67-.8l1.48-8.38c.06-.33,.34-.56,.67-.56h5.36c.41,0,.73-.36,.68-.76l-.02-.16c-.04-.34-.33-.6-.68-.6h-3.61c-.42,0-.74-.38-.67-.8l1.46-8.3c.06-.33,.34-.56,.67-.56h9.06c.33,0,.61-.24,.67-.56l.08-.47c.06-.33,.34-.56,.67-.56h12.17c.42,0,.74,.38,.67,.8h0c-.07,.42,.25,.8,.67,.8h7.05c.42,0,.74,.38,.67,.8l-1.46,8.3c-.06,.33-.34,.56-.67,.56h-1.64c-.27,0-.52,.16-.63,.41l-.47,1.11Zm-13.53,17.74h-3.95c-.33,0-.61,.24-.67,.56l-.08,.47c-.07,.42,.25,.8,.67,.8h3.95c.33,0,.61-.24,.67-.56l.08-.47c.07-.42-.25-.8-.67-.8Zm-5.12,15.63c.28-.05,.49-.27,.54-.55l.99-5.64h-.89c-.32,0-.6,.23-.66,.55-.35,1.71-.75,3.33-1.18,4.86-.14,.48,.27,.93,.76,.86,.17-.02,.31-.05,.45-.07Zm9.03-34.89h-3.42c-.41,0-.73,.36-.68,.76l.02,.16c.04,.34,.33,.6,.68,.6h2.24c.26,0,.5-.15,.61-.39l.54-1.13Zm44.18,1.52h5.51c.42,0,.74,.38,.67,.8l-1.48,8.38c-.06,.33-.34,.56-.67,.56h-35c-.42,0-.74-.38-.67-.8l1.48-8.38c.06-.33,.34-.56,.67-.56h3.77l-.17-.96c-.06-.33-.34-.56-.67-.56h-2.35c-.42,0-.74-.38-.67-.8l1.46-8.3c.06-.33,.34-.56,.67-.56h8.3c.33,0,.61-.24,.67-.56l.08-.47c.06-.33,.34-.56,.67-.56h13.08c.42,0,.74,.38,.67,.8h0c-.07,.42,.25,.8,.67,.8h10.1c.42,0,.74,.38,.67,.8l-1.46,8.3c-.06,.33-.34,.56-.67,.56h-4.17c-.26,0-.5,.15-.61,.39l-.54,1.13Zm-12.46,17.74h-5.47c-.33,0-.61,.24-.67,.56l-.08,.47c-.07,.42,.25,.8,.67,.8h5.47c.33,0,.61-.24,.67-.56l.08-.47c.07-.42-.25-.8-.67-.8Zm2.08-19.26h-3.64c-.41,0-.73,.36-.68,.76l.02,.16c.04,.34,.33,.6,.68,.6h2.47c.26,0,.5-.15,.61-.39l.54-1.13Zm4.37,34.79c.3-1.69,.57-3.46,.82-5.31,.05-.41-.26-.78-.68-.78h-.4c-.33,0-.61,.24-.67,.56l-1.07,6.06c-.04,.25,.31,.38,1.08,.38,.51,0,.81-.3,.92-.91Z"/>
        <path class="cls-4" d="M343.14,87.48c-.17,.12-.38,.17-.59,.14l-4.04-.71c-8.12-1.46-15.96-2.8-23.51-4.01-.09-.01-.18-.01-.26,0-11.92,2.19-21.71,3.71-29.39,4.58-.24,.03-.46-.06-.63-.22-1.87-1.9-4.07-3.82-6.59-5.76-.58-.45-.27-1.38,.47-1.39,9.23-.16,17.46-.73,24.67-1.72h-19.32c-.48,0-.85-.44-.77-.91l2.11-11.99c.03-.17,0-.35-.08-.51-.82-1.56-1.79-2.91-2.91-4.04-.46-.46-.21-1.24,.44-1.32,2.14-.25,4.29-.53,6.47-.83,2.76-.38,5.24-.8,7.45-1.26h-12.54c-.48,0-.85-.44-.77-.91l.79-4.46c.07-.37,.39-.64,.77-.64h17.08l.16-.91h-13.92c-.48,0-.85-.44-.77-.91l.62-3.54c.07-.37,.39-.64,.77-.64h14.19l.15-.84h-13.92c-.48,0-.85-.44-.77-.91l.27-1.52c.08-.48-.28-.91-.77-.91h-.58c-.48,0-.85-.44-.77-.91l1.75-9.94c.07-.37,.39-.64,.77-.64h25.41c.38,0,.7-.27,.77-.64l.1-.54c.07-.37,.39-.64,.77-.64h15.85c.48,0,.85,.44,.77,.91h0c-.08,.48,.28,.91,.77,.91h24.86c.48,0,.85,.44,.77,.91l-1.75,9.94c-.07,.37-.39,.64-.77,.64h-1.05c-.38,0-.7,.27-.77,.64l-.36,2.06c-.07,.37-.39,.64-.77,.64h-14.19l-.15,.84h13.92c.48,0,.85,.44,.77,.91l-.62,3.54c-.07,.37-.39,.64-.77,.64h-14.19l-.16,.91h16.81c.48,0,.85,.44,.77,.91l-.79,4.46c-.07,.37-.39,.64-.77,.64h-12.9c2.1,.46,4.48,.88,7.12,1.26,1.98,.28,3.95,.55,5.92,.79,.69,.09,.93,.96,.37,1.38-1.59,1.2-3.13,2.64-4.61,4.32-.1,.11-.16,.25-.19,.39l-2.13,12.08c-.07,.37-.39,.64-.77,.64h-16.55l20.46,2.05c.74,.07,.97,1.03,.34,1.43-2.58,1.63-5.35,3.5-8.32,5.61Zm-40.62-49.4l-.1,.57c-.08,.48,.28,.91,.77,.91h.25c.38,0,.7-.27,.77-.64l.04-.24c.07-.37,.39-.64,.77-.64h13.81l-.27,1.52h6.81c.38,0,.7-.27,.77-.64l.04-.24c.07-.37,.39-.64,.77-.64h13.81l-.27,1.52h1.1c.38,0,.7-.27,.77-.64l.1-.57c.08-.48-.28-.91-.77-.91h-38.38c-.38,0-.7,.27-.77,.64Zm-.19,26.53h30.4c.38,0,.7-.27,.77-.64l.11-.65h-30.4c-.38,0-.7,.27-.77,.64l-.11,.65Zm30.44,3.5h-30.4c-.38,0-.7,.27-.77,.64l-.11,.65h30.4c.38,0,.7-.27,.77-.64l.11-.65Zm-.85,4.8h-30.4c-.38,0-.7,.27-.77,.64l-.11,.65h30.4c.38,0,.7-.27,.77-.64l.11-.65Zm-16.7-15.38c-.1,0-.2,.02-.3,.06l-4.13,1.69h16.14l-3.49-1.67c-.11-.05-.22-.08-.34-.08h-7.89Zm-3.6,22.31l2.87,1.61c.22,.13,.5,.13,.73,.01,1.11-.56,2.22-1.09,3.33-1.6,.76-.35,.52-1.49-.32-1.49h-6.22c-.8,0-1.08,1.06-.38,1.46Zm13.48-35.18h-7.46l-.15,.84h7.46l.15-.84Zm-1.05,5.94h-7.46l-.16,.91h7.46l.16-.91Z"/>
      </g>
      <g>
        <path class="cls-3" d="M52.03,70.25l.21,.65c.14,.43,.54,.72,.99,.72h21.22c.65,0,1.14,.58,1.02,1.22l-.53,3.02c-.09,.5-.52,.86-1.02,.86h-20.69c-.48,0-.88,.34-1.01,.8-.47,1.72-1.3,3.12-2.49,4.23-1.37,1.27-3.63,2.23-6.79,2.89-3.16,.66-7.56,.99-13.19,.99-3.84,0-8.96-.36-15.35-1.09-.57-.07-1.02-.57-.96-1.15,.22-2.13-.07-4.14-.87-6.05-.16-.38-.55-.62-.96-.62H2.04c-.65,0-1.14-.58-1.02-1.22l.53-3.02c.09-.5,.52-.86,1.02-.86H36.03c0-.3-.04-.76-.14-1.37H4.7c-.65,0-1.14-.58-1.02-1.22l.09-.5s0-.05,0-.07c.18-2.16,.26-3.97,.23-5.41-.02-1-.15-1.98-.41-2.95-.17-.65,.31-1.29,.98-1.31,8.41-.23,15.1-.77,20.07-1.64H6.48c-.65,0-1.14-.58-1.02-1.22l1.06-5.99c.09-.5,.52-.86,1.02-.86h27.06l.04-.23-3.07-2.53c-.37-.3-.92-.19-1.14,.24l-.15,.3c-.2,.39-.69,.53-1.07,.29-.48-.3-.98-.68-1.49-1.12-.21-.18-.41-.36-.6-.56-.6-.62-1.64-.33-1.79,.52l-.23,1.32c-.09,.5-.52,.86-1.02,.86H14.64c-.46,0-.82-.42-.73-.88l.09-.5c.12-.68-.65-1.13-1.2-.71-1,.77-2.23,1.46-3.69,2.09-.7,.3-1.48-.24-1.45-.99,.09-2.2-.08-4.14-.49-5.83-.15-.63,.32-1.24,.97-1.27,1.1-.04,2.07-.13,2.9-.28,1.15-.2,2.44-.58,3.86-1.14h-3.56c-.65,0-1.14-.58-1.02-1.22l1.3-7.36c.09-.5,.52-.86,1.02-.86h3.83c.36,0,.67-.26,.73-.62l.09-.52c.06-.36,.37-.62,.73-.62h9.67c.46,0,.82,.42,.73,.88h0c-.08,.46,.27,.88,.73,.88h3.97c.11,0,.22-.02,.32-.05l6.34-2.04c.23-.07,.48-.07,.71,.03l4.85,1.98c.26,.11,.55,.11,.81,0,1.1-.49,2.31-1.09,3.62-1.81,.25-.14,.56-.17,.83-.08l7.63,2.52,.09-.53h5.24c.36,0,.67-.26,.73-.62l.05-.29c.06-.36,.37-.62,.73-.62h10.94l-.27,1.52h3.33c.65,0,1.14,.58,1.02,1.22l-1.3,7.36c-.09,.5-.52,.86-1.02,.86h-3.7v.08c1.16,.56,2.28,.93,3.37,1.1,.65,.11,1.4,.18,2.24,.22,.79,.04,1.25,.88,.86,1.56-1.01,1.75-1.85,3.75-2.53,6.01-.18,.62-.87,.94-1.46,.66-1.12-.53-2.03-1.11-2.73-1.76-.43-.4-1.12-.15-1.22,.42l-.11,.6c-.06,.36-.37,.62-.73,.62h-9.71c-.65,0-1.14-.58-1.02-1.22l.11-.63c.16-.92-.9-1.59-1.64-1.02-.26,.2-.53,.4-.8,.59-1.1,.76-2.09,1.32-2.96,1.67l-.17-1.22-1.4,.8c-.93,.53-.55,1.94,.51,1.94h22.69c.65,0,1.14,.58,1.02,1.22l-1.06,5.99c-.09,.5-.52,.86-1.02,.86h-17.4c5.44,.88,11.38,1.42,17.82,1.62,.81,.03,1.28,.9,.86,1.59-1,1.64-1.87,3.56-2.6,5.77h.15l-.57,3.25c-.09,.5-.52,.86-1.02,.86h-21.58Zm-37.53,6.47c5.96,.76,10.73,1.14,14.34,1.14,3.2,0,5.24-.38,6.14-1.14H14.5Zm20.44-10.58l-.22-.51c-.16-.38-.54-.63-.96-.63h-10.4c-.12,0-.23,.02-.34,.06-.8,.28-1.49,.5-2.09,.66-.64,.18-1.17,.32-1.6,.42h15.6Zm-8.36-27.25c1.92,.61,3.64,1.07,5.16,1.37-.29-.1-.58-.22-.89-.34-.31-.13-.68-.27-1.11-.42l1.82-.84h-4.95l-.04,.23Zm7.85-5.88h0c.96-.24,1.06-1.56,.16-1.96h0c-.62-.27-1.33,.11-1.44,.77h0c-.13,.74,.55,1.37,1.28,1.19Zm-1.16,4.85l.32-.14c.51-.23,.6-.92,.16-1.27l-.26-.21c-.44-.35-1.1-.1-1.2,.45l-.06,.35c-.1,.59,.49,1.05,1.04,.81Zm-.97,5.29c.53-.15,1.71-.51,3.54-1.07l-1.36-.59c-.45-.19-.97-.05-1.25,.34-.24,.33-.55,.77-.92,1.31Zm10.96,15.98c-.73-.42-1.38-.84-1.96-1.26-.34-.25-.79-.26-1.15-.04-.87,.54-1.69,1-2.46,1.37,2.49,0,4.34-.02,5.57-.08Zm2.45-20.47c.22-.08,.45-.17,.69-.26,.86-.33,.91-1.53,.08-1.92l-.53-.25c-.24-.11-.52-.13-.77-.04l-.73,.24c-.9,.3-.96,1.54-.1,1.93l.57,.26c.25,.11,.52,.13,.78,.03Zm.3,8.74l-1.9-1.01c-.26-.14-.56-.16-.83-.06l-3.06,1.07h5.78Zm10.25-15.7s-.04,.02-.06,.03c-.84,.37-.8,1.57,.05,1.91,.02,0,.04,.01,.05,.02,.61,.25,1.29-.13,1.41-.78v-.05c.15-.82-.69-1.47-1.45-1.12Zm6.29,6.95h-4.62c-.65,0-1.14-.58-1.02-1.22v-.08c.16-.82-.66-1.46-1.42-1.13l-.49,.21c-.76,.33-.85,1.37-.15,1.82l2.44,1.59c.24,.16,.55,.21,.83,.14,2-.51,3.48-.93,4.43-1.26v-.08Zm-2.09,27.48c-1.52-.43-2.79-.82-3.82-1.17-.1-.04-.21-.05-.32-.05h-7.75s.69,.84,.69,.84c.2,.24,.49,.38,.8,.38h10.39Zm-5.33-22.45c-.08-.3-.16-.58-.23-.82-.17-.59-.81-.9-1.38-.67l-.69,.27,2.3,1.22Z"/>
        <path class="cls-5" d="M168.16,58.08h-46.27c-.3,0-.57,.15-.73,.4,0,0,0,0,0,.01-.37,.58,.05,1.33,.73,1.33h42.24c.54,0,.95,.49,.85,1.02l-4.26,24.14c-.07,.41-.43,.72-.85,.72h-16.55l.11-.61h-22.91l-.11,.61h-16.24c-.54,0-.95-.49-.85-1.02l1.07-6.05c.14-.79-.77-1.32-1.4-.82-2.98,2.35-5.69,4.12-8.15,5.31,.02-.41,.02-.86,.01-1.37-.01-.51-.01-1.09,0-1.75,.02-3.86-.05-6.94-.2-9.25-.12-1.9-.41-3.47-.86-4.7-.16-.43,.07-.9,.49-1.08,1.51-.65,2.8-1.31,3.88-1.99,1.25-.79,2.51-1.87,3.77-3.24,.38-.41,.83-.96,1.36-1.67h-5.21c-.54,0-.95-.49-.85-1.02l1.8-10.21c.07-.41,.43-.72,.85-.72h70.09c.54,0,.95,.49,.85,1.02l-1.8,10.21c-.07,.41-.43,.72-.85,.72Zm-12.59-29.53h14.83c.54,0,.95,.49,.85,1.02l-2.43,13.79c-.07,.41-.43,.72-.85,.72H102.13c-.54,0-.95-.49-.85-1.02l2.43-13.79c.07-.41,.43-.72,.85-.72h14.83c.54,0,.95,.49,.85,1.02l-.22,1.24c-.09,.53,.32,1.02,.85,1.02h6.76c.42,0,.78-.3,.85-.72l.53-2.98c.07-.41,.43-.72,.85-.72h15.59c.54,0,.95,.49,.85,1.02l-.42,2.38c-.09,.53,.32,1.02,.85,1.02h6.76c.42,0,.78-.3,.85-.72l.32-1.84c.07-.41,.43-.72,.85-.72Zm-9.98,44.27l.26-1.46c.09-.53-.32-1.02-.85-1.02h-21.15c-.42,0-.78,.3-.85,.72l-.26,1.46c-.09,.53,.32,1.02,.85,1.02h21.15c.42,0,.78-.3,.85-.72Z"/>
        <path class="cls-1" d="M253.65,67.29c1.1,.3,2.29,.53,3.56,.68,.39,.05,.66,.41,.6,.8-.64,3.58-1.13,6.1-1.49,7.58-.38,1.57-.9,3.1-1.57,4.57-.57,1.22-1.2,2.12-1.88,2.7s-1.31,.95-1.87,1.1c-.56,.15-1.36,.28-2.39,.38-1.44,.1-2.67,.15-3.68,.15-.61,0-2.33-.05-5.15-.15-1.81-.1-3.02-.63-3.64-1.6-.62-.96-.76-2.36-.44-4.19l1.98-11.23c.07-.42-.25-.8-.67-.8h-.23c-.32,0-.6,.24-.67,.55-.87,4.3-1.75,7.64-2.63,10.03-.87,2.34-2.02,4.96-3.45,7.84-.15,.3-.5,.46-.82,.35-3.61-1.19-7.93-2.29-12.98-3.29-.54-.11-.75-.78-.34-1.16,.78-.73,1.46-1.42,2.04-2.06-2.53,1.37-5.3,2.63-8.31,3.77-2.74,1.04-5.48,1.85-8.2,2.45-.42,.09-.82-.24-.82-.68-.01-1.74-.07-3.37-.17-4.88-.05-.71-1-.88-1.29-.24-.9,1.94-1.97,3.87-3.23,5.8-.18,.27-.52,.38-.83,.26-1.81-.73-3.85-1.42-6.12-2.07-2.03-.58-3.96-1.04-5.78-1.39-.53-.1-.74-.73-.38-1.13,2.23-2.5,3.91-4.67,5.05-6.51,1.15-1.86,2.09-4.12,2.8-6.79,.12-.43-.22-.86-.66-.86h-.59c-.42,0-.74-.38-.67-.8l2.62-14.85c.06-.33,.34-.56,.67-.56h30.74c.42,0,.74,.38,.67,.8l-2.62,14.85c-.06,.33-.34,.56-.67,.56h-4.11c-.33,0-.61,.24-.67,.56l-.26,1.48c-.09,.52,.41,.94,.9,.76,1.1-.41,2.46-.94,4.07-1.59,.48-.2,1,.2,.93,.71-.2,1.38-.34,2.96-.44,4.72-.04,.73,.94,1,1.29,.36,.99-1.81,1.79-3.86,2.38-6.16,.11-.43-.22-.85-.67-.85h-.6c-.42,0-.74-.38-.67-.8l2.62-14.85c.06-.33,.34-.56,.67-.56h33.33c.42,0,.74,.38,.67,.8l-2.62,14.85c-.06,.33-.34,.56-.67,.56h-2.63Zm-31.97-27.17h2.31c.42,0,.74,.38,.67,.8l-1.48,8.38c-.06,.33-.34,.56-.67,.56h-32.34c-.42,0-.74-.38-.67-.8l1.48-8.38c.06-.33,.34-.56,.67-.56h5.36c.41,0,.73-.36,.68-.76l-.02-.16c-.04-.34-.33-.6-.68-.6h-3.61c-.42,0-.74-.38-.67-.8l1.46-8.3c.06-.33,.34-.56,.67-.56h9.06c.33,0,.61-.24,.67-.56l.08-.47c.06-.33,.34-.56,.67-.56h12.17c.42,0,.74,.38,.67,.8h0c-.07,.42,.25,.8,.67,.8h7.05c.42,0,.74,.38,.67,.8l-1.46,8.3c-.06,.33-.34,.56-.67,.56h-1.64c-.27,0-.52,.16-.63,.41l-.47,1.11Zm-13.53,17.74h-3.95c-.33,0-.61,.24-.67,.56l-.08,.47c-.07,.42,.25,.8,.67,.8h3.95c.33,0,.61-.24,.67-.56l.08-.47c.07-.42-.25-.8-.67-.8Zm-5.12,15.63c.28-.05,.49-.27,.54-.55l.99-5.64h-.89c-.32,0-.6,.23-.66,.55-.35,1.71-.75,3.33-1.18,4.86-.14,.48,.27,.93,.76,.86,.17-.02,.31-.05,.45-.07Zm9.03-34.89h-3.42c-.41,0-.73,.36-.68,.76l.02,.16c.04,.34,.33,.6,.68,.6h2.24c.26,0,.5-.15,.61-.39l.54-1.13Zm44.18,1.52h5.51c.42,0,.74,.38,.67,.8l-1.48,8.38c-.06,.33-.34,.56-.67,.56h-35c-.42,0-.74-.38-.67-.8l1.48-8.38c.06-.33,.34-.56,.67-.56h3.77l-.17-.96c-.06-.33-.34-.56-.67-.56h-2.35c-.42,0-.74-.38-.67-.8l1.46-8.3c.06-.33,.34-.56,.67-.56h8.3c.33,0,.61-.24,.67-.56l.08-.47c.06-.33,.34-.56,.67-.56h13.08c.42,0,.74,.38,.67,.8h0c-.07,.42,.25,.8,.67,.8h10.1c.42,0,.74,.38,.67,.8l-1.46,8.3c-.06,.33-.34,.56-.67,.56h-4.17c-.26,0-.5,.15-.61,.39l-.54,1.13Zm-12.46,17.74h-5.47c-.33,0-.61,.24-.67,.56l-.08,.47c-.07,.42,.25,.8,.67,.8h5.47c.33,0,.61-.24,.67-.56l.08-.47c.07-.42-.25-.8-.67-.8Zm2.08-19.26h-3.64c-.41,0-.73,.36-.68,.76l.02,.16c.04,.34,.33,.6,.68,.6h2.47c.26,0,.5-.15,.61-.39l.54-1.13Zm4.37,34.79c.3-1.69,.57-3.46,.82-5.31,.05-.41-.26-.78-.68-.78h-.4c-.33,0-.61,.24-.67,.56l-1.07,6.06c-.04,.25,.31,.38,1.08,.38,.51,0,.81-.3,.92-.91Z"/>
        <path class="cls-2" d="M339.35,86.81c-.17,.12-.38,.17-.59,.14l-4.04-.71c-8.12-1.46-15.96-2.8-23.51-4.01-.09-.01-.18-.01-.26,0-11.92,2.19-21.71,3.71-29.39,4.58-.24,.03-.46-.06-.63-.22-1.87-1.9-4.07-3.82-6.59-5.76-.58-.45-.27-1.38,.47-1.39,9.23-.16,17.46-.73,24.67-1.72h-19.32c-.48,0-.85-.44-.77-.91l2.11-11.99c.03-.17,0-.35-.08-.51-.82-1.56-1.79-2.91-2.91-4.04-.46-.46-.21-1.24,.44-1.32,2.14-.25,4.29-.53,6.47-.83,2.76-.38,5.24-.8,7.45-1.26h-12.54c-.48,0-.85-.44-.77-.91l.79-4.46c.07-.37,.39-.64,.77-.64h17.08l.16-.91h-13.92c-.48,0-.85-.44-.77-.91l.62-3.54c.07-.37,.39-.64,.77-.64h14.19l.15-.84h-13.92c-.48,0-.85-.44-.77-.91l.27-1.52c.08-.48-.28-.91-.77-.91h-.58c-.48,0-.85-.44-.77-.91l1.75-9.94c.07-.37,.39-.64,.77-.64h25.41c.38,0,.7-.27,.77-.64l.1-.54c.07-.37,.39-.64,.77-.64h15.85c.48,0,.85,.44,.77,.91h0c-.08,.48,.28,.91,.77,.91h24.86c.48,0,.85,.44,.77,.91l-1.75,9.94c-.07,.37-.39,.64-.77,.64h-1.05c-.38,0-.7,.27-.77,.64l-.36,2.06c-.07,.37-.39,.64-.77,.64h-14.19l-.15,.84h13.92c.48,0,.85,.44,.77,.91l-.62,3.54c-.07,.37-.39,.64-.77,.64h-14.19l-.16,.91h16.81c.48,0,.85,.44,.77,.91l-.79,4.46c-.07,.37-.39,.64-.77,.64h-12.9c2.1,.46,4.48,.88,7.12,1.26,1.98,.28,3.95,.55,5.92,.79,.69,.09,.93,.96,.37,1.38-1.59,1.2-3.13,2.64-4.61,4.32-.1,.11-.16,.25-.19,.39l-2.13,12.08c-.07,.37-.39,.64-.77,.64h-16.55l20.46,2.05c.74,.07,.97,1.03,.34,1.43-2.58,1.63-5.35,3.5-8.32,5.61Zm-40.62-49.4l-.1,.57c-.08,.48,.28,.91,.77,.91h.25c.38,0,.7-.27,.77-.64l.04-.24c.07-.37,.39-.64,.77-.64h13.81l-.27,1.52h6.81c.38,0,.7-.27,.77-.64l.04-.24c.07-.37,.39-.64,.77-.64h13.81l-.27,1.52h1.1c.38,0,.7-.27,.77-.64l.1-.57c.08-.48-.28-.91-.77-.91h-38.38c-.38,0-.7,.27-.77,.64Zm-.19,26.53h30.4c.38,0,.7-.27,.77-.64l.11-.65h-30.4c-.38,0-.7,.27-.77,.64l-.11,.65Zm30.44,3.5h-30.4c-.38,0-.7,.27-.77,.64l-.11,.65h30.4c.38,0,.7-.27,.77-.64l.11-.65Zm-.85,4.8h-30.4c-.38,0-.7,.27-.77,.64l-.11,.65h30.4c.38,0,.7-.27,.77-.64l.11-.65Zm-16.7-15.38c-.1,0-.2,.02-.3,.06l-4.13,1.69h16.14l-3.49-1.67c-.11-.05-.22-.08-.34-.08h-7.89Zm-3.6,22.31l2.87,1.61c.22,.13,.5,.13,.73,.01,1.11-.56,2.22-1.09,3.33-1.6,.76-.35,.52-1.49-.32-1.49h-6.22c-.8,0-1.08,1.06-.38,1.46Zm13.48-35.18h-7.46l-.15,.84h7.46l.15-.84Zm-1.05,5.94h-7.46l-.16,.91h7.46l.16-.91Z"/>
      </g>
      <g>
        <path class="cls-6" d="M18.23,11.42c-.84-.9-1.11-2.17-.82-3.84,.29-1.67,1.03-2.99,2.2-3.96,1.17-.97,2.81-1.46,4.92-1.46,2.95,0,4.75,1.01,5.39,3.04-.89,.29-1.95,.72-3.18,1.3-.18-.52-.54-.91-1.08-1.16-.54-.25-1.11-.38-1.72-.38-.9,0-1.6,.24-2.13,.71-.52,.47-.84,1.05-.97,1.74-.13,.75,0,1.36,.38,1.83s1.07,.71,2.04,.71c.77,0,1.41-.13,1.92-.38,.5-.26,.91-.67,1.23-1.23,.69,.41,1.59,.87,2.69,1.39-.67,1.13-1.58,1.92-2.75,2.37-1.17,.45-2.4,.67-3.69,.67-2.11,0-3.58-.45-4.42-1.34Z"/>
        <path class="cls-6" d="M34.58,9.6c-.25,1.39-.41,2.4-.5,3.02h-3.3l.29-1.58c.32-1.74,.57-3.08,.74-4.02,.16-.9,.37-2.17,.64-3.81l.25-1.51h3.3c-.25,1.33-.45,2.41-.6,3.25-.16,.93-.28,1.62-.35,2.07-.11,.56-.26,1.42-.47,2.58Z"/>
        <path class="cls-6" d="M36.5,12.62c.33-1.5,.58-2.74,.76-3.72,.21-1.17,.4-2.47,.58-3.92h3.36c-.32,1.39-.59,2.7-.8,3.92-.18,1.03-.37,2.27-.56,3.72h-3.33Zm1.89-8.9c-.23-.29-.31-.67-.23-1.13,.08-.46,.29-.84,.63-1.13,.34-.3,.8-.45,1.39-.45s.96,.15,1.21,.46c.25,.3,.33,.68,.25,1.13-.08,.47-.29,.84-.63,1.13-.34,.29-.8,.43-1.38,.43s-1-.14-1.23-.43Z"/>
        <path class="cls-6" d="M53.02,12.62c.29-1.22,.55-2.49,.78-3.79,.07-.42,.03-.75-.14-.99s-.43-.36-.77-.36c-.32,0-.62,.14-.89,.42-.28,.28-.46,.69-.56,1.22h0c-.29,1.64-.47,2.81-.55,3.5h-3.15c.3-1.37,.55-2.64,.75-3.79,.07-.41,.03-.74-.13-.98-.16-.24-.39-.36-.7-.36-.33,0-.62,.14-.89,.41-.27,.28-.46,.65-.58,1.13-.14,.71-.24,1.21-.29,1.51-.11,.63-.22,1.33-.31,2.09h-3.35c.31-1.34,.57-2.61,.78-3.81,.21-1.19,.4-2.47,.56-3.84,.61,.03,1.08,.04,1.41,.04,.35,0,.82-.01,1.42-.04l.05,2.07c.35-.76,.79-1.31,1.32-1.67,.53-.36,1.1-.54,1.7-.54,.73,0,1.29,.2,1.68,.6s.59,.92,.58,1.57c.33-.66,.78-1.19,1.36-1.58,.57-.39,1.18-.59,1.83-.59,.84,0,1.45,.28,1.82,.85,.38,.56,.48,1.34,.31,2.32l-.41,2.32c-.19,1.06-.31,1.82-.38,2.3h-3.26Z"/>
        <path class="cls-6" d="M67.61,5.4c.42,.38,.72,.88,.88,1.5,.16,.62,.18,1.28,.06,1.98-.13,.71-.38,1.36-.75,1.95-.38,.59-.84,1.06-1.38,1.41-.55,.35-1.12,.52-1.73,.52-.71,0-1.3-.15-1.77-.45-.47-.3-.78-.78-.92-1.44l-.71,1.75h-2.69c.37-1.75,.71-3.57,1.04-5.45,.33-1.89,.63-3.71,.88-5.45h3.16l-.35,1.72c-.26,1.21-.47,2.3-.64,3.25,.36-.63,.83-1.1,1.4-1.41,.57-.3,1.22-.46,1.95-.46,.62,0,1.15,.19,1.57,.57Zm-2.84,4.56c.31-.3,.51-.69,.6-1.16,.08-.43,0-.78-.24-1.04-.24-.27-.57-.4-.99-.4-.21,0-.45,.05-.7,.15-.25,.1-.48,.26-.69,.48-.21,.22-.34,.49-.4,.82-.1,.58-.04,.99,.17,1.24,.22,.25,.58,.37,1.1,.37,.45,0,.83-.15,1.14-.45Z"/>
        <path class="cls-6" d="M70.31,12.62c.33-1.5,.58-2.74,.76-3.72,.21-1.17,.4-2.47,.58-3.92h3.36c-.32,1.39-.59,2.7-.8,3.92-.18,1.03-.37,2.27-.56,3.72h-3.33Zm1.89-8.9c-.23-.29-.31-.67-.23-1.13,.08-.46,.29-.84,.63-1.13,.34-.3,.8-.45,1.39-.45s.96,.15,1.21,.46c.25,.3,.33,.68,.25,1.13-.08,.47-.29,.84-.63,1.13-.34,.29-.8,.43-1.38,.43s-1-.14-1.23-.43Z"/>
        <path class="cls-6" d="M81.44,12.62c.3-1.37,.55-2.64,.75-3.79,.07-.41,.03-.74-.13-.98-.16-.24-.39-.36-.7-.36s-.59,.14-.86,.41c-.26,.28-.46,.65-.58,1.13-.14,.71-.24,1.21-.29,1.51-.11,.63-.22,1.33-.31,2.09h-3.35c.31-1.34,.57-2.61,.78-3.81,.21-1.19,.4-2.47,.56-3.84,.61,.03,1.08,.04,1.41,.04,.35,0,.82-.01,1.42-.04l.04,2.06c.35-.75,.78-1.3,1.3-1.66s1.08-.54,1.69-.54c.56,0,1.02,.12,1.39,.37,.37,.25,.62,.58,.75,1s.16,.89,.07,1.41l-.36,2.02c-.22,1.24-.37,2.23-.46,2.98h-3.15Z"/>
        <path class="cls-6" d="M94.71,4.98h2.69c-.32,1.53-.72,3.71-1.22,6.52-.2,1.11-.58,2.02-1.15,2.73-.57,.71-1.25,1.23-2.03,1.55-.79,.32-1.63,.48-2.52,.48s-1.66-.13-2.31-.39-1.13-.6-1.41-1.03l1.01-2.14c.45,.29,.89,.5,1.32,.62,.43,.13,.88,.19,1.37,.19,1.59,0,2.5-.67,2.74-2.02,.03-.2,.06-.34,.09-.42,0-.06,.03-.13,.05-.22,.02-.09,.04-.22,.06-.36-.71,1.33-1.83,1.99-3.37,1.99-.63,0-1.15-.17-1.58-.5-.43-.34-.73-.79-.9-1.37-.17-.57-.19-1.21-.07-1.9,.12-.71,.38-1.36,.75-1.95,.38-.59,.84-1.06,1.38-1.41,.55-.35,1.12-.52,1.73-.52,1.58,0,2.51,.56,2.79,1.67l.62-1.53Zm-2.16,5.12c.25-.1,.48-.26,.69-.48s.34-.49,.4-.82c.1-.58,.04-.99-.17-1.24-.22-.25-.58-.37-1.1-.37-.45,0-.83,.15-1.14,.45-.31,.3-.51,.69-.6,1.16-.08,.43,0,.78,.24,1.04,.24,.27,.57,.4,.99,.4,.21,0,.45-.05,.7-.15Z"/>
        <path class="cls-6" d="M103.78,11.42c-.84-.9-1.11-2.17-.82-3.84,.29-1.67,1.03-2.99,2.2-3.96,1.17-.97,2.81-1.46,4.92-1.46,2.95,0,4.75,1.01,5.39,3.04-.89,.29-1.95,.72-3.18,1.3-.18-.52-.54-.91-1.08-1.16-.54-.25-1.11-.38-1.72-.38-.9,0-1.6,.24-2.13,.71-.52,.47-.84,1.05-.97,1.74-.13,.75,0,1.36,.38,1.83s1.07,.71,2.04,.71c.77,0,1.41-.13,1.92-.38,.5-.26,.91-.67,1.23-1.23,.69,.41,1.59,.87,2.69,1.39-.67,1.13-1.58,1.92-2.75,2.37-1.17,.45-2.4,.67-3.69,.67-2.11,0-3.58-.45-4.42-1.34Z"/>
        <path class="cls-6" d="M117.48,11.66c-.62-.73-.83-1.7-.62-2.89,.21-1.17,.75-2.11,1.63-2.84s2.12-1.09,3.71-1.09c1.07,0,1.94,.17,2.6,.52,.66,.35,1.11,.82,1.35,1.41,.24,.59,.3,1.26,.17,2-.21,1.2-.78,2.17-1.71,2.9s-2.2,1.09-3.81,1.09-2.71-.37-3.33-1.1Zm5.24-1.72c.35-.29,.57-.68,.65-1.16,.08-.46,0-.83-.25-1.13-.25-.29-.67-.44-1.28-.44s-1.08,.14-1.41,.43c-.33,.29-.54,.67-.62,1.13-.09,.49-.01,.87,.21,1.16,.23,.29,.65,.43,1.25,.43s1.08-.15,1.43-.43Z"/>
        <path class="cls-6" d="M138.53,12.62c.29-1.22,.55-2.49,.78-3.79,.07-.42,.03-.75-.14-.99s-.43-.36-.77-.36c-.32,0-.62,.14-.89,.42-.28,.28-.46,.69-.56,1.22h0c-.29,1.64-.47,2.81-.55,3.5h-3.15c.3-1.37,.55-2.64,.75-3.79,.07-.41,.03-.74-.13-.98-.16-.24-.39-.36-.7-.36-.33,0-.62,.14-.89,.41-.27,.28-.46,.65-.58,1.13-.14,.71-.24,1.21-.29,1.51-.11,.63-.22,1.33-.31,2.09h-3.35c.31-1.34,.57-2.61,.78-3.81,.21-1.19,.4-2.47,.56-3.84,.61,.03,1.08,.04,1.41,.04,.35,0,.82-.01,1.42-.04l.05,2.07c.35-.76,.79-1.31,1.32-1.67,.53-.36,1.1-.54,1.7-.54,.73,0,1.29,.2,1.68,.6s.59,.92,.58,1.57c.33-.66,.78-1.19,1.36-1.58,.57-.39,1.18-.59,1.83-.59,.84,0,1.45,.28,1.82,.85,.38,.56,.48,1.34,.31,2.32l-.41,2.32c-.19,1.06-.31,1.82-.38,2.3h-3.26Z"/>
        <path class="cls-6" d="M153.14,5.35c.42,.35,.72,.81,.89,1.41,.17,.59,.19,1.24,.06,1.95-.12,.7-.38,1.36-.76,1.98-.38,.62-.85,1.12-1.41,1.5-.56,.38-1.15,.57-1.77,.57-.73,0-1.32-.15-1.79-.45-.46-.3-.77-.77-.91-1.41-.09,.53-.23,1.39-.4,2.56-.16,1.14-.29,1.94-.37,2.41h-3.16c.36-1.74,.71-3.55,1.04-5.45s.63-3.71,.88-5.45h2.69l.1,1.75c.38-.65,.85-1.13,1.43-1.44,.58-.3,1.22-.46,1.93-.46,.61,0,1.12,.17,1.55,.52Zm-2.87,4.49c.33-.27,.54-.61,.61-1.04,.08-.48,.02-.86-.19-1.16-.21-.3-.54-.45-.99-.45-.51,0-.92,.12-1.23,.37-.31,.25-.51,.66-.61,1.24-.06,.33-.02,.6,.11,.82s.3,.38,.52,.48c.22,.1,.43,.15,.65,.15,.42,0,.8-.13,1.13-.4Z"/>
        <path class="cls-6" d="M163.45,9.12h-4.56c0,.41,.13,.74,.38,1s.64,.39,1.19,.39c.39,0,.77-.08,1.15-.23,.37-.15,.69-.37,.94-.65,.57,.31,1.34,.64,2.32,.99-.4,.65-1.02,1.17-1.85,1.56-.83,.39-1.85,.58-3.08,.58-1.59,0-2.7-.37-3.33-1.1s-.84-1.7-.63-2.89c.21-1.17,.75-2.11,1.63-2.84s2.13-1.09,3.72-1.09c.95,0,1.75,.16,2.39,.48,.64,.32,1.1,.76,1.38,1.32s.35,1.21,.22,1.94c-.04,.24-.08,.42-.12,.55h-1.74Zm-3.5-1.9c-.33,.18-.58,.42-.76,.73h3.3c-.06-.3-.2-.54-.42-.72-.22-.18-.53-.27-.93-.27-.47,0-.87,.09-1.2,.27Z"/>
        <path class="cls-6" d="M173.88,7.48c-.85-.06-1.63-.1-2.33-.13l-.28,1.48c-.09,.5-.05,.9,.12,1.18,.17,.29,.53,.43,1.09,.43,.21,0,.42-.02,.63-.06-.1,.35-.18,.7-.24,1.05-.03,.17-.09,.55-.17,1.15-.42,.07-.78,.12-1.06,.14-.28,.02-.65,.03-1.1,.03-1.09,0-1.82-.26-2.18-.79-.36-.53-.46-1.26-.29-2.2l.43-2.37c-.44,.02-.9,.05-1.39,.08l.44-2.48c.49,0,.92-.15,1.31-.46,.39-.31,.66-.68,.8-1.11h3.81c-.59,.65-1.21,1.18-1.86,1.57h2.7l-.44,2.48Z"/>
        <path class="cls-6" d="M175.11,12.62c.33-1.5,.58-2.74,.76-3.72,.21-1.17,.4-2.47,.58-3.92h3.36c-.32,1.39-.59,2.7-.8,3.92-.18,1.03-.37,2.27-.56,3.72h-3.33Zm1.89-8.9c-.23-.29-.31-.67-.23-1.13,.08-.46,.29-.84,.63-1.13,.34-.3,.8-.45,1.39-.45s.96,.15,1.21,.46c.25,.3,.33,.68,.25,1.13-.08,.47-.29,.84-.63,1.13-.34,.29-.8,.43-1.38,.43s-1-.14-1.23-.43Z"/>
        <path class="cls-6" d="M188.03,7.48c-.85-.06-1.63-.1-2.33-.13l-.28,1.48c-.09,.5-.05,.9,.12,1.18,.17,.29,.53,.43,1.09,.43,.21,0,.42-.02,.63-.06-.1,.35-.18,.7-.24,1.05-.03,.17-.09,.55-.17,1.15-.42,.07-.78,.12-1.06,.14-.28,.02-.65,.03-1.1,.03-1.09,0-1.82-.26-2.18-.79-.36-.53-.46-1.26-.29-2.2l.43-2.37c-.44,.02-.9,.05-1.39,.08l.44-2.48c.49,0,.92-.15,1.31-.46,.39-.31,.66-.68,.8-1.11h3.81c-.59,.65-1.21,1.18-1.86,1.57h2.7l-.44,2.48Z"/>
        <path class="cls-6" d="M189.26,12.62c.33-1.5,.58-2.74,.76-3.72,.21-1.17,.4-2.47,.58-3.92h3.36c-.32,1.39-.59,2.7-.8,3.92-.18,1.03-.37,2.27-.56,3.72h-3.33Zm1.89-8.9c-.23-.29-.31-.67-.23-1.13,.08-.46,.29-.84,.63-1.13,.34-.3,.8-.45,1.39-.45s.96,.15,1.21,.46c.25,.3,.33,.68,.25,1.13-.08,.47-.29,.84-.63,1.13-.34,.29-.8,.43-1.38,.43s-1-.14-1.23-.43Z"/>
        <path class="cls-6" d="M196.09,11.66c-.62-.73-.83-1.7-.62-2.89,.21-1.17,.75-2.11,1.63-2.84s2.12-1.09,3.71-1.09c1.07,0,1.94,.17,2.6,.52,.66,.35,1.11,.82,1.35,1.41,.24,.59,.3,1.26,.17,2-.21,1.2-.78,2.17-1.71,2.9s-2.2,1.09-3.81,1.09-2.71-.37-3.33-1.1Zm5.24-1.72c.35-.29,.57-.68,.65-1.16,.08-.46,0-.83-.25-1.13-.25-.29-.67-.44-1.28-.44s-1.08,.14-1.41,.43c-.33,.29-.54,.67-.62,1.13-.09,.49-.01,.87,.21,1.16,.23,.29,.65,.43,1.25,.43s1.08-.15,1.43-.43Z"/>
        <path class="cls-6" d="M211.75,12.62c.3-1.37,.55-2.64,.75-3.79,.07-.41,.03-.74-.13-.98-.16-.24-.39-.36-.7-.36s-.59,.14-.86,.41c-.26,.28-.46,.65-.58,1.13-.14,.71-.24,1.21-.29,1.51-.11,.63-.22,1.33-.31,2.09h-3.35c.31-1.34,.57-2.61,.78-3.81,.21-1.19,.4-2.47,.56-3.84,.61,.03,1.08,.04,1.41,.04,.35,0,.82-.01,1.42-.04l.04,2.06c.35-.75,.78-1.3,1.3-1.66s1.08-.54,1.69-.54c.56,0,1.02,.12,1.39,.37,.37,.25,.62,.58,.75,1s.16,.89,.07,1.41l-.36,2.02c-.22,1.24-.37,2.23-.46,2.98h-3.15Z"/>
      </g>
    </g>
  </g>
</svg>