<?xml version="1.0" encoding="UTF-8"?>
<svg id="_圖層_2" data-name="圖層 2" xmlns="http://www.w3.org/2000/svg" xmlns:xlink="http://www.w3.org/1999/xlink" viewBox="0 0 353.33 90.58">
  <defs>
    <style>
      .cls-1 {
        fill: url(#_未命名漸層_229-3);
      }

      .cls-1, .cls-2, .cls-3, .cls-4, .cls-5 {
        stroke: #fff;
        stroke-width: 2px;
      }

      .cls-6, .cls-4 {
        fill: #fff;
      }

      .cls-2 {
        fill: url(#_未命名漸層_229-4);
      }

      .cls-3 {
        fill: url(#_未命名漸層_229);
      }

      .cls-7 {
        fill: #ed1e79;
      }

      .cls-5 {
        fill: url(#_未命名漸層_229-2);
      }
    </style>
    <linearGradient id="_未命名漸層_229" data-name="未命名漸層 229" x1="40" y1="88.63" x2="40" y2="31.53" gradientUnits="userSpaceOnUse">
      <stop offset="0" stop-color="#7900e3"/>
      <stop offset="1" stop-color="#ed4790"/>
    </linearGradient>
    <linearGradient id="_未命名漸層_229-2" data-name="未命名漸層 229" x1="129.27" y1="88.7" x2="129.27" y2="31.85" xlink:href="#_未命名漸層_229"/>
    <linearGradient id="_未命名漸層_229-3" data-name="未命名漸層 229" x1="218.95" y1="89.1" x2="218.95" y2="31.92" xlink:href="#_未命名漸層_229"/>
    <linearGradient id="_未命名漸層_229-4" data-name="未命名漸層 229" x1="308.43" y1="89.58" x2="308.43" y2="31.48" xlink:href="#_未命名漸層_229"/>
  </defs>
  <g id="_素材" data-name="素材">
    <g>
      <polygon class="cls-7" points="212.37 14 12.3 14 14.52 0 214.6 0 212.37 14"/>
      <g>
        <path class="cls-4" d="M56.44,73.64l.27,.83c.1,.3,.38,.5,.69,.5h21.24c.45,0,.79,.41,.72,.85l-.62,3.52c-.06,.35-.36,.6-.72,.6h-20.64c-.34,0-.62,.24-.7,.56-.45,1.77-1.27,3.22-2.48,4.34-1.33,1.24-3.54,2.18-6.62,2.82-3.08,.64-7.37,.96-12.86,.96-3.81,0-8.91-.37-15.3-1.1-.41-.05-.69-.42-.64-.83,.27-2.23-.02-4.34-.89-6.32-.12-.26-.39-.43-.68-.43H7.36c-.45,0-.79-.41-.72-.85l.62-3.52c.06-.35,.36-.6,.72-.6H40.84c0-.3-.04-.74-.14-1.34H9.95c-.45,0-.79-.41-.72-.85l.14-.82s0-.05,0-.07c.17-2.11,.25-3.87,.23-5.27-.02-1.1-.18-2.18-.5-3.23-.13-.45,.22-.9,.69-.91,8.37-.21,15.02-.75,19.93-1.61H11.69c-.45,0-.79-.41-.72-.85l1.13-6.41c.06-.35,.36-.6,.72-.6h26.63l.04-.22-2.99-2.47c-.36-.3-.9-.18-1.11,.23l-.15,.29c-.2,.38-.68,.52-1.04,.29-.47-.3-.96-.66-1.46-1.09-.35-.3-.68-.62-.98-.98-.39-.46-1.15-.23-1.25,.36l-.37,2.09c-.06,.35-.36,.6-.72,.6h-9.43c-.45,0-.79-.41-.72-.85l.09-.49c.12-.66-.63-1.1-1.17-.69-1.07,.82-2.41,1.56-4.02,2.21-.5,.2-1.04-.18-1.01-.72,.13-2.46-.05-4.61-.55-6.44-.12-.44,.22-.88,.68-.89,1.22-.03,2.29-.13,3.18-.28,1.12-.2,2.38-.57,3.76-1.11h-3.81c-.45,0-.79-.41-.72-.85l1.37-7.75c.06-.35,.36-.6,.72-.6h3.98c.35,0,.65-.25,.72-.6l.09-.51c.06-.35,.36-.6,.72-.6h9.43c.45,0,.79,.41,.72,.85h0c-.08,.45,.26,.85,.72,.85h3.92c.08,0,.15-.01,.22-.03l6.33-2.04c.16-.05,.34-.05,.5,.02l4.94,2.01c.18,.07,.38,.08,.56,0,1.13-.49,2.39-1.12,3.75-1.88,.18-.1,.39-.12,.58-.06l7.56,2.5,.09-.52h5.1c.35,0,.65-.25,.72-.6l.05-.28c.06-.35,.36-.6,.72-.6h10.67l-.26,1.48h3.59c.45,0,.79,.41,.72,.85l-1.37,7.75c-.06,.35-.36,.6-.72,.6h-3.84v.07c1.13,.55,2.23,.9,3.29,1.08,.75,.12,1.64,.2,2.66,.24,.55,.02,.9,.62,.61,1.08-1.14,1.88-2.08,4.08-2.81,6.6-.12,.42-.58,.66-.98,.48-1.25-.56-2.25-1.18-3.01-1.88-.42-.39-1.09-.15-1.19,.41l-.1,.58c-.06,.35-.36,.6-.72,.6h-9.8c-.45,0-.79-.41-.72-.85l.3-1.71c.12-.67-.66-1.12-1.17-.68-.42,.36-.87,.7-1.33,1.02-1.07,.74-2.03,1.29-2.89,1.63l-.16-1.19-2.31,1.31c-.65,.37-.39,1.36,.36,1.36h23.55c.45,0,.79,.41,.72,.85l-1.13,6.41c-.06,.35-.36,.6-.72,.6h-17.2c5.44,.88,11.41,1.41,17.88,1.6,.56,.02,.9,.63,.6,1.1-1.09,1.69-2.03,3.71-2.81,6.05h.15l-.6,3.41c-.06,.35-.36,.6-.72,.6h-21.28Zm-36.59,6.31c5.81,.74,10.47,1.11,13.98,1.11,3.12,0,5.11-.37,5.98-1.11H19.85Zm19.93-10.32l-.28-.67c-.11-.27-.38-.44-.67-.44h-10.38c-.08,0-.16,.01-.24,.04-.79,.28-1.49,.5-2.08,.66-.62,.17-1.14,.31-1.56,.41h15.21Zm-8.15-26.57c1.87,.59,3.55,1.04,5.03,1.34-.28-.1-.57-.21-.87-.33-.3-.12-.66-.26-1.08-.41l1.78-.82h-4.82l-.04,.22Zm6.52-1l.31-.14c.5-.22,.58-.89,.16-1.23l-.25-.2c-.43-.34-1.07-.1-1.17,.44l-.06,.34c-.1,.57,.48,1.03,1.01,.79Zm-.95,5.16c.52-.15,1.67-.49,3.45-1.04l-1.54-.66c-.31-.13-.67-.04-.87,.24-.24,.34-.59,.83-1.04,1.46Zm1.65-9.78l1.23-.31c.67-.17,.75-1.09,.11-1.37l-1.09-.48c-.43-.19-.93,.07-1.01,.54l-.14,.8c-.09,.52,.38,.96,.9,.83Zm9.03,25.37c-.77-.44-1.46-.89-2.06-1.33-.24-.18-.57-.19-.82-.03-.9,.57-1.75,1.05-2.55,1.43,2.42,0,4.23-.02,5.43-.07Zm2.68-11.43l-1.96-1.04c-.18-.09-.39-.11-.58-.04l-3.1,1.08h5.64Zm-.4-8.49c.44-.16,.92-.34,1.42-.54,.6-.23,.63-1.07,.05-1.34l-1.23-.57c-.17-.08-.36-.09-.54-.03l-1.51,.51c-.63,.21-.67,1.08-.07,1.35l1.33,.6c.17,.08,.37,.09,.54,.02Zm14.48,26.75c-1.5-.43-2.76-.81-3.77-1.15-.07-.02-.15-.04-.22-.04h-7.6l.76,.92c.14,.17,.34,.26,.56,.26h10.27Zm-5.19-21.9c-.12-.44-.22-.81-.32-1.11-.12-.41-.57-.61-.96-.46l-.96,.38,2.24,1.19Zm7.25-4.9h-4.85c-.45,0-.79-.41-.72-.85l.16-.93c.1-.57-.47-1.02-1.01-.79l-1.46,.63c-.53,.23-.59,.96-.11,1.28l2.93,1.91c.17,.11,.39,.14,.58,.09,2.01-.51,3.49-.93,4.45-1.26v-.07Zm-5.63-6.99c-.42,.19-.81,.37-1.16,.52-.59,.26-.56,1.1,.03,1.34,.39,.16,.73,.29,1,.41,.43,.18,.91-.09,.99-.55l.16-.93c.1-.58-.49-1.03-1.02-.79Z"/>
        <path class="cls-4" d="M169.68,61.76h-45.12c-.29,0-.55,.14-.71,.38,0,0,0,0,0,.01-.36,.56,.04,1.31,.71,1.31h41.19c.53,0,.92,.47,.83,.99l-4.15,23.54c-.07,.4-.42,.7-.83,.7h-16.14l.1-.59h-22.34l-.1,.59h-15.84c-.53,0-.92-.47-.83-.99l1.04-5.9c.13-.77-.75-1.29-1.36-.8-2.9,2.29-5.55,4.02-7.95,5.18,.02-.4,.02-.84,.01-1.34-.01-.49-.01-1.06,0-1.71,.02-3.76-.04-6.77-.19-9.02-.12-1.86-.4-3.38-.84-4.58-.15-.42,.07-.87,.47-1.05,1.47-.64,2.73-1.28,3.78-1.94,1.22-.77,2.45-1.82,3.67-3.15,.37-.4,.81-.94,1.33-1.63h-5.08c-.53,0-.92-.47-.83-.99l1.76-9.96c.07-.4,.42-.7,.83-.7h68.35c.53,0,.92,.47,.83,.99l-1.76,9.96c-.07,.4-.42,.7-.83,.7Zm-12.28-28.8h14.46c.53,0,.92,.47,.83,.99l-2.37,13.45c-.07,.4-.42,.7-.83,.7H105.3c-.53,0-.92-.47-.83-.99l2.37-13.45c.07-.4,.42-.7,.83-.7h14.46c.53,0,.92,.47,.83,.99l-.21,1.21c-.09,.52,.31,.99,.83,.99h6.59c.41,0,.76-.29,.83-.7l.51-2.91c.07-.4,.42-.7,.83-.7h15.2c.53,0,.92,.47,.83,.99l-.41,2.32c-.09,.52,.31,.99,.83,.99h6.6c.41,0,.76-.29,.83-.7l.32-1.79c.07-.4,.42-.7,.83-.7Zm-9.73,43.17l.25-1.42c.09-.52-.31-.99-.83-.99h-20.62c-.41,0-.76,.29-.83,.7l-.25,1.42c-.09,.52,.31,.99,.83,.99h20.62c.41,0,.76-.29,.83-.7Z"/>
        <path class="cls-4" d="M249.43,89.08c-6.32-1.29-12.01-3.73-17.08-7.33-.53-.38-1.27-.09-1.38,.55l-.43,2.46c-.06,.36-.34,.65-.7,.71-8.98,1.64-22.55,2.71-40.7,3.21-.48,.01-.87-.36-.91-.83-.2-2.78-.92-5.44-2.18-7.98-.29-.58,.14-1.26,.79-1.26h1.27c.52,0,.94-.46,.88-.97-.18-1.35-.48-2.6-.92-3.74-.38-.98-.91-1.99-1.59-3.04-.38-.59,.03-1.37,.74-1.36l5.85,.06c8.91,0,15.67-.45,20.28-1.34h-25.08c-.55,0-.96-.49-.87-1.03l1.19-6.77c.07-.42,.44-.73,.87-.73h11.14c-3.66-.73-6.77-1.23-9.34-1.5-.69-.07-1.02-.87-.6-1.41,.92-1.21,1.66-2.2,2.21-2.98,.41-.58-.01-1.38-.73-1.38h-.12c-.55,0-.96-.49-.87-1.03l.99-5.59c.07-.42,.44-.73,.87-.73h18.71l.2-1.11h-16.69c-.55,0-.96-.49-.87-1.03l1.69-9.59c.07-.42,.44-.73,.87-.73h11.94c.55,0,.96,.49,.87,1.03l-.24,1.35c-.1,.54,.32,1.03,.87,1.03h2.22c.43,0,.79-.31,.87-.73l.42-2.4c.07-.42,.44-.73,.87-.73h12.39c.55,0,.96,.49,.87,1.03l-4.12,23.39c-.1,.54,.32,1.03,.87,1.03h.66c.43,0,.79-.31,.87-.73l1.44-8.19c.07-.42,.44-.73,.87-.73h7.21c.43,0,.79-.31,.87-.73l.32-1.8c.1-.54-.32-1.03-.87-1.03h-7.33c-.55,0-.96-.49-.87-1.03l1.51-8.56c.07-.42,.44-.73,.87-.73h7.95c.43,0,.79-.31,.87-.73l.12-.7c.07-.42,.44-.73,.87-.73h12.83c.55,0,.96,.49,.87,1.03l-.02,.09c-.1,.54,.32,1.03,.87,1.03h7.7c.55,0,.96,.49,.87,1.03l-1.51,8.56c-.07,.42-.44,.73-.87,.73h-8.32c-.43,0-.79,.31-.87,.73l-.32,1.8c-.1,.54,.32,1.03,.87,1.03h6.81c.55,0,.96,.49,.87,1.03l-1.56,8.85c-.07,.42-.44,.73-.87,.73h-25.24l-.2,1.11h26.78c.55,0,.96,.49,.87,1.03l-1.19,6.77c-.07,.42-.44,.73-.87,.73h-7.55c-1.01,0-1.23,1.41-.27,1.72l2.29,.73c.73,.23,.84,1.21,.18,1.6-.76,.44-1.69,.97-2.79,1.59-.72,.41-.55,1.5,.27,1.64,1.93,.33,4.07,.64,6.44,.92,.7,.08,1.03,.91,.57,1.44-2.52,2.88-4.62,6.43-6.29,10.67-.16,.4-.58,.64-1,.55Zm-44.09-11.69c.11-.62-.45-1.15-1.06-1.01-3.48,.78-7.51,1.52-12.07,2.23,4.17-.05,8.27-.18,12.3-.41,.41-.02,.75-.33,.82-.73v-.08Zm2.65-24.43c-.72,1.8-1.58,3.6-2.59,5.4-.33,.59,.08,1.32,.76,1.32h10.42l.2-1.11h-6.37c-.55,0-.96-.49-.87-1.03l.72-4.09c.1-.54-.32-1.03-.87-1.03h-.58c-.36,0-.68,.22-.81,.55Zm14.39,23.77l1.8-.26c.69-.1,1-.92,.54-1.45s-.94-1.1-1.43-1.7-1.42-.35-1.55,.39l-.35,1.99c-.1,.59,.4,1.11,.99,1.02Zm13.83-8.51h-.05c-.83,0-1.2,1.05-.55,1.58,0,0,.02,.01,.02,.02,.31,.25,.75,.26,1.06,.02,0,0,.02-.01,.03-.02,.69-.51,.34-1.6-.52-1.6Z"/>
        <path class="cls-4" d="M342.61,46.03h7.67c.57,0,1,.51,.9,1.07l-1.34,7.6c-.08,.44-.46,.75-.9,.75h-35.5c-.44,0-.82,.32-.9,.75l-1.7,9.64c-.69,3.91-1.53,7.68-2.52,11.32-.93,3.42-2.21,7.36-3.85,11.82-.17,.46-.67,.71-1.14,.56-2.63-.87-5.54-1.61-8.74-2.24-1.02-.25-1.83-.45-2.41-.59-.51-.12-1.02,.21-1.11,.73l-.12,.66c-.08,.44-.46,.75-.9,.75h-13.36c-.57,0-1-.51-.9-1.07l2.51-14.25c.12-.69-.55-1.26-1.2-1.02-.03,.01-.06,.02-.09,.03-.65,.24-1.31-.33-1.2-1.01,.48-3.16,.79-6.02,.95-8.58,.16-2.64,.07-5.23-.25-7.79-.06-.5,.28-.97,.79-1.02,2.22-.22,3.9-1.09,5.04-2.62,.78-1.04,1.65-4.33,2.63-9.87,.44-2.5,.82-5.26,1.15-8.3,.05-.47,.44-.83,.91-.82l14.32,.07c.57,0,1,.53,.89,1.09-1.63,8.53-3.35,15.12-5.16,19.76-.02,.05-.04,.11-.05,.16l-5.7,32.35c1.39-2.82,2.53-5.99,3.42-9.5,.89-3.51,1.78-7.79,2.67-12.84l1.58-8.98,1.38-7.85c.08-.44,.46-.75,.9-.75h6.78c.44,0,.82-.32,.9-.76l.13-.73h-5.89c-.57,0-1-.51-.9-1.07l1.52-8.64c.08-.44,.46-.75,.9-.75h5.44c.44,0,.82-.32,.9-.76l.19-1.09c.08-.44,.46-.76,.9-.76h11.73c.57,0,1,.51,.9,1.07l-.08,.45c-.1,.56,.33,1.07,.9,1.07h4.83c.44,0,.82-.32,.9-.76l.19-1.09c.08-.44,.46-.76,.9-.76h11.65c.57,0,1,.51,.9,1.07l-.08,.45c-.1,.56,.33,1.07,.9,1.07h5.62c.57,0,1,.51,.9,1.07l-1.52,8.64c-.08,.44-.46,.75-.9,.75h-6.26c-.44,0-.82,.32-.9,.76l-.13,.73Zm-34,40.86l5.19-29.42c.08-.44,.46-.75,.9-.75h32.21c.57,0,1,.51,.9,1.07l-4.39,24.9c-.28,1.58-.8,2.76-1.55,3.53-.75,.77-1.81,1.3-3.18,1.6-1.2,.26-2.98,.5-5.33,.73-.53,.05-1-.37-1-.9,0-.31,0-.7,0-1.16,.04-2.77-.12-4.77-.5-6.01l-1.11,6.3c-.08,.44-.46,.76-.9,.76h-8.02c-.57,0-1-.51-.9-1.07l1.35-7.65c.1-.56-.33-1.07-.9-1.07h0c-.44,0-.82,.32-.9,.75l-1.54,8.73c-.08,.44-.46,.75-.9,.75h-8.54c-.57,0-1-.51-.9-1.07Zm12.99-14.74h1.91c.44,0,.82-.32,.9-.75l.13-.73h-1.91c-.44,0-.82,.32-.9,.75l-.13,.73Zm1.85-27.61c-.44,0-.82,.32-.9,.76l-.13,.73h5.91c.44,0,.82-.32,.9-.76l.13-.73h-5.91Zm1.31,20.48c.44,0,.82-.32,.9-.75l.13-.73h-1.91c-.44,0-.82,.32-.9,.75l-.13,.73h1.91Zm7.23,14.7c1-.05,1.61-.16,1.84-.33,.23-.17,.42-.68,.57-1.52l.03-.15h-1.31c-.44,0-.82,.32-.9,.75l-.22,1.25Zm.67-7.57h1.94c.46,0,.85-.34,.91-.8l.09-.68h-1.91c-.44,0-.82,.32-.9,.75l-.13,.73Zm1.26-7.13h1.83c.44,0,.82-.32,.9-.75l.13-.73h-1.83c-.44,0-.82,.32-.9,.75l-.13,.73Z"/>
      </g>
      <g>
        <path class="cls-6" d="M20.11,11.26c-.84-.9-1.11-2.17-.82-3.84,.29-1.67,1.03-2.99,2.2-3.96,1.17-.97,2.81-1.46,4.92-1.46,2.95,0,4.75,1.01,5.39,3.04-.89,.29-1.95,.72-3.18,1.3-.18-.52-.54-.91-1.08-1.16-.54-.25-1.11-.38-1.72-.38-.9,0-1.6,.24-2.13,.71-.52,.47-.84,1.05-.97,1.74-.13,.75,0,1.36,.38,1.83s1.07,.71,2.04,.71c.77,0,1.41-.13,1.92-.38,.5-.26,.91-.67,1.23-1.23,.69,.41,1.59,.87,2.69,1.39-.67,1.13-1.58,1.92-2.75,2.37-1.17,.45-2.4,.67-3.69,.67-2.11,0-3.58-.45-4.42-1.34Z"/>
        <path class="cls-6" d="M36.47,9.44c-.25,1.39-.41,2.4-.5,3.02h-3.3l.29-1.58c.32-1.74,.57-3.08,.74-4.02,.16-.9,.37-2.17,.64-3.81l.25-1.51h3.3c-.25,1.33-.45,2.41-.6,3.25-.16,.93-.28,1.62-.35,2.07-.11,.56-.26,1.42-.47,2.58Z"/>
        <path class="cls-6" d="M38.38,12.47c.33-1.5,.58-2.74,.76-3.72,.21-1.17,.4-2.47,.58-3.92h3.36c-.32,1.39-.59,2.7-.8,3.92-.18,1.03-.37,2.27-.56,3.72h-3.33Zm1.89-8.9c-.23-.29-.31-.67-.23-1.13,.08-.46,.29-.84,.63-1.13,.34-.3,.8-.45,1.39-.45s.96,.15,1.21,.46c.25,.3,.33,.68,.25,1.13-.08,.47-.29,.84-.63,1.13-.34,.29-.8,.43-1.38,.43s-1-.14-1.23-.43Z"/>
        <path class="cls-6" d="M54.9,12.47c.29-1.22,.55-2.49,.78-3.79,.07-.42,.03-.75-.14-.99s-.43-.36-.77-.36c-.32,0-.62,.14-.89,.42-.28,.28-.46,.69-.56,1.22h0c-.29,1.64-.47,2.81-.55,3.5h-3.15c.3-1.37,.55-2.64,.75-3.79,.07-.41,.03-.74-.13-.98-.16-.24-.39-.36-.7-.36-.33,0-.62,.14-.89,.41-.27,.28-.46,.65-.58,1.13-.14,.71-.24,1.21-.29,1.51-.11,.63-.22,1.33-.31,2.09h-3.35c.31-1.34,.57-2.61,.78-3.81,.21-1.19,.4-2.47,.56-3.84,.61,.03,1.08,.04,1.41,.04,.35,0,.82-.01,1.42-.04l.05,2.07c.35-.76,.79-1.31,1.32-1.67,.53-.36,1.1-.54,1.7-.54,.73,0,1.29,.2,1.68,.6s.59,.92,.58,1.57c.33-.66,.78-1.19,1.36-1.58,.57-.39,1.18-.59,1.83-.59,.84,0,1.45,.28,1.82,.85,.38,.56,.48,1.34,.31,2.32l-.41,2.32c-.19,1.06-.31,1.82-.38,2.3h-3.26Z"/>
        <path class="cls-6" d="M69.5,5.25c.42,.38,.72,.88,.88,1.5,.16,.62,.18,1.28,.06,1.98-.13,.71-.38,1.36-.75,1.95-.38,.59-.84,1.06-1.38,1.41-.55,.35-1.12,.52-1.73,.52-.71,0-1.3-.15-1.77-.45-.47-.3-.78-.78-.92-1.44l-.71,1.75h-2.69c.37-1.75,.71-3.57,1.04-5.45,.33-1.89,.63-3.71,.88-5.45h3.16l-.35,1.72c-.26,1.21-.47,2.3-.64,3.25,.36-.63,.83-1.1,1.4-1.41,.57-.3,1.22-.46,1.95-.46,.62,0,1.15,.19,1.57,.57Zm-2.84,4.56c.31-.3,.51-.69,.6-1.16,.08-.43,0-.78-.24-1.04-.24-.27-.57-.4-.99-.4-.21,0-.45,.05-.7,.15-.25,.1-.48,.26-.69,.48-.21,.22-.34,.49-.4,.82-.1,.58-.04,.99,.17,1.24,.22,.25,.58,.37,1.1,.37,.45,0,.83-.15,1.14-.45Z"/>
        <path class="cls-6" d="M72.19,12.47c.33-1.5,.58-2.74,.76-3.72,.21-1.17,.4-2.47,.58-3.92h3.36c-.32,1.39-.59,2.7-.8,3.92-.18,1.03-.37,2.27-.56,3.72h-3.33Zm1.89-8.9c-.23-.29-.31-.67-.23-1.13,.08-.46,.29-.84,.63-1.13,.34-.3,.8-.45,1.39-.45s.96,.15,1.21,.46c.25,.3,.33,.68,.25,1.13-.08,.47-.29,.84-.63,1.13-.34,.29-.8,.43-1.38,.43s-1-.14-1.23-.43Z"/>
        <path class="cls-6" d="M83.32,12.47c.3-1.37,.55-2.64,.75-3.79,.07-.41,.03-.74-.13-.98-.16-.24-.39-.36-.7-.36s-.59,.14-.86,.41c-.26,.28-.46,.65-.58,1.13-.14,.71-.24,1.21-.29,1.51-.11,.63-.22,1.33-.31,2.09h-3.35c.31-1.34,.57-2.61,.78-3.81,.21-1.19,.4-2.47,.56-3.84,.61,.03,1.08,.04,1.41,.04,.35,0,.82-.01,1.42-.04l.04,2.06c.35-.75,.78-1.3,1.3-1.66s1.08-.54,1.69-.54c.56,0,1.02,.12,1.39,.37,.37,.25,.62,.58,.75,1s.16,.89,.07,1.41l-.36,2.02c-.22,1.24-.37,2.23-.46,2.98h-3.15Z"/>
        <path class="cls-6" d="M96.6,4.82h2.69c-.32,1.53-.72,3.71-1.22,6.52-.2,1.11-.58,2.02-1.15,2.73-.57,.71-1.25,1.23-2.03,1.55-.79,.32-1.63,.48-2.52,.48s-1.66-.13-2.31-.39-1.13-.6-1.41-1.03l1.01-2.14c.45,.29,.89,.5,1.32,.62,.43,.13,.88,.19,1.37,.19,1.59,0,2.5-.67,2.74-2.02,.03-.2,.06-.34,.09-.42,0-.06,.03-.13,.05-.22,.02-.09,.04-.22,.06-.36-.71,1.33-1.83,1.99-3.37,1.99-.63,0-1.15-.17-1.58-.5-.43-.34-.73-.79-.9-1.37-.17-.57-.19-1.21-.07-1.9,.12-.71,.38-1.36,.75-1.95,.38-.59,.84-1.06,1.38-1.41,.55-.35,1.12-.52,1.73-.52,1.58,0,2.51,.56,2.79,1.67l.62-1.53Zm-2.16,5.12c.25-.1,.48-.26,.69-.48s.34-.49,.4-.82c.1-.58,.04-.99-.17-1.24-.22-.25-.58-.37-1.1-.37-.45,0-.83,.15-1.14,.45-.31,.3-.51,.69-.6,1.16-.08,.43,0,.78,.24,1.04,.24,.27,.57,.4,.99,.4,.21,0,.45-.05,.7-.15Z"/>
        <path class="cls-6" d="M107.71,9.9c3.55-.02,6.13-.07,7.74-.15-.13,.38-.24,.78-.33,1.18-.08,.41-.18,.92-.29,1.53h-10.88c.39-1.81,.73-3.5,1.01-5.08,.28-1.58,.54-3.27,.78-5.08h10.88l-.45,2.53h-7.57l-.24,1.34c.45,0,1.11,.01,1.98,.01,1.48,0,3.02-.03,4.62-.08l-.42,2.41c-1.58-.06-3.11-.08-4.59-.08-.88,0-1.54,0-1.99,.01l-.26,1.46Z"/>
        <path class="cls-6" d="M126.6,10.27c-.33,1.89-.63,3.71-.88,5.45h-3.16c.08-.47,.24-1.27,.48-2.41,.24-1.18,.41-2.03,.51-2.56-.36,.63-.83,1.1-1.4,1.41-.57,.3-1.22,.45-1.95,.45-.62,0-1.15-.19-1.57-.57-.42-.38-.72-.88-.88-1.5-.16-.62-.18-1.28-.06-1.98,.12-.71,.38-1.36,.75-1.95,.38-.59,.84-1.06,1.38-1.41,.55-.35,1.12-.52,1.73-.52,.71,0,1.3,.15,1.77,.46,.47,.3,.78,.78,.92,1.44l.71-1.75h2.69c-.36,1.74-.71,3.55-1.04,5.45Zm-3.81-.33c.25-.1,.48-.26,.69-.48s.34-.49,.4-.82c.1-.58,.04-.99-.17-1.24-.22-.25-.58-.37-1.1-.37-.45,0-.83,.15-1.14,.45-.31,.3-.51,.69-.6,1.16-.08,.43,0,.78,.24,1.04,.24,.27,.57,.4,.99,.4,.21,0,.45-.05,.7-.15Z"/>
        <path class="cls-6" d="M137.66,8.63c-.24,1.37-.44,2.65-.58,3.84-.59-.03-1.06-.04-1.41-.04-.33,0-.8,.01-1.42,.04l-.04-2.06c-.35,.75-.78,1.3-1.3,1.66-.52,.36-1.08,.54-1.69,.54-.56,0-1.02-.12-1.39-.37-.37-.25-.62-.58-.75-1-.14-.42-.16-.89-.07-1.41l.36-2.02c.22-1.24,.37-2.23,.46-2.98h3.15c-.3,1.37-.57,2.73-.8,4.07-.07,.41-.03,.74,.13,.98,.16,.24,.39,.36,.7,.36,.29,0,.57-.13,.83-.39,.26-.26,.46-.61,.58-1.06l.06-.32c.15-.73,.25-1.23,.29-1.51,.11-.64,.22-1.36,.32-2.14h3.35c-.27,1.18-.53,2.45-.77,3.81Z"/>
        <path class="cls-6" d="M139.5,12.47c.33-1.5,.58-2.74,.76-3.72,.21-1.17,.4-2.47,.58-3.92h3.36c-.32,1.39-.59,2.7-.8,3.92-.18,1.03-.37,2.27-.56,3.72h-3.33Zm1.89-8.9c-.23-.29-.31-.67-.23-1.13,.08-.46,.29-.84,.63-1.13,.34-.3,.8-.45,1.39-.45s.96,.15,1.21,.46c.25,.3,.33,.68,.25,1.13-.08,.47-.29,.84-.63,1.13-.34,.29-.8,.43-1.38,.43s-1-.14-1.23-.43Z"/>
        <path class="cls-6" d="M154.21,5.2c.42,.35,.72,.81,.89,1.41,.17,.59,.19,1.24,.06,1.95-.12,.7-.38,1.36-.76,1.98-.38,.62-.85,1.12-1.41,1.5-.56,.38-1.15,.57-1.77,.57-.73,0-1.32-.15-1.79-.45-.46-.3-.77-.77-.91-1.41-.09,.53-.23,1.39-.4,2.56-.16,1.14-.29,1.94-.37,2.41h-3.16c.36-1.74,.71-3.55,1.04-5.45s.63-3.71,.88-5.45h2.69l.1,1.75c.38-.65,.85-1.13,1.43-1.44,.58-.3,1.22-.46,1.93-.46,.61,0,1.12,.17,1.55,.52Zm-2.87,4.49c.33-.27,.54-.61,.61-1.04,.08-.48,.02-.86-.19-1.16-.21-.3-.54-.45-.99-.45-.51,0-.92,.12-1.23,.37-.31,.25-.51,.66-.61,1.24-.06,.33-.02,.6,.11,.82s.3,.38,.52,.48c.22,.1,.43,.15,.65,.15,.42,0,.8-.13,1.13-.4Z"/>
        <path class="cls-6" d="M167.35,12.47c.29-1.22,.55-2.49,.78-3.79,.07-.42,.03-.75-.14-.99s-.43-.36-.77-.36c-.32,0-.62,.14-.89,.42-.28,.28-.46,.69-.56,1.22h0c-.29,1.64-.47,2.81-.55,3.5h-3.15c.3-1.37,.55-2.64,.75-3.79,.07-.41,.03-.74-.13-.98-.16-.24-.39-.36-.7-.36-.33,0-.62,.14-.89,.41-.27,.28-.46,.65-.58,1.13-.14,.71-.24,1.21-.29,1.51-.11,.63-.22,1.33-.31,2.09h-3.35c.31-1.34,.57-2.61,.78-3.81,.21-1.19,.4-2.47,.56-3.84,.61,.03,1.08,.04,1.41,.04,.35,0,.82-.01,1.42-.04l.05,2.07c.35-.76,.79-1.31,1.32-1.67,.53-.36,1.1-.54,1.7-.54,.73,0,1.29,.2,1.68,.6s.59,.92,.58,1.57c.33-.66,.78-1.19,1.36-1.58,.57-.39,1.18-.59,1.83-.59,.84,0,1.45,.28,1.82,.85,.38,.56,.48,1.34,.31,2.32l-.41,2.32c-.19,1.06-.31,1.82-.38,2.3h-3.26Z"/>
        <path class="cls-6" d="M180.95,8.97h-4.56c0,.41,.13,.74,.38,1s.64,.39,1.19,.39c.39,0,.77-.08,1.15-.23,.37-.15,.69-.37,.94-.65,.57,.31,1.34,.64,2.32,.99-.4,.65-1.02,1.17-1.85,1.56-.83,.39-1.85,.58-3.08,.58-1.59,0-2.7-.37-3.33-1.1s-.84-1.7-.63-2.89c.21-1.17,.75-2.11,1.63-2.84s2.13-1.09,3.72-1.09c.95,0,1.75,.16,2.39,.48,.64,.32,1.1,.76,1.38,1.32s.35,1.21,.22,1.94c-.04,.24-.08,.42-.12,.55h-1.74Zm-3.5-1.9c-.33,.18-.58,.42-.76,.73h3.3c-.06-.3-.2-.54-.42-.72-.22-.18-.53-.27-.93-.27-.47,0-.87,.09-1.2,.27Z"/>
        <path class="cls-6" d="M189.58,12.47c.3-1.37,.55-2.64,.75-3.79,.07-.41,.03-.74-.13-.98-.16-.24-.39-.36-.7-.36s-.59,.14-.86,.41c-.26,.28-.46,.65-.58,1.13-.14,.71-.24,1.21-.29,1.51-.11,.63-.22,1.33-.31,2.09h-3.35c.31-1.34,.57-2.61,.78-3.81,.21-1.19,.4-2.47,.56-3.84,.61,.03,1.08,.04,1.41,.04,.35,0,.82-.01,1.42-.04l.04,2.06c.35-.75,.78-1.3,1.3-1.66s1.08-.54,1.69-.54c.56,0,1.02,.12,1.39,.37,.37,.25,.62,.58,.75,1s.16,.89,.07,1.41l-.36,2.02c-.22,1.24-.37,2.23-.46,2.98h-3.15Z"/>
        <path class="cls-6" d="M202.15,7.33c-.85-.06-1.63-.1-2.33-.13l-.28,1.48c-.09,.5-.05,.9,.12,1.18,.17,.29,.53,.43,1.09,.43,.21,0,.42-.02,.63-.06-.1,.35-.18,.7-.24,1.05-.03,.17-.09,.55-.17,1.15-.42,.07-.78,.12-1.06,.14-.28,.02-.65,.03-1.1,.03-1.09,0-1.82-.26-2.18-.79-.36-.53-.46-1.26-.29-2.2l.43-2.37c-.44,.02-.9,.05-1.39,.08l.44-2.48c.49,0,.92-.15,1.31-.46,.39-.31,.66-.68,.8-1.11h3.81c-.59,.65-1.21,1.18-1.86,1.57h2.7l-.44,2.48Z"/>
      </g>
      <g>
        <path class="cls-3" d="M50.81,73.64l.27,.83c.1,.3,.38,.5,.69,.5h21.24c.45,0,.79,.41,.72,.85l-.62,3.52c-.06,.35-.36,.6-.72,.6h-20.64c-.34,0-.62,.24-.7,.56-.45,1.77-1.27,3.22-2.48,4.34-1.33,1.24-3.54,2.18-6.62,2.82-3.08,.64-7.37,.96-12.86,.96-3.81,0-8.91-.37-15.3-1.1-.41-.05-.69-.42-.64-.83,.27-2.23-.02-4.34-.89-6.32-.12-.26-.39-.43-.68-.43H1.73c-.45,0-.79-.41-.72-.85l.62-3.52c.06-.35,.36-.6,.72-.6H35.21c0-.3-.04-.74-.14-1.34H4.32c-.45,0-.79-.41-.72-.85l.14-.82s0-.05,0-.07c.17-2.11,.25-3.87,.23-5.27-.02-1.1-.18-2.18-.5-3.23-.13-.45,.22-.9,.69-.91,8.37-.21,15.02-.75,19.93-1.61H6.06c-.45,0-.79-.41-.72-.85l1.13-6.41c.06-.35,.36-.6,.72-.6h26.63l.04-.22-2.99-2.47c-.36-.3-.9-.18-1.11,.23l-.15,.29c-.2,.38-.68,.52-1.04,.29-.47-.3-.96-.66-1.46-1.09-.35-.3-.68-.62-.98-.98-.39-.46-1.15-.23-1.25,.36l-.37,2.09c-.06,.35-.36,.6-.72,.6H14.35c-.45,0-.79-.41-.72-.85l.09-.49c.12-.66-.63-1.1-1.17-.69-1.07,.82-2.41,1.56-4.02,2.21-.5,.2-1.04-.18-1.01-.72,.13-2.46-.05-4.61-.55-6.44-.12-.44,.22-.88,.68-.89,1.22-.03,2.29-.13,3.18-.28,1.12-.2,2.38-.57,3.76-1.11h-3.81c-.45,0-.79-.41-.72-.85l1.37-7.75c.06-.35,.36-.6,.72-.6h3.98c.35,0,.65-.25,.72-.6l.09-.51c.06-.35,.36-.6,.72-.6h9.43c.45,0,.79,.41,.72,.85h0c-.08,.45,.26,.85,.72,.85h3.92c.08,0,.15-.01,.22-.03l6.33-2.04c.16-.05,.34-.05,.5,.02l4.94,2.01c.18,.07,.38,.08,.56,0,1.13-.49,2.39-1.12,3.75-1.88,.18-.1,.39-.12,.58-.06l7.56,2.5,.09-.52h5.1c.35,0,.65-.25,.72-.6l.05-.28c.06-.35,.36-.6,.72-.6h10.67l-.26,1.48h3.59c.45,0,.79,.41,.72,.85l-1.37,7.75c-.06,.35-.36,.6-.72,.6h-3.84v.07c1.13,.55,2.23,.9,3.29,1.08,.75,.12,1.64,.2,2.66,.24,.55,.02,.9,.62,.61,1.08-1.14,1.88-2.08,4.08-2.81,6.6-.12,.42-.58,.66-.98,.48-1.25-.56-2.25-1.18-3.01-1.88-.42-.39-1.09-.15-1.19,.41l-.1,.58c-.06,.35-.36,.6-.72,.6h-9.8c-.45,0-.79-.41-.72-.85l.3-1.71c.12-.67-.66-1.12-1.17-.68-.42,.36-.87,.7-1.33,1.02-1.07,.74-2.03,1.29-2.89,1.63l-.16-1.19-2.31,1.31c-.65,.37-.39,1.36,.36,1.36h23.55c.45,0,.79,.41,.72,.85l-1.13,6.41c-.06,.35-.36,.6-.72,.6h-17.2c5.44,.88,11.41,1.41,17.88,1.6,.56,.02,.9,.63,.6,1.1-1.09,1.69-2.03,3.71-2.81,6.05h.15l-.6,3.41c-.06,.35-.36,.6-.72,.6h-21.28Zm-36.59,6.31c5.81,.74,10.47,1.11,13.98,1.11,3.12,0,5.11-.37,5.98-1.11H14.22Zm19.93-10.32l-.28-.67c-.11-.27-.38-.44-.67-.44h-10.38c-.08,0-.16,.01-.24,.04-.79,.28-1.49,.5-2.08,.66-.62,.17-1.14,.31-1.56,.41h15.21Zm-8.15-26.57c1.87,.59,3.55,1.04,5.03,1.34-.28-.1-.57-.21-.87-.33-.3-.12-.66-.26-1.08-.41l1.78-.82h-4.82l-.04,.22Zm6.52-1l.31-.14c.5-.22,.58-.89,.16-1.23l-.25-.2c-.43-.34-1.07-.1-1.17,.44l-.06,.34c-.1,.57,.48,1.03,1.01,.79Zm-.95,5.16c.52-.15,1.67-.49,3.45-1.04l-1.54-.66c-.31-.13-.67-.04-.87,.24-.24,.34-.59,.83-1.04,1.46Zm1.65-9.78l1.23-.31c.67-.17,.75-1.09,.11-1.37l-1.09-.48c-.43-.19-.93,.07-1.01,.54l-.14,.8c-.09,.52,.38,.96,.9,.83Zm9.03,25.37c-.77-.44-1.46-.89-2.06-1.33-.24-.18-.57-.19-.82-.03-.9,.57-1.75,1.05-2.55,1.43,2.42,0,4.23-.02,5.43-.07Zm2.68-11.43l-1.96-1.04c-.18-.09-.39-.11-.58-.04l-3.1,1.08h5.64Zm-.4-8.49c.44-.16,.92-.34,1.42-.54,.6-.23,.63-1.07,.05-1.34l-1.23-.57c-.17-.08-.36-.09-.54-.03l-1.51,.51c-.63,.21-.67,1.08-.07,1.35l1.33,.6c.17,.08,.37,.09,.54,.02Zm14.48,26.75c-1.5-.43-2.76-.81-3.77-1.15-.07-.02-.15-.04-.22-.04h-7.6l.76,.92c.14,.17,.34,.26,.56,.26h10.27Zm-5.19-21.9c-.12-.44-.22-.81-.32-1.11-.12-.41-.57-.61-.96-.46l-.96,.38,2.24,1.19Zm7.25-4.9h-4.85c-.45,0-.79-.41-.72-.85l.16-.93c.1-.57-.47-1.02-1.01-.79l-1.46,.63c-.53,.23-.59,.96-.11,1.28l2.93,1.91c.17,.11,.39,.14,.58,.09,2.01-.51,3.49-.93,4.45-1.26v-.07Zm-5.63-6.99c-.42,.19-.81,.37-1.16,.52-.59,.26-.56,1.1,.03,1.34,.39,.16,.73,.29,1,.41,.43,.18,.91-.09,.99-.55l.16-.93c.1-.58-.49-1.03-1.02-.79Z"/>
        <path class="cls-5" d="M164.05,61.76h-45.12c-.29,0-.55,.14-.71,.38,0,0,0,0,0,.01-.36,.56,.04,1.31,.71,1.31h41.19c.53,0,.92,.47,.83,.99l-4.15,23.54c-.07,.4-.42,.7-.83,.7h-16.14l.1-.59h-22.34l-.1,.59h-15.84c-.53,0-.92-.47-.83-.99l1.04-5.9c.13-.77-.75-1.29-1.36-.8-2.9,2.29-5.55,4.02-7.95,5.18,.02-.4,.02-.84,.01-1.34-.01-.49-.01-1.06,0-1.71,.02-3.76-.04-6.77-.19-9.02-.12-1.86-.4-3.38-.84-4.58-.15-.42,.07-.87,.47-1.05,1.47-.64,2.73-1.28,3.78-1.94,1.22-.77,2.45-1.82,3.67-3.15,.37-.4,.81-.94,1.33-1.63h-5.08c-.53,0-.92-.47-.83-.99l1.76-9.96c.07-.4,.42-.7,.83-.7h68.35c.53,0,.92,.47,.83,.99l-1.76,9.96c-.07,.4-.42,.7-.83,.7Zm-12.28-28.8h14.46c.53,0,.92,.47,.83,.99l-2.37,13.45c-.07,.4-.42,.7-.83,.7H99.67c-.53,0-.92-.47-.83-.99l2.37-13.45c.07-.4,.42-.7,.83-.7h14.46c.53,0,.92,.47,.83,.99l-.21,1.21c-.09,.52,.31,.99,.83,.99h6.59c.41,0,.76-.29,.83-.7l.51-2.91c.07-.4,.42-.7,.83-.7h15.2c.53,0,.92,.47,.83,.99l-.41,2.32c-.09,.52,.31,.99,.83,.99h6.6c.41,0,.76-.29,.83-.7l.32-1.79c.07-.4,.42-.7,.83-.7Zm-9.73,43.17l.25-1.42c.09-.52-.31-.99-.83-.99h-20.62c-.41,0-.76,.29-.83,.7l-.25,1.42c-.09,.52,.31,.99,.83,.99h20.62c.41,0,.76-.29,.83-.7Z"/>
        <path class="cls-1" d="M243.8,89.08c-6.32-1.29-12.01-3.73-17.08-7.33-.53-.38-1.27-.09-1.38,.55l-.43,2.46c-.06,.36-.34,.65-.7,.71-8.98,1.64-22.55,2.71-40.7,3.21-.48,.01-.87-.36-.91-.83-.2-2.78-.92-5.44-2.18-7.98-.29-.58,.14-1.26,.79-1.26h1.27c.52,0,.94-.46,.88-.97-.18-1.35-.48-2.6-.92-3.74-.38-.98-.91-1.99-1.59-3.04-.38-.59,.03-1.37,.74-1.36l5.85,.06c8.91,0,15.67-.45,20.28-1.34h-25.08c-.55,0-.96-.49-.87-1.03l1.19-6.77c.07-.42,.44-.73,.87-.73h11.14c-3.66-.73-6.77-1.23-9.34-1.5-.69-.07-1.02-.87-.6-1.41,.92-1.21,1.66-2.2,2.21-2.98,.41-.58-.01-1.38-.73-1.38h-.12c-.55,0-.96-.49-.87-1.03l.99-5.59c.07-.42,.44-.73,.87-.73h18.71l.2-1.11h-16.69c-.55,0-.96-.49-.87-1.03l1.69-9.59c.07-.42,.44-.73,.87-.73h11.94c.55,0,.96,.49,.87,1.03l-.24,1.35c-.1,.54,.32,1.03,.87,1.03h2.22c.43,0,.79-.31,.87-.73l.42-2.4c.07-.42,.44-.73,.87-.73h12.39c.55,0,.96,.49,.87,1.03l-4.12,23.39c-.1,.54,.32,1.03,.87,1.03h.66c.43,0,.79-.31,.87-.73l1.44-8.19c.07-.42,.44-.73,.87-.73h7.21c.43,0,.79-.31,.87-.73l.32-1.8c.1-.54-.32-1.03-.87-1.03h-7.33c-.55,0-.96-.49-.87-1.03l1.51-8.56c.07-.42,.44-.73,.87-.73h7.95c.43,0,.79-.31,.87-.73l.12-.7c.07-.42,.44-.73,.87-.73h12.83c.55,0,.96,.49,.87,1.03l-.02,.09c-.1,.54,.32,1.03,.87,1.03h7.7c.55,0,.96,.49,.87,1.03l-1.51,8.56c-.07,.42-.44,.73-.87,.73h-8.32c-.43,0-.79,.31-.87,.73l-.32,1.8c-.1,.54,.32,1.03,.87,1.03h6.81c.55,0,.96,.49,.87,1.03l-1.56,8.85c-.07,.42-.44,.73-.87,.73h-25.24l-.2,1.11h26.78c.55,0,.96,.49,.87,1.03l-1.19,6.77c-.07,.42-.44,.73-.87,.73h-7.55c-1.01,0-1.23,1.41-.27,1.72l2.29,.73c.73,.23,.84,1.21,.18,1.6-.76,.44-1.69,.97-2.79,1.59-.72,.41-.55,1.5,.27,1.64,1.93,.33,4.07,.64,6.44,.92,.7,.08,1.03,.91,.57,1.44-2.52,2.88-4.62,6.43-6.29,10.67-.16,.4-.58,.64-1,.55Zm-44.09-11.69c.11-.62-.45-1.15-1.06-1.01-3.48,.78-7.51,1.52-12.07,2.23,4.17-.05,8.27-.18,12.3-.41,.41-.02,.75-.33,.82-.73v-.08Zm2.65-24.43c-.72,1.8-1.58,3.6-2.59,5.4-.33,.59,.08,1.32,.76,1.32h10.42l.2-1.11h-6.37c-.55,0-.96-.49-.87-1.03l.72-4.09c.1-.54-.32-1.03-.87-1.03h-.58c-.36,0-.68,.22-.81,.55Zm14.39,23.77l1.8-.26c.69-.1,1-.92,.54-1.45s-.94-1.1-1.43-1.7-1.42-.35-1.55,.39l-.35,1.99c-.1,.59,.4,1.11,.99,1.02Zm13.83-8.51h-.05c-.83,0-1.2,1.05-.55,1.58,0,0,.02,.01,.02,.02,.31,.25,.75,.26,1.06,.02,0,0,.02-.01,.03-.02,.69-.51,.34-1.6-.52-1.6Z"/>
        <path class="cls-2" d="M336.98,46.03h7.67c.57,0,1,.51,.9,1.07l-1.34,7.6c-.08,.44-.46,.75-.9,.75h-35.5c-.44,0-.82,.32-.9,.75l-1.7,9.64c-.69,3.91-1.53,7.68-2.52,11.32-.93,3.42-2.21,7.36-3.85,11.82-.17,.46-.67,.71-1.14,.56-2.63-.87-5.54-1.61-8.74-2.24-1.02-.25-1.83-.45-2.41-.59-.51-.12-1.02,.21-1.11,.73l-.12,.66c-.08,.44-.46,.75-.9,.75h-13.36c-.57,0-1-.51-.9-1.07l2.51-14.25c.12-.69-.55-1.26-1.2-1.02-.03,.01-.06,.02-.09,.03-.65,.24-1.31-.33-1.2-1.01,.48-3.16,.79-6.02,.95-8.58,.16-2.64,.07-5.23-.25-7.79-.06-.5,.28-.97,.79-1.02,2.22-.22,3.9-1.09,5.04-2.62,.78-1.04,1.65-4.33,2.63-9.87,.44-2.5,.82-5.26,1.15-8.3,.05-.47,.44-.83,.91-.82l14.32,.07c.57,0,1,.53,.89,1.09-1.63,8.53-3.35,15.12-5.16,19.76-.02,.05-.04,.11-.05,.16l-5.7,32.35c1.39-2.82,2.53-5.99,3.42-9.5,.89-3.51,1.78-7.79,2.67-12.84l1.58-8.98,1.38-7.85c.08-.44,.46-.75,.9-.75h6.78c.44,0,.82-.32,.9-.76l.13-.73h-5.89c-.57,0-1-.51-.9-1.07l1.52-8.64c.08-.44,.46-.75,.9-.75h5.44c.44,0,.82-.32,.9-.76l.19-1.09c.08-.44,.46-.76,.9-.76h11.73c.57,0,1,.51,.9,1.07l-.08,.45c-.1,.56,.33,1.07,.9,1.07h4.83c.44,0,.82-.32,.9-.76l.19-1.09c.08-.44,.46-.76,.9-.76h11.65c.57,0,1,.51,.9,1.07l-.08,.45c-.1,.56,.33,1.07,.9,1.07h5.62c.57,0,1,.51,.9,1.07l-1.52,8.64c-.08,.44-.46,.75-.9,.75h-6.26c-.44,0-.82,.32-.9,.76l-.13,.73Zm-34,40.86l5.19-29.42c.08-.44,.46-.75,.9-.75h32.21c.57,0,1,.51,.9,1.07l-4.39,24.9c-.28,1.58-.8,2.76-1.55,3.53-.75,.77-1.81,1.3-3.18,1.6-1.2,.26-2.98,.5-5.33,.73-.53,.05-1-.37-1-.9,0-.31,0-.7,0-1.16,.04-2.77-.12-4.77-.5-6.01l-1.11,6.3c-.08,.44-.46,.76-.9,.76h-8.02c-.57,0-1-.51-.9-1.07l1.35-7.65c.1-.56-.33-1.07-.9-1.07h0c-.44,0-.82,.32-.9,.75l-1.54,8.73c-.08,.44-.46,.75-.9,.75h-8.54c-.57,0-1-.51-.9-1.07Zm12.99-14.74h1.91c.44,0,.82-.32,.9-.75l.13-.73h-1.91c-.44,0-.82,.32-.9,.75l-.13,.73Zm1.85-27.61c-.44,0-.82,.32-.9,.76l-.13,.73h5.91c.44,0,.82-.32,.9-.76l.13-.73h-5.91Zm1.31,20.48c.44,0,.82-.32,.9-.75l.13-.73h-1.91c-.44,0-.82,.32-.9,.75l-.13,.73h1.91Zm7.23,14.7c1-.05,1.61-.16,1.84-.33,.23-.17,.42-.68,.57-1.52l.03-.15h-1.31c-.44,0-.82,.32-.9,.75l-.22,1.25Zm.67-7.57h1.94c.46,0,.85-.34,.91-.8l.09-.68h-1.91c-.44,0-.82,.32-.9,.75l-.13,.73Zm1.26-7.13h1.83c.44,0,.82-.32,.9-.75l.13-.73h-1.83c-.44,0-.82,.32-.9,.75l-.13,.73Z"/>
      </g>
    </g>
  </g>
</svg>